%TF.GenerationSoftware,KiCad,Pcbnew,7.0.10*%
%TF.CreationDate,2024-03-07T23:30:47-03:00*%
%TF.ProjectId,board,626f6172-642e-46b6-9963-61645f706362,rev?*%
%TF.SameCoordinates,Original*%
%TF.FileFunction,Soldermask,Top*%
%TF.FilePolarity,Negative*%
%FSLAX46Y46*%
G04 Gerber Fmt 4.6, Leading zero omitted, Abs format (unit mm)*
G04 Created by KiCad (PCBNEW 7.0.10) date 2024-03-07 23:30:47*
%MOMM*%
%LPD*%
G01*
G04 APERTURE LIST*
%ADD10C,1.600000*%
%ADD11O,1.600000X1.600000*%
%ADD12C,1.500000*%
%ADD13O,1.500000X1.500000*%
%ADD14C,3.000000*%
%ADD15C,1.712000*%
%ADD16C,1.700000*%
%ADD17O,1.700000X1.700000*%
G04 APERTURE END LIST*
D10*
%TO.C,R15*%
X138232000Y-81272000D03*
D11*
X138232000Y-91432000D03*
%TD*%
D12*
%TO.C,DZ7*%
X85471001Y-100472401D03*
D13*
X85471001Y-108092401D03*
%TD*%
D12*
%TO.C,DZ17*%
X148590000Y-45334000D03*
D13*
X148590000Y-52954000D03*
%TD*%
D12*
%TO.C,DZ5*%
X81051401Y-100472401D03*
D13*
X81051401Y-108092401D03*
%TD*%
D10*
%TO.C,R23*%
X174904400Y-102108000D03*
D11*
X185064400Y-102108000D03*
%TD*%
D12*
%TO.C,DZ1*%
X72212201Y-100472401D03*
D13*
X72212201Y-108092401D03*
%TD*%
D14*
%TO.C,ST1*%
X50368200Y-103911400D03*
X55448200Y-103911400D03*
%TD*%
D10*
%TO.C,R21*%
X161219000Y-72144000D03*
D11*
X161219000Y-61984000D03*
%TD*%
D10*
%TO.C,R17*%
X161219000Y-81272000D03*
D11*
X161219000Y-91432000D03*
%TD*%
D12*
%TO.C,DZ21*%
X157429200Y-45334000D03*
D13*
X157429200Y-52954000D03*
%TD*%
D12*
%TO.C,DZ18*%
X150799800Y-52954000D03*
D13*
X150799800Y-45334000D03*
%TD*%
D15*
%TO.C,TP4*%
X81923401Y-46888401D03*
X81923401Y-59588401D03*
X91923401Y-59588401D03*
X91923401Y-46888401D03*
%TD*%
D12*
%TO.C,D1*%
X106385000Y-50825400D03*
D13*
X114005000Y-50825400D03*
%TD*%
D12*
%TO.C,DZ10*%
X92100401Y-108092401D03*
D13*
X92100401Y-100472401D03*
%TD*%
D12*
%TO.C,DZ16*%
X146380200Y-52954000D03*
D13*
X146380200Y-45334000D03*
%TD*%
D14*
%TO.C,K1*%
X148000200Y-95472000D03*
X142000200Y-81272000D03*
X154000200Y-81272000D03*
X154000200Y-93472000D03*
X142000200Y-93472000D03*
%TD*%
%TO.C,ST1*%
X155321000Y-103911400D03*
X160401000Y-103911400D03*
%TD*%
D12*
%TO.C,DZ4*%
X78841601Y-108092401D03*
D13*
X78841601Y-100472401D03*
%TD*%
D10*
%TO.C,R18*%
X180755400Y-81272000D03*
D11*
X180755400Y-91432000D03*
%TD*%
D10*
%TO.C,R16*%
X157768400Y-81272000D03*
D11*
X157768400Y-91432000D03*
%TD*%
D15*
%TO.C,TP6*%
X81923401Y-82321401D03*
X81923401Y-95021401D03*
X91923401Y-95021401D03*
X91923401Y-82321401D03*
%TD*%
D12*
%TO.C,DZ25*%
X166268400Y-45334000D03*
D13*
X166268400Y-52954000D03*
%TD*%
D10*
%TO.C,R7*%
X75158601Y-57048401D03*
D11*
X75158601Y-46888401D03*
%TD*%
D10*
%TO.C,R6*%
X71607201Y-92481401D03*
D11*
X71607201Y-82321401D03*
%TD*%
D12*
%TO.C,DZ2*%
X74422001Y-108092401D03*
D13*
X74422001Y-100472401D03*
%TD*%
D12*
%TO.C,DZ20*%
X155219400Y-52954000D03*
D13*
X155219400Y-45334000D03*
%TD*%
D10*
%TO.C,R20*%
X157768400Y-72144000D03*
D11*
X157768400Y-61984000D03*
%TD*%
D12*
%TO.C,DZ27*%
X170688000Y-45334000D03*
D13*
X170688000Y-52954000D03*
%TD*%
D10*
%TO.C,R22*%
X180755400Y-72144000D03*
D11*
X180755400Y-61984000D03*
%TD*%
D12*
%TO.C,DZ8*%
X87680801Y-108092401D03*
D13*
X87680801Y-100472401D03*
%TD*%
D10*
%TO.C,R10*%
X98691601Y-57048401D03*
D11*
X98691601Y-46888401D03*
%TD*%
D12*
%TO.C,DZ14*%
X141960600Y-52954000D03*
D13*
X141960600Y-45334000D03*
%TD*%
D14*
%TO.C,ST1*%
X165481000Y-103911400D03*
X170561000Y-103911400D03*
%TD*%
D10*
%TO.C,R2*%
X48074201Y-74701401D03*
D11*
X48074201Y-64541401D03*
%TD*%
D16*
%TO.C,ESP32-S3_BACK1*%
X129235201Y-107975401D03*
D17*
X129235201Y-105435401D03*
X129235201Y-102895401D03*
X129235201Y-100355401D03*
X129235201Y-97815401D03*
X129235201Y-95275401D03*
X129235201Y-92735401D03*
X129235201Y-90195401D03*
X129235201Y-87655401D03*
X129235201Y-85115401D03*
X129235201Y-82575401D03*
X129235201Y-80035401D03*
X129235201Y-77495401D03*
X129235201Y-74955401D03*
X129235201Y-72415401D03*
X129235201Y-69875401D03*
X129235201Y-67335401D03*
X129235201Y-64795401D03*
X129235201Y-62255401D03*
X129235201Y-59715401D03*
X129235201Y-57175401D03*
X129235201Y-54635401D03*
%TD*%
D12*
%TO.C,DZ28*%
X172897800Y-52954000D03*
D13*
X172897800Y-45334000D03*
%TD*%
D10*
%TO.C,R14*%
X85324201Y-42697401D03*
D11*
X75164201Y-42697401D03*
%TD*%
D10*
%TO.C,R19*%
X138232000Y-72144000D03*
D11*
X138232000Y-61984000D03*
%TD*%
D12*
%TO.C,DZ13*%
X139750800Y-45334000D03*
D13*
X139750800Y-52954000D03*
%TD*%
D15*
%TO.C,TP2*%
X54839001Y-64541401D03*
X54839001Y-77241401D03*
X64839001Y-77241401D03*
X64839001Y-64541401D03*
%TD*%
D14*
%TO.C,ST1*%
X135001000Y-103911400D03*
X140081000Y-103911400D03*
%TD*%
%TO.C,K1*%
X170987200Y-95472000D03*
X164987200Y-81272000D03*
X176987200Y-81272000D03*
X176987200Y-93472000D03*
X164987200Y-93472000D03*
%TD*%
D10*
%TO.C,R9*%
X75158601Y-92481401D03*
D11*
X75158601Y-82321401D03*
%TD*%
D10*
%TO.C,R24*%
X174904400Y-105587800D03*
D11*
X185064400Y-105587800D03*
%TD*%
D10*
%TO.C,R8*%
X75158601Y-74701401D03*
D11*
X75158601Y-64541401D03*
%TD*%
D10*
%TO.C,R12*%
X98691601Y-92481401D03*
D11*
X98691601Y-82321401D03*
%TD*%
D12*
%TO.C,DZ26*%
X168478200Y-52954000D03*
D13*
X168478200Y-45334000D03*
%TD*%
D12*
%TO.C,DZ11*%
X94310201Y-100472401D03*
D13*
X94310201Y-108092401D03*
%TD*%
D12*
%TO.C,DZ24*%
X164058600Y-52954000D03*
D13*
X164058600Y-45334000D03*
%TD*%
D10*
%TO.C,R13*%
X61443201Y-42697401D03*
D11*
X71603201Y-42697401D03*
%TD*%
D10*
%TO.C,R11*%
X98691601Y-74701401D03*
D11*
X98691601Y-64541401D03*
%TD*%
D12*
%TO.C,DZ15*%
X144170400Y-45334000D03*
D13*
X144170400Y-52954000D03*
%TD*%
D12*
%TO.C,DZ19*%
X153009600Y-45334000D03*
D13*
X153009600Y-52954000D03*
%TD*%
D12*
%TO.C,DZ6*%
X83261201Y-108092401D03*
D13*
X83261201Y-100472401D03*
%TD*%
D12*
%TO.C,DZ23*%
X161848800Y-45334000D03*
D13*
X161848800Y-52954000D03*
%TD*%
D12*
%TO.C,DZ22*%
X159639000Y-52954000D03*
D13*
X159639000Y-45334000D03*
%TD*%
D14*
%TO.C,K1*%
X170987200Y-57944000D03*
X176987200Y-72144000D03*
X164987200Y-72144000D03*
X164987200Y-59944000D03*
X176987200Y-59944000D03*
%TD*%
D12*
%TO.C,DZ3*%
X76631801Y-100472401D03*
D13*
X76631801Y-108092401D03*
%TD*%
D14*
%TO.C,ST2*%
X60528200Y-103911400D03*
X65608200Y-103911400D03*
%TD*%
D10*
%TO.C,R3*%
X48074201Y-92481401D03*
D11*
X48074201Y-82321401D03*
%TD*%
D14*
%TO.C,ST1*%
X145161000Y-103911400D03*
X150241000Y-103911400D03*
%TD*%
D12*
%TO.C,DZ9*%
X89890601Y-100472401D03*
D13*
X89890601Y-108092401D03*
%TD*%
D16*
%TO.C,SW1*%
X119085000Y-45500000D03*
D17*
X116545000Y-45500000D03*
X114005000Y-45500000D03*
%TD*%
D14*
%TO.C,K1*%
X148000200Y-57944000D03*
X154000200Y-72144000D03*
X142000200Y-72144000D03*
X142000200Y-59944000D03*
X154000200Y-59944000D03*
%TD*%
D10*
%TO.C,R1*%
X48074201Y-57051401D03*
D11*
X48074201Y-46891401D03*
%TD*%
D10*
%TO.C,R5*%
X71607201Y-74701401D03*
D11*
X71607201Y-64541401D03*
%TD*%
D10*
%TO.C,R4*%
X71607201Y-57048401D03*
D11*
X71607201Y-46888401D03*
%TD*%
D15*
%TO.C,TP3*%
X54839001Y-82321401D03*
X54839001Y-95021401D03*
X64839001Y-95021401D03*
X64839001Y-82321401D03*
%TD*%
%TO.C,TP5*%
X81923401Y-64541401D03*
X81923401Y-77241401D03*
X91923401Y-77241401D03*
X91923401Y-64541401D03*
%TD*%
D16*
%TO.C,ESP32-S3_FRONT1*%
X103835201Y-107975401D03*
D17*
X103835201Y-105435401D03*
X103835201Y-102895401D03*
X103835201Y-100355401D03*
X103835201Y-97815401D03*
X103835201Y-95275401D03*
X103835201Y-92735401D03*
X103835201Y-90195401D03*
X103835201Y-87655401D03*
X103835201Y-85115401D03*
X103835201Y-82575401D03*
X103835201Y-80035401D03*
X103835201Y-77495401D03*
X103835201Y-74955401D03*
X103835201Y-72415401D03*
X103835201Y-69875401D03*
X103835201Y-67335401D03*
X103835201Y-64795401D03*
X103835201Y-62255401D03*
X103835201Y-59715401D03*
X103835201Y-57175401D03*
X103835201Y-54635401D03*
%TD*%
D15*
%TO.C,TP1*%
X54839001Y-46888401D03*
X54839001Y-59588401D03*
X64839001Y-59588401D03*
X64839001Y-46888401D03*
%TD*%
D12*
%TO.C,DZ12*%
X96520001Y-108092401D03*
D13*
X96520001Y-100472401D03*
%TD*%
M02*
