%TF.GenerationSoftware,KiCad,Pcbnew,7.0.10*%
%TF.CreationDate,2024-03-07T23:30:47-03:00*%
%TF.ProjectId,board,626f6172-642e-46b6-9963-61645f706362,rev?*%
%TF.SameCoordinates,Original*%
%TF.FileFunction,Legend,Top*%
%TF.FilePolarity,Positive*%
%FSLAX46Y46*%
G04 Gerber Fmt 4.6, Leading zero omitted, Abs format (unit mm)*
G04 Created by KiCad (PCBNEW 7.0.10) date 2024-03-07 23:30:47*
%MOMM*%
%LPD*%
G01*
G04 APERTURE LIST*
%ADD10C,0.150000*%
%ADD11C,0.300000*%
%ADD12C,0.100000*%
%ADD13C,0.200000*%
%ADD14C,0.600000*%
%ADD15C,0.120000*%
%ADD16C,0.127000*%
G04 APERTURE END LIST*
D10*
X186216847Y-59184187D02*
X185407323Y-59184187D01*
X185407323Y-59184187D02*
X185312085Y-59136568D01*
X185312085Y-59136568D02*
X185264466Y-59088949D01*
X185264466Y-59088949D02*
X185216847Y-58993711D01*
X185216847Y-58993711D02*
X185216847Y-58850854D01*
X185216847Y-58850854D02*
X185264466Y-58755616D01*
X185597800Y-59184187D02*
X185550180Y-59088949D01*
X185550180Y-59088949D02*
X185550180Y-58898473D01*
X185550180Y-58898473D02*
X185597800Y-58803235D01*
X185597800Y-58803235D02*
X185645419Y-58755616D01*
X185645419Y-58755616D02*
X185740657Y-58707997D01*
X185740657Y-58707997D02*
X186026371Y-58707997D01*
X186026371Y-58707997D02*
X186121609Y-58755616D01*
X186121609Y-58755616D02*
X186169228Y-58803235D01*
X186169228Y-58803235D02*
X186216847Y-58898473D01*
X186216847Y-58898473D02*
X186216847Y-59088949D01*
X186216847Y-59088949D02*
X186169228Y-59184187D01*
X185550180Y-59660378D02*
X186216847Y-59660378D01*
X186550180Y-59660378D02*
X186502561Y-59612759D01*
X186502561Y-59612759D02*
X186454942Y-59660378D01*
X186454942Y-59660378D02*
X186502561Y-59707997D01*
X186502561Y-59707997D02*
X186550180Y-59660378D01*
X186550180Y-59660378D02*
X186454942Y-59660378D01*
X186216847Y-59993711D02*
X186216847Y-60374663D01*
X186550180Y-60136568D02*
X185693038Y-60136568D01*
X185693038Y-60136568D02*
X185597800Y-60184187D01*
X185597800Y-60184187D02*
X185550180Y-60279425D01*
X185550180Y-60279425D02*
X185550180Y-60374663D01*
X185550180Y-60707997D02*
X186550180Y-60707997D01*
X185550180Y-61136568D02*
X186073990Y-61136568D01*
X186073990Y-61136568D02*
X186169228Y-61088949D01*
X186169228Y-61088949D02*
X186216847Y-60993711D01*
X186216847Y-60993711D02*
X186216847Y-60850854D01*
X186216847Y-60850854D02*
X186169228Y-60755616D01*
X186169228Y-60755616D02*
X186121609Y-60707997D01*
X186216847Y-62041330D02*
X185550180Y-62041330D01*
X186216847Y-61612759D02*
X185693038Y-61612759D01*
X185693038Y-61612759D02*
X185597800Y-61660378D01*
X185597800Y-61660378D02*
X185550180Y-61755616D01*
X185550180Y-61755616D02*
X185550180Y-61898473D01*
X185550180Y-61898473D02*
X185597800Y-61993711D01*
X185597800Y-61993711D02*
X185645419Y-62041330D01*
X185550180Y-62517521D02*
X186550180Y-62517521D01*
X186169228Y-62517521D02*
X186216847Y-62612759D01*
X186216847Y-62612759D02*
X186216847Y-62803235D01*
X186216847Y-62803235D02*
X186169228Y-62898473D01*
X186169228Y-62898473D02*
X186121609Y-62946092D01*
X186121609Y-62946092D02*
X186026371Y-62993711D01*
X186026371Y-62993711D02*
X185740657Y-62993711D01*
X185740657Y-62993711D02*
X185645419Y-62946092D01*
X185645419Y-62946092D02*
X185597800Y-62898473D01*
X185597800Y-62898473D02*
X185550180Y-62803235D01*
X185550180Y-62803235D02*
X185550180Y-62612759D01*
X185550180Y-62612759D02*
X185597800Y-62517521D01*
X185645419Y-63422283D02*
X185597800Y-63469902D01*
X185597800Y-63469902D02*
X185550180Y-63422283D01*
X185550180Y-63422283D02*
X185597800Y-63374664D01*
X185597800Y-63374664D02*
X185645419Y-63422283D01*
X185645419Y-63422283D02*
X185550180Y-63422283D01*
X185597800Y-64327044D02*
X185550180Y-64231806D01*
X185550180Y-64231806D02*
X185550180Y-64041330D01*
X185550180Y-64041330D02*
X185597800Y-63946092D01*
X185597800Y-63946092D02*
X185645419Y-63898473D01*
X185645419Y-63898473D02*
X185740657Y-63850854D01*
X185740657Y-63850854D02*
X186026371Y-63850854D01*
X186026371Y-63850854D02*
X186121609Y-63898473D01*
X186121609Y-63898473D02*
X186169228Y-63946092D01*
X186169228Y-63946092D02*
X186216847Y-64041330D01*
X186216847Y-64041330D02*
X186216847Y-64231806D01*
X186216847Y-64231806D02*
X186169228Y-64327044D01*
X185550180Y-64898473D02*
X185597800Y-64803235D01*
X185597800Y-64803235D02*
X185645419Y-64755616D01*
X185645419Y-64755616D02*
X185740657Y-64707997D01*
X185740657Y-64707997D02*
X186026371Y-64707997D01*
X186026371Y-64707997D02*
X186121609Y-64755616D01*
X186121609Y-64755616D02*
X186169228Y-64803235D01*
X186169228Y-64803235D02*
X186216847Y-64898473D01*
X186216847Y-64898473D02*
X186216847Y-65041330D01*
X186216847Y-65041330D02*
X186169228Y-65136568D01*
X186169228Y-65136568D02*
X186121609Y-65184187D01*
X186121609Y-65184187D02*
X186026371Y-65231806D01*
X186026371Y-65231806D02*
X185740657Y-65231806D01*
X185740657Y-65231806D02*
X185645419Y-65184187D01*
X185645419Y-65184187D02*
X185597800Y-65136568D01*
X185597800Y-65136568D02*
X185550180Y-65041330D01*
X185550180Y-65041330D02*
X185550180Y-64898473D01*
X185550180Y-65660378D02*
X186216847Y-65660378D01*
X186121609Y-65660378D02*
X186169228Y-65707997D01*
X186169228Y-65707997D02*
X186216847Y-65803235D01*
X186216847Y-65803235D02*
X186216847Y-65946092D01*
X186216847Y-65946092D02*
X186169228Y-66041330D01*
X186169228Y-66041330D02*
X186073990Y-66088949D01*
X186073990Y-66088949D02*
X185550180Y-66088949D01*
X186073990Y-66088949D02*
X186169228Y-66136568D01*
X186169228Y-66136568D02*
X186216847Y-66231806D01*
X186216847Y-66231806D02*
X186216847Y-66374663D01*
X186216847Y-66374663D02*
X186169228Y-66469902D01*
X186169228Y-66469902D02*
X186073990Y-66517521D01*
X186073990Y-66517521D02*
X185550180Y-66517521D01*
X186597800Y-67707996D02*
X185312085Y-66850854D01*
X185550180Y-68184187D02*
X185597800Y-68088949D01*
X185597800Y-68088949D02*
X185693038Y-68041330D01*
X185693038Y-68041330D02*
X186550180Y-68041330D01*
X186216847Y-68993711D02*
X185550180Y-68993711D01*
X186216847Y-68565140D02*
X185693038Y-68565140D01*
X185693038Y-68565140D02*
X185597800Y-68612759D01*
X185597800Y-68612759D02*
X185550180Y-68707997D01*
X185550180Y-68707997D02*
X185550180Y-68850854D01*
X185550180Y-68850854D02*
X185597800Y-68946092D01*
X185597800Y-68946092D02*
X185645419Y-68993711D01*
X185597800Y-69898473D02*
X185550180Y-69803235D01*
X185550180Y-69803235D02*
X185550180Y-69612759D01*
X185550180Y-69612759D02*
X185597800Y-69517521D01*
X185597800Y-69517521D02*
X185645419Y-69469902D01*
X185645419Y-69469902D02*
X185740657Y-69422283D01*
X185740657Y-69422283D02*
X186026371Y-69422283D01*
X186026371Y-69422283D02*
X186121609Y-69469902D01*
X186121609Y-69469902D02*
X186169228Y-69517521D01*
X186169228Y-69517521D02*
X186216847Y-69612759D01*
X186216847Y-69612759D02*
X186216847Y-69803235D01*
X186216847Y-69803235D02*
X186169228Y-69898473D01*
X185550180Y-70755616D02*
X186073990Y-70755616D01*
X186073990Y-70755616D02*
X186169228Y-70707997D01*
X186169228Y-70707997D02*
X186216847Y-70612759D01*
X186216847Y-70612759D02*
X186216847Y-70422283D01*
X186216847Y-70422283D02*
X186169228Y-70327045D01*
X185597800Y-70755616D02*
X185550180Y-70660378D01*
X185550180Y-70660378D02*
X185550180Y-70422283D01*
X185550180Y-70422283D02*
X185597800Y-70327045D01*
X185597800Y-70327045D02*
X185693038Y-70279426D01*
X185693038Y-70279426D02*
X185788276Y-70279426D01*
X185788276Y-70279426D02*
X185883514Y-70327045D01*
X185883514Y-70327045D02*
X185931133Y-70422283D01*
X185931133Y-70422283D02*
X185931133Y-70660378D01*
X185931133Y-70660378D02*
X185978752Y-70755616D01*
X185597800Y-71184188D02*
X185550180Y-71279426D01*
X185550180Y-71279426D02*
X185550180Y-71469902D01*
X185550180Y-71469902D02*
X185597800Y-71565140D01*
X185597800Y-71565140D02*
X185693038Y-71612759D01*
X185693038Y-71612759D02*
X185740657Y-71612759D01*
X185740657Y-71612759D02*
X185835895Y-71565140D01*
X185835895Y-71565140D02*
X185883514Y-71469902D01*
X185883514Y-71469902D02*
X185883514Y-71327045D01*
X185883514Y-71327045D02*
X185931133Y-71231807D01*
X185931133Y-71231807D02*
X186026371Y-71184188D01*
X186026371Y-71184188D02*
X186073990Y-71184188D01*
X186073990Y-71184188D02*
X186169228Y-71231807D01*
X186169228Y-71231807D02*
X186216847Y-71327045D01*
X186216847Y-71327045D02*
X186216847Y-71469902D01*
X186216847Y-71469902D02*
X186169228Y-71565140D01*
X185550180Y-72041331D02*
X186216847Y-72041331D01*
X186026371Y-72041331D02*
X186121609Y-72088950D01*
X186121609Y-72088950D02*
X186169228Y-72136569D01*
X186169228Y-72136569D02*
X186216847Y-72231807D01*
X186216847Y-72231807D02*
X186216847Y-72327045D01*
X186216847Y-73088950D02*
X185407323Y-73088950D01*
X185407323Y-73088950D02*
X185312085Y-73041331D01*
X185312085Y-73041331D02*
X185264466Y-72993712D01*
X185264466Y-72993712D02*
X185216847Y-72898474D01*
X185216847Y-72898474D02*
X185216847Y-72755617D01*
X185216847Y-72755617D02*
X185264466Y-72660379D01*
X185597800Y-73088950D02*
X185550180Y-72993712D01*
X185550180Y-72993712D02*
X185550180Y-72803236D01*
X185550180Y-72803236D02*
X185597800Y-72707998D01*
X185597800Y-72707998D02*
X185645419Y-72660379D01*
X185645419Y-72660379D02*
X185740657Y-72612760D01*
X185740657Y-72612760D02*
X186026371Y-72612760D01*
X186026371Y-72612760D02*
X186121609Y-72660379D01*
X186121609Y-72660379D02*
X186169228Y-72707998D01*
X186169228Y-72707998D02*
X186216847Y-72803236D01*
X186216847Y-72803236D02*
X186216847Y-72993712D01*
X186216847Y-72993712D02*
X186169228Y-73088950D01*
X186216847Y-73993712D02*
X185550180Y-73993712D01*
X186216847Y-73565141D02*
X185693038Y-73565141D01*
X185693038Y-73565141D02*
X185597800Y-73612760D01*
X185597800Y-73612760D02*
X185550180Y-73707998D01*
X185550180Y-73707998D02*
X185550180Y-73850855D01*
X185550180Y-73850855D02*
X185597800Y-73946093D01*
X185597800Y-73946093D02*
X185645419Y-73993712D01*
X185597800Y-74850855D02*
X185550180Y-74755617D01*
X185550180Y-74755617D02*
X185550180Y-74565141D01*
X185550180Y-74565141D02*
X185597800Y-74469903D01*
X185597800Y-74469903D02*
X185693038Y-74422284D01*
X185693038Y-74422284D02*
X186073990Y-74422284D01*
X186073990Y-74422284D02*
X186169228Y-74469903D01*
X186169228Y-74469903D02*
X186216847Y-74565141D01*
X186216847Y-74565141D02*
X186216847Y-74755617D01*
X186216847Y-74755617D02*
X186169228Y-74850855D01*
X186169228Y-74850855D02*
X186073990Y-74898474D01*
X186073990Y-74898474D02*
X185978752Y-74898474D01*
X185978752Y-74898474D02*
X185883514Y-74422284D01*
X185550180Y-75327046D02*
X186216847Y-75327046D01*
X186026371Y-75327046D02*
X186121609Y-75374665D01*
X186121609Y-75374665D02*
X186169228Y-75422284D01*
X186169228Y-75422284D02*
X186216847Y-75517522D01*
X186216847Y-75517522D02*
X186216847Y-75612760D01*
X185550180Y-75946094D02*
X186216847Y-75946094D01*
X186026371Y-75946094D02*
X186121609Y-75993713D01*
X186121609Y-75993713D02*
X186169228Y-76041332D01*
X186169228Y-76041332D02*
X186216847Y-76136570D01*
X186216847Y-76136570D02*
X186216847Y-76231808D01*
X185550180Y-76993713D02*
X186073990Y-76993713D01*
X186073990Y-76993713D02*
X186169228Y-76946094D01*
X186169228Y-76946094D02*
X186216847Y-76850856D01*
X186216847Y-76850856D02*
X186216847Y-76660380D01*
X186216847Y-76660380D02*
X186169228Y-76565142D01*
X185597800Y-76993713D02*
X185550180Y-76898475D01*
X185550180Y-76898475D02*
X185550180Y-76660380D01*
X185550180Y-76660380D02*
X185597800Y-76565142D01*
X185597800Y-76565142D02*
X185693038Y-76517523D01*
X185693038Y-76517523D02*
X185788276Y-76517523D01*
X185788276Y-76517523D02*
X185883514Y-76565142D01*
X185883514Y-76565142D02*
X185931133Y-76660380D01*
X185931133Y-76660380D02*
X185931133Y-76898475D01*
X185931133Y-76898475D02*
X185978752Y-76993713D01*
X186597800Y-78184189D02*
X185312085Y-77327047D01*
X185597800Y-78898475D02*
X185550180Y-78803237D01*
X185550180Y-78803237D02*
X185550180Y-78612761D01*
X185550180Y-78612761D02*
X185597800Y-78517523D01*
X185597800Y-78517523D02*
X185693038Y-78469904D01*
X185693038Y-78469904D02*
X186073990Y-78469904D01*
X186073990Y-78469904D02*
X186169228Y-78517523D01*
X186169228Y-78517523D02*
X186216847Y-78612761D01*
X186216847Y-78612761D02*
X186216847Y-78803237D01*
X186216847Y-78803237D02*
X186169228Y-78898475D01*
X186169228Y-78898475D02*
X186073990Y-78946094D01*
X186073990Y-78946094D02*
X185978752Y-78946094D01*
X185978752Y-78946094D02*
X185883514Y-78469904D01*
X185597800Y-79327047D02*
X185550180Y-79422285D01*
X185550180Y-79422285D02*
X185550180Y-79612761D01*
X185550180Y-79612761D02*
X185597800Y-79707999D01*
X185597800Y-79707999D02*
X185693038Y-79755618D01*
X185693038Y-79755618D02*
X185740657Y-79755618D01*
X185740657Y-79755618D02*
X185835895Y-79707999D01*
X185835895Y-79707999D02*
X185883514Y-79612761D01*
X185883514Y-79612761D02*
X185883514Y-79469904D01*
X185883514Y-79469904D02*
X185931133Y-79374666D01*
X185931133Y-79374666D02*
X186026371Y-79327047D01*
X186026371Y-79327047D02*
X186073990Y-79327047D01*
X186073990Y-79327047D02*
X186169228Y-79374666D01*
X186169228Y-79374666D02*
X186216847Y-79469904D01*
X186216847Y-79469904D02*
X186216847Y-79612761D01*
X186216847Y-79612761D02*
X186169228Y-79707999D01*
X186216847Y-80184190D02*
X185216847Y-80184190D01*
X186169228Y-80184190D02*
X186216847Y-80279428D01*
X186216847Y-80279428D02*
X186216847Y-80469904D01*
X186216847Y-80469904D02*
X186169228Y-80565142D01*
X186169228Y-80565142D02*
X186121609Y-80612761D01*
X186121609Y-80612761D02*
X186026371Y-80660380D01*
X186026371Y-80660380D02*
X185740657Y-80660380D01*
X185740657Y-80660380D02*
X185645419Y-80612761D01*
X185645419Y-80612761D02*
X185597800Y-80565142D01*
X185597800Y-80565142D02*
X185550180Y-80469904D01*
X185550180Y-80469904D02*
X185550180Y-80279428D01*
X185550180Y-80279428D02*
X185597800Y-80184190D01*
X186550180Y-80993714D02*
X186550180Y-81612761D01*
X186550180Y-81612761D02*
X186169228Y-81279428D01*
X186169228Y-81279428D02*
X186169228Y-81422285D01*
X186169228Y-81422285D02*
X186121609Y-81517523D01*
X186121609Y-81517523D02*
X186073990Y-81565142D01*
X186073990Y-81565142D02*
X185978752Y-81612761D01*
X185978752Y-81612761D02*
X185740657Y-81612761D01*
X185740657Y-81612761D02*
X185645419Y-81565142D01*
X185645419Y-81565142D02*
X185597800Y-81517523D01*
X185597800Y-81517523D02*
X185550180Y-81422285D01*
X185550180Y-81422285D02*
X185550180Y-81136571D01*
X185550180Y-81136571D02*
X185597800Y-81041333D01*
X185597800Y-81041333D02*
X185645419Y-80993714D01*
X186454942Y-81993714D02*
X186502561Y-82041333D01*
X186502561Y-82041333D02*
X186550180Y-82136571D01*
X186550180Y-82136571D02*
X186550180Y-82374666D01*
X186550180Y-82374666D02*
X186502561Y-82469904D01*
X186502561Y-82469904D02*
X186454942Y-82517523D01*
X186454942Y-82517523D02*
X186359704Y-82565142D01*
X186359704Y-82565142D02*
X186264466Y-82565142D01*
X186264466Y-82565142D02*
X186121609Y-82517523D01*
X186121609Y-82517523D02*
X185550180Y-81946095D01*
X185550180Y-81946095D02*
X185550180Y-82565142D01*
X185454942Y-82755619D02*
X185454942Y-83517523D01*
X186216847Y-83755619D02*
X185216847Y-83755619D01*
X186169228Y-83755619D02*
X186216847Y-83850857D01*
X186216847Y-83850857D02*
X186216847Y-84041333D01*
X186216847Y-84041333D02*
X186169228Y-84136571D01*
X186169228Y-84136571D02*
X186121609Y-84184190D01*
X186121609Y-84184190D02*
X186026371Y-84231809D01*
X186026371Y-84231809D02*
X185740657Y-84231809D01*
X185740657Y-84231809D02*
X185645419Y-84184190D01*
X185645419Y-84184190D02*
X185597800Y-84136571D01*
X185597800Y-84136571D02*
X185550180Y-84041333D01*
X185550180Y-84041333D02*
X185550180Y-83850857D01*
X185550180Y-83850857D02*
X185597800Y-83755619D01*
X185550180Y-84803238D02*
X185597800Y-84708000D01*
X185597800Y-84708000D02*
X185645419Y-84660381D01*
X185645419Y-84660381D02*
X185740657Y-84612762D01*
X185740657Y-84612762D02*
X186026371Y-84612762D01*
X186026371Y-84612762D02*
X186121609Y-84660381D01*
X186121609Y-84660381D02*
X186169228Y-84708000D01*
X186169228Y-84708000D02*
X186216847Y-84803238D01*
X186216847Y-84803238D02*
X186216847Y-84946095D01*
X186216847Y-84946095D02*
X186169228Y-85041333D01*
X186169228Y-85041333D02*
X186121609Y-85088952D01*
X186121609Y-85088952D02*
X186026371Y-85136571D01*
X186026371Y-85136571D02*
X185740657Y-85136571D01*
X185740657Y-85136571D02*
X185645419Y-85088952D01*
X185645419Y-85088952D02*
X185597800Y-85041333D01*
X185597800Y-85041333D02*
X185550180Y-84946095D01*
X185550180Y-84946095D02*
X185550180Y-84803238D01*
X186216847Y-85469905D02*
X185550180Y-85660381D01*
X185550180Y-85660381D02*
X186026371Y-85850857D01*
X186026371Y-85850857D02*
X185550180Y-86041333D01*
X185550180Y-86041333D02*
X186216847Y-86231809D01*
X185597800Y-86993714D02*
X185550180Y-86898476D01*
X185550180Y-86898476D02*
X185550180Y-86708000D01*
X185550180Y-86708000D02*
X185597800Y-86612762D01*
X185597800Y-86612762D02*
X185693038Y-86565143D01*
X185693038Y-86565143D02*
X186073990Y-86565143D01*
X186073990Y-86565143D02*
X186169228Y-86612762D01*
X186169228Y-86612762D02*
X186216847Y-86708000D01*
X186216847Y-86708000D02*
X186216847Y-86898476D01*
X186216847Y-86898476D02*
X186169228Y-86993714D01*
X186169228Y-86993714D02*
X186073990Y-87041333D01*
X186073990Y-87041333D02*
X185978752Y-87041333D01*
X185978752Y-87041333D02*
X185883514Y-86565143D01*
X185550180Y-87469905D02*
X186216847Y-87469905D01*
X186026371Y-87469905D02*
X186121609Y-87517524D01*
X186121609Y-87517524D02*
X186169228Y-87565143D01*
X186169228Y-87565143D02*
X186216847Y-87660381D01*
X186216847Y-87660381D02*
X186216847Y-87755619D01*
X185454942Y-87850858D02*
X185454942Y-88612762D01*
X185550180Y-89279429D02*
X186073990Y-89279429D01*
X186073990Y-89279429D02*
X186169228Y-89231810D01*
X186169228Y-89231810D02*
X186216847Y-89136572D01*
X186216847Y-89136572D02*
X186216847Y-88946096D01*
X186216847Y-88946096D02*
X186169228Y-88850858D01*
X185597800Y-89279429D02*
X185550180Y-89184191D01*
X185550180Y-89184191D02*
X185550180Y-88946096D01*
X185550180Y-88946096D02*
X185597800Y-88850858D01*
X185597800Y-88850858D02*
X185693038Y-88803239D01*
X185693038Y-88803239D02*
X185788276Y-88803239D01*
X185788276Y-88803239D02*
X185883514Y-88850858D01*
X185883514Y-88850858D02*
X185931133Y-88946096D01*
X185931133Y-88946096D02*
X185931133Y-89184191D01*
X185931133Y-89184191D02*
X185978752Y-89279429D01*
X186216847Y-89755620D02*
X185550180Y-89755620D01*
X186121609Y-89755620D02*
X186169228Y-89803239D01*
X186169228Y-89803239D02*
X186216847Y-89898477D01*
X186216847Y-89898477D02*
X186216847Y-90041334D01*
X186216847Y-90041334D02*
X186169228Y-90136572D01*
X186169228Y-90136572D02*
X186073990Y-90184191D01*
X186073990Y-90184191D02*
X185550180Y-90184191D01*
X185550180Y-91088953D02*
X186073990Y-91088953D01*
X186073990Y-91088953D02*
X186169228Y-91041334D01*
X186169228Y-91041334D02*
X186216847Y-90946096D01*
X186216847Y-90946096D02*
X186216847Y-90755620D01*
X186216847Y-90755620D02*
X186169228Y-90660382D01*
X185597800Y-91088953D02*
X185550180Y-90993715D01*
X185550180Y-90993715D02*
X185550180Y-90755620D01*
X185550180Y-90755620D02*
X185597800Y-90660382D01*
X185597800Y-90660382D02*
X185693038Y-90612763D01*
X185693038Y-90612763D02*
X185788276Y-90612763D01*
X185788276Y-90612763D02*
X185883514Y-90660382D01*
X185883514Y-90660382D02*
X185931133Y-90755620D01*
X185931133Y-90755620D02*
X185931133Y-90993715D01*
X185931133Y-90993715D02*
X185978752Y-91088953D01*
X185550180Y-91708001D02*
X185597800Y-91612763D01*
X185597800Y-91612763D02*
X185693038Y-91565144D01*
X185693038Y-91565144D02*
X186550180Y-91565144D01*
X186216847Y-91993716D02*
X185550180Y-92231811D01*
X186216847Y-92469906D02*
X185550180Y-92231811D01*
X185550180Y-92231811D02*
X185312085Y-92136573D01*
X185312085Y-92136573D02*
X185264466Y-92088954D01*
X185264466Y-92088954D02*
X185216847Y-91993716D01*
X186216847Y-92755621D02*
X186216847Y-93279430D01*
X186216847Y-93279430D02*
X185550180Y-92755621D01*
X185550180Y-92755621D02*
X185550180Y-93279430D01*
X185597800Y-94041335D02*
X185550180Y-93946097D01*
X185550180Y-93946097D02*
X185550180Y-93755621D01*
X185550180Y-93755621D02*
X185597800Y-93660383D01*
X185597800Y-93660383D02*
X185693038Y-93612764D01*
X185693038Y-93612764D02*
X186073990Y-93612764D01*
X186073990Y-93612764D02*
X186169228Y-93660383D01*
X186169228Y-93660383D02*
X186216847Y-93755621D01*
X186216847Y-93755621D02*
X186216847Y-93946097D01*
X186216847Y-93946097D02*
X186169228Y-94041335D01*
X186169228Y-94041335D02*
X186073990Y-94088954D01*
X186073990Y-94088954D02*
X185978752Y-94088954D01*
X185978752Y-94088954D02*
X185883514Y-93612764D01*
X185550180Y-94517526D02*
X186216847Y-94517526D01*
X186026371Y-94517526D02*
X186121609Y-94565145D01*
X186121609Y-94565145D02*
X186169228Y-94612764D01*
X186169228Y-94612764D02*
X186216847Y-94708002D01*
X186216847Y-94708002D02*
X186216847Y-94803240D01*
D11*
X110760572Y-77372114D02*
X111260572Y-77372114D01*
X111474858Y-78157828D02*
X110760572Y-78157828D01*
X110760572Y-78157828D02*
X110760572Y-76657828D01*
X110760572Y-76657828D02*
X111474858Y-76657828D01*
X112046287Y-78086400D02*
X112260573Y-78157828D01*
X112260573Y-78157828D02*
X112617715Y-78157828D01*
X112617715Y-78157828D02*
X112760573Y-78086400D01*
X112760573Y-78086400D02*
X112832001Y-78014971D01*
X112832001Y-78014971D02*
X112903430Y-77872114D01*
X112903430Y-77872114D02*
X112903430Y-77729257D01*
X112903430Y-77729257D02*
X112832001Y-77586400D01*
X112832001Y-77586400D02*
X112760573Y-77514971D01*
X112760573Y-77514971D02*
X112617715Y-77443542D01*
X112617715Y-77443542D02*
X112332001Y-77372114D01*
X112332001Y-77372114D02*
X112189144Y-77300685D01*
X112189144Y-77300685D02*
X112117715Y-77229257D01*
X112117715Y-77229257D02*
X112046287Y-77086400D01*
X112046287Y-77086400D02*
X112046287Y-76943542D01*
X112046287Y-76943542D02*
X112117715Y-76800685D01*
X112117715Y-76800685D02*
X112189144Y-76729257D01*
X112189144Y-76729257D02*
X112332001Y-76657828D01*
X112332001Y-76657828D02*
X112689144Y-76657828D01*
X112689144Y-76657828D02*
X112903430Y-76729257D01*
X113546286Y-78157828D02*
X113546286Y-76657828D01*
X113546286Y-76657828D02*
X114117715Y-76657828D01*
X114117715Y-76657828D02*
X114260572Y-76729257D01*
X114260572Y-76729257D02*
X114332001Y-76800685D01*
X114332001Y-76800685D02*
X114403429Y-76943542D01*
X114403429Y-76943542D02*
X114403429Y-77157828D01*
X114403429Y-77157828D02*
X114332001Y-77300685D01*
X114332001Y-77300685D02*
X114260572Y-77372114D01*
X114260572Y-77372114D02*
X114117715Y-77443542D01*
X114117715Y-77443542D02*
X113546286Y-77443542D01*
X114903429Y-76657828D02*
X115832001Y-76657828D01*
X115832001Y-76657828D02*
X115332001Y-77229257D01*
X115332001Y-77229257D02*
X115546286Y-77229257D01*
X115546286Y-77229257D02*
X115689144Y-77300685D01*
X115689144Y-77300685D02*
X115760572Y-77372114D01*
X115760572Y-77372114D02*
X115832001Y-77514971D01*
X115832001Y-77514971D02*
X115832001Y-77872114D01*
X115832001Y-77872114D02*
X115760572Y-78014971D01*
X115760572Y-78014971D02*
X115689144Y-78086400D01*
X115689144Y-78086400D02*
X115546286Y-78157828D01*
X115546286Y-78157828D02*
X115117715Y-78157828D01*
X115117715Y-78157828D02*
X114974858Y-78086400D01*
X114974858Y-78086400D02*
X114903429Y-78014971D01*
X116403429Y-76800685D02*
X116474857Y-76729257D01*
X116474857Y-76729257D02*
X116617715Y-76657828D01*
X116617715Y-76657828D02*
X116974857Y-76657828D01*
X116974857Y-76657828D02*
X117117715Y-76729257D01*
X117117715Y-76729257D02*
X117189143Y-76800685D01*
X117189143Y-76800685D02*
X117260572Y-76943542D01*
X117260572Y-76943542D02*
X117260572Y-77086400D01*
X117260572Y-77086400D02*
X117189143Y-77300685D01*
X117189143Y-77300685D02*
X116332000Y-78157828D01*
X116332000Y-78157828D02*
X117260572Y-78157828D01*
X117903428Y-77586400D02*
X119046286Y-77586400D01*
X119689143Y-78086400D02*
X119903429Y-78157828D01*
X119903429Y-78157828D02*
X120260571Y-78157828D01*
X120260571Y-78157828D02*
X120403429Y-78086400D01*
X120403429Y-78086400D02*
X120474857Y-78014971D01*
X120474857Y-78014971D02*
X120546286Y-77872114D01*
X120546286Y-77872114D02*
X120546286Y-77729257D01*
X120546286Y-77729257D02*
X120474857Y-77586400D01*
X120474857Y-77586400D02*
X120403429Y-77514971D01*
X120403429Y-77514971D02*
X120260571Y-77443542D01*
X120260571Y-77443542D02*
X119974857Y-77372114D01*
X119974857Y-77372114D02*
X119832000Y-77300685D01*
X119832000Y-77300685D02*
X119760571Y-77229257D01*
X119760571Y-77229257D02*
X119689143Y-77086400D01*
X119689143Y-77086400D02*
X119689143Y-76943542D01*
X119689143Y-76943542D02*
X119760571Y-76800685D01*
X119760571Y-76800685D02*
X119832000Y-76729257D01*
X119832000Y-76729257D02*
X119974857Y-76657828D01*
X119974857Y-76657828D02*
X120332000Y-76657828D01*
X120332000Y-76657828D02*
X120546286Y-76729257D01*
X121046285Y-76657828D02*
X121974857Y-76657828D01*
X121974857Y-76657828D02*
X121474857Y-77229257D01*
X121474857Y-77229257D02*
X121689142Y-77229257D01*
X121689142Y-77229257D02*
X121832000Y-77300685D01*
X121832000Y-77300685D02*
X121903428Y-77372114D01*
X121903428Y-77372114D02*
X121974857Y-77514971D01*
X121974857Y-77514971D02*
X121974857Y-77872114D01*
X121974857Y-77872114D02*
X121903428Y-78014971D01*
X121903428Y-78014971D02*
X121832000Y-78086400D01*
X121832000Y-78086400D02*
X121689142Y-78157828D01*
X121689142Y-78157828D02*
X121260571Y-78157828D01*
X121260571Y-78157828D02*
X121117714Y-78086400D01*
X121117714Y-78086400D02*
X121046285Y-78014971D01*
X112439142Y-80572828D02*
X112439142Y-79072828D01*
X112439142Y-79072828D02*
X112796285Y-79072828D01*
X112796285Y-79072828D02*
X113010571Y-79144257D01*
X113010571Y-79144257D02*
X113153428Y-79287114D01*
X113153428Y-79287114D02*
X113224857Y-79429971D01*
X113224857Y-79429971D02*
X113296285Y-79715685D01*
X113296285Y-79715685D02*
X113296285Y-79929971D01*
X113296285Y-79929971D02*
X113224857Y-80215685D01*
X113224857Y-80215685D02*
X113153428Y-80358542D01*
X113153428Y-80358542D02*
X113010571Y-80501400D01*
X113010571Y-80501400D02*
X112796285Y-80572828D01*
X112796285Y-80572828D02*
X112439142Y-80572828D01*
X114510571Y-80501400D02*
X114367714Y-80572828D01*
X114367714Y-80572828D02*
X114082000Y-80572828D01*
X114082000Y-80572828D02*
X113939142Y-80501400D01*
X113939142Y-80501400D02*
X113867714Y-80358542D01*
X113867714Y-80358542D02*
X113867714Y-79787114D01*
X113867714Y-79787114D02*
X113939142Y-79644257D01*
X113939142Y-79644257D02*
X114082000Y-79572828D01*
X114082000Y-79572828D02*
X114367714Y-79572828D01*
X114367714Y-79572828D02*
X114510571Y-79644257D01*
X114510571Y-79644257D02*
X114582000Y-79787114D01*
X114582000Y-79787114D02*
X114582000Y-79929971D01*
X114582000Y-79929971D02*
X113867714Y-80072828D01*
X115081999Y-79572828D02*
X115439142Y-80572828D01*
X115439142Y-80572828D02*
X115796285Y-79572828D01*
X116367713Y-80572828D02*
X116367713Y-79072828D01*
X117224856Y-80572828D02*
X116581999Y-79715685D01*
X117224856Y-79072828D02*
X116367713Y-79929971D01*
X117867713Y-80572828D02*
X117867713Y-79572828D01*
X117867713Y-79072828D02*
X117796285Y-79144257D01*
X117796285Y-79144257D02*
X117867713Y-79215685D01*
X117867713Y-79215685D02*
X117939142Y-79144257D01*
X117939142Y-79144257D02*
X117867713Y-79072828D01*
X117867713Y-79072828D02*
X117867713Y-79215685D01*
X118367714Y-79572828D02*
X118939142Y-79572828D01*
X118581999Y-79072828D02*
X118581999Y-80358542D01*
X118581999Y-80358542D02*
X118653428Y-80501400D01*
X118653428Y-80501400D02*
X118796285Y-80572828D01*
X118796285Y-80572828D02*
X118939142Y-80572828D01*
X120296285Y-80429971D02*
X120224857Y-80501400D01*
X120224857Y-80501400D02*
X120010571Y-80572828D01*
X120010571Y-80572828D02*
X119867714Y-80572828D01*
X119867714Y-80572828D02*
X119653428Y-80501400D01*
X119653428Y-80501400D02*
X119510571Y-80358542D01*
X119510571Y-80358542D02*
X119439142Y-80215685D01*
X119439142Y-80215685D02*
X119367714Y-79929971D01*
X119367714Y-79929971D02*
X119367714Y-79715685D01*
X119367714Y-79715685D02*
X119439142Y-79429971D01*
X119439142Y-79429971D02*
X119510571Y-79287114D01*
X119510571Y-79287114D02*
X119653428Y-79144257D01*
X119653428Y-79144257D02*
X119867714Y-79072828D01*
X119867714Y-79072828D02*
X120010571Y-79072828D01*
X120010571Y-79072828D02*
X120224857Y-79144257D01*
X120224857Y-79144257D02*
X120296285Y-79215685D01*
X183971571Y-42486286D02*
X183971571Y-42772000D01*
X183971571Y-42772000D02*
X183900142Y-42914857D01*
X183900142Y-42914857D02*
X183757285Y-43057714D01*
X183757285Y-43057714D02*
X183471571Y-43129143D01*
X183471571Y-43129143D02*
X182971571Y-43129143D01*
X182971571Y-43129143D02*
X182685857Y-43057714D01*
X182685857Y-43057714D02*
X182543000Y-42914857D01*
X182543000Y-42914857D02*
X182471571Y-42772000D01*
X182471571Y-42772000D02*
X182471571Y-42486286D01*
X182471571Y-42486286D02*
X182543000Y-42343429D01*
X182543000Y-42343429D02*
X182685857Y-42200571D01*
X182685857Y-42200571D02*
X182971571Y-42129143D01*
X182971571Y-42129143D02*
X183471571Y-42129143D01*
X183471571Y-42129143D02*
X183757285Y-42200571D01*
X183757285Y-42200571D02*
X183900142Y-42343429D01*
X183900142Y-42343429D02*
X183971571Y-42486286D01*
X183471571Y-43772000D02*
X181971571Y-43772000D01*
X183400142Y-43772000D02*
X183471571Y-43914858D01*
X183471571Y-43914858D02*
X183471571Y-44200572D01*
X183471571Y-44200572D02*
X183400142Y-44343429D01*
X183400142Y-44343429D02*
X183328714Y-44414858D01*
X183328714Y-44414858D02*
X183185857Y-44486286D01*
X183185857Y-44486286D02*
X182757285Y-44486286D01*
X182757285Y-44486286D02*
X182614428Y-44414858D01*
X182614428Y-44414858D02*
X182543000Y-44343429D01*
X182543000Y-44343429D02*
X182471571Y-44200572D01*
X182471571Y-44200572D02*
X182471571Y-43914858D01*
X182471571Y-43914858D02*
X182543000Y-43772000D01*
X182543000Y-45700572D02*
X182471571Y-45557715D01*
X182471571Y-45557715D02*
X182471571Y-45272001D01*
X182471571Y-45272001D02*
X182543000Y-45129143D01*
X182543000Y-45129143D02*
X182685857Y-45057715D01*
X182685857Y-45057715D02*
X183257285Y-45057715D01*
X183257285Y-45057715D02*
X183400142Y-45129143D01*
X183400142Y-45129143D02*
X183471571Y-45272001D01*
X183471571Y-45272001D02*
X183471571Y-45557715D01*
X183471571Y-45557715D02*
X183400142Y-45700572D01*
X183400142Y-45700572D02*
X183257285Y-45772001D01*
X183257285Y-45772001D02*
X183114428Y-45772001D01*
X183114428Y-45772001D02*
X182971571Y-45057715D01*
X183471571Y-46414857D02*
X182471571Y-46414857D01*
X183328714Y-46414857D02*
X183400142Y-46486286D01*
X183400142Y-46486286D02*
X183471571Y-46629143D01*
X183471571Y-46629143D02*
X183471571Y-46843429D01*
X183471571Y-46843429D02*
X183400142Y-46986286D01*
X183400142Y-46986286D02*
X183257285Y-47057715D01*
X183257285Y-47057715D02*
X182471571Y-47057715D01*
X182543000Y-48843429D02*
X182471571Y-49057715D01*
X182471571Y-49057715D02*
X182471571Y-49414857D01*
X182471571Y-49414857D02*
X182543000Y-49557715D01*
X182543000Y-49557715D02*
X182614428Y-49629143D01*
X182614428Y-49629143D02*
X182757285Y-49700572D01*
X182757285Y-49700572D02*
X182900142Y-49700572D01*
X182900142Y-49700572D02*
X183043000Y-49629143D01*
X183043000Y-49629143D02*
X183114428Y-49557715D01*
X183114428Y-49557715D02*
X183185857Y-49414857D01*
X183185857Y-49414857D02*
X183257285Y-49129143D01*
X183257285Y-49129143D02*
X183328714Y-48986286D01*
X183328714Y-48986286D02*
X183400142Y-48914857D01*
X183400142Y-48914857D02*
X183543000Y-48843429D01*
X183543000Y-48843429D02*
X183685857Y-48843429D01*
X183685857Y-48843429D02*
X183828714Y-48914857D01*
X183828714Y-48914857D02*
X183900142Y-48986286D01*
X183900142Y-48986286D02*
X183971571Y-49129143D01*
X183971571Y-49129143D02*
X183971571Y-49486286D01*
X183971571Y-49486286D02*
X183900142Y-49700572D01*
X182471571Y-50557714D02*
X182543000Y-50414857D01*
X182543000Y-50414857D02*
X182614428Y-50343428D01*
X182614428Y-50343428D02*
X182757285Y-50272000D01*
X182757285Y-50272000D02*
X183185857Y-50272000D01*
X183185857Y-50272000D02*
X183328714Y-50343428D01*
X183328714Y-50343428D02*
X183400142Y-50414857D01*
X183400142Y-50414857D02*
X183471571Y-50557714D01*
X183471571Y-50557714D02*
X183471571Y-50772000D01*
X183471571Y-50772000D02*
X183400142Y-50914857D01*
X183400142Y-50914857D02*
X183328714Y-50986286D01*
X183328714Y-50986286D02*
X183185857Y-51057714D01*
X183185857Y-51057714D02*
X182757285Y-51057714D01*
X182757285Y-51057714D02*
X182614428Y-50986286D01*
X182614428Y-50986286D02*
X182543000Y-50914857D01*
X182543000Y-50914857D02*
X182471571Y-50772000D01*
X182471571Y-50772000D02*
X182471571Y-50557714D01*
X183471571Y-52343429D02*
X182471571Y-52343429D01*
X183471571Y-51700571D02*
X182685857Y-51700571D01*
X182685857Y-51700571D02*
X182543000Y-51772000D01*
X182543000Y-51772000D02*
X182471571Y-51914857D01*
X182471571Y-51914857D02*
X182471571Y-52129143D01*
X182471571Y-52129143D02*
X182543000Y-52272000D01*
X182543000Y-52272000D02*
X182614428Y-52343429D01*
X182471571Y-53057714D02*
X183471571Y-53057714D01*
X183185857Y-53057714D02*
X183328714Y-53129143D01*
X183328714Y-53129143D02*
X183400142Y-53200572D01*
X183400142Y-53200572D02*
X183471571Y-53343429D01*
X183471571Y-53343429D02*
X183471571Y-53486286D01*
X182543000Y-54629143D02*
X182471571Y-54486285D01*
X182471571Y-54486285D02*
X182471571Y-54200571D01*
X182471571Y-54200571D02*
X182543000Y-54057714D01*
X182543000Y-54057714D02*
X182614428Y-53986285D01*
X182614428Y-53986285D02*
X182757285Y-53914857D01*
X182757285Y-53914857D02*
X183185857Y-53914857D01*
X183185857Y-53914857D02*
X183328714Y-53986285D01*
X183328714Y-53986285D02*
X183400142Y-54057714D01*
X183400142Y-54057714D02*
X183471571Y-54200571D01*
X183471571Y-54200571D02*
X183471571Y-54486285D01*
X183471571Y-54486285D02*
X183400142Y-54629143D01*
X182543000Y-55843428D02*
X182471571Y-55700571D01*
X182471571Y-55700571D02*
X182471571Y-55414857D01*
X182471571Y-55414857D02*
X182543000Y-55271999D01*
X182543000Y-55271999D02*
X182685857Y-55200571D01*
X182685857Y-55200571D02*
X183257285Y-55200571D01*
X183257285Y-55200571D02*
X183400142Y-55271999D01*
X183400142Y-55271999D02*
X183471571Y-55414857D01*
X183471571Y-55414857D02*
X183471571Y-55700571D01*
X183471571Y-55700571D02*
X183400142Y-55843428D01*
X183400142Y-55843428D02*
X183257285Y-55914857D01*
X183257285Y-55914857D02*
X183114428Y-55914857D01*
X183114428Y-55914857D02*
X182971571Y-55200571D01*
X180056571Y-44200571D02*
X181556571Y-44200571D01*
X180842285Y-44200571D02*
X180842285Y-45057714D01*
X180056571Y-45057714D02*
X181556571Y-45057714D01*
X180056571Y-46414858D02*
X180842285Y-46414858D01*
X180842285Y-46414858D02*
X180985142Y-46343429D01*
X180985142Y-46343429D02*
X181056571Y-46200572D01*
X181056571Y-46200572D02*
X181056571Y-45914858D01*
X181056571Y-45914858D02*
X180985142Y-45772000D01*
X180128000Y-46414858D02*
X180056571Y-46272000D01*
X180056571Y-46272000D02*
X180056571Y-45914858D01*
X180056571Y-45914858D02*
X180128000Y-45772000D01*
X180128000Y-45772000D02*
X180270857Y-45700572D01*
X180270857Y-45700572D02*
X180413714Y-45700572D01*
X180413714Y-45700572D02*
X180556571Y-45772000D01*
X180556571Y-45772000D02*
X180628000Y-45914858D01*
X180628000Y-45914858D02*
X180628000Y-46272000D01*
X180628000Y-46272000D02*
X180699428Y-46414858D01*
X180056571Y-47129143D02*
X181056571Y-47129143D01*
X180770857Y-47129143D02*
X180913714Y-47200572D01*
X180913714Y-47200572D02*
X180985142Y-47272001D01*
X180985142Y-47272001D02*
X181056571Y-47414858D01*
X181056571Y-47414858D02*
X181056571Y-47557715D01*
X180056571Y-48700572D02*
X181556571Y-48700572D01*
X180128000Y-48700572D02*
X180056571Y-48557714D01*
X180056571Y-48557714D02*
X180056571Y-48272000D01*
X180056571Y-48272000D02*
X180128000Y-48129143D01*
X180128000Y-48129143D02*
X180199428Y-48057714D01*
X180199428Y-48057714D02*
X180342285Y-47986286D01*
X180342285Y-47986286D02*
X180770857Y-47986286D01*
X180770857Y-47986286D02*
X180913714Y-48057714D01*
X180913714Y-48057714D02*
X180985142Y-48129143D01*
X180985142Y-48129143D02*
X181056571Y-48272000D01*
X181056571Y-48272000D02*
X181056571Y-48557714D01*
X181056571Y-48557714D02*
X180985142Y-48700572D01*
X181056571Y-49272000D02*
X180056571Y-49557715D01*
X180056571Y-49557715D02*
X180770857Y-49843429D01*
X180770857Y-49843429D02*
X180056571Y-50129143D01*
X180056571Y-50129143D02*
X181056571Y-50414857D01*
X180056571Y-51629144D02*
X180842285Y-51629144D01*
X180842285Y-51629144D02*
X180985142Y-51557715D01*
X180985142Y-51557715D02*
X181056571Y-51414858D01*
X181056571Y-51414858D02*
X181056571Y-51129144D01*
X181056571Y-51129144D02*
X180985142Y-50986286D01*
X180128000Y-51629144D02*
X180056571Y-51486286D01*
X180056571Y-51486286D02*
X180056571Y-51129144D01*
X180056571Y-51129144D02*
X180128000Y-50986286D01*
X180128000Y-50986286D02*
X180270857Y-50914858D01*
X180270857Y-50914858D02*
X180413714Y-50914858D01*
X180413714Y-50914858D02*
X180556571Y-50986286D01*
X180556571Y-50986286D02*
X180628000Y-51129144D01*
X180628000Y-51129144D02*
X180628000Y-51486286D01*
X180628000Y-51486286D02*
X180699428Y-51629144D01*
X180056571Y-52343429D02*
X181056571Y-52343429D01*
X180770857Y-52343429D02*
X180913714Y-52414858D01*
X180913714Y-52414858D02*
X180985142Y-52486287D01*
X180985142Y-52486287D02*
X181056571Y-52629144D01*
X181056571Y-52629144D02*
X181056571Y-52772001D01*
X180128000Y-53843429D02*
X180056571Y-53700572D01*
X180056571Y-53700572D02*
X180056571Y-53414858D01*
X180056571Y-53414858D02*
X180128000Y-53272000D01*
X180128000Y-53272000D02*
X180270857Y-53200572D01*
X180270857Y-53200572D02*
X180842285Y-53200572D01*
X180842285Y-53200572D02*
X180985142Y-53272000D01*
X180985142Y-53272000D02*
X181056571Y-53414858D01*
X181056571Y-53414858D02*
X181056571Y-53700572D01*
X181056571Y-53700572D02*
X180985142Y-53843429D01*
X180985142Y-53843429D02*
X180842285Y-53914858D01*
X180842285Y-53914858D02*
X180699428Y-53914858D01*
X180699428Y-53914858D02*
X180556571Y-53200572D01*
D10*
X138686819Y-87074057D02*
X138210628Y-87407390D01*
X138686819Y-87645485D02*
X137686819Y-87645485D01*
X137686819Y-87645485D02*
X137686819Y-87264533D01*
X137686819Y-87264533D02*
X137734438Y-87169295D01*
X137734438Y-87169295D02*
X137782057Y-87121676D01*
X137782057Y-87121676D02*
X137877295Y-87074057D01*
X137877295Y-87074057D02*
X138020152Y-87074057D01*
X138020152Y-87074057D02*
X138115390Y-87121676D01*
X138115390Y-87121676D02*
X138163009Y-87169295D01*
X138163009Y-87169295D02*
X138210628Y-87264533D01*
X138210628Y-87264533D02*
X138210628Y-87645485D01*
X138686819Y-86121676D02*
X138686819Y-86693104D01*
X138686819Y-86407390D02*
X137686819Y-86407390D01*
X137686819Y-86407390D02*
X137829676Y-86502628D01*
X137829676Y-86502628D02*
X137924914Y-86597866D01*
X137924914Y-86597866D02*
X137972533Y-86693104D01*
X137686819Y-85216914D02*
X137686819Y-85693104D01*
X137686819Y-85693104D02*
X138163009Y-85740723D01*
X138163009Y-85740723D02*
X138115390Y-85693104D01*
X138115390Y-85693104D02*
X138067771Y-85597866D01*
X138067771Y-85597866D02*
X138067771Y-85359771D01*
X138067771Y-85359771D02*
X138115390Y-85264533D01*
X138115390Y-85264533D02*
X138163009Y-85216914D01*
X138163009Y-85216914D02*
X138258247Y-85169295D01*
X138258247Y-85169295D02*
X138496342Y-85169295D01*
X138496342Y-85169295D02*
X138591580Y-85216914D01*
X138591580Y-85216914D02*
X138639200Y-85264533D01*
X138639200Y-85264533D02*
X138686819Y-85359771D01*
X138686819Y-85359771D02*
X138686819Y-85597866D01*
X138686819Y-85597866D02*
X138639200Y-85693104D01*
X138639200Y-85693104D02*
X138591580Y-85740723D01*
D12*
X85768772Y-105290372D02*
X85168772Y-105290372D01*
X85168772Y-105290372D02*
X85168772Y-105147515D01*
X85168772Y-105147515D02*
X85197343Y-105061801D01*
X85197343Y-105061801D02*
X85254486Y-105004658D01*
X85254486Y-105004658D02*
X85311629Y-104976087D01*
X85311629Y-104976087D02*
X85425915Y-104947515D01*
X85425915Y-104947515D02*
X85511629Y-104947515D01*
X85511629Y-104947515D02*
X85625915Y-104976087D01*
X85625915Y-104976087D02*
X85683058Y-105004658D01*
X85683058Y-105004658D02*
X85740201Y-105061801D01*
X85740201Y-105061801D02*
X85768772Y-105147515D01*
X85768772Y-105147515D02*
X85768772Y-105290372D01*
X85168772Y-104747515D02*
X85168772Y-104347515D01*
X85168772Y-104347515D02*
X85768772Y-104747515D01*
X85768772Y-104747515D02*
X85768772Y-104347515D01*
X85168772Y-104176086D02*
X85168772Y-103776086D01*
X85168772Y-103776086D02*
X85768772Y-104033229D01*
X148887771Y-50437685D02*
X148287771Y-50437685D01*
X148287771Y-50437685D02*
X148287771Y-50294828D01*
X148287771Y-50294828D02*
X148316342Y-50209114D01*
X148316342Y-50209114D02*
X148373485Y-50151971D01*
X148373485Y-50151971D02*
X148430628Y-50123400D01*
X148430628Y-50123400D02*
X148544914Y-50094828D01*
X148544914Y-50094828D02*
X148630628Y-50094828D01*
X148630628Y-50094828D02*
X148744914Y-50123400D01*
X148744914Y-50123400D02*
X148802057Y-50151971D01*
X148802057Y-50151971D02*
X148859200Y-50209114D01*
X148859200Y-50209114D02*
X148887771Y-50294828D01*
X148887771Y-50294828D02*
X148887771Y-50437685D01*
X148287771Y-49894828D02*
X148287771Y-49494828D01*
X148287771Y-49494828D02*
X148887771Y-49894828D01*
X148887771Y-49894828D02*
X148887771Y-49494828D01*
X148887771Y-48951971D02*
X148887771Y-49294828D01*
X148887771Y-49123399D02*
X148287771Y-49123399D01*
X148287771Y-49123399D02*
X148373485Y-49180542D01*
X148373485Y-49180542D02*
X148430628Y-49237685D01*
X148430628Y-49237685D02*
X148459200Y-49294828D01*
X148287771Y-48751970D02*
X148287771Y-48351970D01*
X148287771Y-48351970D02*
X148887771Y-48609113D01*
X81349172Y-105290372D02*
X80749172Y-105290372D01*
X80749172Y-105290372D02*
X80749172Y-105147515D01*
X80749172Y-105147515D02*
X80777743Y-105061801D01*
X80777743Y-105061801D02*
X80834886Y-105004658D01*
X80834886Y-105004658D02*
X80892029Y-104976087D01*
X80892029Y-104976087D02*
X81006315Y-104947515D01*
X81006315Y-104947515D02*
X81092029Y-104947515D01*
X81092029Y-104947515D02*
X81206315Y-104976087D01*
X81206315Y-104976087D02*
X81263458Y-105004658D01*
X81263458Y-105004658D02*
X81320601Y-105061801D01*
X81320601Y-105061801D02*
X81349172Y-105147515D01*
X81349172Y-105147515D02*
X81349172Y-105290372D01*
X80749172Y-104747515D02*
X80749172Y-104347515D01*
X80749172Y-104347515D02*
X81349172Y-104747515D01*
X81349172Y-104747515D02*
X81349172Y-104347515D01*
X80749172Y-103833229D02*
X80749172Y-104118943D01*
X80749172Y-104118943D02*
X81034886Y-104147515D01*
X81034886Y-104147515D02*
X81006315Y-104118943D01*
X81006315Y-104118943D02*
X80977743Y-104061801D01*
X80977743Y-104061801D02*
X80977743Y-103918943D01*
X80977743Y-103918943D02*
X81006315Y-103861801D01*
X81006315Y-103861801D02*
X81034886Y-103833229D01*
X81034886Y-103833229D02*
X81092029Y-103804658D01*
X81092029Y-103804658D02*
X81234886Y-103804658D01*
X81234886Y-103804658D02*
X81292029Y-103833229D01*
X81292029Y-103833229D02*
X81320601Y-103861801D01*
X81320601Y-103861801D02*
X81349172Y-103918943D01*
X81349172Y-103918943D02*
X81349172Y-104061801D01*
X81349172Y-104061801D02*
X81320601Y-104118943D01*
X81320601Y-104118943D02*
X81292029Y-104147515D01*
D10*
X179420742Y-102562819D02*
X179087409Y-102086628D01*
X178849314Y-102562819D02*
X178849314Y-101562819D01*
X178849314Y-101562819D02*
X179230266Y-101562819D01*
X179230266Y-101562819D02*
X179325504Y-101610438D01*
X179325504Y-101610438D02*
X179373123Y-101658057D01*
X179373123Y-101658057D02*
X179420742Y-101753295D01*
X179420742Y-101753295D02*
X179420742Y-101896152D01*
X179420742Y-101896152D02*
X179373123Y-101991390D01*
X179373123Y-101991390D02*
X179325504Y-102039009D01*
X179325504Y-102039009D02*
X179230266Y-102086628D01*
X179230266Y-102086628D02*
X178849314Y-102086628D01*
X179801695Y-101658057D02*
X179849314Y-101610438D01*
X179849314Y-101610438D02*
X179944552Y-101562819D01*
X179944552Y-101562819D02*
X180182647Y-101562819D01*
X180182647Y-101562819D02*
X180277885Y-101610438D01*
X180277885Y-101610438D02*
X180325504Y-101658057D01*
X180325504Y-101658057D02*
X180373123Y-101753295D01*
X180373123Y-101753295D02*
X180373123Y-101848533D01*
X180373123Y-101848533D02*
X180325504Y-101991390D01*
X180325504Y-101991390D02*
X179754076Y-102562819D01*
X179754076Y-102562819D02*
X180373123Y-102562819D01*
X180706457Y-101562819D02*
X181325504Y-101562819D01*
X181325504Y-101562819D02*
X180992171Y-101943771D01*
X180992171Y-101943771D02*
X181135028Y-101943771D01*
X181135028Y-101943771D02*
X181230266Y-101991390D01*
X181230266Y-101991390D02*
X181277885Y-102039009D01*
X181277885Y-102039009D02*
X181325504Y-102134247D01*
X181325504Y-102134247D02*
X181325504Y-102372342D01*
X181325504Y-102372342D02*
X181277885Y-102467580D01*
X181277885Y-102467580D02*
X181230266Y-102515200D01*
X181230266Y-102515200D02*
X181135028Y-102562819D01*
X181135028Y-102562819D02*
X180849314Y-102562819D01*
X180849314Y-102562819D02*
X180754076Y-102515200D01*
X180754076Y-102515200D02*
X180706457Y-102467580D01*
D12*
X72509972Y-105290372D02*
X71909972Y-105290372D01*
X71909972Y-105290372D02*
X71909972Y-105147515D01*
X71909972Y-105147515D02*
X71938543Y-105061801D01*
X71938543Y-105061801D02*
X71995686Y-105004658D01*
X71995686Y-105004658D02*
X72052829Y-104976087D01*
X72052829Y-104976087D02*
X72167115Y-104947515D01*
X72167115Y-104947515D02*
X72252829Y-104947515D01*
X72252829Y-104947515D02*
X72367115Y-104976087D01*
X72367115Y-104976087D02*
X72424258Y-105004658D01*
X72424258Y-105004658D02*
X72481401Y-105061801D01*
X72481401Y-105061801D02*
X72509972Y-105147515D01*
X72509972Y-105147515D02*
X72509972Y-105290372D01*
X71909972Y-104747515D02*
X71909972Y-104347515D01*
X71909972Y-104347515D02*
X72509972Y-104747515D01*
X72509972Y-104747515D02*
X72509972Y-104347515D01*
X72509972Y-103804658D02*
X72509972Y-104147515D01*
X72509972Y-103976086D02*
X71909972Y-103976086D01*
X71909972Y-103976086D02*
X71995686Y-104033229D01*
X71995686Y-104033229D02*
X72052829Y-104090372D01*
X72052829Y-104090372D02*
X72081401Y-104147515D01*
D13*
X49908199Y-110160309D02*
X50860580Y-110160309D01*
X49717723Y-110731738D02*
X50384389Y-108731738D01*
X50384389Y-108731738D02*
X51051056Y-110731738D01*
X55432010Y-109684119D02*
X55717724Y-109779357D01*
X55717724Y-109779357D02*
X55812962Y-109874595D01*
X55812962Y-109874595D02*
X55908200Y-110065071D01*
X55908200Y-110065071D02*
X55908200Y-110350785D01*
X55908200Y-110350785D02*
X55812962Y-110541261D01*
X55812962Y-110541261D02*
X55717724Y-110636500D01*
X55717724Y-110636500D02*
X55527248Y-110731738D01*
X55527248Y-110731738D02*
X54765343Y-110731738D01*
X54765343Y-110731738D02*
X54765343Y-108731738D01*
X54765343Y-108731738D02*
X55432010Y-108731738D01*
X55432010Y-108731738D02*
X55622486Y-108826976D01*
X55622486Y-108826976D02*
X55717724Y-108922214D01*
X55717724Y-108922214D02*
X55812962Y-109112690D01*
X55812962Y-109112690D02*
X55812962Y-109303166D01*
X55812962Y-109303166D02*
X55717724Y-109493642D01*
X55717724Y-109493642D02*
X55622486Y-109588880D01*
X55622486Y-109588880D02*
X55432010Y-109684119D01*
X55432010Y-109684119D02*
X54765343Y-109684119D01*
D10*
X161673819Y-67627657D02*
X161197628Y-67960990D01*
X161673819Y-68199085D02*
X160673819Y-68199085D01*
X160673819Y-68199085D02*
X160673819Y-67818133D01*
X160673819Y-67818133D02*
X160721438Y-67722895D01*
X160721438Y-67722895D02*
X160769057Y-67675276D01*
X160769057Y-67675276D02*
X160864295Y-67627657D01*
X160864295Y-67627657D02*
X161007152Y-67627657D01*
X161007152Y-67627657D02*
X161102390Y-67675276D01*
X161102390Y-67675276D02*
X161150009Y-67722895D01*
X161150009Y-67722895D02*
X161197628Y-67818133D01*
X161197628Y-67818133D02*
X161197628Y-68199085D01*
X160769057Y-67246704D02*
X160721438Y-67199085D01*
X160721438Y-67199085D02*
X160673819Y-67103847D01*
X160673819Y-67103847D02*
X160673819Y-66865752D01*
X160673819Y-66865752D02*
X160721438Y-66770514D01*
X160721438Y-66770514D02*
X160769057Y-66722895D01*
X160769057Y-66722895D02*
X160864295Y-66675276D01*
X160864295Y-66675276D02*
X160959533Y-66675276D01*
X160959533Y-66675276D02*
X161102390Y-66722895D01*
X161102390Y-66722895D02*
X161673819Y-67294323D01*
X161673819Y-67294323D02*
X161673819Y-66675276D01*
X161673819Y-65722895D02*
X161673819Y-66294323D01*
X161673819Y-66008609D02*
X160673819Y-66008609D01*
X160673819Y-66008609D02*
X160816676Y-66103847D01*
X160816676Y-66103847D02*
X160911914Y-66199085D01*
X160911914Y-66199085D02*
X160959533Y-66294323D01*
X161673819Y-87074057D02*
X161197628Y-87407390D01*
X161673819Y-87645485D02*
X160673819Y-87645485D01*
X160673819Y-87645485D02*
X160673819Y-87264533D01*
X160673819Y-87264533D02*
X160721438Y-87169295D01*
X160721438Y-87169295D02*
X160769057Y-87121676D01*
X160769057Y-87121676D02*
X160864295Y-87074057D01*
X160864295Y-87074057D02*
X161007152Y-87074057D01*
X161007152Y-87074057D02*
X161102390Y-87121676D01*
X161102390Y-87121676D02*
X161150009Y-87169295D01*
X161150009Y-87169295D02*
X161197628Y-87264533D01*
X161197628Y-87264533D02*
X161197628Y-87645485D01*
X161673819Y-86121676D02*
X161673819Y-86693104D01*
X161673819Y-86407390D02*
X160673819Y-86407390D01*
X160673819Y-86407390D02*
X160816676Y-86502628D01*
X160816676Y-86502628D02*
X160911914Y-86597866D01*
X160911914Y-86597866D02*
X160959533Y-86693104D01*
X160673819Y-85788342D02*
X160673819Y-85121676D01*
X160673819Y-85121676D02*
X161673819Y-85550247D01*
D12*
X157726971Y-50437685D02*
X157126971Y-50437685D01*
X157126971Y-50437685D02*
X157126971Y-50294828D01*
X157126971Y-50294828D02*
X157155542Y-50209114D01*
X157155542Y-50209114D02*
X157212685Y-50151971D01*
X157212685Y-50151971D02*
X157269828Y-50123400D01*
X157269828Y-50123400D02*
X157384114Y-50094828D01*
X157384114Y-50094828D02*
X157469828Y-50094828D01*
X157469828Y-50094828D02*
X157584114Y-50123400D01*
X157584114Y-50123400D02*
X157641257Y-50151971D01*
X157641257Y-50151971D02*
X157698400Y-50209114D01*
X157698400Y-50209114D02*
X157726971Y-50294828D01*
X157726971Y-50294828D02*
X157726971Y-50437685D01*
X157126971Y-49894828D02*
X157126971Y-49494828D01*
X157126971Y-49494828D02*
X157726971Y-49894828D01*
X157726971Y-49894828D02*
X157726971Y-49494828D01*
X157184114Y-49294828D02*
X157155542Y-49266256D01*
X157155542Y-49266256D02*
X157126971Y-49209114D01*
X157126971Y-49209114D02*
X157126971Y-49066256D01*
X157126971Y-49066256D02*
X157155542Y-49009114D01*
X157155542Y-49009114D02*
X157184114Y-48980542D01*
X157184114Y-48980542D02*
X157241257Y-48951971D01*
X157241257Y-48951971D02*
X157298400Y-48951971D01*
X157298400Y-48951971D02*
X157384114Y-48980542D01*
X157384114Y-48980542D02*
X157726971Y-49323399D01*
X157726971Y-49323399D02*
X157726971Y-48951971D01*
X157726971Y-48380542D02*
X157726971Y-48723399D01*
X157726971Y-48551970D02*
X157126971Y-48551970D01*
X157126971Y-48551970D02*
X157212685Y-48609113D01*
X157212685Y-48609113D02*
X157269828Y-48666256D01*
X157269828Y-48666256D02*
X157298400Y-48723399D01*
X151046771Y-49878885D02*
X150446771Y-49878885D01*
X150446771Y-49878885D02*
X150446771Y-49736028D01*
X150446771Y-49736028D02*
X150475342Y-49650314D01*
X150475342Y-49650314D02*
X150532485Y-49593171D01*
X150532485Y-49593171D02*
X150589628Y-49564600D01*
X150589628Y-49564600D02*
X150703914Y-49536028D01*
X150703914Y-49536028D02*
X150789628Y-49536028D01*
X150789628Y-49536028D02*
X150903914Y-49564600D01*
X150903914Y-49564600D02*
X150961057Y-49593171D01*
X150961057Y-49593171D02*
X151018200Y-49650314D01*
X151018200Y-49650314D02*
X151046771Y-49736028D01*
X151046771Y-49736028D02*
X151046771Y-49878885D01*
X150446771Y-49336028D02*
X150446771Y-48936028D01*
X150446771Y-48936028D02*
X151046771Y-49336028D01*
X151046771Y-49336028D02*
X151046771Y-48936028D01*
X151046771Y-48393171D02*
X151046771Y-48736028D01*
X151046771Y-48564599D02*
X150446771Y-48564599D01*
X150446771Y-48564599D02*
X150532485Y-48621742D01*
X150532485Y-48621742D02*
X150589628Y-48678885D01*
X150589628Y-48678885D02*
X150618200Y-48736028D01*
X150703914Y-48050313D02*
X150675342Y-48107456D01*
X150675342Y-48107456D02*
X150646771Y-48136027D01*
X150646771Y-48136027D02*
X150589628Y-48164599D01*
X150589628Y-48164599D02*
X150561057Y-48164599D01*
X150561057Y-48164599D02*
X150503914Y-48136027D01*
X150503914Y-48136027D02*
X150475342Y-48107456D01*
X150475342Y-48107456D02*
X150446771Y-48050313D01*
X150446771Y-48050313D02*
X150446771Y-47936027D01*
X150446771Y-47936027D02*
X150475342Y-47878885D01*
X150475342Y-47878885D02*
X150503914Y-47850313D01*
X150503914Y-47850313D02*
X150561057Y-47821742D01*
X150561057Y-47821742D02*
X150589628Y-47821742D01*
X150589628Y-47821742D02*
X150646771Y-47850313D01*
X150646771Y-47850313D02*
X150675342Y-47878885D01*
X150675342Y-47878885D02*
X150703914Y-47936027D01*
X150703914Y-47936027D02*
X150703914Y-48050313D01*
X150703914Y-48050313D02*
X150732485Y-48107456D01*
X150732485Y-48107456D02*
X150761057Y-48136027D01*
X150761057Y-48136027D02*
X150818200Y-48164599D01*
X150818200Y-48164599D02*
X150932485Y-48164599D01*
X150932485Y-48164599D02*
X150989628Y-48136027D01*
X150989628Y-48136027D02*
X151018200Y-48107456D01*
X151018200Y-48107456D02*
X151046771Y-48050313D01*
X151046771Y-48050313D02*
X151046771Y-47936027D01*
X151046771Y-47936027D02*
X151018200Y-47878885D01*
X151018200Y-47878885D02*
X150989628Y-47850313D01*
X150989628Y-47850313D02*
X150932485Y-47821742D01*
X150932485Y-47821742D02*
X150818200Y-47821742D01*
X150818200Y-47821742D02*
X150761057Y-47850313D01*
X150761057Y-47850313D02*
X150732485Y-47878885D01*
X150732485Y-47878885D02*
X150703914Y-47936027D01*
D14*
X81875782Y-51057677D02*
X84161496Y-51057677D01*
X83018639Y-55057677D02*
X83018639Y-51057677D01*
X85494829Y-55057677D02*
X85494829Y-51057677D01*
X85494829Y-51057677D02*
X87018639Y-51057677D01*
X87018639Y-51057677D02*
X87399591Y-51248153D01*
X87399591Y-51248153D02*
X87590068Y-51438629D01*
X87590068Y-51438629D02*
X87780544Y-51819581D01*
X87780544Y-51819581D02*
X87780544Y-52391010D01*
X87780544Y-52391010D02*
X87590068Y-52771962D01*
X87590068Y-52771962D02*
X87399591Y-52962439D01*
X87399591Y-52962439D02*
X87018639Y-53152915D01*
X87018639Y-53152915D02*
X85494829Y-53152915D01*
X91209115Y-52391010D02*
X91209115Y-55057677D01*
X90256734Y-50867201D02*
X89304353Y-53724343D01*
X89304353Y-53724343D02*
X91780544Y-53724343D01*
D12*
X110031543Y-51072371D02*
X110031543Y-50472371D01*
X110031543Y-50472371D02*
X110174400Y-50472371D01*
X110174400Y-50472371D02*
X110260114Y-50500942D01*
X110260114Y-50500942D02*
X110317257Y-50558085D01*
X110317257Y-50558085D02*
X110345828Y-50615228D01*
X110345828Y-50615228D02*
X110374400Y-50729514D01*
X110374400Y-50729514D02*
X110374400Y-50815228D01*
X110374400Y-50815228D02*
X110345828Y-50929514D01*
X110345828Y-50929514D02*
X110317257Y-50986657D01*
X110317257Y-50986657D02*
X110260114Y-51043800D01*
X110260114Y-51043800D02*
X110174400Y-51072371D01*
X110174400Y-51072371D02*
X110031543Y-51072371D01*
X110945828Y-51072371D02*
X110602971Y-51072371D01*
X110774400Y-51072371D02*
X110774400Y-50472371D01*
X110774400Y-50472371D02*
X110717257Y-50558085D01*
X110717257Y-50558085D02*
X110660114Y-50615228D01*
X110660114Y-50615228D02*
X110602971Y-50643800D01*
X92347372Y-105017286D02*
X91747372Y-105017286D01*
X91747372Y-105017286D02*
X91747372Y-104874429D01*
X91747372Y-104874429D02*
X91775943Y-104788715D01*
X91775943Y-104788715D02*
X91833086Y-104731572D01*
X91833086Y-104731572D02*
X91890229Y-104703001D01*
X91890229Y-104703001D02*
X92004515Y-104674429D01*
X92004515Y-104674429D02*
X92090229Y-104674429D01*
X92090229Y-104674429D02*
X92204515Y-104703001D01*
X92204515Y-104703001D02*
X92261658Y-104731572D01*
X92261658Y-104731572D02*
X92318801Y-104788715D01*
X92318801Y-104788715D02*
X92347372Y-104874429D01*
X92347372Y-104874429D02*
X92347372Y-105017286D01*
X91747372Y-104474429D02*
X91747372Y-104074429D01*
X91747372Y-104074429D02*
X92347372Y-104474429D01*
X92347372Y-104474429D02*
X92347372Y-104074429D01*
X92347372Y-103531572D02*
X92347372Y-103874429D01*
X92347372Y-103703000D02*
X91747372Y-103703000D01*
X91747372Y-103703000D02*
X91833086Y-103760143D01*
X91833086Y-103760143D02*
X91890229Y-103817286D01*
X91890229Y-103817286D02*
X91918801Y-103874429D01*
X91747372Y-103160143D02*
X91747372Y-103103000D01*
X91747372Y-103103000D02*
X91775943Y-103045857D01*
X91775943Y-103045857D02*
X91804515Y-103017286D01*
X91804515Y-103017286D02*
X91861658Y-102988714D01*
X91861658Y-102988714D02*
X91975943Y-102960143D01*
X91975943Y-102960143D02*
X92118801Y-102960143D01*
X92118801Y-102960143D02*
X92233086Y-102988714D01*
X92233086Y-102988714D02*
X92290229Y-103017286D01*
X92290229Y-103017286D02*
X92318801Y-103045857D01*
X92318801Y-103045857D02*
X92347372Y-103103000D01*
X92347372Y-103103000D02*
X92347372Y-103160143D01*
X92347372Y-103160143D02*
X92318801Y-103217286D01*
X92318801Y-103217286D02*
X92290229Y-103245857D01*
X92290229Y-103245857D02*
X92233086Y-103274428D01*
X92233086Y-103274428D02*
X92118801Y-103303000D01*
X92118801Y-103303000D02*
X91975943Y-103303000D01*
X91975943Y-103303000D02*
X91861658Y-103274428D01*
X91861658Y-103274428D02*
X91804515Y-103245857D01*
X91804515Y-103245857D02*
X91775943Y-103217286D01*
X91775943Y-103217286D02*
X91747372Y-103160143D01*
X146627171Y-49878885D02*
X146027171Y-49878885D01*
X146027171Y-49878885D02*
X146027171Y-49736028D01*
X146027171Y-49736028D02*
X146055742Y-49650314D01*
X146055742Y-49650314D02*
X146112885Y-49593171D01*
X146112885Y-49593171D02*
X146170028Y-49564600D01*
X146170028Y-49564600D02*
X146284314Y-49536028D01*
X146284314Y-49536028D02*
X146370028Y-49536028D01*
X146370028Y-49536028D02*
X146484314Y-49564600D01*
X146484314Y-49564600D02*
X146541457Y-49593171D01*
X146541457Y-49593171D02*
X146598600Y-49650314D01*
X146598600Y-49650314D02*
X146627171Y-49736028D01*
X146627171Y-49736028D02*
X146627171Y-49878885D01*
X146027171Y-49336028D02*
X146027171Y-48936028D01*
X146027171Y-48936028D02*
X146627171Y-49336028D01*
X146627171Y-49336028D02*
X146627171Y-48936028D01*
X146627171Y-48393171D02*
X146627171Y-48736028D01*
X146627171Y-48564599D02*
X146027171Y-48564599D01*
X146027171Y-48564599D02*
X146112885Y-48621742D01*
X146112885Y-48621742D02*
X146170028Y-48678885D01*
X146170028Y-48678885D02*
X146198600Y-48736028D01*
X146027171Y-47878885D02*
X146027171Y-47993170D01*
X146027171Y-47993170D02*
X146055742Y-48050313D01*
X146055742Y-48050313D02*
X146084314Y-48078885D01*
X146084314Y-48078885D02*
X146170028Y-48136027D01*
X146170028Y-48136027D02*
X146284314Y-48164599D01*
X146284314Y-48164599D02*
X146512885Y-48164599D01*
X146512885Y-48164599D02*
X146570028Y-48136027D01*
X146570028Y-48136027D02*
X146598600Y-48107456D01*
X146598600Y-48107456D02*
X146627171Y-48050313D01*
X146627171Y-48050313D02*
X146627171Y-47936027D01*
X146627171Y-47936027D02*
X146598600Y-47878885D01*
X146598600Y-47878885D02*
X146570028Y-47850313D01*
X146570028Y-47850313D02*
X146512885Y-47821742D01*
X146512885Y-47821742D02*
X146370028Y-47821742D01*
X146370028Y-47821742D02*
X146312885Y-47850313D01*
X146312885Y-47850313D02*
X146284314Y-47878885D01*
X146284314Y-47878885D02*
X146255742Y-47936027D01*
X146255742Y-47936027D02*
X146255742Y-48050313D01*
X146255742Y-48050313D02*
X146284314Y-48107456D01*
X146284314Y-48107456D02*
X146312885Y-48136027D01*
X146312885Y-48136027D02*
X146370028Y-48164599D01*
D13*
X154051476Y-108731738D02*
X155194333Y-108731738D01*
X154622904Y-110731738D02*
X154622904Y-108731738D01*
X157003857Y-110541261D02*
X156908619Y-110636500D01*
X156908619Y-110636500D02*
X156622905Y-110731738D01*
X156622905Y-110731738D02*
X156432429Y-110731738D01*
X156432429Y-110731738D02*
X156146714Y-110636500D01*
X156146714Y-110636500D02*
X155956238Y-110446023D01*
X155956238Y-110446023D02*
X155861000Y-110255547D01*
X155861000Y-110255547D02*
X155765762Y-109874595D01*
X155765762Y-109874595D02*
X155765762Y-109588880D01*
X155765762Y-109588880D02*
X155861000Y-109207928D01*
X155861000Y-109207928D02*
X155956238Y-109017452D01*
X155956238Y-109017452D02*
X156146714Y-108826976D01*
X156146714Y-108826976D02*
X156432429Y-108731738D01*
X156432429Y-108731738D02*
X156622905Y-108731738D01*
X156622905Y-108731738D02*
X156908619Y-108826976D01*
X156908619Y-108826976D02*
X157003857Y-108922214D01*
X157861000Y-109969833D02*
X159384810Y-109969833D01*
X161480047Y-110541261D02*
X161384809Y-110636500D01*
X161384809Y-110636500D02*
X161099095Y-110731738D01*
X161099095Y-110731738D02*
X160908619Y-110731738D01*
X160908619Y-110731738D02*
X160622904Y-110636500D01*
X160622904Y-110636500D02*
X160432428Y-110446023D01*
X160432428Y-110446023D02*
X160337190Y-110255547D01*
X160337190Y-110255547D02*
X160241952Y-109874595D01*
X160241952Y-109874595D02*
X160241952Y-109588880D01*
X160241952Y-109588880D02*
X160337190Y-109207928D01*
X160337190Y-109207928D02*
X160432428Y-109017452D01*
X160432428Y-109017452D02*
X160622904Y-108826976D01*
X160622904Y-108826976D02*
X160908619Y-108731738D01*
X160908619Y-108731738D02*
X161099095Y-108731738D01*
X161099095Y-108731738D02*
X161384809Y-108826976D01*
X161384809Y-108826976D02*
X161480047Y-108922214D01*
D12*
X79088572Y-104731572D02*
X78488572Y-104731572D01*
X78488572Y-104731572D02*
X78488572Y-104588715D01*
X78488572Y-104588715D02*
X78517143Y-104503001D01*
X78517143Y-104503001D02*
X78574286Y-104445858D01*
X78574286Y-104445858D02*
X78631429Y-104417287D01*
X78631429Y-104417287D02*
X78745715Y-104388715D01*
X78745715Y-104388715D02*
X78831429Y-104388715D01*
X78831429Y-104388715D02*
X78945715Y-104417287D01*
X78945715Y-104417287D02*
X79002858Y-104445858D01*
X79002858Y-104445858D02*
X79060001Y-104503001D01*
X79060001Y-104503001D02*
X79088572Y-104588715D01*
X79088572Y-104588715D02*
X79088572Y-104731572D01*
X78488572Y-104188715D02*
X78488572Y-103788715D01*
X78488572Y-103788715D02*
X79088572Y-104188715D01*
X79088572Y-104188715D02*
X79088572Y-103788715D01*
X78688572Y-103303001D02*
X79088572Y-103303001D01*
X78460001Y-103445858D02*
X78888572Y-103588715D01*
X78888572Y-103588715D02*
X78888572Y-103217286D01*
D10*
X181210219Y-87074057D02*
X180734028Y-87407390D01*
X181210219Y-87645485D02*
X180210219Y-87645485D01*
X180210219Y-87645485D02*
X180210219Y-87264533D01*
X180210219Y-87264533D02*
X180257838Y-87169295D01*
X180257838Y-87169295D02*
X180305457Y-87121676D01*
X180305457Y-87121676D02*
X180400695Y-87074057D01*
X180400695Y-87074057D02*
X180543552Y-87074057D01*
X180543552Y-87074057D02*
X180638790Y-87121676D01*
X180638790Y-87121676D02*
X180686409Y-87169295D01*
X180686409Y-87169295D02*
X180734028Y-87264533D01*
X180734028Y-87264533D02*
X180734028Y-87645485D01*
X181210219Y-86121676D02*
X181210219Y-86693104D01*
X181210219Y-86407390D02*
X180210219Y-86407390D01*
X180210219Y-86407390D02*
X180353076Y-86502628D01*
X180353076Y-86502628D02*
X180448314Y-86597866D01*
X180448314Y-86597866D02*
X180495933Y-86693104D01*
X180638790Y-85550247D02*
X180591171Y-85645485D01*
X180591171Y-85645485D02*
X180543552Y-85693104D01*
X180543552Y-85693104D02*
X180448314Y-85740723D01*
X180448314Y-85740723D02*
X180400695Y-85740723D01*
X180400695Y-85740723D02*
X180305457Y-85693104D01*
X180305457Y-85693104D02*
X180257838Y-85645485D01*
X180257838Y-85645485D02*
X180210219Y-85550247D01*
X180210219Y-85550247D02*
X180210219Y-85359771D01*
X180210219Y-85359771D02*
X180257838Y-85264533D01*
X180257838Y-85264533D02*
X180305457Y-85216914D01*
X180305457Y-85216914D02*
X180400695Y-85169295D01*
X180400695Y-85169295D02*
X180448314Y-85169295D01*
X180448314Y-85169295D02*
X180543552Y-85216914D01*
X180543552Y-85216914D02*
X180591171Y-85264533D01*
X180591171Y-85264533D02*
X180638790Y-85359771D01*
X180638790Y-85359771D02*
X180638790Y-85550247D01*
X180638790Y-85550247D02*
X180686409Y-85645485D01*
X180686409Y-85645485D02*
X180734028Y-85693104D01*
X180734028Y-85693104D02*
X180829266Y-85740723D01*
X180829266Y-85740723D02*
X181019742Y-85740723D01*
X181019742Y-85740723D02*
X181114980Y-85693104D01*
X181114980Y-85693104D02*
X181162600Y-85645485D01*
X181162600Y-85645485D02*
X181210219Y-85550247D01*
X181210219Y-85550247D02*
X181210219Y-85359771D01*
X181210219Y-85359771D02*
X181162600Y-85264533D01*
X181162600Y-85264533D02*
X181114980Y-85216914D01*
X181114980Y-85216914D02*
X181019742Y-85169295D01*
X181019742Y-85169295D02*
X180829266Y-85169295D01*
X180829266Y-85169295D02*
X180734028Y-85216914D01*
X180734028Y-85216914D02*
X180686409Y-85264533D01*
X180686409Y-85264533D02*
X180638790Y-85359771D01*
X158223219Y-87074057D02*
X157747028Y-87407390D01*
X158223219Y-87645485D02*
X157223219Y-87645485D01*
X157223219Y-87645485D02*
X157223219Y-87264533D01*
X157223219Y-87264533D02*
X157270838Y-87169295D01*
X157270838Y-87169295D02*
X157318457Y-87121676D01*
X157318457Y-87121676D02*
X157413695Y-87074057D01*
X157413695Y-87074057D02*
X157556552Y-87074057D01*
X157556552Y-87074057D02*
X157651790Y-87121676D01*
X157651790Y-87121676D02*
X157699409Y-87169295D01*
X157699409Y-87169295D02*
X157747028Y-87264533D01*
X157747028Y-87264533D02*
X157747028Y-87645485D01*
X158223219Y-86121676D02*
X158223219Y-86693104D01*
X158223219Y-86407390D02*
X157223219Y-86407390D01*
X157223219Y-86407390D02*
X157366076Y-86502628D01*
X157366076Y-86502628D02*
X157461314Y-86597866D01*
X157461314Y-86597866D02*
X157508933Y-86693104D01*
X157223219Y-85264533D02*
X157223219Y-85455009D01*
X157223219Y-85455009D02*
X157270838Y-85550247D01*
X157270838Y-85550247D02*
X157318457Y-85597866D01*
X157318457Y-85597866D02*
X157461314Y-85693104D01*
X157461314Y-85693104D02*
X157651790Y-85740723D01*
X157651790Y-85740723D02*
X158032742Y-85740723D01*
X158032742Y-85740723D02*
X158127980Y-85693104D01*
X158127980Y-85693104D02*
X158175600Y-85645485D01*
X158175600Y-85645485D02*
X158223219Y-85550247D01*
X158223219Y-85550247D02*
X158223219Y-85359771D01*
X158223219Y-85359771D02*
X158175600Y-85264533D01*
X158175600Y-85264533D02*
X158127980Y-85216914D01*
X158127980Y-85216914D02*
X158032742Y-85169295D01*
X158032742Y-85169295D02*
X157794647Y-85169295D01*
X157794647Y-85169295D02*
X157699409Y-85216914D01*
X157699409Y-85216914D02*
X157651790Y-85264533D01*
X157651790Y-85264533D02*
X157604171Y-85359771D01*
X157604171Y-85359771D02*
X157604171Y-85550247D01*
X157604171Y-85550247D02*
X157651790Y-85645485D01*
X157651790Y-85645485D02*
X157699409Y-85693104D01*
X157699409Y-85693104D02*
X157794647Y-85740723D01*
D14*
X81875782Y-86490677D02*
X84161496Y-86490677D01*
X83018639Y-90490677D02*
X83018639Y-86490677D01*
X85494829Y-90490677D02*
X85494829Y-86490677D01*
X85494829Y-86490677D02*
X87018639Y-86490677D01*
X87018639Y-86490677D02*
X87399591Y-86681153D01*
X87399591Y-86681153D02*
X87590068Y-86871629D01*
X87590068Y-86871629D02*
X87780544Y-87252581D01*
X87780544Y-87252581D02*
X87780544Y-87824010D01*
X87780544Y-87824010D02*
X87590068Y-88204962D01*
X87590068Y-88204962D02*
X87399591Y-88395439D01*
X87399591Y-88395439D02*
X87018639Y-88585915D01*
X87018639Y-88585915D02*
X85494829Y-88585915D01*
X91209115Y-86490677D02*
X90447210Y-86490677D01*
X90447210Y-86490677D02*
X90066258Y-86681153D01*
X90066258Y-86681153D02*
X89875782Y-86871629D01*
X89875782Y-86871629D02*
X89494829Y-87443058D01*
X89494829Y-87443058D02*
X89304353Y-88204962D01*
X89304353Y-88204962D02*
X89304353Y-89728772D01*
X89304353Y-89728772D02*
X89494829Y-90109724D01*
X89494829Y-90109724D02*
X89685306Y-90300201D01*
X89685306Y-90300201D02*
X90066258Y-90490677D01*
X90066258Y-90490677D02*
X90828163Y-90490677D01*
X90828163Y-90490677D02*
X91209115Y-90300201D01*
X91209115Y-90300201D02*
X91399591Y-90109724D01*
X91399591Y-90109724D02*
X91590068Y-89728772D01*
X91590068Y-89728772D02*
X91590068Y-88776391D01*
X91590068Y-88776391D02*
X91399591Y-88395439D01*
X91399591Y-88395439D02*
X91209115Y-88204962D01*
X91209115Y-88204962D02*
X90828163Y-88014486D01*
X90828163Y-88014486D02*
X90066258Y-88014486D01*
X90066258Y-88014486D02*
X89685306Y-88204962D01*
X89685306Y-88204962D02*
X89494829Y-88395439D01*
X89494829Y-88395439D02*
X89304353Y-88776391D01*
D12*
X166566171Y-50437685D02*
X165966171Y-50437685D01*
X165966171Y-50437685D02*
X165966171Y-50294828D01*
X165966171Y-50294828D02*
X165994742Y-50209114D01*
X165994742Y-50209114D02*
X166051885Y-50151971D01*
X166051885Y-50151971D02*
X166109028Y-50123400D01*
X166109028Y-50123400D02*
X166223314Y-50094828D01*
X166223314Y-50094828D02*
X166309028Y-50094828D01*
X166309028Y-50094828D02*
X166423314Y-50123400D01*
X166423314Y-50123400D02*
X166480457Y-50151971D01*
X166480457Y-50151971D02*
X166537600Y-50209114D01*
X166537600Y-50209114D02*
X166566171Y-50294828D01*
X166566171Y-50294828D02*
X166566171Y-50437685D01*
X165966171Y-49894828D02*
X165966171Y-49494828D01*
X165966171Y-49494828D02*
X166566171Y-49894828D01*
X166566171Y-49894828D02*
X166566171Y-49494828D01*
X166023314Y-49294828D02*
X165994742Y-49266256D01*
X165994742Y-49266256D02*
X165966171Y-49209114D01*
X165966171Y-49209114D02*
X165966171Y-49066256D01*
X165966171Y-49066256D02*
X165994742Y-49009114D01*
X165994742Y-49009114D02*
X166023314Y-48980542D01*
X166023314Y-48980542D02*
X166080457Y-48951971D01*
X166080457Y-48951971D02*
X166137600Y-48951971D01*
X166137600Y-48951971D02*
X166223314Y-48980542D01*
X166223314Y-48980542D02*
X166566171Y-49323399D01*
X166566171Y-49323399D02*
X166566171Y-48951971D01*
X165966171Y-48409113D02*
X165966171Y-48694827D01*
X165966171Y-48694827D02*
X166251885Y-48723399D01*
X166251885Y-48723399D02*
X166223314Y-48694827D01*
X166223314Y-48694827D02*
X166194742Y-48637685D01*
X166194742Y-48637685D02*
X166194742Y-48494827D01*
X166194742Y-48494827D02*
X166223314Y-48437685D01*
X166223314Y-48437685D02*
X166251885Y-48409113D01*
X166251885Y-48409113D02*
X166309028Y-48380542D01*
X166309028Y-48380542D02*
X166451885Y-48380542D01*
X166451885Y-48380542D02*
X166509028Y-48409113D01*
X166509028Y-48409113D02*
X166537600Y-48437685D01*
X166537600Y-48437685D02*
X166566171Y-48494827D01*
X166566171Y-48494827D02*
X166566171Y-48637685D01*
X166566171Y-48637685D02*
X166537600Y-48694827D01*
X166537600Y-48694827D02*
X166509028Y-48723399D01*
D10*
X75613420Y-52055867D02*
X75137229Y-52389200D01*
X75613420Y-52627295D02*
X74613420Y-52627295D01*
X74613420Y-52627295D02*
X74613420Y-52246343D01*
X74613420Y-52246343D02*
X74661039Y-52151105D01*
X74661039Y-52151105D02*
X74708658Y-52103486D01*
X74708658Y-52103486D02*
X74803896Y-52055867D01*
X74803896Y-52055867D02*
X74946753Y-52055867D01*
X74946753Y-52055867D02*
X75041991Y-52103486D01*
X75041991Y-52103486D02*
X75089610Y-52151105D01*
X75089610Y-52151105D02*
X75137229Y-52246343D01*
X75137229Y-52246343D02*
X75137229Y-52627295D01*
X74613420Y-51722533D02*
X74613420Y-51055867D01*
X74613420Y-51055867D02*
X75613420Y-51484438D01*
X72062020Y-87488867D02*
X71585829Y-87822200D01*
X72062020Y-88060295D02*
X71062020Y-88060295D01*
X71062020Y-88060295D02*
X71062020Y-87679343D01*
X71062020Y-87679343D02*
X71109639Y-87584105D01*
X71109639Y-87584105D02*
X71157258Y-87536486D01*
X71157258Y-87536486D02*
X71252496Y-87488867D01*
X71252496Y-87488867D02*
X71395353Y-87488867D01*
X71395353Y-87488867D02*
X71490591Y-87536486D01*
X71490591Y-87536486D02*
X71538210Y-87584105D01*
X71538210Y-87584105D02*
X71585829Y-87679343D01*
X71585829Y-87679343D02*
X71585829Y-88060295D01*
X71062020Y-86631724D02*
X71062020Y-86822200D01*
X71062020Y-86822200D02*
X71109639Y-86917438D01*
X71109639Y-86917438D02*
X71157258Y-86965057D01*
X71157258Y-86965057D02*
X71300115Y-87060295D01*
X71300115Y-87060295D02*
X71490591Y-87107914D01*
X71490591Y-87107914D02*
X71871543Y-87107914D01*
X71871543Y-87107914D02*
X71966781Y-87060295D01*
X71966781Y-87060295D02*
X72014401Y-87012676D01*
X72014401Y-87012676D02*
X72062020Y-86917438D01*
X72062020Y-86917438D02*
X72062020Y-86726962D01*
X72062020Y-86726962D02*
X72014401Y-86631724D01*
X72014401Y-86631724D02*
X71966781Y-86584105D01*
X71966781Y-86584105D02*
X71871543Y-86536486D01*
X71871543Y-86536486D02*
X71633448Y-86536486D01*
X71633448Y-86536486D02*
X71538210Y-86584105D01*
X71538210Y-86584105D02*
X71490591Y-86631724D01*
X71490591Y-86631724D02*
X71442972Y-86726962D01*
X71442972Y-86726962D02*
X71442972Y-86917438D01*
X71442972Y-86917438D02*
X71490591Y-87012676D01*
X71490591Y-87012676D02*
X71538210Y-87060295D01*
X71538210Y-87060295D02*
X71633448Y-87107914D01*
D12*
X74668972Y-104731572D02*
X74068972Y-104731572D01*
X74068972Y-104731572D02*
X74068972Y-104588715D01*
X74068972Y-104588715D02*
X74097543Y-104503001D01*
X74097543Y-104503001D02*
X74154686Y-104445858D01*
X74154686Y-104445858D02*
X74211829Y-104417287D01*
X74211829Y-104417287D02*
X74326115Y-104388715D01*
X74326115Y-104388715D02*
X74411829Y-104388715D01*
X74411829Y-104388715D02*
X74526115Y-104417287D01*
X74526115Y-104417287D02*
X74583258Y-104445858D01*
X74583258Y-104445858D02*
X74640401Y-104503001D01*
X74640401Y-104503001D02*
X74668972Y-104588715D01*
X74668972Y-104588715D02*
X74668972Y-104731572D01*
X74068972Y-104188715D02*
X74068972Y-103788715D01*
X74068972Y-103788715D02*
X74668972Y-104188715D01*
X74668972Y-104188715D02*
X74668972Y-103788715D01*
X74126115Y-103588715D02*
X74097543Y-103560143D01*
X74097543Y-103560143D02*
X74068972Y-103503001D01*
X74068972Y-103503001D02*
X74068972Y-103360143D01*
X74068972Y-103360143D02*
X74097543Y-103303001D01*
X74097543Y-103303001D02*
X74126115Y-103274429D01*
X74126115Y-103274429D02*
X74183258Y-103245858D01*
X74183258Y-103245858D02*
X74240401Y-103245858D01*
X74240401Y-103245858D02*
X74326115Y-103274429D01*
X74326115Y-103274429D02*
X74668972Y-103617286D01*
X74668972Y-103617286D02*
X74668972Y-103245858D01*
X155466371Y-49878885D02*
X154866371Y-49878885D01*
X154866371Y-49878885D02*
X154866371Y-49736028D01*
X154866371Y-49736028D02*
X154894942Y-49650314D01*
X154894942Y-49650314D02*
X154952085Y-49593171D01*
X154952085Y-49593171D02*
X155009228Y-49564600D01*
X155009228Y-49564600D02*
X155123514Y-49536028D01*
X155123514Y-49536028D02*
X155209228Y-49536028D01*
X155209228Y-49536028D02*
X155323514Y-49564600D01*
X155323514Y-49564600D02*
X155380657Y-49593171D01*
X155380657Y-49593171D02*
X155437800Y-49650314D01*
X155437800Y-49650314D02*
X155466371Y-49736028D01*
X155466371Y-49736028D02*
X155466371Y-49878885D01*
X154866371Y-49336028D02*
X154866371Y-48936028D01*
X154866371Y-48936028D02*
X155466371Y-49336028D01*
X155466371Y-49336028D02*
X155466371Y-48936028D01*
X154923514Y-48736028D02*
X154894942Y-48707456D01*
X154894942Y-48707456D02*
X154866371Y-48650314D01*
X154866371Y-48650314D02*
X154866371Y-48507456D01*
X154866371Y-48507456D02*
X154894942Y-48450314D01*
X154894942Y-48450314D02*
X154923514Y-48421742D01*
X154923514Y-48421742D02*
X154980657Y-48393171D01*
X154980657Y-48393171D02*
X155037800Y-48393171D01*
X155037800Y-48393171D02*
X155123514Y-48421742D01*
X155123514Y-48421742D02*
X155466371Y-48764599D01*
X155466371Y-48764599D02*
X155466371Y-48393171D01*
X154866371Y-48021742D02*
X154866371Y-47964599D01*
X154866371Y-47964599D02*
X154894942Y-47907456D01*
X154894942Y-47907456D02*
X154923514Y-47878885D01*
X154923514Y-47878885D02*
X154980657Y-47850313D01*
X154980657Y-47850313D02*
X155094942Y-47821742D01*
X155094942Y-47821742D02*
X155237800Y-47821742D01*
X155237800Y-47821742D02*
X155352085Y-47850313D01*
X155352085Y-47850313D02*
X155409228Y-47878885D01*
X155409228Y-47878885D02*
X155437800Y-47907456D01*
X155437800Y-47907456D02*
X155466371Y-47964599D01*
X155466371Y-47964599D02*
X155466371Y-48021742D01*
X155466371Y-48021742D02*
X155437800Y-48078885D01*
X155437800Y-48078885D02*
X155409228Y-48107456D01*
X155409228Y-48107456D02*
X155352085Y-48136027D01*
X155352085Y-48136027D02*
X155237800Y-48164599D01*
X155237800Y-48164599D02*
X155094942Y-48164599D01*
X155094942Y-48164599D02*
X154980657Y-48136027D01*
X154980657Y-48136027D02*
X154923514Y-48107456D01*
X154923514Y-48107456D02*
X154894942Y-48078885D01*
X154894942Y-48078885D02*
X154866371Y-48021742D01*
D10*
X158223219Y-67627657D02*
X157747028Y-67960990D01*
X158223219Y-68199085D02*
X157223219Y-68199085D01*
X157223219Y-68199085D02*
X157223219Y-67818133D01*
X157223219Y-67818133D02*
X157270838Y-67722895D01*
X157270838Y-67722895D02*
X157318457Y-67675276D01*
X157318457Y-67675276D02*
X157413695Y-67627657D01*
X157413695Y-67627657D02*
X157556552Y-67627657D01*
X157556552Y-67627657D02*
X157651790Y-67675276D01*
X157651790Y-67675276D02*
X157699409Y-67722895D01*
X157699409Y-67722895D02*
X157747028Y-67818133D01*
X157747028Y-67818133D02*
X157747028Y-68199085D01*
X157318457Y-67246704D02*
X157270838Y-67199085D01*
X157270838Y-67199085D02*
X157223219Y-67103847D01*
X157223219Y-67103847D02*
X157223219Y-66865752D01*
X157223219Y-66865752D02*
X157270838Y-66770514D01*
X157270838Y-66770514D02*
X157318457Y-66722895D01*
X157318457Y-66722895D02*
X157413695Y-66675276D01*
X157413695Y-66675276D02*
X157508933Y-66675276D01*
X157508933Y-66675276D02*
X157651790Y-66722895D01*
X157651790Y-66722895D02*
X158223219Y-67294323D01*
X158223219Y-67294323D02*
X158223219Y-66675276D01*
X157223219Y-66056228D02*
X157223219Y-65960990D01*
X157223219Y-65960990D02*
X157270838Y-65865752D01*
X157270838Y-65865752D02*
X157318457Y-65818133D01*
X157318457Y-65818133D02*
X157413695Y-65770514D01*
X157413695Y-65770514D02*
X157604171Y-65722895D01*
X157604171Y-65722895D02*
X157842266Y-65722895D01*
X157842266Y-65722895D02*
X158032742Y-65770514D01*
X158032742Y-65770514D02*
X158127980Y-65818133D01*
X158127980Y-65818133D02*
X158175600Y-65865752D01*
X158175600Y-65865752D02*
X158223219Y-65960990D01*
X158223219Y-65960990D02*
X158223219Y-66056228D01*
X158223219Y-66056228D02*
X158175600Y-66151466D01*
X158175600Y-66151466D02*
X158127980Y-66199085D01*
X158127980Y-66199085D02*
X158032742Y-66246704D01*
X158032742Y-66246704D02*
X157842266Y-66294323D01*
X157842266Y-66294323D02*
X157604171Y-66294323D01*
X157604171Y-66294323D02*
X157413695Y-66246704D01*
X157413695Y-66246704D02*
X157318457Y-66199085D01*
X157318457Y-66199085D02*
X157270838Y-66151466D01*
X157270838Y-66151466D02*
X157223219Y-66056228D01*
D12*
X170985771Y-50437685D02*
X170385771Y-50437685D01*
X170385771Y-50437685D02*
X170385771Y-50294828D01*
X170385771Y-50294828D02*
X170414342Y-50209114D01*
X170414342Y-50209114D02*
X170471485Y-50151971D01*
X170471485Y-50151971D02*
X170528628Y-50123400D01*
X170528628Y-50123400D02*
X170642914Y-50094828D01*
X170642914Y-50094828D02*
X170728628Y-50094828D01*
X170728628Y-50094828D02*
X170842914Y-50123400D01*
X170842914Y-50123400D02*
X170900057Y-50151971D01*
X170900057Y-50151971D02*
X170957200Y-50209114D01*
X170957200Y-50209114D02*
X170985771Y-50294828D01*
X170985771Y-50294828D02*
X170985771Y-50437685D01*
X170385771Y-49894828D02*
X170385771Y-49494828D01*
X170385771Y-49494828D02*
X170985771Y-49894828D01*
X170985771Y-49894828D02*
X170985771Y-49494828D01*
X170442914Y-49294828D02*
X170414342Y-49266256D01*
X170414342Y-49266256D02*
X170385771Y-49209114D01*
X170385771Y-49209114D02*
X170385771Y-49066256D01*
X170385771Y-49066256D02*
X170414342Y-49009114D01*
X170414342Y-49009114D02*
X170442914Y-48980542D01*
X170442914Y-48980542D02*
X170500057Y-48951971D01*
X170500057Y-48951971D02*
X170557200Y-48951971D01*
X170557200Y-48951971D02*
X170642914Y-48980542D01*
X170642914Y-48980542D02*
X170985771Y-49323399D01*
X170985771Y-49323399D02*
X170985771Y-48951971D01*
X170385771Y-48751970D02*
X170385771Y-48351970D01*
X170385771Y-48351970D02*
X170985771Y-48609113D01*
D10*
X181210219Y-67627657D02*
X180734028Y-67960990D01*
X181210219Y-68199085D02*
X180210219Y-68199085D01*
X180210219Y-68199085D02*
X180210219Y-67818133D01*
X180210219Y-67818133D02*
X180257838Y-67722895D01*
X180257838Y-67722895D02*
X180305457Y-67675276D01*
X180305457Y-67675276D02*
X180400695Y-67627657D01*
X180400695Y-67627657D02*
X180543552Y-67627657D01*
X180543552Y-67627657D02*
X180638790Y-67675276D01*
X180638790Y-67675276D02*
X180686409Y-67722895D01*
X180686409Y-67722895D02*
X180734028Y-67818133D01*
X180734028Y-67818133D02*
X180734028Y-68199085D01*
X180305457Y-67246704D02*
X180257838Y-67199085D01*
X180257838Y-67199085D02*
X180210219Y-67103847D01*
X180210219Y-67103847D02*
X180210219Y-66865752D01*
X180210219Y-66865752D02*
X180257838Y-66770514D01*
X180257838Y-66770514D02*
X180305457Y-66722895D01*
X180305457Y-66722895D02*
X180400695Y-66675276D01*
X180400695Y-66675276D02*
X180495933Y-66675276D01*
X180495933Y-66675276D02*
X180638790Y-66722895D01*
X180638790Y-66722895D02*
X181210219Y-67294323D01*
X181210219Y-67294323D02*
X181210219Y-66675276D01*
X180305457Y-66294323D02*
X180257838Y-66246704D01*
X180257838Y-66246704D02*
X180210219Y-66151466D01*
X180210219Y-66151466D02*
X180210219Y-65913371D01*
X180210219Y-65913371D02*
X180257838Y-65818133D01*
X180257838Y-65818133D02*
X180305457Y-65770514D01*
X180305457Y-65770514D02*
X180400695Y-65722895D01*
X180400695Y-65722895D02*
X180495933Y-65722895D01*
X180495933Y-65722895D02*
X180638790Y-65770514D01*
X180638790Y-65770514D02*
X181210219Y-66341942D01*
X181210219Y-66341942D02*
X181210219Y-65722895D01*
D12*
X87927772Y-104731572D02*
X87327772Y-104731572D01*
X87327772Y-104731572D02*
X87327772Y-104588715D01*
X87327772Y-104588715D02*
X87356343Y-104503001D01*
X87356343Y-104503001D02*
X87413486Y-104445858D01*
X87413486Y-104445858D02*
X87470629Y-104417287D01*
X87470629Y-104417287D02*
X87584915Y-104388715D01*
X87584915Y-104388715D02*
X87670629Y-104388715D01*
X87670629Y-104388715D02*
X87784915Y-104417287D01*
X87784915Y-104417287D02*
X87842058Y-104445858D01*
X87842058Y-104445858D02*
X87899201Y-104503001D01*
X87899201Y-104503001D02*
X87927772Y-104588715D01*
X87927772Y-104588715D02*
X87927772Y-104731572D01*
X87327772Y-104188715D02*
X87327772Y-103788715D01*
X87327772Y-103788715D02*
X87927772Y-104188715D01*
X87927772Y-104188715D02*
X87927772Y-103788715D01*
X87584915Y-103474429D02*
X87556343Y-103531572D01*
X87556343Y-103531572D02*
X87527772Y-103560143D01*
X87527772Y-103560143D02*
X87470629Y-103588715D01*
X87470629Y-103588715D02*
X87442058Y-103588715D01*
X87442058Y-103588715D02*
X87384915Y-103560143D01*
X87384915Y-103560143D02*
X87356343Y-103531572D01*
X87356343Y-103531572D02*
X87327772Y-103474429D01*
X87327772Y-103474429D02*
X87327772Y-103360143D01*
X87327772Y-103360143D02*
X87356343Y-103303001D01*
X87356343Y-103303001D02*
X87384915Y-103274429D01*
X87384915Y-103274429D02*
X87442058Y-103245858D01*
X87442058Y-103245858D02*
X87470629Y-103245858D01*
X87470629Y-103245858D02*
X87527772Y-103274429D01*
X87527772Y-103274429D02*
X87556343Y-103303001D01*
X87556343Y-103303001D02*
X87584915Y-103360143D01*
X87584915Y-103360143D02*
X87584915Y-103474429D01*
X87584915Y-103474429D02*
X87613486Y-103531572D01*
X87613486Y-103531572D02*
X87642058Y-103560143D01*
X87642058Y-103560143D02*
X87699201Y-103588715D01*
X87699201Y-103588715D02*
X87813486Y-103588715D01*
X87813486Y-103588715D02*
X87870629Y-103560143D01*
X87870629Y-103560143D02*
X87899201Y-103531572D01*
X87899201Y-103531572D02*
X87927772Y-103474429D01*
X87927772Y-103474429D02*
X87927772Y-103360143D01*
X87927772Y-103360143D02*
X87899201Y-103303001D01*
X87899201Y-103303001D02*
X87870629Y-103274429D01*
X87870629Y-103274429D02*
X87813486Y-103245858D01*
X87813486Y-103245858D02*
X87699201Y-103245858D01*
X87699201Y-103245858D02*
X87642058Y-103274429D01*
X87642058Y-103274429D02*
X87613486Y-103303001D01*
X87613486Y-103303001D02*
X87584915Y-103360143D01*
D10*
X99146420Y-52532058D02*
X98670229Y-52865391D01*
X99146420Y-53103486D02*
X98146420Y-53103486D01*
X98146420Y-53103486D02*
X98146420Y-52722534D01*
X98146420Y-52722534D02*
X98194039Y-52627296D01*
X98194039Y-52627296D02*
X98241658Y-52579677D01*
X98241658Y-52579677D02*
X98336896Y-52532058D01*
X98336896Y-52532058D02*
X98479753Y-52532058D01*
X98479753Y-52532058D02*
X98574991Y-52579677D01*
X98574991Y-52579677D02*
X98622610Y-52627296D01*
X98622610Y-52627296D02*
X98670229Y-52722534D01*
X98670229Y-52722534D02*
X98670229Y-53103486D01*
X99146420Y-51579677D02*
X99146420Y-52151105D01*
X99146420Y-51865391D02*
X98146420Y-51865391D01*
X98146420Y-51865391D02*
X98289277Y-51960629D01*
X98289277Y-51960629D02*
X98384515Y-52055867D01*
X98384515Y-52055867D02*
X98432134Y-52151105D01*
X98146420Y-50960629D02*
X98146420Y-50865391D01*
X98146420Y-50865391D02*
X98194039Y-50770153D01*
X98194039Y-50770153D02*
X98241658Y-50722534D01*
X98241658Y-50722534D02*
X98336896Y-50674915D01*
X98336896Y-50674915D02*
X98527372Y-50627296D01*
X98527372Y-50627296D02*
X98765467Y-50627296D01*
X98765467Y-50627296D02*
X98955943Y-50674915D01*
X98955943Y-50674915D02*
X99051181Y-50722534D01*
X99051181Y-50722534D02*
X99098801Y-50770153D01*
X99098801Y-50770153D02*
X99146420Y-50865391D01*
X99146420Y-50865391D02*
X99146420Y-50960629D01*
X99146420Y-50960629D02*
X99098801Y-51055867D01*
X99098801Y-51055867D02*
X99051181Y-51103486D01*
X99051181Y-51103486D02*
X98955943Y-51151105D01*
X98955943Y-51151105D02*
X98765467Y-51198724D01*
X98765467Y-51198724D02*
X98527372Y-51198724D01*
X98527372Y-51198724D02*
X98336896Y-51151105D01*
X98336896Y-51151105D02*
X98241658Y-51103486D01*
X98241658Y-51103486D02*
X98194039Y-51055867D01*
X98194039Y-51055867D02*
X98146420Y-50960629D01*
D12*
X142207571Y-49878885D02*
X141607571Y-49878885D01*
X141607571Y-49878885D02*
X141607571Y-49736028D01*
X141607571Y-49736028D02*
X141636142Y-49650314D01*
X141636142Y-49650314D02*
X141693285Y-49593171D01*
X141693285Y-49593171D02*
X141750428Y-49564600D01*
X141750428Y-49564600D02*
X141864714Y-49536028D01*
X141864714Y-49536028D02*
X141950428Y-49536028D01*
X141950428Y-49536028D02*
X142064714Y-49564600D01*
X142064714Y-49564600D02*
X142121857Y-49593171D01*
X142121857Y-49593171D02*
X142179000Y-49650314D01*
X142179000Y-49650314D02*
X142207571Y-49736028D01*
X142207571Y-49736028D02*
X142207571Y-49878885D01*
X141607571Y-49336028D02*
X141607571Y-48936028D01*
X141607571Y-48936028D02*
X142207571Y-49336028D01*
X142207571Y-49336028D02*
X142207571Y-48936028D01*
X142207571Y-48393171D02*
X142207571Y-48736028D01*
X142207571Y-48564599D02*
X141607571Y-48564599D01*
X141607571Y-48564599D02*
X141693285Y-48621742D01*
X141693285Y-48621742D02*
X141750428Y-48678885D01*
X141750428Y-48678885D02*
X141779000Y-48736028D01*
X141807571Y-47878885D02*
X142207571Y-47878885D01*
X141579000Y-48021742D02*
X142007571Y-48164599D01*
X142007571Y-48164599D02*
X142007571Y-47793170D01*
D13*
X164163857Y-108731738D02*
X165306714Y-108731738D01*
X164735285Y-110731738D02*
X164735285Y-108731738D01*
X167116238Y-110541261D02*
X167021000Y-110636500D01*
X167021000Y-110636500D02*
X166735286Y-110731738D01*
X166735286Y-110731738D02*
X166544810Y-110731738D01*
X166544810Y-110731738D02*
X166259095Y-110636500D01*
X166259095Y-110636500D02*
X166068619Y-110446023D01*
X166068619Y-110446023D02*
X165973381Y-110255547D01*
X165973381Y-110255547D02*
X165878143Y-109874595D01*
X165878143Y-109874595D02*
X165878143Y-109588880D01*
X165878143Y-109588880D02*
X165973381Y-109207928D01*
X165973381Y-109207928D02*
X166068619Y-109017452D01*
X166068619Y-109017452D02*
X166259095Y-108826976D01*
X166259095Y-108826976D02*
X166544810Y-108731738D01*
X166544810Y-108731738D02*
X166735286Y-108731738D01*
X166735286Y-108731738D02*
X167021000Y-108826976D01*
X167021000Y-108826976D02*
X167116238Y-108922214D01*
X167973381Y-109969833D02*
X169497191Y-109969833D01*
X170449571Y-110731738D02*
X170449571Y-108731738D01*
X170449571Y-108731738D02*
X171592428Y-110731738D01*
X171592428Y-110731738D02*
X171592428Y-108731738D01*
D10*
X48529020Y-69708867D02*
X48052829Y-70042200D01*
X48529020Y-70280295D02*
X47529020Y-70280295D01*
X47529020Y-70280295D02*
X47529020Y-69899343D01*
X47529020Y-69899343D02*
X47576639Y-69804105D01*
X47576639Y-69804105D02*
X47624258Y-69756486D01*
X47624258Y-69756486D02*
X47719496Y-69708867D01*
X47719496Y-69708867D02*
X47862353Y-69708867D01*
X47862353Y-69708867D02*
X47957591Y-69756486D01*
X47957591Y-69756486D02*
X48005210Y-69804105D01*
X48005210Y-69804105D02*
X48052829Y-69899343D01*
X48052829Y-69899343D02*
X48052829Y-70280295D01*
X47624258Y-69327914D02*
X47576639Y-69280295D01*
X47576639Y-69280295D02*
X47529020Y-69185057D01*
X47529020Y-69185057D02*
X47529020Y-68946962D01*
X47529020Y-68946962D02*
X47576639Y-68851724D01*
X47576639Y-68851724D02*
X47624258Y-68804105D01*
X47624258Y-68804105D02*
X47719496Y-68756486D01*
X47719496Y-68756486D02*
X47814734Y-68756486D01*
X47814734Y-68756486D02*
X47957591Y-68804105D01*
X47957591Y-68804105D02*
X48529020Y-69375533D01*
X48529020Y-69375533D02*
X48529020Y-68756486D01*
D12*
X173144771Y-49878885D02*
X172544771Y-49878885D01*
X172544771Y-49878885D02*
X172544771Y-49736028D01*
X172544771Y-49736028D02*
X172573342Y-49650314D01*
X172573342Y-49650314D02*
X172630485Y-49593171D01*
X172630485Y-49593171D02*
X172687628Y-49564600D01*
X172687628Y-49564600D02*
X172801914Y-49536028D01*
X172801914Y-49536028D02*
X172887628Y-49536028D01*
X172887628Y-49536028D02*
X173001914Y-49564600D01*
X173001914Y-49564600D02*
X173059057Y-49593171D01*
X173059057Y-49593171D02*
X173116200Y-49650314D01*
X173116200Y-49650314D02*
X173144771Y-49736028D01*
X173144771Y-49736028D02*
X173144771Y-49878885D01*
X172544771Y-49336028D02*
X172544771Y-48936028D01*
X172544771Y-48936028D02*
X173144771Y-49336028D01*
X173144771Y-49336028D02*
X173144771Y-48936028D01*
X172601914Y-48736028D02*
X172573342Y-48707456D01*
X172573342Y-48707456D02*
X172544771Y-48650314D01*
X172544771Y-48650314D02*
X172544771Y-48507456D01*
X172544771Y-48507456D02*
X172573342Y-48450314D01*
X172573342Y-48450314D02*
X172601914Y-48421742D01*
X172601914Y-48421742D02*
X172659057Y-48393171D01*
X172659057Y-48393171D02*
X172716200Y-48393171D01*
X172716200Y-48393171D02*
X172801914Y-48421742D01*
X172801914Y-48421742D02*
X173144771Y-48764599D01*
X173144771Y-48764599D02*
X173144771Y-48393171D01*
X172801914Y-48050313D02*
X172773342Y-48107456D01*
X172773342Y-48107456D02*
X172744771Y-48136027D01*
X172744771Y-48136027D02*
X172687628Y-48164599D01*
X172687628Y-48164599D02*
X172659057Y-48164599D01*
X172659057Y-48164599D02*
X172601914Y-48136027D01*
X172601914Y-48136027D02*
X172573342Y-48107456D01*
X172573342Y-48107456D02*
X172544771Y-48050313D01*
X172544771Y-48050313D02*
X172544771Y-47936027D01*
X172544771Y-47936027D02*
X172573342Y-47878885D01*
X172573342Y-47878885D02*
X172601914Y-47850313D01*
X172601914Y-47850313D02*
X172659057Y-47821742D01*
X172659057Y-47821742D02*
X172687628Y-47821742D01*
X172687628Y-47821742D02*
X172744771Y-47850313D01*
X172744771Y-47850313D02*
X172773342Y-47878885D01*
X172773342Y-47878885D02*
X172801914Y-47936027D01*
X172801914Y-47936027D02*
X172801914Y-48050313D01*
X172801914Y-48050313D02*
X172830485Y-48107456D01*
X172830485Y-48107456D02*
X172859057Y-48136027D01*
X172859057Y-48136027D02*
X172916200Y-48164599D01*
X172916200Y-48164599D02*
X173030485Y-48164599D01*
X173030485Y-48164599D02*
X173087628Y-48136027D01*
X173087628Y-48136027D02*
X173116200Y-48107456D01*
X173116200Y-48107456D02*
X173144771Y-48050313D01*
X173144771Y-48050313D02*
X173144771Y-47936027D01*
X173144771Y-47936027D02*
X173116200Y-47878885D01*
X173116200Y-47878885D02*
X173087628Y-47850313D01*
X173087628Y-47850313D02*
X173030485Y-47821742D01*
X173030485Y-47821742D02*
X172916200Y-47821742D01*
X172916200Y-47821742D02*
X172859057Y-47850313D01*
X172859057Y-47850313D02*
X172830485Y-47878885D01*
X172830485Y-47878885D02*
X172801914Y-47936027D01*
D10*
X79522143Y-43152220D02*
X79188810Y-42676029D01*
X78950715Y-43152220D02*
X78950715Y-42152220D01*
X78950715Y-42152220D02*
X79331667Y-42152220D01*
X79331667Y-42152220D02*
X79426905Y-42199839D01*
X79426905Y-42199839D02*
X79474524Y-42247458D01*
X79474524Y-42247458D02*
X79522143Y-42342696D01*
X79522143Y-42342696D02*
X79522143Y-42485553D01*
X79522143Y-42485553D02*
X79474524Y-42580791D01*
X79474524Y-42580791D02*
X79426905Y-42628410D01*
X79426905Y-42628410D02*
X79331667Y-42676029D01*
X79331667Y-42676029D02*
X78950715Y-42676029D01*
X80474524Y-43152220D02*
X79903096Y-43152220D01*
X80188810Y-43152220D02*
X80188810Y-42152220D01*
X80188810Y-42152220D02*
X80093572Y-42295077D01*
X80093572Y-42295077D02*
X79998334Y-42390315D01*
X79998334Y-42390315D02*
X79903096Y-42437934D01*
X81331667Y-42485553D02*
X81331667Y-43152220D01*
X81093572Y-42104601D02*
X80855477Y-42818886D01*
X80855477Y-42818886D02*
X81474524Y-42818886D01*
X138686819Y-67627657D02*
X138210628Y-67960990D01*
X138686819Y-68199085D02*
X137686819Y-68199085D01*
X137686819Y-68199085D02*
X137686819Y-67818133D01*
X137686819Y-67818133D02*
X137734438Y-67722895D01*
X137734438Y-67722895D02*
X137782057Y-67675276D01*
X137782057Y-67675276D02*
X137877295Y-67627657D01*
X137877295Y-67627657D02*
X138020152Y-67627657D01*
X138020152Y-67627657D02*
X138115390Y-67675276D01*
X138115390Y-67675276D02*
X138163009Y-67722895D01*
X138163009Y-67722895D02*
X138210628Y-67818133D01*
X138210628Y-67818133D02*
X138210628Y-68199085D01*
X138686819Y-66675276D02*
X138686819Y-67246704D01*
X138686819Y-66960990D02*
X137686819Y-66960990D01*
X137686819Y-66960990D02*
X137829676Y-67056228D01*
X137829676Y-67056228D02*
X137924914Y-67151466D01*
X137924914Y-67151466D02*
X137972533Y-67246704D01*
X138686819Y-66199085D02*
X138686819Y-66008609D01*
X138686819Y-66008609D02*
X138639200Y-65913371D01*
X138639200Y-65913371D02*
X138591580Y-65865752D01*
X138591580Y-65865752D02*
X138448723Y-65770514D01*
X138448723Y-65770514D02*
X138258247Y-65722895D01*
X138258247Y-65722895D02*
X137877295Y-65722895D01*
X137877295Y-65722895D02*
X137782057Y-65770514D01*
X137782057Y-65770514D02*
X137734438Y-65818133D01*
X137734438Y-65818133D02*
X137686819Y-65913371D01*
X137686819Y-65913371D02*
X137686819Y-66103847D01*
X137686819Y-66103847D02*
X137734438Y-66199085D01*
X137734438Y-66199085D02*
X137782057Y-66246704D01*
X137782057Y-66246704D02*
X137877295Y-66294323D01*
X137877295Y-66294323D02*
X138115390Y-66294323D01*
X138115390Y-66294323D02*
X138210628Y-66246704D01*
X138210628Y-66246704D02*
X138258247Y-66199085D01*
X138258247Y-66199085D02*
X138305866Y-66103847D01*
X138305866Y-66103847D02*
X138305866Y-65913371D01*
X138305866Y-65913371D02*
X138258247Y-65818133D01*
X138258247Y-65818133D02*
X138210628Y-65770514D01*
X138210628Y-65770514D02*
X138115390Y-65722895D01*
D12*
X140048571Y-50437685D02*
X139448571Y-50437685D01*
X139448571Y-50437685D02*
X139448571Y-50294828D01*
X139448571Y-50294828D02*
X139477142Y-50209114D01*
X139477142Y-50209114D02*
X139534285Y-50151971D01*
X139534285Y-50151971D02*
X139591428Y-50123400D01*
X139591428Y-50123400D02*
X139705714Y-50094828D01*
X139705714Y-50094828D02*
X139791428Y-50094828D01*
X139791428Y-50094828D02*
X139905714Y-50123400D01*
X139905714Y-50123400D02*
X139962857Y-50151971D01*
X139962857Y-50151971D02*
X140020000Y-50209114D01*
X140020000Y-50209114D02*
X140048571Y-50294828D01*
X140048571Y-50294828D02*
X140048571Y-50437685D01*
X139448571Y-49894828D02*
X139448571Y-49494828D01*
X139448571Y-49494828D02*
X140048571Y-49894828D01*
X140048571Y-49894828D02*
X140048571Y-49494828D01*
X140048571Y-48951971D02*
X140048571Y-49294828D01*
X140048571Y-49123399D02*
X139448571Y-49123399D01*
X139448571Y-49123399D02*
X139534285Y-49180542D01*
X139534285Y-49180542D02*
X139591428Y-49237685D01*
X139591428Y-49237685D02*
X139620000Y-49294828D01*
X139448571Y-48751970D02*
X139448571Y-48380542D01*
X139448571Y-48380542D02*
X139677142Y-48580542D01*
X139677142Y-48580542D02*
X139677142Y-48494827D01*
X139677142Y-48494827D02*
X139705714Y-48437685D01*
X139705714Y-48437685D02*
X139734285Y-48409113D01*
X139734285Y-48409113D02*
X139791428Y-48380542D01*
X139791428Y-48380542D02*
X139934285Y-48380542D01*
X139934285Y-48380542D02*
X139991428Y-48409113D01*
X139991428Y-48409113D02*
X140020000Y-48437685D01*
X140020000Y-48437685D02*
X140048571Y-48494827D01*
X140048571Y-48494827D02*
X140048571Y-48666256D01*
X140048571Y-48666256D02*
X140020000Y-48723399D01*
X140020000Y-48723399D02*
X139991428Y-48751970D01*
D14*
X54791382Y-68710677D02*
X57077096Y-68710677D01*
X55934239Y-72710677D02*
X55934239Y-68710677D01*
X58410429Y-72710677D02*
X58410429Y-68710677D01*
X58410429Y-68710677D02*
X59934239Y-68710677D01*
X59934239Y-68710677D02*
X60315191Y-68901153D01*
X60315191Y-68901153D02*
X60505668Y-69091629D01*
X60505668Y-69091629D02*
X60696144Y-69472581D01*
X60696144Y-69472581D02*
X60696144Y-70044010D01*
X60696144Y-70044010D02*
X60505668Y-70424962D01*
X60505668Y-70424962D02*
X60315191Y-70615439D01*
X60315191Y-70615439D02*
X59934239Y-70805915D01*
X59934239Y-70805915D02*
X58410429Y-70805915D01*
X62219953Y-69091629D02*
X62410429Y-68901153D01*
X62410429Y-68901153D02*
X62791382Y-68710677D01*
X62791382Y-68710677D02*
X63743763Y-68710677D01*
X63743763Y-68710677D02*
X64124715Y-68901153D01*
X64124715Y-68901153D02*
X64315191Y-69091629D01*
X64315191Y-69091629D02*
X64505668Y-69472581D01*
X64505668Y-69472581D02*
X64505668Y-69853534D01*
X64505668Y-69853534D02*
X64315191Y-70424962D01*
X64315191Y-70424962D02*
X62029477Y-72710677D01*
X62029477Y-72710677D02*
X64505668Y-72710677D01*
D13*
X133874333Y-108731738D02*
X135017190Y-108731738D01*
X134445761Y-110731738D02*
X134445761Y-108731738D01*
X136826714Y-110541261D02*
X136731476Y-110636500D01*
X136731476Y-110636500D02*
X136445762Y-110731738D01*
X136445762Y-110731738D02*
X136255286Y-110731738D01*
X136255286Y-110731738D02*
X135969571Y-110636500D01*
X135969571Y-110636500D02*
X135779095Y-110446023D01*
X135779095Y-110446023D02*
X135683857Y-110255547D01*
X135683857Y-110255547D02*
X135588619Y-109874595D01*
X135588619Y-109874595D02*
X135588619Y-109588880D01*
X135588619Y-109588880D02*
X135683857Y-109207928D01*
X135683857Y-109207928D02*
X135779095Y-109017452D01*
X135779095Y-109017452D02*
X135969571Y-108826976D01*
X135969571Y-108826976D02*
X136255286Y-108731738D01*
X136255286Y-108731738D02*
X136445762Y-108731738D01*
X136445762Y-108731738D02*
X136731476Y-108826976D01*
X136731476Y-108826976D02*
X136826714Y-108922214D01*
X137683857Y-109969833D02*
X139207667Y-109969833D01*
X140064809Y-110160309D02*
X141017190Y-110160309D01*
X139874333Y-110731738D02*
X140540999Y-108731738D01*
X140540999Y-108731738D02*
X141207666Y-110731738D01*
D10*
X75613420Y-87488867D02*
X75137229Y-87822200D01*
X75613420Y-88060295D02*
X74613420Y-88060295D01*
X74613420Y-88060295D02*
X74613420Y-87679343D01*
X74613420Y-87679343D02*
X74661039Y-87584105D01*
X74661039Y-87584105D02*
X74708658Y-87536486D01*
X74708658Y-87536486D02*
X74803896Y-87488867D01*
X74803896Y-87488867D02*
X74946753Y-87488867D01*
X74946753Y-87488867D02*
X75041991Y-87536486D01*
X75041991Y-87536486D02*
X75089610Y-87584105D01*
X75089610Y-87584105D02*
X75137229Y-87679343D01*
X75137229Y-87679343D02*
X75137229Y-88060295D01*
X75613420Y-87012676D02*
X75613420Y-86822200D01*
X75613420Y-86822200D02*
X75565801Y-86726962D01*
X75565801Y-86726962D02*
X75518181Y-86679343D01*
X75518181Y-86679343D02*
X75375324Y-86584105D01*
X75375324Y-86584105D02*
X75184848Y-86536486D01*
X75184848Y-86536486D02*
X74803896Y-86536486D01*
X74803896Y-86536486D02*
X74708658Y-86584105D01*
X74708658Y-86584105D02*
X74661039Y-86631724D01*
X74661039Y-86631724D02*
X74613420Y-86726962D01*
X74613420Y-86726962D02*
X74613420Y-86917438D01*
X74613420Y-86917438D02*
X74661039Y-87012676D01*
X74661039Y-87012676D02*
X74708658Y-87060295D01*
X74708658Y-87060295D02*
X74803896Y-87107914D01*
X74803896Y-87107914D02*
X75041991Y-87107914D01*
X75041991Y-87107914D02*
X75137229Y-87060295D01*
X75137229Y-87060295D02*
X75184848Y-87012676D01*
X75184848Y-87012676D02*
X75232467Y-86917438D01*
X75232467Y-86917438D02*
X75232467Y-86726962D01*
X75232467Y-86726962D02*
X75184848Y-86631724D01*
X75184848Y-86631724D02*
X75137229Y-86584105D01*
X75137229Y-86584105D02*
X75041991Y-86536486D01*
X179420742Y-106042619D02*
X179087409Y-105566428D01*
X178849314Y-106042619D02*
X178849314Y-105042619D01*
X178849314Y-105042619D02*
X179230266Y-105042619D01*
X179230266Y-105042619D02*
X179325504Y-105090238D01*
X179325504Y-105090238D02*
X179373123Y-105137857D01*
X179373123Y-105137857D02*
X179420742Y-105233095D01*
X179420742Y-105233095D02*
X179420742Y-105375952D01*
X179420742Y-105375952D02*
X179373123Y-105471190D01*
X179373123Y-105471190D02*
X179325504Y-105518809D01*
X179325504Y-105518809D02*
X179230266Y-105566428D01*
X179230266Y-105566428D02*
X178849314Y-105566428D01*
X179801695Y-105137857D02*
X179849314Y-105090238D01*
X179849314Y-105090238D02*
X179944552Y-105042619D01*
X179944552Y-105042619D02*
X180182647Y-105042619D01*
X180182647Y-105042619D02*
X180277885Y-105090238D01*
X180277885Y-105090238D02*
X180325504Y-105137857D01*
X180325504Y-105137857D02*
X180373123Y-105233095D01*
X180373123Y-105233095D02*
X180373123Y-105328333D01*
X180373123Y-105328333D02*
X180325504Y-105471190D01*
X180325504Y-105471190D02*
X179754076Y-106042619D01*
X179754076Y-106042619D02*
X180373123Y-106042619D01*
X181230266Y-105375952D02*
X181230266Y-106042619D01*
X180992171Y-104995000D02*
X180754076Y-105709285D01*
X180754076Y-105709285D02*
X181373123Y-105709285D01*
X75613420Y-69708867D02*
X75137229Y-70042200D01*
X75613420Y-70280295D02*
X74613420Y-70280295D01*
X74613420Y-70280295D02*
X74613420Y-69899343D01*
X74613420Y-69899343D02*
X74661039Y-69804105D01*
X74661039Y-69804105D02*
X74708658Y-69756486D01*
X74708658Y-69756486D02*
X74803896Y-69708867D01*
X74803896Y-69708867D02*
X74946753Y-69708867D01*
X74946753Y-69708867D02*
X75041991Y-69756486D01*
X75041991Y-69756486D02*
X75089610Y-69804105D01*
X75089610Y-69804105D02*
X75137229Y-69899343D01*
X75137229Y-69899343D02*
X75137229Y-70280295D01*
X75041991Y-69137438D02*
X74994372Y-69232676D01*
X74994372Y-69232676D02*
X74946753Y-69280295D01*
X74946753Y-69280295D02*
X74851515Y-69327914D01*
X74851515Y-69327914D02*
X74803896Y-69327914D01*
X74803896Y-69327914D02*
X74708658Y-69280295D01*
X74708658Y-69280295D02*
X74661039Y-69232676D01*
X74661039Y-69232676D02*
X74613420Y-69137438D01*
X74613420Y-69137438D02*
X74613420Y-68946962D01*
X74613420Y-68946962D02*
X74661039Y-68851724D01*
X74661039Y-68851724D02*
X74708658Y-68804105D01*
X74708658Y-68804105D02*
X74803896Y-68756486D01*
X74803896Y-68756486D02*
X74851515Y-68756486D01*
X74851515Y-68756486D02*
X74946753Y-68804105D01*
X74946753Y-68804105D02*
X74994372Y-68851724D01*
X74994372Y-68851724D02*
X75041991Y-68946962D01*
X75041991Y-68946962D02*
X75041991Y-69137438D01*
X75041991Y-69137438D02*
X75089610Y-69232676D01*
X75089610Y-69232676D02*
X75137229Y-69280295D01*
X75137229Y-69280295D02*
X75232467Y-69327914D01*
X75232467Y-69327914D02*
X75422943Y-69327914D01*
X75422943Y-69327914D02*
X75518181Y-69280295D01*
X75518181Y-69280295D02*
X75565801Y-69232676D01*
X75565801Y-69232676D02*
X75613420Y-69137438D01*
X75613420Y-69137438D02*
X75613420Y-68946962D01*
X75613420Y-68946962D02*
X75565801Y-68851724D01*
X75565801Y-68851724D02*
X75518181Y-68804105D01*
X75518181Y-68804105D02*
X75422943Y-68756486D01*
X75422943Y-68756486D02*
X75232467Y-68756486D01*
X75232467Y-68756486D02*
X75137229Y-68804105D01*
X75137229Y-68804105D02*
X75089610Y-68851724D01*
X75089610Y-68851724D02*
X75041991Y-68946962D01*
X99146420Y-87965058D02*
X98670229Y-88298391D01*
X99146420Y-88536486D02*
X98146420Y-88536486D01*
X98146420Y-88536486D02*
X98146420Y-88155534D01*
X98146420Y-88155534D02*
X98194039Y-88060296D01*
X98194039Y-88060296D02*
X98241658Y-88012677D01*
X98241658Y-88012677D02*
X98336896Y-87965058D01*
X98336896Y-87965058D02*
X98479753Y-87965058D01*
X98479753Y-87965058D02*
X98574991Y-88012677D01*
X98574991Y-88012677D02*
X98622610Y-88060296D01*
X98622610Y-88060296D02*
X98670229Y-88155534D01*
X98670229Y-88155534D02*
X98670229Y-88536486D01*
X99146420Y-87012677D02*
X99146420Y-87584105D01*
X99146420Y-87298391D02*
X98146420Y-87298391D01*
X98146420Y-87298391D02*
X98289277Y-87393629D01*
X98289277Y-87393629D02*
X98384515Y-87488867D01*
X98384515Y-87488867D02*
X98432134Y-87584105D01*
X98241658Y-86631724D02*
X98194039Y-86584105D01*
X98194039Y-86584105D02*
X98146420Y-86488867D01*
X98146420Y-86488867D02*
X98146420Y-86250772D01*
X98146420Y-86250772D02*
X98194039Y-86155534D01*
X98194039Y-86155534D02*
X98241658Y-86107915D01*
X98241658Y-86107915D02*
X98336896Y-86060296D01*
X98336896Y-86060296D02*
X98432134Y-86060296D01*
X98432134Y-86060296D02*
X98574991Y-86107915D01*
X98574991Y-86107915D02*
X99146420Y-86679343D01*
X99146420Y-86679343D02*
X99146420Y-86060296D01*
D12*
X168725171Y-49878885D02*
X168125171Y-49878885D01*
X168125171Y-49878885D02*
X168125171Y-49736028D01*
X168125171Y-49736028D02*
X168153742Y-49650314D01*
X168153742Y-49650314D02*
X168210885Y-49593171D01*
X168210885Y-49593171D02*
X168268028Y-49564600D01*
X168268028Y-49564600D02*
X168382314Y-49536028D01*
X168382314Y-49536028D02*
X168468028Y-49536028D01*
X168468028Y-49536028D02*
X168582314Y-49564600D01*
X168582314Y-49564600D02*
X168639457Y-49593171D01*
X168639457Y-49593171D02*
X168696600Y-49650314D01*
X168696600Y-49650314D02*
X168725171Y-49736028D01*
X168725171Y-49736028D02*
X168725171Y-49878885D01*
X168125171Y-49336028D02*
X168125171Y-48936028D01*
X168125171Y-48936028D02*
X168725171Y-49336028D01*
X168725171Y-49336028D02*
X168725171Y-48936028D01*
X168182314Y-48736028D02*
X168153742Y-48707456D01*
X168153742Y-48707456D02*
X168125171Y-48650314D01*
X168125171Y-48650314D02*
X168125171Y-48507456D01*
X168125171Y-48507456D02*
X168153742Y-48450314D01*
X168153742Y-48450314D02*
X168182314Y-48421742D01*
X168182314Y-48421742D02*
X168239457Y-48393171D01*
X168239457Y-48393171D02*
X168296600Y-48393171D01*
X168296600Y-48393171D02*
X168382314Y-48421742D01*
X168382314Y-48421742D02*
X168725171Y-48764599D01*
X168725171Y-48764599D02*
X168725171Y-48393171D01*
X168125171Y-47878885D02*
X168125171Y-47993170D01*
X168125171Y-47993170D02*
X168153742Y-48050313D01*
X168153742Y-48050313D02*
X168182314Y-48078885D01*
X168182314Y-48078885D02*
X168268028Y-48136027D01*
X168268028Y-48136027D02*
X168382314Y-48164599D01*
X168382314Y-48164599D02*
X168610885Y-48164599D01*
X168610885Y-48164599D02*
X168668028Y-48136027D01*
X168668028Y-48136027D02*
X168696600Y-48107456D01*
X168696600Y-48107456D02*
X168725171Y-48050313D01*
X168725171Y-48050313D02*
X168725171Y-47936027D01*
X168725171Y-47936027D02*
X168696600Y-47878885D01*
X168696600Y-47878885D02*
X168668028Y-47850313D01*
X168668028Y-47850313D02*
X168610885Y-47821742D01*
X168610885Y-47821742D02*
X168468028Y-47821742D01*
X168468028Y-47821742D02*
X168410885Y-47850313D01*
X168410885Y-47850313D02*
X168382314Y-47878885D01*
X168382314Y-47878885D02*
X168353742Y-47936027D01*
X168353742Y-47936027D02*
X168353742Y-48050313D01*
X168353742Y-48050313D02*
X168382314Y-48107456D01*
X168382314Y-48107456D02*
X168410885Y-48136027D01*
X168410885Y-48136027D02*
X168468028Y-48164599D01*
X94607972Y-105576086D02*
X94007972Y-105576086D01*
X94007972Y-105576086D02*
X94007972Y-105433229D01*
X94007972Y-105433229D02*
X94036543Y-105347515D01*
X94036543Y-105347515D02*
X94093686Y-105290372D01*
X94093686Y-105290372D02*
X94150829Y-105261801D01*
X94150829Y-105261801D02*
X94265115Y-105233229D01*
X94265115Y-105233229D02*
X94350829Y-105233229D01*
X94350829Y-105233229D02*
X94465115Y-105261801D01*
X94465115Y-105261801D02*
X94522258Y-105290372D01*
X94522258Y-105290372D02*
X94579401Y-105347515D01*
X94579401Y-105347515D02*
X94607972Y-105433229D01*
X94607972Y-105433229D02*
X94607972Y-105576086D01*
X94007972Y-105033229D02*
X94007972Y-104633229D01*
X94007972Y-104633229D02*
X94607972Y-105033229D01*
X94607972Y-105033229D02*
X94607972Y-104633229D01*
X94607972Y-104090372D02*
X94607972Y-104433229D01*
X94607972Y-104261800D02*
X94007972Y-104261800D01*
X94007972Y-104261800D02*
X94093686Y-104318943D01*
X94093686Y-104318943D02*
X94150829Y-104376086D01*
X94150829Y-104376086D02*
X94179401Y-104433229D01*
X94607972Y-103518943D02*
X94607972Y-103861800D01*
X94607972Y-103690371D02*
X94007972Y-103690371D01*
X94007972Y-103690371D02*
X94093686Y-103747514D01*
X94093686Y-103747514D02*
X94150829Y-103804657D01*
X94150829Y-103804657D02*
X94179401Y-103861800D01*
X164305571Y-49878885D02*
X163705571Y-49878885D01*
X163705571Y-49878885D02*
X163705571Y-49736028D01*
X163705571Y-49736028D02*
X163734142Y-49650314D01*
X163734142Y-49650314D02*
X163791285Y-49593171D01*
X163791285Y-49593171D02*
X163848428Y-49564600D01*
X163848428Y-49564600D02*
X163962714Y-49536028D01*
X163962714Y-49536028D02*
X164048428Y-49536028D01*
X164048428Y-49536028D02*
X164162714Y-49564600D01*
X164162714Y-49564600D02*
X164219857Y-49593171D01*
X164219857Y-49593171D02*
X164277000Y-49650314D01*
X164277000Y-49650314D02*
X164305571Y-49736028D01*
X164305571Y-49736028D02*
X164305571Y-49878885D01*
X163705571Y-49336028D02*
X163705571Y-48936028D01*
X163705571Y-48936028D02*
X164305571Y-49336028D01*
X164305571Y-49336028D02*
X164305571Y-48936028D01*
X163762714Y-48736028D02*
X163734142Y-48707456D01*
X163734142Y-48707456D02*
X163705571Y-48650314D01*
X163705571Y-48650314D02*
X163705571Y-48507456D01*
X163705571Y-48507456D02*
X163734142Y-48450314D01*
X163734142Y-48450314D02*
X163762714Y-48421742D01*
X163762714Y-48421742D02*
X163819857Y-48393171D01*
X163819857Y-48393171D02*
X163877000Y-48393171D01*
X163877000Y-48393171D02*
X163962714Y-48421742D01*
X163962714Y-48421742D02*
X164305571Y-48764599D01*
X164305571Y-48764599D02*
X164305571Y-48393171D01*
X163905571Y-47878885D02*
X164305571Y-47878885D01*
X163677000Y-48021742D02*
X164105571Y-48164599D01*
X164105571Y-48164599D02*
X164105571Y-47793170D01*
D10*
X65959543Y-43152220D02*
X65626210Y-42676029D01*
X65388115Y-43152220D02*
X65388115Y-42152220D01*
X65388115Y-42152220D02*
X65769067Y-42152220D01*
X65769067Y-42152220D02*
X65864305Y-42199839D01*
X65864305Y-42199839D02*
X65911924Y-42247458D01*
X65911924Y-42247458D02*
X65959543Y-42342696D01*
X65959543Y-42342696D02*
X65959543Y-42485553D01*
X65959543Y-42485553D02*
X65911924Y-42580791D01*
X65911924Y-42580791D02*
X65864305Y-42628410D01*
X65864305Y-42628410D02*
X65769067Y-42676029D01*
X65769067Y-42676029D02*
X65388115Y-42676029D01*
X66911924Y-43152220D02*
X66340496Y-43152220D01*
X66626210Y-43152220D02*
X66626210Y-42152220D01*
X66626210Y-42152220D02*
X66530972Y-42295077D01*
X66530972Y-42295077D02*
X66435734Y-42390315D01*
X66435734Y-42390315D02*
X66340496Y-42437934D01*
X67245258Y-42152220D02*
X67864305Y-42152220D01*
X67864305Y-42152220D02*
X67530972Y-42533172D01*
X67530972Y-42533172D02*
X67673829Y-42533172D01*
X67673829Y-42533172D02*
X67769067Y-42580791D01*
X67769067Y-42580791D02*
X67816686Y-42628410D01*
X67816686Y-42628410D02*
X67864305Y-42723648D01*
X67864305Y-42723648D02*
X67864305Y-42961743D01*
X67864305Y-42961743D02*
X67816686Y-43056981D01*
X67816686Y-43056981D02*
X67769067Y-43104601D01*
X67769067Y-43104601D02*
X67673829Y-43152220D01*
X67673829Y-43152220D02*
X67388115Y-43152220D01*
X67388115Y-43152220D02*
X67292877Y-43104601D01*
X67292877Y-43104601D02*
X67245258Y-43056981D01*
X99146420Y-70185058D02*
X98670229Y-70518391D01*
X99146420Y-70756486D02*
X98146420Y-70756486D01*
X98146420Y-70756486D02*
X98146420Y-70375534D01*
X98146420Y-70375534D02*
X98194039Y-70280296D01*
X98194039Y-70280296D02*
X98241658Y-70232677D01*
X98241658Y-70232677D02*
X98336896Y-70185058D01*
X98336896Y-70185058D02*
X98479753Y-70185058D01*
X98479753Y-70185058D02*
X98574991Y-70232677D01*
X98574991Y-70232677D02*
X98622610Y-70280296D01*
X98622610Y-70280296D02*
X98670229Y-70375534D01*
X98670229Y-70375534D02*
X98670229Y-70756486D01*
X99146420Y-69232677D02*
X99146420Y-69804105D01*
X99146420Y-69518391D02*
X98146420Y-69518391D01*
X98146420Y-69518391D02*
X98289277Y-69613629D01*
X98289277Y-69613629D02*
X98384515Y-69708867D01*
X98384515Y-69708867D02*
X98432134Y-69804105D01*
X99146420Y-68280296D02*
X99146420Y-68851724D01*
X99146420Y-68566010D02*
X98146420Y-68566010D01*
X98146420Y-68566010D02*
X98289277Y-68661248D01*
X98289277Y-68661248D02*
X98384515Y-68756486D01*
X98384515Y-68756486D02*
X98432134Y-68851724D01*
D12*
X144468171Y-50437685D02*
X143868171Y-50437685D01*
X143868171Y-50437685D02*
X143868171Y-50294828D01*
X143868171Y-50294828D02*
X143896742Y-50209114D01*
X143896742Y-50209114D02*
X143953885Y-50151971D01*
X143953885Y-50151971D02*
X144011028Y-50123400D01*
X144011028Y-50123400D02*
X144125314Y-50094828D01*
X144125314Y-50094828D02*
X144211028Y-50094828D01*
X144211028Y-50094828D02*
X144325314Y-50123400D01*
X144325314Y-50123400D02*
X144382457Y-50151971D01*
X144382457Y-50151971D02*
X144439600Y-50209114D01*
X144439600Y-50209114D02*
X144468171Y-50294828D01*
X144468171Y-50294828D02*
X144468171Y-50437685D01*
X143868171Y-49894828D02*
X143868171Y-49494828D01*
X143868171Y-49494828D02*
X144468171Y-49894828D01*
X144468171Y-49894828D02*
X144468171Y-49494828D01*
X144468171Y-48951971D02*
X144468171Y-49294828D01*
X144468171Y-49123399D02*
X143868171Y-49123399D01*
X143868171Y-49123399D02*
X143953885Y-49180542D01*
X143953885Y-49180542D02*
X144011028Y-49237685D01*
X144011028Y-49237685D02*
X144039600Y-49294828D01*
X143868171Y-48409113D02*
X143868171Y-48694827D01*
X143868171Y-48694827D02*
X144153885Y-48723399D01*
X144153885Y-48723399D02*
X144125314Y-48694827D01*
X144125314Y-48694827D02*
X144096742Y-48637685D01*
X144096742Y-48637685D02*
X144096742Y-48494827D01*
X144096742Y-48494827D02*
X144125314Y-48437685D01*
X144125314Y-48437685D02*
X144153885Y-48409113D01*
X144153885Y-48409113D02*
X144211028Y-48380542D01*
X144211028Y-48380542D02*
X144353885Y-48380542D01*
X144353885Y-48380542D02*
X144411028Y-48409113D01*
X144411028Y-48409113D02*
X144439600Y-48437685D01*
X144439600Y-48437685D02*
X144468171Y-48494827D01*
X144468171Y-48494827D02*
X144468171Y-48637685D01*
X144468171Y-48637685D02*
X144439600Y-48694827D01*
X144439600Y-48694827D02*
X144411028Y-48723399D01*
X153307371Y-50437685D02*
X152707371Y-50437685D01*
X152707371Y-50437685D02*
X152707371Y-50294828D01*
X152707371Y-50294828D02*
X152735942Y-50209114D01*
X152735942Y-50209114D02*
X152793085Y-50151971D01*
X152793085Y-50151971D02*
X152850228Y-50123400D01*
X152850228Y-50123400D02*
X152964514Y-50094828D01*
X152964514Y-50094828D02*
X153050228Y-50094828D01*
X153050228Y-50094828D02*
X153164514Y-50123400D01*
X153164514Y-50123400D02*
X153221657Y-50151971D01*
X153221657Y-50151971D02*
X153278800Y-50209114D01*
X153278800Y-50209114D02*
X153307371Y-50294828D01*
X153307371Y-50294828D02*
X153307371Y-50437685D01*
X152707371Y-49894828D02*
X152707371Y-49494828D01*
X152707371Y-49494828D02*
X153307371Y-49894828D01*
X153307371Y-49894828D02*
X153307371Y-49494828D01*
X153307371Y-48951971D02*
X153307371Y-49294828D01*
X153307371Y-49123399D02*
X152707371Y-49123399D01*
X152707371Y-49123399D02*
X152793085Y-49180542D01*
X152793085Y-49180542D02*
X152850228Y-49237685D01*
X152850228Y-49237685D02*
X152878800Y-49294828D01*
X153307371Y-48666256D02*
X153307371Y-48551970D01*
X153307371Y-48551970D02*
X153278800Y-48494827D01*
X153278800Y-48494827D02*
X153250228Y-48466256D01*
X153250228Y-48466256D02*
X153164514Y-48409113D01*
X153164514Y-48409113D02*
X153050228Y-48380542D01*
X153050228Y-48380542D02*
X152821657Y-48380542D01*
X152821657Y-48380542D02*
X152764514Y-48409113D01*
X152764514Y-48409113D02*
X152735942Y-48437685D01*
X152735942Y-48437685D02*
X152707371Y-48494827D01*
X152707371Y-48494827D02*
X152707371Y-48609113D01*
X152707371Y-48609113D02*
X152735942Y-48666256D01*
X152735942Y-48666256D02*
X152764514Y-48694827D01*
X152764514Y-48694827D02*
X152821657Y-48723399D01*
X152821657Y-48723399D02*
X152964514Y-48723399D01*
X152964514Y-48723399D02*
X153021657Y-48694827D01*
X153021657Y-48694827D02*
X153050228Y-48666256D01*
X153050228Y-48666256D02*
X153078800Y-48609113D01*
X153078800Y-48609113D02*
X153078800Y-48494827D01*
X153078800Y-48494827D02*
X153050228Y-48437685D01*
X153050228Y-48437685D02*
X153021657Y-48409113D01*
X153021657Y-48409113D02*
X152964514Y-48380542D01*
X83508172Y-104731572D02*
X82908172Y-104731572D01*
X82908172Y-104731572D02*
X82908172Y-104588715D01*
X82908172Y-104588715D02*
X82936743Y-104503001D01*
X82936743Y-104503001D02*
X82993886Y-104445858D01*
X82993886Y-104445858D02*
X83051029Y-104417287D01*
X83051029Y-104417287D02*
X83165315Y-104388715D01*
X83165315Y-104388715D02*
X83251029Y-104388715D01*
X83251029Y-104388715D02*
X83365315Y-104417287D01*
X83365315Y-104417287D02*
X83422458Y-104445858D01*
X83422458Y-104445858D02*
X83479601Y-104503001D01*
X83479601Y-104503001D02*
X83508172Y-104588715D01*
X83508172Y-104588715D02*
X83508172Y-104731572D01*
X82908172Y-104188715D02*
X82908172Y-103788715D01*
X82908172Y-103788715D02*
X83508172Y-104188715D01*
X83508172Y-104188715D02*
X83508172Y-103788715D01*
X82908172Y-103303001D02*
X82908172Y-103417286D01*
X82908172Y-103417286D02*
X82936743Y-103474429D01*
X82936743Y-103474429D02*
X82965315Y-103503001D01*
X82965315Y-103503001D02*
X83051029Y-103560143D01*
X83051029Y-103560143D02*
X83165315Y-103588715D01*
X83165315Y-103588715D02*
X83393886Y-103588715D01*
X83393886Y-103588715D02*
X83451029Y-103560143D01*
X83451029Y-103560143D02*
X83479601Y-103531572D01*
X83479601Y-103531572D02*
X83508172Y-103474429D01*
X83508172Y-103474429D02*
X83508172Y-103360143D01*
X83508172Y-103360143D02*
X83479601Y-103303001D01*
X83479601Y-103303001D02*
X83451029Y-103274429D01*
X83451029Y-103274429D02*
X83393886Y-103245858D01*
X83393886Y-103245858D02*
X83251029Y-103245858D01*
X83251029Y-103245858D02*
X83193886Y-103274429D01*
X83193886Y-103274429D02*
X83165315Y-103303001D01*
X83165315Y-103303001D02*
X83136743Y-103360143D01*
X83136743Y-103360143D02*
X83136743Y-103474429D01*
X83136743Y-103474429D02*
X83165315Y-103531572D01*
X83165315Y-103531572D02*
X83193886Y-103560143D01*
X83193886Y-103560143D02*
X83251029Y-103588715D01*
X162146571Y-50437685D02*
X161546571Y-50437685D01*
X161546571Y-50437685D02*
X161546571Y-50294828D01*
X161546571Y-50294828D02*
X161575142Y-50209114D01*
X161575142Y-50209114D02*
X161632285Y-50151971D01*
X161632285Y-50151971D02*
X161689428Y-50123400D01*
X161689428Y-50123400D02*
X161803714Y-50094828D01*
X161803714Y-50094828D02*
X161889428Y-50094828D01*
X161889428Y-50094828D02*
X162003714Y-50123400D01*
X162003714Y-50123400D02*
X162060857Y-50151971D01*
X162060857Y-50151971D02*
X162118000Y-50209114D01*
X162118000Y-50209114D02*
X162146571Y-50294828D01*
X162146571Y-50294828D02*
X162146571Y-50437685D01*
X161546571Y-49894828D02*
X161546571Y-49494828D01*
X161546571Y-49494828D02*
X162146571Y-49894828D01*
X162146571Y-49894828D02*
X162146571Y-49494828D01*
X161603714Y-49294828D02*
X161575142Y-49266256D01*
X161575142Y-49266256D02*
X161546571Y-49209114D01*
X161546571Y-49209114D02*
X161546571Y-49066256D01*
X161546571Y-49066256D02*
X161575142Y-49009114D01*
X161575142Y-49009114D02*
X161603714Y-48980542D01*
X161603714Y-48980542D02*
X161660857Y-48951971D01*
X161660857Y-48951971D02*
X161718000Y-48951971D01*
X161718000Y-48951971D02*
X161803714Y-48980542D01*
X161803714Y-48980542D02*
X162146571Y-49323399D01*
X162146571Y-49323399D02*
X162146571Y-48951971D01*
X161546571Y-48751970D02*
X161546571Y-48380542D01*
X161546571Y-48380542D02*
X161775142Y-48580542D01*
X161775142Y-48580542D02*
X161775142Y-48494827D01*
X161775142Y-48494827D02*
X161803714Y-48437685D01*
X161803714Y-48437685D02*
X161832285Y-48409113D01*
X161832285Y-48409113D02*
X161889428Y-48380542D01*
X161889428Y-48380542D02*
X162032285Y-48380542D01*
X162032285Y-48380542D02*
X162089428Y-48409113D01*
X162089428Y-48409113D02*
X162118000Y-48437685D01*
X162118000Y-48437685D02*
X162146571Y-48494827D01*
X162146571Y-48494827D02*
X162146571Y-48666256D01*
X162146571Y-48666256D02*
X162118000Y-48723399D01*
X162118000Y-48723399D02*
X162089428Y-48751970D01*
X159885971Y-49878885D02*
X159285971Y-49878885D01*
X159285971Y-49878885D02*
X159285971Y-49736028D01*
X159285971Y-49736028D02*
X159314542Y-49650314D01*
X159314542Y-49650314D02*
X159371685Y-49593171D01*
X159371685Y-49593171D02*
X159428828Y-49564600D01*
X159428828Y-49564600D02*
X159543114Y-49536028D01*
X159543114Y-49536028D02*
X159628828Y-49536028D01*
X159628828Y-49536028D02*
X159743114Y-49564600D01*
X159743114Y-49564600D02*
X159800257Y-49593171D01*
X159800257Y-49593171D02*
X159857400Y-49650314D01*
X159857400Y-49650314D02*
X159885971Y-49736028D01*
X159885971Y-49736028D02*
X159885971Y-49878885D01*
X159285971Y-49336028D02*
X159285971Y-48936028D01*
X159285971Y-48936028D02*
X159885971Y-49336028D01*
X159885971Y-49336028D02*
X159885971Y-48936028D01*
X159343114Y-48736028D02*
X159314542Y-48707456D01*
X159314542Y-48707456D02*
X159285971Y-48650314D01*
X159285971Y-48650314D02*
X159285971Y-48507456D01*
X159285971Y-48507456D02*
X159314542Y-48450314D01*
X159314542Y-48450314D02*
X159343114Y-48421742D01*
X159343114Y-48421742D02*
X159400257Y-48393171D01*
X159400257Y-48393171D02*
X159457400Y-48393171D01*
X159457400Y-48393171D02*
X159543114Y-48421742D01*
X159543114Y-48421742D02*
X159885971Y-48764599D01*
X159885971Y-48764599D02*
X159885971Y-48393171D01*
X159343114Y-48164599D02*
X159314542Y-48136027D01*
X159314542Y-48136027D02*
X159285971Y-48078885D01*
X159285971Y-48078885D02*
X159285971Y-47936027D01*
X159285971Y-47936027D02*
X159314542Y-47878885D01*
X159314542Y-47878885D02*
X159343114Y-47850313D01*
X159343114Y-47850313D02*
X159400257Y-47821742D01*
X159400257Y-47821742D02*
X159457400Y-47821742D01*
X159457400Y-47821742D02*
X159543114Y-47850313D01*
X159543114Y-47850313D02*
X159885971Y-48193170D01*
X159885971Y-48193170D02*
X159885971Y-47821742D01*
X76929572Y-105290372D02*
X76329572Y-105290372D01*
X76329572Y-105290372D02*
X76329572Y-105147515D01*
X76329572Y-105147515D02*
X76358143Y-105061801D01*
X76358143Y-105061801D02*
X76415286Y-105004658D01*
X76415286Y-105004658D02*
X76472429Y-104976087D01*
X76472429Y-104976087D02*
X76586715Y-104947515D01*
X76586715Y-104947515D02*
X76672429Y-104947515D01*
X76672429Y-104947515D02*
X76786715Y-104976087D01*
X76786715Y-104976087D02*
X76843858Y-105004658D01*
X76843858Y-105004658D02*
X76901001Y-105061801D01*
X76901001Y-105061801D02*
X76929572Y-105147515D01*
X76929572Y-105147515D02*
X76929572Y-105290372D01*
X76329572Y-104747515D02*
X76329572Y-104347515D01*
X76329572Y-104347515D02*
X76929572Y-104747515D01*
X76929572Y-104747515D02*
X76929572Y-104347515D01*
X76329572Y-104176086D02*
X76329572Y-103804658D01*
X76329572Y-103804658D02*
X76558143Y-104004658D01*
X76558143Y-104004658D02*
X76558143Y-103918943D01*
X76558143Y-103918943D02*
X76586715Y-103861801D01*
X76586715Y-103861801D02*
X76615286Y-103833229D01*
X76615286Y-103833229D02*
X76672429Y-103804658D01*
X76672429Y-103804658D02*
X76815286Y-103804658D01*
X76815286Y-103804658D02*
X76872429Y-103833229D01*
X76872429Y-103833229D02*
X76901001Y-103861801D01*
X76901001Y-103861801D02*
X76929572Y-103918943D01*
X76929572Y-103918943D02*
X76929572Y-104090372D01*
X76929572Y-104090372D02*
X76901001Y-104147515D01*
X76901001Y-104147515D02*
X76872429Y-104176086D01*
D13*
X61115818Y-110541261D02*
X61020580Y-110636500D01*
X61020580Y-110636500D02*
X60734866Y-110731738D01*
X60734866Y-110731738D02*
X60544390Y-110731738D01*
X60544390Y-110731738D02*
X60258675Y-110636500D01*
X60258675Y-110636500D02*
X60068199Y-110446023D01*
X60068199Y-110446023D02*
X59972961Y-110255547D01*
X59972961Y-110255547D02*
X59877723Y-109874595D01*
X59877723Y-109874595D02*
X59877723Y-109588880D01*
X59877723Y-109588880D02*
X59972961Y-109207928D01*
X59972961Y-109207928D02*
X60068199Y-109017452D01*
X60068199Y-109017452D02*
X60258675Y-108826976D01*
X60258675Y-108826976D02*
X60544390Y-108731738D01*
X60544390Y-108731738D02*
X60734866Y-108731738D01*
X60734866Y-108731738D02*
X61020580Y-108826976D01*
X61020580Y-108826976D02*
X61115818Y-108922214D01*
X65020581Y-110731738D02*
X65020581Y-108731738D01*
X65020581Y-108731738D02*
X66163438Y-110731738D01*
X66163438Y-110731738D02*
X66163438Y-108731738D01*
D10*
X48529020Y-87488867D02*
X48052829Y-87822200D01*
X48529020Y-88060295D02*
X47529020Y-88060295D01*
X47529020Y-88060295D02*
X47529020Y-87679343D01*
X47529020Y-87679343D02*
X47576639Y-87584105D01*
X47576639Y-87584105D02*
X47624258Y-87536486D01*
X47624258Y-87536486D02*
X47719496Y-87488867D01*
X47719496Y-87488867D02*
X47862353Y-87488867D01*
X47862353Y-87488867D02*
X47957591Y-87536486D01*
X47957591Y-87536486D02*
X48005210Y-87584105D01*
X48005210Y-87584105D02*
X48052829Y-87679343D01*
X48052829Y-87679343D02*
X48052829Y-88060295D01*
X47529020Y-87155533D02*
X47529020Y-86536486D01*
X47529020Y-86536486D02*
X47909972Y-86869819D01*
X47909972Y-86869819D02*
X47909972Y-86726962D01*
X47909972Y-86726962D02*
X47957591Y-86631724D01*
X47957591Y-86631724D02*
X48005210Y-86584105D01*
X48005210Y-86584105D02*
X48100448Y-86536486D01*
X48100448Y-86536486D02*
X48338543Y-86536486D01*
X48338543Y-86536486D02*
X48433781Y-86584105D01*
X48433781Y-86584105D02*
X48481401Y-86631724D01*
X48481401Y-86631724D02*
X48529020Y-86726962D01*
X48529020Y-86726962D02*
X48529020Y-87012676D01*
X48529020Y-87012676D02*
X48481401Y-87107914D01*
X48481401Y-87107914D02*
X48433781Y-87155533D01*
D13*
X143891476Y-108731738D02*
X145034333Y-108731738D01*
X144462904Y-110731738D02*
X144462904Y-108731738D01*
X146843857Y-110541261D02*
X146748619Y-110636500D01*
X146748619Y-110636500D02*
X146462905Y-110731738D01*
X146462905Y-110731738D02*
X146272429Y-110731738D01*
X146272429Y-110731738D02*
X145986714Y-110636500D01*
X145986714Y-110636500D02*
X145796238Y-110446023D01*
X145796238Y-110446023D02*
X145701000Y-110255547D01*
X145701000Y-110255547D02*
X145605762Y-109874595D01*
X145605762Y-109874595D02*
X145605762Y-109588880D01*
X145605762Y-109588880D02*
X145701000Y-109207928D01*
X145701000Y-109207928D02*
X145796238Y-109017452D01*
X145796238Y-109017452D02*
X145986714Y-108826976D01*
X145986714Y-108826976D02*
X146272429Y-108731738D01*
X146272429Y-108731738D02*
X146462905Y-108731738D01*
X146462905Y-108731738D02*
X146748619Y-108826976D01*
X146748619Y-108826976D02*
X146843857Y-108922214D01*
X147701000Y-109969833D02*
X149224810Y-109969833D01*
X150843857Y-109684119D02*
X151129571Y-109779357D01*
X151129571Y-109779357D02*
X151224809Y-109874595D01*
X151224809Y-109874595D02*
X151320047Y-110065071D01*
X151320047Y-110065071D02*
X151320047Y-110350785D01*
X151320047Y-110350785D02*
X151224809Y-110541261D01*
X151224809Y-110541261D02*
X151129571Y-110636500D01*
X151129571Y-110636500D02*
X150939095Y-110731738D01*
X150939095Y-110731738D02*
X150177190Y-110731738D01*
X150177190Y-110731738D02*
X150177190Y-108731738D01*
X150177190Y-108731738D02*
X150843857Y-108731738D01*
X150843857Y-108731738D02*
X151034333Y-108826976D01*
X151034333Y-108826976D02*
X151129571Y-108922214D01*
X151129571Y-108922214D02*
X151224809Y-109112690D01*
X151224809Y-109112690D02*
X151224809Y-109303166D01*
X151224809Y-109303166D02*
X151129571Y-109493642D01*
X151129571Y-109493642D02*
X151034333Y-109588880D01*
X151034333Y-109588880D02*
X150843857Y-109684119D01*
X150843857Y-109684119D02*
X150177190Y-109684119D01*
D12*
X90188372Y-105290372D02*
X89588372Y-105290372D01*
X89588372Y-105290372D02*
X89588372Y-105147515D01*
X89588372Y-105147515D02*
X89616943Y-105061801D01*
X89616943Y-105061801D02*
X89674086Y-105004658D01*
X89674086Y-105004658D02*
X89731229Y-104976087D01*
X89731229Y-104976087D02*
X89845515Y-104947515D01*
X89845515Y-104947515D02*
X89931229Y-104947515D01*
X89931229Y-104947515D02*
X90045515Y-104976087D01*
X90045515Y-104976087D02*
X90102658Y-105004658D01*
X90102658Y-105004658D02*
X90159801Y-105061801D01*
X90159801Y-105061801D02*
X90188372Y-105147515D01*
X90188372Y-105147515D02*
X90188372Y-105290372D01*
X89588372Y-104747515D02*
X89588372Y-104347515D01*
X89588372Y-104347515D02*
X90188372Y-104747515D01*
X90188372Y-104747515D02*
X90188372Y-104347515D01*
X90188372Y-104090372D02*
X90188372Y-103976086D01*
X90188372Y-103976086D02*
X90159801Y-103918943D01*
X90159801Y-103918943D02*
X90131229Y-103890372D01*
X90131229Y-103890372D02*
X90045515Y-103833229D01*
X90045515Y-103833229D02*
X89931229Y-103804658D01*
X89931229Y-103804658D02*
X89702658Y-103804658D01*
X89702658Y-103804658D02*
X89645515Y-103833229D01*
X89645515Y-103833229D02*
X89616943Y-103861801D01*
X89616943Y-103861801D02*
X89588372Y-103918943D01*
X89588372Y-103918943D02*
X89588372Y-104033229D01*
X89588372Y-104033229D02*
X89616943Y-104090372D01*
X89616943Y-104090372D02*
X89645515Y-104118943D01*
X89645515Y-104118943D02*
X89702658Y-104147515D01*
X89702658Y-104147515D02*
X89845515Y-104147515D01*
X89845515Y-104147515D02*
X89902658Y-104118943D01*
X89902658Y-104118943D02*
X89931229Y-104090372D01*
X89931229Y-104090372D02*
X89959801Y-104033229D01*
X89959801Y-104033229D02*
X89959801Y-103918943D01*
X89959801Y-103918943D02*
X89931229Y-103861801D01*
X89931229Y-103861801D02*
X89902658Y-103833229D01*
X89902658Y-103833229D02*
X89845515Y-103804658D01*
D10*
X112371712Y-48746580D02*
X112324093Y-48794200D01*
X112324093Y-48794200D02*
X112181236Y-48841819D01*
X112181236Y-48841819D02*
X112085998Y-48841819D01*
X112085998Y-48841819D02*
X111943141Y-48794200D01*
X111943141Y-48794200D02*
X111847903Y-48698961D01*
X111847903Y-48698961D02*
X111800284Y-48603723D01*
X111800284Y-48603723D02*
X111752665Y-48413247D01*
X111752665Y-48413247D02*
X111752665Y-48270390D01*
X111752665Y-48270390D02*
X111800284Y-48079914D01*
X111800284Y-48079914D02*
X111847903Y-47984676D01*
X111847903Y-47984676D02*
X111943141Y-47889438D01*
X111943141Y-47889438D02*
X112085998Y-47841819D01*
X112085998Y-47841819D02*
X112181236Y-47841819D01*
X112181236Y-47841819D02*
X112324093Y-47889438D01*
X112324093Y-47889438D02*
X112371712Y-47937057D01*
X113228855Y-48175152D02*
X113228855Y-48841819D01*
X112800284Y-48175152D02*
X112800284Y-48698961D01*
X112800284Y-48698961D02*
X112847903Y-48794200D01*
X112847903Y-48794200D02*
X112943141Y-48841819D01*
X112943141Y-48841819D02*
X113085998Y-48841819D01*
X113085998Y-48841819D02*
X113181236Y-48794200D01*
X113181236Y-48794200D02*
X113228855Y-48746580D01*
X113705046Y-48841819D02*
X113705046Y-48175152D01*
X113705046Y-48365628D02*
X113752665Y-48270390D01*
X113752665Y-48270390D02*
X113800284Y-48222771D01*
X113800284Y-48222771D02*
X113895522Y-48175152D01*
X113895522Y-48175152D02*
X113990760Y-48175152D01*
X114324094Y-48841819D02*
X114324094Y-48175152D01*
X114324094Y-48365628D02*
X114371713Y-48270390D01*
X114371713Y-48270390D02*
X114419332Y-48222771D01*
X114419332Y-48222771D02*
X114514570Y-48175152D01*
X114514570Y-48175152D02*
X114609808Y-48175152D01*
X115324094Y-48794200D02*
X115228856Y-48841819D01*
X115228856Y-48841819D02*
X115038380Y-48841819D01*
X115038380Y-48841819D02*
X114943142Y-48794200D01*
X114943142Y-48794200D02*
X114895523Y-48698961D01*
X114895523Y-48698961D02*
X114895523Y-48318009D01*
X114895523Y-48318009D02*
X114943142Y-48222771D01*
X114943142Y-48222771D02*
X115038380Y-48175152D01*
X115038380Y-48175152D02*
X115228856Y-48175152D01*
X115228856Y-48175152D02*
X115324094Y-48222771D01*
X115324094Y-48222771D02*
X115371713Y-48318009D01*
X115371713Y-48318009D02*
X115371713Y-48413247D01*
X115371713Y-48413247D02*
X114895523Y-48508485D01*
X115800285Y-48175152D02*
X115800285Y-48841819D01*
X115800285Y-48270390D02*
X115847904Y-48222771D01*
X115847904Y-48222771D02*
X115943142Y-48175152D01*
X115943142Y-48175152D02*
X116085999Y-48175152D01*
X116085999Y-48175152D02*
X116181237Y-48222771D01*
X116181237Y-48222771D02*
X116228856Y-48318009D01*
X116228856Y-48318009D02*
X116228856Y-48841819D01*
X116562190Y-48175152D02*
X116943142Y-48175152D01*
X116705047Y-47841819D02*
X116705047Y-48698961D01*
X116705047Y-48698961D02*
X116752666Y-48794200D01*
X116752666Y-48794200D02*
X116847904Y-48841819D01*
X116847904Y-48841819D02*
X116943142Y-48841819D01*
X118514571Y-48841819D02*
X118038381Y-48841819D01*
X118038381Y-48841819D02*
X118038381Y-47841819D01*
X119228857Y-48794200D02*
X119133619Y-48841819D01*
X119133619Y-48841819D02*
X118943143Y-48841819D01*
X118943143Y-48841819D02*
X118847905Y-48794200D01*
X118847905Y-48794200D02*
X118800286Y-48698961D01*
X118800286Y-48698961D02*
X118800286Y-48318009D01*
X118800286Y-48318009D02*
X118847905Y-48222771D01*
X118847905Y-48222771D02*
X118943143Y-48175152D01*
X118943143Y-48175152D02*
X119133619Y-48175152D01*
X119133619Y-48175152D02*
X119228857Y-48222771D01*
X119228857Y-48222771D02*
X119276476Y-48318009D01*
X119276476Y-48318009D02*
X119276476Y-48413247D01*
X119276476Y-48413247D02*
X118800286Y-48508485D01*
X119609810Y-48175152D02*
X119847905Y-48841819D01*
X119847905Y-48841819D02*
X120086000Y-48175152D01*
X120847905Y-48794200D02*
X120752667Y-48841819D01*
X120752667Y-48841819D02*
X120562191Y-48841819D01*
X120562191Y-48841819D02*
X120466953Y-48794200D01*
X120466953Y-48794200D02*
X120419334Y-48698961D01*
X120419334Y-48698961D02*
X120419334Y-48318009D01*
X120419334Y-48318009D02*
X120466953Y-48222771D01*
X120466953Y-48222771D02*
X120562191Y-48175152D01*
X120562191Y-48175152D02*
X120752667Y-48175152D01*
X120752667Y-48175152D02*
X120847905Y-48222771D01*
X120847905Y-48222771D02*
X120895524Y-48318009D01*
X120895524Y-48318009D02*
X120895524Y-48413247D01*
X120895524Y-48413247D02*
X120419334Y-48508485D01*
X121466953Y-48841819D02*
X121371715Y-48794200D01*
X121371715Y-48794200D02*
X121324096Y-48698961D01*
X121324096Y-48698961D02*
X121324096Y-47841819D01*
X112164047Y-42126819D02*
X112783094Y-42126819D01*
X112783094Y-42126819D02*
X112449761Y-42507771D01*
X112449761Y-42507771D02*
X112592618Y-42507771D01*
X112592618Y-42507771D02*
X112687856Y-42555390D01*
X112687856Y-42555390D02*
X112735475Y-42603009D01*
X112735475Y-42603009D02*
X112783094Y-42698247D01*
X112783094Y-42698247D02*
X112783094Y-42936342D01*
X112783094Y-42936342D02*
X112735475Y-43031580D01*
X112735475Y-43031580D02*
X112687856Y-43079200D01*
X112687856Y-43079200D02*
X112592618Y-43126819D01*
X112592618Y-43126819D02*
X112306904Y-43126819D01*
X112306904Y-43126819D02*
X112211666Y-43079200D01*
X112211666Y-43079200D02*
X112164047Y-43031580D01*
X113402142Y-42126819D02*
X113497380Y-42126819D01*
X113497380Y-42126819D02*
X113592618Y-42174438D01*
X113592618Y-42174438D02*
X113640237Y-42222057D01*
X113640237Y-42222057D02*
X113687856Y-42317295D01*
X113687856Y-42317295D02*
X113735475Y-42507771D01*
X113735475Y-42507771D02*
X113735475Y-42745866D01*
X113735475Y-42745866D02*
X113687856Y-42936342D01*
X113687856Y-42936342D02*
X113640237Y-43031580D01*
X113640237Y-43031580D02*
X113592618Y-43079200D01*
X113592618Y-43079200D02*
X113497380Y-43126819D01*
X113497380Y-43126819D02*
X113402142Y-43126819D01*
X113402142Y-43126819D02*
X113306904Y-43079200D01*
X113306904Y-43079200D02*
X113259285Y-43031580D01*
X113259285Y-43031580D02*
X113211666Y-42936342D01*
X113211666Y-42936342D02*
X113164047Y-42745866D01*
X113164047Y-42745866D02*
X113164047Y-42507771D01*
X113164047Y-42507771D02*
X113211666Y-42317295D01*
X113211666Y-42317295D02*
X113259285Y-42222057D01*
X113259285Y-42222057D02*
X113306904Y-42174438D01*
X113306904Y-42174438D02*
X113402142Y-42126819D01*
X114116428Y-42841104D02*
X114592618Y-42841104D01*
X114021190Y-43126819D02*
X114354523Y-42126819D01*
X114354523Y-42126819D02*
X114687856Y-43126819D01*
X116497380Y-42079200D02*
X115640238Y-43364914D01*
X118116428Y-43126819D02*
X117545000Y-43126819D01*
X117830714Y-43126819D02*
X117830714Y-42126819D01*
X117830714Y-42126819D02*
X117735476Y-42269676D01*
X117735476Y-42269676D02*
X117640238Y-42364914D01*
X117640238Y-42364914D02*
X117545000Y-42412533D01*
X118735476Y-42126819D02*
X118830714Y-42126819D01*
X118830714Y-42126819D02*
X118925952Y-42174438D01*
X118925952Y-42174438D02*
X118973571Y-42222057D01*
X118973571Y-42222057D02*
X119021190Y-42317295D01*
X119021190Y-42317295D02*
X119068809Y-42507771D01*
X119068809Y-42507771D02*
X119068809Y-42745866D01*
X119068809Y-42745866D02*
X119021190Y-42936342D01*
X119021190Y-42936342D02*
X118973571Y-43031580D01*
X118973571Y-43031580D02*
X118925952Y-43079200D01*
X118925952Y-43079200D02*
X118830714Y-43126819D01*
X118830714Y-43126819D02*
X118735476Y-43126819D01*
X118735476Y-43126819D02*
X118640238Y-43079200D01*
X118640238Y-43079200D02*
X118592619Y-43031580D01*
X118592619Y-43031580D02*
X118545000Y-42936342D01*
X118545000Y-42936342D02*
X118497381Y-42745866D01*
X118497381Y-42745866D02*
X118497381Y-42507771D01*
X118497381Y-42507771D02*
X118545000Y-42317295D01*
X118545000Y-42317295D02*
X118592619Y-42222057D01*
X118592619Y-42222057D02*
X118640238Y-42174438D01*
X118640238Y-42174438D02*
X118735476Y-42126819D01*
X119687857Y-42126819D02*
X119783095Y-42126819D01*
X119783095Y-42126819D02*
X119878333Y-42174438D01*
X119878333Y-42174438D02*
X119925952Y-42222057D01*
X119925952Y-42222057D02*
X119973571Y-42317295D01*
X119973571Y-42317295D02*
X120021190Y-42507771D01*
X120021190Y-42507771D02*
X120021190Y-42745866D01*
X120021190Y-42745866D02*
X119973571Y-42936342D01*
X119973571Y-42936342D02*
X119925952Y-43031580D01*
X119925952Y-43031580D02*
X119878333Y-43079200D01*
X119878333Y-43079200D02*
X119783095Y-43126819D01*
X119783095Y-43126819D02*
X119687857Y-43126819D01*
X119687857Y-43126819D02*
X119592619Y-43079200D01*
X119592619Y-43079200D02*
X119545000Y-43031580D01*
X119545000Y-43031580D02*
X119497381Y-42936342D01*
X119497381Y-42936342D02*
X119449762Y-42745866D01*
X119449762Y-42745866D02*
X119449762Y-42507771D01*
X119449762Y-42507771D02*
X119497381Y-42317295D01*
X119497381Y-42317295D02*
X119545000Y-42222057D01*
X119545000Y-42222057D02*
X119592619Y-42174438D01*
X119592619Y-42174438D02*
X119687857Y-42126819D01*
X120402143Y-42841104D02*
X120878333Y-42841104D01*
X120306905Y-43126819D02*
X120640238Y-42126819D01*
X120640238Y-42126819D02*
X120973571Y-43126819D01*
X48529020Y-52058867D02*
X48052829Y-52392200D01*
X48529020Y-52630295D02*
X47529020Y-52630295D01*
X47529020Y-52630295D02*
X47529020Y-52249343D01*
X47529020Y-52249343D02*
X47576639Y-52154105D01*
X47576639Y-52154105D02*
X47624258Y-52106486D01*
X47624258Y-52106486D02*
X47719496Y-52058867D01*
X47719496Y-52058867D02*
X47862353Y-52058867D01*
X47862353Y-52058867D02*
X47957591Y-52106486D01*
X47957591Y-52106486D02*
X48005210Y-52154105D01*
X48005210Y-52154105D02*
X48052829Y-52249343D01*
X48052829Y-52249343D02*
X48052829Y-52630295D01*
X48529020Y-51106486D02*
X48529020Y-51677914D01*
X48529020Y-51392200D02*
X47529020Y-51392200D01*
X47529020Y-51392200D02*
X47671877Y-51487438D01*
X47671877Y-51487438D02*
X47767115Y-51582676D01*
X47767115Y-51582676D02*
X47814734Y-51677914D01*
X72062020Y-69708867D02*
X71585829Y-70042200D01*
X72062020Y-70280295D02*
X71062020Y-70280295D01*
X71062020Y-70280295D02*
X71062020Y-69899343D01*
X71062020Y-69899343D02*
X71109639Y-69804105D01*
X71109639Y-69804105D02*
X71157258Y-69756486D01*
X71157258Y-69756486D02*
X71252496Y-69708867D01*
X71252496Y-69708867D02*
X71395353Y-69708867D01*
X71395353Y-69708867D02*
X71490591Y-69756486D01*
X71490591Y-69756486D02*
X71538210Y-69804105D01*
X71538210Y-69804105D02*
X71585829Y-69899343D01*
X71585829Y-69899343D02*
X71585829Y-70280295D01*
X71062020Y-68804105D02*
X71062020Y-69280295D01*
X71062020Y-69280295D02*
X71538210Y-69327914D01*
X71538210Y-69327914D02*
X71490591Y-69280295D01*
X71490591Y-69280295D02*
X71442972Y-69185057D01*
X71442972Y-69185057D02*
X71442972Y-68946962D01*
X71442972Y-68946962D02*
X71490591Y-68851724D01*
X71490591Y-68851724D02*
X71538210Y-68804105D01*
X71538210Y-68804105D02*
X71633448Y-68756486D01*
X71633448Y-68756486D02*
X71871543Y-68756486D01*
X71871543Y-68756486D02*
X71966781Y-68804105D01*
X71966781Y-68804105D02*
X72014401Y-68851724D01*
X72014401Y-68851724D02*
X72062020Y-68946962D01*
X72062020Y-68946962D02*
X72062020Y-69185057D01*
X72062020Y-69185057D02*
X72014401Y-69280295D01*
X72014401Y-69280295D02*
X71966781Y-69327914D01*
X72062020Y-52055867D02*
X71585829Y-52389200D01*
X72062020Y-52627295D02*
X71062020Y-52627295D01*
X71062020Y-52627295D02*
X71062020Y-52246343D01*
X71062020Y-52246343D02*
X71109639Y-52151105D01*
X71109639Y-52151105D02*
X71157258Y-52103486D01*
X71157258Y-52103486D02*
X71252496Y-52055867D01*
X71252496Y-52055867D02*
X71395353Y-52055867D01*
X71395353Y-52055867D02*
X71490591Y-52103486D01*
X71490591Y-52103486D02*
X71538210Y-52151105D01*
X71538210Y-52151105D02*
X71585829Y-52246343D01*
X71585829Y-52246343D02*
X71585829Y-52627295D01*
X71395353Y-51198724D02*
X72062020Y-51198724D01*
X71014401Y-51436819D02*
X71728686Y-51674914D01*
X71728686Y-51674914D02*
X71728686Y-51055867D01*
D14*
X54791382Y-86490677D02*
X57077096Y-86490677D01*
X55934239Y-90490677D02*
X55934239Y-86490677D01*
X58410429Y-90490677D02*
X58410429Y-86490677D01*
X58410429Y-86490677D02*
X59934239Y-86490677D01*
X59934239Y-86490677D02*
X60315191Y-86681153D01*
X60315191Y-86681153D02*
X60505668Y-86871629D01*
X60505668Y-86871629D02*
X60696144Y-87252581D01*
X60696144Y-87252581D02*
X60696144Y-87824010D01*
X60696144Y-87824010D02*
X60505668Y-88204962D01*
X60505668Y-88204962D02*
X60315191Y-88395439D01*
X60315191Y-88395439D02*
X59934239Y-88585915D01*
X59934239Y-88585915D02*
X58410429Y-88585915D01*
X62029477Y-86490677D02*
X64505668Y-86490677D01*
X64505668Y-86490677D02*
X63172334Y-88014486D01*
X63172334Y-88014486D02*
X63743763Y-88014486D01*
X63743763Y-88014486D02*
X64124715Y-88204962D01*
X64124715Y-88204962D02*
X64315191Y-88395439D01*
X64315191Y-88395439D02*
X64505668Y-88776391D01*
X64505668Y-88776391D02*
X64505668Y-89728772D01*
X64505668Y-89728772D02*
X64315191Y-90109724D01*
X64315191Y-90109724D02*
X64124715Y-90300201D01*
X64124715Y-90300201D02*
X63743763Y-90490677D01*
X63743763Y-90490677D02*
X62600906Y-90490677D01*
X62600906Y-90490677D02*
X62219953Y-90300201D01*
X62219953Y-90300201D02*
X62029477Y-90109724D01*
X81875782Y-68710677D02*
X84161496Y-68710677D01*
X83018639Y-72710677D02*
X83018639Y-68710677D01*
X85494829Y-72710677D02*
X85494829Y-68710677D01*
X85494829Y-68710677D02*
X87018639Y-68710677D01*
X87018639Y-68710677D02*
X87399591Y-68901153D01*
X87399591Y-68901153D02*
X87590068Y-69091629D01*
X87590068Y-69091629D02*
X87780544Y-69472581D01*
X87780544Y-69472581D02*
X87780544Y-70044010D01*
X87780544Y-70044010D02*
X87590068Y-70424962D01*
X87590068Y-70424962D02*
X87399591Y-70615439D01*
X87399591Y-70615439D02*
X87018639Y-70805915D01*
X87018639Y-70805915D02*
X85494829Y-70805915D01*
X91399591Y-68710677D02*
X89494829Y-68710677D01*
X89494829Y-68710677D02*
X89304353Y-70615439D01*
X89304353Y-70615439D02*
X89494829Y-70424962D01*
X89494829Y-70424962D02*
X89875782Y-70234486D01*
X89875782Y-70234486D02*
X90828163Y-70234486D01*
X90828163Y-70234486D02*
X91209115Y-70424962D01*
X91209115Y-70424962D02*
X91399591Y-70615439D01*
X91399591Y-70615439D02*
X91590068Y-70996391D01*
X91590068Y-70996391D02*
X91590068Y-71948772D01*
X91590068Y-71948772D02*
X91399591Y-72329724D01*
X91399591Y-72329724D02*
X91209115Y-72520201D01*
X91209115Y-72520201D02*
X90828163Y-72710677D01*
X90828163Y-72710677D02*
X89875782Y-72710677D01*
X89875782Y-72710677D02*
X89494829Y-72520201D01*
X89494829Y-72520201D02*
X89304353Y-72329724D01*
X54791382Y-51057677D02*
X57077096Y-51057677D01*
X55934239Y-55057677D02*
X55934239Y-51057677D01*
X58410429Y-55057677D02*
X58410429Y-51057677D01*
X58410429Y-51057677D02*
X59934239Y-51057677D01*
X59934239Y-51057677D02*
X60315191Y-51248153D01*
X60315191Y-51248153D02*
X60505668Y-51438629D01*
X60505668Y-51438629D02*
X60696144Y-51819581D01*
X60696144Y-51819581D02*
X60696144Y-52391010D01*
X60696144Y-52391010D02*
X60505668Y-52771962D01*
X60505668Y-52771962D02*
X60315191Y-52962439D01*
X60315191Y-52962439D02*
X59934239Y-53152915D01*
X59934239Y-53152915D02*
X58410429Y-53152915D01*
X64505668Y-55057677D02*
X62219953Y-55057677D01*
X63362810Y-55057677D02*
X63362810Y-51057677D01*
X63362810Y-51057677D02*
X62981858Y-51629105D01*
X62981858Y-51629105D02*
X62600906Y-52010058D01*
X62600906Y-52010058D02*
X62219953Y-52200534D01*
D12*
X96766972Y-105017286D02*
X96166972Y-105017286D01*
X96166972Y-105017286D02*
X96166972Y-104874429D01*
X96166972Y-104874429D02*
X96195543Y-104788715D01*
X96195543Y-104788715D02*
X96252686Y-104731572D01*
X96252686Y-104731572D02*
X96309829Y-104703001D01*
X96309829Y-104703001D02*
X96424115Y-104674429D01*
X96424115Y-104674429D02*
X96509829Y-104674429D01*
X96509829Y-104674429D02*
X96624115Y-104703001D01*
X96624115Y-104703001D02*
X96681258Y-104731572D01*
X96681258Y-104731572D02*
X96738401Y-104788715D01*
X96738401Y-104788715D02*
X96766972Y-104874429D01*
X96766972Y-104874429D02*
X96766972Y-105017286D01*
X96166972Y-104474429D02*
X96166972Y-104074429D01*
X96166972Y-104074429D02*
X96766972Y-104474429D01*
X96766972Y-104474429D02*
X96766972Y-104074429D01*
X96766972Y-103531572D02*
X96766972Y-103874429D01*
X96766972Y-103703000D02*
X96166972Y-103703000D01*
X96166972Y-103703000D02*
X96252686Y-103760143D01*
X96252686Y-103760143D02*
X96309829Y-103817286D01*
X96309829Y-103817286D02*
X96338401Y-103874429D01*
X96224115Y-103303000D02*
X96195543Y-103274428D01*
X96195543Y-103274428D02*
X96166972Y-103217286D01*
X96166972Y-103217286D02*
X96166972Y-103074428D01*
X96166972Y-103074428D02*
X96195543Y-103017286D01*
X96195543Y-103017286D02*
X96224115Y-102988714D01*
X96224115Y-102988714D02*
X96281258Y-102960143D01*
X96281258Y-102960143D02*
X96338401Y-102960143D01*
X96338401Y-102960143D02*
X96424115Y-102988714D01*
X96424115Y-102988714D02*
X96766972Y-103331571D01*
X96766972Y-103331571D02*
X96766972Y-102960143D01*
D15*
%TO.C,R15*%
X138232000Y-82312000D02*
X138232000Y-83082000D01*
X139602000Y-83082000D02*
X136862000Y-83082000D01*
X136862000Y-83082000D02*
X136862000Y-89622000D01*
X139602000Y-89622000D02*
X139602000Y-83082000D01*
X136862000Y-89622000D02*
X139602000Y-89622000D01*
X138232000Y-90392000D02*
X138232000Y-89622000D01*
%TO.C,DZ7*%
X85471001Y-101462401D02*
X85471001Y-102642401D01*
X86391001Y-102642401D02*
X84551001Y-102642401D01*
X84551001Y-102642401D02*
X84551001Y-105922401D01*
X86391001Y-103098401D02*
X84551001Y-103098401D01*
X86391001Y-103218401D02*
X84551001Y-103218401D01*
X86391001Y-103338401D02*
X84551001Y-103338401D01*
X86391001Y-105922401D02*
X86391001Y-102642401D01*
X84551001Y-105922401D02*
X86391001Y-105922401D01*
X85471001Y-107102401D02*
X85471001Y-105922401D01*
%TO.C,DZ17*%
X148590000Y-46324000D02*
X148590000Y-47504000D01*
X149510000Y-47504000D02*
X147670000Y-47504000D01*
X147670000Y-47504000D02*
X147670000Y-50784000D01*
X149510000Y-47960000D02*
X147670000Y-47960000D01*
X149510000Y-48080000D02*
X147670000Y-48080000D01*
X149510000Y-48200000D02*
X147670000Y-48200000D01*
X149510000Y-50784000D02*
X149510000Y-47504000D01*
X147670000Y-50784000D02*
X149510000Y-50784000D01*
X148590000Y-51964000D02*
X148590000Y-50784000D01*
%TO.C,DZ5*%
X81051401Y-101462401D02*
X81051401Y-102642401D01*
X81971401Y-102642401D02*
X80131401Y-102642401D01*
X80131401Y-102642401D02*
X80131401Y-105922401D01*
X81971401Y-103098401D02*
X80131401Y-103098401D01*
X81971401Y-103218401D02*
X80131401Y-103218401D01*
X81971401Y-103338401D02*
X80131401Y-103338401D01*
X81971401Y-105922401D02*
X81971401Y-102642401D01*
X80131401Y-105922401D02*
X81971401Y-105922401D01*
X81051401Y-107102401D02*
X81051401Y-105922401D01*
%TO.C,R23*%
X175944400Y-102108000D02*
X176714400Y-102108000D01*
X176714400Y-100738000D02*
X176714400Y-103478000D01*
X176714400Y-103478000D02*
X183254400Y-103478000D01*
X183254400Y-100738000D02*
X176714400Y-100738000D01*
X183254400Y-103478000D02*
X183254400Y-100738000D01*
X184024400Y-102108000D02*
X183254400Y-102108000D01*
%TO.C,DZ1*%
X72212201Y-101462401D02*
X72212201Y-102642401D01*
X73132201Y-102642401D02*
X71292201Y-102642401D01*
X71292201Y-102642401D02*
X71292201Y-105922401D01*
X73132201Y-103098401D02*
X71292201Y-103098401D01*
X73132201Y-103218401D02*
X71292201Y-103218401D01*
X73132201Y-103338401D02*
X71292201Y-103338401D01*
X73132201Y-105922401D02*
X73132201Y-102642401D01*
X71292201Y-105922401D02*
X73132201Y-105922401D01*
X72212201Y-107102401D02*
X72212201Y-105922401D01*
%TO.C,ST1*%
X47828200Y-100101400D02*
X47828200Y-107721400D01*
X47828200Y-107721400D02*
X57988200Y-107721400D01*
X57988200Y-100101400D02*
X47828200Y-100101400D01*
X57988200Y-106451400D02*
X47828200Y-106451400D01*
X57988200Y-107721400D02*
X57988200Y-100101400D01*
%TO.C,R21*%
X161219000Y-71104000D02*
X161219000Y-70334000D01*
X159849000Y-70334000D02*
X162589000Y-70334000D01*
X162589000Y-70334000D02*
X162589000Y-63794000D01*
X159849000Y-63794000D02*
X159849000Y-70334000D01*
X162589000Y-63794000D02*
X159849000Y-63794000D01*
X161219000Y-63024000D02*
X161219000Y-63794000D01*
%TO.C,R17*%
X161219000Y-82312000D02*
X161219000Y-83082000D01*
X162589000Y-83082000D02*
X159849000Y-83082000D01*
X159849000Y-83082000D02*
X159849000Y-89622000D01*
X162589000Y-89622000D02*
X162589000Y-83082000D01*
X159849000Y-89622000D02*
X162589000Y-89622000D01*
X161219000Y-90392000D02*
X161219000Y-89622000D01*
%TO.C,DZ21*%
X157429200Y-46324000D02*
X157429200Y-47504000D01*
X158349200Y-47504000D02*
X156509200Y-47504000D01*
X156509200Y-47504000D02*
X156509200Y-50784000D01*
X158349200Y-47960000D02*
X156509200Y-47960000D01*
X158349200Y-48080000D02*
X156509200Y-48080000D01*
X158349200Y-48200000D02*
X156509200Y-48200000D01*
X158349200Y-50784000D02*
X158349200Y-47504000D01*
X156509200Y-50784000D02*
X158349200Y-50784000D01*
X157429200Y-51964000D02*
X157429200Y-50784000D01*
%TO.C,DZ18*%
X150799800Y-51964000D02*
X150799800Y-50784000D01*
X149879800Y-50784000D02*
X151719800Y-50784000D01*
X151719800Y-50784000D02*
X151719800Y-47504000D01*
X149879800Y-50328000D02*
X151719800Y-50328000D01*
X149879800Y-50208000D02*
X151719800Y-50208000D01*
X149879800Y-50088000D02*
X151719800Y-50088000D01*
X149879800Y-47504000D02*
X149879800Y-50784000D01*
X151719800Y-47504000D02*
X149879800Y-47504000D01*
X150799800Y-46324000D02*
X150799800Y-47504000D01*
D16*
%TO.C,TP4*%
X77323401Y-44888401D02*
X96523401Y-44888401D01*
X77323401Y-61588401D02*
X77323401Y-44888401D01*
X96523401Y-44888401D02*
X96523401Y-61588401D01*
X96523401Y-61588401D02*
X77323401Y-61588401D01*
D13*
X76823401Y-46838401D02*
G75*
G03*
X76623401Y-46838401I-100000J0D01*
G01*
X76623401Y-46838401D02*
G75*
G03*
X76823401Y-46838401I100000J0D01*
G01*
D15*
%TO.C,D1*%
X107375000Y-50825400D02*
X108555000Y-50825400D01*
X108555000Y-49905400D02*
X108555000Y-51745400D01*
X108555000Y-51745400D02*
X111835000Y-51745400D01*
X109011000Y-49905400D02*
X109011000Y-51745400D01*
X109131000Y-49905400D02*
X109131000Y-51745400D01*
X109251000Y-49905400D02*
X109251000Y-51745400D01*
X111835000Y-49905400D02*
X108555000Y-49905400D01*
X111835000Y-51745400D02*
X111835000Y-49905400D01*
X113015000Y-50825400D02*
X111835000Y-50825400D01*
%TO.C,DZ10*%
X92100401Y-107102401D02*
X92100401Y-105922401D01*
X91180401Y-105922401D02*
X93020401Y-105922401D01*
X93020401Y-105922401D02*
X93020401Y-102642401D01*
X91180401Y-105466401D02*
X93020401Y-105466401D01*
X91180401Y-105346401D02*
X93020401Y-105346401D01*
X91180401Y-105226401D02*
X93020401Y-105226401D01*
X91180401Y-102642401D02*
X91180401Y-105922401D01*
X93020401Y-102642401D02*
X91180401Y-102642401D01*
X92100401Y-101462401D02*
X92100401Y-102642401D01*
%TO.C,DZ16*%
X146380200Y-51964000D02*
X146380200Y-50784000D01*
X145460200Y-50784000D02*
X147300200Y-50784000D01*
X147300200Y-50784000D02*
X147300200Y-47504000D01*
X145460200Y-50328000D02*
X147300200Y-50328000D01*
X145460200Y-50208000D02*
X147300200Y-50208000D01*
X145460200Y-50088000D02*
X147300200Y-50088000D01*
X145460200Y-47504000D02*
X145460200Y-50784000D01*
X147300200Y-47504000D02*
X145460200Y-47504000D01*
X146380200Y-46324000D02*
X146380200Y-47504000D01*
%TO.C,K1*%
X140300200Y-96972000D02*
X146800200Y-96972000D01*
X140300200Y-96972000D02*
X140300200Y-77772000D01*
X149200200Y-96972000D02*
X155700200Y-96972000D01*
X148000200Y-92872000D02*
X148000200Y-93772000D01*
X148000200Y-92872000D02*
X151700200Y-92872000D01*
X146500200Y-91972000D02*
X146500200Y-86972000D01*
X149500200Y-91972000D02*
X146500200Y-91972000D01*
X154000200Y-91772000D02*
X154000200Y-89472000D01*
X142000200Y-89472000D02*
X142000200Y-91772000D01*
X142000200Y-89472000D02*
X146500200Y-89472000D01*
X149500200Y-89472000D02*
X154000200Y-89472000D01*
X146500200Y-86972000D02*
X149500200Y-86972000D01*
X149500200Y-86972000D02*
X146500200Y-91972000D01*
X149500200Y-86972000D02*
X149500200Y-91972000D01*
X148000200Y-85972000D02*
X151700200Y-85972000D01*
X148000200Y-85972000D02*
X148000200Y-84472000D01*
X151700200Y-85972000D02*
X151700200Y-92872000D01*
X148000200Y-84472000D02*
X145300200Y-79972000D01*
X143700200Y-81272000D02*
X146000200Y-81272000D01*
X152300200Y-81272000D02*
X150000200Y-81272000D01*
X140300200Y-77772000D02*
X155700200Y-77772000D01*
X155700200Y-77772000D02*
X155700200Y-96972000D01*
%TO.C,ST1*%
X152781000Y-100101400D02*
X152781000Y-107721400D01*
X152781000Y-107721400D02*
X162941000Y-107721400D01*
X162941000Y-100101400D02*
X152781000Y-100101400D01*
X162941000Y-106451400D02*
X152781000Y-106451400D01*
X162941000Y-107721400D02*
X162941000Y-100101400D01*
%TO.C,DZ4*%
X78841601Y-107102401D02*
X78841601Y-105922401D01*
X77921601Y-105922401D02*
X79761601Y-105922401D01*
X79761601Y-105922401D02*
X79761601Y-102642401D01*
X77921601Y-105466401D02*
X79761601Y-105466401D01*
X77921601Y-105346401D02*
X79761601Y-105346401D01*
X77921601Y-105226401D02*
X79761601Y-105226401D01*
X77921601Y-102642401D02*
X77921601Y-105922401D01*
X79761601Y-102642401D02*
X77921601Y-102642401D01*
X78841601Y-101462401D02*
X78841601Y-102642401D01*
%TO.C,R18*%
X180755400Y-82312000D02*
X180755400Y-83082000D01*
X182125400Y-83082000D02*
X179385400Y-83082000D01*
X179385400Y-83082000D02*
X179385400Y-89622000D01*
X182125400Y-89622000D02*
X182125400Y-83082000D01*
X179385400Y-89622000D02*
X182125400Y-89622000D01*
X180755400Y-90392000D02*
X180755400Y-89622000D01*
%TO.C,R16*%
X157768400Y-82312000D02*
X157768400Y-83082000D01*
X159138400Y-83082000D02*
X156398400Y-83082000D01*
X156398400Y-83082000D02*
X156398400Y-89622000D01*
X159138400Y-89622000D02*
X159138400Y-83082000D01*
X156398400Y-89622000D02*
X159138400Y-89622000D01*
X157768400Y-90392000D02*
X157768400Y-89622000D01*
D16*
%TO.C,TP6*%
X77323401Y-80321401D02*
X96523401Y-80321401D01*
X77323401Y-97021401D02*
X77323401Y-80321401D01*
X96523401Y-80321401D02*
X96523401Y-97021401D01*
X96523401Y-97021401D02*
X77323401Y-97021401D01*
D13*
X76823401Y-82271401D02*
G75*
G03*
X76623401Y-82271401I-100000J0D01*
G01*
X76623401Y-82271401D02*
G75*
G03*
X76823401Y-82271401I100000J0D01*
G01*
D15*
%TO.C,DZ25*%
X166268400Y-46324000D02*
X166268400Y-47504000D01*
X167188400Y-47504000D02*
X165348400Y-47504000D01*
X165348400Y-47504000D02*
X165348400Y-50784000D01*
X167188400Y-47960000D02*
X165348400Y-47960000D01*
X167188400Y-48080000D02*
X165348400Y-48080000D01*
X167188400Y-48200000D02*
X165348400Y-48200000D01*
X167188400Y-50784000D02*
X167188400Y-47504000D01*
X165348400Y-50784000D02*
X167188400Y-50784000D01*
X166268400Y-51964000D02*
X166268400Y-50784000D01*
%TO.C,R7*%
X75158601Y-56008401D02*
X75158601Y-55238401D01*
X73788601Y-55238401D02*
X76528601Y-55238401D01*
X76528601Y-55238401D02*
X76528601Y-48698401D01*
X73788601Y-48698401D02*
X73788601Y-55238401D01*
X76528601Y-48698401D02*
X73788601Y-48698401D01*
X75158601Y-47928401D02*
X75158601Y-48698401D01*
%TO.C,R6*%
X71607201Y-91441401D02*
X71607201Y-90671401D01*
X70237201Y-90671401D02*
X72977201Y-90671401D01*
X72977201Y-90671401D02*
X72977201Y-84131401D01*
X70237201Y-84131401D02*
X70237201Y-90671401D01*
X72977201Y-84131401D02*
X70237201Y-84131401D01*
X71607201Y-83361401D02*
X71607201Y-84131401D01*
%TO.C,DZ2*%
X74422001Y-107102401D02*
X74422001Y-105922401D01*
X73502001Y-105922401D02*
X75342001Y-105922401D01*
X75342001Y-105922401D02*
X75342001Y-102642401D01*
X73502001Y-105466401D02*
X75342001Y-105466401D01*
X73502001Y-105346401D02*
X75342001Y-105346401D01*
X73502001Y-105226401D02*
X75342001Y-105226401D01*
X73502001Y-102642401D02*
X73502001Y-105922401D01*
X75342001Y-102642401D02*
X73502001Y-102642401D01*
X74422001Y-101462401D02*
X74422001Y-102642401D01*
%TO.C,DZ20*%
X155219400Y-51964000D02*
X155219400Y-50784000D01*
X154299400Y-50784000D02*
X156139400Y-50784000D01*
X156139400Y-50784000D02*
X156139400Y-47504000D01*
X154299400Y-50328000D02*
X156139400Y-50328000D01*
X154299400Y-50208000D02*
X156139400Y-50208000D01*
X154299400Y-50088000D02*
X156139400Y-50088000D01*
X154299400Y-47504000D02*
X154299400Y-50784000D01*
X156139400Y-47504000D02*
X154299400Y-47504000D01*
X155219400Y-46324000D02*
X155219400Y-47504000D01*
%TO.C,R20*%
X157768400Y-71104000D02*
X157768400Y-70334000D01*
X156398400Y-70334000D02*
X159138400Y-70334000D01*
X159138400Y-70334000D02*
X159138400Y-63794000D01*
X156398400Y-63794000D02*
X156398400Y-70334000D01*
X159138400Y-63794000D02*
X156398400Y-63794000D01*
X157768400Y-63024000D02*
X157768400Y-63794000D01*
%TO.C,DZ27*%
X170688000Y-46324000D02*
X170688000Y-47504000D01*
X171608000Y-47504000D02*
X169768000Y-47504000D01*
X169768000Y-47504000D02*
X169768000Y-50784000D01*
X171608000Y-47960000D02*
X169768000Y-47960000D01*
X171608000Y-48080000D02*
X169768000Y-48080000D01*
X171608000Y-48200000D02*
X169768000Y-48200000D01*
X171608000Y-50784000D02*
X171608000Y-47504000D01*
X169768000Y-50784000D02*
X171608000Y-50784000D01*
X170688000Y-51964000D02*
X170688000Y-50784000D01*
%TO.C,R22*%
X180755400Y-71104000D02*
X180755400Y-70334000D01*
X179385400Y-70334000D02*
X182125400Y-70334000D01*
X182125400Y-70334000D02*
X182125400Y-63794000D01*
X179385400Y-63794000D02*
X179385400Y-70334000D01*
X182125400Y-63794000D02*
X179385400Y-63794000D01*
X180755400Y-63024000D02*
X180755400Y-63794000D01*
%TO.C,DZ8*%
X87680801Y-107102401D02*
X87680801Y-105922401D01*
X86760801Y-105922401D02*
X88600801Y-105922401D01*
X88600801Y-105922401D02*
X88600801Y-102642401D01*
X86760801Y-105466401D02*
X88600801Y-105466401D01*
X86760801Y-105346401D02*
X88600801Y-105346401D01*
X86760801Y-105226401D02*
X88600801Y-105226401D01*
X86760801Y-102642401D02*
X86760801Y-105922401D01*
X88600801Y-102642401D02*
X86760801Y-102642401D01*
X87680801Y-101462401D02*
X87680801Y-102642401D01*
%TO.C,R10*%
X98691601Y-56008401D02*
X98691601Y-55238401D01*
X97321601Y-55238401D02*
X100061601Y-55238401D01*
X100061601Y-55238401D02*
X100061601Y-48698401D01*
X97321601Y-48698401D02*
X97321601Y-55238401D01*
X100061601Y-48698401D02*
X97321601Y-48698401D01*
X98691601Y-47928401D02*
X98691601Y-48698401D01*
%TO.C,DZ14*%
X141960600Y-51964000D02*
X141960600Y-50784000D01*
X141040600Y-50784000D02*
X142880600Y-50784000D01*
X142880600Y-50784000D02*
X142880600Y-47504000D01*
X141040600Y-50328000D02*
X142880600Y-50328000D01*
X141040600Y-50208000D02*
X142880600Y-50208000D01*
X141040600Y-50088000D02*
X142880600Y-50088000D01*
X141040600Y-47504000D02*
X141040600Y-50784000D01*
X142880600Y-47504000D02*
X141040600Y-47504000D01*
X141960600Y-46324000D02*
X141960600Y-47504000D01*
%TO.C,ST1*%
X162941000Y-100101400D02*
X162941000Y-107721400D01*
X162941000Y-107721400D02*
X173101000Y-107721400D01*
X173101000Y-100101400D02*
X162941000Y-100101400D01*
X173101000Y-106451400D02*
X162941000Y-106451400D01*
X173101000Y-107721400D02*
X173101000Y-100101400D01*
%TO.C,R2*%
X48074201Y-73661401D02*
X48074201Y-72891401D01*
X46704201Y-72891401D02*
X49444201Y-72891401D01*
X49444201Y-72891401D02*
X49444201Y-66351401D01*
X46704201Y-66351401D02*
X46704201Y-72891401D01*
X49444201Y-66351401D02*
X46704201Y-66351401D01*
X48074201Y-65581401D02*
X48074201Y-66351401D01*
%TO.C,ESP32-S3_BACK1*%
X130565201Y-106705401D02*
X130565201Y-53305401D01*
X130565201Y-106705401D02*
X127905201Y-106705401D01*
X130565201Y-53305401D02*
X127905201Y-53305401D01*
X129235201Y-109305401D02*
X127905201Y-109305401D01*
X127905201Y-109305401D02*
X127905201Y-107975401D01*
X127905201Y-106705401D02*
X127905201Y-53305401D01*
%TO.C,DZ28*%
X172897800Y-51964000D02*
X172897800Y-50784000D01*
X171977800Y-50784000D02*
X173817800Y-50784000D01*
X173817800Y-50784000D02*
X173817800Y-47504000D01*
X171977800Y-50328000D02*
X173817800Y-50328000D01*
X171977800Y-50208000D02*
X173817800Y-50208000D01*
X171977800Y-50088000D02*
X173817800Y-50088000D01*
X171977800Y-47504000D02*
X171977800Y-50784000D01*
X173817800Y-47504000D02*
X171977800Y-47504000D01*
X172897800Y-46324000D02*
X172897800Y-47504000D01*
%TO.C,R14*%
X84284201Y-42697401D02*
X83514201Y-42697401D01*
X83514201Y-44067401D02*
X83514201Y-41327401D01*
X83514201Y-41327401D02*
X76974201Y-41327401D01*
X76974201Y-44067401D02*
X83514201Y-44067401D01*
X76974201Y-41327401D02*
X76974201Y-44067401D01*
X76204201Y-42697401D02*
X76974201Y-42697401D01*
%TO.C,R19*%
X138232000Y-71104000D02*
X138232000Y-70334000D01*
X136862000Y-70334000D02*
X139602000Y-70334000D01*
X139602000Y-70334000D02*
X139602000Y-63794000D01*
X136862000Y-63794000D02*
X136862000Y-70334000D01*
X139602000Y-63794000D02*
X136862000Y-63794000D01*
X138232000Y-63024000D02*
X138232000Y-63794000D01*
%TO.C,DZ13*%
X139750800Y-46324000D02*
X139750800Y-47504000D01*
X140670800Y-47504000D02*
X138830800Y-47504000D01*
X138830800Y-47504000D02*
X138830800Y-50784000D01*
X140670800Y-47960000D02*
X138830800Y-47960000D01*
X140670800Y-48080000D02*
X138830800Y-48080000D01*
X140670800Y-48200000D02*
X138830800Y-48200000D01*
X140670800Y-50784000D02*
X140670800Y-47504000D01*
X138830800Y-50784000D02*
X140670800Y-50784000D01*
X139750800Y-51964000D02*
X139750800Y-50784000D01*
D16*
%TO.C,TP2*%
X50239001Y-62541401D02*
X69439001Y-62541401D01*
X50239001Y-79241401D02*
X50239001Y-62541401D01*
X69439001Y-62541401D02*
X69439001Y-79241401D01*
X69439001Y-79241401D02*
X50239001Y-79241401D01*
D13*
X49739001Y-64491401D02*
G75*
G03*
X49539001Y-64491401I-100000J0D01*
G01*
X49539001Y-64491401D02*
G75*
G03*
X49739001Y-64491401I100000J0D01*
G01*
D15*
%TO.C,ST1*%
X132461000Y-100101400D02*
X132461000Y-107721400D01*
X132461000Y-107721400D02*
X142621000Y-107721400D01*
X142621000Y-100101400D02*
X132461000Y-100101400D01*
X142621000Y-106451400D02*
X132461000Y-106451400D01*
X142621000Y-107721400D02*
X142621000Y-100101400D01*
%TO.C,K1*%
X163287200Y-96972000D02*
X169787200Y-96972000D01*
X163287200Y-96972000D02*
X163287200Y-77772000D01*
X172187200Y-96972000D02*
X178687200Y-96972000D01*
X170987200Y-92872000D02*
X170987200Y-93772000D01*
X170987200Y-92872000D02*
X174687200Y-92872000D01*
X169487200Y-91972000D02*
X169487200Y-86972000D01*
X172487200Y-91972000D02*
X169487200Y-91972000D01*
X176987200Y-91772000D02*
X176987200Y-89472000D01*
X164987200Y-89472000D02*
X164987200Y-91772000D01*
X164987200Y-89472000D02*
X169487200Y-89472000D01*
X172487200Y-89472000D02*
X176987200Y-89472000D01*
X169487200Y-86972000D02*
X172487200Y-86972000D01*
X172487200Y-86972000D02*
X169487200Y-91972000D01*
X172487200Y-86972000D02*
X172487200Y-91972000D01*
X170987200Y-85972000D02*
X174687200Y-85972000D01*
X170987200Y-85972000D02*
X170987200Y-84472000D01*
X174687200Y-85972000D02*
X174687200Y-92872000D01*
X170987200Y-84472000D02*
X168287200Y-79972000D01*
X166687200Y-81272000D02*
X168987200Y-81272000D01*
X175287200Y-81272000D02*
X172987200Y-81272000D01*
X163287200Y-77772000D02*
X178687200Y-77772000D01*
X178687200Y-77772000D02*
X178687200Y-96972000D01*
%TO.C,R9*%
X75158601Y-91441401D02*
X75158601Y-90671401D01*
X73788601Y-90671401D02*
X76528601Y-90671401D01*
X76528601Y-90671401D02*
X76528601Y-84131401D01*
X73788601Y-84131401D02*
X73788601Y-90671401D01*
X76528601Y-84131401D02*
X73788601Y-84131401D01*
X75158601Y-83361401D02*
X75158601Y-84131401D01*
%TO.C,R24*%
X175944400Y-105587800D02*
X176714400Y-105587800D01*
X176714400Y-104217800D02*
X176714400Y-106957800D01*
X176714400Y-106957800D02*
X183254400Y-106957800D01*
X183254400Y-104217800D02*
X176714400Y-104217800D01*
X183254400Y-106957800D02*
X183254400Y-104217800D01*
X184024400Y-105587800D02*
X183254400Y-105587800D01*
%TO.C,R8*%
X75158601Y-73661401D02*
X75158601Y-72891401D01*
X73788601Y-72891401D02*
X76528601Y-72891401D01*
X76528601Y-72891401D02*
X76528601Y-66351401D01*
X73788601Y-66351401D02*
X73788601Y-72891401D01*
X76528601Y-66351401D02*
X73788601Y-66351401D01*
X75158601Y-65581401D02*
X75158601Y-66351401D01*
%TO.C,R12*%
X98691601Y-91441401D02*
X98691601Y-90671401D01*
X97321601Y-90671401D02*
X100061601Y-90671401D01*
X100061601Y-90671401D02*
X100061601Y-84131401D01*
X97321601Y-84131401D02*
X97321601Y-90671401D01*
X100061601Y-84131401D02*
X97321601Y-84131401D01*
X98691601Y-83361401D02*
X98691601Y-84131401D01*
%TO.C,DZ26*%
X168478200Y-51964000D02*
X168478200Y-50784000D01*
X167558200Y-50784000D02*
X169398200Y-50784000D01*
X169398200Y-50784000D02*
X169398200Y-47504000D01*
X167558200Y-50328000D02*
X169398200Y-50328000D01*
X167558200Y-50208000D02*
X169398200Y-50208000D01*
X167558200Y-50088000D02*
X169398200Y-50088000D01*
X167558200Y-47504000D02*
X167558200Y-50784000D01*
X169398200Y-47504000D02*
X167558200Y-47504000D01*
X168478200Y-46324000D02*
X168478200Y-47504000D01*
%TO.C,DZ11*%
X94310201Y-101462401D02*
X94310201Y-102642401D01*
X95230201Y-102642401D02*
X93390201Y-102642401D01*
X93390201Y-102642401D02*
X93390201Y-105922401D01*
X95230201Y-103098401D02*
X93390201Y-103098401D01*
X95230201Y-103218401D02*
X93390201Y-103218401D01*
X95230201Y-103338401D02*
X93390201Y-103338401D01*
X95230201Y-105922401D02*
X95230201Y-102642401D01*
X93390201Y-105922401D02*
X95230201Y-105922401D01*
X94310201Y-107102401D02*
X94310201Y-105922401D01*
%TO.C,DZ24*%
X164058600Y-51964000D02*
X164058600Y-50784000D01*
X163138600Y-50784000D02*
X164978600Y-50784000D01*
X164978600Y-50784000D02*
X164978600Y-47504000D01*
X163138600Y-50328000D02*
X164978600Y-50328000D01*
X163138600Y-50208000D02*
X164978600Y-50208000D01*
X163138600Y-50088000D02*
X164978600Y-50088000D01*
X163138600Y-47504000D02*
X163138600Y-50784000D01*
X164978600Y-47504000D02*
X163138600Y-47504000D01*
X164058600Y-46324000D02*
X164058600Y-47504000D01*
%TO.C,R13*%
X62483201Y-42697401D02*
X63253201Y-42697401D01*
X63253201Y-41327401D02*
X63253201Y-44067401D01*
X63253201Y-44067401D02*
X69793201Y-44067401D01*
X69793201Y-41327401D02*
X63253201Y-41327401D01*
X69793201Y-44067401D02*
X69793201Y-41327401D01*
X70563201Y-42697401D02*
X69793201Y-42697401D01*
%TO.C,R11*%
X98691601Y-73661401D02*
X98691601Y-72891401D01*
X97321601Y-72891401D02*
X100061601Y-72891401D01*
X100061601Y-72891401D02*
X100061601Y-66351401D01*
X97321601Y-66351401D02*
X97321601Y-72891401D01*
X100061601Y-66351401D02*
X97321601Y-66351401D01*
X98691601Y-65581401D02*
X98691601Y-66351401D01*
%TO.C,DZ15*%
X144170400Y-46324000D02*
X144170400Y-47504000D01*
X145090400Y-47504000D02*
X143250400Y-47504000D01*
X143250400Y-47504000D02*
X143250400Y-50784000D01*
X145090400Y-47960000D02*
X143250400Y-47960000D01*
X145090400Y-48080000D02*
X143250400Y-48080000D01*
X145090400Y-48200000D02*
X143250400Y-48200000D01*
X145090400Y-50784000D02*
X145090400Y-47504000D01*
X143250400Y-50784000D02*
X145090400Y-50784000D01*
X144170400Y-51964000D02*
X144170400Y-50784000D01*
%TO.C,DZ19*%
X153009600Y-46324000D02*
X153009600Y-47504000D01*
X153929600Y-47504000D02*
X152089600Y-47504000D01*
X152089600Y-47504000D02*
X152089600Y-50784000D01*
X153929600Y-47960000D02*
X152089600Y-47960000D01*
X153929600Y-48080000D02*
X152089600Y-48080000D01*
X153929600Y-48200000D02*
X152089600Y-48200000D01*
X153929600Y-50784000D02*
X153929600Y-47504000D01*
X152089600Y-50784000D02*
X153929600Y-50784000D01*
X153009600Y-51964000D02*
X153009600Y-50784000D01*
%TO.C,DZ6*%
X83261201Y-107102401D02*
X83261201Y-105922401D01*
X82341201Y-105922401D02*
X84181201Y-105922401D01*
X84181201Y-105922401D02*
X84181201Y-102642401D01*
X82341201Y-105466401D02*
X84181201Y-105466401D01*
X82341201Y-105346401D02*
X84181201Y-105346401D01*
X82341201Y-105226401D02*
X84181201Y-105226401D01*
X82341201Y-102642401D02*
X82341201Y-105922401D01*
X84181201Y-102642401D02*
X82341201Y-102642401D01*
X83261201Y-101462401D02*
X83261201Y-102642401D01*
%TO.C,DZ23*%
X161848800Y-46324000D02*
X161848800Y-47504000D01*
X162768800Y-47504000D02*
X160928800Y-47504000D01*
X160928800Y-47504000D02*
X160928800Y-50784000D01*
X162768800Y-47960000D02*
X160928800Y-47960000D01*
X162768800Y-48080000D02*
X160928800Y-48080000D01*
X162768800Y-48200000D02*
X160928800Y-48200000D01*
X162768800Y-50784000D02*
X162768800Y-47504000D01*
X160928800Y-50784000D02*
X162768800Y-50784000D01*
X161848800Y-51964000D02*
X161848800Y-50784000D01*
%TO.C,DZ22*%
X159639000Y-51964000D02*
X159639000Y-50784000D01*
X158719000Y-50784000D02*
X160559000Y-50784000D01*
X160559000Y-50784000D02*
X160559000Y-47504000D01*
X158719000Y-50328000D02*
X160559000Y-50328000D01*
X158719000Y-50208000D02*
X160559000Y-50208000D01*
X158719000Y-50088000D02*
X160559000Y-50088000D01*
X158719000Y-47504000D02*
X158719000Y-50784000D01*
X160559000Y-47504000D02*
X158719000Y-47504000D01*
X159639000Y-46324000D02*
X159639000Y-47504000D01*
%TO.C,K1*%
X178687200Y-56444000D02*
X172187200Y-56444000D01*
X178687200Y-56444000D02*
X178687200Y-75644000D01*
X169787200Y-56444000D02*
X163287200Y-56444000D01*
X170987200Y-60544000D02*
X170987200Y-59644000D01*
X170987200Y-60544000D02*
X167287200Y-60544000D01*
X172487200Y-61444000D02*
X172487200Y-66444000D01*
X169487200Y-61444000D02*
X172487200Y-61444000D01*
X164987200Y-61644000D02*
X164987200Y-63944000D01*
X176987200Y-63944000D02*
X176987200Y-61644000D01*
X176987200Y-63944000D02*
X172487200Y-63944000D01*
X169487200Y-63944000D02*
X164987200Y-63944000D01*
X172487200Y-66444000D02*
X169487200Y-66444000D01*
X169487200Y-66444000D02*
X172487200Y-61444000D01*
X169487200Y-66444000D02*
X169487200Y-61444000D01*
X170987200Y-67444000D02*
X167287200Y-67444000D01*
X170987200Y-67444000D02*
X170987200Y-68944000D01*
X167287200Y-67444000D02*
X167287200Y-60544000D01*
X170987200Y-68944000D02*
X173687200Y-73444000D01*
X175287200Y-72144000D02*
X172987200Y-72144000D01*
X166687200Y-72144000D02*
X168987200Y-72144000D01*
X178687200Y-75644000D02*
X163287200Y-75644000D01*
X163287200Y-75644000D02*
X163287200Y-56444000D01*
%TO.C,DZ3*%
X76631801Y-101462401D02*
X76631801Y-102642401D01*
X77551801Y-102642401D02*
X75711801Y-102642401D01*
X75711801Y-102642401D02*
X75711801Y-105922401D01*
X77551801Y-103098401D02*
X75711801Y-103098401D01*
X77551801Y-103218401D02*
X75711801Y-103218401D01*
X77551801Y-103338401D02*
X75711801Y-103338401D01*
X77551801Y-105922401D02*
X77551801Y-102642401D01*
X75711801Y-105922401D02*
X77551801Y-105922401D01*
X76631801Y-107102401D02*
X76631801Y-105922401D01*
%TO.C,ST2*%
X57988200Y-100101400D02*
X57988200Y-107721400D01*
X57988200Y-107721400D02*
X68148200Y-107721400D01*
X68148200Y-100101400D02*
X57988200Y-100101400D01*
X68148200Y-106451400D02*
X57988200Y-106451400D01*
X68148200Y-107721400D02*
X68148200Y-100101400D01*
%TO.C,R3*%
X48074201Y-91441401D02*
X48074201Y-90671401D01*
X46704201Y-90671401D02*
X49444201Y-90671401D01*
X49444201Y-90671401D02*
X49444201Y-84131401D01*
X46704201Y-84131401D02*
X46704201Y-90671401D01*
X49444201Y-84131401D02*
X46704201Y-84131401D01*
X48074201Y-83361401D02*
X48074201Y-84131401D01*
%TO.C,ST1*%
X142621000Y-100101400D02*
X142621000Y-107721400D01*
X142621000Y-107721400D02*
X152781000Y-107721400D01*
X152781000Y-100101400D02*
X142621000Y-100101400D01*
X152781000Y-106451400D02*
X142621000Y-106451400D01*
X152781000Y-107721400D02*
X152781000Y-100101400D01*
%TO.C,DZ9*%
X89890601Y-101462401D02*
X89890601Y-102642401D01*
X90810601Y-102642401D02*
X88970601Y-102642401D01*
X88970601Y-102642401D02*
X88970601Y-105922401D01*
X90810601Y-103098401D02*
X88970601Y-103098401D01*
X90810601Y-103218401D02*
X88970601Y-103218401D01*
X90810601Y-103338401D02*
X88970601Y-103338401D01*
X90810601Y-105922401D02*
X90810601Y-102642401D01*
X88970601Y-105922401D02*
X90810601Y-105922401D01*
X89890601Y-107102401D02*
X89890601Y-105922401D01*
%TO.C,SW1*%
X117815000Y-44170000D02*
X112675000Y-44170000D01*
X117815000Y-44170000D02*
X117815000Y-46830000D01*
X112675000Y-44170000D02*
X112675000Y-46830000D01*
X120415000Y-45500000D02*
X120415000Y-46830000D01*
X120415000Y-46830000D02*
X119085000Y-46830000D01*
X117815000Y-46830000D02*
X112675000Y-46830000D01*
%TO.C,K1*%
X155700200Y-56444000D02*
X149200200Y-56444000D01*
X155700200Y-56444000D02*
X155700200Y-75644000D01*
X146800200Y-56444000D02*
X140300200Y-56444000D01*
X148000200Y-60544000D02*
X148000200Y-59644000D01*
X148000200Y-60544000D02*
X144300200Y-60544000D01*
X149500200Y-61444000D02*
X149500200Y-66444000D01*
X146500200Y-61444000D02*
X149500200Y-61444000D01*
X142000200Y-61644000D02*
X142000200Y-63944000D01*
X154000200Y-63944000D02*
X154000200Y-61644000D01*
X154000200Y-63944000D02*
X149500200Y-63944000D01*
X146500200Y-63944000D02*
X142000200Y-63944000D01*
X149500200Y-66444000D02*
X146500200Y-66444000D01*
X146500200Y-66444000D02*
X149500200Y-61444000D01*
X146500200Y-66444000D02*
X146500200Y-61444000D01*
X148000200Y-67444000D02*
X144300200Y-67444000D01*
X148000200Y-67444000D02*
X148000200Y-68944000D01*
X144300200Y-67444000D02*
X144300200Y-60544000D01*
X148000200Y-68944000D02*
X150700200Y-73444000D01*
X152300200Y-72144000D02*
X150000200Y-72144000D01*
X143700200Y-72144000D02*
X146000200Y-72144000D01*
X155700200Y-75644000D02*
X140300200Y-75644000D01*
X140300200Y-75644000D02*
X140300200Y-56444000D01*
%TO.C,R1*%
X48074201Y-56011401D02*
X48074201Y-55241401D01*
X46704201Y-55241401D02*
X49444201Y-55241401D01*
X49444201Y-55241401D02*
X49444201Y-48701401D01*
X46704201Y-48701401D02*
X46704201Y-55241401D01*
X49444201Y-48701401D02*
X46704201Y-48701401D01*
X48074201Y-47931401D02*
X48074201Y-48701401D01*
%TO.C,R5*%
X71607201Y-73661401D02*
X71607201Y-72891401D01*
X70237201Y-72891401D02*
X72977201Y-72891401D01*
X72977201Y-72891401D02*
X72977201Y-66351401D01*
X70237201Y-66351401D02*
X70237201Y-72891401D01*
X72977201Y-66351401D02*
X70237201Y-66351401D01*
X71607201Y-65581401D02*
X71607201Y-66351401D01*
%TO.C,R4*%
X71607201Y-56008401D02*
X71607201Y-55238401D01*
X70237201Y-55238401D02*
X72977201Y-55238401D01*
X72977201Y-55238401D02*
X72977201Y-48698401D01*
X70237201Y-48698401D02*
X70237201Y-55238401D01*
X72977201Y-48698401D02*
X70237201Y-48698401D01*
X71607201Y-47928401D02*
X71607201Y-48698401D01*
D16*
%TO.C,TP3*%
X50239001Y-80321401D02*
X69439001Y-80321401D01*
X50239001Y-97021401D02*
X50239001Y-80321401D01*
X69439001Y-80321401D02*
X69439001Y-97021401D01*
X69439001Y-97021401D02*
X50239001Y-97021401D01*
D13*
X49739001Y-82271401D02*
G75*
G03*
X49539001Y-82271401I-100000J0D01*
G01*
X49539001Y-82271401D02*
G75*
G03*
X49739001Y-82271401I100000J0D01*
G01*
D16*
%TO.C,TP5*%
X77323401Y-62541401D02*
X96523401Y-62541401D01*
X77323401Y-79241401D02*
X77323401Y-62541401D01*
X96523401Y-62541401D02*
X96523401Y-79241401D01*
X96523401Y-79241401D02*
X77323401Y-79241401D01*
D13*
X76823401Y-64491401D02*
G75*
G03*
X76623401Y-64491401I-100000J0D01*
G01*
X76623401Y-64491401D02*
G75*
G03*
X76823401Y-64491401I100000J0D01*
G01*
D15*
%TO.C,ESP32-S3_FRONT1*%
X105165201Y-106705401D02*
X105165201Y-53305401D01*
X105165201Y-106705401D02*
X102505201Y-106705401D01*
X105165201Y-53305401D02*
X102505201Y-53305401D01*
X103835201Y-109305401D02*
X102505201Y-109305401D01*
X102505201Y-109305401D02*
X102505201Y-107975401D01*
X102505201Y-106705401D02*
X102505201Y-53305401D01*
D16*
%TO.C,TP1*%
X50239001Y-44888401D02*
X69439001Y-44888401D01*
X50239001Y-61588401D02*
X50239001Y-44888401D01*
X69439001Y-44888401D02*
X69439001Y-61588401D01*
X69439001Y-61588401D02*
X50239001Y-61588401D01*
D13*
X49739001Y-46838401D02*
G75*
G03*
X49539001Y-46838401I-100000J0D01*
G01*
X49539001Y-46838401D02*
G75*
G03*
X49739001Y-46838401I100000J0D01*
G01*
D15*
%TO.C,DZ12*%
X96520001Y-107102401D02*
X96520001Y-105922401D01*
X95600001Y-105922401D02*
X97440001Y-105922401D01*
X97440001Y-105922401D02*
X97440001Y-102642401D01*
X95600001Y-105466401D02*
X97440001Y-105466401D01*
X95600001Y-105346401D02*
X97440001Y-105346401D01*
X95600001Y-105226401D02*
X97440001Y-105226401D01*
X95600001Y-102642401D02*
X95600001Y-105922401D01*
X97440001Y-102642401D02*
X95600001Y-102642401D01*
X96520001Y-101462401D02*
X96520001Y-102642401D01*
%TD*%
M02*
