%TF.GenerationSoftware,KiCad,Pcbnew,7.0.10*%
%TF.CreationDate,2024-03-07T23:30:47-03:00*%
%TF.ProjectId,board,626f6172-642e-46b6-9963-61645f706362,rev?*%
%TF.SameCoordinates,Original*%
%TF.FileFunction,Copper,L2,Bot*%
%TF.FilePolarity,Positive*%
%FSLAX46Y46*%
G04 Gerber Fmt 4.6, Leading zero omitted, Abs format (unit mm)*
G04 Created by KiCad (PCBNEW 7.0.10) date 2024-03-07 23:30:47*
%MOMM*%
%LPD*%
G01*
G04 APERTURE LIST*
%TA.AperFunction,ComponentPad*%
%ADD10C,1.600000*%
%TD*%
%TA.AperFunction,ComponentPad*%
%ADD11O,1.600000X1.600000*%
%TD*%
%TA.AperFunction,ComponentPad*%
%ADD12C,1.500000*%
%TD*%
%TA.AperFunction,ComponentPad*%
%ADD13O,1.500000X1.500000*%
%TD*%
%TA.AperFunction,ComponentPad*%
%ADD14C,3.000000*%
%TD*%
%TA.AperFunction,ComponentPad*%
%ADD15C,1.508000*%
%TD*%
%TA.AperFunction,ComponentPad*%
%ADD16C,1.700000*%
%TD*%
%TA.AperFunction,ComponentPad*%
%ADD17O,1.700000X1.700000*%
%TD*%
%TA.AperFunction,ViaPad*%
%ADD18C,0.500000*%
%TD*%
%TA.AperFunction,ViaPad*%
%ADD19C,0.600000*%
%TD*%
%TA.AperFunction,Conductor*%
%ADD20C,0.200000*%
%TD*%
G04 APERTURE END LIST*
D10*
%TO.P,R15,1*%
%TO.N,Current_A_100A*%
X138232000Y-81272000D03*
D11*
%TO.P,R15,2*%
%TO.N,V_Ref_Current*%
X138232000Y-91432000D03*
%TD*%
D12*
%TO.P,DZ7,1,K*%
%TO.N,Line_BC_Wave*%
X85471001Y-100472401D03*
D13*
%TO.P,DZ7,2,A*%
%TO.N,GND*%
X85471001Y-108092401D03*
%TD*%
D12*
%TO.P,DZ17,1,K*%
%TO.N,Current_B_100A*%
X148590000Y-45334000D03*
D13*
%TO.P,DZ17,2,A*%
%TO.N,GND*%
X148590000Y-52954000D03*
%TD*%
D12*
%TO.P,DZ5,1,K*%
%TO.N,Line_C_Wave*%
X81051401Y-100472401D03*
D13*
%TO.P,DZ5,2,A*%
%TO.N,GND*%
X81051401Y-108092401D03*
%TD*%
D10*
%TO.P,R23,1*%
%TO.N,V_Ref_Current*%
X174904400Y-102108000D03*
D11*
%TO.P,R23,2*%
%TO.N,VCC*%
X185064400Y-102108000D03*
%TD*%
D12*
%TO.P,DZ1,1,K*%
%TO.N,Line_A_Wave*%
X72212201Y-100472401D03*
D13*
%TO.P,DZ1,2,A*%
%TO.N,GND*%
X72212201Y-108092401D03*
%TD*%
D14*
%TO.P,ST1,1,Pin_1*%
%TO.N,Line_A*%
X50368200Y-103911400D03*
%TO.P,ST1,2,Pin_2*%
%TO.N,Line_B*%
X55448200Y-103911400D03*
%TD*%
D10*
%TO.P,R21,1*%
%TO.N,Current_C_30A*%
X161219000Y-72144000D03*
D11*
%TO.P,R21,2*%
%TO.N,V_Ref_Current*%
X161219000Y-61984000D03*
%TD*%
D10*
%TO.P,R17,1*%
%TO.N,Current_B_100A*%
X161219000Y-81272000D03*
D11*
%TO.P,R17,2*%
%TO.N,V_Ref_Current*%
X161219000Y-91432000D03*
%TD*%
D12*
%TO.P,DZ21,1,K*%
%TO.N,Current_C_100A*%
X157429200Y-45334000D03*
D13*
%TO.P,DZ21,2,A*%
%TO.N,GND*%
X157429200Y-52954000D03*
%TD*%
D12*
%TO.P,DZ18,1,K*%
%TO.N,VCC*%
X150799800Y-52954000D03*
D13*
%TO.P,DZ18,2,A*%
%TO.N,Current_B_100A*%
X150799800Y-45334000D03*
%TD*%
D15*
%TO.P,TP4,1*%
%TO.N,Line_AB_Load*%
X81923401Y-46888401D03*
%TO.P,TP4,2*%
%TO.N,Line_B*%
X81923401Y-59588401D03*
%TO.P,TP4,3*%
%TO.N,V_Ref_Voltage*%
X91923401Y-59588401D03*
%TO.P,TP4,4*%
%TO.N,Line_AB_Wave*%
X91923401Y-46888401D03*
%TD*%
D12*
%TO.P,D1,1,K*%
%TO.N,Select_Current*%
X106385000Y-50825400D03*
D13*
%TO.P,D1,2,A*%
%TO.N,GND*%
X114005000Y-50825400D03*
%TD*%
D12*
%TO.P,DZ10,1,K*%
%TO.N,VCC*%
X92100401Y-108092401D03*
D13*
%TO.P,DZ10,2,A*%
%TO.N,Line_AC_Wave*%
X92100401Y-100472401D03*
%TD*%
D12*
%TO.P,DZ16,1,K*%
%TO.N,VCC*%
X146380200Y-52954000D03*
D13*
%TO.P,DZ16,2,A*%
%TO.N,Current_A_30A*%
X146380200Y-45334000D03*
%TD*%
D14*
%TO.P,K1,11*%
%TO.N,Current_A*%
X148000200Y-95472000D03*
%TO.P,K1,12*%
%TO.N,Current_A_100A*%
X142000200Y-81272000D03*
%TO.P,K1,14*%
%TO.N,Current_A_30A*%
X154000200Y-81272000D03*
%TO.P,K1,A1*%
%TO.N,Select_Current*%
X154000200Y-93472000D03*
%TO.P,K1,A2*%
%TO.N,GND*%
X142000200Y-93472000D03*
%TD*%
%TO.P,ST1,1,Pin_1*%
%TO.N,V_Ref_Current*%
X155321000Y-103911400D03*
%TO.P,ST1,2,Pin_2*%
%TO.N,Current_C*%
X160401000Y-103911400D03*
%TD*%
D12*
%TO.P,DZ4,1,K*%
%TO.N,VCC*%
X78841601Y-108092401D03*
D13*
%TO.P,DZ4,2,A*%
%TO.N,Line_B_Wave*%
X78841601Y-100472401D03*
%TD*%
D10*
%TO.P,R18,1*%
%TO.N,Current_B_30A*%
X180755400Y-81272000D03*
D11*
%TO.P,R18,2*%
%TO.N,V_Ref_Current*%
X180755400Y-91432000D03*
%TD*%
D10*
%TO.P,R16,1*%
%TO.N,Current_A_30A*%
X157768400Y-81272000D03*
D11*
%TO.P,R16,2*%
%TO.N,V_Ref_Current*%
X157768400Y-91432000D03*
%TD*%
D15*
%TO.P,TP6,1*%
%TO.N,Line_BC_Load*%
X81923401Y-82321401D03*
%TO.P,TP6,2*%
%TO.N,Line_C*%
X81923401Y-95021401D03*
%TO.P,TP6,3*%
%TO.N,V_Ref_Voltage*%
X91923401Y-95021401D03*
%TO.P,TP6,4*%
%TO.N,Line_BC_Wave*%
X91923401Y-82321401D03*
%TD*%
D12*
%TO.P,DZ25,1,K*%
%TO.N,Current_N_300A*%
X166268400Y-45334000D03*
D13*
%TO.P,DZ25,2,A*%
%TO.N,GND*%
X166268400Y-52954000D03*
%TD*%
D10*
%TO.P,R7,1*%
%TO.N,Line_A*%
X75158601Y-57048401D03*
D11*
%TO.P,R7,2*%
%TO.N,Line_AB_Load*%
X75158601Y-46888401D03*
%TD*%
D10*
%TO.P,R6,1*%
%TO.N,V_Ref_Voltage*%
X71607201Y-92481401D03*
D11*
%TO.P,R6,2*%
%TO.N,Line_C_Wave*%
X71607201Y-82321401D03*
%TD*%
D12*
%TO.P,DZ2,1,K*%
%TO.N,VCC*%
X74422001Y-108092401D03*
D13*
%TO.P,DZ2,2,A*%
%TO.N,Line_A_Wave*%
X74422001Y-100472401D03*
%TD*%
D12*
%TO.P,DZ20,1,K*%
%TO.N,VCC*%
X155219400Y-52954000D03*
D13*
%TO.P,DZ20,2,A*%
%TO.N,Current_B_30A*%
X155219400Y-45334000D03*
%TD*%
D10*
%TO.P,R20,1*%
%TO.N,Current_N_300A*%
X157768400Y-72144000D03*
D11*
%TO.P,R20,2*%
%TO.N,V_Ref_Current*%
X157768400Y-61984000D03*
%TD*%
D12*
%TO.P,DZ27,1,K*%
%TO.N,Current_N_90A*%
X170688000Y-45334000D03*
D13*
%TO.P,DZ27,2,A*%
%TO.N,GND*%
X170688000Y-52954000D03*
%TD*%
D10*
%TO.P,R22,1*%
%TO.N,Current_C_100A*%
X180755400Y-72144000D03*
D11*
%TO.P,R22,2*%
%TO.N,V_Ref_Current*%
X180755400Y-61984000D03*
%TD*%
D12*
%TO.P,DZ8,1,K*%
%TO.N,VCC*%
X87680801Y-108092401D03*
D13*
%TO.P,DZ8,2,A*%
%TO.N,Line_BC_Wave*%
X87680801Y-100472401D03*
%TD*%
D10*
%TO.P,R10,1*%
%TO.N,V_Ref_Voltage*%
X98691601Y-57048401D03*
D11*
%TO.P,R10,2*%
%TO.N,Line_AB_Wave*%
X98691601Y-46888401D03*
%TD*%
D12*
%TO.P,DZ14,1,K*%
%TO.N,VCC*%
X141960600Y-52954000D03*
D13*
%TO.P,DZ14,2,A*%
%TO.N,Current_A_100A*%
X141960600Y-45334000D03*
%TD*%
D14*
%TO.P,ST1,1,Pin_1*%
%TO.N,V_Ref_Current*%
X165481000Y-103911400D03*
%TO.P,ST1,2,Pin_2*%
%TO.N,Current_N*%
X170561000Y-103911400D03*
%TD*%
D10*
%TO.P,R2,1*%
%TO.N,Line_B*%
X48074201Y-74701401D03*
D11*
%TO.P,R2,2*%
%TO.N,Line_B_Load*%
X48074201Y-64541401D03*
%TD*%
D16*
%TO.P,ESP32-S3_BACK1,1,Pin_1*%
%TO.N,GND*%
X129235201Y-107975401D03*
D17*
%TO.P,ESP32-S3_BACK1,2,Pin_2*%
%TO.N,N/C*%
X129235201Y-105435401D03*
%TO.P,ESP32-S3_BACK1,3,Pin_3*%
X129235201Y-102895401D03*
%TO.P,ESP32-S3_BACK1,4,Pin_4*%
X129235201Y-100355401D03*
%TO.P,ESP32-S3_BACK1,5,Pin_5*%
X129235201Y-97815401D03*
%TO.P,ESP32-S3_BACK1,6,Pin_6*%
X129235201Y-95275401D03*
%TO.P,ESP32-S3_BACK1,7,Pin_7*%
X129235201Y-92735401D03*
%TO.P,ESP32-S3_BACK1,8,Pin_8*%
X129235201Y-90195401D03*
%TO.P,ESP32-S3_BACK1,9,Pin_9*%
X129235201Y-87655401D03*
%TO.P,ESP32-S3_BACK1,10,Pin_10*%
X129235201Y-85115401D03*
%TO.P,ESP32-S3_BACK1,11,Pin_11*%
X129235201Y-82575401D03*
%TO.P,ESP32-S3_BACK1,12,Pin_12*%
X129235201Y-80035401D03*
%TO.P,ESP32-S3_BACK1,13,Pin_13*%
X129235201Y-77495401D03*
%TO.P,ESP32-S3_BACK1,14,Pin_14*%
X129235201Y-74955401D03*
%TO.P,ESP32-S3_BACK1,15,Pin_15*%
X129235201Y-72415401D03*
%TO.P,ESP32-S3_BACK1,16,Pin_16*%
X129235201Y-69875401D03*
%TO.P,ESP32-S3_BACK1,17,Pin_17*%
X129235201Y-67335401D03*
%TO.P,ESP32-S3_BACK1,18,Pin_18*%
X129235201Y-64795401D03*
%TO.P,ESP32-S3_BACK1,19,Pin_19*%
X129235201Y-62255401D03*
%TO.P,ESP32-S3_BACK1,20,Pin_20*%
X129235201Y-59715401D03*
%TO.P,ESP32-S3_BACK1,21,Pin_21*%
X129235201Y-57175401D03*
%TO.P,ESP32-S3_BACK1,22,Pin_22*%
%TO.N,GND*%
X129235201Y-54635401D03*
%TD*%
D12*
%TO.P,DZ28,1,K*%
%TO.N,VCC*%
X172897800Y-52954000D03*
D13*
%TO.P,DZ28,2,A*%
%TO.N,Current_N_90A*%
X172897800Y-45334000D03*
%TD*%
D10*
%TO.P,R14,1*%
%TO.N,VCC*%
X85324201Y-42697401D03*
D11*
%TO.P,R14,2*%
%TO.N,V_Ref_Voltage*%
X75164201Y-42697401D03*
%TD*%
D10*
%TO.P,R19,1*%
%TO.N,Current_N_90A*%
X138232000Y-72144000D03*
D11*
%TO.P,R19,2*%
%TO.N,V_Ref_Current*%
X138232000Y-61984000D03*
%TD*%
D12*
%TO.P,DZ13,1,K*%
%TO.N,Current_A_100A*%
X139750800Y-45334000D03*
D13*
%TO.P,DZ13,2,A*%
%TO.N,GND*%
X139750800Y-52954000D03*
%TD*%
D15*
%TO.P,TP2,1*%
%TO.N,Line_B_Load*%
X54839001Y-64541401D03*
%TO.P,TP2,2*%
%TO.N,Neutral*%
X54839001Y-77241401D03*
%TO.P,TP2,3*%
%TO.N,V_Ref_Voltage*%
X64839001Y-77241401D03*
%TO.P,TP2,4*%
%TO.N,Line_B_Wave*%
X64839001Y-64541401D03*
%TD*%
D14*
%TO.P,ST1,1,Pin_1*%
%TO.N,V_Ref_Current*%
X135001000Y-103911400D03*
%TO.P,ST1,2,Pin_2*%
%TO.N,Current_A*%
X140081000Y-103911400D03*
%TD*%
%TO.P,K1,11*%
%TO.N,Current_B*%
X170987200Y-95472000D03*
%TO.P,K1,12*%
%TO.N,Current_B_100A*%
X164987200Y-81272000D03*
%TO.P,K1,14*%
%TO.N,Current_B_30A*%
X176987200Y-81272000D03*
%TO.P,K1,A1*%
%TO.N,Select_Current*%
X176987200Y-93472000D03*
%TO.P,K1,A2*%
%TO.N,GND*%
X164987200Y-93472000D03*
%TD*%
D10*
%TO.P,R9,1*%
%TO.N,Line_B*%
X75158601Y-92481401D03*
D11*
%TO.P,R9,2*%
%TO.N,Line_BC_Load*%
X75158601Y-82321401D03*
%TD*%
D10*
%TO.P,R24,1*%
%TO.N,V_Ref_Current*%
X174904400Y-105587800D03*
D11*
%TO.P,R24,2*%
%TO.N,GND*%
X185064400Y-105587800D03*
%TD*%
D10*
%TO.P,R8,1*%
%TO.N,Line_A*%
X75158601Y-74701401D03*
D11*
%TO.P,R8,2*%
%TO.N,Line_AC_Load*%
X75158601Y-64541401D03*
%TD*%
D10*
%TO.P,R12,1*%
%TO.N,V_Ref_Voltage*%
X98691601Y-92481401D03*
D11*
%TO.P,R12,2*%
%TO.N,Line_BC_Wave*%
X98691601Y-82321401D03*
%TD*%
D12*
%TO.P,DZ26,1,K*%
%TO.N,VCC*%
X168478200Y-52954000D03*
D13*
%TO.P,DZ26,2,A*%
%TO.N,Current_N_300A*%
X168478200Y-45334000D03*
%TD*%
D12*
%TO.P,DZ11,1,K*%
%TO.N,Line_AB_Wave*%
X94310201Y-100472401D03*
D13*
%TO.P,DZ11,2,A*%
%TO.N,GND*%
X94310201Y-108092401D03*
%TD*%
D12*
%TO.P,DZ24,1,K*%
%TO.N,VCC*%
X164058600Y-52954000D03*
D13*
%TO.P,DZ24,2,A*%
%TO.N,Current_C_30A*%
X164058600Y-45334000D03*
%TD*%
D10*
%TO.P,R13,1*%
%TO.N,GND*%
X61443201Y-42697401D03*
D11*
%TO.P,R13,2*%
%TO.N,V_Ref_Voltage*%
X71603201Y-42697401D03*
%TD*%
D10*
%TO.P,R11,1*%
%TO.N,V_Ref_Voltage*%
X98691601Y-74701401D03*
D11*
%TO.P,R11,2*%
%TO.N,Line_AC_Wave*%
X98691601Y-64541401D03*
%TD*%
D12*
%TO.P,DZ15,1,K*%
%TO.N,Current_A_30A*%
X144170400Y-45334000D03*
D13*
%TO.P,DZ15,2,A*%
%TO.N,GND*%
X144170400Y-52954000D03*
%TD*%
D12*
%TO.P,DZ19,1,K*%
%TO.N,Current_B_30A*%
X153009600Y-45334000D03*
D13*
%TO.P,DZ19,2,A*%
%TO.N,GND*%
X153009600Y-52954000D03*
%TD*%
D12*
%TO.P,DZ6,1,K*%
%TO.N,VCC*%
X83261201Y-108092401D03*
D13*
%TO.P,DZ6,2,A*%
%TO.N,Line_C_Wave*%
X83261201Y-100472401D03*
%TD*%
D12*
%TO.P,DZ23,1,K*%
%TO.N,Current_C_30A*%
X161848800Y-45334000D03*
D13*
%TO.P,DZ23,2,A*%
%TO.N,GND*%
X161848800Y-52954000D03*
%TD*%
D12*
%TO.P,DZ22,1,K*%
%TO.N,VCC*%
X159639000Y-52954000D03*
D13*
%TO.P,DZ22,2,A*%
%TO.N,Current_C_100A*%
X159639000Y-45334000D03*
%TD*%
D14*
%TO.P,K1,11*%
%TO.N,Current_C*%
X170987200Y-57944000D03*
%TO.P,K1,12*%
%TO.N,Current_C_100A*%
X176987200Y-72144000D03*
%TO.P,K1,14*%
%TO.N,Current_C_30A*%
X164987200Y-72144000D03*
%TO.P,K1,A1*%
%TO.N,GND*%
X164987200Y-59944000D03*
%TO.P,K1,A2*%
%TO.N,Select_Current*%
X176987200Y-59944000D03*
%TD*%
D12*
%TO.P,DZ3,1,K*%
%TO.N,Line_B_Wave*%
X76631801Y-100472401D03*
D13*
%TO.P,DZ3,2,A*%
%TO.N,GND*%
X76631801Y-108092401D03*
%TD*%
D14*
%TO.P,ST2,1,Pin_1*%
%TO.N,Line_C*%
X60528200Y-103911400D03*
%TO.P,ST2,2,Pin_2*%
%TO.N,Neutral*%
X65608200Y-103911400D03*
%TD*%
D10*
%TO.P,R3,1*%
%TO.N,Line_C*%
X48074201Y-92481401D03*
D11*
%TO.P,R3,2*%
%TO.N,Line_C_Load*%
X48074201Y-82321401D03*
%TD*%
D14*
%TO.P,ST1,1,Pin_1*%
%TO.N,V_Ref_Current*%
X145161000Y-103911400D03*
%TO.P,ST1,2,Pin_2*%
%TO.N,Current_B*%
X150241000Y-103911400D03*
%TD*%
D12*
%TO.P,DZ9,1,K*%
%TO.N,Line_AC_Wave*%
X89890601Y-100472401D03*
D13*
%TO.P,DZ9,2,A*%
%TO.N,GND*%
X89890601Y-108092401D03*
%TD*%
D16*
%TO.P,SW1,1,A*%
%TO.N,VCC*%
X119085000Y-45500000D03*
D17*
%TO.P,SW1,2,B*%
%TO.N,Select_Current*%
X116545000Y-45500000D03*
%TO.P,SW1,3,C*%
%TO.N,GND*%
X114005000Y-45500000D03*
%TD*%
D14*
%TO.P,K1,11*%
%TO.N,Current_N*%
X148000200Y-57944000D03*
%TO.P,K1,12*%
%TO.N,Current_N_300A*%
X154000200Y-72144000D03*
%TO.P,K1,14*%
%TO.N,Current_N_90A*%
X142000200Y-72144000D03*
%TO.P,K1,A1*%
%TO.N,GND*%
X142000200Y-59944000D03*
%TO.P,K1,A2*%
%TO.N,Select_Current*%
X154000200Y-59944000D03*
%TD*%
D10*
%TO.P,R1,1*%
%TO.N,Line_A*%
X48074201Y-57051401D03*
D11*
%TO.P,R1,2*%
%TO.N,Line_A_Load*%
X48074201Y-46891401D03*
%TD*%
D10*
%TO.P,R5,1*%
%TO.N,V_Ref_Voltage*%
X71607201Y-74701401D03*
D11*
%TO.P,R5,2*%
%TO.N,Line_B_Wave*%
X71607201Y-64541401D03*
%TD*%
D10*
%TO.P,R4,1*%
%TO.N,V_Ref_Voltage*%
X71607201Y-57048401D03*
D11*
%TO.P,R4,2*%
%TO.N,Line_A_Wave*%
X71607201Y-46888401D03*
%TD*%
D15*
%TO.P,TP3,1*%
%TO.N,Line_C_Load*%
X54839001Y-82321401D03*
%TO.P,TP3,2*%
%TO.N,Neutral*%
X54839001Y-95021401D03*
%TO.P,TP3,3*%
%TO.N,V_Ref_Voltage*%
X64839001Y-95021401D03*
%TO.P,TP3,4*%
%TO.N,Line_C_Wave*%
X64839001Y-82321401D03*
%TD*%
%TO.P,TP5,1*%
%TO.N,Line_AC_Load*%
X81923401Y-64541401D03*
%TO.P,TP5,2*%
%TO.N,Line_C*%
X81923401Y-77241401D03*
%TO.P,TP5,3*%
%TO.N,V_Ref_Voltage*%
X91923401Y-77241401D03*
%TO.P,TP5,4*%
%TO.N,Line_AC_Wave*%
X91923401Y-64541401D03*
%TD*%
D16*
%TO.P,ESP32-S3_FRONT1,1,Pin_1*%
%TO.N,GND*%
X103835201Y-107975401D03*
D17*
%TO.P,ESP32-S3_FRONT1,2,Pin_2*%
%TO.N,N/C*%
X103835201Y-105435401D03*
%TO.P,ESP32-S3_FRONT1,3,Pin_3*%
%TO.N,Line_C_Wave*%
X103835201Y-102895401D03*
%TO.P,ESP32-S3_FRONT1,4,Pin_4*%
%TO.N,Line_B_Wave*%
X103835201Y-100355401D03*
%TO.P,ESP32-S3_FRONT1,5,Pin_5*%
%TO.N,Line_A_Wave*%
X103835201Y-97815401D03*
%TO.P,ESP32-S3_FRONT1,6,Pin_6*%
%TO.N,Line_AB_Wave*%
X103835201Y-95275401D03*
%TO.P,ESP32-S3_FRONT1,7,Pin_7*%
%TO.N,Line_AC_Wave*%
X103835201Y-92735401D03*
%TO.P,ESP32-S3_FRONT1,8,Pin_8*%
%TO.N,Line_BC_Wave*%
X103835201Y-90195401D03*
%TO.P,ESP32-S3_FRONT1,9,Pin_9*%
%TO.N,Current_A_100A*%
X103835201Y-87655401D03*
%TO.P,ESP32-S3_FRONT1,10,Pin_10*%
%TO.N,Current_A_30A*%
X103835201Y-85115401D03*
%TO.P,ESP32-S3_FRONT1,11,Pin_11*%
%TO.N,Current_B_100A*%
X103835201Y-82575401D03*
%TO.P,ESP32-S3_FRONT1,12,Pin_12*%
%TO.N,Current_B_30A*%
X103835201Y-80035401D03*
%TO.P,ESP32-S3_FRONT1,13,Pin_13*%
%TO.N,Current_C_100A*%
X103835201Y-77495401D03*
%TO.P,ESP32-S3_FRONT1,14,Pin_14*%
%TO.N,Current_C_30A*%
X103835201Y-74955401D03*
%TO.P,ESP32-S3_FRONT1,15,Pin_15*%
%TO.N,Current_N_300A*%
X103835201Y-72415401D03*
%TO.P,ESP32-S3_FRONT1,16,Pin_16*%
%TO.N,Current_N_90A*%
X103835201Y-69875401D03*
%TO.P,ESP32-S3_FRONT1,17,Pin_17*%
%TO.N,Select_Current*%
X103835201Y-67335401D03*
%TO.P,ESP32-S3_FRONT1,18,Pin_18*%
%TO.N,N/C*%
X103835201Y-64795401D03*
%TO.P,ESP32-S3_FRONT1,19,Pin_19*%
X103835201Y-62255401D03*
%TO.P,ESP32-S3_FRONT1,20,Pin_20*%
X103835201Y-59715401D03*
%TO.P,ESP32-S3_FRONT1,21,Pin_21*%
X103835201Y-57175401D03*
%TO.P,ESP32-S3_FRONT1,22,Pin_22*%
%TO.N,VCC*%
X103835201Y-54635401D03*
%TD*%
D15*
%TO.P,TP1,1*%
%TO.N,Line_A_Load*%
X54839001Y-46888401D03*
%TO.P,TP1,2*%
%TO.N,Neutral*%
X54839001Y-59588401D03*
%TO.P,TP1,3*%
%TO.N,V_Ref_Voltage*%
X64839001Y-59588401D03*
%TO.P,TP1,4*%
%TO.N,Line_A_Wave*%
X64839001Y-46888401D03*
%TD*%
D12*
%TO.P,DZ12,1,K*%
%TO.N,VCC*%
X96520001Y-108092401D03*
D13*
%TO.P,DZ12,2,A*%
%TO.N,Line_AB_Wave*%
X96520001Y-100472401D03*
%TD*%
D18*
%TO.N,Line_AC_Wave*%
X101015801Y-92735401D03*
%TO.N,Line_BC_Wave*%
X100457001Y-90195401D03*
%TO.N,Line_AB_Wave*%
X101574601Y-95275401D03*
%TO.N,Current_A_30A*%
X130556000Y-50800000D03*
%TO.N,Current_A_100A*%
X131310091Y-51569909D03*
%TO.N,Current_B_30A*%
X129039909Y-49268091D03*
%TO.N,Current_B_100A*%
X129794000Y-50038000D03*
%TO.N,Current_N_300A*%
X126746000Y-46990000D03*
%TO.N,Current_N_90A*%
X125984000Y-46228000D03*
%TO.N,Current_C_30A*%
X127515909Y-47744091D03*
%TO.N,Current_C_100A*%
X128270000Y-48514000D03*
D19*
%TO.N,Select_Current*%
X176987200Y-53467000D03*
%TD*%
D20*
%TO.N,Line_AC_Wave*%
X99745801Y-64541401D02*
X101015801Y-65811401D01*
X101015801Y-95986601D02*
X98425001Y-98577401D01*
X93995401Y-98577401D02*
X92100401Y-100472401D01*
X98691601Y-64541401D02*
X99745801Y-64541401D01*
X98425001Y-98577401D02*
X93995401Y-98577401D01*
X101015801Y-65811401D02*
X101015801Y-95986601D01*
%TO.N,GND*%
X72212201Y-109169201D02*
X72872601Y-109829601D01*
X160223200Y-54579600D02*
X160223200Y-54584600D01*
X86131401Y-109829601D02*
X90551001Y-109829601D01*
X148590000Y-52954000D02*
X146964400Y-54579600D01*
X131699000Y-95423000D02*
X131699000Y-61518800D01*
X144170400Y-52954000D02*
X142544800Y-54579600D01*
X169057400Y-54584600D02*
X170688000Y-52954000D01*
X155803600Y-54584600D02*
X160223200Y-54584600D01*
X131699000Y-61518800D02*
X133273800Y-59944000D01*
X181914800Y-108737400D02*
X185064400Y-105587800D01*
X143408400Y-64516000D02*
X163576000Y-64516000D01*
X89890601Y-109169201D02*
X90551001Y-109829601D01*
X76631801Y-108092401D02*
X76631801Y-109169201D01*
X90551001Y-109829601D02*
X92573001Y-109829601D01*
X81711801Y-109829601D02*
X86131401Y-109829601D01*
X166268400Y-52954000D02*
X164637800Y-54584600D01*
X151384000Y-54584600D02*
X155803600Y-54584600D01*
X139750800Y-52954000D02*
X141381400Y-54584600D01*
X131699000Y-107315000D02*
X131699000Y-95423000D01*
X85471001Y-109169201D02*
X86131401Y-109829601D01*
X163576000Y-64516000D02*
X164987200Y-63104800D01*
X131800598Y-108737400D02*
X181914800Y-108737400D01*
X76987401Y-109829601D02*
X81711801Y-109829601D01*
X164987200Y-63104800D02*
X164987200Y-59944000D01*
X72872601Y-109829601D02*
X76987401Y-109829601D01*
X81051401Y-108092401D02*
X81051401Y-109169201D01*
X133650000Y-93472000D02*
X142000200Y-93472000D01*
X157429200Y-52954000D02*
X155803600Y-54579600D01*
X142544800Y-54584600D02*
X146964400Y-54584600D01*
X131699000Y-95423000D02*
X133650000Y-93472000D01*
X142000200Y-90409800D02*
X143510000Y-88900000D01*
X143510000Y-88900000D02*
X163449000Y-88900000D01*
X85471001Y-108092401D02*
X85471001Y-109169201D01*
X142544800Y-54579600D02*
X142544800Y-54584600D01*
X129235201Y-107975401D02*
X131038599Y-107975401D01*
X72212201Y-108092401D02*
X72212201Y-109169201D01*
X89890601Y-108092401D02*
X89890601Y-109169201D01*
X133273800Y-59944000D02*
X142000200Y-59944000D01*
X153009600Y-52954000D02*
X151384000Y-54579600D01*
X130911602Y-52959000D02*
X139745800Y-52959000D01*
X142000200Y-93472000D02*
X142000200Y-90409800D01*
X114005000Y-50825400D02*
X114005000Y-45500000D01*
X146964400Y-54584600D02*
X151384000Y-54584600D01*
X131038599Y-107975401D02*
X131699000Y-107315000D01*
X141381400Y-54584600D02*
X142544800Y-54584600D01*
X151384000Y-54579600D02*
X151384000Y-54584600D01*
X92573001Y-109829601D02*
X94310201Y-108092401D01*
X160223200Y-54584600D02*
X169057400Y-54584600D01*
X129235201Y-54635401D02*
X130911602Y-52959000D01*
X164987200Y-90438200D02*
X164987200Y-93472000D01*
X76631801Y-109169201D02*
X77292201Y-109829601D01*
X155803600Y-54579600D02*
X155803600Y-54584600D01*
X142000200Y-59944000D02*
X142000200Y-63107800D01*
X163449000Y-88900000D02*
X164987200Y-90438200D01*
X131038599Y-107975401D02*
X131800598Y-108737400D01*
X146964400Y-54579600D02*
X146964400Y-54584600D01*
X114005000Y-45500000D02*
X123140401Y-54635401D01*
X123140401Y-54635401D02*
X129235201Y-54635401D01*
X142000200Y-63107800D02*
X143408400Y-64516000D01*
X161848800Y-52954000D02*
X160223200Y-54579600D01*
X81051401Y-109169201D02*
X81711801Y-109829601D01*
X139745800Y-52959000D02*
X139750800Y-52954000D01*
%TO.N,VCC*%
X106375201Y-108940601D02*
X106375201Y-109677199D01*
X98866800Y-110439200D02*
X96520001Y-108092401D01*
X186690000Y-106934000D02*
X186690000Y-102590600D01*
X186207400Y-102108000D02*
X185064400Y-102108000D01*
X107188000Y-110439200D02*
X183184800Y-110439200D01*
X106375201Y-109626401D02*
X107188000Y-110439200D01*
X106375201Y-108940601D02*
X106375201Y-109626401D01*
X116282401Y-42697401D02*
X101574602Y-42697401D01*
X106375201Y-55321201D02*
X106375201Y-108940601D01*
X101574602Y-42697401D02*
X85324201Y-42697401D01*
X119085000Y-45500000D02*
X116282401Y-42697401D01*
X103835201Y-44958000D02*
X101574602Y-42697401D01*
X106375201Y-109677199D02*
X105613200Y-110439200D01*
X183184800Y-110439200D02*
X186690000Y-106934000D01*
X103835201Y-54635401D02*
X103835201Y-44958000D01*
X103835201Y-54635401D02*
X105689401Y-54635401D01*
X186690000Y-102590600D02*
X186207400Y-102108000D01*
X105613200Y-110439200D02*
X98866800Y-110439200D01*
X105689401Y-54635401D02*
X106375201Y-55321201D01*
%TO.N,Line_BC_Wave*%
X100457001Y-95808801D02*
X98196401Y-98069401D01*
X99745801Y-82321401D02*
X100457001Y-83032601D01*
X98691601Y-82321401D02*
X99745801Y-82321401D01*
X90083801Y-98069401D02*
X87680801Y-100472401D01*
X98196401Y-98069401D02*
X90083801Y-98069401D01*
X100457001Y-83032601D02*
X100457001Y-95808801D01*
%TO.N,Line_AB_Wave*%
X96520001Y-100472401D02*
X97907001Y-99085401D01*
X101574601Y-48717201D02*
X99745801Y-46888401D01*
X98641973Y-99085401D02*
X101574601Y-96152773D01*
X97907001Y-99085401D02*
X98641973Y-99085401D01*
X99745801Y-46888401D02*
X98691601Y-46888401D01*
X101574601Y-96152773D02*
X101574601Y-48717201D01*
%TO.N,Line_C_Wave*%
X63830201Y-97561401D02*
X62636401Y-96367601D01*
X78140401Y-97561401D02*
X63830201Y-97561401D01*
X62636401Y-84524001D02*
X64839001Y-82321401D01*
X62636401Y-96367601D02*
X62636401Y-84524001D01*
X81051401Y-100472401D02*
X78140401Y-97561401D01*
%TO.N,Line_B_Wave*%
X62052201Y-96545401D02*
X62052201Y-67328201D01*
X62052201Y-67328201D02*
X64839001Y-64541401D01*
X76631801Y-100472401D02*
X74228801Y-98069401D01*
X74228801Y-98069401D02*
X63576201Y-98069401D01*
X63576201Y-98069401D02*
X62052201Y-96545401D01*
%TO.N,Line_A_Wave*%
X61493401Y-96748601D02*
X63322201Y-98577401D01*
X70317201Y-98577401D02*
X72212201Y-100472401D01*
X61493401Y-50234001D02*
X61493401Y-96748601D01*
X64839001Y-46888401D02*
X61493401Y-50234001D01*
X72222201Y-100482401D02*
X72212201Y-100472401D01*
X63322201Y-98577401D02*
X70317201Y-98577401D01*
%TO.N,Current_A_30A*%
X137922000Y-43434000D02*
X144480200Y-43434000D01*
X144480200Y-43434000D02*
X146380200Y-45334000D01*
X130556000Y-50800000D02*
X137922000Y-43434000D01*
%TO.N,Current_A_100A*%
X140568600Y-43942000D02*
X141960600Y-45334000D01*
X138938000Y-43942000D02*
X140568600Y-43942000D01*
X131310091Y-51569909D02*
X138938000Y-43942000D01*
%TO.N,Current_B_30A*%
X135890000Y-42418000D02*
X152303400Y-42418000D01*
X152303400Y-42418000D02*
X155219400Y-45334000D01*
X129039909Y-49268091D02*
X135890000Y-42418000D01*
%TO.N,Current_B_100A*%
X136906000Y-42926000D02*
X148391800Y-42926000D01*
X129794000Y-50038000D02*
X136906000Y-42926000D01*
X148391800Y-42926000D02*
X150799800Y-45334000D01*
%TO.N,Current_N_300A*%
X164038200Y-40894000D02*
X168478200Y-45334000D01*
X126746000Y-46990000D02*
X132842000Y-40894000D01*
X132842000Y-40894000D02*
X164038200Y-40894000D01*
%TO.N,Current_N_90A*%
X167949800Y-40386000D02*
X172897800Y-45334000D01*
X131826000Y-40386000D02*
X167949800Y-40386000D01*
X125984000Y-46228000D02*
X131826000Y-40386000D01*
%TO.N,Current_C_30A*%
X160126600Y-41402000D02*
X164058600Y-45334000D01*
X133858000Y-41402000D02*
X160126600Y-41402000D01*
X127515909Y-47744091D02*
X133858000Y-41402000D01*
%TO.N,Current_C_100A*%
X156215000Y-41910000D02*
X159639000Y-45334000D01*
X128270000Y-48514000D02*
X134874000Y-41910000D01*
X134874000Y-41910000D02*
X156215000Y-41910000D01*
%TO.N,Line_B*%
X78409801Y-63102001D02*
X81923401Y-59588401D01*
X75158601Y-92481401D02*
X76911201Y-92481401D01*
X78409801Y-90982801D02*
X78409801Y-63102001D01*
X76911201Y-92481401D02*
X78409801Y-90982801D01*
%TO.N,Neutral*%
X54839001Y-95021401D02*
X52146201Y-92328601D01*
X52146201Y-92328601D02*
X52146201Y-62281201D01*
X52146201Y-62281201D02*
X54839001Y-59588401D01*
X65608200Y-101650800D02*
X58978801Y-95021401D01*
X58978801Y-95021401D02*
X54839001Y-95021401D01*
X52146601Y-79933801D02*
X54839001Y-77241401D01*
X65608200Y-103911400D02*
X65608200Y-101650800D01*
%TO.N,Line_C*%
X79756001Y-79408801D02*
X81923401Y-77241401D01*
X49098201Y-97815401D02*
X48074201Y-96791401D01*
X48074201Y-96791401D02*
X48074201Y-92481401D01*
X60528200Y-100609400D02*
X57734201Y-97815401D01*
X57734201Y-97815401D02*
X49098201Y-97815401D01*
X81923401Y-95021401D02*
X79756001Y-92854001D01*
X60528200Y-103911400D02*
X60528200Y-100609400D01*
X79756001Y-92854001D02*
X79756001Y-79408801D01*
%TO.N,V_Ref_Current*%
X151180800Y-108204000D02*
X159613600Y-108204000D01*
X174091600Y-108204000D02*
X171500800Y-108204000D01*
X174904400Y-102108000D02*
X174904400Y-105587800D01*
X174904400Y-105587800D02*
X174904400Y-107391200D01*
X174904400Y-107391200D02*
X174091600Y-108204000D01*
X171500800Y-108204000D02*
X169773600Y-108204000D01*
X161340800Y-108204000D02*
X159613600Y-108204000D01*
X145161000Y-103911400D02*
X149453600Y-108204000D01*
X139293600Y-108204000D02*
X149453600Y-108204000D01*
X169773600Y-108204000D02*
X161340800Y-108204000D01*
X169773600Y-108204000D02*
X165481000Y-103911400D01*
X159613600Y-108204000D02*
X155321000Y-103911400D01*
X135001000Y-103911400D02*
X139293600Y-108204000D01*
X149453600Y-108204000D02*
X151180800Y-108204000D01*
%TO.N,Select_Current*%
X176987200Y-59944000D02*
X172720000Y-64211200D01*
X158369000Y-55575200D02*
X172618400Y-55575200D01*
X176987200Y-53467000D02*
X176987200Y-59944000D01*
X158572200Y-98044000D02*
X172415200Y-98044000D01*
X172618400Y-55575200D02*
X176987200Y-59944000D01*
X154000200Y-93472000D02*
X158572200Y-98044000D01*
X172720000Y-89204800D02*
X176987200Y-93472000D01*
X172720000Y-64211200D02*
X172720000Y-89204800D01*
X154000200Y-59944000D02*
X158369000Y-55575200D01*
X172415200Y-98044000D02*
X176987200Y-93472000D01*
%TO.N,V_Ref_Voltage*%
X94564201Y-92380601D02*
X91923401Y-95021401D01*
X67894201Y-74193401D02*
X67887001Y-74193401D01*
X89053201Y-56718201D02*
X91923401Y-59588401D01*
X75164201Y-42703001D02*
X78867001Y-46405801D01*
X67887001Y-74193401D02*
X64839001Y-77241401D01*
X67894201Y-46406401D02*
X67894201Y-62643601D01*
X75164201Y-42697401D02*
X75164201Y-42703001D01*
X67894201Y-91966201D02*
X67894201Y-80296601D01*
X78867001Y-46405801D02*
X78867001Y-54533801D01*
X91923401Y-59588401D02*
X94564201Y-62229201D01*
X71603201Y-42697401D02*
X67894201Y-46406401D01*
X67894201Y-56533201D02*
X64839001Y-59588401D01*
X78867001Y-54533801D02*
X81051401Y-56718201D01*
X91923401Y-77241401D02*
X94564201Y-74600601D01*
X94564201Y-62229201D02*
X94564201Y-92380601D01*
X64839001Y-95021401D02*
X67894201Y-91966201D01*
X67894201Y-80296601D02*
X67894201Y-62643601D01*
X81051401Y-56718201D02*
X89053201Y-56718201D01*
%TD*%
M02*
