M48
; DRILL file {KiCad 7.0.10} date Thu Mar  7 23:30:55 2024
; FORMAT={-:-/ absolute / metric / decimal}
; #@! TF.CreationDate,2024-03-07T23:30:55-03:00
; #@! TF.GenerationSoftware,Kicad,Pcbnew,7.0.10
; #@! TF.FileFunction,Plated,1,2,PTH
FMAT,2
METRIC
; #@! TA.AperFunction,Plated,PTH,ViaDrill
T1C0.250
; #@! TA.AperFunction,Plated,PTH,ViaDrill
T2C0.300
; #@! TA.AperFunction,Plated,PTH,ComponentDrill
T3C0.750
; #@! TA.AperFunction,Plated,PTH,ComponentDrill
T4C0.800
; #@! TA.AperFunction,Plated,PTH,ComponentDrill
T5C1.000
; #@! TA.AperFunction,Plated,PTH,ComponentDrill
T6C1.300
; #@! TA.AperFunction,Plated,PTH,ComponentDrill
T7C1.520
%
G90
G05
T1
X100.457Y-90.195
X101.016Y-92.735
X101.575Y-95.275
X125.984Y-46.228
X126.746Y-46.99
X127.516Y-47.744
X128.27Y-48.514
X129.04Y-49.268
X129.794Y-50.038
X130.556Y-50.8
X131.31Y-51.57
T2
X176.987Y-53.467
T3
X72.212Y-100.472
X72.212Y-108.092
X74.422Y-100.472
X74.422Y-108.092
X76.632Y-100.472
X76.632Y-108.092
X78.842Y-100.472
X78.842Y-108.092
X81.051Y-100.472
X81.051Y-108.092
X83.261Y-100.472
X83.261Y-108.092
X85.471Y-100.472
X85.471Y-108.092
X87.681Y-100.472
X87.681Y-108.092
X89.891Y-100.472
X89.891Y-108.092
X92.1Y-100.472
X92.1Y-108.092
X94.31Y-100.472
X94.31Y-108.092
X96.52Y-100.472
X96.52Y-108.092
X106.385Y-50.825
X114.005Y-50.825
X139.751Y-45.334
X139.751Y-52.954
X141.961Y-45.334
X141.961Y-52.954
X144.17Y-45.334
X144.17Y-52.954
X146.38Y-45.334
X146.38Y-52.954
X148.59Y-45.334
X148.59Y-52.954
X150.8Y-45.334
X150.8Y-52.954
X153.01Y-45.334
X153.01Y-52.954
X155.219Y-45.334
X155.219Y-52.954
X157.429Y-45.334
X157.429Y-52.954
X159.639Y-45.334
X159.639Y-52.954
X161.849Y-45.334
X161.849Y-52.954
X164.059Y-45.334
X164.059Y-52.954
X166.268Y-45.334
X166.268Y-52.954
X168.478Y-45.334
X168.478Y-52.954
X170.688Y-45.334
X170.688Y-52.954
X172.898Y-45.334
X172.898Y-52.954
T4
X48.074Y-46.891
X48.074Y-57.051
X48.074Y-64.541
X48.074Y-74.701
X48.074Y-82.321
X48.074Y-92.481
X61.443Y-42.697
X71.603Y-42.697
X71.607Y-46.888
X71.607Y-57.048
X71.607Y-64.541
X71.607Y-74.701
X71.607Y-82.321
X71.607Y-92.481
X75.159Y-46.888
X75.159Y-57.048
X75.159Y-64.541
X75.159Y-74.701
X75.159Y-82.321
X75.159Y-92.481
X75.164Y-42.697
X85.324Y-42.697
X98.692Y-46.888
X98.692Y-57.048
X98.692Y-64.541
X98.692Y-74.701
X98.692Y-82.321
X98.692Y-92.481
X138.232Y-61.984
X138.232Y-72.144
X138.232Y-81.272
X138.232Y-91.432
X157.768Y-61.984
X157.768Y-72.144
X157.768Y-81.272
X157.768Y-91.432
X161.219Y-61.984
X161.219Y-72.144
X161.219Y-81.272
X161.219Y-91.432
X174.904Y-102.108
X174.904Y-105.588
X180.755Y-61.984
X180.755Y-72.144
X180.755Y-81.272
X180.755Y-91.432
X185.064Y-102.108
X185.064Y-105.588
T5
X54.839Y-46.888
X54.839Y-59.588
X54.839Y-64.541
X54.839Y-77.241
X54.839Y-82.321
X54.839Y-95.021
X64.839Y-46.888
X64.839Y-59.588
X64.839Y-64.541
X64.839Y-77.241
X64.839Y-82.321
X64.839Y-95.021
X81.923Y-46.888
X81.923Y-59.588
X81.923Y-64.541
X81.923Y-77.241
X81.923Y-82.321
X81.923Y-95.021
X91.923Y-46.888
X91.923Y-59.588
X91.923Y-64.541
X91.923Y-77.241
X91.923Y-82.321
X91.923Y-95.021
X103.835Y-54.635
X103.835Y-57.175
X103.835Y-59.715
X103.835Y-62.255
X103.835Y-64.795
X103.835Y-67.335
X103.835Y-69.875
X103.835Y-72.415
X103.835Y-74.955
X103.835Y-77.495
X103.835Y-80.035
X103.835Y-82.575
X103.835Y-85.115
X103.835Y-87.655
X103.835Y-90.195
X103.835Y-92.735
X103.835Y-95.275
X103.835Y-97.815
X103.835Y-100.355
X103.835Y-102.895
X103.835Y-105.435
X103.835Y-107.975
X114.005Y-45.5
X116.545Y-45.5
X119.085Y-45.5
X129.235Y-54.635
X129.235Y-57.175
X129.235Y-59.715
X129.235Y-62.255
X129.235Y-64.795
X129.235Y-67.335
X129.235Y-69.875
X129.235Y-72.415
X129.235Y-74.955
X129.235Y-77.495
X129.235Y-80.035
X129.235Y-82.575
X129.235Y-85.115
X129.235Y-87.655
X129.235Y-90.195
X129.235Y-92.735
X129.235Y-95.275
X129.235Y-97.815
X129.235Y-100.355
X129.235Y-102.895
X129.235Y-105.435
X129.235Y-107.975
T6
X142.0Y-59.944
X142.0Y-72.144
X142.0Y-81.272
X142.0Y-93.472
X148.0Y-57.944
X148.0Y-95.472
X154.0Y-59.944
X154.0Y-72.144
X154.0Y-81.272
X154.0Y-93.472
X164.987Y-59.944
X164.987Y-72.144
X164.987Y-81.272
X164.987Y-93.472
X170.987Y-57.944
X170.987Y-95.472
X176.987Y-59.944
X176.987Y-72.144
X176.987Y-81.272
X176.987Y-93.472
T7
X50.368Y-103.911
X55.448Y-103.911
X60.528Y-103.911
X65.608Y-103.911
X135.001Y-103.911
X140.081Y-103.911
X145.161Y-103.911
X150.241Y-103.911
X155.321Y-103.911
X160.401Y-103.911
X165.481Y-103.911
X170.561Y-103.911
M30
