%TF.GenerationSoftware,KiCad,Pcbnew,7.0.10*%
%TF.CreationDate,2024-05-12T01:16:20-03:00*%
%TF.ProjectId,board,626f6172-642e-46b6-9963-61645f706362,1.0*%
%TF.SameCoordinates,Original*%
%TF.FileFunction,Copper,L2,Bot*%
%TF.FilePolarity,Positive*%
%FSLAX46Y46*%
G04 Gerber Fmt 4.6, Leading zero omitted, Abs format (unit mm)*
G04 Created by KiCad (PCBNEW 7.0.10) date 2024-05-12 01:16:20*
%MOMM*%
%LPD*%
G01*
G04 APERTURE LIST*
%TA.AperFunction,ComponentPad*%
%ADD10O,1.600000X1.600000*%
%TD*%
%TA.AperFunction,ComponentPad*%
%ADD11O,1.500000X1.500000*%
%TD*%
%TA.AperFunction,ComponentPad*%
%ADD12C,1.600000*%
%TD*%
%TA.AperFunction,ComponentPad*%
%ADD13O,1.700000X1.700000*%
%TD*%
%TA.AperFunction,ComponentPad*%
%ADD14O,2.000000X2.000000*%
%TD*%
%TA.AperFunction,ComponentPad*%
%ADD15C,2.000000*%
%TD*%
%TA.AperFunction,ComponentPad*%
%ADD16O,1.530000X1.530000*%
%TD*%
%TA.AperFunction,ComponentPad*%
%ADD17C,1.530000*%
%TD*%
%TA.AperFunction,ComponentPad*%
%ADD18O,3.000000X3.000000*%
%TD*%
%TA.AperFunction,ComponentPad*%
%ADD19C,3.000000*%
%TD*%
%TA.AperFunction,ComponentPad*%
%ADD20O,1.508000X1.508000*%
%TD*%
%TA.AperFunction,ComponentPad*%
%ADD21C,1.508000*%
%TD*%
%TA.AperFunction,ComponentPad*%
%ADD22O,2.000000X1.905000*%
%TD*%
%TA.AperFunction,ViaPad*%
%ADD23C,0.400000*%
%TD*%
%TA.AperFunction,ViaPad*%
%ADD24C,0.500000*%
%TD*%
%TA.AperFunction,Conductor*%
%ADD25C,0.200000*%
%TD*%
%TA.AperFunction,Conductor*%
%ADD26C,0.250000*%
%TD*%
G04 APERTURE END LIST*
D10*
%TO.P,AMP3,1*%
%TO.N,Current A*%
X147828000Y-74980800D03*
%TO.P,AMP3,2,-*%
X147828000Y-77520800D03*
%TO.P,AMP3,3,+*%
%TO.N,TC A-1*%
X147828000Y-80060800D03*
%TO.P,AMP3,4,V-*%
%TO.N,GND*%
X147828000Y-82600800D03*
%TO.P,AMP3,5,+*%
%TO.N,TC B-1*%
X155448000Y-82600800D03*
%TO.P,AMP3,6,-*%
%TO.N,Current B*%
X155448000Y-80060800D03*
%TO.P,AMP3,7*%
X155448000Y-77520800D03*
%TO.P,AMP3,8,V+*%
%TO.N,Vin*%
X155448000Y-74980800D03*
%TD*%
D11*
%TO.P,DZ14,1,K*%
%TO.N,Current N*%
X141986000Y-51358800D03*
%TO.P,DZ14,2,A*%
%TO.N,Vcc*%
X141986000Y-43738800D03*
%TD*%
D12*
%TO.P,R9,1*%
%TO.N,TC A-1*%
X136398000Y-62534800D03*
D10*
%TO.P,R9,2*%
%TO.N,TC A-2*%
X136398000Y-52374800D03*
%TD*%
D11*
%TO.P,DZ2,1,K*%
%TO.N,Treated Wave C*%
X172466000Y-51358800D03*
%TO.P,DZ2,2,A*%
%TO.N,Vcc*%
X172466000Y-43738800D03*
%TD*%
D13*
%TO.P,SW2,1,A*%
%TO.N,Vcc*%
X189484000Y-80314800D03*
%TO.P,SW2,2,B*%
%TO.N,System Type*%
X189484000Y-77774800D03*
%TO.P,SW2,3,C*%
%TO.N,GND*%
X189484000Y-75234800D03*
%TD*%
D12*
%TO.P,R7,1*%
%TO.N,Wave B*%
X142748000Y-94919800D03*
D10*
%TO.P,R7,2*%
%TO.N,TC A-2*%
X142748000Y-84759800D03*
%TD*%
D14*
%TO.P,PS1,1,AC/L*%
%TO.N,Line A*%
X110363000Y-89839800D03*
D15*
%TO.P,PS1,2,AC/N*%
%TO.N,Neutral*%
X104363000Y-89839800D03*
%TO.P,PS1,3,-Vout*%
%TO.N,GND*%
X116363000Y-123439800D03*
%TO.P,PS1,4,+Vout*%
%TO.N,Power*%
X98363000Y-123439800D03*
%TD*%
D16*
%TO.P,MCU1,J1_1,3V3*%
%TO.N,Vcc*%
X160528000Y-64820800D03*
D17*
%TO.P,MCU1,J1_2,3V3__1*%
%TO.N,unconnected-(MCU1-3V3__1-PadJ1_2)*%
X160528000Y-67360800D03*
%TO.P,MCU1,J1_3,RST*%
%TO.N,unconnected-(MCU1-RST-PadJ1_3)*%
X160528000Y-69900800D03*
%TO.P,MCU1,J1_4,GPIO4*%
%TO.N,Current N*%
X160528000Y-72440800D03*
%TO.P,MCU1,J1_5,GPIO5*%
%TO.N,Current C*%
X160528000Y-74980800D03*
%TO.P,MCU1,J1_6,GPIO6*%
%TO.N,Current B*%
X160528000Y-77520800D03*
%TO.P,MCU1,J1_7,GPIO7*%
%TO.N,Current A*%
X160528000Y-80060800D03*
%TO.P,MCU1,J1_8,GPIO15*%
%TO.N,CS*%
X160528000Y-82600800D03*
%TO.P,MCU1,J1_9,GPIO16*%
%TO.N,MOSI*%
X160528000Y-85140800D03*
%TO.P,MCU1,J1_10,GPIO17*%
%TO.N,SCK*%
X160528000Y-87680800D03*
%TO.P,MCU1,J1_11,GPIO18*%
%TO.N,MISO*%
X160528000Y-90220800D03*
%TO.P,MCU1,J1_12,GPIO8*%
%TO.N,Treated Wave A*%
X160528000Y-92760800D03*
%TO.P,MCU1,J1_13,GPIO3*%
%TO.N,unconnected-(MCU1-GPIO3-PadJ1_13)*%
X160528000Y-95300800D03*
%TO.P,MCU1,J1_14,GPIO46*%
%TO.N,unconnected-(MCU1-GPIO46-PadJ1_14)*%
X160528000Y-97840800D03*
%TO.P,MCU1,J1_15,GPIO9*%
%TO.N,Treated Wave B*%
X160528000Y-100380800D03*
%TO.P,MCU1,J1_16,GPIO10*%
%TO.N,Treated Wave C*%
X160528000Y-102920800D03*
%TO.P,MCU1,J1_17,GPIO11*%
%TO.N,unconnected-(MCU1-GPIO11-PadJ1_17)*%
X160528000Y-105460800D03*
%TO.P,MCU1,J1_18,GPIO12*%
%TO.N,unconnected-(MCU1-GPIO12-PadJ1_18)*%
X160528000Y-108000800D03*
%TO.P,MCU1,J1_19,GPIO13*%
%TO.N,unconnected-(MCU1-GPIO13-PadJ1_19)*%
X160528000Y-110540800D03*
%TO.P,MCU1,J1_20,GPIO14*%
%TO.N,unconnected-(MCU1-GPIO14-PadJ1_20)*%
X160528000Y-113080800D03*
%TO.P,MCU1,J1_21,5V0*%
%TO.N,unconnected-(MCU1-5V0-PadJ1_21)*%
X160528000Y-115620800D03*
%TO.P,MCU1,J1_22,GND*%
%TO.N,GND*%
X160528000Y-118160800D03*
%TO.P,MCU1,J3_1,GND__1*%
X183388000Y-64820800D03*
%TO.P,MCU1,J3_2,U0TXD/GPIO43*%
%TO.N,UART TX*%
X183388000Y-67360800D03*
%TO.P,MCU1,J3_3,U0RXD/GPIO44*%
%TO.N,UART RX*%
X183388000Y-69900800D03*
%TO.P,MCU1,J3_4,GPIO1*%
%TO.N,System Type*%
X183388000Y-72440800D03*
%TO.P,MCU1,J3_5,GPIO2*%
%TO.N,unconnected-(MCU1-GPIO2-PadJ3_5)*%
X183388000Y-74980800D03*
%TO.P,MCU1,J3_6,MTMS/GPIO42*%
%TO.N,unconnected-(MCU1-MTMS{slash}GPIO42-PadJ3_6)*%
X183388000Y-77520800D03*
%TO.P,MCU1,J3_7,MTDI/GPIO41*%
%TO.N,unconnected-(MCU1-MTDI{slash}GPIO41-PadJ3_7)*%
X183388000Y-80060800D03*
%TO.P,MCU1,J3_8,MTDO/GPIO40*%
%TO.N,unconnected-(MCU1-MTDO{slash}GPIO40-PadJ3_8)*%
X183388000Y-82600800D03*
%TO.P,MCU1,J3_9,MTCK/GPIO39*%
%TO.N,unconnected-(MCU1-MTCK{slash}GPIO39-PadJ3_9)*%
X183388000Y-85140800D03*
%TO.P,MCU1,J3_10,GPIO38*%
%TO.N,unconnected-(MCU1-GPIO38-PadJ3_10)*%
X183388000Y-87680800D03*
%TO.P,MCU1,J3_11,GPIO37*%
%TO.N,unconnected-(MCU1-GPIO37-PadJ3_11)*%
X183388000Y-90220800D03*
%TO.P,MCU1,J3_12,GPIO36*%
%TO.N,unconnected-(MCU1-GPIO36-PadJ3_12)*%
X183388000Y-92760800D03*
%TO.P,MCU1,J3_13,GPIO35*%
%TO.N,unconnected-(MCU1-GPIO35-PadJ3_13)*%
X183388000Y-95300800D03*
%TO.P,MCU1,J3_14,GPIO0*%
%TO.N,unconnected-(MCU1-GPIO0-PadJ3_14)*%
X183388000Y-97840800D03*
%TO.P,MCU1,J3_15,GPIO45*%
%TO.N,unconnected-(MCU1-GPIO45-PadJ3_15)*%
X183388000Y-100380800D03*
%TO.P,MCU1,J3_16,GPIO48*%
%TO.N,unconnected-(MCU1-GPIO48-PadJ3_16)*%
X183388000Y-102920800D03*
%TO.P,MCU1,J3_17,GPIO47*%
%TO.N,unconnected-(MCU1-GPIO47-PadJ3_17)*%
X183388000Y-105460800D03*
%TO.P,MCU1,J3_18,GPIO21*%
%TO.N,unconnected-(MCU1-GPIO21-PadJ3_18)*%
X183388000Y-108000800D03*
%TO.P,MCU1,J3_19,USB_D+/GPIO20*%
%TO.N,unconnected-(MCU1-USB_D+{slash}GPIO20-PadJ3_19)*%
X183388000Y-110540800D03*
%TO.P,MCU1,J3_20,USB_D-/GPIO19*%
%TO.N,unconnected-(MCU1-USB_D-{slash}GPIO19-PadJ3_20)*%
X183388000Y-113080800D03*
%TO.P,MCU1,J3_21,GND__2*%
%TO.N,unconnected-(MCU1-GND__2-PadJ3_21)*%
X183388000Y-115620800D03*
%TO.P,MCU1,J3_22,GND__3*%
%TO.N,GND*%
X183388000Y-118160800D03*
%TD*%
D11*
%TO.P,DZ13,1,K*%
%TO.N,GND*%
X144526000Y-43733800D03*
%TO.P,DZ13,2,A*%
%TO.N,Current N*%
X144526000Y-51353800D03*
%TD*%
D10*
%TO.P,AMP4,1*%
%TO.N,Current C*%
X147828000Y-63306800D03*
%TO.P,AMP4,2,-*%
X147828000Y-65846800D03*
%TO.P,AMP4,3,+*%
%TO.N,TC C-1*%
X147828000Y-68386800D03*
%TO.P,AMP4,4,V-*%
%TO.N,GND*%
X147828000Y-70926800D03*
%TO.P,AMP4,5,+*%
%TO.N,TC N-1*%
X155448000Y-70926800D03*
%TO.P,AMP4,6,-*%
%TO.N,Current N*%
X155448000Y-68386800D03*
%TO.P,AMP4,7*%
X155448000Y-65846800D03*
%TO.P,AMP4,8,V+*%
%TO.N,Vin*%
X155448000Y-63306800D03*
%TD*%
D11*
%TO.P,DZ6,1,K*%
%TO.N,Treated Wave A*%
X162306000Y-51363800D03*
%TO.P,DZ6,2,A*%
%TO.N,Vcc*%
X162306000Y-43743800D03*
%TD*%
%TO.P,DZ5,1,K*%
%TO.N,GND*%
X164846000Y-43733800D03*
%TO.P,DZ5,2,A*%
%TO.N,Treated Wave A*%
X164846000Y-51353800D03*
%TD*%
D18*
%TO.P,J6,1,Pin_1*%
%TO.N,TC A-2*%
X105918000Y-46786800D03*
D19*
%TO.P,J6,2,Pin_2*%
%TO.N,TC N-1*%
X100838000Y-46786800D03*
%TD*%
D13*
%TO.P,P1,1,Pin_1*%
%TO.N,UART RX*%
X189484000Y-69900800D03*
%TO.P,P1,2,Pin_2*%
%TO.N,UART TX*%
X189484000Y-67360800D03*
%TO.P,P1,3,Pin_3*%
%TO.N,GND*%
X189484000Y-64820800D03*
%TD*%
D12*
%TO.P,R1,1*%
%TO.N,Vcc*%
X162560000Y-123240800D03*
D10*
%TO.P,R1,2*%
%TO.N,V1.65*%
X152400000Y-123240800D03*
%TD*%
D20*
%TO.P,T1,1*%
%TO.N,Net-(R3-Pad1)*%
X125476000Y-66979800D03*
D21*
%TO.P,T1,2*%
%TO.N,Neutral*%
X125476000Y-79679800D03*
%TO.P,T1,3*%
%TO.N,Wave A*%
X135476000Y-79679800D03*
%TO.P,T1,4*%
%TO.N,TC A-2*%
X135476000Y-66979800D03*
%TD*%
D12*
%TO.P,R11,1*%
%TO.N,TC C-1*%
X126238000Y-62534800D03*
D10*
%TO.P,R11,2*%
%TO.N,TC A-2*%
X126238000Y-52374800D03*
%TD*%
D11*
%TO.P,DZ11,1,K*%
%TO.N,GND*%
X149606000Y-43738800D03*
%TO.P,DZ11,2,A*%
%TO.N,Current C*%
X149606000Y-51358800D03*
%TD*%
D13*
%TO.P,SW1,1,A*%
%TO.N,Vin*%
X130302000Y-122224800D03*
%TO.P,SW1,2,B*%
%TO.N,Power*%
X130302000Y-124764800D03*
%TO.P,SW1,3,C*%
%TO.N,unconnected-(SW1A-C-Pad3)*%
X130302000Y-127304800D03*
%TD*%
D20*
%TO.P,T3,1*%
%TO.N,Net-(R5-Pad1)*%
X125476000Y-102539800D03*
D21*
%TO.P,T3,2*%
%TO.N,Neutral*%
X125476000Y-115239800D03*
%TO.P,T3,3*%
%TO.N,Wave C*%
X135476000Y-115239800D03*
%TO.P,T3,4*%
%TO.N,TC A-2*%
X135476000Y-102539800D03*
%TD*%
D12*
%TO.P,R6,1*%
%TO.N,Wave A*%
X142748000Y-77139800D03*
D10*
%TO.P,R6,2*%
%TO.N,TC A-2*%
X142748000Y-66979800D03*
%TD*%
D11*
%TO.P,DZ3,1,K*%
%TO.N,GND*%
X169926000Y-43738800D03*
%TO.P,DZ3,2,A*%
%TO.N,Treated Wave B*%
X169926000Y-51358800D03*
%TD*%
D12*
%TO.P,R10,1*%
%TO.N,TC B-1*%
X116078000Y-62534800D03*
D10*
%TO.P,R10,2*%
%TO.N,TC A-2*%
X116078000Y-52374800D03*
%TD*%
D12*
%TO.P,R3,1*%
%TO.N,Net-(R3-Pad1)*%
X117602000Y-66979800D03*
D10*
%TO.P,R3,2*%
%TO.N,Line A*%
X107442000Y-66979800D03*
%TD*%
D12*
%TO.P,R12,1*%
%TO.N,TC N-1*%
X105918000Y-62534800D03*
D10*
%TO.P,R12,2*%
%TO.N,TC A-2*%
X105918000Y-52374800D03*
%TD*%
D11*
%TO.P,DZ12,1,K*%
%TO.N,Current C*%
X147066000Y-51363800D03*
%TO.P,DZ12,2,A*%
%TO.N,Vcc*%
X147066000Y-43743800D03*
%TD*%
D10*
%TO.P,C2,1*%
%TO.N,Vcc*%
X146050000Y-124034800D03*
D12*
%TO.P,C2,2*%
%TO.N,GND*%
X146050000Y-126034800D03*
%TD*%
D18*
%TO.P,J3,1,Pin_1*%
%TO.N,TC A-2*%
X136398000Y-46786800D03*
D19*
%TO.P,J3,2,Pin_2*%
%TO.N,TC A-1*%
X131318000Y-46786800D03*
%TD*%
D18*
%TO.P,J1,1,Pin_1*%
%TO.N,Line A*%
X101473000Y-66979800D03*
D19*
%TO.P,J1,2,Pin_2*%
%TO.N,Line B*%
X101473000Y-72059800D03*
%TD*%
D13*
%TO.P,P4,1,Pin_1*%
%TO.N,Treated Wave A*%
X189484000Y-47675800D03*
%TO.P,P4,2,Pin_2*%
%TO.N,Treated Wave B*%
X189484000Y-45135800D03*
%TO.P,P4,3,Pin_3*%
%TO.N,Treated Wave C*%
X189484000Y-42595800D03*
%TD*%
D11*
%TO.P,DZ9,1,K*%
%TO.N,GND*%
X154686000Y-43733800D03*
%TO.P,DZ9,2,A*%
%TO.N,Current B*%
X154686000Y-51353800D03*
%TD*%
%TO.P,DZ7,1,K*%
%TO.N,GND*%
X159766000Y-43738800D03*
%TO.P,DZ7,2,A*%
%TO.N,Current A*%
X159766000Y-51358800D03*
%TD*%
D20*
%TO.P,T2,1*%
%TO.N,Net-(R4-Pad1)*%
X125476000Y-84759800D03*
D21*
%TO.P,T2,2*%
%TO.N,Neutral*%
X125476000Y-97459800D03*
%TO.P,T2,3*%
%TO.N,Wave B*%
X135476000Y-97459800D03*
%TO.P,T2,4*%
%TO.N,TC A-2*%
X135476000Y-84759800D03*
%TD*%
D18*
%TO.P,J5,1,Pin_1*%
%TO.N,TC A-2*%
X116078000Y-46786800D03*
D19*
%TO.P,J5,2,Pin_2*%
%TO.N,TC C-1*%
X110998000Y-46786800D03*
%TD*%
D13*
%TO.P,P5,1,Pin_1*%
%TO.N,GND*%
X189484000Y-85648800D03*
%TO.P,P5,2,Pin_2*%
%TO.N,Vcc*%
X189484000Y-88188800D03*
%TO.P,P5,3,Pin_3*%
%TO.N,MISO*%
X189484000Y-90728800D03*
%TO.P,P5,4,Pin_4*%
%TO.N,MOSI*%
X189484000Y-93268800D03*
%TO.P,P5,5,Pin_5*%
%TO.N,SCK*%
X189484000Y-95808800D03*
%TO.P,P5,6,Pin_6*%
%TO.N,CS*%
X189484000Y-98348800D03*
%TD*%
D11*
%TO.P,DZ4,1,K*%
%TO.N,Treated Wave B*%
X167386000Y-51363800D03*
%TO.P,DZ4,2,A*%
%TO.N,Vcc*%
X167386000Y-43743800D03*
%TD*%
D13*
%TO.P,P3,1,Pin_1*%
%TO.N,Current A*%
X189484000Y-51866800D03*
%TO.P,P3,2,Pin_2*%
%TO.N,Current B*%
X189484000Y-54406800D03*
%TO.P,P3,3,Pin_3*%
%TO.N,Current C*%
X189484000Y-56946800D03*
%TO.P,P3,4,Pin_4*%
%TO.N,Current N*%
X189484000Y-59486800D03*
%TD*%
D11*
%TO.P,DZ1,1,K*%
%TO.N,GND*%
X175006000Y-43738800D03*
%TO.P,DZ1,2,A*%
%TO.N,Treated Wave C*%
X175006000Y-51358800D03*
%TD*%
D10*
%TO.P,C1,1*%
%TO.N,Power*%
X122134621Y-126034800D03*
D12*
%TO.P,C1,2*%
%TO.N,GND*%
X124634621Y-126034800D03*
%TD*%
%TO.P,R8,1*%
%TO.N,Wave C*%
X142748000Y-112699800D03*
D10*
%TO.P,R8,2*%
%TO.N,TC A-2*%
X142748000Y-102539800D03*
%TD*%
D18*
%TO.P,J2,1,Pin_1*%
%TO.N,Line C*%
X101473000Y-77139800D03*
D19*
%TO.P,J2,2,Pin_2*%
%TO.N,Neutral*%
X101473000Y-82219800D03*
%TD*%
D13*
%TO.P,P2,1,Pin_1*%
%TO.N,TC A-2*%
X141478000Y-56438800D03*
%TD*%
D22*
%TO.P,PS2,1,GND*%
%TO.N,GND*%
X140899000Y-126034800D03*
%TO.P,PS2,2,VO*%
%TO.N,Vcc*%
X140899000Y-123494800D03*
%TO.P,PS2,3,VI*%
%TO.N,Vin*%
X140899000Y-120954800D03*
%TD*%
D11*
%TO.P,DZ8,1,K*%
%TO.N,Current A*%
X157226000Y-51363800D03*
%TO.P,DZ8,2,A*%
%TO.N,Vcc*%
X157226000Y-43743800D03*
%TD*%
%TO.P,DZ10,1,K*%
%TO.N,Current B*%
X152146000Y-51363800D03*
%TO.P,DZ10,2,A*%
%TO.N,Vcc*%
X152146000Y-43743800D03*
%TD*%
D12*
%TO.P,R4,1*%
%TO.N,Net-(R4-Pad1)*%
X117602000Y-72059800D03*
D10*
%TO.P,R4,2*%
%TO.N,Line B*%
X107442000Y-72059800D03*
%TD*%
D12*
%TO.P,R5,1*%
%TO.N,Net-(R5-Pad1)*%
X117602000Y-77139800D03*
D10*
%TO.P,R5,2*%
%TO.N,Line C*%
X107442000Y-77139800D03*
%TD*%
D12*
%TO.P,R2,1*%
%TO.N,V1.65*%
X152400000Y-126542800D03*
D10*
%TO.P,R2,2*%
%TO.N,GND*%
X162560000Y-126542800D03*
%TD*%
D18*
%TO.P,J4,1,Pin_1*%
%TO.N,TC A-2*%
X126238000Y-46786800D03*
D19*
%TO.P,J4,2,Pin_2*%
%TO.N,TC B-1*%
X121158000Y-46786800D03*
%TD*%
D10*
%TO.P,AMP2,1*%
%TO.N,Treated Wave B*%
X146812000Y-98602800D03*
%TO.P,AMP2,2,-*%
X146812000Y-101142800D03*
%TO.P,AMP2,3,+*%
%TO.N,Wave B*%
X146812000Y-103682800D03*
%TO.P,AMP2,4,V-*%
%TO.N,GND*%
X146812000Y-106222800D03*
%TO.P,AMP2,5,+*%
%TO.N,Wave A*%
X154432000Y-106222800D03*
%TO.P,AMP2,6,-*%
%TO.N,Treated Wave A*%
X154432000Y-103682800D03*
%TO.P,AMP2,7*%
X154432000Y-101142800D03*
%TO.P,AMP2,8,V+*%
%TO.N,Vin*%
X154432000Y-98602800D03*
%TD*%
%TO.P,AMP1,1*%
%TO.N,TC A-2*%
X146812000Y-110804800D03*
%TO.P,AMP1,2,-*%
X146812000Y-113344800D03*
%TO.P,AMP1,3,+*%
%TO.N,V1.65*%
X146812000Y-115884800D03*
%TO.P,AMP1,4,V-*%
%TO.N,GND*%
X146812000Y-118424800D03*
%TO.P,AMP1,5,+*%
%TO.N,Wave C*%
X154432000Y-118424800D03*
%TO.P,AMP1,6,-*%
%TO.N,Treated Wave C*%
X154432000Y-115884800D03*
%TO.P,AMP1,7*%
X154432000Y-113344800D03*
%TO.P,AMP1,8,V+*%
%TO.N,Vin*%
X154432000Y-110804800D03*
%TD*%
D23*
%TO.N,Treated Wave A*%
X173990000Y-57454800D03*
%TO.N,Treated Wave B*%
X174498000Y-56946800D03*
%TO.N,Treated Wave C*%
X175006000Y-56438800D03*
D24*
%TO.N,Vcc*%
X180340000Y-64820800D03*
X180340000Y-43484800D03*
X180340000Y-119176800D03*
D23*
%TO.N,Current A*%
X173482000Y-57962800D03*
%TO.N,Current B*%
X172974000Y-58470800D03*
%TO.N,Current C*%
X172466000Y-58978800D03*
%TO.N,Current N*%
X171958000Y-59486800D03*
%TO.N,TC A-2*%
X129794000Y-58724800D03*
X141478000Y-62026800D03*
X129794000Y-61264800D03*
%TO.N,TC B-1*%
X116078000Y-59486800D03*
%TO.N,CS*%
X176022000Y-82600800D03*
%TO.N,MOSI*%
X177038000Y-85140800D03*
%TO.N,SCK*%
X176530000Y-87680800D03*
%TO.N,MISO*%
X177546000Y-90220800D03*
%TD*%
D25*
%TO.N,Treated Wave A*%
X164846000Y-52379800D02*
X164846000Y-51353800D01*
X157734000Y-93776800D02*
X158750000Y-92760800D01*
X155956000Y-101142800D02*
X157734000Y-99364800D01*
X173990000Y-57454800D02*
X169931000Y-53395800D01*
X154432000Y-101142800D02*
X155956000Y-101142800D01*
X165862000Y-53395800D02*
X164846000Y-52379800D01*
X169931000Y-53395800D02*
X165862000Y-53395800D01*
X172974000Y-92760800D02*
X173990000Y-91744800D01*
X158750000Y-92760800D02*
X160528000Y-92760800D01*
X173990000Y-91744800D02*
X173990000Y-57454800D01*
X160528000Y-92760800D02*
X172974000Y-92760800D01*
X157734000Y-99364800D02*
X157734000Y-93776800D01*
%TO.N,Treated Wave B*%
X160528000Y-100380800D02*
X173482000Y-100380800D01*
X174498000Y-99364800D02*
X174498000Y-56946800D01*
X169926000Y-52379800D02*
X169926000Y-51358800D01*
X173482000Y-100380800D02*
X174498000Y-99364800D01*
X174498000Y-56951800D02*
X169926000Y-52379800D01*
%TO.N,Treated Wave C*%
X157988000Y-111810800D02*
X157988000Y-103682800D01*
X173990000Y-102920800D02*
X175006000Y-101904800D01*
X154432000Y-113344800D02*
X156454000Y-113344800D01*
X156454000Y-113344800D02*
X157988000Y-111810800D01*
X175006000Y-101904800D02*
X175006000Y-51104800D01*
X160528000Y-102920800D02*
X173990000Y-102920800D01*
X158750000Y-102920800D02*
X160528000Y-102920800D01*
X157988000Y-103682800D02*
X158750000Y-102920800D01*
D26*
%TO.N,Line A*%
X103632000Y-66979800D02*
X101473000Y-66979800D01*
X105918000Y-85394800D02*
X105918000Y-69265800D01*
X110363000Y-89839800D02*
X105918000Y-85394800D01*
X105918000Y-69265800D02*
X103632000Y-66979800D01*
%TO.N,Neutral*%
X101473000Y-82219800D02*
X101473000Y-86949800D01*
X101473000Y-86949800D02*
X104363000Y-89839800D01*
%TO.N,Net-(R3-Pad1)*%
X117602000Y-66979800D02*
X125476000Y-66979800D01*
%TO.N,Net-(R4-Pad1)*%
X118745000Y-72059800D02*
X119750000Y-73064800D01*
X119750000Y-84193800D02*
X120316000Y-84759800D01*
X119750000Y-73064800D02*
X119750000Y-84193800D01*
X120316000Y-84759800D02*
X125476000Y-84759800D01*
X117602000Y-72059800D02*
X118745000Y-72059800D01*
%TO.N,Net-(R5-Pad1)*%
X118792000Y-78329800D02*
X118792000Y-100761800D01*
X117602000Y-77139800D02*
X118792000Y-78329800D01*
X118792000Y-100761800D02*
X120570000Y-102539800D01*
X120570000Y-102539800D02*
X125476000Y-102539800D01*
%TO.N,Vcc*%
X146050000Y-124034800D02*
X148876000Y-121208800D01*
X162052000Y-121208800D02*
X162560000Y-121716800D01*
X162560000Y-121716800D02*
X162560000Y-123240800D01*
X148876000Y-121208800D02*
X162052000Y-121208800D01*
X191008000Y-80314800D02*
X191770000Y-81076800D01*
X191008000Y-88188800D02*
X189484000Y-88188800D01*
X180340000Y-43484800D02*
X180340000Y-65074800D01*
X189484000Y-80314800D02*
X191008000Y-80314800D01*
X191770000Y-87426800D02*
X191008000Y-88188800D01*
X180340000Y-64820800D02*
X180340000Y-119176800D01*
X191770000Y-81076800D02*
X191770000Y-87426800D01*
%TO.N,GND*%
X149606000Y-42722800D02*
X149606000Y-43738800D01*
X148834000Y-118424800D02*
X149733000Y-117525800D01*
X164338000Y-119176800D02*
X164338000Y-124764800D01*
X150622000Y-71932800D02*
X149616000Y-70926800D01*
X149733000Y-107365800D02*
X149733000Y-98475800D01*
X145542000Y-41706800D02*
X144526000Y-42722800D01*
X183388000Y-64820800D02*
X180975000Y-62407800D01*
X150622000Y-83616800D02*
X150622000Y-71932800D01*
X149733000Y-107365800D02*
X148590000Y-106222800D01*
X148590000Y-128574800D02*
X162052000Y-128574800D01*
X162052000Y-128574800D02*
X162560000Y-128066800D01*
X180975000Y-43235916D02*
X179445884Y-41706800D01*
X170942000Y-41706800D02*
X169926000Y-42722800D01*
X176022000Y-41706800D02*
X170942000Y-41706800D01*
X149733000Y-98475800D02*
X150622000Y-97586800D01*
X148590000Y-106222800D02*
X146812000Y-106222800D01*
X160782000Y-41706800D02*
X155702000Y-41706800D01*
X150622000Y-41706800D02*
X145542000Y-41706800D01*
X155702000Y-41706800D02*
X150622000Y-41706800D01*
X146050000Y-126034800D02*
X148590000Y-128574800D01*
X162560000Y-128066800D02*
X162560000Y-126542800D01*
X146812000Y-118424800D02*
X148834000Y-118424800D01*
X149606000Y-82600800D02*
X147828000Y-82600800D01*
X150622000Y-97586800D02*
X150622000Y-83616800D01*
X160782000Y-41706800D02*
X159766000Y-42722800D01*
X180975000Y-62661800D02*
X180975000Y-43235916D01*
X150622000Y-83616800D02*
X149606000Y-82600800D01*
X164338000Y-124764800D02*
X162560000Y-126542800D01*
X176022000Y-41706800D02*
X175006000Y-42722800D01*
X149733000Y-117525800D02*
X149733000Y-107365800D01*
X144526000Y-42722800D02*
X144526000Y-43733800D01*
X159766000Y-42722800D02*
X159766000Y-43738800D01*
X175006000Y-42722800D02*
X175006000Y-43738800D01*
X165862000Y-41706800D02*
X164846000Y-42722800D01*
X165862000Y-41706800D02*
X160782000Y-41706800D01*
X149616000Y-70926800D02*
X147828000Y-70926800D01*
X154686000Y-42722800D02*
X154686000Y-43733800D01*
X179445884Y-41706800D02*
X176022000Y-41706800D01*
X160528000Y-118160800D02*
X163322000Y-118160800D01*
X164846000Y-42722800D02*
X164846000Y-43733800D01*
X163322000Y-118160800D02*
X164338000Y-119176800D01*
X169926000Y-42722800D02*
X169926000Y-43738800D01*
X155702000Y-41706800D02*
X154686000Y-42722800D01*
X170942000Y-41706800D02*
X165862000Y-41706800D01*
X150622000Y-41706800D02*
X149606000Y-42722800D01*
D25*
%TO.N,Current A*%
X160528000Y-80060800D02*
X172466000Y-80060800D01*
X169423000Y-53903800D02*
X161290000Y-53903800D01*
X159766000Y-52379800D02*
X159766000Y-51358800D01*
X173482000Y-79044800D02*
X173482000Y-57962800D01*
X172466000Y-80060800D02*
X173482000Y-79044800D01*
X161290000Y-53903800D02*
X159766000Y-52379800D01*
X173482000Y-57962800D02*
X169423000Y-53903800D01*
%TO.N,Current B*%
X171958000Y-77520800D02*
X160528000Y-77520800D01*
X172974000Y-76504800D02*
X171958000Y-77520800D01*
X154686000Y-52379800D02*
X154686000Y-51353800D01*
X172974000Y-58470800D02*
X172974000Y-76504800D01*
X168915000Y-54411800D02*
X156718000Y-54411800D01*
X156718000Y-54411800D02*
X154686000Y-52379800D01*
X172974000Y-58470800D02*
X168915000Y-54411800D01*
%TO.N,Current C*%
X172466000Y-73964800D02*
X171450000Y-74980800D01*
X172466000Y-58978800D02*
X168407000Y-54919800D01*
X171450000Y-74980800D02*
X160528000Y-74980800D01*
X172466000Y-58978800D02*
X172466000Y-73964800D01*
X168407000Y-54919800D02*
X152146000Y-54919800D01*
X149606000Y-52379800D02*
X149606000Y-51358800D01*
X152146000Y-54919800D02*
X149606000Y-52379800D01*
%TO.N,Current N*%
X144526000Y-52379800D02*
X144526000Y-51353800D01*
X170942000Y-72440800D02*
X160528000Y-72440800D01*
X171958000Y-59486800D02*
X167899000Y-55427800D01*
X147574000Y-55427800D02*
X144526000Y-52379800D01*
X171958000Y-71424800D02*
X170942000Y-72440800D01*
X167899000Y-55427800D02*
X147574000Y-55427800D01*
X171958000Y-59486800D02*
X171958000Y-71424800D01*
%TO.N,TC A-2*%
X133350000Y-103428800D02*
X133350000Y-85632300D01*
X133350000Y-106730800D02*
X133350000Y-103428800D01*
X134222500Y-84759800D02*
X135476000Y-84759800D01*
X129794000Y-52374800D02*
X129794000Y-58724800D01*
X129794000Y-62280800D02*
X129794000Y-61264800D01*
X139192000Y-64312800D02*
X141478000Y-62026800D01*
X133350000Y-85632300D02*
X134222500Y-84759800D01*
X133350000Y-52374800D02*
X129794000Y-52374800D01*
X134239000Y-102539800D02*
X135476000Y-102539800D01*
X133350000Y-65836800D02*
X134874000Y-64312800D01*
X133350000Y-67852300D02*
X133350000Y-65836800D01*
X136398000Y-109778800D02*
X133350000Y-106730800D01*
X136398000Y-52374800D02*
X133350000Y-52374800D01*
X146812000Y-110804800D02*
X145786000Y-109778800D01*
X129794000Y-52374800D02*
X126238000Y-52374800D01*
X145786000Y-109778800D02*
X136398000Y-109778800D01*
X135128000Y-64312800D02*
X139192000Y-64312800D01*
X116078000Y-52374800D02*
X105918000Y-52374800D01*
X142748000Y-102539800D02*
X135476000Y-102539800D01*
X135476000Y-84759800D02*
X142748000Y-84759800D01*
X133350000Y-65836800D02*
X129794000Y-62280800D01*
X133350000Y-103428800D02*
X134239000Y-102539800D01*
X134874000Y-64312800D02*
X135128000Y-64312800D01*
X133350000Y-67852300D02*
X134222500Y-66979800D01*
X134222500Y-66979800D02*
X135476000Y-66979800D01*
X142748000Y-66979800D02*
X135476000Y-66979800D01*
X133350000Y-85632300D02*
X133350000Y-67852300D01*
X126238000Y-52374800D02*
X116078000Y-52374800D01*
%TO.N,TC A-1*%
X136398000Y-61518800D02*
X136398000Y-62534800D01*
X146304000Y-80060800D02*
X144780000Y-78536800D01*
X143510000Y-61010800D02*
X136906000Y-61010800D01*
X147828000Y-80060800D02*
X146304000Y-80060800D01*
X136906000Y-61010800D02*
X136398000Y-61518800D01*
X144780000Y-78536800D02*
X144780000Y-62280800D01*
X144780000Y-62280800D02*
X143510000Y-61010800D01*
%TO.N,TC B-1*%
X158496000Y-81076800D02*
X158496000Y-61772800D01*
X158496000Y-61772800D02*
X156210000Y-59486800D01*
X156210000Y-59486800D02*
X116078000Y-59486800D01*
X155448000Y-82600800D02*
X156972000Y-82600800D01*
X156972000Y-82600800D02*
X158496000Y-81076800D01*
%TO.N,TC C-1*%
X147828000Y-68386800D02*
X146314000Y-68386800D01*
X127254000Y-60502800D02*
X126238000Y-61518800D01*
X146314000Y-68386800D02*
X145796000Y-67868800D01*
X145796000Y-62505957D02*
X143792843Y-60502800D01*
X145796000Y-67868800D02*
X145796000Y-62505957D01*
X143792843Y-60502800D02*
X127254000Y-60502800D01*
X126238000Y-61518800D02*
X126238000Y-62534800D01*
%TO.N,TC N-1*%
X105918000Y-61518800D02*
X105918000Y-62534800D01*
X107442000Y-59994800D02*
X105918000Y-61518800D01*
X155956000Y-59994800D02*
X107442000Y-59994800D01*
X156962000Y-70926800D02*
X157480000Y-70408800D01*
X157480000Y-70408800D02*
X157480000Y-61518800D01*
X157480000Y-61518800D02*
X155956000Y-59994800D01*
X155448000Y-70926800D02*
X156962000Y-70926800D01*
D26*
%TO.N,Power*%
X128397000Y-124764800D02*
X130302000Y-124764800D01*
X122134621Y-127392421D02*
X122682000Y-127939800D01*
X127127000Y-127939800D02*
X127762000Y-127304800D01*
X122682000Y-127939800D02*
X127127000Y-127939800D01*
X127762000Y-127304800D02*
X127762000Y-125399800D01*
X127762000Y-125399800D02*
X128397000Y-124764800D01*
X122134621Y-126034800D02*
X122134621Y-127392421D01*
D25*
%TO.N,Wave A*%
X142748000Y-77139800D02*
X142748000Y-78790800D01*
X141859000Y-79679800D02*
X135476000Y-79679800D01*
X142748000Y-78790800D02*
X141859000Y-79679800D01*
%TO.N,Wave B*%
X142748000Y-94919800D02*
X142748000Y-96570800D01*
X142748000Y-96570800D02*
X141859000Y-97459800D01*
X141859000Y-97459800D02*
X135476000Y-97459800D01*
%TO.N,Wave C*%
X142748000Y-112699800D02*
X142748000Y-114350800D01*
X141859000Y-115239800D02*
X135476000Y-115239800D01*
X142748000Y-114350800D02*
X141859000Y-115239800D01*
%TO.N,CS*%
X177615850Y-121970800D02*
X176022000Y-120376950D01*
X187960000Y-98348800D02*
X187198000Y-99110800D01*
X187198000Y-99110800D02*
X187198000Y-120446800D01*
X189484000Y-98348800D02*
X187960000Y-98348800D01*
X185674000Y-121970800D02*
X177615850Y-121970800D01*
X176022000Y-82854800D02*
X176022000Y-82600800D01*
X176022000Y-120376950D02*
X176022000Y-82854800D01*
X187198000Y-120446800D02*
X185674000Y-121970800D01*
%TO.N,MOSI*%
X177038000Y-119882511D02*
X177038000Y-85140800D01*
X189484000Y-93268800D02*
X187960000Y-93268800D01*
X178110289Y-120954800D02*
X177038000Y-119882511D01*
X186182000Y-119938800D02*
X185166000Y-120954800D01*
X186182000Y-95046800D02*
X186182000Y-119938800D01*
X185166000Y-120954800D02*
X178110289Y-120954800D01*
X187960000Y-93268800D02*
X186182000Y-95046800D01*
%TO.N,SCK*%
X187960000Y-95808800D02*
X186690000Y-97078800D01*
X176530000Y-120135650D02*
X176530000Y-87680800D01*
X185420000Y-121462800D02*
X177857150Y-121462800D01*
X189484000Y-95808800D02*
X187960000Y-95808800D01*
X186690000Y-120192800D02*
X185420000Y-121462800D01*
X177857150Y-121462800D02*
X176530000Y-120135650D01*
X186690000Y-97078800D02*
X186690000Y-120192800D01*
%TO.N,MISO*%
X189484000Y-90728800D02*
X187960000Y-90728800D01*
X178308000Y-120446800D02*
X177546000Y-119684800D01*
X184912000Y-120446800D02*
X178308000Y-120446800D01*
X185674000Y-119684800D02*
X184912000Y-120446800D01*
X185674000Y-93014800D02*
X185674000Y-119684800D01*
X187960000Y-90728800D02*
X185674000Y-93014800D01*
X177546000Y-119684800D02*
X177546000Y-90220800D01*
D26*
%TO.N,Vin*%
X151638000Y-111810800D02*
X151638000Y-99618800D01*
X140899000Y-120954800D02*
X147574000Y-120954800D01*
X147574000Y-120954800D02*
X151638000Y-116890800D01*
X152654000Y-75996800D02*
X152654000Y-64312800D01*
X151638000Y-116890800D02*
X151638000Y-111810800D01*
X153660000Y-63306800D02*
X155448000Y-63306800D01*
X153670000Y-74980800D02*
X155448000Y-74980800D01*
X131572000Y-120954800D02*
X140899000Y-120954800D01*
X151638000Y-99618800D02*
X152654000Y-98602800D01*
X152654000Y-64312800D02*
X153660000Y-63306800D01*
X152654000Y-75996800D02*
X153670000Y-74980800D01*
X152654000Y-98602800D02*
X152654000Y-75996800D01*
X130302000Y-122224800D02*
X131572000Y-120954800D01*
X152654000Y-98602800D02*
X154432000Y-98602800D01*
D25*
X154432000Y-110804800D02*
X152644000Y-110804800D01*
X152644000Y-110804800D02*
X151638000Y-111810800D01*
%TD*%
M02*
