M48
; DRILL file {KiCad 7.0.10} date Sun May 12 01:16:26 2024
; FORMAT={-:-/ absolute / metric / decimal}
; #@! TF.CreationDate,2024-05-12T01:16:26-03:00
; #@! TF.GenerationSoftware,Kicad,Pcbnew,7.0.10
; #@! TF.FileFunction,Plated,1,2,PTH
FMAT,2
METRIC
; #@! TA.AperFunction,Plated,PTH,ViaDrill
T1C0.200
; #@! TA.AperFunction,Plated,PTH,ViaDrill
T2C0.250
; #@! TA.AperFunction,Plated,PTH,ComponentDrill
T3C0.750
; #@! TA.AperFunction,Plated,PTH,ComponentDrill
T4C0.800
; #@! TA.AperFunction,Plated,PTH,ComponentDrill
T5C1.000
; #@! TA.AperFunction,Plated,PTH,ComponentDrill
T6C1.020
; #@! TA.AperFunction,Plated,PTH,ComponentDrill
T7C1.100
; #@! TA.AperFunction,Plated,PTH,ComponentDrill
T8C1.520
%
G90
G05
T1
X116.078Y-59.487
X129.794Y-58.725
X129.794Y-61.265
X141.478Y-62.027
X171.958Y-59.487
X172.466Y-58.979
X172.974Y-58.471
X173.482Y-57.963
X173.99Y-57.455
X174.498Y-56.947
X175.006Y-56.439
X176.022Y-82.601
X176.53Y-87.681
X177.038Y-85.141
X177.546Y-90.221
T2
X180.34Y-43.485
X180.34Y-64.821
X180.34Y-119.177
T3
X141.986Y-43.739
X141.986Y-51.359
X144.526Y-43.734
X144.526Y-51.354
X147.066Y-43.744
X147.066Y-51.364
X149.606Y-43.739
X149.606Y-51.359
X152.146Y-43.744
X152.146Y-51.364
X154.686Y-43.734
X154.686Y-51.354
X157.226Y-43.744
X157.226Y-51.364
X159.766Y-43.739
X159.766Y-51.359
X162.306Y-43.744
X162.306Y-51.364
X164.846Y-43.734
X164.846Y-51.354
X167.386Y-43.744
X167.386Y-51.364
X169.926Y-43.739
X169.926Y-51.359
X172.466Y-43.739
X172.466Y-51.359
X175.006Y-43.739
X175.006Y-51.359
T4
X105.918Y-52.375
X105.918Y-62.535
X107.442Y-66.98
X107.442Y-72.06
X107.442Y-77.14
X116.078Y-52.375
X116.078Y-62.535
X117.602Y-66.98
X117.602Y-72.06
X117.602Y-77.14
X122.135Y-126.035
X124.635Y-126.035
X126.238Y-52.375
X126.238Y-62.535
X136.398Y-52.375
X136.398Y-62.535
X142.748Y-66.98
X142.748Y-77.14
X142.748Y-84.76
X142.748Y-94.92
X142.748Y-102.54
X142.748Y-112.7
X146.05Y-124.035
X146.05Y-126.035
X146.812Y-98.603
X146.812Y-101.143
X146.812Y-103.683
X146.812Y-106.223
X146.812Y-110.805
X146.812Y-113.345
X146.812Y-115.885
X146.812Y-118.425
X147.828Y-63.307
X147.828Y-65.847
X147.828Y-68.387
X147.828Y-70.927
X147.828Y-74.981
X147.828Y-77.521
X147.828Y-80.061
X147.828Y-82.601
X152.4Y-123.241
X152.4Y-126.543
X154.432Y-98.603
X154.432Y-101.143
X154.432Y-103.683
X154.432Y-106.223
X154.432Y-110.805
X154.432Y-113.345
X154.432Y-115.885
X154.432Y-118.425
X155.448Y-63.307
X155.448Y-65.847
X155.448Y-68.387
X155.448Y-70.927
X155.448Y-74.981
X155.448Y-77.521
X155.448Y-80.061
X155.448Y-82.601
X162.56Y-123.241
X162.56Y-126.543
T5
X98.363Y-123.44
X104.363Y-89.84
X110.363Y-89.84
X116.363Y-123.44
X125.476Y-66.98
X125.476Y-79.68
X125.476Y-84.76
X125.476Y-97.46
X125.476Y-102.54
X125.476Y-115.24
X130.302Y-122.225
X130.302Y-124.765
X130.302Y-127.305
X135.476Y-66.98
X135.476Y-79.68
X135.476Y-84.76
X135.476Y-97.46
X135.476Y-102.54
X135.476Y-115.24
X141.478Y-56.439
X189.484Y-42.596
X189.484Y-45.136
X189.484Y-47.676
X189.484Y-51.867
X189.484Y-54.407
X189.484Y-56.947
X189.484Y-59.487
X189.484Y-64.821
X189.484Y-67.361
X189.484Y-69.901
X189.484Y-75.235
X189.484Y-77.775
X189.484Y-80.315
X189.484Y-85.649
X189.484Y-88.189
X189.484Y-90.729
X189.484Y-93.269
X189.484Y-95.809
X189.484Y-98.349
T6
X160.528Y-64.821
X160.528Y-67.361
X160.528Y-69.901
X160.528Y-72.441
X160.528Y-74.981
X160.528Y-77.521
X160.528Y-80.061
X160.528Y-82.601
X160.528Y-85.141
X160.528Y-87.681
X160.528Y-90.221
X160.528Y-92.761
X160.528Y-95.301
X160.528Y-97.841
X160.528Y-100.381
X160.528Y-102.921
X160.528Y-105.461
X160.528Y-108.001
X160.528Y-110.541
X160.528Y-113.081
X160.528Y-115.621
X160.528Y-118.161
X183.388Y-64.821
X183.388Y-67.361
X183.388Y-69.901
X183.388Y-72.441
X183.388Y-74.981
X183.388Y-77.521
X183.388Y-80.061
X183.388Y-82.601
X183.388Y-85.141
X183.388Y-87.681
X183.388Y-90.221
X183.388Y-92.761
X183.388Y-95.301
X183.388Y-97.841
X183.388Y-100.381
X183.388Y-102.921
X183.388Y-105.461
X183.388Y-108.001
X183.388Y-110.541
X183.388Y-113.081
X183.388Y-115.621
X183.388Y-118.161
T7
X140.899Y-120.955
X140.899Y-123.495
X140.899Y-126.035
T8
X100.838Y-46.787
X101.473Y-66.98
X101.473Y-72.06
X101.473Y-77.14
X101.473Y-82.22
X105.918Y-46.787
X110.998Y-46.787
X116.078Y-46.787
X121.158Y-46.787
X126.238Y-46.787
X131.318Y-46.787
X136.398Y-46.787
M30
