%TF.GenerationSoftware,KiCad,Pcbnew,7.0.10*%
%TF.CreationDate,2024-06-26T03:26:06-03:00*%
%TF.ProjectId,board,626f6172-642e-46b6-9963-61645f706362,1.3*%
%TF.SameCoordinates,Original*%
%TF.FileFunction,Copper,L4,Bot*%
%TF.FilePolarity,Positive*%
%FSLAX46Y46*%
G04 Gerber Fmt 4.6, Leading zero omitted, Abs format (unit mm)*
G04 Created by KiCad (PCBNEW 7.0.10) date 2024-06-26 03:26:06*
%MOMM*%
%LPD*%
G01*
G04 APERTURE LIST*
%TA.AperFunction,ComponentPad*%
%ADD10O,1.508000X1.508000*%
%TD*%
%TA.AperFunction,ComponentPad*%
%ADD11C,1.508000*%
%TD*%
%TA.AperFunction,ComponentPad*%
%ADD12O,2.000000X2.000000*%
%TD*%
%TA.AperFunction,ComponentPad*%
%ADD13C,2.000000*%
%TD*%
%TA.AperFunction,ComponentPad*%
%ADD14O,3.000000X3.000000*%
%TD*%
%TA.AperFunction,ComponentPad*%
%ADD15C,3.000000*%
%TD*%
%TA.AperFunction,ComponentPad*%
%ADD16O,1.700000X1.700000*%
%TD*%
%TA.AperFunction,ViaPad*%
%ADD17C,0.700000*%
%TD*%
%TA.AperFunction,Conductor*%
%ADD18C,0.200000*%
%TD*%
G04 APERTURE END LIST*
D10*
%TO.P,TP2,1*%
%TO.N,Net-(R4-Pad1)*%
X118783800Y-83145000D03*
D11*
%TO.P,TP2,2*%
%TO.N,Neutral*%
X118783800Y-95845000D03*
%TO.P,TP2,3*%
%TO.N,TP B-1*%
X128783800Y-95845000D03*
%TO.P,TP2,4*%
%TO.N,TC A-1*%
X128783800Y-83145000D03*
%TD*%
D12*
%TO.P,PS1,1,AC/L*%
%TO.N,Line A*%
X111734500Y-47546000D03*
D13*
%TO.P,PS1,2,AC/N*%
%TO.N,Neutral*%
X111734500Y-53546000D03*
%TO.P,PS1,3,-Vout*%
%TO.N,GND*%
X145334500Y-41546000D03*
%TO.P,PS1,4,+Vout*%
%TO.N,Net-(PS1-+Vout)*%
X145334500Y-59546000D03*
%TD*%
D10*
%TO.P,TP1,1*%
%TO.N,Net-(R3-Pad1)*%
X118783800Y-65238000D03*
D11*
%TO.P,TP1,2*%
%TO.N,Neutral*%
X118783800Y-77938000D03*
%TO.P,TP1,3*%
%TO.N,TP A-1*%
X128783800Y-77938000D03*
%TO.P,TP1,4*%
%TO.N,TC A-1*%
X128783800Y-65238000D03*
%TD*%
D14*
%TO.P,J6,1,Pin_1*%
%TO.N,TC A-1*%
X176187800Y-120483000D03*
D15*
%TO.P,J6,2,Pin_2*%
%TO.N,TC N-2*%
X181267800Y-120483000D03*
%TD*%
D10*
%TO.P,TP3,1*%
%TO.N,Net-(R5-Pad1)*%
X118783800Y-100925000D03*
D11*
%TO.P,TP3,2*%
%TO.N,Neutral*%
X118783800Y-113625000D03*
%TO.P,TP3,3*%
%TO.N,TP C-1*%
X128783800Y-113625000D03*
%TO.P,TP3,4*%
%TO.N,TC A-1*%
X128783800Y-100925000D03*
%TD*%
D16*
%TO.P,P1,1,Pin_1*%
%TO.N,GND*%
X147612800Y-73112000D03*
%TO.P,P1,2,Pin_2*%
%TO.N,UART TX*%
X150152800Y-73112000D03*
%TO.P,P1,3,Pin_3*%
%TO.N,UART RX*%
X152692800Y-73112000D03*
%TD*%
%TO.P,SW1,1,C*%
%TO.N,unconnected-(SW1-C-Pad1)*%
X151511000Y-54483000D03*
%TO.P,SW1,2,B*%
%TO.N,Vin*%
X151511000Y-57023000D03*
%TO.P,SW1,3,A*%
%TO.N,Net-(PS1-+Vout)*%
X151511000Y-59563000D03*
%TD*%
D14*
%TO.P,J3,1,Pin_1*%
%TO.N,TC A-1*%
X145707800Y-120483000D03*
D15*
%TO.P,J3,2,Pin_2*%
%TO.N,TC A-2*%
X150787800Y-120483000D03*
%TD*%
D14*
%TO.P,J1,1,Pin_1*%
%TO.N,Line A*%
X111252000Y-120483000D03*
D15*
%TO.P,J1,2,Pin_2*%
%TO.N,Line B*%
X116332000Y-120483000D03*
%TD*%
D16*
%TO.P,P4,1,Pin_1*%
%TO.N,Wave A*%
X147612800Y-67524000D03*
%TO.P,P4,2,Pin_2*%
%TO.N,Wave B*%
X150152800Y-67524000D03*
%TO.P,P4,3,Pin_3*%
%TO.N,Wave C*%
X152692800Y-67524000D03*
%TD*%
D14*
%TO.P,J5,1,Pin_1*%
%TO.N,TC A-1*%
X166027800Y-120483000D03*
D15*
%TO.P,J5,2,Pin_2*%
%TO.N,TC C-2*%
X171107800Y-120483000D03*
%TD*%
D16*
%TO.P,P5,1,Pin_1*%
%TO.N,GND*%
X168948800Y-62317000D03*
%TO.P,P5,2,Pin_2*%
%TO.N,Vcc*%
X166408800Y-62317000D03*
%TO.P,P5,3,Pin_3*%
%TO.N,MISO*%
X163868800Y-62317000D03*
%TO.P,P5,4,Pin_4*%
%TO.N,MOSI*%
X161328800Y-62317000D03*
%TO.P,P5,5,Pin_5*%
%TO.N,CLK*%
X158788800Y-62317000D03*
%TO.P,P5,6,Pin_6*%
%TO.N,CS*%
X156248800Y-62317000D03*
%TD*%
%TO.P,P3,1,Pin_1*%
%TO.N,Current A*%
X172720000Y-100076000D03*
%TO.P,P3,2,Pin_2*%
%TO.N,Current B*%
X175260000Y-100076000D03*
%TO.P,P3,3,Pin_3*%
%TO.N,Current C*%
X177800000Y-100076000D03*
%TO.P,P3,4,Pin_4*%
%TO.N,Current N*%
X180340000Y-100076000D03*
%TD*%
D14*
%TO.P,J2,1,Pin_1*%
%TO.N,Line C*%
X121412000Y-120483000D03*
D15*
%TO.P,J2,2,Pin_2*%
%TO.N,Neutral*%
X126492000Y-120483000D03*
%TD*%
D16*
%TO.P,P2,1,Pin_1*%
%TO.N,TC A-1*%
X172720000Y-93091000D03*
%TD*%
D14*
%TO.P,J4,1,Pin_1*%
%TO.N,TC A-1*%
X155867800Y-120483000D03*
D15*
%TO.P,J4,2,Pin_2*%
%TO.N,TC B-2*%
X160947800Y-120483000D03*
%TD*%
D17*
%TO.N,GND*%
X162483800Y-40284400D03*
%TO.N,Vcc*%
X164973000Y-44729400D03*
X152386000Y-48245000D03*
X183706800Y-77684000D03*
X177546000Y-90765000D03*
X167932800Y-56348000D03*
X183680800Y-67016000D03*
X183706800Y-88352000D03*
X183706800Y-84796000D03*
X165900800Y-94107000D03*
X165900800Y-92837000D03*
X183680800Y-74128000D03*
X182372000Y-90765000D03*
X183706800Y-81240000D03*
X183680800Y-70572000D03*
%TO.N,GND*%
X134023800Y-91400000D03*
X134023800Y-109180000D03*
X168186800Y-74128000D03*
X167924349Y-53037735D03*
X180632800Y-116038000D03*
X168212800Y-81240000D03*
X161201800Y-54732000D03*
X160312800Y-116038000D03*
X168186800Y-67016000D03*
X168186800Y-70572000D03*
X150086000Y-48245000D03*
X168212800Y-77684000D03*
X145580800Y-95377000D03*
X134023800Y-73620000D03*
X165900800Y-95377000D03*
X150152800Y-116038000D03*
X168212800Y-88352000D03*
X168212800Y-84796000D03*
X170472800Y-116038000D03*
%TO.N,Current A*%
X172720000Y-95758000D03*
X166916800Y-95758000D03*
X175946800Y-88352000D03*
%TO.N,Current B*%
X167678800Y-96520000D03*
X175260000Y-96520000D03*
X175946800Y-84796000D03*
%TO.N,Current C*%
X175946800Y-81240000D03*
X177800000Y-97282000D03*
X168440800Y-97282000D03*
%TO.N,Current N*%
X180340000Y-98044000D03*
X169202800Y-98044000D03*
X175946800Y-77684000D03*
%TO.N,TC A-2*%
X147612800Y-116038000D03*
%TO.N,TC A-1*%
X179362800Y-116038000D03*
X148882800Y-116038000D03*
X169202800Y-116038000D03*
X159042800Y-116038000D03*
X134023800Y-90130000D03*
X156121800Y-56348000D03*
X134023800Y-72350000D03*
X134023800Y-107910000D03*
%TO.N,TP A-1*%
X134023800Y-71080000D03*
%TO.N,TP C-1*%
X134023800Y-106640000D03*
%TO.N,TP B-1*%
X134023800Y-88860000D03*
%TO.N,TC B-2*%
X157772800Y-116038000D03*
%TO.N,Wave A*%
X175933800Y-67016000D03*
X162750800Y-76160000D03*
X147104800Y-69556000D03*
X143010800Y-76160000D03*
X140754800Y-76160000D03*
%TO.N,Wave B*%
X143660800Y-92837000D03*
X140754800Y-93940000D03*
X144960800Y-92837000D03*
X175933800Y-70572000D03*
X149009800Y-70318000D03*
%TO.N,Wave C*%
X144310800Y-94107000D03*
X140754800Y-111720000D03*
X175940300Y-74128000D03*
X150914800Y-71080000D03*
%TO.N,CS*%
X158940800Y-67016000D03*
%TO.N,MOSI*%
X157670800Y-67905000D03*
%TO.N,MISO*%
X155130800Y-68794000D03*
%TO.N,TC N-2*%
X178092800Y-116038000D03*
%TO.N,Vin*%
X154686000Y-48220000D03*
%TO.N,TC C-2*%
X167932800Y-116038000D03*
%TO.N,Net-(AMP1B--)*%
X135039800Y-76160000D03*
X139103800Y-71080000D03*
%TO.N,Net-(AMP2B--)*%
X135039800Y-93940000D03*
X139103800Y-88860000D03*
%TO.N,Net-(AMP3B--)*%
X139103800Y-106640000D03*
X135039800Y-111720000D03*
%TO.N,Net-(AMP4B--)*%
X147612800Y-110958000D03*
X145453800Y-106005000D03*
%TO.N,Net-(AMP5B--)*%
X155613800Y-106005000D03*
X157772800Y-110958000D03*
%TO.N,Net-(AMP6B--)*%
X167932800Y-110958000D03*
X165773800Y-106005000D03*
%TO.N,Net-(AMP7B--)*%
X175933800Y-106005000D03*
X178092800Y-110958000D03*
%TD*%
D18*
%TO.N,Vcc*%
X164973000Y-49909800D02*
X164973000Y-44729400D01*
X163995800Y-50887000D02*
X164973000Y-49909800D01*
%TO.N,Neutral*%
X121323800Y-115314800D02*
X121323800Y-78446000D01*
X121323800Y-78446000D02*
X121260300Y-78382500D01*
X120815800Y-77938000D02*
X118783800Y-77938000D01*
X117378800Y-53546000D02*
X111734500Y-53546000D01*
X120561800Y-113625000D02*
X121323800Y-114387000D01*
X120561800Y-95845000D02*
X121323800Y-96607000D01*
X121260300Y-78382500D02*
X121323800Y-78319000D01*
X126492000Y-120483000D02*
X121323800Y-115314800D01*
X121323800Y-57491000D02*
X117378800Y-53546000D01*
X118783800Y-113625000D02*
X120561800Y-113625000D01*
X118783800Y-95845000D02*
X120561800Y-95845000D01*
X121323800Y-78319000D02*
X121323800Y-57491000D01*
X121260300Y-78382500D02*
X120815800Y-77938000D01*
%TO.N,Vcc*%
X152386000Y-48245000D02*
X152386000Y-49945200D01*
X177546000Y-90765000D02*
X167972800Y-90765000D01*
X165900800Y-92837000D02*
X165900800Y-94107000D01*
X153327800Y-50887000D02*
X163995800Y-50887000D01*
X183680800Y-74128000D02*
X183680800Y-70572000D01*
X182372000Y-90765000D02*
X183706800Y-89430200D01*
X167932800Y-58380000D02*
X166408800Y-59904000D01*
X183706800Y-89430200D02*
X183706800Y-88352000D01*
X166408800Y-59904000D02*
X166408800Y-62317000D01*
X167932800Y-54824000D02*
X167932800Y-56348000D01*
X183706800Y-84796000D02*
X183706800Y-81240000D01*
X167972800Y-90765000D02*
X165900800Y-92837000D01*
X183706800Y-88352000D02*
X183706800Y-84796000D01*
X163995800Y-50887000D02*
X167932800Y-54824000D01*
X183706800Y-77684000D02*
X183706800Y-74154000D01*
X167932800Y-56348000D02*
X167932800Y-58380000D01*
X183680800Y-67016000D02*
X183680800Y-64984000D01*
X183706800Y-74154000D02*
X183680800Y-74128000D01*
X183680800Y-67016000D02*
X183680800Y-70572000D01*
X152386000Y-49945200D02*
X153327800Y-50887000D01*
X183680800Y-64984000D02*
X175044800Y-56348000D01*
X175044800Y-56348000D02*
X167932800Y-56348000D01*
X183706800Y-81240000D02*
X183706800Y-77684000D01*
%TO.N,Current A*%
X178816000Y-94964250D02*
X178816000Y-88900000D01*
X178022250Y-95758000D02*
X178816000Y-94964250D01*
X178816000Y-88900000D02*
X178268000Y-88352000D01*
X178268000Y-88352000D02*
X175946800Y-88352000D01*
X166916800Y-95758000D02*
X178022250Y-95758000D01*
%TO.N,Current B*%
X167678800Y-96520000D02*
X178816000Y-96520000D01*
X178268000Y-84796000D02*
X175946800Y-84796000D01*
X178816000Y-96520000D02*
X179578000Y-95758000D01*
X179578000Y-95758000D02*
X179578000Y-86106000D01*
X179578000Y-86106000D02*
X178268000Y-84796000D01*
%TO.N,Current C*%
X180340000Y-96520000D02*
X180340000Y-83312000D01*
X179578000Y-97282000D02*
X180340000Y-96520000D01*
X178268000Y-81240000D02*
X175946800Y-81240000D01*
X168440800Y-97282000D02*
X179578000Y-97282000D01*
X180340000Y-83312000D02*
X178268000Y-81240000D01*
%TO.N,Current N*%
X181102000Y-80518000D02*
X178268000Y-77684000D01*
X181102000Y-97282000D02*
X181102000Y-80518000D01*
X169202800Y-98044000D02*
X180340000Y-98044000D01*
X180340000Y-98044000D02*
X181102000Y-97282000D01*
X178268000Y-77684000D02*
X175946800Y-77684000D01*
%TO.N,TC A-1*%
X179362800Y-117308000D02*
X179362800Y-116038000D01*
X145707800Y-120483000D02*
X148882800Y-117308000D01*
X176187800Y-120483000D02*
X179362800Y-117308000D01*
X169202800Y-117308000D02*
X169202800Y-116038000D01*
X155867800Y-120483000D02*
X159042800Y-117308000D01*
X166027800Y-120483000D02*
X169202800Y-117308000D01*
X148882800Y-117308000D02*
X148882800Y-116038000D01*
X159042800Y-117308000D02*
X159042800Y-116038000D01*
%TO.N,TP A-1*%
X130086800Y-71080000D02*
X134023800Y-71080000D01*
X128783800Y-77938000D02*
X128783800Y-72383000D01*
X128783800Y-72383000D02*
X130086800Y-71080000D01*
%TO.N,TP C-1*%
X130086800Y-106640000D02*
X128783800Y-107943000D01*
X134023800Y-106640000D02*
X130086800Y-106640000D01*
X128783800Y-107943000D02*
X128783800Y-113625000D01*
%TO.N,TP B-1*%
X128783800Y-90163000D02*
X128783800Y-95845000D01*
X130086800Y-88860000D02*
X128783800Y-90163000D01*
X134023800Y-88860000D02*
X130086800Y-88860000D01*
%TO.N,Wave A*%
X140754800Y-76160000D02*
X162725800Y-76160000D01*
X147104800Y-69556000D02*
X165456300Y-69556000D01*
X174536800Y-68413000D02*
X175933800Y-67016000D01*
X166599300Y-68413000D02*
X174536800Y-68413000D01*
X165456300Y-69556000D02*
X166599300Y-68413000D01*
%TO.N,Wave B*%
X149009800Y-70318000D02*
X165392800Y-70318000D01*
X144960800Y-92837000D02*
X141857800Y-92837000D01*
X174536800Y-71969000D02*
X175933800Y-70572000D01*
X141857800Y-92837000D02*
X140754800Y-93940000D01*
X165392800Y-70318000D02*
X167043800Y-71969000D01*
X167043800Y-71969000D02*
X174536800Y-71969000D01*
%TO.N,Wave C*%
X140754800Y-111720000D02*
X140754800Y-111847000D01*
X150914800Y-71080000D02*
X165011800Y-71080000D01*
X144310800Y-94107000D02*
X144310800Y-104608000D01*
X140754800Y-108164000D02*
X140754800Y-111720000D01*
X174543300Y-72731000D02*
X175940300Y-74128000D01*
X144310800Y-104608000D02*
X140754800Y-108164000D01*
X165011800Y-71080000D02*
X166662800Y-72731000D01*
X166662800Y-72731000D02*
X174543300Y-72731000D01*
%TO.N,CS*%
X156248800Y-66508000D02*
X156248800Y-62317000D01*
X158940800Y-67016000D02*
X156756800Y-67016000D01*
X156756800Y-67016000D02*
X156248800Y-66508000D01*
%TO.N,MOSI*%
X157670800Y-67905000D02*
X160820800Y-67905000D01*
X160820800Y-67905000D02*
X161328800Y-67397000D01*
X161328800Y-67397000D02*
X161328800Y-62317000D01*
%TO.N,MISO*%
X155130800Y-68794000D02*
X163360800Y-68794000D01*
X163868800Y-68286000D02*
X163868800Y-62317000D01*
X163360800Y-68794000D02*
X163868800Y-68286000D01*
%TO.N,Net-(AMP1B--)*%
X138214800Y-71080000D02*
X139103800Y-71080000D01*
X135039800Y-76160000D02*
X135039800Y-74255000D01*
X135039800Y-74255000D02*
X138214800Y-71080000D01*
%TO.N,Net-(AMP2B--)*%
X135039800Y-93940000D02*
X135039800Y-92035000D01*
X135039800Y-92035000D02*
X138214800Y-88860000D01*
X138214800Y-88860000D02*
X139103800Y-88860000D01*
%TO.N,Net-(AMP3B--)*%
X135039800Y-111720000D02*
X135039800Y-109815000D01*
X135039800Y-109815000D02*
X138214800Y-106640000D01*
X138214800Y-106640000D02*
X139103800Y-106640000D01*
%TO.N,Net-(AMP4B--)*%
X145453800Y-108799000D02*
X147612800Y-110958000D01*
X145453800Y-106005000D02*
X145453800Y-108799000D01*
%TO.N,Net-(AMP5B--)*%
X155613800Y-106005000D02*
X155613800Y-108799000D01*
X155613800Y-108799000D02*
X157772800Y-110958000D01*
%TO.N,Net-(AMP6B--)*%
X165773800Y-108799000D02*
X167932800Y-110958000D01*
X165773800Y-106005000D02*
X165773800Y-108799000D01*
%TO.N,Net-(AMP7B--)*%
X175933800Y-106005000D02*
X175933800Y-108799000D01*
X175933800Y-108799000D02*
X178092800Y-110958000D01*
%TD*%
M02*
