%TF.GenerationSoftware,KiCad,Pcbnew,7.0.10*%
%TF.CreationDate,2024-06-26T03:26:05-03:00*%
%TF.ProjectId,board,626f6172-642e-46b6-9963-61645f706362,1.3*%
%TF.SameCoordinates,Original*%
%TF.FileFunction,Copper,L2,Inr*%
%TF.FilePolarity,Positive*%
%FSLAX46Y46*%
G04 Gerber Fmt 4.6, Leading zero omitted, Abs format (unit mm)*
G04 Created by KiCad (PCBNEW 7.0.10) date 2024-06-26 03:26:05*
%MOMM*%
%LPD*%
G01*
G04 APERTURE LIST*
%TA.AperFunction,ComponentPad*%
%ADD10O,1.508000X1.508000*%
%TD*%
%TA.AperFunction,ComponentPad*%
%ADD11C,1.508000*%
%TD*%
%TA.AperFunction,ComponentPad*%
%ADD12O,2.000000X2.000000*%
%TD*%
%TA.AperFunction,ComponentPad*%
%ADD13C,2.000000*%
%TD*%
%TA.AperFunction,ComponentPad*%
%ADD14O,3.000000X3.000000*%
%TD*%
%TA.AperFunction,ComponentPad*%
%ADD15C,3.000000*%
%TD*%
%TA.AperFunction,ComponentPad*%
%ADD16O,1.700000X1.700000*%
%TD*%
%TA.AperFunction,ViaPad*%
%ADD17C,0.700000*%
%TD*%
G04 APERTURE END LIST*
D10*
%TO.N,Net-(R4-Pad1)*%
%TO.C,TP2*%
X118783800Y-83145000D03*
D11*
%TO.N,Neutral*%
X118783800Y-95845000D03*
%TO.N,TP B-1*%
X128783800Y-95845000D03*
%TO.N,TC A-1*%
X128783800Y-83145000D03*
%TD*%
D12*
%TO.N,Line A*%
%TO.C,PS1*%
X111734500Y-47546000D03*
D13*
%TO.N,Neutral*%
X111734500Y-53546000D03*
%TO.N,GND*%
X145334500Y-41546000D03*
%TO.N,Net-(PS1-+Vout)*%
X145334500Y-59546000D03*
%TD*%
D10*
%TO.N,Net-(R3-Pad1)*%
%TO.C,TP1*%
X118783800Y-65238000D03*
D11*
%TO.N,Neutral*%
X118783800Y-77938000D03*
%TO.N,TP A-1*%
X128783800Y-77938000D03*
%TO.N,TC A-1*%
X128783800Y-65238000D03*
%TD*%
D14*
%TO.N,TC A-1*%
%TO.C,J6*%
X176187800Y-120483000D03*
D15*
%TO.N,TC N-2*%
X181267800Y-120483000D03*
%TD*%
D10*
%TO.N,Net-(R5-Pad1)*%
%TO.C,TP3*%
X118783800Y-100925000D03*
D11*
%TO.N,Neutral*%
X118783800Y-113625000D03*
%TO.N,TP C-1*%
X128783800Y-113625000D03*
%TO.N,TC A-1*%
X128783800Y-100925000D03*
%TD*%
D16*
%TO.N,GND*%
%TO.C,P1*%
X147612800Y-73112000D03*
%TO.N,UART TX*%
X150152800Y-73112000D03*
%TO.N,UART RX*%
X152692800Y-73112000D03*
%TD*%
%TO.N,unconnected-(SW1-C-Pad1)*%
%TO.C,SW1*%
X151511000Y-54483000D03*
%TO.N,Vin*%
X151511000Y-57023000D03*
%TO.N,Net-(PS1-+Vout)*%
X151511000Y-59563000D03*
%TD*%
D14*
%TO.N,TC A-1*%
%TO.C,J3*%
X145707800Y-120483000D03*
D15*
%TO.N,TC A-2*%
X150787800Y-120483000D03*
%TD*%
D14*
%TO.N,Line A*%
%TO.C,J1*%
X111252000Y-120483000D03*
D15*
%TO.N,Line B*%
X116332000Y-120483000D03*
%TD*%
D16*
%TO.N,Wave A*%
%TO.C,P4*%
X147612800Y-67524000D03*
%TO.N,Wave B*%
X150152800Y-67524000D03*
%TO.N,Wave C*%
X152692800Y-67524000D03*
%TD*%
D14*
%TO.N,TC A-1*%
%TO.C,J5*%
X166027800Y-120483000D03*
D15*
%TO.N,TC C-2*%
X171107800Y-120483000D03*
%TD*%
D16*
%TO.N,GND*%
%TO.C,P5*%
X168948800Y-62317000D03*
%TO.N,Vcc*%
X166408800Y-62317000D03*
%TO.N,MISO*%
X163868800Y-62317000D03*
%TO.N,MOSI*%
X161328800Y-62317000D03*
%TO.N,CLK*%
X158788800Y-62317000D03*
%TO.N,CS*%
X156248800Y-62317000D03*
%TD*%
%TO.N,Current A*%
%TO.C,P3*%
X172720000Y-100076000D03*
%TO.N,Current B*%
X175260000Y-100076000D03*
%TO.N,Current C*%
X177800000Y-100076000D03*
%TO.N,Current N*%
X180340000Y-100076000D03*
%TD*%
D14*
%TO.N,Line C*%
%TO.C,J2*%
X121412000Y-120483000D03*
D15*
%TO.N,Neutral*%
X126492000Y-120483000D03*
%TD*%
D16*
%TO.N,TC A-1*%
%TO.C,P2*%
X172720000Y-93091000D03*
%TD*%
D14*
%TO.N,TC A-1*%
%TO.C,J4*%
X155867800Y-120483000D03*
D15*
%TO.N,TC B-2*%
X160947800Y-120483000D03*
%TD*%
D17*
%TO.N,GND*%
X162483800Y-40284400D03*
%TO.N,Vcc*%
X164973000Y-44729400D03*
X152386000Y-48245000D03*
X183706800Y-77684000D03*
X177546000Y-90765000D03*
X167932800Y-56348000D03*
X183680800Y-67016000D03*
X183706800Y-88352000D03*
X183706800Y-84796000D03*
X165900800Y-94107000D03*
X165900800Y-92837000D03*
X183680800Y-74128000D03*
X182372000Y-90765000D03*
X183706800Y-81240000D03*
X183680800Y-70572000D03*
%TO.N,GND*%
X134023800Y-91400000D03*
X134023800Y-109180000D03*
X168186800Y-74128000D03*
X167924349Y-53037735D03*
X180632800Y-116038000D03*
X168212800Y-81240000D03*
X161201800Y-54732000D03*
X160312800Y-116038000D03*
X168186800Y-67016000D03*
X168186800Y-70572000D03*
X150086000Y-48245000D03*
X168212800Y-77684000D03*
X145580800Y-95377000D03*
X134023800Y-73620000D03*
X165900800Y-95377000D03*
X150152800Y-116038000D03*
X168212800Y-88352000D03*
X168212800Y-84796000D03*
X170472800Y-116038000D03*
%TO.N,Current A*%
X172720000Y-95758000D03*
X166916800Y-95758000D03*
X175946800Y-88352000D03*
%TO.N,Current B*%
X167678800Y-96520000D03*
X175260000Y-96520000D03*
X175946800Y-84796000D03*
%TO.N,Current C*%
X175946800Y-81240000D03*
X177800000Y-97282000D03*
X168440800Y-97282000D03*
%TO.N,Current N*%
X180340000Y-98044000D03*
X169202800Y-98044000D03*
X175946800Y-77684000D03*
%TO.N,TC A-2*%
X147612800Y-116038000D03*
%TO.N,TC A-1*%
X179362800Y-116038000D03*
X148882800Y-116038000D03*
X169202800Y-116038000D03*
X159042800Y-116038000D03*
X134023800Y-90130000D03*
X156121800Y-56348000D03*
X134023800Y-72350000D03*
X134023800Y-107910000D03*
%TO.N,TP A-1*%
X134023800Y-71080000D03*
%TO.N,TP C-1*%
X134023800Y-106640000D03*
%TO.N,TP B-1*%
X134023800Y-88860000D03*
%TO.N,TC B-2*%
X157772800Y-116038000D03*
%TO.N,Wave A*%
X175933800Y-67016000D03*
X162750800Y-76160000D03*
X147104800Y-69556000D03*
X143010800Y-76160000D03*
X140754800Y-76160000D03*
%TO.N,Wave B*%
X143660800Y-92837000D03*
X140754800Y-93940000D03*
X144960800Y-92837000D03*
X175933800Y-70572000D03*
X149009800Y-70318000D03*
%TO.N,Wave C*%
X144310800Y-94107000D03*
X140754800Y-111720000D03*
X175940300Y-74128000D03*
X150914800Y-71080000D03*
%TO.N,CS*%
X158940800Y-67016000D03*
%TO.N,MOSI*%
X157670800Y-67905000D03*
%TO.N,MISO*%
X155130800Y-68794000D03*
%TO.N,TC N-2*%
X178092800Y-116038000D03*
%TO.N,Vin*%
X154686000Y-48220000D03*
%TO.N,TC C-2*%
X167932800Y-116038000D03*
%TO.N,Net-(AMP1B--)*%
X135039800Y-76160000D03*
X139103800Y-71080000D03*
%TO.N,Net-(AMP2B--)*%
X135039800Y-93940000D03*
X139103800Y-88860000D03*
%TO.N,Net-(AMP3B--)*%
X139103800Y-106640000D03*
X135039800Y-111720000D03*
%TO.N,Net-(AMP4B--)*%
X147612800Y-110958000D03*
X145453800Y-106005000D03*
%TO.N,Net-(AMP5B--)*%
X155613800Y-106005000D03*
X157772800Y-110958000D03*
%TO.N,Net-(AMP6B--)*%
X167932800Y-110958000D03*
X165773800Y-106005000D03*
%TO.N,Net-(AMP7B--)*%
X175933800Y-106005000D03*
X178092800Y-110958000D03*
%TD*%
%TA.AperFunction,Conductor*%
%TO.N,GND*%
G36*
X182414828Y-38179764D02*
G01*
X182652340Y-38195331D01*
X182668396Y-38197446D01*
X182897826Y-38243082D01*
X182913481Y-38247277D01*
X183134990Y-38322469D01*
X183149962Y-38328670D01*
X183349428Y-38427036D01*
X183359760Y-38432131D01*
X183373807Y-38440241D01*
X183568302Y-38570199D01*
X183581166Y-38580070D01*
X183757031Y-38734299D01*
X183768500Y-38745768D01*
X183922729Y-38921633D01*
X183932603Y-38934501D01*
X184062558Y-39128992D01*
X184070668Y-39143039D01*
X184174126Y-39352830D01*
X184180333Y-39367816D01*
X184255520Y-39589312D01*
X184259718Y-39604979D01*
X184305352Y-39834398D01*
X184307469Y-39850479D01*
X184323034Y-40087941D01*
X184323300Y-40096051D01*
X184323300Y-66188163D01*
X184303615Y-66255202D01*
X184250811Y-66300957D01*
X184181653Y-66310901D01*
X184126415Y-66288481D01*
X184108397Y-66275390D01*
X184108393Y-66275388D01*
X183945067Y-66202671D01*
X183945065Y-66202670D01*
X183817394Y-66175533D01*
X183770191Y-66165500D01*
X183591409Y-66165500D01*
X183560754Y-66172015D01*
X183416533Y-66202670D01*
X183416528Y-66202672D01*
X183253208Y-66275387D01*
X183108568Y-66380475D01*
X182988940Y-66513336D01*
X182899550Y-66668164D01*
X182899547Y-66668170D01*
X182844304Y-66838192D01*
X182844303Y-66838194D01*
X182825615Y-67016000D01*
X182844303Y-67193805D01*
X182844304Y-67193807D01*
X182899547Y-67363829D01*
X182899550Y-67363835D01*
X182988941Y-67518665D01*
X182993744Y-67523999D01*
X183108564Y-67651521D01*
X183108567Y-67651523D01*
X183108570Y-67651526D01*
X183253207Y-67756612D01*
X183416533Y-67829329D01*
X183591409Y-67866500D01*
X183591410Y-67866500D01*
X183770189Y-67866500D01*
X183770191Y-67866500D01*
X183945067Y-67829329D01*
X184108393Y-67756612D01*
X184126412Y-67743519D01*
X184192218Y-67720038D01*
X184260272Y-67735862D01*
X184308968Y-67785967D01*
X184323300Y-67843836D01*
X184323300Y-69744163D01*
X184303615Y-69811202D01*
X184250811Y-69856957D01*
X184181653Y-69866901D01*
X184126415Y-69844481D01*
X184108397Y-69831390D01*
X184108393Y-69831388D01*
X183945067Y-69758671D01*
X183945065Y-69758670D01*
X183817394Y-69731533D01*
X183770191Y-69721500D01*
X183591409Y-69721500D01*
X183560754Y-69728015D01*
X183416533Y-69758670D01*
X183416528Y-69758672D01*
X183253208Y-69831387D01*
X183108568Y-69936475D01*
X182988940Y-70069336D01*
X182899550Y-70224164D01*
X182899547Y-70224170D01*
X182844304Y-70394192D01*
X182844303Y-70394194D01*
X182825615Y-70572000D01*
X182844303Y-70749805D01*
X182844304Y-70749807D01*
X182899547Y-70919829D01*
X182899550Y-70919835D01*
X182988941Y-71074665D01*
X182993745Y-71080000D01*
X183108564Y-71207521D01*
X183108567Y-71207523D01*
X183108570Y-71207526D01*
X183253207Y-71312612D01*
X183416533Y-71385329D01*
X183591409Y-71422500D01*
X183591410Y-71422500D01*
X183770189Y-71422500D01*
X183770191Y-71422500D01*
X183945067Y-71385329D01*
X184108393Y-71312612D01*
X184126412Y-71299519D01*
X184192218Y-71276038D01*
X184260272Y-71291862D01*
X184308968Y-71341967D01*
X184323300Y-71399836D01*
X184323300Y-73300163D01*
X184303615Y-73367202D01*
X184250811Y-73412957D01*
X184181653Y-73422901D01*
X184126415Y-73400481D01*
X184108397Y-73387390D01*
X184108393Y-73387388D01*
X183945067Y-73314671D01*
X183945065Y-73314670D01*
X183817394Y-73287533D01*
X183770191Y-73277500D01*
X183591409Y-73277500D01*
X183560754Y-73284015D01*
X183416533Y-73314670D01*
X183416528Y-73314672D01*
X183253208Y-73387387D01*
X183108568Y-73492475D01*
X182988940Y-73625336D01*
X182899550Y-73780164D01*
X182899547Y-73780170D01*
X182844304Y-73950192D01*
X182844303Y-73950194D01*
X182825615Y-74128000D01*
X182844303Y-74305805D01*
X182844304Y-74305807D01*
X182899547Y-74475829D01*
X182899550Y-74475835D01*
X182988941Y-74630665D01*
X183030612Y-74676946D01*
X183108564Y-74763521D01*
X183108567Y-74763523D01*
X183108570Y-74763526D01*
X183253207Y-74868612D01*
X183416533Y-74941329D01*
X183591409Y-74978500D01*
X183591410Y-74978500D01*
X183770189Y-74978500D01*
X183770191Y-74978500D01*
X183945067Y-74941329D01*
X184108393Y-74868612D01*
X184126412Y-74855519D01*
X184192218Y-74832038D01*
X184260272Y-74847862D01*
X184308968Y-74897967D01*
X184323300Y-74955836D01*
X184323300Y-76837679D01*
X184303615Y-76904718D01*
X184250811Y-76950473D01*
X184181653Y-76960417D01*
X184137306Y-76945070D01*
X184134395Y-76943389D01*
X184047538Y-76904718D01*
X183971067Y-76870671D01*
X183971065Y-76870670D01*
X183843394Y-76843533D01*
X183796191Y-76833500D01*
X183617409Y-76833500D01*
X183586754Y-76840015D01*
X183442533Y-76870670D01*
X183442528Y-76870672D01*
X183279208Y-76943387D01*
X183134568Y-77048475D01*
X183014940Y-77181336D01*
X182925550Y-77336164D01*
X182925547Y-77336170D01*
X182870304Y-77506192D01*
X182870303Y-77506194D01*
X182851615Y-77684000D01*
X182870303Y-77861805D01*
X182870304Y-77861807D01*
X182925547Y-78031829D01*
X182925550Y-78031835D01*
X183014941Y-78186665D01*
X183056612Y-78232946D01*
X183134564Y-78319521D01*
X183134567Y-78319523D01*
X183134570Y-78319526D01*
X183279207Y-78424612D01*
X183442533Y-78497329D01*
X183617409Y-78534500D01*
X183617410Y-78534500D01*
X183796189Y-78534500D01*
X183796191Y-78534500D01*
X183971067Y-78497329D01*
X184134393Y-78424612D01*
X184134401Y-78424605D01*
X184137297Y-78422935D01*
X184139189Y-78422475D01*
X184140330Y-78421968D01*
X184140422Y-78422176D01*
X184205197Y-78406460D01*
X184271224Y-78429311D01*
X184314416Y-78484231D01*
X184323300Y-78530320D01*
X184323300Y-80393679D01*
X184303615Y-80460718D01*
X184250811Y-80506473D01*
X184181653Y-80516417D01*
X184137306Y-80501070D01*
X184134395Y-80499389D01*
X184047538Y-80460718D01*
X183971067Y-80426671D01*
X183971065Y-80426670D01*
X183843394Y-80399533D01*
X183796191Y-80389500D01*
X183617409Y-80389500D01*
X183586754Y-80396015D01*
X183442533Y-80426670D01*
X183442528Y-80426672D01*
X183279208Y-80499387D01*
X183134568Y-80604475D01*
X183014940Y-80737336D01*
X182925550Y-80892164D01*
X182925547Y-80892170D01*
X182870304Y-81062192D01*
X182870303Y-81062194D01*
X182851615Y-81240000D01*
X182870303Y-81417805D01*
X182870304Y-81417807D01*
X182925547Y-81587829D01*
X182925550Y-81587835D01*
X183014941Y-81742665D01*
X183056612Y-81788946D01*
X183134564Y-81875521D01*
X183134567Y-81875523D01*
X183134570Y-81875526D01*
X183279207Y-81980612D01*
X183442533Y-82053329D01*
X183617409Y-82090500D01*
X183617410Y-82090500D01*
X183796189Y-82090500D01*
X183796191Y-82090500D01*
X183971067Y-82053329D01*
X184134393Y-81980612D01*
X184134401Y-81980605D01*
X184137297Y-81978935D01*
X184139189Y-81978475D01*
X184140330Y-81977968D01*
X184140422Y-81978176D01*
X184205197Y-81962460D01*
X184271224Y-81985311D01*
X184314416Y-82040231D01*
X184323300Y-82086320D01*
X184323300Y-83949679D01*
X184303615Y-84016718D01*
X184250811Y-84062473D01*
X184181653Y-84072417D01*
X184137306Y-84057070D01*
X184134395Y-84055389D01*
X184047538Y-84016718D01*
X183971067Y-83982671D01*
X183971065Y-83982670D01*
X183838307Y-83954452D01*
X183796191Y-83945500D01*
X183617409Y-83945500D01*
X183586754Y-83952015D01*
X183442533Y-83982670D01*
X183442528Y-83982672D01*
X183279208Y-84055387D01*
X183134568Y-84160475D01*
X183014940Y-84293336D01*
X182925550Y-84448164D01*
X182925547Y-84448170D01*
X182870304Y-84618192D01*
X182870303Y-84618194D01*
X182851615Y-84796000D01*
X182870303Y-84973805D01*
X182870304Y-84973807D01*
X182925547Y-85143829D01*
X182925550Y-85143835D01*
X183014941Y-85298665D01*
X183056612Y-85344946D01*
X183134564Y-85431521D01*
X183134567Y-85431523D01*
X183134570Y-85431526D01*
X183279207Y-85536612D01*
X183442533Y-85609329D01*
X183617409Y-85646500D01*
X183617410Y-85646500D01*
X183796189Y-85646500D01*
X183796191Y-85646500D01*
X183971067Y-85609329D01*
X184134393Y-85536612D01*
X184134401Y-85536605D01*
X184137297Y-85534935D01*
X184139189Y-85534475D01*
X184140330Y-85533968D01*
X184140422Y-85534176D01*
X184205197Y-85518460D01*
X184271224Y-85541311D01*
X184314416Y-85596231D01*
X184323300Y-85642320D01*
X184323300Y-87505679D01*
X184303615Y-87572718D01*
X184250811Y-87618473D01*
X184181653Y-87628417D01*
X184137306Y-87613070D01*
X184134395Y-87611389D01*
X184047538Y-87572718D01*
X183971067Y-87538671D01*
X183971065Y-87538670D01*
X183843394Y-87511533D01*
X183796191Y-87501500D01*
X183617409Y-87501500D01*
X183586754Y-87508015D01*
X183442533Y-87538670D01*
X183442528Y-87538672D01*
X183279208Y-87611387D01*
X183134568Y-87716475D01*
X183014940Y-87849336D01*
X182925550Y-88004164D01*
X182925547Y-88004170D01*
X182870304Y-88174192D01*
X182870303Y-88174194D01*
X182851615Y-88352000D01*
X182870303Y-88529805D01*
X182870304Y-88529807D01*
X182925547Y-88699829D01*
X182925550Y-88699835D01*
X183014941Y-88854665D01*
X183019745Y-88860000D01*
X183134564Y-88987521D01*
X183134567Y-88987523D01*
X183134570Y-88987526D01*
X183279207Y-89092612D01*
X183442533Y-89165329D01*
X183617409Y-89202500D01*
X183617410Y-89202500D01*
X183796189Y-89202500D01*
X183796191Y-89202500D01*
X183971067Y-89165329D01*
X184134393Y-89092612D01*
X184134401Y-89092605D01*
X184137297Y-89090935D01*
X184139189Y-89090475D01*
X184140330Y-89089968D01*
X184140422Y-89090176D01*
X184205197Y-89074460D01*
X184271224Y-89097311D01*
X184314416Y-89152231D01*
X184323300Y-89198320D01*
X184323300Y-124582948D01*
X184323034Y-124591058D01*
X184307469Y-124828520D01*
X184305352Y-124844601D01*
X184259718Y-125074020D01*
X184255520Y-125089687D01*
X184180333Y-125311183D01*
X184174126Y-125326169D01*
X184070668Y-125535960D01*
X184062558Y-125550007D01*
X183932603Y-125744498D01*
X183922729Y-125757366D01*
X183768500Y-125933231D01*
X183757031Y-125944700D01*
X183581166Y-126098929D01*
X183568298Y-126108803D01*
X183373807Y-126238758D01*
X183359760Y-126246868D01*
X183149969Y-126350326D01*
X183134983Y-126356533D01*
X182913487Y-126431720D01*
X182897820Y-126435918D01*
X182668401Y-126481552D01*
X182652320Y-126483669D01*
X182414858Y-126499234D01*
X182406748Y-126499500D01*
X109605052Y-126499500D01*
X109596942Y-126499234D01*
X109359479Y-126483669D01*
X109343398Y-126481552D01*
X109113979Y-126435918D01*
X109098312Y-126431720D01*
X108876816Y-126356533D01*
X108861830Y-126350326D01*
X108652039Y-126246868D01*
X108637992Y-126238758D01*
X108443501Y-126108803D01*
X108430633Y-126098929D01*
X108254768Y-125944700D01*
X108243299Y-125933231D01*
X108089070Y-125757366D01*
X108079196Y-125744498D01*
X107949241Y-125550007D01*
X107941131Y-125535960D01*
X107936036Y-125525628D01*
X107837670Y-125326162D01*
X107831469Y-125311190D01*
X107756277Y-125089681D01*
X107752081Y-125074020D01*
X107706447Y-124844601D01*
X107704331Y-124828540D01*
X107688764Y-124591028D01*
X107688500Y-124582948D01*
X107688500Y-120483001D01*
X109246390Y-120483001D01*
X109266804Y-120768433D01*
X109327628Y-121048037D01*
X109427635Y-121316166D01*
X109564770Y-121567309D01*
X109564775Y-121567317D01*
X109736254Y-121796387D01*
X109736270Y-121796405D01*
X109938594Y-121998729D01*
X109938612Y-121998745D01*
X110167682Y-122170224D01*
X110167690Y-122170229D01*
X110418833Y-122307364D01*
X110418832Y-122307364D01*
X110418836Y-122307365D01*
X110418839Y-122307367D01*
X110686954Y-122407369D01*
X110686960Y-122407370D01*
X110686962Y-122407371D01*
X110966566Y-122468195D01*
X110966568Y-122468195D01*
X110966572Y-122468196D01*
X111220220Y-122486337D01*
X111251999Y-122488610D01*
X111252000Y-122488610D01*
X111252001Y-122488610D01*
X111280595Y-122486564D01*
X111537428Y-122468196D01*
X111817046Y-122407369D01*
X112085161Y-122307367D01*
X112336315Y-122170226D01*
X112565395Y-121998739D01*
X112767739Y-121796395D01*
X112939226Y-121567315D01*
X113076367Y-121316161D01*
X113176369Y-121048046D01*
X113237196Y-120768428D01*
X113257610Y-120483001D01*
X114326390Y-120483001D01*
X114346804Y-120768433D01*
X114407628Y-121048037D01*
X114507635Y-121316166D01*
X114644770Y-121567309D01*
X114644775Y-121567317D01*
X114816254Y-121796387D01*
X114816270Y-121796405D01*
X115018594Y-121998729D01*
X115018612Y-121998745D01*
X115247682Y-122170224D01*
X115247690Y-122170229D01*
X115498833Y-122307364D01*
X115498832Y-122307364D01*
X115498836Y-122307365D01*
X115498839Y-122307367D01*
X115766954Y-122407369D01*
X115766960Y-122407370D01*
X115766962Y-122407371D01*
X116046566Y-122468195D01*
X116046568Y-122468195D01*
X116046572Y-122468196D01*
X116300220Y-122486337D01*
X116331999Y-122488610D01*
X116332000Y-122488610D01*
X116332001Y-122488610D01*
X116360595Y-122486564D01*
X116617428Y-122468196D01*
X116897046Y-122407369D01*
X117165161Y-122307367D01*
X117416315Y-122170226D01*
X117645395Y-121998739D01*
X117847739Y-121796395D01*
X118019226Y-121567315D01*
X118156367Y-121316161D01*
X118256369Y-121048046D01*
X118317196Y-120768428D01*
X118337610Y-120483001D01*
X119406390Y-120483001D01*
X119426804Y-120768433D01*
X119487628Y-121048037D01*
X119587635Y-121316166D01*
X119724770Y-121567309D01*
X119724775Y-121567317D01*
X119896254Y-121796387D01*
X119896270Y-121796405D01*
X120098594Y-121998729D01*
X120098612Y-121998745D01*
X120327682Y-122170224D01*
X120327690Y-122170229D01*
X120578833Y-122307364D01*
X120578832Y-122307364D01*
X120578836Y-122307365D01*
X120578839Y-122307367D01*
X120846954Y-122407369D01*
X120846960Y-122407370D01*
X120846962Y-122407371D01*
X121126566Y-122468195D01*
X121126568Y-122468195D01*
X121126572Y-122468196D01*
X121380220Y-122486337D01*
X121411999Y-122488610D01*
X121412000Y-122488610D01*
X121412001Y-122488610D01*
X121440595Y-122486564D01*
X121697428Y-122468196D01*
X121977046Y-122407369D01*
X122245161Y-122307367D01*
X122496315Y-122170226D01*
X122725395Y-121998739D01*
X122927739Y-121796395D01*
X123099226Y-121567315D01*
X123236367Y-121316161D01*
X123336369Y-121048046D01*
X123397196Y-120768428D01*
X123417610Y-120483001D01*
X124486390Y-120483001D01*
X124506804Y-120768433D01*
X124567628Y-121048037D01*
X124667635Y-121316166D01*
X124804770Y-121567309D01*
X124804775Y-121567317D01*
X124976254Y-121796387D01*
X124976270Y-121796405D01*
X125178594Y-121998729D01*
X125178612Y-121998745D01*
X125407682Y-122170224D01*
X125407690Y-122170229D01*
X125658833Y-122307364D01*
X125658832Y-122307364D01*
X125658836Y-122307365D01*
X125658839Y-122307367D01*
X125926954Y-122407369D01*
X125926960Y-122407370D01*
X125926962Y-122407371D01*
X126206566Y-122468195D01*
X126206568Y-122468195D01*
X126206572Y-122468196D01*
X126460220Y-122486337D01*
X126491999Y-122488610D01*
X126492000Y-122488610D01*
X126492001Y-122488610D01*
X126520595Y-122486564D01*
X126777428Y-122468196D01*
X127057046Y-122407369D01*
X127325161Y-122307367D01*
X127576315Y-122170226D01*
X127805395Y-121998739D01*
X128007739Y-121796395D01*
X128179226Y-121567315D01*
X128316367Y-121316161D01*
X128416369Y-121048046D01*
X128477196Y-120768428D01*
X128497610Y-120483001D01*
X143702190Y-120483001D01*
X143722604Y-120768433D01*
X143783428Y-121048037D01*
X143883435Y-121316166D01*
X144020570Y-121567309D01*
X144020575Y-121567317D01*
X144192054Y-121796387D01*
X144192070Y-121796405D01*
X144394394Y-121998729D01*
X144394412Y-121998745D01*
X144623482Y-122170224D01*
X144623490Y-122170229D01*
X144874633Y-122307364D01*
X144874632Y-122307364D01*
X144874636Y-122307365D01*
X144874639Y-122307367D01*
X145142754Y-122407369D01*
X145142760Y-122407370D01*
X145142762Y-122407371D01*
X145422366Y-122468195D01*
X145422368Y-122468195D01*
X145422372Y-122468196D01*
X145676020Y-122486337D01*
X145707799Y-122488610D01*
X145707800Y-122488610D01*
X145707801Y-122488610D01*
X145736395Y-122486564D01*
X145993228Y-122468196D01*
X146272846Y-122407369D01*
X146540961Y-122307367D01*
X146792115Y-122170226D01*
X147021195Y-121998739D01*
X147223539Y-121796395D01*
X147395026Y-121567315D01*
X147532167Y-121316161D01*
X147632169Y-121048046D01*
X147692996Y-120768428D01*
X147713410Y-120483001D01*
X148782190Y-120483001D01*
X148802604Y-120768433D01*
X148863428Y-121048037D01*
X148963435Y-121316166D01*
X149100570Y-121567309D01*
X149100575Y-121567317D01*
X149272054Y-121796387D01*
X149272070Y-121796405D01*
X149474394Y-121998729D01*
X149474412Y-121998745D01*
X149703482Y-122170224D01*
X149703490Y-122170229D01*
X149954633Y-122307364D01*
X149954632Y-122307364D01*
X149954636Y-122307365D01*
X149954639Y-122307367D01*
X150222754Y-122407369D01*
X150222760Y-122407370D01*
X150222762Y-122407371D01*
X150502366Y-122468195D01*
X150502368Y-122468195D01*
X150502372Y-122468196D01*
X150756020Y-122486337D01*
X150787799Y-122488610D01*
X150787800Y-122488610D01*
X150787801Y-122488610D01*
X150816395Y-122486564D01*
X151073228Y-122468196D01*
X151352846Y-122407369D01*
X151620961Y-122307367D01*
X151872115Y-122170226D01*
X152101195Y-121998739D01*
X152303539Y-121796395D01*
X152475026Y-121567315D01*
X152612167Y-121316161D01*
X152712169Y-121048046D01*
X152772996Y-120768428D01*
X152793410Y-120483001D01*
X153862190Y-120483001D01*
X153882604Y-120768433D01*
X153943428Y-121048037D01*
X154043435Y-121316166D01*
X154180570Y-121567309D01*
X154180575Y-121567317D01*
X154352054Y-121796387D01*
X154352070Y-121796405D01*
X154554394Y-121998729D01*
X154554412Y-121998745D01*
X154783482Y-122170224D01*
X154783490Y-122170229D01*
X155034633Y-122307364D01*
X155034632Y-122307364D01*
X155034636Y-122307365D01*
X155034639Y-122307367D01*
X155302754Y-122407369D01*
X155302760Y-122407370D01*
X155302762Y-122407371D01*
X155582366Y-122468195D01*
X155582368Y-122468195D01*
X155582372Y-122468196D01*
X155836020Y-122486337D01*
X155867799Y-122488610D01*
X155867800Y-122488610D01*
X155867801Y-122488610D01*
X155896395Y-122486564D01*
X156153228Y-122468196D01*
X156432846Y-122407369D01*
X156700961Y-122307367D01*
X156952115Y-122170226D01*
X157181195Y-121998739D01*
X157383539Y-121796395D01*
X157555026Y-121567315D01*
X157692167Y-121316161D01*
X157792169Y-121048046D01*
X157852996Y-120768428D01*
X157873410Y-120483001D01*
X158942190Y-120483001D01*
X158962604Y-120768433D01*
X159023428Y-121048037D01*
X159123435Y-121316166D01*
X159260570Y-121567309D01*
X159260575Y-121567317D01*
X159432054Y-121796387D01*
X159432070Y-121796405D01*
X159634394Y-121998729D01*
X159634412Y-121998745D01*
X159863482Y-122170224D01*
X159863490Y-122170229D01*
X160114633Y-122307364D01*
X160114632Y-122307364D01*
X160114636Y-122307365D01*
X160114639Y-122307367D01*
X160382754Y-122407369D01*
X160382760Y-122407370D01*
X160382762Y-122407371D01*
X160662366Y-122468195D01*
X160662368Y-122468195D01*
X160662372Y-122468196D01*
X160916020Y-122486337D01*
X160947799Y-122488610D01*
X160947800Y-122488610D01*
X160947801Y-122488610D01*
X160976395Y-122486564D01*
X161233228Y-122468196D01*
X161512846Y-122407369D01*
X161780961Y-122307367D01*
X162032115Y-122170226D01*
X162261195Y-121998739D01*
X162463539Y-121796395D01*
X162635026Y-121567315D01*
X162772167Y-121316161D01*
X162872169Y-121048046D01*
X162932996Y-120768428D01*
X162953410Y-120483001D01*
X164022190Y-120483001D01*
X164042604Y-120768433D01*
X164103428Y-121048037D01*
X164203435Y-121316166D01*
X164340570Y-121567309D01*
X164340575Y-121567317D01*
X164512054Y-121796387D01*
X164512070Y-121796405D01*
X164714394Y-121998729D01*
X164714412Y-121998745D01*
X164943482Y-122170224D01*
X164943490Y-122170229D01*
X165194633Y-122307364D01*
X165194632Y-122307364D01*
X165194636Y-122307365D01*
X165194639Y-122307367D01*
X165462754Y-122407369D01*
X165462760Y-122407370D01*
X165462762Y-122407371D01*
X165742366Y-122468195D01*
X165742368Y-122468195D01*
X165742372Y-122468196D01*
X165996020Y-122486337D01*
X166027799Y-122488610D01*
X166027800Y-122488610D01*
X166027801Y-122488610D01*
X166056395Y-122486564D01*
X166313228Y-122468196D01*
X166592846Y-122407369D01*
X166860961Y-122307367D01*
X167112115Y-122170226D01*
X167341195Y-121998739D01*
X167543539Y-121796395D01*
X167715026Y-121567315D01*
X167852167Y-121316161D01*
X167952169Y-121048046D01*
X168012996Y-120768428D01*
X168033410Y-120483001D01*
X169102190Y-120483001D01*
X169122604Y-120768433D01*
X169183428Y-121048037D01*
X169283435Y-121316166D01*
X169420570Y-121567309D01*
X169420575Y-121567317D01*
X169592054Y-121796387D01*
X169592070Y-121796405D01*
X169794394Y-121998729D01*
X169794412Y-121998745D01*
X170023482Y-122170224D01*
X170023490Y-122170229D01*
X170274633Y-122307364D01*
X170274632Y-122307364D01*
X170274636Y-122307365D01*
X170274639Y-122307367D01*
X170542754Y-122407369D01*
X170542760Y-122407370D01*
X170542762Y-122407371D01*
X170822366Y-122468195D01*
X170822368Y-122468195D01*
X170822372Y-122468196D01*
X171076020Y-122486337D01*
X171107799Y-122488610D01*
X171107800Y-122488610D01*
X171107801Y-122488610D01*
X171136395Y-122486564D01*
X171393228Y-122468196D01*
X171672846Y-122407369D01*
X171940961Y-122307367D01*
X172192115Y-122170226D01*
X172421195Y-121998739D01*
X172623539Y-121796395D01*
X172795026Y-121567315D01*
X172932167Y-121316161D01*
X173032169Y-121048046D01*
X173092996Y-120768428D01*
X173113410Y-120483001D01*
X174182190Y-120483001D01*
X174202604Y-120768433D01*
X174263428Y-121048037D01*
X174363435Y-121316166D01*
X174500570Y-121567309D01*
X174500575Y-121567317D01*
X174672054Y-121796387D01*
X174672070Y-121796405D01*
X174874394Y-121998729D01*
X174874412Y-121998745D01*
X175103482Y-122170224D01*
X175103490Y-122170229D01*
X175354633Y-122307364D01*
X175354632Y-122307364D01*
X175354636Y-122307365D01*
X175354639Y-122307367D01*
X175622754Y-122407369D01*
X175622760Y-122407370D01*
X175622762Y-122407371D01*
X175902366Y-122468195D01*
X175902368Y-122468195D01*
X175902372Y-122468196D01*
X176156020Y-122486337D01*
X176187799Y-122488610D01*
X176187800Y-122488610D01*
X176187801Y-122488610D01*
X176216395Y-122486564D01*
X176473228Y-122468196D01*
X176752846Y-122407369D01*
X177020961Y-122307367D01*
X177272115Y-122170226D01*
X177501195Y-121998739D01*
X177703539Y-121796395D01*
X177875026Y-121567315D01*
X178012167Y-121316161D01*
X178112169Y-121048046D01*
X178172996Y-120768428D01*
X178193410Y-120483001D01*
X179262190Y-120483001D01*
X179282604Y-120768433D01*
X179343428Y-121048037D01*
X179443435Y-121316166D01*
X179580570Y-121567309D01*
X179580575Y-121567317D01*
X179752054Y-121796387D01*
X179752070Y-121796405D01*
X179954394Y-121998729D01*
X179954412Y-121998745D01*
X180183482Y-122170224D01*
X180183490Y-122170229D01*
X180434633Y-122307364D01*
X180434632Y-122307364D01*
X180434636Y-122307365D01*
X180434639Y-122307367D01*
X180702754Y-122407369D01*
X180702760Y-122407370D01*
X180702762Y-122407371D01*
X180982366Y-122468195D01*
X180982368Y-122468195D01*
X180982372Y-122468196D01*
X181236020Y-122486337D01*
X181267799Y-122488610D01*
X181267800Y-122488610D01*
X181267801Y-122488610D01*
X181296395Y-122486564D01*
X181553228Y-122468196D01*
X181832846Y-122407369D01*
X182100961Y-122307367D01*
X182352115Y-122170226D01*
X182581195Y-121998739D01*
X182783539Y-121796395D01*
X182955026Y-121567315D01*
X183092167Y-121316161D01*
X183192169Y-121048046D01*
X183252996Y-120768428D01*
X183273410Y-120483000D01*
X183252996Y-120197572D01*
X183192169Y-119917954D01*
X183092167Y-119649839D01*
X182955026Y-119398685D01*
X182955024Y-119398682D01*
X182783545Y-119169612D01*
X182783529Y-119169594D01*
X182581205Y-118967270D01*
X182581187Y-118967254D01*
X182352117Y-118795775D01*
X182352109Y-118795770D01*
X182100966Y-118658635D01*
X182100967Y-118658635D01*
X181993715Y-118618632D01*
X181832846Y-118558631D01*
X181832843Y-118558630D01*
X181832837Y-118558628D01*
X181553233Y-118497804D01*
X181267801Y-118477390D01*
X181267799Y-118477390D01*
X180982366Y-118497804D01*
X180702762Y-118558628D01*
X180434633Y-118658635D01*
X180183490Y-118795770D01*
X180183482Y-118795775D01*
X179954412Y-118967254D01*
X179954394Y-118967270D01*
X179752070Y-119169594D01*
X179752054Y-119169612D01*
X179580575Y-119398682D01*
X179580570Y-119398690D01*
X179443435Y-119649833D01*
X179343428Y-119917962D01*
X179282604Y-120197566D01*
X179262190Y-120482998D01*
X179262190Y-120483001D01*
X178193410Y-120483001D01*
X178193410Y-120483000D01*
X178172996Y-120197572D01*
X178112169Y-119917954D01*
X178012167Y-119649839D01*
X177875026Y-119398685D01*
X177875024Y-119398682D01*
X177703545Y-119169612D01*
X177703529Y-119169594D01*
X177501205Y-118967270D01*
X177501187Y-118967254D01*
X177272117Y-118795775D01*
X177272109Y-118795770D01*
X177020966Y-118658635D01*
X177020967Y-118658635D01*
X176913715Y-118618632D01*
X176752846Y-118558631D01*
X176752843Y-118558630D01*
X176752837Y-118558628D01*
X176473233Y-118497804D01*
X176187801Y-118477390D01*
X176187799Y-118477390D01*
X175902366Y-118497804D01*
X175622762Y-118558628D01*
X175354633Y-118658635D01*
X175103490Y-118795770D01*
X175103482Y-118795775D01*
X174874412Y-118967254D01*
X174874394Y-118967270D01*
X174672070Y-119169594D01*
X174672054Y-119169612D01*
X174500575Y-119398682D01*
X174500570Y-119398690D01*
X174363435Y-119649833D01*
X174263428Y-119917962D01*
X174202604Y-120197566D01*
X174182190Y-120482998D01*
X174182190Y-120483001D01*
X173113410Y-120483001D01*
X173113410Y-120483000D01*
X173092996Y-120197572D01*
X173032169Y-119917954D01*
X172932167Y-119649839D01*
X172795026Y-119398685D01*
X172795024Y-119398682D01*
X172623545Y-119169612D01*
X172623529Y-119169594D01*
X172421205Y-118967270D01*
X172421187Y-118967254D01*
X172192117Y-118795775D01*
X172192109Y-118795770D01*
X171940966Y-118658635D01*
X171940967Y-118658635D01*
X171833715Y-118618632D01*
X171672846Y-118558631D01*
X171672843Y-118558630D01*
X171672837Y-118558628D01*
X171393233Y-118497804D01*
X171107801Y-118477390D01*
X171107799Y-118477390D01*
X170822366Y-118497804D01*
X170542762Y-118558628D01*
X170274633Y-118658635D01*
X170023490Y-118795770D01*
X170023482Y-118795775D01*
X169794412Y-118967254D01*
X169794394Y-118967270D01*
X169592070Y-119169594D01*
X169592054Y-119169612D01*
X169420575Y-119398682D01*
X169420570Y-119398690D01*
X169283435Y-119649833D01*
X169183428Y-119917962D01*
X169122604Y-120197566D01*
X169102190Y-120482998D01*
X169102190Y-120483001D01*
X168033410Y-120483001D01*
X168033410Y-120483000D01*
X168012996Y-120197572D01*
X167952169Y-119917954D01*
X167852167Y-119649839D01*
X167715026Y-119398685D01*
X167715024Y-119398682D01*
X167543545Y-119169612D01*
X167543529Y-119169594D01*
X167341205Y-118967270D01*
X167341187Y-118967254D01*
X167112117Y-118795775D01*
X167112109Y-118795770D01*
X166860966Y-118658635D01*
X166860967Y-118658635D01*
X166753715Y-118618632D01*
X166592846Y-118558631D01*
X166592843Y-118558630D01*
X166592837Y-118558628D01*
X166313233Y-118497804D01*
X166027801Y-118477390D01*
X166027799Y-118477390D01*
X165742366Y-118497804D01*
X165462762Y-118558628D01*
X165194633Y-118658635D01*
X164943490Y-118795770D01*
X164943482Y-118795775D01*
X164714412Y-118967254D01*
X164714394Y-118967270D01*
X164512070Y-119169594D01*
X164512054Y-119169612D01*
X164340575Y-119398682D01*
X164340570Y-119398690D01*
X164203435Y-119649833D01*
X164103428Y-119917962D01*
X164042604Y-120197566D01*
X164022190Y-120482998D01*
X164022190Y-120483001D01*
X162953410Y-120483001D01*
X162953410Y-120483000D01*
X162932996Y-120197572D01*
X162872169Y-119917954D01*
X162772167Y-119649839D01*
X162635026Y-119398685D01*
X162635024Y-119398682D01*
X162463545Y-119169612D01*
X162463529Y-119169594D01*
X162261205Y-118967270D01*
X162261187Y-118967254D01*
X162032117Y-118795775D01*
X162032109Y-118795770D01*
X161780966Y-118658635D01*
X161780967Y-118658635D01*
X161673715Y-118618632D01*
X161512846Y-118558631D01*
X161512843Y-118558630D01*
X161512837Y-118558628D01*
X161233233Y-118497804D01*
X160947801Y-118477390D01*
X160947799Y-118477390D01*
X160662366Y-118497804D01*
X160382762Y-118558628D01*
X160114633Y-118658635D01*
X159863490Y-118795770D01*
X159863482Y-118795775D01*
X159634412Y-118967254D01*
X159634394Y-118967270D01*
X159432070Y-119169594D01*
X159432054Y-119169612D01*
X159260575Y-119398682D01*
X159260570Y-119398690D01*
X159123435Y-119649833D01*
X159023428Y-119917962D01*
X158962604Y-120197566D01*
X158942190Y-120482998D01*
X158942190Y-120483001D01*
X157873410Y-120483001D01*
X157873410Y-120483000D01*
X157852996Y-120197572D01*
X157792169Y-119917954D01*
X157692167Y-119649839D01*
X157555026Y-119398685D01*
X157555024Y-119398682D01*
X157383545Y-119169612D01*
X157383529Y-119169594D01*
X157181205Y-118967270D01*
X157181187Y-118967254D01*
X156952117Y-118795775D01*
X156952109Y-118795770D01*
X156700966Y-118658635D01*
X156700967Y-118658635D01*
X156593715Y-118618632D01*
X156432846Y-118558631D01*
X156432843Y-118558630D01*
X156432837Y-118558628D01*
X156153233Y-118497804D01*
X155867801Y-118477390D01*
X155867799Y-118477390D01*
X155582366Y-118497804D01*
X155302762Y-118558628D01*
X155034633Y-118658635D01*
X154783490Y-118795770D01*
X154783482Y-118795775D01*
X154554412Y-118967254D01*
X154554394Y-118967270D01*
X154352070Y-119169594D01*
X154352054Y-119169612D01*
X154180575Y-119398682D01*
X154180570Y-119398690D01*
X154043435Y-119649833D01*
X153943428Y-119917962D01*
X153882604Y-120197566D01*
X153862190Y-120482998D01*
X153862190Y-120483001D01*
X152793410Y-120483001D01*
X152793410Y-120483000D01*
X152772996Y-120197572D01*
X152712169Y-119917954D01*
X152612167Y-119649839D01*
X152475026Y-119398685D01*
X152475024Y-119398682D01*
X152303545Y-119169612D01*
X152303529Y-119169594D01*
X152101205Y-118967270D01*
X152101187Y-118967254D01*
X151872117Y-118795775D01*
X151872109Y-118795770D01*
X151620966Y-118658635D01*
X151620967Y-118658635D01*
X151513715Y-118618632D01*
X151352846Y-118558631D01*
X151352843Y-118558630D01*
X151352837Y-118558628D01*
X151073233Y-118497804D01*
X150787801Y-118477390D01*
X150787799Y-118477390D01*
X150502366Y-118497804D01*
X150222762Y-118558628D01*
X149954633Y-118658635D01*
X149703490Y-118795770D01*
X149703482Y-118795775D01*
X149474412Y-118967254D01*
X149474394Y-118967270D01*
X149272070Y-119169594D01*
X149272054Y-119169612D01*
X149100575Y-119398682D01*
X149100570Y-119398690D01*
X148963435Y-119649833D01*
X148863428Y-119917962D01*
X148802604Y-120197566D01*
X148782190Y-120482998D01*
X148782190Y-120483001D01*
X147713410Y-120483001D01*
X147713410Y-120483000D01*
X147692996Y-120197572D01*
X147632169Y-119917954D01*
X147532167Y-119649839D01*
X147395026Y-119398685D01*
X147395024Y-119398682D01*
X147223545Y-119169612D01*
X147223529Y-119169594D01*
X147021205Y-118967270D01*
X147021187Y-118967254D01*
X146792117Y-118795775D01*
X146792109Y-118795770D01*
X146540966Y-118658635D01*
X146540967Y-118658635D01*
X146433715Y-118618632D01*
X146272846Y-118558631D01*
X146272843Y-118558630D01*
X146272837Y-118558628D01*
X145993233Y-118497804D01*
X145707801Y-118477390D01*
X145707799Y-118477390D01*
X145422366Y-118497804D01*
X145142762Y-118558628D01*
X144874633Y-118658635D01*
X144623490Y-118795770D01*
X144623482Y-118795775D01*
X144394412Y-118967254D01*
X144394394Y-118967270D01*
X144192070Y-119169594D01*
X144192054Y-119169612D01*
X144020575Y-119398682D01*
X144020570Y-119398690D01*
X143883435Y-119649833D01*
X143783428Y-119917962D01*
X143722604Y-120197566D01*
X143702190Y-120482998D01*
X143702190Y-120483001D01*
X128497610Y-120483001D01*
X128497610Y-120483000D01*
X128477196Y-120197572D01*
X128416369Y-119917954D01*
X128316367Y-119649839D01*
X128179226Y-119398685D01*
X128179224Y-119398682D01*
X128007745Y-119169612D01*
X128007729Y-119169594D01*
X127805405Y-118967270D01*
X127805387Y-118967254D01*
X127576317Y-118795775D01*
X127576309Y-118795770D01*
X127325166Y-118658635D01*
X127325167Y-118658635D01*
X127217915Y-118618632D01*
X127057046Y-118558631D01*
X127057043Y-118558630D01*
X127057037Y-118558628D01*
X126777433Y-118497804D01*
X126492001Y-118477390D01*
X126491999Y-118477390D01*
X126206566Y-118497804D01*
X125926962Y-118558628D01*
X125658833Y-118658635D01*
X125407690Y-118795770D01*
X125407682Y-118795775D01*
X125178612Y-118967254D01*
X125178594Y-118967270D01*
X124976270Y-119169594D01*
X124976254Y-119169612D01*
X124804775Y-119398682D01*
X124804770Y-119398690D01*
X124667635Y-119649833D01*
X124567628Y-119917962D01*
X124506804Y-120197566D01*
X124486390Y-120482998D01*
X124486390Y-120483001D01*
X123417610Y-120483001D01*
X123417610Y-120483000D01*
X123397196Y-120197572D01*
X123336369Y-119917954D01*
X123236367Y-119649839D01*
X123099226Y-119398685D01*
X123099224Y-119398682D01*
X122927745Y-119169612D01*
X122927729Y-119169594D01*
X122725405Y-118967270D01*
X122725387Y-118967254D01*
X122496317Y-118795775D01*
X122496309Y-118795770D01*
X122245166Y-118658635D01*
X122245167Y-118658635D01*
X122137915Y-118618632D01*
X121977046Y-118558631D01*
X121977043Y-118558630D01*
X121977037Y-118558628D01*
X121697433Y-118497804D01*
X121412001Y-118477390D01*
X121411999Y-118477390D01*
X121126566Y-118497804D01*
X120846962Y-118558628D01*
X120578833Y-118658635D01*
X120327690Y-118795770D01*
X120327682Y-118795775D01*
X120098612Y-118967254D01*
X120098594Y-118967270D01*
X119896270Y-119169594D01*
X119896254Y-119169612D01*
X119724775Y-119398682D01*
X119724770Y-119398690D01*
X119587635Y-119649833D01*
X119487628Y-119917962D01*
X119426804Y-120197566D01*
X119406390Y-120482998D01*
X119406390Y-120483001D01*
X118337610Y-120483001D01*
X118337610Y-120483000D01*
X118317196Y-120197572D01*
X118256369Y-119917954D01*
X118156367Y-119649839D01*
X118019226Y-119398685D01*
X118019224Y-119398682D01*
X117847745Y-119169612D01*
X117847729Y-119169594D01*
X117645405Y-118967270D01*
X117645387Y-118967254D01*
X117416317Y-118795775D01*
X117416309Y-118795770D01*
X117165166Y-118658635D01*
X117165167Y-118658635D01*
X117057915Y-118618632D01*
X116897046Y-118558631D01*
X116897043Y-118558630D01*
X116897037Y-118558628D01*
X116617433Y-118497804D01*
X116332001Y-118477390D01*
X116331999Y-118477390D01*
X116046566Y-118497804D01*
X115766962Y-118558628D01*
X115498833Y-118658635D01*
X115247690Y-118795770D01*
X115247682Y-118795775D01*
X115018612Y-118967254D01*
X115018594Y-118967270D01*
X114816270Y-119169594D01*
X114816254Y-119169612D01*
X114644775Y-119398682D01*
X114644770Y-119398690D01*
X114507635Y-119649833D01*
X114407628Y-119917962D01*
X114346804Y-120197566D01*
X114326390Y-120482998D01*
X114326390Y-120483001D01*
X113257610Y-120483001D01*
X113257610Y-120483000D01*
X113237196Y-120197572D01*
X113176369Y-119917954D01*
X113076367Y-119649839D01*
X112939226Y-119398685D01*
X112939224Y-119398682D01*
X112767745Y-119169612D01*
X112767729Y-119169594D01*
X112565405Y-118967270D01*
X112565387Y-118967254D01*
X112336317Y-118795775D01*
X112336309Y-118795770D01*
X112085166Y-118658635D01*
X112085167Y-118658635D01*
X111977915Y-118618632D01*
X111817046Y-118558631D01*
X111817043Y-118558630D01*
X111817037Y-118558628D01*
X111537433Y-118497804D01*
X111252001Y-118477390D01*
X111251999Y-118477390D01*
X110966566Y-118497804D01*
X110686962Y-118558628D01*
X110418833Y-118658635D01*
X110167690Y-118795770D01*
X110167682Y-118795775D01*
X109938612Y-118967254D01*
X109938594Y-118967270D01*
X109736270Y-119169594D01*
X109736254Y-119169612D01*
X109564775Y-119398682D01*
X109564770Y-119398690D01*
X109427635Y-119649833D01*
X109327628Y-119917962D01*
X109266804Y-120197566D01*
X109246390Y-120482998D01*
X109246390Y-120483001D01*
X107688500Y-120483001D01*
X107688500Y-116038000D01*
X146757615Y-116038000D01*
X146776303Y-116215805D01*
X146776304Y-116215807D01*
X146831547Y-116385829D01*
X146831550Y-116385835D01*
X146920941Y-116540665D01*
X146962612Y-116586946D01*
X147040564Y-116673521D01*
X147040567Y-116673523D01*
X147040570Y-116673526D01*
X147185207Y-116778612D01*
X147348533Y-116851329D01*
X147523409Y-116888500D01*
X147523410Y-116888500D01*
X147702189Y-116888500D01*
X147702191Y-116888500D01*
X147877067Y-116851329D01*
X148040393Y-116778612D01*
X148174916Y-116680874D01*
X148240720Y-116657395D01*
X148308774Y-116673220D01*
X148320676Y-116680869D01*
X148455207Y-116778612D01*
X148618533Y-116851329D01*
X148793409Y-116888500D01*
X148793410Y-116888500D01*
X148972189Y-116888500D01*
X148972191Y-116888500D01*
X149147067Y-116851329D01*
X149310393Y-116778612D01*
X149455030Y-116673526D01*
X149469555Y-116657395D01*
X149480948Y-116644741D01*
X149574659Y-116540665D01*
X149664050Y-116385835D01*
X149719297Y-116215803D01*
X149737985Y-116038000D01*
X156917615Y-116038000D01*
X156936303Y-116215805D01*
X156936304Y-116215807D01*
X156991547Y-116385829D01*
X156991550Y-116385835D01*
X157080941Y-116540665D01*
X157122612Y-116586946D01*
X157200564Y-116673521D01*
X157200567Y-116673523D01*
X157200570Y-116673526D01*
X157345207Y-116778612D01*
X157508533Y-116851329D01*
X157683409Y-116888500D01*
X157683410Y-116888500D01*
X157862189Y-116888500D01*
X157862191Y-116888500D01*
X158037067Y-116851329D01*
X158200393Y-116778612D01*
X158334916Y-116680874D01*
X158400720Y-116657395D01*
X158468774Y-116673220D01*
X158480676Y-116680869D01*
X158615207Y-116778612D01*
X158778533Y-116851329D01*
X158953409Y-116888500D01*
X158953410Y-116888500D01*
X159132189Y-116888500D01*
X159132191Y-116888500D01*
X159307067Y-116851329D01*
X159470393Y-116778612D01*
X159615030Y-116673526D01*
X159629555Y-116657395D01*
X159640948Y-116644741D01*
X159734659Y-116540665D01*
X159824050Y-116385835D01*
X159879297Y-116215803D01*
X159897985Y-116038000D01*
X167077615Y-116038000D01*
X167096303Y-116215805D01*
X167096304Y-116215807D01*
X167151547Y-116385829D01*
X167151550Y-116385835D01*
X167240941Y-116540665D01*
X167282612Y-116586946D01*
X167360564Y-116673521D01*
X167360567Y-116673523D01*
X167360570Y-116673526D01*
X167505207Y-116778612D01*
X167668533Y-116851329D01*
X167843409Y-116888500D01*
X167843410Y-116888500D01*
X168022189Y-116888500D01*
X168022191Y-116888500D01*
X168197067Y-116851329D01*
X168360393Y-116778612D01*
X168494916Y-116680874D01*
X168560720Y-116657395D01*
X168628774Y-116673220D01*
X168640676Y-116680869D01*
X168775207Y-116778612D01*
X168938533Y-116851329D01*
X169113409Y-116888500D01*
X169113410Y-116888500D01*
X169292189Y-116888500D01*
X169292191Y-116888500D01*
X169467067Y-116851329D01*
X169630393Y-116778612D01*
X169775030Y-116673526D01*
X169789555Y-116657395D01*
X169800948Y-116644741D01*
X169894659Y-116540665D01*
X169984050Y-116385835D01*
X170039297Y-116215803D01*
X170057985Y-116038000D01*
X177237615Y-116038000D01*
X177256303Y-116215805D01*
X177256304Y-116215807D01*
X177311547Y-116385829D01*
X177311550Y-116385835D01*
X177400941Y-116540665D01*
X177442612Y-116586946D01*
X177520564Y-116673521D01*
X177520567Y-116673523D01*
X177520570Y-116673526D01*
X177665207Y-116778612D01*
X177828533Y-116851329D01*
X178003409Y-116888500D01*
X178003410Y-116888500D01*
X178182189Y-116888500D01*
X178182191Y-116888500D01*
X178357067Y-116851329D01*
X178520393Y-116778612D01*
X178654916Y-116680874D01*
X178720720Y-116657395D01*
X178788774Y-116673220D01*
X178800676Y-116680869D01*
X178935207Y-116778612D01*
X179098533Y-116851329D01*
X179273409Y-116888500D01*
X179273410Y-116888500D01*
X179452189Y-116888500D01*
X179452191Y-116888500D01*
X179627067Y-116851329D01*
X179790393Y-116778612D01*
X179935030Y-116673526D01*
X179949555Y-116657395D01*
X179960948Y-116644741D01*
X180054659Y-116540665D01*
X180144050Y-116385835D01*
X180199297Y-116215803D01*
X180217985Y-116038000D01*
X180199297Y-115860197D01*
X180144050Y-115690165D01*
X180054659Y-115535335D01*
X179997799Y-115472186D01*
X179935035Y-115402478D01*
X179935032Y-115402476D01*
X179935031Y-115402475D01*
X179935030Y-115402474D01*
X179790393Y-115297388D01*
X179627067Y-115224671D01*
X179627065Y-115224670D01*
X179499394Y-115197533D01*
X179452191Y-115187500D01*
X179273409Y-115187500D01*
X179242754Y-115194015D01*
X179098533Y-115224670D01*
X179098528Y-115224672D01*
X178935208Y-115297388D01*
X178935203Y-115297390D01*
X178800685Y-115395124D01*
X178734879Y-115418604D01*
X178666825Y-115402778D01*
X178654914Y-115395124D01*
X178594779Y-115351433D01*
X178520393Y-115297388D01*
X178357067Y-115224671D01*
X178357065Y-115224670D01*
X178229394Y-115197533D01*
X178182191Y-115187500D01*
X178003409Y-115187500D01*
X177972754Y-115194015D01*
X177828533Y-115224670D01*
X177828528Y-115224672D01*
X177665208Y-115297387D01*
X177520568Y-115402475D01*
X177400940Y-115535336D01*
X177311550Y-115690164D01*
X177311547Y-115690170D01*
X177256304Y-115860192D01*
X177256303Y-115860194D01*
X177237615Y-116038000D01*
X170057985Y-116038000D01*
X170039297Y-115860197D01*
X169984050Y-115690165D01*
X169894659Y-115535335D01*
X169837799Y-115472186D01*
X169775035Y-115402478D01*
X169775032Y-115402476D01*
X169775031Y-115402475D01*
X169775030Y-115402474D01*
X169630393Y-115297388D01*
X169467067Y-115224671D01*
X169467065Y-115224670D01*
X169339394Y-115197533D01*
X169292191Y-115187500D01*
X169113409Y-115187500D01*
X169082754Y-115194015D01*
X168938533Y-115224670D01*
X168938528Y-115224672D01*
X168775208Y-115297388D01*
X168775203Y-115297390D01*
X168640685Y-115395124D01*
X168574879Y-115418604D01*
X168506825Y-115402778D01*
X168494914Y-115395124D01*
X168434779Y-115351433D01*
X168360393Y-115297388D01*
X168197067Y-115224671D01*
X168197065Y-115224670D01*
X168069394Y-115197533D01*
X168022191Y-115187500D01*
X167843409Y-115187500D01*
X167812754Y-115194015D01*
X167668533Y-115224670D01*
X167668528Y-115224672D01*
X167505208Y-115297387D01*
X167360568Y-115402475D01*
X167240940Y-115535336D01*
X167151550Y-115690164D01*
X167151547Y-115690170D01*
X167096304Y-115860192D01*
X167096303Y-115860194D01*
X167077615Y-116038000D01*
X159897985Y-116038000D01*
X159879297Y-115860197D01*
X159824050Y-115690165D01*
X159734659Y-115535335D01*
X159677799Y-115472186D01*
X159615035Y-115402478D01*
X159615032Y-115402476D01*
X159615031Y-115402475D01*
X159615030Y-115402474D01*
X159470393Y-115297388D01*
X159307067Y-115224671D01*
X159307065Y-115224670D01*
X159179394Y-115197533D01*
X159132191Y-115187500D01*
X158953409Y-115187500D01*
X158922754Y-115194015D01*
X158778533Y-115224670D01*
X158778528Y-115224672D01*
X158615208Y-115297388D01*
X158615203Y-115297390D01*
X158480685Y-115395124D01*
X158414879Y-115418604D01*
X158346825Y-115402778D01*
X158334914Y-115395124D01*
X158274779Y-115351433D01*
X158200393Y-115297388D01*
X158037067Y-115224671D01*
X158037065Y-115224670D01*
X157909394Y-115197533D01*
X157862191Y-115187500D01*
X157683409Y-115187500D01*
X157652754Y-115194015D01*
X157508533Y-115224670D01*
X157508528Y-115224672D01*
X157345208Y-115297387D01*
X157200568Y-115402475D01*
X157080940Y-115535336D01*
X156991550Y-115690164D01*
X156991547Y-115690170D01*
X156936304Y-115860192D01*
X156936303Y-115860194D01*
X156917615Y-116038000D01*
X149737985Y-116038000D01*
X149719297Y-115860197D01*
X149664050Y-115690165D01*
X149574659Y-115535335D01*
X149517799Y-115472186D01*
X149455035Y-115402478D01*
X149455032Y-115402476D01*
X149455031Y-115402475D01*
X149455030Y-115402474D01*
X149310393Y-115297388D01*
X149147067Y-115224671D01*
X149147065Y-115224670D01*
X149019394Y-115197533D01*
X148972191Y-115187500D01*
X148793409Y-115187500D01*
X148762754Y-115194015D01*
X148618533Y-115224670D01*
X148618528Y-115224672D01*
X148455208Y-115297388D01*
X148455203Y-115297390D01*
X148320685Y-115395124D01*
X148254879Y-115418604D01*
X148186825Y-115402778D01*
X148174914Y-115395124D01*
X148114779Y-115351433D01*
X148040393Y-115297388D01*
X147877067Y-115224671D01*
X147877065Y-115224670D01*
X147749394Y-115197533D01*
X147702191Y-115187500D01*
X147523409Y-115187500D01*
X147492754Y-115194015D01*
X147348533Y-115224670D01*
X147348528Y-115224672D01*
X147185208Y-115297387D01*
X147040568Y-115402475D01*
X146920940Y-115535336D01*
X146831550Y-115690164D01*
X146831547Y-115690170D01*
X146776304Y-115860192D01*
X146776303Y-115860194D01*
X146757615Y-116038000D01*
X107688500Y-116038000D01*
X107688500Y-113625000D01*
X117524508Y-113625000D01*
X117543639Y-113843674D01*
X117600453Y-114055703D01*
X117600454Y-114055706D01*
X117600455Y-114055708D01*
X117693219Y-114254642D01*
X117693223Y-114254650D01*
X117819122Y-114434452D01*
X117819127Y-114434458D01*
X117974341Y-114589672D01*
X117974347Y-114589677D01*
X118154149Y-114715576D01*
X118154151Y-114715577D01*
X118154154Y-114715579D01*
X118353097Y-114808347D01*
X118565126Y-114865161D01*
X118721321Y-114878826D01*
X118783798Y-114884292D01*
X118783800Y-114884292D01*
X118783802Y-114884292D01*
X118838468Y-114879509D01*
X119002474Y-114865161D01*
X119214503Y-114808347D01*
X119413446Y-114715579D01*
X119593257Y-114589674D01*
X119748474Y-114434457D01*
X119874379Y-114254646D01*
X119967147Y-114055703D01*
X120023961Y-113843674D01*
X120043092Y-113625000D01*
X127524508Y-113625000D01*
X127543639Y-113843674D01*
X127600453Y-114055703D01*
X127600454Y-114055706D01*
X127600455Y-114055708D01*
X127693219Y-114254642D01*
X127693223Y-114254650D01*
X127819122Y-114434452D01*
X127819127Y-114434458D01*
X127974341Y-114589672D01*
X127974347Y-114589677D01*
X128154149Y-114715576D01*
X128154151Y-114715577D01*
X128154154Y-114715579D01*
X128353097Y-114808347D01*
X128565126Y-114865161D01*
X128721321Y-114878826D01*
X128783798Y-114884292D01*
X128783800Y-114884292D01*
X128783802Y-114884292D01*
X128838468Y-114879509D01*
X129002474Y-114865161D01*
X129214503Y-114808347D01*
X129413446Y-114715579D01*
X129593257Y-114589674D01*
X129748474Y-114434457D01*
X129874379Y-114254646D01*
X129967147Y-114055703D01*
X130023961Y-113843674D01*
X130043092Y-113625000D01*
X130023961Y-113406326D01*
X129967147Y-113194297D01*
X129874379Y-112995354D01*
X129874377Y-112995351D01*
X129874376Y-112995349D01*
X129748477Y-112815547D01*
X129748472Y-112815541D01*
X129593258Y-112660327D01*
X129593252Y-112660322D01*
X129413450Y-112534423D01*
X129413442Y-112534419D01*
X129214508Y-112441655D01*
X129214506Y-112441654D01*
X129214503Y-112441653D01*
X129063685Y-112401240D01*
X129002475Y-112384839D01*
X129002468Y-112384838D01*
X128783802Y-112365708D01*
X128783798Y-112365708D01*
X128565131Y-112384838D01*
X128565124Y-112384839D01*
X128442702Y-112417642D01*
X128353097Y-112441653D01*
X128353095Y-112441653D01*
X128353091Y-112441655D01*
X128154157Y-112534419D01*
X128154149Y-112534423D01*
X127974347Y-112660322D01*
X127974341Y-112660327D01*
X127819127Y-112815541D01*
X127819122Y-112815547D01*
X127693223Y-112995349D01*
X127693219Y-112995357D01*
X127600455Y-113194291D01*
X127543639Y-113406324D01*
X127543638Y-113406331D01*
X127524508Y-113624997D01*
X127524508Y-113625000D01*
X120043092Y-113625000D01*
X120023961Y-113406326D01*
X119967147Y-113194297D01*
X119874379Y-112995354D01*
X119874377Y-112995351D01*
X119874376Y-112995349D01*
X119748477Y-112815547D01*
X119748472Y-112815541D01*
X119593258Y-112660327D01*
X119593252Y-112660322D01*
X119413450Y-112534423D01*
X119413442Y-112534419D01*
X119214508Y-112441655D01*
X119214506Y-112441654D01*
X119214503Y-112441653D01*
X119063685Y-112401240D01*
X119002475Y-112384839D01*
X119002468Y-112384838D01*
X118783802Y-112365708D01*
X118783798Y-112365708D01*
X118565131Y-112384838D01*
X118565124Y-112384839D01*
X118442702Y-112417642D01*
X118353097Y-112441653D01*
X118353095Y-112441653D01*
X118353091Y-112441655D01*
X118154157Y-112534419D01*
X118154149Y-112534423D01*
X117974347Y-112660322D01*
X117974341Y-112660327D01*
X117819127Y-112815541D01*
X117819122Y-112815547D01*
X117693223Y-112995349D01*
X117693219Y-112995357D01*
X117600455Y-113194291D01*
X117543639Y-113406324D01*
X117543638Y-113406331D01*
X117524508Y-113624997D01*
X117524508Y-113625000D01*
X107688500Y-113625000D01*
X107688500Y-111720000D01*
X134184615Y-111720000D01*
X134203303Y-111897805D01*
X134203304Y-111897807D01*
X134258547Y-112067829D01*
X134258550Y-112067835D01*
X134347941Y-112222665D01*
X134389612Y-112268946D01*
X134467564Y-112355521D01*
X134467567Y-112355523D01*
X134467570Y-112355526D01*
X134612207Y-112460612D01*
X134775533Y-112533329D01*
X134950409Y-112570500D01*
X134950410Y-112570500D01*
X135129189Y-112570500D01*
X135129191Y-112570500D01*
X135304067Y-112533329D01*
X135467393Y-112460612D01*
X135612030Y-112355526D01*
X135731659Y-112222665D01*
X135821050Y-112067835D01*
X135876297Y-111897803D01*
X135894985Y-111720000D01*
X139899615Y-111720000D01*
X139918303Y-111897805D01*
X139918304Y-111897807D01*
X139973547Y-112067829D01*
X139973550Y-112067835D01*
X140062941Y-112222665D01*
X140104612Y-112268946D01*
X140182564Y-112355521D01*
X140182567Y-112355523D01*
X140182570Y-112355526D01*
X140327207Y-112460612D01*
X140490533Y-112533329D01*
X140665409Y-112570500D01*
X140665410Y-112570500D01*
X140844189Y-112570500D01*
X140844191Y-112570500D01*
X141019067Y-112533329D01*
X141182393Y-112460612D01*
X141327030Y-112355526D01*
X141446659Y-112222665D01*
X141536050Y-112067835D01*
X141591297Y-111897803D01*
X141609985Y-111720000D01*
X141591297Y-111542197D01*
X141536050Y-111372165D01*
X141446659Y-111217335D01*
X141373249Y-111135805D01*
X141327035Y-111084478D01*
X141327032Y-111084476D01*
X141327031Y-111084475D01*
X141327030Y-111084474D01*
X141182393Y-110979388D01*
X141134354Y-110958000D01*
X146757615Y-110958000D01*
X146776303Y-111135805D01*
X146776304Y-111135807D01*
X146831547Y-111305829D01*
X146831550Y-111305835D01*
X146920941Y-111460665D01*
X146962612Y-111506946D01*
X147040564Y-111593521D01*
X147040567Y-111593523D01*
X147040570Y-111593526D01*
X147185207Y-111698612D01*
X147348533Y-111771329D01*
X147523409Y-111808500D01*
X147523410Y-111808500D01*
X147702189Y-111808500D01*
X147702191Y-111808500D01*
X147877067Y-111771329D01*
X148040393Y-111698612D01*
X148185030Y-111593526D01*
X148304659Y-111460665D01*
X148394050Y-111305835D01*
X148449297Y-111135803D01*
X148467985Y-110958000D01*
X156917615Y-110958000D01*
X156936303Y-111135805D01*
X156936304Y-111135807D01*
X156991547Y-111305829D01*
X156991550Y-111305835D01*
X157080941Y-111460665D01*
X157122612Y-111506946D01*
X157200564Y-111593521D01*
X157200567Y-111593523D01*
X157200570Y-111593526D01*
X157345207Y-111698612D01*
X157508533Y-111771329D01*
X157683409Y-111808500D01*
X157683410Y-111808500D01*
X157862189Y-111808500D01*
X157862191Y-111808500D01*
X158037067Y-111771329D01*
X158200393Y-111698612D01*
X158345030Y-111593526D01*
X158464659Y-111460665D01*
X158554050Y-111305835D01*
X158609297Y-111135803D01*
X158627985Y-110958000D01*
X167077615Y-110958000D01*
X167096303Y-111135805D01*
X167096304Y-111135807D01*
X167151547Y-111305829D01*
X167151550Y-111305835D01*
X167240941Y-111460665D01*
X167282612Y-111506946D01*
X167360564Y-111593521D01*
X167360567Y-111593523D01*
X167360570Y-111593526D01*
X167505207Y-111698612D01*
X167668533Y-111771329D01*
X167843409Y-111808500D01*
X167843410Y-111808500D01*
X168022189Y-111808500D01*
X168022191Y-111808500D01*
X168197067Y-111771329D01*
X168360393Y-111698612D01*
X168505030Y-111593526D01*
X168624659Y-111460665D01*
X168714050Y-111305835D01*
X168769297Y-111135803D01*
X168787985Y-110958000D01*
X177237615Y-110958000D01*
X177256303Y-111135805D01*
X177256304Y-111135807D01*
X177311547Y-111305829D01*
X177311550Y-111305835D01*
X177400941Y-111460665D01*
X177442612Y-111506946D01*
X177520564Y-111593521D01*
X177520567Y-111593523D01*
X177520570Y-111593526D01*
X177665207Y-111698612D01*
X177828533Y-111771329D01*
X178003409Y-111808500D01*
X178003410Y-111808500D01*
X178182189Y-111808500D01*
X178182191Y-111808500D01*
X178357067Y-111771329D01*
X178520393Y-111698612D01*
X178665030Y-111593526D01*
X178784659Y-111460665D01*
X178874050Y-111305835D01*
X178929297Y-111135803D01*
X178947985Y-110958000D01*
X178929297Y-110780197D01*
X178874050Y-110610165D01*
X178784659Y-110455335D01*
X178737803Y-110403296D01*
X178665035Y-110322478D01*
X178665032Y-110322476D01*
X178665031Y-110322475D01*
X178665030Y-110322474D01*
X178520393Y-110217388D01*
X178357067Y-110144671D01*
X178357065Y-110144670D01*
X178229394Y-110117533D01*
X178182191Y-110107500D01*
X178003409Y-110107500D01*
X177972754Y-110114015D01*
X177828533Y-110144670D01*
X177828528Y-110144672D01*
X177665208Y-110217387D01*
X177520568Y-110322475D01*
X177400940Y-110455336D01*
X177311550Y-110610164D01*
X177311547Y-110610170D01*
X177256304Y-110780192D01*
X177256303Y-110780194D01*
X177237615Y-110958000D01*
X168787985Y-110958000D01*
X168769297Y-110780197D01*
X168714050Y-110610165D01*
X168624659Y-110455335D01*
X168577803Y-110403296D01*
X168505035Y-110322478D01*
X168505032Y-110322476D01*
X168505031Y-110322475D01*
X168505030Y-110322474D01*
X168360393Y-110217388D01*
X168197067Y-110144671D01*
X168197065Y-110144670D01*
X168069394Y-110117533D01*
X168022191Y-110107500D01*
X167843409Y-110107500D01*
X167812754Y-110114015D01*
X167668533Y-110144670D01*
X167668528Y-110144672D01*
X167505208Y-110217387D01*
X167360568Y-110322475D01*
X167240940Y-110455336D01*
X167151550Y-110610164D01*
X167151547Y-110610170D01*
X167096304Y-110780192D01*
X167096303Y-110780194D01*
X167077615Y-110958000D01*
X158627985Y-110958000D01*
X158609297Y-110780197D01*
X158554050Y-110610165D01*
X158464659Y-110455335D01*
X158417803Y-110403296D01*
X158345035Y-110322478D01*
X158345032Y-110322476D01*
X158345031Y-110322475D01*
X158345030Y-110322474D01*
X158200393Y-110217388D01*
X158037067Y-110144671D01*
X158037065Y-110144670D01*
X157909394Y-110117533D01*
X157862191Y-110107500D01*
X157683409Y-110107500D01*
X157652754Y-110114015D01*
X157508533Y-110144670D01*
X157508528Y-110144672D01*
X157345208Y-110217387D01*
X157200568Y-110322475D01*
X157080940Y-110455336D01*
X156991550Y-110610164D01*
X156991547Y-110610170D01*
X156936304Y-110780192D01*
X156936303Y-110780194D01*
X156917615Y-110958000D01*
X148467985Y-110958000D01*
X148449297Y-110780197D01*
X148394050Y-110610165D01*
X148304659Y-110455335D01*
X148257803Y-110403296D01*
X148185035Y-110322478D01*
X148185032Y-110322476D01*
X148185031Y-110322475D01*
X148185030Y-110322474D01*
X148040393Y-110217388D01*
X147877067Y-110144671D01*
X147877065Y-110144670D01*
X147749394Y-110117533D01*
X147702191Y-110107500D01*
X147523409Y-110107500D01*
X147492754Y-110114015D01*
X147348533Y-110144670D01*
X147348528Y-110144672D01*
X147185208Y-110217387D01*
X147040568Y-110322475D01*
X146920940Y-110455336D01*
X146831550Y-110610164D01*
X146831547Y-110610170D01*
X146776304Y-110780192D01*
X146776303Y-110780194D01*
X146757615Y-110958000D01*
X141134354Y-110958000D01*
X141019067Y-110906671D01*
X141019065Y-110906670D01*
X140891394Y-110879533D01*
X140844191Y-110869500D01*
X140665409Y-110869500D01*
X140634754Y-110876015D01*
X140490533Y-110906670D01*
X140490528Y-110906672D01*
X140327208Y-110979387D01*
X140182568Y-111084475D01*
X140062940Y-111217336D01*
X139973550Y-111372164D01*
X139973547Y-111372170D01*
X139918304Y-111542192D01*
X139918303Y-111542194D01*
X139899615Y-111720000D01*
X135894985Y-111720000D01*
X135876297Y-111542197D01*
X135821050Y-111372165D01*
X135731659Y-111217335D01*
X135658249Y-111135805D01*
X135612035Y-111084478D01*
X135612032Y-111084476D01*
X135612031Y-111084475D01*
X135612030Y-111084474D01*
X135467393Y-110979388D01*
X135304067Y-110906671D01*
X135304065Y-110906670D01*
X135176394Y-110879533D01*
X135129191Y-110869500D01*
X134950409Y-110869500D01*
X134919754Y-110876015D01*
X134775533Y-110906670D01*
X134775528Y-110906672D01*
X134612208Y-110979387D01*
X134467568Y-111084475D01*
X134347940Y-111217336D01*
X134258550Y-111372164D01*
X134258547Y-111372170D01*
X134203304Y-111542192D01*
X134203303Y-111542194D01*
X134184615Y-111720000D01*
X107688500Y-111720000D01*
X107688500Y-107910000D01*
X133168615Y-107910000D01*
X133187303Y-108087805D01*
X133187304Y-108087807D01*
X133242547Y-108257829D01*
X133242550Y-108257835D01*
X133331941Y-108412665D01*
X133373612Y-108458946D01*
X133451564Y-108545521D01*
X133451567Y-108545523D01*
X133451570Y-108545526D01*
X133596207Y-108650612D01*
X133759533Y-108723329D01*
X133934409Y-108760500D01*
X133934410Y-108760500D01*
X134113189Y-108760500D01*
X134113191Y-108760500D01*
X134288067Y-108723329D01*
X134451393Y-108650612D01*
X134596030Y-108545526D01*
X134715659Y-108412665D01*
X134805050Y-108257835D01*
X134860297Y-108087803D01*
X134878985Y-107910000D01*
X134860297Y-107732197D01*
X134805050Y-107562165D01*
X134715659Y-107407335D01*
X134671212Y-107357972D01*
X134640982Y-107294981D01*
X134649607Y-107225646D01*
X134671212Y-107192028D01*
X134671924Y-107191236D01*
X134715659Y-107142665D01*
X134805050Y-106987835D01*
X134860297Y-106817803D01*
X134878985Y-106640000D01*
X138248615Y-106640000D01*
X138267303Y-106817805D01*
X138267304Y-106817807D01*
X138322547Y-106987829D01*
X138322550Y-106987835D01*
X138411941Y-107142665D01*
X138453612Y-107188946D01*
X138531564Y-107275521D01*
X138531567Y-107275523D01*
X138531570Y-107275526D01*
X138676207Y-107380612D01*
X138839533Y-107453329D01*
X139014409Y-107490500D01*
X139014410Y-107490500D01*
X139193189Y-107490500D01*
X139193191Y-107490500D01*
X139368067Y-107453329D01*
X139531393Y-107380612D01*
X139676030Y-107275526D01*
X139795659Y-107142665D01*
X139885050Y-106987835D01*
X139940297Y-106817803D01*
X139958985Y-106640000D01*
X139940297Y-106462197D01*
X139885050Y-106292165D01*
X139795659Y-106137335D01*
X139748803Y-106085296D01*
X139676505Y-106005000D01*
X144598615Y-106005000D01*
X144617303Y-106182805D01*
X144617304Y-106182807D01*
X144672547Y-106352829D01*
X144672550Y-106352835D01*
X144761941Y-106507665D01*
X144803612Y-106553946D01*
X144881564Y-106640521D01*
X144881567Y-106640523D01*
X144881570Y-106640526D01*
X145026207Y-106745612D01*
X145189533Y-106818329D01*
X145364409Y-106855500D01*
X145364410Y-106855500D01*
X145543189Y-106855500D01*
X145543191Y-106855500D01*
X145718067Y-106818329D01*
X145881393Y-106745612D01*
X146026030Y-106640526D01*
X146145659Y-106507665D01*
X146235050Y-106352835D01*
X146290297Y-106182803D01*
X146308985Y-106005000D01*
X154758615Y-106005000D01*
X154777303Y-106182805D01*
X154777304Y-106182807D01*
X154832547Y-106352829D01*
X154832550Y-106352835D01*
X154921941Y-106507665D01*
X154963612Y-106553946D01*
X155041564Y-106640521D01*
X155041567Y-106640523D01*
X155041570Y-106640526D01*
X155186207Y-106745612D01*
X155349533Y-106818329D01*
X155524409Y-106855500D01*
X155524410Y-106855500D01*
X155703189Y-106855500D01*
X155703191Y-106855500D01*
X155878067Y-106818329D01*
X156041393Y-106745612D01*
X156186030Y-106640526D01*
X156305659Y-106507665D01*
X156395050Y-106352835D01*
X156450297Y-106182803D01*
X156468985Y-106005000D01*
X164918615Y-106005000D01*
X164937303Y-106182805D01*
X164937304Y-106182807D01*
X164992547Y-106352829D01*
X164992550Y-106352835D01*
X165081941Y-106507665D01*
X165123612Y-106553946D01*
X165201564Y-106640521D01*
X165201567Y-106640523D01*
X165201570Y-106640526D01*
X165346207Y-106745612D01*
X165509533Y-106818329D01*
X165684409Y-106855500D01*
X165684410Y-106855500D01*
X165863189Y-106855500D01*
X165863191Y-106855500D01*
X166038067Y-106818329D01*
X166201393Y-106745612D01*
X166346030Y-106640526D01*
X166465659Y-106507665D01*
X166555050Y-106352835D01*
X166610297Y-106182803D01*
X166628985Y-106005000D01*
X175078615Y-106005000D01*
X175097303Y-106182805D01*
X175097304Y-106182807D01*
X175152547Y-106352829D01*
X175152550Y-106352835D01*
X175241941Y-106507665D01*
X175283612Y-106553946D01*
X175361564Y-106640521D01*
X175361567Y-106640523D01*
X175361570Y-106640526D01*
X175506207Y-106745612D01*
X175669533Y-106818329D01*
X175844409Y-106855500D01*
X175844410Y-106855500D01*
X176023189Y-106855500D01*
X176023191Y-106855500D01*
X176198067Y-106818329D01*
X176361393Y-106745612D01*
X176506030Y-106640526D01*
X176625659Y-106507665D01*
X176715050Y-106352835D01*
X176770297Y-106182803D01*
X176788985Y-106005000D01*
X176770297Y-105827197D01*
X176715050Y-105657165D01*
X176625659Y-105502335D01*
X176578803Y-105450296D01*
X176506035Y-105369478D01*
X176506032Y-105369476D01*
X176506031Y-105369475D01*
X176506030Y-105369474D01*
X176361393Y-105264388D01*
X176198067Y-105191671D01*
X176198065Y-105191670D01*
X176070394Y-105164533D01*
X176023191Y-105154500D01*
X175844409Y-105154500D01*
X175813754Y-105161015D01*
X175669533Y-105191670D01*
X175669528Y-105191672D01*
X175506208Y-105264387D01*
X175361568Y-105369475D01*
X175241940Y-105502336D01*
X175152550Y-105657164D01*
X175152547Y-105657170D01*
X175097304Y-105827192D01*
X175097303Y-105827194D01*
X175078615Y-106005000D01*
X166628985Y-106005000D01*
X166610297Y-105827197D01*
X166555050Y-105657165D01*
X166465659Y-105502335D01*
X166418803Y-105450296D01*
X166346035Y-105369478D01*
X166346032Y-105369476D01*
X166346031Y-105369475D01*
X166346030Y-105369474D01*
X166201393Y-105264388D01*
X166038067Y-105191671D01*
X166038065Y-105191670D01*
X165910394Y-105164533D01*
X165863191Y-105154500D01*
X165684409Y-105154500D01*
X165653754Y-105161015D01*
X165509533Y-105191670D01*
X165509528Y-105191672D01*
X165346208Y-105264387D01*
X165201568Y-105369475D01*
X165081940Y-105502336D01*
X164992550Y-105657164D01*
X164992547Y-105657170D01*
X164937304Y-105827192D01*
X164937303Y-105827194D01*
X164918615Y-106005000D01*
X156468985Y-106005000D01*
X156450297Y-105827197D01*
X156395050Y-105657165D01*
X156305659Y-105502335D01*
X156258803Y-105450296D01*
X156186035Y-105369478D01*
X156186032Y-105369476D01*
X156186031Y-105369475D01*
X156186030Y-105369474D01*
X156041393Y-105264388D01*
X155878067Y-105191671D01*
X155878065Y-105191670D01*
X155750394Y-105164533D01*
X155703191Y-105154500D01*
X155524409Y-105154500D01*
X155493754Y-105161015D01*
X155349533Y-105191670D01*
X155349528Y-105191672D01*
X155186208Y-105264387D01*
X155041568Y-105369475D01*
X154921940Y-105502336D01*
X154832550Y-105657164D01*
X154832547Y-105657170D01*
X154777304Y-105827192D01*
X154777303Y-105827194D01*
X154758615Y-106005000D01*
X146308985Y-106005000D01*
X146290297Y-105827197D01*
X146235050Y-105657165D01*
X146145659Y-105502335D01*
X146098803Y-105450296D01*
X146026035Y-105369478D01*
X146026032Y-105369476D01*
X146026031Y-105369475D01*
X146026030Y-105369474D01*
X145881393Y-105264388D01*
X145718067Y-105191671D01*
X145718065Y-105191670D01*
X145590394Y-105164533D01*
X145543191Y-105154500D01*
X145364409Y-105154500D01*
X145333754Y-105161015D01*
X145189533Y-105191670D01*
X145189528Y-105191672D01*
X145026208Y-105264387D01*
X144881568Y-105369475D01*
X144761940Y-105502336D01*
X144672550Y-105657164D01*
X144672547Y-105657170D01*
X144617304Y-105827192D01*
X144617303Y-105827194D01*
X144598615Y-106005000D01*
X139676505Y-106005000D01*
X139676035Y-106004478D01*
X139676032Y-106004476D01*
X139676031Y-106004475D01*
X139676030Y-106004474D01*
X139531393Y-105899388D01*
X139368067Y-105826671D01*
X139368065Y-105826670D01*
X139240394Y-105799533D01*
X139193191Y-105789500D01*
X139014409Y-105789500D01*
X138983754Y-105796015D01*
X138839533Y-105826670D01*
X138839528Y-105826672D01*
X138676208Y-105899387D01*
X138531568Y-106004475D01*
X138411940Y-106137336D01*
X138322550Y-106292164D01*
X138322547Y-106292170D01*
X138267304Y-106462192D01*
X138267303Y-106462194D01*
X138248615Y-106640000D01*
X134878985Y-106640000D01*
X134860297Y-106462197D01*
X134805050Y-106292165D01*
X134715659Y-106137335D01*
X134668803Y-106085296D01*
X134596035Y-106004478D01*
X134596032Y-106004476D01*
X134596031Y-106004475D01*
X134596030Y-106004474D01*
X134451393Y-105899388D01*
X134288067Y-105826671D01*
X134288065Y-105826670D01*
X134160394Y-105799533D01*
X134113191Y-105789500D01*
X133934409Y-105789500D01*
X133903754Y-105796015D01*
X133759533Y-105826670D01*
X133759528Y-105826672D01*
X133596208Y-105899387D01*
X133451568Y-106004475D01*
X133331940Y-106137336D01*
X133242550Y-106292164D01*
X133242547Y-106292170D01*
X133187304Y-106462192D01*
X133187303Y-106462194D01*
X133168615Y-106640000D01*
X133187303Y-106817805D01*
X133187304Y-106817807D01*
X133242547Y-106987829D01*
X133242550Y-106987835D01*
X133331938Y-107142661D01*
X133331939Y-107142663D01*
X133331941Y-107142665D01*
X133376388Y-107192028D01*
X133406617Y-107255020D01*
X133397991Y-107324355D01*
X133376388Y-107357972D01*
X133331938Y-107407338D01*
X133242550Y-107562164D01*
X133242547Y-107562170D01*
X133187304Y-107732192D01*
X133187303Y-107732194D01*
X133168615Y-107910000D01*
X107688500Y-107910000D01*
X107688500Y-100925000D01*
X117524508Y-100925000D01*
X117543639Y-101143674D01*
X117600453Y-101355703D01*
X117600454Y-101355706D01*
X117600455Y-101355708D01*
X117693219Y-101554642D01*
X117693223Y-101554650D01*
X117819122Y-101734452D01*
X117819127Y-101734458D01*
X117974341Y-101889672D01*
X117974347Y-101889677D01*
X118154149Y-102015576D01*
X118154151Y-102015577D01*
X118154154Y-102015579D01*
X118353097Y-102108347D01*
X118565126Y-102165161D01*
X118721321Y-102178826D01*
X118783798Y-102184292D01*
X118783800Y-102184292D01*
X118783802Y-102184292D01*
X118838468Y-102179509D01*
X119002474Y-102165161D01*
X119214503Y-102108347D01*
X119413446Y-102015579D01*
X119593257Y-101889674D01*
X119748474Y-101734457D01*
X119874379Y-101554646D01*
X119967147Y-101355703D01*
X120023961Y-101143674D01*
X120043092Y-100925000D01*
X127524508Y-100925000D01*
X127543639Y-101143674D01*
X127600453Y-101355703D01*
X127600454Y-101355706D01*
X127600455Y-101355708D01*
X127693219Y-101554642D01*
X127693223Y-101554650D01*
X127819122Y-101734452D01*
X127819127Y-101734458D01*
X127974341Y-101889672D01*
X127974347Y-101889677D01*
X128154149Y-102015576D01*
X128154151Y-102015577D01*
X128154154Y-102015579D01*
X128353097Y-102108347D01*
X128565126Y-102165161D01*
X128721321Y-102178826D01*
X128783798Y-102184292D01*
X128783800Y-102184292D01*
X128783802Y-102184292D01*
X128838468Y-102179509D01*
X129002474Y-102165161D01*
X129214503Y-102108347D01*
X129413446Y-102015579D01*
X129593257Y-101889674D01*
X129748474Y-101734457D01*
X129874379Y-101554646D01*
X129967147Y-101355703D01*
X130023961Y-101143674D01*
X130043092Y-100925000D01*
X130023961Y-100706326D01*
X129967147Y-100494297D01*
X129874379Y-100295354D01*
X129874377Y-100295351D01*
X129874376Y-100295349D01*
X129748477Y-100115547D01*
X129748472Y-100115541D01*
X129708931Y-100076000D01*
X171364341Y-100076000D01*
X171384936Y-100311403D01*
X171384938Y-100311413D01*
X171446094Y-100539655D01*
X171446096Y-100539659D01*
X171446097Y-100539663D01*
X171523816Y-100706331D01*
X171545965Y-100753830D01*
X171545967Y-100753834D01*
X171654281Y-100908521D01*
X171681505Y-100947401D01*
X171848599Y-101114495D01*
X171945384Y-101182265D01*
X172042165Y-101250032D01*
X172042167Y-101250033D01*
X172042170Y-101250035D01*
X172256337Y-101349903D01*
X172484592Y-101411063D01*
X172672918Y-101427539D01*
X172719999Y-101431659D01*
X172720000Y-101431659D01*
X172720001Y-101431659D01*
X172759234Y-101428226D01*
X172955408Y-101411063D01*
X173183663Y-101349903D01*
X173397830Y-101250035D01*
X173591401Y-101114495D01*
X173758495Y-100947401D01*
X173888425Y-100761842D01*
X173943002Y-100718217D01*
X174012500Y-100711023D01*
X174074855Y-100742546D01*
X174091575Y-100761842D01*
X174221500Y-100947395D01*
X174221505Y-100947401D01*
X174388599Y-101114495D01*
X174485384Y-101182265D01*
X174582165Y-101250032D01*
X174582167Y-101250033D01*
X174582170Y-101250035D01*
X174796337Y-101349903D01*
X175024592Y-101411063D01*
X175212918Y-101427539D01*
X175259999Y-101431659D01*
X175260000Y-101431659D01*
X175260001Y-101431659D01*
X175299234Y-101428226D01*
X175495408Y-101411063D01*
X175723663Y-101349903D01*
X175937830Y-101250035D01*
X176131401Y-101114495D01*
X176298495Y-100947401D01*
X176428425Y-100761842D01*
X176483002Y-100718217D01*
X176552500Y-100711023D01*
X176614855Y-100742546D01*
X176631575Y-100761842D01*
X176761500Y-100947395D01*
X176761505Y-100947401D01*
X176928599Y-101114495D01*
X177025384Y-101182265D01*
X177122165Y-101250032D01*
X177122167Y-101250033D01*
X177122170Y-101250035D01*
X177336337Y-101349903D01*
X177564592Y-101411063D01*
X177752918Y-101427539D01*
X177799999Y-101431659D01*
X177800000Y-101431659D01*
X177800001Y-101431659D01*
X177839234Y-101428226D01*
X178035408Y-101411063D01*
X178263663Y-101349903D01*
X178477830Y-101250035D01*
X178671401Y-101114495D01*
X178838495Y-100947401D01*
X178968425Y-100761842D01*
X179023002Y-100718217D01*
X179092500Y-100711023D01*
X179154855Y-100742546D01*
X179171575Y-100761842D01*
X179301500Y-100947395D01*
X179301505Y-100947401D01*
X179468599Y-101114495D01*
X179565384Y-101182265D01*
X179662165Y-101250032D01*
X179662167Y-101250033D01*
X179662170Y-101250035D01*
X179876337Y-101349903D01*
X180104592Y-101411063D01*
X180292918Y-101427539D01*
X180339999Y-101431659D01*
X180340000Y-101431659D01*
X180340001Y-101431659D01*
X180379234Y-101428226D01*
X180575408Y-101411063D01*
X180803663Y-101349903D01*
X181017830Y-101250035D01*
X181211401Y-101114495D01*
X181378495Y-100947401D01*
X181514035Y-100753830D01*
X181613903Y-100539663D01*
X181675063Y-100311408D01*
X181695659Y-100076000D01*
X181675063Y-99840592D01*
X181613903Y-99612337D01*
X181514035Y-99398171D01*
X181508425Y-99390158D01*
X181378494Y-99204597D01*
X181211402Y-99037506D01*
X181211395Y-99037501D01*
X181017834Y-98901967D01*
X181017830Y-98901965D01*
X180954273Y-98872328D01*
X180901834Y-98826156D01*
X180882682Y-98758962D01*
X180902898Y-98692081D01*
X180914528Y-98676974D01*
X180924148Y-98666289D01*
X181031859Y-98546665D01*
X181121250Y-98391835D01*
X181176497Y-98221803D01*
X181195185Y-98044000D01*
X181176497Y-97866197D01*
X181121250Y-97696165D01*
X181031859Y-97541335D01*
X180958448Y-97459804D01*
X180912235Y-97408478D01*
X180912232Y-97408476D01*
X180912231Y-97408475D01*
X180912230Y-97408474D01*
X180767593Y-97303388D01*
X180604267Y-97230671D01*
X180604265Y-97230670D01*
X180476594Y-97203533D01*
X180429391Y-97193500D01*
X180250609Y-97193500D01*
X180219954Y-97200015D01*
X180075733Y-97230670D01*
X180075728Y-97230672D01*
X179912408Y-97303387D01*
X179767768Y-97408475D01*
X179648140Y-97541336D01*
X179558750Y-97696164D01*
X179558747Y-97696170D01*
X179503504Y-97866192D01*
X179503503Y-97866194D01*
X179484815Y-98044000D01*
X179503503Y-98221805D01*
X179503504Y-98221807D01*
X179558747Y-98391829D01*
X179558750Y-98391835D01*
X179648140Y-98546664D01*
X179765471Y-98676974D01*
X179795701Y-98739966D01*
X179787075Y-98809301D01*
X179742334Y-98862966D01*
X179725727Y-98872328D01*
X179662168Y-98901966D01*
X179468597Y-99037505D01*
X179301505Y-99204597D01*
X179171575Y-99390158D01*
X179116998Y-99433783D01*
X179047500Y-99440977D01*
X178985145Y-99409454D01*
X178968425Y-99390158D01*
X178838494Y-99204597D01*
X178671402Y-99037506D01*
X178671395Y-99037501D01*
X178477834Y-98901967D01*
X178477830Y-98901965D01*
X178414273Y-98872328D01*
X178263663Y-98802097D01*
X178263659Y-98802096D01*
X178263655Y-98802094D01*
X178035413Y-98740938D01*
X178035403Y-98740936D01*
X177800001Y-98720341D01*
X177799999Y-98720341D01*
X177564596Y-98740936D01*
X177564586Y-98740938D01*
X177336344Y-98802094D01*
X177336335Y-98802098D01*
X177122171Y-98901964D01*
X177122169Y-98901965D01*
X176928597Y-99037505D01*
X176761505Y-99204597D01*
X176631575Y-99390158D01*
X176576998Y-99433783D01*
X176507500Y-99440977D01*
X176445145Y-99409454D01*
X176428425Y-99390158D01*
X176298494Y-99204597D01*
X176131402Y-99037506D01*
X176131395Y-99037501D01*
X175937834Y-98901967D01*
X175937830Y-98901965D01*
X175874273Y-98872328D01*
X175723663Y-98802097D01*
X175723659Y-98802096D01*
X175723655Y-98802094D01*
X175495413Y-98740938D01*
X175495403Y-98740936D01*
X175260001Y-98720341D01*
X175259999Y-98720341D01*
X175024596Y-98740936D01*
X175024586Y-98740938D01*
X174796344Y-98802094D01*
X174796335Y-98802098D01*
X174582171Y-98901964D01*
X174582169Y-98901965D01*
X174388597Y-99037505D01*
X174221505Y-99204597D01*
X174091575Y-99390158D01*
X174036998Y-99433783D01*
X173967500Y-99440977D01*
X173905145Y-99409454D01*
X173888425Y-99390158D01*
X173758494Y-99204597D01*
X173591402Y-99037506D01*
X173591395Y-99037501D01*
X173397834Y-98901967D01*
X173397830Y-98901965D01*
X173334273Y-98872328D01*
X173183663Y-98802097D01*
X173183659Y-98802096D01*
X173183655Y-98802094D01*
X172955413Y-98740938D01*
X172955403Y-98740936D01*
X172720001Y-98720341D01*
X172719999Y-98720341D01*
X172484596Y-98740936D01*
X172484586Y-98740938D01*
X172256344Y-98802094D01*
X172256335Y-98802098D01*
X172042171Y-98901964D01*
X172042169Y-98901965D01*
X171848597Y-99037505D01*
X171681505Y-99204597D01*
X171545965Y-99398169D01*
X171545964Y-99398171D01*
X171446098Y-99612335D01*
X171446094Y-99612344D01*
X171384938Y-99840586D01*
X171384936Y-99840596D01*
X171364341Y-100075999D01*
X171364341Y-100076000D01*
X129708931Y-100076000D01*
X129593258Y-99960327D01*
X129593252Y-99960322D01*
X129413450Y-99834423D01*
X129413442Y-99834419D01*
X129214508Y-99741655D01*
X129214506Y-99741654D01*
X129214503Y-99741653D01*
X129063685Y-99701240D01*
X129002475Y-99684839D01*
X129002468Y-99684838D01*
X128783802Y-99665708D01*
X128783798Y-99665708D01*
X128565131Y-99684838D01*
X128565124Y-99684839D01*
X128442702Y-99717642D01*
X128353097Y-99741653D01*
X128353095Y-99741653D01*
X128353091Y-99741655D01*
X128154157Y-99834419D01*
X128154149Y-99834423D01*
X127974347Y-99960322D01*
X127974341Y-99960327D01*
X127819127Y-100115541D01*
X127819122Y-100115547D01*
X127693223Y-100295349D01*
X127693219Y-100295357D01*
X127600455Y-100494291D01*
X127600453Y-100494295D01*
X127600453Y-100494297D01*
X127576442Y-100583902D01*
X127543639Y-100706324D01*
X127543638Y-100706331D01*
X127538782Y-100761842D01*
X127524508Y-100925000D01*
X120043092Y-100925000D01*
X120023961Y-100706326D01*
X119967147Y-100494297D01*
X119874379Y-100295354D01*
X119874377Y-100295351D01*
X119874376Y-100295349D01*
X119748477Y-100115547D01*
X119748472Y-100115541D01*
X119593258Y-99960327D01*
X119593252Y-99960322D01*
X119413450Y-99834423D01*
X119413442Y-99834419D01*
X119214508Y-99741655D01*
X119214506Y-99741654D01*
X119214503Y-99741653D01*
X119063685Y-99701240D01*
X119002475Y-99684839D01*
X119002468Y-99684838D01*
X118783802Y-99665708D01*
X118783798Y-99665708D01*
X118565131Y-99684838D01*
X118565124Y-99684839D01*
X118442702Y-99717642D01*
X118353097Y-99741653D01*
X118353095Y-99741653D01*
X118353091Y-99741655D01*
X118154157Y-99834419D01*
X118154149Y-99834423D01*
X117974347Y-99960322D01*
X117974341Y-99960327D01*
X117819127Y-100115541D01*
X117819122Y-100115547D01*
X117693223Y-100295349D01*
X117693219Y-100295357D01*
X117600455Y-100494291D01*
X117600453Y-100494295D01*
X117600453Y-100494297D01*
X117576442Y-100583902D01*
X117543639Y-100706324D01*
X117543638Y-100706331D01*
X117538782Y-100761842D01*
X117524508Y-100925000D01*
X107688500Y-100925000D01*
X107688500Y-95845002D01*
X117524508Y-95845002D01*
X117527961Y-95884476D01*
X117543639Y-96063674D01*
X117600453Y-96275703D01*
X117600454Y-96275706D01*
X117600455Y-96275708D01*
X117693219Y-96474642D01*
X117693223Y-96474650D01*
X117819122Y-96654452D01*
X117819127Y-96654458D01*
X117974341Y-96809672D01*
X117974347Y-96809677D01*
X118154149Y-96935576D01*
X118154151Y-96935577D01*
X118154154Y-96935579D01*
X118353097Y-97028347D01*
X118565126Y-97085161D01*
X118721321Y-97098826D01*
X118783798Y-97104292D01*
X118783800Y-97104292D01*
X118783802Y-97104292D01*
X118838468Y-97099509D01*
X119002474Y-97085161D01*
X119214503Y-97028347D01*
X119413446Y-96935579D01*
X119593257Y-96809674D01*
X119748474Y-96654457D01*
X119874379Y-96474646D01*
X119967147Y-96275703D01*
X120023961Y-96063674D01*
X120039638Y-95884476D01*
X120043092Y-95845002D01*
X127524508Y-95845002D01*
X127527961Y-95884476D01*
X127543639Y-96063674D01*
X127600453Y-96275703D01*
X127600454Y-96275706D01*
X127600455Y-96275708D01*
X127693219Y-96474642D01*
X127693223Y-96474650D01*
X127819122Y-96654452D01*
X127819127Y-96654458D01*
X127974341Y-96809672D01*
X127974347Y-96809677D01*
X128154149Y-96935576D01*
X128154151Y-96935577D01*
X128154154Y-96935579D01*
X128353097Y-97028347D01*
X128565126Y-97085161D01*
X128721321Y-97098826D01*
X128783798Y-97104292D01*
X128783800Y-97104292D01*
X128783802Y-97104292D01*
X128838468Y-97099509D01*
X129002474Y-97085161D01*
X129214503Y-97028347D01*
X129413446Y-96935579D01*
X129593257Y-96809674D01*
X129748474Y-96654457D01*
X129874379Y-96474646D01*
X129967147Y-96275703D01*
X130023961Y-96063674D01*
X130039638Y-95884476D01*
X130043092Y-95845002D01*
X130043092Y-95844997D01*
X130035481Y-95758000D01*
X166061615Y-95758000D01*
X166080303Y-95935805D01*
X166080304Y-95935807D01*
X166135547Y-96105829D01*
X166135550Y-96105835D01*
X166224941Y-96260665D01*
X166238486Y-96275708D01*
X166344564Y-96393521D01*
X166344567Y-96393523D01*
X166344570Y-96393526D01*
X166489207Y-96498612D01*
X166652533Y-96571329D01*
X166652535Y-96571329D01*
X166652536Y-96571330D01*
X166709171Y-96583367D01*
X166744919Y-96590966D01*
X166806401Y-96624158D01*
X166840178Y-96685321D01*
X166841928Y-96696041D01*
X166842303Y-96697804D01*
X166897547Y-96867829D01*
X166897550Y-96867835D01*
X166986941Y-97022665D01*
X167028612Y-97068946D01*
X167106564Y-97155521D01*
X167106567Y-97155523D01*
X167106570Y-97155526D01*
X167251207Y-97260612D01*
X167414533Y-97333329D01*
X167414535Y-97333329D01*
X167414536Y-97333330D01*
X167471171Y-97345367D01*
X167506919Y-97352966D01*
X167568401Y-97386158D01*
X167602178Y-97447321D01*
X167603928Y-97458041D01*
X167604303Y-97459804D01*
X167659547Y-97629829D01*
X167659550Y-97629835D01*
X167748941Y-97784665D01*
X167790612Y-97830946D01*
X167868564Y-97917521D01*
X167868567Y-97917523D01*
X167868570Y-97917526D01*
X168013207Y-98022612D01*
X168176533Y-98095329D01*
X168176535Y-98095329D01*
X168176536Y-98095330D01*
X168233171Y-98107367D01*
X168268919Y-98114966D01*
X168330401Y-98148158D01*
X168364178Y-98209321D01*
X168365928Y-98220041D01*
X168366303Y-98221804D01*
X168421547Y-98391829D01*
X168421550Y-98391835D01*
X168510941Y-98546665D01*
X168552612Y-98592946D01*
X168630564Y-98679521D01*
X168630567Y-98679523D01*
X168630570Y-98679526D01*
X168775207Y-98784612D01*
X168938533Y-98857329D01*
X169113409Y-98894500D01*
X169113410Y-98894500D01*
X169292189Y-98894500D01*
X169292191Y-98894500D01*
X169467067Y-98857329D01*
X169630393Y-98784612D01*
X169775030Y-98679526D01*
X169894659Y-98546665D01*
X169984050Y-98391835D01*
X170039297Y-98221803D01*
X170057985Y-98044000D01*
X170039297Y-97866197D01*
X169984050Y-97696165D01*
X169894659Y-97541335D01*
X169821248Y-97459804D01*
X169775035Y-97408478D01*
X169775032Y-97408476D01*
X169775031Y-97408475D01*
X169775030Y-97408474D01*
X169630393Y-97303388D01*
X169467067Y-97230671D01*
X169467065Y-97230670D01*
X169467064Y-97230670D01*
X169374679Y-97211033D01*
X169313197Y-97177841D01*
X169279421Y-97116677D01*
X169277669Y-97105951D01*
X169277297Y-97104202D01*
X169277297Y-97104197D01*
X169222510Y-96935580D01*
X169222052Y-96934170D01*
X169222049Y-96934164D01*
X169183754Y-96867835D01*
X169132659Y-96779335D01*
X169059248Y-96697804D01*
X169013035Y-96646478D01*
X169013032Y-96646476D01*
X169013031Y-96646475D01*
X169013030Y-96646474D01*
X168868393Y-96541388D01*
X168705067Y-96468671D01*
X168705065Y-96468670D01*
X168705064Y-96468670D01*
X168612679Y-96449033D01*
X168551197Y-96415841D01*
X168517421Y-96354677D01*
X168515669Y-96343951D01*
X168515297Y-96342202D01*
X168515297Y-96342197D01*
X168460050Y-96172165D01*
X168370659Y-96017335D01*
X168297249Y-95935805D01*
X168251035Y-95884478D01*
X168251032Y-95884476D01*
X168251031Y-95884475D01*
X168251030Y-95884474D01*
X168106393Y-95779388D01*
X168058354Y-95758000D01*
X171864815Y-95758000D01*
X171883503Y-95935805D01*
X171883504Y-95935807D01*
X171938747Y-96105829D01*
X171938750Y-96105835D01*
X172028141Y-96260665D01*
X172041686Y-96275708D01*
X172147764Y-96393521D01*
X172147767Y-96393523D01*
X172147770Y-96393526D01*
X172292407Y-96498612D01*
X172455733Y-96571329D01*
X172630609Y-96608500D01*
X172630610Y-96608500D01*
X172809389Y-96608500D01*
X172809391Y-96608500D01*
X172984267Y-96571329D01*
X173099554Y-96520000D01*
X174404815Y-96520000D01*
X174423503Y-96697805D01*
X174423504Y-96697807D01*
X174478747Y-96867829D01*
X174478750Y-96867835D01*
X174568141Y-97022665D01*
X174609812Y-97068946D01*
X174687764Y-97155521D01*
X174687767Y-97155523D01*
X174687770Y-97155526D01*
X174832407Y-97260612D01*
X174995733Y-97333329D01*
X175170609Y-97370500D01*
X175170610Y-97370500D01*
X175349389Y-97370500D01*
X175349391Y-97370500D01*
X175524267Y-97333329D01*
X175639554Y-97282000D01*
X176944815Y-97282000D01*
X176963503Y-97459805D01*
X176963504Y-97459807D01*
X177018747Y-97629829D01*
X177018750Y-97629835D01*
X177108141Y-97784665D01*
X177149812Y-97830946D01*
X177227764Y-97917521D01*
X177227767Y-97917523D01*
X177227770Y-97917526D01*
X177372407Y-98022612D01*
X177535733Y-98095329D01*
X177710609Y-98132500D01*
X177710610Y-98132500D01*
X177889389Y-98132500D01*
X177889391Y-98132500D01*
X178064267Y-98095329D01*
X178227593Y-98022612D01*
X178372230Y-97917526D01*
X178491859Y-97784665D01*
X178581250Y-97629835D01*
X178636497Y-97459803D01*
X178655185Y-97282000D01*
X178636497Y-97104197D01*
X178581710Y-96935580D01*
X178581252Y-96934170D01*
X178581249Y-96934164D01*
X178542954Y-96867835D01*
X178491859Y-96779335D01*
X178418448Y-96697804D01*
X178372235Y-96646478D01*
X178372232Y-96646476D01*
X178372231Y-96646475D01*
X178372230Y-96646474D01*
X178227593Y-96541388D01*
X178064267Y-96468671D01*
X178064265Y-96468670D01*
X177936594Y-96441533D01*
X177889391Y-96431500D01*
X177710609Y-96431500D01*
X177679954Y-96438015D01*
X177535733Y-96468670D01*
X177535728Y-96468672D01*
X177372408Y-96541387D01*
X177227768Y-96646475D01*
X177108140Y-96779336D01*
X177018750Y-96934164D01*
X177018747Y-96934170D01*
X176963504Y-97104192D01*
X176963503Y-97104194D01*
X176944815Y-97282000D01*
X175639554Y-97282000D01*
X175687593Y-97260612D01*
X175832230Y-97155526D01*
X175951859Y-97022665D01*
X176041250Y-96867835D01*
X176096497Y-96697803D01*
X176115185Y-96520000D01*
X176096497Y-96342197D01*
X176041250Y-96172165D01*
X175951859Y-96017335D01*
X175878449Y-95935805D01*
X175832235Y-95884478D01*
X175832232Y-95884476D01*
X175832231Y-95884475D01*
X175832230Y-95884474D01*
X175687593Y-95779388D01*
X175524267Y-95706671D01*
X175524265Y-95706670D01*
X175396594Y-95679533D01*
X175349391Y-95669500D01*
X175170609Y-95669500D01*
X175139954Y-95676015D01*
X174995733Y-95706670D01*
X174995728Y-95706672D01*
X174832408Y-95779387D01*
X174687768Y-95884475D01*
X174568140Y-96017336D01*
X174478750Y-96172164D01*
X174478747Y-96172170D01*
X174423504Y-96342192D01*
X174423503Y-96342194D01*
X174404815Y-96520000D01*
X173099554Y-96520000D01*
X173147593Y-96498612D01*
X173292230Y-96393526D01*
X173411859Y-96260665D01*
X173501250Y-96105835D01*
X173556497Y-95935803D01*
X173575185Y-95758000D01*
X173556497Y-95580197D01*
X173501250Y-95410165D01*
X173411859Y-95255335D01*
X173365003Y-95203296D01*
X173292235Y-95122478D01*
X173292232Y-95122476D01*
X173292231Y-95122475D01*
X173292230Y-95122474D01*
X173147593Y-95017388D01*
X172984267Y-94944671D01*
X172984265Y-94944670D01*
X172856594Y-94917533D01*
X172809391Y-94907500D01*
X172630609Y-94907500D01*
X172599954Y-94914015D01*
X172455733Y-94944670D01*
X172455728Y-94944672D01*
X172292408Y-95017387D01*
X172147768Y-95122475D01*
X172028140Y-95255336D01*
X171938750Y-95410164D01*
X171938747Y-95410170D01*
X171883504Y-95580192D01*
X171883503Y-95580194D01*
X171864815Y-95758000D01*
X168058354Y-95758000D01*
X167943067Y-95706671D01*
X167943065Y-95706670D01*
X167943064Y-95706670D01*
X167850679Y-95687033D01*
X167789197Y-95653841D01*
X167755421Y-95592677D01*
X167753669Y-95581951D01*
X167753297Y-95580202D01*
X167753297Y-95580197D01*
X167698050Y-95410165D01*
X167608659Y-95255335D01*
X167561803Y-95203296D01*
X167489035Y-95122478D01*
X167489032Y-95122476D01*
X167489031Y-95122475D01*
X167489030Y-95122474D01*
X167344393Y-95017388D01*
X167181067Y-94944671D01*
X167181065Y-94944670D01*
X167053394Y-94917533D01*
X167006191Y-94907500D01*
X166827409Y-94907500D01*
X166796754Y-94914015D01*
X166652533Y-94944670D01*
X166548144Y-94991148D01*
X166478894Y-95000432D01*
X166438924Y-94981717D01*
X166438530Y-95023196D01*
X166400198Y-95081612D01*
X166392778Y-95087448D01*
X166344569Y-95122474D01*
X166224940Y-95255336D01*
X166135550Y-95410164D01*
X166135547Y-95410170D01*
X166080304Y-95580192D01*
X166080303Y-95580194D01*
X166061615Y-95758000D01*
X130035481Y-95758000D01*
X130023961Y-95626331D01*
X130023961Y-95626326D01*
X129967147Y-95414297D01*
X129874379Y-95215354D01*
X129874377Y-95215351D01*
X129874376Y-95215349D01*
X129748477Y-95035547D01*
X129748472Y-95035541D01*
X129593258Y-94880327D01*
X129593252Y-94880322D01*
X129413450Y-94754423D01*
X129413442Y-94754419D01*
X129214508Y-94661655D01*
X129214506Y-94661654D01*
X129214503Y-94661653D01*
X129020485Y-94609665D01*
X129002475Y-94604839D01*
X129002468Y-94604838D01*
X128783802Y-94585708D01*
X128783798Y-94585708D01*
X128565131Y-94604838D01*
X128565124Y-94604839D01*
X128442702Y-94637642D01*
X128353097Y-94661653D01*
X128353095Y-94661653D01*
X128353091Y-94661655D01*
X128154157Y-94754419D01*
X128154149Y-94754423D01*
X127974347Y-94880322D01*
X127974341Y-94880327D01*
X127819127Y-95035541D01*
X127819122Y-95035547D01*
X127693223Y-95215349D01*
X127693219Y-95215357D01*
X127600455Y-95414291D01*
X127543639Y-95626324D01*
X127543638Y-95626331D01*
X127524508Y-95844997D01*
X127524508Y-95845002D01*
X120043092Y-95845002D01*
X120043092Y-95844997D01*
X120023961Y-95626331D01*
X120023961Y-95626326D01*
X119967147Y-95414297D01*
X119874379Y-95215354D01*
X119874377Y-95215351D01*
X119874376Y-95215349D01*
X119748477Y-95035547D01*
X119748472Y-95035541D01*
X119593258Y-94880327D01*
X119593252Y-94880322D01*
X119413450Y-94754423D01*
X119413442Y-94754419D01*
X119214508Y-94661655D01*
X119214506Y-94661654D01*
X119214503Y-94661653D01*
X119020485Y-94609665D01*
X119002475Y-94604839D01*
X119002468Y-94604838D01*
X118783802Y-94585708D01*
X118783798Y-94585708D01*
X118565131Y-94604838D01*
X118565124Y-94604839D01*
X118442702Y-94637642D01*
X118353097Y-94661653D01*
X118353095Y-94661653D01*
X118353091Y-94661655D01*
X118154157Y-94754419D01*
X118154149Y-94754423D01*
X117974347Y-94880322D01*
X117974341Y-94880327D01*
X117819127Y-95035541D01*
X117819122Y-95035547D01*
X117693223Y-95215349D01*
X117693219Y-95215357D01*
X117600455Y-95414291D01*
X117543639Y-95626324D01*
X117543638Y-95626331D01*
X117524508Y-95844997D01*
X117524508Y-95845002D01*
X107688500Y-95845002D01*
X107688500Y-93940000D01*
X134184615Y-93940000D01*
X134203303Y-94117805D01*
X134203304Y-94117807D01*
X134258547Y-94287829D01*
X134258550Y-94287835D01*
X134347941Y-94442665D01*
X134389612Y-94488946D01*
X134467564Y-94575521D01*
X134467567Y-94575523D01*
X134467570Y-94575526D01*
X134612207Y-94680612D01*
X134775533Y-94753329D01*
X134950409Y-94790500D01*
X134950410Y-94790500D01*
X135129189Y-94790500D01*
X135129191Y-94790500D01*
X135304067Y-94753329D01*
X135467393Y-94680612D01*
X135612030Y-94575526D01*
X135731659Y-94442665D01*
X135821050Y-94287835D01*
X135876297Y-94117803D01*
X135894985Y-93940000D01*
X139899615Y-93940000D01*
X139918303Y-94117805D01*
X139918304Y-94117807D01*
X139973547Y-94287829D01*
X139973550Y-94287835D01*
X140062941Y-94442665D01*
X140104612Y-94488946D01*
X140182564Y-94575521D01*
X140182567Y-94575523D01*
X140182570Y-94575526D01*
X140327207Y-94680612D01*
X140490533Y-94753329D01*
X140665409Y-94790500D01*
X140665410Y-94790500D01*
X140844189Y-94790500D01*
X140844191Y-94790500D01*
X141019067Y-94753329D01*
X141182393Y-94680612D01*
X141327030Y-94575526D01*
X141446659Y-94442665D01*
X141536050Y-94287835D01*
X141591297Y-94117803D01*
X141609985Y-93940000D01*
X141591297Y-93762197D01*
X141554949Y-93650329D01*
X141536052Y-93592170D01*
X141536049Y-93592164D01*
X141446659Y-93437335D01*
X141399803Y-93385296D01*
X141327035Y-93304478D01*
X141327032Y-93304476D01*
X141327031Y-93304475D01*
X141327030Y-93304474D01*
X141182393Y-93199388D01*
X141019067Y-93126671D01*
X141019065Y-93126670D01*
X140891394Y-93099533D01*
X140844191Y-93089500D01*
X140665409Y-93089500D01*
X140634754Y-93096015D01*
X140490533Y-93126670D01*
X140490528Y-93126672D01*
X140327208Y-93199387D01*
X140182568Y-93304475D01*
X140062940Y-93437336D01*
X139973550Y-93592164D01*
X139973547Y-93592170D01*
X139918304Y-93762192D01*
X139918303Y-93762194D01*
X139899615Y-93940000D01*
X135894985Y-93940000D01*
X135876297Y-93762197D01*
X135839949Y-93650329D01*
X135821052Y-93592170D01*
X135821049Y-93592164D01*
X135731659Y-93437335D01*
X135684803Y-93385296D01*
X135612035Y-93304478D01*
X135612032Y-93304476D01*
X135612031Y-93304475D01*
X135612030Y-93304474D01*
X135467393Y-93199388D01*
X135304067Y-93126671D01*
X135304065Y-93126670D01*
X135176394Y-93099533D01*
X135129191Y-93089500D01*
X134950409Y-93089500D01*
X134919754Y-93096015D01*
X134775533Y-93126670D01*
X134775528Y-93126672D01*
X134612208Y-93199387D01*
X134467568Y-93304475D01*
X134347940Y-93437336D01*
X134258550Y-93592164D01*
X134258547Y-93592170D01*
X134203304Y-93762192D01*
X134203303Y-93762194D01*
X134184615Y-93940000D01*
X107688500Y-93940000D01*
X107688500Y-92837000D01*
X142805615Y-92837000D01*
X142824303Y-93014805D01*
X142824304Y-93014807D01*
X142879547Y-93184829D01*
X142879550Y-93184835D01*
X142968941Y-93339665D01*
X143010612Y-93385946D01*
X143088564Y-93472521D01*
X143088567Y-93472523D01*
X143088570Y-93472526D01*
X143233207Y-93577612D01*
X143396533Y-93650329D01*
X143419329Y-93655174D01*
X143480809Y-93688366D01*
X143514586Y-93749529D01*
X143511478Y-93814781D01*
X143474305Y-93929189D01*
X143474303Y-93929194D01*
X143455615Y-94107000D01*
X143474303Y-94284805D01*
X143474304Y-94284807D01*
X143529547Y-94454829D01*
X143529550Y-94454835D01*
X143618941Y-94609665D01*
X143660612Y-94655946D01*
X143738564Y-94742521D01*
X143738567Y-94742523D01*
X143738570Y-94742526D01*
X143883207Y-94847612D01*
X144046533Y-94920329D01*
X144221409Y-94957500D01*
X144221410Y-94957500D01*
X144400189Y-94957500D01*
X144400191Y-94957500D01*
X144575067Y-94920329D01*
X144738393Y-94847612D01*
X144883030Y-94742526D01*
X145002659Y-94609665D01*
X145092050Y-94454835D01*
X145147297Y-94284803D01*
X145165985Y-94107000D01*
X165045615Y-94107000D01*
X165064303Y-94284805D01*
X165064304Y-94284807D01*
X165119547Y-94454829D01*
X165119550Y-94454835D01*
X165208941Y-94609665D01*
X165250612Y-94655946D01*
X165328564Y-94742521D01*
X165328567Y-94742523D01*
X165328570Y-94742526D01*
X165473207Y-94847612D01*
X165636533Y-94920329D01*
X165811409Y-94957500D01*
X165811410Y-94957500D01*
X165990189Y-94957500D01*
X165990191Y-94957500D01*
X166165067Y-94920329D01*
X166269457Y-94873851D01*
X166338705Y-94864567D01*
X166378675Y-94883282D01*
X166379070Y-94841802D01*
X166417402Y-94783386D01*
X166424809Y-94777560D01*
X166473030Y-94742526D01*
X166592659Y-94609665D01*
X166682050Y-94454835D01*
X166737297Y-94284803D01*
X166755985Y-94107000D01*
X166737297Y-93929197D01*
X166685192Y-93768834D01*
X166682052Y-93759170D01*
X166682049Y-93759164D01*
X166592659Y-93604335D01*
X166548212Y-93554972D01*
X166517982Y-93491981D01*
X166526607Y-93422646D01*
X166548212Y-93389028D01*
X166548924Y-93388236D01*
X166592659Y-93339665D01*
X166682050Y-93184835D01*
X166712539Y-93091000D01*
X171364341Y-93091000D01*
X171384936Y-93326403D01*
X171384938Y-93326413D01*
X171446094Y-93554655D01*
X171446096Y-93554659D01*
X171446097Y-93554663D01*
X171490707Y-93650329D01*
X171545965Y-93768830D01*
X171545967Y-93768834D01*
X171654281Y-93923521D01*
X171681505Y-93962401D01*
X171848599Y-94129495D01*
X171945384Y-94197265D01*
X172042165Y-94265032D01*
X172042167Y-94265033D01*
X172042170Y-94265035D01*
X172256337Y-94364903D01*
X172484592Y-94426063D01*
X172672918Y-94442539D01*
X172719999Y-94446659D01*
X172720000Y-94446659D01*
X172720001Y-94446659D01*
X172759234Y-94443226D01*
X172955408Y-94426063D01*
X173183663Y-94364903D01*
X173397830Y-94265035D01*
X173591401Y-94129495D01*
X173758495Y-93962401D01*
X173894035Y-93768830D01*
X173993903Y-93554663D01*
X174055063Y-93326408D01*
X174075659Y-93091000D01*
X174055063Y-92855592D01*
X173993903Y-92627337D01*
X173894035Y-92413171D01*
X173838835Y-92334336D01*
X173758494Y-92219597D01*
X173591402Y-92052506D01*
X173591395Y-92052501D01*
X173397834Y-91916967D01*
X173397830Y-91916965D01*
X173397828Y-91916964D01*
X173183663Y-91817097D01*
X173183659Y-91817096D01*
X173183655Y-91817094D01*
X172955413Y-91755938D01*
X172955403Y-91755936D01*
X172720001Y-91735341D01*
X172719999Y-91735341D01*
X172484596Y-91755936D01*
X172484586Y-91755938D01*
X172256344Y-91817094D01*
X172256335Y-91817098D01*
X172042171Y-91916964D01*
X172042169Y-91916965D01*
X171848597Y-92052505D01*
X171681505Y-92219597D01*
X171545965Y-92413169D01*
X171545964Y-92413171D01*
X171446098Y-92627335D01*
X171446094Y-92627344D01*
X171384938Y-92855586D01*
X171384936Y-92855596D01*
X171364341Y-93090999D01*
X171364341Y-93091000D01*
X166712539Y-93091000D01*
X166737297Y-93014803D01*
X166755985Y-92837000D01*
X166737297Y-92659197D01*
X166682050Y-92489165D01*
X166592659Y-92334335D01*
X166545803Y-92282296D01*
X166473035Y-92201478D01*
X166473032Y-92201476D01*
X166473031Y-92201475D01*
X166473030Y-92201474D01*
X166328393Y-92096388D01*
X166165067Y-92023671D01*
X166165065Y-92023670D01*
X166037394Y-91996533D01*
X165990191Y-91986500D01*
X165811409Y-91986500D01*
X165780754Y-91993015D01*
X165636533Y-92023670D01*
X165636528Y-92023672D01*
X165473208Y-92096387D01*
X165328568Y-92201475D01*
X165208940Y-92334336D01*
X165119550Y-92489164D01*
X165119547Y-92489170D01*
X165064304Y-92659192D01*
X165064303Y-92659194D01*
X165045615Y-92837000D01*
X165064303Y-93014805D01*
X165064304Y-93014807D01*
X165119547Y-93184829D01*
X165119550Y-93184835D01*
X165208938Y-93339661D01*
X165208939Y-93339663D01*
X165208941Y-93339665D01*
X165253388Y-93389028D01*
X165283617Y-93452020D01*
X165274991Y-93521355D01*
X165253388Y-93554972D01*
X165208938Y-93604338D01*
X165119550Y-93759164D01*
X165119547Y-93759170D01*
X165064304Y-93929192D01*
X165064303Y-93929194D01*
X165045615Y-94107000D01*
X145165985Y-94107000D01*
X145147297Y-93929197D01*
X145110120Y-93814781D01*
X145108126Y-93744941D01*
X145144206Y-93685108D01*
X145202269Y-93655174D01*
X145225067Y-93650329D01*
X145388393Y-93577612D01*
X145533030Y-93472526D01*
X145652659Y-93339665D01*
X145742050Y-93184835D01*
X145797297Y-93014803D01*
X145815985Y-92837000D01*
X145797297Y-92659197D01*
X145742050Y-92489165D01*
X145652659Y-92334335D01*
X145605803Y-92282296D01*
X145533035Y-92201478D01*
X145533032Y-92201476D01*
X145533031Y-92201475D01*
X145533030Y-92201474D01*
X145388393Y-92096388D01*
X145225067Y-92023671D01*
X145225065Y-92023670D01*
X145097394Y-91996533D01*
X145050191Y-91986500D01*
X144871409Y-91986500D01*
X144840754Y-91993015D01*
X144696533Y-92023670D01*
X144696528Y-92023672D01*
X144533208Y-92096388D01*
X144533203Y-92096390D01*
X144383685Y-92205022D01*
X144317879Y-92228502D01*
X144249825Y-92212676D01*
X144237914Y-92205022D01*
X144143405Y-92136357D01*
X144088393Y-92096388D01*
X143925067Y-92023671D01*
X143925065Y-92023670D01*
X143797394Y-91996533D01*
X143750191Y-91986500D01*
X143571409Y-91986500D01*
X143540754Y-91993015D01*
X143396533Y-92023670D01*
X143396528Y-92023672D01*
X143233208Y-92096387D01*
X143088568Y-92201475D01*
X142968940Y-92334336D01*
X142879550Y-92489164D01*
X142879547Y-92489170D01*
X142824304Y-92659192D01*
X142824303Y-92659194D01*
X142805615Y-92837000D01*
X107688500Y-92837000D01*
X107688500Y-90130000D01*
X133168615Y-90130000D01*
X133187303Y-90307805D01*
X133187304Y-90307807D01*
X133242547Y-90477829D01*
X133242550Y-90477835D01*
X133331941Y-90632665D01*
X133373612Y-90678946D01*
X133451564Y-90765521D01*
X133451567Y-90765523D01*
X133451570Y-90765526D01*
X133596207Y-90870612D01*
X133759533Y-90943329D01*
X133934409Y-90980500D01*
X133934410Y-90980500D01*
X134113189Y-90980500D01*
X134113191Y-90980500D01*
X134288067Y-90943329D01*
X134451393Y-90870612D01*
X134596030Y-90765526D01*
X134596504Y-90765000D01*
X176690815Y-90765000D01*
X176709503Y-90942805D01*
X176709504Y-90942807D01*
X176764747Y-91112829D01*
X176764750Y-91112835D01*
X176854141Y-91267665D01*
X176895812Y-91313946D01*
X176973764Y-91400521D01*
X176973767Y-91400523D01*
X176973770Y-91400526D01*
X177118407Y-91505612D01*
X177281733Y-91578329D01*
X177456609Y-91615500D01*
X177456610Y-91615500D01*
X177635389Y-91615500D01*
X177635391Y-91615500D01*
X177810267Y-91578329D01*
X177973593Y-91505612D01*
X178118230Y-91400526D01*
X178237859Y-91267665D01*
X178327250Y-91112835D01*
X178382497Y-90942803D01*
X178401185Y-90765000D01*
X181516815Y-90765000D01*
X181535503Y-90942805D01*
X181535504Y-90942807D01*
X181590747Y-91112829D01*
X181590750Y-91112835D01*
X181680141Y-91267665D01*
X181721812Y-91313946D01*
X181799764Y-91400521D01*
X181799767Y-91400523D01*
X181799770Y-91400526D01*
X181944407Y-91505612D01*
X182107733Y-91578329D01*
X182282609Y-91615500D01*
X182282610Y-91615500D01*
X182461389Y-91615500D01*
X182461391Y-91615500D01*
X182636267Y-91578329D01*
X182799593Y-91505612D01*
X182944230Y-91400526D01*
X183063859Y-91267665D01*
X183153250Y-91112835D01*
X183208497Y-90942803D01*
X183227185Y-90765000D01*
X183208497Y-90587197D01*
X183153250Y-90417165D01*
X183063859Y-90262335D01*
X183017003Y-90210296D01*
X182944235Y-90129478D01*
X182944232Y-90129476D01*
X182944231Y-90129475D01*
X182944230Y-90129474D01*
X182799593Y-90024388D01*
X182636267Y-89951671D01*
X182636265Y-89951670D01*
X182508594Y-89924533D01*
X182461391Y-89914500D01*
X182282609Y-89914500D01*
X182251954Y-89921015D01*
X182107733Y-89951670D01*
X182107728Y-89951672D01*
X181944408Y-90024387D01*
X181799768Y-90129475D01*
X181680140Y-90262336D01*
X181590750Y-90417164D01*
X181590747Y-90417170D01*
X181535504Y-90587192D01*
X181535503Y-90587194D01*
X181516815Y-90765000D01*
X178401185Y-90765000D01*
X178382497Y-90587197D01*
X178327250Y-90417165D01*
X178237859Y-90262335D01*
X178191003Y-90210296D01*
X178118235Y-90129478D01*
X178118232Y-90129476D01*
X178118231Y-90129475D01*
X178118230Y-90129474D01*
X177973593Y-90024388D01*
X177810267Y-89951671D01*
X177810265Y-89951670D01*
X177682594Y-89924533D01*
X177635391Y-89914500D01*
X177456609Y-89914500D01*
X177425954Y-89921015D01*
X177281733Y-89951670D01*
X177281728Y-89951672D01*
X177118408Y-90024387D01*
X176973768Y-90129475D01*
X176854140Y-90262336D01*
X176764750Y-90417164D01*
X176764747Y-90417170D01*
X176709504Y-90587192D01*
X176709503Y-90587194D01*
X176690815Y-90765000D01*
X134596504Y-90765000D01*
X134715659Y-90632665D01*
X134805050Y-90477835D01*
X134860297Y-90307803D01*
X134878985Y-90130000D01*
X134860297Y-89952197D01*
X134805050Y-89782165D01*
X134715659Y-89627335D01*
X134671212Y-89577972D01*
X134640982Y-89514981D01*
X134649607Y-89445646D01*
X134671212Y-89412028D01*
X134671924Y-89411236D01*
X134715659Y-89362665D01*
X134805050Y-89207835D01*
X134860297Y-89037803D01*
X134878985Y-88860000D01*
X138248615Y-88860000D01*
X138267303Y-89037805D01*
X138267304Y-89037807D01*
X138322547Y-89207829D01*
X138322550Y-89207835D01*
X138411941Y-89362665D01*
X138453612Y-89408946D01*
X138531564Y-89495521D01*
X138531567Y-89495523D01*
X138531570Y-89495526D01*
X138676207Y-89600612D01*
X138839533Y-89673329D01*
X139014409Y-89710500D01*
X139014410Y-89710500D01*
X139193189Y-89710500D01*
X139193191Y-89710500D01*
X139368067Y-89673329D01*
X139531393Y-89600612D01*
X139676030Y-89495526D01*
X139795659Y-89362665D01*
X139885050Y-89207835D01*
X139940297Y-89037803D01*
X139958985Y-88860000D01*
X139940297Y-88682197D01*
X139912673Y-88597181D01*
X139885052Y-88512170D01*
X139885049Y-88512164D01*
X139795659Y-88357335D01*
X139790855Y-88352000D01*
X175091615Y-88352000D01*
X175110303Y-88529805D01*
X175110304Y-88529807D01*
X175165547Y-88699829D01*
X175165550Y-88699835D01*
X175254941Y-88854665D01*
X175259745Y-88860000D01*
X175374564Y-88987521D01*
X175374567Y-88987523D01*
X175374570Y-88987526D01*
X175519207Y-89092612D01*
X175682533Y-89165329D01*
X175857409Y-89202500D01*
X175857410Y-89202500D01*
X176036189Y-89202500D01*
X176036191Y-89202500D01*
X176211067Y-89165329D01*
X176374393Y-89092612D01*
X176519030Y-88987526D01*
X176638659Y-88854665D01*
X176728050Y-88699835D01*
X176783297Y-88529803D01*
X176801985Y-88352000D01*
X176783297Y-88174197D01*
X176755673Y-88089181D01*
X176728052Y-88004170D01*
X176728049Y-88004164D01*
X176638659Y-87849335D01*
X176591803Y-87797296D01*
X176519035Y-87716478D01*
X176519032Y-87716476D01*
X176519031Y-87716475D01*
X176519030Y-87716474D01*
X176374393Y-87611388D01*
X176211067Y-87538671D01*
X176211065Y-87538670D01*
X176083394Y-87511533D01*
X176036191Y-87501500D01*
X175857409Y-87501500D01*
X175826754Y-87508015D01*
X175682533Y-87538670D01*
X175682528Y-87538672D01*
X175519208Y-87611387D01*
X175374568Y-87716475D01*
X175254940Y-87849336D01*
X175165550Y-88004164D01*
X175165547Y-88004170D01*
X175110304Y-88174192D01*
X175110303Y-88174194D01*
X175091615Y-88352000D01*
X139790855Y-88352000D01*
X139748803Y-88305296D01*
X139676035Y-88224478D01*
X139676032Y-88224476D01*
X139676031Y-88224475D01*
X139676030Y-88224474D01*
X139531393Y-88119388D01*
X139368067Y-88046671D01*
X139368065Y-88046670D01*
X139240394Y-88019533D01*
X139193191Y-88009500D01*
X139014409Y-88009500D01*
X138983754Y-88016015D01*
X138839533Y-88046670D01*
X138839528Y-88046672D01*
X138676208Y-88119387D01*
X138531568Y-88224475D01*
X138411940Y-88357336D01*
X138322550Y-88512164D01*
X138322547Y-88512170D01*
X138267304Y-88682192D01*
X138267303Y-88682194D01*
X138248615Y-88860000D01*
X134878985Y-88860000D01*
X134860297Y-88682197D01*
X134832673Y-88597181D01*
X134805052Y-88512170D01*
X134805049Y-88512164D01*
X134715659Y-88357335D01*
X134668803Y-88305296D01*
X134596035Y-88224478D01*
X134596032Y-88224476D01*
X134596031Y-88224475D01*
X134596030Y-88224474D01*
X134451393Y-88119388D01*
X134288067Y-88046671D01*
X134288065Y-88046670D01*
X134160394Y-88019533D01*
X134113191Y-88009500D01*
X133934409Y-88009500D01*
X133903754Y-88016015D01*
X133759533Y-88046670D01*
X133759528Y-88046672D01*
X133596208Y-88119387D01*
X133451568Y-88224475D01*
X133331940Y-88357336D01*
X133242550Y-88512164D01*
X133242547Y-88512170D01*
X133187304Y-88682192D01*
X133187303Y-88682194D01*
X133168615Y-88860000D01*
X133187303Y-89037805D01*
X133187304Y-89037807D01*
X133242547Y-89207829D01*
X133242550Y-89207835D01*
X133331938Y-89362661D01*
X133331939Y-89362663D01*
X133331941Y-89362665D01*
X133376388Y-89412028D01*
X133406617Y-89475020D01*
X133397991Y-89544355D01*
X133376388Y-89577972D01*
X133331938Y-89627338D01*
X133242550Y-89782164D01*
X133242547Y-89782170D01*
X133187304Y-89952192D01*
X133187303Y-89952194D01*
X133168615Y-90130000D01*
X107688500Y-90130000D01*
X107688500Y-84796000D01*
X175091615Y-84796000D01*
X175110303Y-84973805D01*
X175110304Y-84973807D01*
X175165547Y-85143829D01*
X175165550Y-85143835D01*
X175254941Y-85298665D01*
X175296612Y-85344946D01*
X175374564Y-85431521D01*
X175374567Y-85431523D01*
X175374570Y-85431526D01*
X175519207Y-85536612D01*
X175682533Y-85609329D01*
X175857409Y-85646500D01*
X175857410Y-85646500D01*
X176036189Y-85646500D01*
X176036191Y-85646500D01*
X176211067Y-85609329D01*
X176374393Y-85536612D01*
X176519030Y-85431526D01*
X176638659Y-85298665D01*
X176728050Y-85143835D01*
X176783297Y-84973803D01*
X176801985Y-84796000D01*
X176783297Y-84618197D01*
X176728050Y-84448165D01*
X176638659Y-84293335D01*
X176586652Y-84235576D01*
X176519035Y-84160478D01*
X176519032Y-84160476D01*
X176519031Y-84160475D01*
X176519030Y-84160474D01*
X176374393Y-84055388D01*
X176211067Y-83982671D01*
X176211065Y-83982670D01*
X176078307Y-83954452D01*
X176036191Y-83945500D01*
X175857409Y-83945500D01*
X175826754Y-83952015D01*
X175682533Y-83982670D01*
X175682528Y-83982672D01*
X175519208Y-84055387D01*
X175374568Y-84160475D01*
X175254940Y-84293336D01*
X175165550Y-84448164D01*
X175165547Y-84448170D01*
X175110304Y-84618192D01*
X175110303Y-84618194D01*
X175091615Y-84796000D01*
X107688500Y-84796000D01*
X107688500Y-83145000D01*
X117524508Y-83145000D01*
X117543639Y-83363674D01*
X117600453Y-83575703D01*
X117600454Y-83575706D01*
X117600455Y-83575708D01*
X117693219Y-83774642D01*
X117693223Y-83774650D01*
X117819122Y-83954452D01*
X117819127Y-83954458D01*
X117974341Y-84109672D01*
X117974347Y-84109677D01*
X118154149Y-84235576D01*
X118154151Y-84235577D01*
X118154154Y-84235579D01*
X118353097Y-84328347D01*
X118565126Y-84385161D01*
X118721321Y-84398826D01*
X118783798Y-84404292D01*
X118783800Y-84404292D01*
X118783802Y-84404292D01*
X118838468Y-84399509D01*
X119002474Y-84385161D01*
X119214503Y-84328347D01*
X119413446Y-84235579D01*
X119593257Y-84109674D01*
X119748474Y-83954457D01*
X119874379Y-83774646D01*
X119967147Y-83575703D01*
X120023961Y-83363674D01*
X120043092Y-83145000D01*
X127524508Y-83145000D01*
X127543639Y-83363674D01*
X127600453Y-83575703D01*
X127600454Y-83575706D01*
X127600455Y-83575708D01*
X127693219Y-83774642D01*
X127693223Y-83774650D01*
X127819122Y-83954452D01*
X127819127Y-83954458D01*
X127974341Y-84109672D01*
X127974347Y-84109677D01*
X128154149Y-84235576D01*
X128154151Y-84235577D01*
X128154154Y-84235579D01*
X128353097Y-84328347D01*
X128565126Y-84385161D01*
X128721321Y-84398826D01*
X128783798Y-84404292D01*
X128783800Y-84404292D01*
X128783802Y-84404292D01*
X128838468Y-84399509D01*
X129002474Y-84385161D01*
X129214503Y-84328347D01*
X129413446Y-84235579D01*
X129593257Y-84109674D01*
X129748474Y-83954457D01*
X129874379Y-83774646D01*
X129967147Y-83575703D01*
X130023961Y-83363674D01*
X130043092Y-83145000D01*
X130023961Y-82926326D01*
X129967147Y-82714297D01*
X129874379Y-82515354D01*
X129874377Y-82515351D01*
X129874376Y-82515349D01*
X129748477Y-82335547D01*
X129748472Y-82335541D01*
X129593258Y-82180327D01*
X129593252Y-82180322D01*
X129413450Y-82054423D01*
X129413442Y-82054419D01*
X129214508Y-81961655D01*
X129214506Y-81961654D01*
X129214503Y-81961653D01*
X129063685Y-81921240D01*
X129002475Y-81904839D01*
X129002468Y-81904838D01*
X128783802Y-81885708D01*
X128783798Y-81885708D01*
X128565131Y-81904838D01*
X128565124Y-81904839D01*
X128442702Y-81937642D01*
X128353097Y-81961653D01*
X128353095Y-81961653D01*
X128353091Y-81961655D01*
X128154157Y-82054419D01*
X128154149Y-82054423D01*
X127974347Y-82180322D01*
X127974341Y-82180327D01*
X127819127Y-82335541D01*
X127819122Y-82335547D01*
X127693223Y-82515349D01*
X127693219Y-82515357D01*
X127600455Y-82714291D01*
X127543639Y-82926324D01*
X127543638Y-82926331D01*
X127524508Y-83144997D01*
X127524508Y-83145000D01*
X120043092Y-83145000D01*
X120023961Y-82926326D01*
X119967147Y-82714297D01*
X119874379Y-82515354D01*
X119874377Y-82515351D01*
X119874376Y-82515349D01*
X119748477Y-82335547D01*
X119748472Y-82335541D01*
X119593258Y-82180327D01*
X119593252Y-82180322D01*
X119413450Y-82054423D01*
X119413442Y-82054419D01*
X119214508Y-81961655D01*
X119214506Y-81961654D01*
X119214503Y-81961653D01*
X119063685Y-81921240D01*
X119002475Y-81904839D01*
X119002468Y-81904838D01*
X118783802Y-81885708D01*
X118783798Y-81885708D01*
X118565131Y-81904838D01*
X118565124Y-81904839D01*
X118442702Y-81937642D01*
X118353097Y-81961653D01*
X118353095Y-81961653D01*
X118353091Y-81961655D01*
X118154157Y-82054419D01*
X118154149Y-82054423D01*
X117974347Y-82180322D01*
X117974341Y-82180327D01*
X117819127Y-82335541D01*
X117819122Y-82335547D01*
X117693223Y-82515349D01*
X117693219Y-82515357D01*
X117600455Y-82714291D01*
X117543639Y-82926324D01*
X117543638Y-82926331D01*
X117524508Y-83144997D01*
X117524508Y-83145000D01*
X107688500Y-83145000D01*
X107688500Y-81240000D01*
X175091615Y-81240000D01*
X175110303Y-81417805D01*
X175110304Y-81417807D01*
X175165547Y-81587829D01*
X175165550Y-81587835D01*
X175254941Y-81742665D01*
X175296612Y-81788946D01*
X175374564Y-81875521D01*
X175374567Y-81875523D01*
X175374570Y-81875526D01*
X175519207Y-81980612D01*
X175682533Y-82053329D01*
X175857409Y-82090500D01*
X175857410Y-82090500D01*
X176036189Y-82090500D01*
X176036191Y-82090500D01*
X176211067Y-82053329D01*
X176374393Y-81980612D01*
X176519030Y-81875526D01*
X176638659Y-81742665D01*
X176728050Y-81587835D01*
X176783297Y-81417803D01*
X176801985Y-81240000D01*
X176783297Y-81062197D01*
X176728050Y-80892165D01*
X176638659Y-80737335D01*
X176591803Y-80685296D01*
X176519035Y-80604478D01*
X176519032Y-80604476D01*
X176519031Y-80604475D01*
X176519030Y-80604474D01*
X176374393Y-80499388D01*
X176211067Y-80426671D01*
X176211065Y-80426670D01*
X176083394Y-80399533D01*
X176036191Y-80389500D01*
X175857409Y-80389500D01*
X175826754Y-80396015D01*
X175682533Y-80426670D01*
X175682528Y-80426672D01*
X175519208Y-80499387D01*
X175374568Y-80604475D01*
X175254940Y-80737336D01*
X175165550Y-80892164D01*
X175165547Y-80892170D01*
X175110304Y-81062192D01*
X175110303Y-81062194D01*
X175091615Y-81240000D01*
X107688500Y-81240000D01*
X107688500Y-77938002D01*
X117524508Y-77938002D01*
X117532716Y-78031829D01*
X117543639Y-78156674D01*
X117600453Y-78368703D01*
X117600454Y-78368706D01*
X117600455Y-78368708D01*
X117693219Y-78567642D01*
X117693223Y-78567650D01*
X117819122Y-78747452D01*
X117819127Y-78747458D01*
X117974341Y-78902672D01*
X117974347Y-78902677D01*
X118154149Y-79028576D01*
X118154151Y-79028577D01*
X118154154Y-79028579D01*
X118353097Y-79121347D01*
X118565126Y-79178161D01*
X118721321Y-79191826D01*
X118783798Y-79197292D01*
X118783800Y-79197292D01*
X118783802Y-79197292D01*
X118838468Y-79192509D01*
X119002474Y-79178161D01*
X119214503Y-79121347D01*
X119413446Y-79028579D01*
X119593257Y-78902674D01*
X119748474Y-78747457D01*
X119874379Y-78567646D01*
X119967147Y-78368703D01*
X120023961Y-78156674D01*
X120043092Y-77938002D01*
X127524508Y-77938002D01*
X127532716Y-78031829D01*
X127543639Y-78156674D01*
X127600453Y-78368703D01*
X127600454Y-78368706D01*
X127600455Y-78368708D01*
X127693219Y-78567642D01*
X127693223Y-78567650D01*
X127819122Y-78747452D01*
X127819127Y-78747458D01*
X127974341Y-78902672D01*
X127974347Y-78902677D01*
X128154149Y-79028576D01*
X128154151Y-79028577D01*
X128154154Y-79028579D01*
X128353097Y-79121347D01*
X128565126Y-79178161D01*
X128721321Y-79191826D01*
X128783798Y-79197292D01*
X128783800Y-79197292D01*
X128783802Y-79197292D01*
X128838468Y-79192509D01*
X129002474Y-79178161D01*
X129214503Y-79121347D01*
X129413446Y-79028579D01*
X129593257Y-78902674D01*
X129748474Y-78747457D01*
X129874379Y-78567646D01*
X129967147Y-78368703D01*
X130023961Y-78156674D01*
X130043092Y-77938000D01*
X130023961Y-77719326D01*
X130014495Y-77684000D01*
X175091615Y-77684000D01*
X175110303Y-77861805D01*
X175110304Y-77861807D01*
X175165547Y-78031829D01*
X175165550Y-78031835D01*
X175254941Y-78186665D01*
X175296612Y-78232946D01*
X175374564Y-78319521D01*
X175374567Y-78319523D01*
X175374570Y-78319526D01*
X175519207Y-78424612D01*
X175682533Y-78497329D01*
X175857409Y-78534500D01*
X175857410Y-78534500D01*
X176036189Y-78534500D01*
X176036191Y-78534500D01*
X176211067Y-78497329D01*
X176374393Y-78424612D01*
X176519030Y-78319526D01*
X176638659Y-78186665D01*
X176728050Y-78031835D01*
X176783297Y-77861803D01*
X176801985Y-77684000D01*
X176783297Y-77506197D01*
X176728050Y-77336165D01*
X176638659Y-77181335D01*
X176591123Y-77128541D01*
X176519035Y-77048478D01*
X176519032Y-77048476D01*
X176519031Y-77048475D01*
X176519030Y-77048474D01*
X176374393Y-76943388D01*
X176211067Y-76870671D01*
X176211065Y-76870670D01*
X176083394Y-76843533D01*
X176036191Y-76833500D01*
X175857409Y-76833500D01*
X175826754Y-76840015D01*
X175682533Y-76870670D01*
X175682528Y-76870672D01*
X175519208Y-76943387D01*
X175374568Y-77048475D01*
X175254940Y-77181336D01*
X175165550Y-77336164D01*
X175165547Y-77336170D01*
X175110304Y-77506192D01*
X175110303Y-77506194D01*
X175091615Y-77684000D01*
X130014495Y-77684000D01*
X129967147Y-77507297D01*
X129874379Y-77308354D01*
X129874377Y-77308351D01*
X129874376Y-77308349D01*
X129748477Y-77128547D01*
X129748472Y-77128541D01*
X129593258Y-76973327D01*
X129593252Y-76973322D01*
X129413450Y-76847423D01*
X129413442Y-76847419D01*
X129214508Y-76754655D01*
X129214506Y-76754654D01*
X129214503Y-76754653D01*
X129063685Y-76714240D01*
X129002475Y-76697839D01*
X129002468Y-76697838D01*
X128783802Y-76678708D01*
X128783798Y-76678708D01*
X128565131Y-76697838D01*
X128565124Y-76697839D01*
X128442702Y-76730642D01*
X128353097Y-76754653D01*
X128353095Y-76754653D01*
X128353091Y-76754655D01*
X128154157Y-76847419D01*
X128154149Y-76847423D01*
X127974347Y-76973322D01*
X127974341Y-76973327D01*
X127819127Y-77128541D01*
X127819122Y-77128547D01*
X127693223Y-77308349D01*
X127693219Y-77308357D01*
X127600455Y-77507291D01*
X127543639Y-77719324D01*
X127543638Y-77719331D01*
X127524508Y-77937997D01*
X127524508Y-77938002D01*
X120043092Y-77938002D01*
X120043092Y-77938000D01*
X120023961Y-77719326D01*
X119967147Y-77507297D01*
X119874379Y-77308354D01*
X119874377Y-77308351D01*
X119874376Y-77308349D01*
X119748477Y-77128547D01*
X119748472Y-77128541D01*
X119593258Y-76973327D01*
X119593252Y-76973322D01*
X119413450Y-76847423D01*
X119413442Y-76847419D01*
X119214508Y-76754655D01*
X119214506Y-76754654D01*
X119214503Y-76754653D01*
X119063685Y-76714240D01*
X119002475Y-76697839D01*
X119002468Y-76697838D01*
X118783802Y-76678708D01*
X118783798Y-76678708D01*
X118565131Y-76697838D01*
X118565124Y-76697839D01*
X118442702Y-76730642D01*
X118353097Y-76754653D01*
X118353095Y-76754653D01*
X118353091Y-76754655D01*
X118154157Y-76847419D01*
X118154149Y-76847423D01*
X117974347Y-76973322D01*
X117974341Y-76973327D01*
X117819127Y-77128541D01*
X117819122Y-77128547D01*
X117693223Y-77308349D01*
X117693219Y-77308357D01*
X117600455Y-77507291D01*
X117543639Y-77719324D01*
X117543638Y-77719331D01*
X117524508Y-77937997D01*
X117524508Y-77938002D01*
X107688500Y-77938002D01*
X107688500Y-76160000D01*
X134184615Y-76160000D01*
X134203303Y-76337805D01*
X134203304Y-76337807D01*
X134258547Y-76507829D01*
X134258550Y-76507835D01*
X134347941Y-76662665D01*
X134379611Y-76697838D01*
X134467564Y-76795521D01*
X134467567Y-76795523D01*
X134467570Y-76795526D01*
X134612207Y-76900612D01*
X134775533Y-76973329D01*
X134950409Y-77010500D01*
X134950410Y-77010500D01*
X135129189Y-77010500D01*
X135129191Y-77010500D01*
X135304067Y-76973329D01*
X135467393Y-76900612D01*
X135612030Y-76795526D01*
X135731659Y-76662665D01*
X135821050Y-76507835D01*
X135876297Y-76337803D01*
X135894985Y-76160000D01*
X139899615Y-76160000D01*
X139918303Y-76337805D01*
X139918304Y-76337807D01*
X139973547Y-76507829D01*
X139973550Y-76507835D01*
X140062941Y-76662665D01*
X140094611Y-76697838D01*
X140182564Y-76795521D01*
X140182567Y-76795523D01*
X140182570Y-76795526D01*
X140327207Y-76900612D01*
X140490533Y-76973329D01*
X140665409Y-77010500D01*
X140665410Y-77010500D01*
X140844189Y-77010500D01*
X140844191Y-77010500D01*
X141019067Y-76973329D01*
X141182393Y-76900612D01*
X141327030Y-76795526D01*
X141446659Y-76662665D01*
X141536050Y-76507835D01*
X141591297Y-76337803D01*
X141609985Y-76160000D01*
X142155615Y-76160000D01*
X142174303Y-76337805D01*
X142174304Y-76337807D01*
X142229547Y-76507829D01*
X142229550Y-76507835D01*
X142318941Y-76662665D01*
X142350611Y-76697838D01*
X142438564Y-76795521D01*
X142438567Y-76795523D01*
X142438570Y-76795526D01*
X142583207Y-76900612D01*
X142746533Y-76973329D01*
X142921409Y-77010500D01*
X142921410Y-77010500D01*
X143100189Y-77010500D01*
X143100191Y-77010500D01*
X143275067Y-76973329D01*
X143438393Y-76900612D01*
X143583030Y-76795526D01*
X143702659Y-76662665D01*
X143792050Y-76507835D01*
X143847297Y-76337803D01*
X143865985Y-76160000D01*
X161895615Y-76160000D01*
X161914303Y-76337805D01*
X161914304Y-76337807D01*
X161969547Y-76507829D01*
X161969550Y-76507835D01*
X162058941Y-76662665D01*
X162090611Y-76697838D01*
X162178564Y-76795521D01*
X162178567Y-76795523D01*
X162178570Y-76795526D01*
X162323207Y-76900612D01*
X162486533Y-76973329D01*
X162661409Y-77010500D01*
X162661410Y-77010500D01*
X162840189Y-77010500D01*
X162840191Y-77010500D01*
X163015067Y-76973329D01*
X163178393Y-76900612D01*
X163323030Y-76795526D01*
X163442659Y-76662665D01*
X163532050Y-76507835D01*
X163587297Y-76337803D01*
X163605985Y-76160000D01*
X163587297Y-75982197D01*
X163532050Y-75812165D01*
X163442659Y-75657335D01*
X163395803Y-75605296D01*
X163323035Y-75524478D01*
X163323032Y-75524476D01*
X163323031Y-75524475D01*
X163323030Y-75524474D01*
X163178393Y-75419388D01*
X163015067Y-75346671D01*
X163015065Y-75346670D01*
X162887394Y-75319533D01*
X162840191Y-75309500D01*
X162661409Y-75309500D01*
X162630754Y-75316015D01*
X162486533Y-75346670D01*
X162486528Y-75346672D01*
X162323208Y-75419387D01*
X162178568Y-75524475D01*
X162058940Y-75657336D01*
X161969550Y-75812164D01*
X161969547Y-75812170D01*
X161914304Y-75982192D01*
X161914303Y-75982194D01*
X161895615Y-76160000D01*
X143865985Y-76160000D01*
X143847297Y-75982197D01*
X143792050Y-75812165D01*
X143702659Y-75657335D01*
X143655803Y-75605296D01*
X143583035Y-75524478D01*
X143583032Y-75524476D01*
X143583031Y-75524475D01*
X143583030Y-75524474D01*
X143438393Y-75419388D01*
X143275067Y-75346671D01*
X143275065Y-75346670D01*
X143147394Y-75319533D01*
X143100191Y-75309500D01*
X142921409Y-75309500D01*
X142890754Y-75316015D01*
X142746533Y-75346670D01*
X142746528Y-75346672D01*
X142583208Y-75419387D01*
X142438568Y-75524475D01*
X142318940Y-75657336D01*
X142229550Y-75812164D01*
X142229547Y-75812170D01*
X142174304Y-75982192D01*
X142174303Y-75982194D01*
X142155615Y-76160000D01*
X141609985Y-76160000D01*
X141591297Y-75982197D01*
X141536050Y-75812165D01*
X141446659Y-75657335D01*
X141399803Y-75605296D01*
X141327035Y-75524478D01*
X141327032Y-75524476D01*
X141327031Y-75524475D01*
X141327030Y-75524474D01*
X141182393Y-75419388D01*
X141019067Y-75346671D01*
X141019065Y-75346670D01*
X140891394Y-75319533D01*
X140844191Y-75309500D01*
X140665409Y-75309500D01*
X140634754Y-75316015D01*
X140490533Y-75346670D01*
X140490528Y-75346672D01*
X140327208Y-75419387D01*
X140182568Y-75524475D01*
X140062940Y-75657336D01*
X139973550Y-75812164D01*
X139973547Y-75812170D01*
X139918304Y-75982192D01*
X139918303Y-75982194D01*
X139899615Y-76160000D01*
X135894985Y-76160000D01*
X135876297Y-75982197D01*
X135821050Y-75812165D01*
X135731659Y-75657335D01*
X135684803Y-75605296D01*
X135612035Y-75524478D01*
X135612032Y-75524476D01*
X135612031Y-75524475D01*
X135612030Y-75524474D01*
X135467393Y-75419388D01*
X135304067Y-75346671D01*
X135304065Y-75346670D01*
X135176394Y-75319533D01*
X135129191Y-75309500D01*
X134950409Y-75309500D01*
X134919754Y-75316015D01*
X134775533Y-75346670D01*
X134775528Y-75346672D01*
X134612208Y-75419387D01*
X134467568Y-75524475D01*
X134347940Y-75657336D01*
X134258550Y-75812164D01*
X134258547Y-75812170D01*
X134203304Y-75982192D01*
X134203303Y-75982194D01*
X134184615Y-76160000D01*
X107688500Y-76160000D01*
X107688500Y-73362000D01*
X146282164Y-73362000D01*
X146339367Y-73575486D01*
X146339370Y-73575492D01*
X146439199Y-73789578D01*
X146574694Y-73983082D01*
X146741717Y-74150105D01*
X146935221Y-74285600D01*
X147149307Y-74385429D01*
X147149316Y-74385433D01*
X147362800Y-74442634D01*
X147362800Y-73547501D01*
X147470485Y-73596680D01*
X147577037Y-73612000D01*
X147648563Y-73612000D01*
X147755115Y-73596680D01*
X147862800Y-73547501D01*
X147862800Y-74442633D01*
X148076283Y-74385433D01*
X148076292Y-74385429D01*
X148290378Y-74285600D01*
X148483882Y-74150105D01*
X148650905Y-73983082D01*
X148780919Y-73797405D01*
X148835496Y-73753781D01*
X148904995Y-73746588D01*
X148967349Y-73778110D01*
X148984069Y-73797405D01*
X149114305Y-73983401D01*
X149281399Y-74150495D01*
X149378184Y-74218265D01*
X149474965Y-74286032D01*
X149474967Y-74286033D01*
X149474970Y-74286035D01*
X149689137Y-74385903D01*
X149917392Y-74447063D01*
X150105718Y-74463539D01*
X150152799Y-74467659D01*
X150152800Y-74467659D01*
X150152801Y-74467659D01*
X150192034Y-74464226D01*
X150388208Y-74447063D01*
X150616463Y-74385903D01*
X150830630Y-74286035D01*
X151024201Y-74150495D01*
X151191295Y-73983401D01*
X151321225Y-73797842D01*
X151375802Y-73754217D01*
X151445300Y-73747023D01*
X151507655Y-73778546D01*
X151524375Y-73797842D01*
X151654300Y-73983395D01*
X151654305Y-73983401D01*
X151821399Y-74150495D01*
X151918184Y-74218265D01*
X152014965Y-74286032D01*
X152014967Y-74286033D01*
X152014970Y-74286035D01*
X152229137Y-74385903D01*
X152457392Y-74447063D01*
X152645718Y-74463539D01*
X152692799Y-74467659D01*
X152692800Y-74467659D01*
X152692801Y-74467659D01*
X152732034Y-74464226D01*
X152928208Y-74447063D01*
X153156463Y-74385903D01*
X153370630Y-74286035D01*
X153564201Y-74150495D01*
X153586696Y-74128000D01*
X175085115Y-74128000D01*
X175103803Y-74305805D01*
X175103804Y-74305807D01*
X175159047Y-74475829D01*
X175159050Y-74475835D01*
X175248441Y-74630665D01*
X175290112Y-74676946D01*
X175368064Y-74763521D01*
X175368067Y-74763523D01*
X175368070Y-74763526D01*
X175512707Y-74868612D01*
X175676033Y-74941329D01*
X175850909Y-74978500D01*
X175850910Y-74978500D01*
X176029689Y-74978500D01*
X176029691Y-74978500D01*
X176204567Y-74941329D01*
X176367893Y-74868612D01*
X176512530Y-74763526D01*
X176632159Y-74630665D01*
X176721550Y-74475835D01*
X176776797Y-74305803D01*
X176795485Y-74128000D01*
X176776797Y-73950197D01*
X176724692Y-73789834D01*
X176721552Y-73780170D01*
X176721549Y-73780164D01*
X176720615Y-73778546D01*
X176632159Y-73625335D01*
X176582800Y-73570516D01*
X176512535Y-73492478D01*
X176512532Y-73492476D01*
X176512531Y-73492475D01*
X176512530Y-73492474D01*
X176367893Y-73387388D01*
X176204567Y-73314671D01*
X176204565Y-73314670D01*
X176076894Y-73287533D01*
X176029691Y-73277500D01*
X175850909Y-73277500D01*
X175820254Y-73284015D01*
X175676033Y-73314670D01*
X175676028Y-73314672D01*
X175512708Y-73387387D01*
X175368068Y-73492475D01*
X175248440Y-73625336D01*
X175159050Y-73780164D01*
X175159047Y-73780170D01*
X175103804Y-73950192D01*
X175103803Y-73950194D01*
X175085115Y-74128000D01*
X153586696Y-74128000D01*
X153731295Y-73983401D01*
X153866835Y-73789830D01*
X153966703Y-73575663D01*
X154027863Y-73347408D01*
X154048459Y-73112000D01*
X154027863Y-72876592D01*
X153966703Y-72648337D01*
X153866835Y-72434171D01*
X153861531Y-72426595D01*
X153731294Y-72240597D01*
X153564202Y-72073506D01*
X153564195Y-72073501D01*
X153370634Y-71937967D01*
X153370630Y-71937965D01*
X153274908Y-71893329D01*
X153156463Y-71838097D01*
X153156459Y-71838096D01*
X153156455Y-71838094D01*
X152928213Y-71776938D01*
X152928203Y-71776936D01*
X152692801Y-71756341D01*
X152692799Y-71756341D01*
X152457396Y-71776936D01*
X152457386Y-71776938D01*
X152229144Y-71838094D01*
X152229135Y-71838098D01*
X152014971Y-71937964D01*
X152014969Y-71937965D01*
X151821397Y-72073505D01*
X151654305Y-72240597D01*
X151524375Y-72426158D01*
X151469798Y-72469783D01*
X151400300Y-72476977D01*
X151337945Y-72445454D01*
X151321225Y-72426158D01*
X151191294Y-72240597D01*
X151064245Y-72113548D01*
X151030760Y-72052225D01*
X151035744Y-71982533D01*
X151077616Y-71926600D01*
X151126140Y-71904578D01*
X151179067Y-71893329D01*
X151342393Y-71820612D01*
X151487030Y-71715526D01*
X151606659Y-71582665D01*
X151696050Y-71427835D01*
X151751297Y-71257803D01*
X151769985Y-71080000D01*
X151751297Y-70902197D01*
X151723673Y-70817181D01*
X151696052Y-70732170D01*
X151696049Y-70732164D01*
X151657754Y-70665835D01*
X151606659Y-70577335D01*
X151601855Y-70572000D01*
X175078615Y-70572000D01*
X175097303Y-70749805D01*
X175097304Y-70749807D01*
X175152547Y-70919829D01*
X175152550Y-70919835D01*
X175241941Y-71074665D01*
X175246745Y-71080000D01*
X175361564Y-71207521D01*
X175361567Y-71207523D01*
X175361570Y-71207526D01*
X175506207Y-71312612D01*
X175669533Y-71385329D01*
X175844409Y-71422500D01*
X175844410Y-71422500D01*
X176023189Y-71422500D01*
X176023191Y-71422500D01*
X176198067Y-71385329D01*
X176361393Y-71312612D01*
X176506030Y-71207526D01*
X176625659Y-71074665D01*
X176715050Y-70919835D01*
X176770297Y-70749803D01*
X176788985Y-70572000D01*
X176770297Y-70394197D01*
X176738589Y-70296610D01*
X176715052Y-70224170D01*
X176715049Y-70224164D01*
X176625659Y-70069335D01*
X176576300Y-70014516D01*
X176506035Y-69936478D01*
X176506032Y-69936476D01*
X176506031Y-69936475D01*
X176506030Y-69936474D01*
X176361393Y-69831388D01*
X176198067Y-69758671D01*
X176198065Y-69758670D01*
X176070394Y-69731533D01*
X176023191Y-69721500D01*
X175844409Y-69721500D01*
X175813754Y-69728015D01*
X175669533Y-69758670D01*
X175669528Y-69758672D01*
X175506208Y-69831387D01*
X175361568Y-69936475D01*
X175241940Y-70069336D01*
X175152550Y-70224164D01*
X175152547Y-70224170D01*
X175097304Y-70394192D01*
X175097303Y-70394194D01*
X175078615Y-70572000D01*
X151601855Y-70572000D01*
X151533249Y-70495805D01*
X151487035Y-70444478D01*
X151487032Y-70444476D01*
X151487031Y-70444475D01*
X151487030Y-70444474D01*
X151342393Y-70339388D01*
X151179067Y-70266671D01*
X151179065Y-70266670D01*
X151051394Y-70239533D01*
X151004191Y-70229500D01*
X150825409Y-70229500D01*
X150794754Y-70236015D01*
X150650533Y-70266670D01*
X150650528Y-70266672D01*
X150487208Y-70339387D01*
X150342568Y-70444475D01*
X150222940Y-70577336D01*
X150133550Y-70732164D01*
X150133547Y-70732170D01*
X150078304Y-70902192D01*
X150078303Y-70902194D01*
X150059615Y-71080000D01*
X150078303Y-71257805D01*
X150078304Y-71257807D01*
X150133547Y-71427829D01*
X150133550Y-71427835D01*
X150217698Y-71573584D01*
X150234171Y-71641484D01*
X150211318Y-71707511D01*
X150156397Y-71750702D01*
X150121119Y-71759112D01*
X149917396Y-71776936D01*
X149917386Y-71776938D01*
X149689144Y-71838094D01*
X149689135Y-71838098D01*
X149474971Y-71937964D01*
X149474969Y-71937965D01*
X149281397Y-72073505D01*
X149114308Y-72240594D01*
X148984069Y-72426595D01*
X148929492Y-72470219D01*
X148859993Y-72477412D01*
X148797639Y-72445890D01*
X148780919Y-72426594D01*
X148650913Y-72240926D01*
X148650908Y-72240920D01*
X148483882Y-72073894D01*
X148290378Y-71938399D01*
X148076292Y-71838570D01*
X148076286Y-71838567D01*
X147862800Y-71781364D01*
X147862800Y-72676498D01*
X147755115Y-72627320D01*
X147648563Y-72612000D01*
X147577037Y-72612000D01*
X147470485Y-72627320D01*
X147362800Y-72676498D01*
X147362800Y-71781364D01*
X147362799Y-71781364D01*
X147149313Y-71838567D01*
X147149307Y-71838570D01*
X146935222Y-71938399D01*
X146935220Y-71938400D01*
X146741726Y-72073886D01*
X146741720Y-72073891D01*
X146574691Y-72240920D01*
X146574686Y-72240926D01*
X146439200Y-72434420D01*
X146439199Y-72434422D01*
X146339370Y-72648507D01*
X146339367Y-72648513D01*
X146282164Y-72861999D01*
X146282164Y-72862000D01*
X147179114Y-72862000D01*
X147153307Y-72902156D01*
X147112800Y-73040111D01*
X147112800Y-73183889D01*
X147153307Y-73321844D01*
X147179114Y-73362000D01*
X146282164Y-73362000D01*
X107688500Y-73362000D01*
X107688500Y-72350000D01*
X133168615Y-72350000D01*
X133187303Y-72527805D01*
X133187304Y-72527807D01*
X133242547Y-72697829D01*
X133242550Y-72697835D01*
X133331941Y-72852665D01*
X133353480Y-72876586D01*
X133451564Y-72985521D01*
X133451567Y-72985523D01*
X133451570Y-72985526D01*
X133596207Y-73090612D01*
X133759533Y-73163329D01*
X133934409Y-73200500D01*
X133934410Y-73200500D01*
X134113189Y-73200500D01*
X134113191Y-73200500D01*
X134288067Y-73163329D01*
X134451393Y-73090612D01*
X134596030Y-72985526D01*
X134715659Y-72852665D01*
X134805050Y-72697835D01*
X134860297Y-72527803D01*
X134878985Y-72350000D01*
X134860297Y-72172197D01*
X134805050Y-72002165D01*
X134715659Y-71847335D01*
X134671212Y-71797972D01*
X134640982Y-71734981D01*
X134649607Y-71665646D01*
X134671212Y-71632028D01*
X134671924Y-71631236D01*
X134715659Y-71582665D01*
X134805050Y-71427835D01*
X134860297Y-71257803D01*
X134878985Y-71080000D01*
X138248615Y-71080000D01*
X138267303Y-71257805D01*
X138267304Y-71257807D01*
X138322547Y-71427829D01*
X138322550Y-71427835D01*
X138411941Y-71582665D01*
X138453612Y-71628946D01*
X138531564Y-71715521D01*
X138531567Y-71715523D01*
X138531570Y-71715526D01*
X138676207Y-71820612D01*
X138839533Y-71893329D01*
X139014409Y-71930500D01*
X139014410Y-71930500D01*
X139193189Y-71930500D01*
X139193191Y-71930500D01*
X139368067Y-71893329D01*
X139531393Y-71820612D01*
X139676030Y-71715526D01*
X139795659Y-71582665D01*
X139885050Y-71427835D01*
X139940297Y-71257803D01*
X139958985Y-71080000D01*
X139940297Y-70902197D01*
X139912673Y-70817181D01*
X139885052Y-70732170D01*
X139885049Y-70732164D01*
X139846754Y-70665835D01*
X139795659Y-70577335D01*
X139722249Y-70495805D01*
X139676035Y-70444478D01*
X139676032Y-70444476D01*
X139676031Y-70444475D01*
X139676030Y-70444474D01*
X139531393Y-70339388D01*
X139368067Y-70266671D01*
X139368065Y-70266670D01*
X139240394Y-70239533D01*
X139193191Y-70229500D01*
X139014409Y-70229500D01*
X138983754Y-70236015D01*
X138839533Y-70266670D01*
X138839528Y-70266672D01*
X138676208Y-70339387D01*
X138531568Y-70444475D01*
X138411940Y-70577336D01*
X138322550Y-70732164D01*
X138322547Y-70732170D01*
X138267304Y-70902192D01*
X138267303Y-70902194D01*
X138248615Y-71080000D01*
X134878985Y-71080000D01*
X134860297Y-70902197D01*
X134832673Y-70817181D01*
X134805052Y-70732170D01*
X134805049Y-70732164D01*
X134766754Y-70665835D01*
X134715659Y-70577335D01*
X134642249Y-70495805D01*
X134596035Y-70444478D01*
X134596032Y-70444476D01*
X134596031Y-70444475D01*
X134596030Y-70444474D01*
X134451393Y-70339388D01*
X134288067Y-70266671D01*
X134288065Y-70266670D01*
X134160394Y-70239533D01*
X134113191Y-70229500D01*
X133934409Y-70229500D01*
X133903754Y-70236015D01*
X133759533Y-70266670D01*
X133759528Y-70266672D01*
X133596208Y-70339387D01*
X133451568Y-70444475D01*
X133331940Y-70577336D01*
X133242550Y-70732164D01*
X133242547Y-70732170D01*
X133187304Y-70902192D01*
X133187303Y-70902194D01*
X133168615Y-71080000D01*
X133187303Y-71257805D01*
X133187304Y-71257807D01*
X133242547Y-71427829D01*
X133242550Y-71427835D01*
X133331938Y-71582661D01*
X133331939Y-71582663D01*
X133331941Y-71582665D01*
X133376388Y-71632028D01*
X133406617Y-71695020D01*
X133397991Y-71764355D01*
X133376388Y-71797972D01*
X133331938Y-71847338D01*
X133242550Y-72002164D01*
X133242547Y-72002170D01*
X133187304Y-72172192D01*
X133187303Y-72172194D01*
X133168615Y-72350000D01*
X107688500Y-72350000D01*
X107688500Y-69556000D01*
X146249615Y-69556000D01*
X146268303Y-69733805D01*
X146268304Y-69733807D01*
X146323547Y-69903829D01*
X146323550Y-69903835D01*
X146412941Y-70058665D01*
X146454612Y-70104946D01*
X146532564Y-70191521D01*
X146532567Y-70191523D01*
X146532570Y-70191526D01*
X146677207Y-70296612D01*
X146840533Y-70369329D01*
X147015409Y-70406500D01*
X147015410Y-70406500D01*
X147194189Y-70406500D01*
X147194191Y-70406500D01*
X147369067Y-70369329D01*
X147484354Y-70318000D01*
X148154615Y-70318000D01*
X148173303Y-70495805D01*
X148173304Y-70495807D01*
X148228547Y-70665829D01*
X148228550Y-70665835D01*
X148317941Y-70820665D01*
X148359612Y-70866946D01*
X148437564Y-70953521D01*
X148437567Y-70953523D01*
X148437570Y-70953526D01*
X148582207Y-71058612D01*
X148745533Y-71131329D01*
X148920409Y-71168500D01*
X148920410Y-71168500D01*
X149099189Y-71168500D01*
X149099191Y-71168500D01*
X149274067Y-71131329D01*
X149437393Y-71058612D01*
X149582030Y-70953526D01*
X149701659Y-70820665D01*
X149791050Y-70665835D01*
X149846297Y-70495803D01*
X149864985Y-70318000D01*
X149846297Y-70140197D01*
X149791050Y-69970165D01*
X149701659Y-69815335D01*
X149650638Y-69758671D01*
X149582035Y-69682478D01*
X149582032Y-69682476D01*
X149582031Y-69682475D01*
X149582030Y-69682474D01*
X149437393Y-69577388D01*
X149274067Y-69504671D01*
X149274065Y-69504670D01*
X149146394Y-69477533D01*
X149099191Y-69467500D01*
X148920409Y-69467500D01*
X148889754Y-69474015D01*
X148745533Y-69504670D01*
X148745528Y-69504672D01*
X148582208Y-69577387D01*
X148437568Y-69682475D01*
X148317940Y-69815336D01*
X148228550Y-69970164D01*
X148228547Y-69970170D01*
X148173304Y-70140192D01*
X148173303Y-70140194D01*
X148154615Y-70318000D01*
X147484354Y-70318000D01*
X147532393Y-70296612D01*
X147677030Y-70191526D01*
X147796659Y-70058665D01*
X147886050Y-69903835D01*
X147941297Y-69733803D01*
X147959985Y-69556000D01*
X147941297Y-69378197D01*
X147886050Y-69208165D01*
X147796659Y-69053335D01*
X147796655Y-69053330D01*
X147792963Y-69048248D01*
X147769481Y-68982443D01*
X147785305Y-68914388D01*
X147835409Y-68865692D01*
X147861181Y-68855586D01*
X148076463Y-68797903D01*
X148290630Y-68698035D01*
X148484201Y-68562495D01*
X148651295Y-68395401D01*
X148781225Y-68209842D01*
X148835802Y-68166217D01*
X148905300Y-68159023D01*
X148967655Y-68190546D01*
X148984375Y-68209842D01*
X149114300Y-68395395D01*
X149114305Y-68395401D01*
X149281399Y-68562495D01*
X149297696Y-68573906D01*
X149474965Y-68698032D01*
X149474967Y-68698033D01*
X149474970Y-68698035D01*
X149689137Y-68797903D01*
X149917392Y-68859063D01*
X150105718Y-68875539D01*
X150152799Y-68879659D01*
X150152800Y-68879659D01*
X150152801Y-68879659D01*
X150192034Y-68876226D01*
X150388208Y-68859063D01*
X150616463Y-68797903D01*
X150830630Y-68698035D01*
X151024201Y-68562495D01*
X151191295Y-68395401D01*
X151321225Y-68209842D01*
X151375802Y-68166217D01*
X151445300Y-68159023D01*
X151507655Y-68190546D01*
X151524375Y-68209842D01*
X151654300Y-68395395D01*
X151654305Y-68395401D01*
X151821399Y-68562495D01*
X151837696Y-68573906D01*
X152014965Y-68698032D01*
X152014967Y-68698033D01*
X152014970Y-68698035D01*
X152229137Y-68797903D01*
X152457392Y-68859063D01*
X152645718Y-68875539D01*
X152692799Y-68879659D01*
X152692800Y-68879659D01*
X152692801Y-68879659D01*
X152732034Y-68876226D01*
X152928208Y-68859063D01*
X153156463Y-68797903D01*
X153164833Y-68794000D01*
X154275615Y-68794000D01*
X154294303Y-68971805D01*
X154294304Y-68971807D01*
X154349547Y-69141829D01*
X154349550Y-69141835D01*
X154438941Y-69296665D01*
X154480612Y-69342946D01*
X154558564Y-69429521D01*
X154558567Y-69429523D01*
X154558570Y-69429526D01*
X154703207Y-69534612D01*
X154866533Y-69607329D01*
X155041409Y-69644500D01*
X155041410Y-69644500D01*
X155220189Y-69644500D01*
X155220191Y-69644500D01*
X155395067Y-69607329D01*
X155558393Y-69534612D01*
X155703030Y-69429526D01*
X155822659Y-69296665D01*
X155912050Y-69141835D01*
X155967297Y-68971803D01*
X155985985Y-68794000D01*
X155967297Y-68616197D01*
X155912050Y-68446165D01*
X155822659Y-68291335D01*
X155775803Y-68239296D01*
X155703035Y-68158478D01*
X155703032Y-68158476D01*
X155703031Y-68158475D01*
X155703030Y-68158474D01*
X155558393Y-68053388D01*
X155395067Y-67980671D01*
X155395065Y-67980670D01*
X155267394Y-67953533D01*
X155220191Y-67943500D01*
X155041409Y-67943500D01*
X155010754Y-67950015D01*
X154866533Y-67980670D01*
X154866528Y-67980672D01*
X154703208Y-68053387D01*
X154558568Y-68158475D01*
X154438940Y-68291336D01*
X154349550Y-68446164D01*
X154349547Y-68446170D01*
X154294304Y-68616192D01*
X154294303Y-68616194D01*
X154275615Y-68794000D01*
X153164833Y-68794000D01*
X153370630Y-68698035D01*
X153564201Y-68562495D01*
X153731295Y-68395401D01*
X153866835Y-68201830D01*
X153966703Y-67987663D01*
X153988852Y-67905000D01*
X156815615Y-67905000D01*
X156834303Y-68082805D01*
X156834304Y-68082807D01*
X156889547Y-68252829D01*
X156889550Y-68252835D01*
X156978941Y-68407665D01*
X157013606Y-68446164D01*
X157098564Y-68540521D01*
X157098567Y-68540523D01*
X157098570Y-68540526D01*
X157243207Y-68645612D01*
X157406533Y-68718329D01*
X157581409Y-68755500D01*
X157581410Y-68755500D01*
X157760189Y-68755500D01*
X157760191Y-68755500D01*
X157935067Y-68718329D01*
X158098393Y-68645612D01*
X158243030Y-68540526D01*
X158362659Y-68407665D01*
X158452050Y-68252835D01*
X158507297Y-68082803D01*
X158522659Y-67936639D01*
X158549242Y-67872028D01*
X158606540Y-67832043D01*
X158671760Y-67828314D01*
X158676531Y-67829328D01*
X158676533Y-67829329D01*
X158851409Y-67866500D01*
X158851410Y-67866500D01*
X159030189Y-67866500D01*
X159030191Y-67866500D01*
X159205067Y-67829329D01*
X159368393Y-67756612D01*
X159513030Y-67651526D01*
X159632659Y-67518665D01*
X159722050Y-67363835D01*
X159777297Y-67193803D01*
X159795985Y-67016000D01*
X175078615Y-67016000D01*
X175097303Y-67193805D01*
X175097304Y-67193807D01*
X175152547Y-67363829D01*
X175152550Y-67363835D01*
X175241941Y-67518665D01*
X175246744Y-67523999D01*
X175361564Y-67651521D01*
X175361567Y-67651523D01*
X175361570Y-67651526D01*
X175506207Y-67756612D01*
X175669533Y-67829329D01*
X175844409Y-67866500D01*
X175844410Y-67866500D01*
X176023189Y-67866500D01*
X176023191Y-67866500D01*
X176198067Y-67829329D01*
X176361393Y-67756612D01*
X176506030Y-67651526D01*
X176625659Y-67518665D01*
X176715050Y-67363835D01*
X176770297Y-67193803D01*
X176788985Y-67016000D01*
X176770297Y-66838197D01*
X176715050Y-66668165D01*
X176625659Y-66513335D01*
X176576300Y-66458516D01*
X176506035Y-66380478D01*
X176506032Y-66380476D01*
X176506031Y-66380475D01*
X176506030Y-66380474D01*
X176361393Y-66275388D01*
X176198067Y-66202671D01*
X176198065Y-66202670D01*
X176070394Y-66175533D01*
X176023191Y-66165500D01*
X175844409Y-66165500D01*
X175813754Y-66172015D01*
X175669533Y-66202670D01*
X175669528Y-66202672D01*
X175506208Y-66275387D01*
X175361568Y-66380475D01*
X175241940Y-66513336D01*
X175152550Y-66668164D01*
X175152547Y-66668170D01*
X175097304Y-66838192D01*
X175097303Y-66838194D01*
X175078615Y-67016000D01*
X159795985Y-67016000D01*
X159777297Y-66838197D01*
X159722050Y-66668165D01*
X159632659Y-66513335D01*
X159583300Y-66458516D01*
X159513035Y-66380478D01*
X159513032Y-66380476D01*
X159513031Y-66380475D01*
X159513030Y-66380474D01*
X159368393Y-66275388D01*
X159205067Y-66202671D01*
X159205065Y-66202670D01*
X159077394Y-66175533D01*
X159030191Y-66165500D01*
X158851409Y-66165500D01*
X158820754Y-66172015D01*
X158676533Y-66202670D01*
X158676528Y-66202672D01*
X158513208Y-66275387D01*
X158368568Y-66380475D01*
X158248940Y-66513336D01*
X158159550Y-66668164D01*
X158159547Y-66668170D01*
X158104304Y-66838192D01*
X158104303Y-66838195D01*
X158088941Y-66984357D01*
X158062356Y-67048972D01*
X158005059Y-67088956D01*
X157939839Y-67092685D01*
X157832056Y-67069775D01*
X157760191Y-67054500D01*
X157581409Y-67054500D01*
X157553948Y-67060337D01*
X157406533Y-67091670D01*
X157406528Y-67091672D01*
X157243208Y-67164387D01*
X157098568Y-67269475D01*
X156978940Y-67402336D01*
X156889550Y-67557164D01*
X156889547Y-67557170D01*
X156834304Y-67727192D01*
X156834303Y-67727194D01*
X156815615Y-67905000D01*
X153988852Y-67905000D01*
X154027863Y-67759408D01*
X154048459Y-67524000D01*
X154027863Y-67288592D01*
X153966703Y-67060337D01*
X153866835Y-66846171D01*
X153861251Y-66838195D01*
X153731294Y-66652597D01*
X153564202Y-66485506D01*
X153564195Y-66485501D01*
X153553712Y-66478161D01*
X153472570Y-66421344D01*
X153370634Y-66349967D01*
X153370630Y-66349965D01*
X153324770Y-66328580D01*
X153156463Y-66250097D01*
X153156459Y-66250096D01*
X153156455Y-66250094D01*
X152928213Y-66188938D01*
X152928203Y-66188936D01*
X152692801Y-66168341D01*
X152692799Y-66168341D01*
X152457396Y-66188936D01*
X152457386Y-66188938D01*
X152229144Y-66250094D01*
X152229135Y-66250098D01*
X152014971Y-66349964D01*
X152014969Y-66349965D01*
X151821397Y-66485505D01*
X151654305Y-66652597D01*
X151524375Y-66838158D01*
X151469798Y-66881783D01*
X151400300Y-66888977D01*
X151337945Y-66857454D01*
X151321225Y-66838158D01*
X151191294Y-66652597D01*
X151024202Y-66485506D01*
X151024195Y-66485501D01*
X151013712Y-66478161D01*
X150932570Y-66421344D01*
X150830634Y-66349967D01*
X150830630Y-66349965D01*
X150784770Y-66328580D01*
X150616463Y-66250097D01*
X150616459Y-66250096D01*
X150616455Y-66250094D01*
X150388213Y-66188938D01*
X150388203Y-66188936D01*
X150152801Y-66168341D01*
X150152799Y-66168341D01*
X149917396Y-66188936D01*
X149917386Y-66188938D01*
X149689144Y-66250094D01*
X149689135Y-66250098D01*
X149474971Y-66349964D01*
X149474969Y-66349965D01*
X149281397Y-66485505D01*
X149114305Y-66652597D01*
X148984375Y-66838158D01*
X148929798Y-66881783D01*
X148860300Y-66888977D01*
X148797945Y-66857454D01*
X148781225Y-66838158D01*
X148651294Y-66652597D01*
X148484202Y-66485506D01*
X148484195Y-66485501D01*
X148473712Y-66478161D01*
X148392570Y-66421344D01*
X148290634Y-66349967D01*
X148290630Y-66349965D01*
X148244770Y-66328580D01*
X148076463Y-66250097D01*
X148076459Y-66250096D01*
X148076455Y-66250094D01*
X147848213Y-66188938D01*
X147848203Y-66188936D01*
X147612801Y-66168341D01*
X147612799Y-66168341D01*
X147377396Y-66188936D01*
X147377386Y-66188938D01*
X147149144Y-66250094D01*
X147149135Y-66250098D01*
X146934971Y-66349964D01*
X146934969Y-66349965D01*
X146741397Y-66485505D01*
X146574305Y-66652597D01*
X146438765Y-66846169D01*
X146438764Y-66846171D01*
X146338898Y-67060335D01*
X146338894Y-67060344D01*
X146277738Y-67288586D01*
X146277736Y-67288596D01*
X146257141Y-67523999D01*
X146257141Y-67524000D01*
X146277736Y-67759403D01*
X146277738Y-67759413D01*
X146338894Y-67987655D01*
X146338896Y-67987659D01*
X146338897Y-67987663D01*
X146369546Y-68053389D01*
X146438765Y-68201830D01*
X146438767Y-68201834D01*
X146547081Y-68356521D01*
X146574305Y-68395401D01*
X146741399Y-68562495D01*
X146757696Y-68573906D01*
X146801322Y-68628483D01*
X146808516Y-68697981D01*
X146776994Y-68760336D01*
X146737012Y-68788761D01*
X146677205Y-68815389D01*
X146532568Y-68920475D01*
X146412940Y-69053336D01*
X146323550Y-69208164D01*
X146323547Y-69208170D01*
X146268304Y-69378192D01*
X146268303Y-69378194D01*
X146249615Y-69556000D01*
X107688500Y-69556000D01*
X107688500Y-65238000D01*
X117524508Y-65238000D01*
X117543639Y-65456674D01*
X117600453Y-65668703D01*
X117600454Y-65668706D01*
X117600455Y-65668708D01*
X117693219Y-65867642D01*
X117693223Y-65867650D01*
X117819122Y-66047452D01*
X117819127Y-66047458D01*
X117974341Y-66202672D01*
X117974347Y-66202677D01*
X118154149Y-66328576D01*
X118154151Y-66328577D01*
X118154154Y-66328579D01*
X118353097Y-66421347D01*
X118565126Y-66478161D01*
X118721321Y-66491826D01*
X118783798Y-66497292D01*
X118783800Y-66497292D01*
X118783802Y-66497292D01*
X118838468Y-66492509D01*
X119002474Y-66478161D01*
X119214503Y-66421347D01*
X119413446Y-66328579D01*
X119593257Y-66202674D01*
X119748474Y-66047457D01*
X119874379Y-65867646D01*
X119967147Y-65668703D01*
X120023961Y-65456674D01*
X120043092Y-65238000D01*
X127524508Y-65238000D01*
X127543639Y-65456674D01*
X127600453Y-65668703D01*
X127600454Y-65668706D01*
X127600455Y-65668708D01*
X127693219Y-65867642D01*
X127693223Y-65867650D01*
X127819122Y-66047452D01*
X127819127Y-66047458D01*
X127974341Y-66202672D01*
X127974347Y-66202677D01*
X128154149Y-66328576D01*
X128154151Y-66328577D01*
X128154154Y-66328579D01*
X128353097Y-66421347D01*
X128565126Y-66478161D01*
X128721321Y-66491826D01*
X128783798Y-66497292D01*
X128783800Y-66497292D01*
X128783802Y-66497292D01*
X128838468Y-66492509D01*
X129002474Y-66478161D01*
X129214503Y-66421347D01*
X129413446Y-66328579D01*
X129593257Y-66202674D01*
X129748474Y-66047457D01*
X129874379Y-65867646D01*
X129967147Y-65668703D01*
X130023961Y-65456674D01*
X130043092Y-65238000D01*
X130023961Y-65019326D01*
X129967147Y-64807297D01*
X129874379Y-64608354D01*
X129874377Y-64608351D01*
X129874376Y-64608349D01*
X129748477Y-64428547D01*
X129748472Y-64428541D01*
X129593258Y-64273327D01*
X129593252Y-64273322D01*
X129413450Y-64147423D01*
X129413442Y-64147419D01*
X129214508Y-64054655D01*
X129214506Y-64054654D01*
X129214503Y-64054653D01*
X129063685Y-64014240D01*
X129002475Y-63997839D01*
X129002468Y-63997838D01*
X128783802Y-63978708D01*
X128783798Y-63978708D01*
X128565131Y-63997838D01*
X128565124Y-63997839D01*
X128442702Y-64030642D01*
X128353097Y-64054653D01*
X128353095Y-64054653D01*
X128353091Y-64054655D01*
X128154157Y-64147419D01*
X128154149Y-64147423D01*
X127974347Y-64273322D01*
X127974341Y-64273327D01*
X127819127Y-64428541D01*
X127819122Y-64428547D01*
X127693223Y-64608349D01*
X127693219Y-64608357D01*
X127600455Y-64807291D01*
X127543639Y-65019324D01*
X127543638Y-65019331D01*
X127524508Y-65237997D01*
X127524508Y-65238000D01*
X120043092Y-65238000D01*
X120023961Y-65019326D01*
X119967147Y-64807297D01*
X119874379Y-64608354D01*
X119874377Y-64608351D01*
X119874376Y-64608349D01*
X119748477Y-64428547D01*
X119748472Y-64428541D01*
X119593258Y-64273327D01*
X119593252Y-64273322D01*
X119413450Y-64147423D01*
X119413442Y-64147419D01*
X119214508Y-64054655D01*
X119214506Y-64054654D01*
X119214503Y-64054653D01*
X119063685Y-64014240D01*
X119002475Y-63997839D01*
X119002468Y-63997838D01*
X118783802Y-63978708D01*
X118783798Y-63978708D01*
X118565131Y-63997838D01*
X118565124Y-63997839D01*
X118442702Y-64030642D01*
X118353097Y-64054653D01*
X118353095Y-64054653D01*
X118353091Y-64054655D01*
X118154157Y-64147419D01*
X118154149Y-64147423D01*
X117974347Y-64273322D01*
X117974341Y-64273327D01*
X117819127Y-64428541D01*
X117819122Y-64428547D01*
X117693223Y-64608349D01*
X117693219Y-64608357D01*
X117600455Y-64807291D01*
X117543639Y-65019324D01*
X117543638Y-65019331D01*
X117524508Y-65237997D01*
X117524508Y-65238000D01*
X107688500Y-65238000D01*
X107688500Y-62317000D01*
X154893141Y-62317000D01*
X154913736Y-62552403D01*
X154913738Y-62552413D01*
X154974894Y-62780655D01*
X154974896Y-62780659D01*
X154974897Y-62780663D01*
X155054804Y-62952023D01*
X155074765Y-62994830D01*
X155074767Y-62994834D01*
X155183081Y-63149521D01*
X155210305Y-63188401D01*
X155377399Y-63355495D01*
X155474184Y-63423265D01*
X155570965Y-63491032D01*
X155570967Y-63491033D01*
X155570970Y-63491035D01*
X155785137Y-63590903D01*
X156013392Y-63652063D01*
X156201718Y-63668539D01*
X156248799Y-63672659D01*
X156248800Y-63672659D01*
X156248801Y-63672659D01*
X156288034Y-63669226D01*
X156484208Y-63652063D01*
X156712463Y-63590903D01*
X156926630Y-63491035D01*
X157120201Y-63355495D01*
X157287295Y-63188401D01*
X157417225Y-63002842D01*
X157471802Y-62959217D01*
X157541300Y-62952023D01*
X157603655Y-62983546D01*
X157620375Y-63002842D01*
X157750300Y-63188395D01*
X157750305Y-63188401D01*
X157917399Y-63355495D01*
X158014184Y-63423265D01*
X158110965Y-63491032D01*
X158110967Y-63491033D01*
X158110970Y-63491035D01*
X158325137Y-63590903D01*
X158553392Y-63652063D01*
X158741718Y-63668539D01*
X158788799Y-63672659D01*
X158788800Y-63672659D01*
X158788801Y-63672659D01*
X158828034Y-63669226D01*
X159024208Y-63652063D01*
X159252463Y-63590903D01*
X159466630Y-63491035D01*
X159660201Y-63355495D01*
X159827295Y-63188401D01*
X159957225Y-63002842D01*
X160011802Y-62959217D01*
X160081300Y-62952023D01*
X160143655Y-62983546D01*
X160160375Y-63002842D01*
X160290300Y-63188395D01*
X160290305Y-63188401D01*
X160457399Y-63355495D01*
X160554184Y-63423265D01*
X160650965Y-63491032D01*
X160650967Y-63491033D01*
X160650970Y-63491035D01*
X160865137Y-63590903D01*
X161093392Y-63652063D01*
X161281718Y-63668539D01*
X161328799Y-63672659D01*
X161328800Y-63672659D01*
X161328801Y-63672659D01*
X161368034Y-63669226D01*
X161564208Y-63652063D01*
X161792463Y-63590903D01*
X162006630Y-63491035D01*
X162200201Y-63355495D01*
X162367295Y-63188401D01*
X162497225Y-63002842D01*
X162551802Y-62959217D01*
X162621300Y-62952023D01*
X162683655Y-62983546D01*
X162700375Y-63002842D01*
X162830300Y-63188395D01*
X162830305Y-63188401D01*
X162997399Y-63355495D01*
X163094184Y-63423265D01*
X163190965Y-63491032D01*
X163190967Y-63491033D01*
X163190970Y-63491035D01*
X163405137Y-63590903D01*
X163633392Y-63652063D01*
X163821718Y-63668539D01*
X163868799Y-63672659D01*
X163868800Y-63672659D01*
X163868801Y-63672659D01*
X163908034Y-63669226D01*
X164104208Y-63652063D01*
X164332463Y-63590903D01*
X164546630Y-63491035D01*
X164740201Y-63355495D01*
X164907295Y-63188401D01*
X165037225Y-63002842D01*
X165091802Y-62959217D01*
X165161300Y-62952023D01*
X165223655Y-62983546D01*
X165240375Y-63002842D01*
X165370300Y-63188395D01*
X165370305Y-63188401D01*
X165537399Y-63355495D01*
X165634184Y-63423265D01*
X165730965Y-63491032D01*
X165730967Y-63491033D01*
X165730970Y-63491035D01*
X165945137Y-63590903D01*
X166173392Y-63652063D01*
X166361718Y-63668539D01*
X166408799Y-63672659D01*
X166408800Y-63672659D01*
X166408801Y-63672659D01*
X166448034Y-63669226D01*
X166644208Y-63652063D01*
X166872463Y-63590903D01*
X167086630Y-63491035D01*
X167280201Y-63355495D01*
X167447295Y-63188401D01*
X167577530Y-63002405D01*
X167632107Y-62958781D01*
X167701605Y-62951587D01*
X167763960Y-62983110D01*
X167780679Y-63002405D01*
X167910690Y-63188078D01*
X168077717Y-63355105D01*
X168271221Y-63490600D01*
X168485307Y-63590429D01*
X168485316Y-63590433D01*
X168698800Y-63647634D01*
X168698800Y-62752501D01*
X168806485Y-62801680D01*
X168913037Y-62817000D01*
X168984563Y-62817000D01*
X169091115Y-62801680D01*
X169198800Y-62752501D01*
X169198800Y-63647633D01*
X169412283Y-63590433D01*
X169412292Y-63590429D01*
X169626378Y-63490600D01*
X169819882Y-63355105D01*
X169986905Y-63188082D01*
X170122400Y-62994578D01*
X170222229Y-62780492D01*
X170222232Y-62780486D01*
X170279436Y-62567000D01*
X169382486Y-62567000D01*
X169408293Y-62526844D01*
X169448800Y-62388889D01*
X169448800Y-62245111D01*
X169408293Y-62107156D01*
X169382486Y-62067000D01*
X170279436Y-62067000D01*
X170279435Y-62066999D01*
X170222232Y-61853513D01*
X170222229Y-61853507D01*
X170122400Y-61639422D01*
X170122399Y-61639420D01*
X169986913Y-61445926D01*
X169986908Y-61445920D01*
X169819882Y-61278894D01*
X169626378Y-61143399D01*
X169412292Y-61043570D01*
X169412286Y-61043567D01*
X169198800Y-60986364D01*
X169198800Y-61881498D01*
X169091115Y-61832320D01*
X168984563Y-61817000D01*
X168913037Y-61817000D01*
X168806485Y-61832320D01*
X168698800Y-61881498D01*
X168698800Y-60986364D01*
X168698799Y-60986364D01*
X168485313Y-61043567D01*
X168485307Y-61043570D01*
X168271222Y-61143399D01*
X168271220Y-61143400D01*
X168077726Y-61278886D01*
X168077720Y-61278891D01*
X167910691Y-61445920D01*
X167910690Y-61445922D01*
X167780680Y-61631595D01*
X167726103Y-61675219D01*
X167656604Y-61682412D01*
X167594250Y-61650890D01*
X167577530Y-61631594D01*
X167447294Y-61445597D01*
X167280202Y-61278506D01*
X167280195Y-61278501D01*
X167086634Y-61142967D01*
X167086630Y-61142965D01*
X167086628Y-61142964D01*
X166872463Y-61043097D01*
X166872459Y-61043096D01*
X166872455Y-61043094D01*
X166644213Y-60981938D01*
X166644203Y-60981936D01*
X166408801Y-60961341D01*
X166408799Y-60961341D01*
X166173396Y-60981936D01*
X166173386Y-60981938D01*
X165945144Y-61043094D01*
X165945135Y-61043098D01*
X165730971Y-61142964D01*
X165730969Y-61142965D01*
X165537397Y-61278505D01*
X165370305Y-61445597D01*
X165240375Y-61631158D01*
X165185798Y-61674783D01*
X165116300Y-61681977D01*
X165053945Y-61650454D01*
X165037225Y-61631158D01*
X164907294Y-61445597D01*
X164740202Y-61278506D01*
X164740195Y-61278501D01*
X164546634Y-61142967D01*
X164546630Y-61142965D01*
X164546628Y-61142964D01*
X164332463Y-61043097D01*
X164332459Y-61043096D01*
X164332455Y-61043094D01*
X164104213Y-60981938D01*
X164104203Y-60981936D01*
X163868801Y-60961341D01*
X163868799Y-60961341D01*
X163633396Y-60981936D01*
X163633386Y-60981938D01*
X163405144Y-61043094D01*
X163405135Y-61043098D01*
X163190971Y-61142964D01*
X163190969Y-61142965D01*
X162997397Y-61278505D01*
X162830305Y-61445597D01*
X162700375Y-61631158D01*
X162645798Y-61674783D01*
X162576300Y-61681977D01*
X162513945Y-61650454D01*
X162497225Y-61631158D01*
X162367294Y-61445597D01*
X162200202Y-61278506D01*
X162200195Y-61278501D01*
X162006634Y-61142967D01*
X162006630Y-61142965D01*
X162006628Y-61142964D01*
X161792463Y-61043097D01*
X161792459Y-61043096D01*
X161792455Y-61043094D01*
X161564213Y-60981938D01*
X161564203Y-60981936D01*
X161328801Y-60961341D01*
X161328799Y-60961341D01*
X161093396Y-60981936D01*
X161093386Y-60981938D01*
X160865144Y-61043094D01*
X160865135Y-61043098D01*
X160650971Y-61142964D01*
X160650969Y-61142965D01*
X160457397Y-61278505D01*
X160290305Y-61445597D01*
X160160375Y-61631158D01*
X160105798Y-61674783D01*
X160036300Y-61681977D01*
X159973945Y-61650454D01*
X159957225Y-61631158D01*
X159827294Y-61445597D01*
X159660202Y-61278506D01*
X159660195Y-61278501D01*
X159466634Y-61142967D01*
X159466630Y-61142965D01*
X159466628Y-61142964D01*
X159252463Y-61043097D01*
X159252459Y-61043096D01*
X159252455Y-61043094D01*
X159024213Y-60981938D01*
X159024203Y-60981936D01*
X158788801Y-60961341D01*
X158788799Y-60961341D01*
X158553396Y-60981936D01*
X158553386Y-60981938D01*
X158325144Y-61043094D01*
X158325135Y-61043098D01*
X158110971Y-61142964D01*
X158110969Y-61142965D01*
X157917397Y-61278505D01*
X157750305Y-61445597D01*
X157620375Y-61631158D01*
X157565798Y-61674783D01*
X157496300Y-61681977D01*
X157433945Y-61650454D01*
X157417225Y-61631158D01*
X157287294Y-61445597D01*
X157120202Y-61278506D01*
X157120195Y-61278501D01*
X156926634Y-61142967D01*
X156926630Y-61142965D01*
X156926628Y-61142964D01*
X156712463Y-61043097D01*
X156712459Y-61043096D01*
X156712455Y-61043094D01*
X156484213Y-60981938D01*
X156484203Y-60981936D01*
X156248801Y-60961341D01*
X156248799Y-60961341D01*
X156013396Y-60981936D01*
X156013386Y-60981938D01*
X155785144Y-61043094D01*
X155785135Y-61043098D01*
X155570971Y-61142964D01*
X155570969Y-61142965D01*
X155377397Y-61278505D01*
X155210305Y-61445597D01*
X155074765Y-61639169D01*
X155074764Y-61639171D01*
X154974898Y-61853335D01*
X154974894Y-61853344D01*
X154913738Y-62081586D01*
X154913736Y-62081596D01*
X154893141Y-62316999D01*
X154893141Y-62317000D01*
X107688500Y-62317000D01*
X107688500Y-59546005D01*
X143828857Y-59546005D01*
X143849390Y-59793812D01*
X143849392Y-59793824D01*
X143910436Y-60034881D01*
X144010326Y-60262606D01*
X144146333Y-60470782D01*
X144146336Y-60470785D01*
X144314756Y-60653738D01*
X144510991Y-60806474D01*
X144729690Y-60924828D01*
X144964886Y-61005571D01*
X145210165Y-61046500D01*
X145458835Y-61046500D01*
X145704114Y-61005571D01*
X145939310Y-60924828D01*
X146158009Y-60806474D01*
X146354244Y-60653738D01*
X146522664Y-60470785D01*
X146658673Y-60262607D01*
X146758563Y-60034881D01*
X146819608Y-59793821D01*
X146819609Y-59793812D01*
X146838735Y-59563000D01*
X150155341Y-59563000D01*
X150175936Y-59798403D01*
X150175938Y-59798413D01*
X150237094Y-60026655D01*
X150237096Y-60026659D01*
X150237097Y-60026663D01*
X150336965Y-60240830D01*
X150336967Y-60240834D01*
X150352213Y-60262607D01*
X150472505Y-60434401D01*
X150639599Y-60601495D01*
X150714210Y-60653738D01*
X150833165Y-60737032D01*
X150833167Y-60737033D01*
X150833170Y-60737035D01*
X151047337Y-60836903D01*
X151275592Y-60898063D01*
X151463918Y-60914539D01*
X151510999Y-60918659D01*
X151511000Y-60918659D01*
X151511001Y-60918659D01*
X151550234Y-60915226D01*
X151746408Y-60898063D01*
X151974663Y-60836903D01*
X152188830Y-60737035D01*
X152382401Y-60601495D01*
X152549495Y-60434401D01*
X152685035Y-60240830D01*
X152784903Y-60026663D01*
X152846063Y-59798408D01*
X152866659Y-59563000D01*
X152846063Y-59327592D01*
X152784903Y-59099337D01*
X152685035Y-58885171D01*
X152549495Y-58691599D01*
X152549494Y-58691597D01*
X152382402Y-58524506D01*
X152382396Y-58524501D01*
X152196842Y-58394575D01*
X152153217Y-58339998D01*
X152146023Y-58270500D01*
X152177546Y-58208145D01*
X152196842Y-58191425D01*
X152231483Y-58167169D01*
X152382401Y-58061495D01*
X152549495Y-57894401D01*
X152685035Y-57700830D01*
X152784903Y-57486663D01*
X152846063Y-57258408D01*
X152866659Y-57023000D01*
X152846063Y-56787592D01*
X152784903Y-56559337D01*
X152686354Y-56348000D01*
X155266615Y-56348000D01*
X155285303Y-56525805D01*
X155285304Y-56525807D01*
X155340547Y-56695829D01*
X155340550Y-56695835D01*
X155429941Y-56850665D01*
X155471612Y-56896946D01*
X155549564Y-56983521D01*
X155549567Y-56983523D01*
X155549570Y-56983526D01*
X155694207Y-57088612D01*
X155857533Y-57161329D01*
X156032409Y-57198500D01*
X156032410Y-57198500D01*
X156211189Y-57198500D01*
X156211191Y-57198500D01*
X156386067Y-57161329D01*
X156549393Y-57088612D01*
X156694030Y-56983526D01*
X156813659Y-56850665D01*
X156903050Y-56695835D01*
X156958297Y-56525803D01*
X156976985Y-56348000D01*
X167077615Y-56348000D01*
X167096303Y-56525805D01*
X167096304Y-56525807D01*
X167151547Y-56695829D01*
X167151550Y-56695835D01*
X167240941Y-56850665D01*
X167282612Y-56896946D01*
X167360564Y-56983521D01*
X167360567Y-56983523D01*
X167360570Y-56983526D01*
X167505207Y-57088612D01*
X167668533Y-57161329D01*
X167843409Y-57198500D01*
X167843410Y-57198500D01*
X168022189Y-57198500D01*
X168022191Y-57198500D01*
X168197067Y-57161329D01*
X168360393Y-57088612D01*
X168505030Y-56983526D01*
X168624659Y-56850665D01*
X168714050Y-56695835D01*
X168769297Y-56525803D01*
X168787985Y-56348000D01*
X168769297Y-56170197D01*
X168714050Y-56000165D01*
X168624659Y-55845335D01*
X168561779Y-55775500D01*
X168505035Y-55712478D01*
X168505032Y-55712476D01*
X168505031Y-55712475D01*
X168505030Y-55712474D01*
X168360393Y-55607388D01*
X168197067Y-55534671D01*
X168197065Y-55534670D01*
X168069394Y-55507533D01*
X168022191Y-55497500D01*
X167843409Y-55497500D01*
X167812754Y-55504015D01*
X167668533Y-55534670D01*
X167668528Y-55534672D01*
X167505208Y-55607387D01*
X167360568Y-55712475D01*
X167240940Y-55845336D01*
X167151550Y-56000164D01*
X167151547Y-56000170D01*
X167096304Y-56170192D01*
X167096303Y-56170194D01*
X167077615Y-56348000D01*
X156976985Y-56348000D01*
X156958297Y-56170197D01*
X156903050Y-56000165D01*
X156813659Y-55845335D01*
X156750779Y-55775500D01*
X156694035Y-55712478D01*
X156694032Y-55712476D01*
X156694031Y-55712475D01*
X156694030Y-55712474D01*
X156549393Y-55607388D01*
X156386067Y-55534671D01*
X156386065Y-55534670D01*
X156258394Y-55507533D01*
X156211191Y-55497500D01*
X156032409Y-55497500D01*
X156001754Y-55504015D01*
X155857533Y-55534670D01*
X155857528Y-55534672D01*
X155694208Y-55607387D01*
X155549568Y-55712475D01*
X155429940Y-55845336D01*
X155340550Y-56000164D01*
X155340547Y-56000170D01*
X155285304Y-56170192D01*
X155285303Y-56170194D01*
X155266615Y-56348000D01*
X152686354Y-56348000D01*
X152685035Y-56345171D01*
X152562518Y-56170197D01*
X152549494Y-56151597D01*
X152382402Y-55984506D01*
X152382396Y-55984501D01*
X152196842Y-55854575D01*
X152153217Y-55799998D01*
X152146023Y-55730500D01*
X152177546Y-55668145D01*
X152196842Y-55651425D01*
X152259733Y-55607388D01*
X152382401Y-55521495D01*
X152549495Y-55354401D01*
X152685035Y-55160830D01*
X152784903Y-54946663D01*
X152846063Y-54718408D01*
X152866659Y-54483000D01*
X152846063Y-54247592D01*
X152784903Y-54019337D01*
X152685035Y-53805171D01*
X152677082Y-53793812D01*
X152549494Y-53611597D01*
X152382402Y-53444506D01*
X152382395Y-53444501D01*
X152188834Y-53308967D01*
X152188830Y-53308965D01*
X152188828Y-53308964D01*
X151974663Y-53209097D01*
X151974659Y-53209096D01*
X151974655Y-53209094D01*
X151746413Y-53147938D01*
X151746403Y-53147936D01*
X151511001Y-53127341D01*
X151510999Y-53127341D01*
X151275596Y-53147936D01*
X151275586Y-53147938D01*
X151047344Y-53209094D01*
X151047335Y-53209098D01*
X150833171Y-53308964D01*
X150833169Y-53308965D01*
X150639597Y-53444505D01*
X150472505Y-53611597D01*
X150336965Y-53805169D01*
X150336964Y-53805171D01*
X150237098Y-54019335D01*
X150237094Y-54019344D01*
X150175938Y-54247586D01*
X150175936Y-54247596D01*
X150155341Y-54482999D01*
X150155341Y-54483000D01*
X150175936Y-54718403D01*
X150175938Y-54718413D01*
X150237094Y-54946655D01*
X150237096Y-54946659D01*
X150237097Y-54946663D01*
X150283652Y-55046500D01*
X150336965Y-55160830D01*
X150336967Y-55160834D01*
X150472501Y-55354395D01*
X150472506Y-55354402D01*
X150639597Y-55521493D01*
X150639603Y-55521498D01*
X150825158Y-55651425D01*
X150868783Y-55706002D01*
X150875977Y-55775500D01*
X150844454Y-55837855D01*
X150825158Y-55854575D01*
X150639597Y-55984505D01*
X150472505Y-56151597D01*
X150336965Y-56345169D01*
X150336964Y-56345171D01*
X150237098Y-56559335D01*
X150237094Y-56559344D01*
X150175938Y-56787586D01*
X150175936Y-56787596D01*
X150155341Y-57022999D01*
X150155341Y-57023000D01*
X150175936Y-57258403D01*
X150175938Y-57258413D01*
X150237094Y-57486655D01*
X150237096Y-57486659D01*
X150237097Y-57486663D01*
X150336965Y-57700830D01*
X150336967Y-57700834D01*
X150472501Y-57894395D01*
X150472506Y-57894402D01*
X150639597Y-58061493D01*
X150639603Y-58061498D01*
X150825158Y-58191425D01*
X150868783Y-58246002D01*
X150875977Y-58315500D01*
X150844454Y-58377855D01*
X150825158Y-58394575D01*
X150639597Y-58524505D01*
X150472505Y-58691597D01*
X150336965Y-58885169D01*
X150336964Y-58885171D01*
X150237098Y-59099335D01*
X150237094Y-59099344D01*
X150175938Y-59327586D01*
X150175936Y-59327596D01*
X150155341Y-59562999D01*
X150155341Y-59563000D01*
X146838735Y-59563000D01*
X146840143Y-59546005D01*
X146840143Y-59545994D01*
X146819609Y-59298187D01*
X146819607Y-59298175D01*
X146758563Y-59057118D01*
X146658673Y-58829393D01*
X146522666Y-58621217D01*
X146433636Y-58524505D01*
X146354244Y-58438262D01*
X146158009Y-58285526D01*
X146158007Y-58285525D01*
X146158006Y-58285524D01*
X145939311Y-58167172D01*
X145939302Y-58167169D01*
X145704116Y-58086429D01*
X145458835Y-58045500D01*
X145210165Y-58045500D01*
X144964883Y-58086429D01*
X144729697Y-58167169D01*
X144729688Y-58167172D01*
X144510993Y-58285524D01*
X144314757Y-58438261D01*
X144146333Y-58621217D01*
X144010326Y-58829393D01*
X143910436Y-59057118D01*
X143849392Y-59298175D01*
X143849390Y-59298187D01*
X143828857Y-59545994D01*
X143828857Y-59546005D01*
X107688500Y-59546005D01*
X107688500Y-53546005D01*
X110228857Y-53546005D01*
X110249390Y-53793812D01*
X110249392Y-53793824D01*
X110310436Y-54034881D01*
X110410326Y-54262606D01*
X110546333Y-54470782D01*
X110546336Y-54470785D01*
X110714756Y-54653738D01*
X110910991Y-54806474D01*
X111129690Y-54924828D01*
X111364886Y-55005571D01*
X111610165Y-55046500D01*
X111858835Y-55046500D01*
X112104114Y-55005571D01*
X112339310Y-54924828D01*
X112558009Y-54806474D01*
X112754244Y-54653738D01*
X112922664Y-54470785D01*
X113058673Y-54262607D01*
X113158563Y-54034881D01*
X113219608Y-53793821D01*
X113219609Y-53793812D01*
X113240143Y-53546005D01*
X113240143Y-53545994D01*
X113219609Y-53298187D01*
X113219607Y-53298175D01*
X113158563Y-53057118D01*
X113058673Y-52829393D01*
X112922666Y-52621217D01*
X112901057Y-52597744D01*
X112754244Y-52438262D01*
X112558009Y-52285526D01*
X112558007Y-52285525D01*
X112558006Y-52285524D01*
X112339311Y-52167172D01*
X112339302Y-52167169D01*
X112104116Y-52086429D01*
X111858835Y-52045500D01*
X111610165Y-52045500D01*
X111364883Y-52086429D01*
X111129697Y-52167169D01*
X111129688Y-52167172D01*
X110910993Y-52285524D01*
X110714757Y-52438261D01*
X110546333Y-52621217D01*
X110410326Y-52829393D01*
X110310436Y-53057118D01*
X110249392Y-53298175D01*
X110249390Y-53298187D01*
X110228857Y-53545994D01*
X110228857Y-53546005D01*
X107688500Y-53546005D01*
X107688500Y-47546005D01*
X110228857Y-47546005D01*
X110249390Y-47793812D01*
X110249392Y-47793824D01*
X110310436Y-48034881D01*
X110410326Y-48262606D01*
X110546333Y-48470782D01*
X110546336Y-48470785D01*
X110714756Y-48653738D01*
X110910991Y-48806474D01*
X111129690Y-48924828D01*
X111364886Y-49005571D01*
X111610165Y-49046500D01*
X111858835Y-49046500D01*
X112104114Y-49005571D01*
X112339310Y-48924828D01*
X112558009Y-48806474D01*
X112754244Y-48653738D01*
X112922664Y-48470785D01*
X113058673Y-48262607D01*
X113066396Y-48245000D01*
X151530815Y-48245000D01*
X151549503Y-48422805D01*
X151549504Y-48422807D01*
X151604747Y-48592829D01*
X151604750Y-48592835D01*
X151694141Y-48747665D01*
X151735812Y-48793946D01*
X151813764Y-48880521D01*
X151813767Y-48880523D01*
X151813770Y-48880526D01*
X151958407Y-48985612D01*
X152121733Y-49058329D01*
X152296609Y-49095500D01*
X152296610Y-49095500D01*
X152475389Y-49095500D01*
X152475391Y-49095500D01*
X152650267Y-49058329D01*
X152813593Y-48985612D01*
X152958230Y-48880526D01*
X153077859Y-48747665D01*
X153167250Y-48592835D01*
X153222497Y-48422803D01*
X153241185Y-48245000D01*
X153238557Y-48220000D01*
X153830815Y-48220000D01*
X153849503Y-48397805D01*
X153849504Y-48397807D01*
X153904747Y-48567829D01*
X153904750Y-48567835D01*
X153994141Y-48722665D01*
X154035812Y-48768946D01*
X154113764Y-48855521D01*
X154113767Y-48855523D01*
X154113770Y-48855526D01*
X154258407Y-48960612D01*
X154421733Y-49033329D01*
X154596609Y-49070500D01*
X154596610Y-49070500D01*
X154775389Y-49070500D01*
X154775391Y-49070500D01*
X154950267Y-49033329D01*
X155113593Y-48960612D01*
X155258230Y-48855526D01*
X155377859Y-48722665D01*
X155467250Y-48567835D01*
X155522497Y-48397803D01*
X155541185Y-48220000D01*
X155522497Y-48042197D01*
X155467250Y-47872165D01*
X155377859Y-47717335D01*
X155331003Y-47665296D01*
X155258235Y-47584478D01*
X155258232Y-47584476D01*
X155258231Y-47584475D01*
X155258230Y-47584474D01*
X155113593Y-47479388D01*
X154950267Y-47406671D01*
X154950265Y-47406670D01*
X154822594Y-47379533D01*
X154775391Y-47369500D01*
X154596609Y-47369500D01*
X154565954Y-47376015D01*
X154421733Y-47406670D01*
X154421728Y-47406672D01*
X154258408Y-47479387D01*
X154113768Y-47584475D01*
X153994140Y-47717336D01*
X153904750Y-47872164D01*
X153904747Y-47872170D01*
X153849504Y-48042192D01*
X153849503Y-48042194D01*
X153830815Y-48220000D01*
X153238557Y-48220000D01*
X153222497Y-48067197D01*
X153167250Y-47897165D01*
X153077859Y-47742335D01*
X153031003Y-47690296D01*
X152958235Y-47609478D01*
X152958232Y-47609476D01*
X152958231Y-47609475D01*
X152958230Y-47609474D01*
X152813593Y-47504388D01*
X152650267Y-47431671D01*
X152650265Y-47431670D01*
X152522594Y-47404533D01*
X152475391Y-47394500D01*
X152296609Y-47394500D01*
X152265954Y-47401015D01*
X152121733Y-47431670D01*
X152121728Y-47431672D01*
X151958408Y-47504387D01*
X151813768Y-47609475D01*
X151694140Y-47742336D01*
X151604750Y-47897164D01*
X151604747Y-47897170D01*
X151549504Y-48067192D01*
X151549503Y-48067194D01*
X151530815Y-48245000D01*
X113066396Y-48245000D01*
X113158563Y-48034881D01*
X113219608Y-47793821D01*
X113223874Y-47742336D01*
X113240143Y-47546005D01*
X113240143Y-47545994D01*
X113219609Y-47298187D01*
X113219607Y-47298175D01*
X113158563Y-47057118D01*
X113058673Y-46829393D01*
X112922666Y-46621217D01*
X112901057Y-46597744D01*
X112754244Y-46438262D01*
X112558009Y-46285526D01*
X112558007Y-46285525D01*
X112558006Y-46285524D01*
X112339311Y-46167172D01*
X112339302Y-46167169D01*
X112104116Y-46086429D01*
X111858835Y-46045500D01*
X111610165Y-46045500D01*
X111364883Y-46086429D01*
X111129697Y-46167169D01*
X111129688Y-46167172D01*
X110910993Y-46285524D01*
X110714757Y-46438261D01*
X110546333Y-46621217D01*
X110410326Y-46829393D01*
X110310436Y-47057118D01*
X110249392Y-47298175D01*
X110249390Y-47298187D01*
X110228857Y-47545994D01*
X110228857Y-47546005D01*
X107688500Y-47546005D01*
X107688500Y-44729400D01*
X164117815Y-44729400D01*
X164136503Y-44907205D01*
X164136504Y-44907207D01*
X164191747Y-45077229D01*
X164191750Y-45077235D01*
X164281141Y-45232065D01*
X164322812Y-45278346D01*
X164400764Y-45364921D01*
X164400767Y-45364923D01*
X164400770Y-45364926D01*
X164545407Y-45470012D01*
X164708733Y-45542729D01*
X164883609Y-45579900D01*
X164883610Y-45579900D01*
X165062389Y-45579900D01*
X165062391Y-45579900D01*
X165237267Y-45542729D01*
X165400593Y-45470012D01*
X165545230Y-45364926D01*
X165664859Y-45232065D01*
X165754250Y-45077235D01*
X165809497Y-44907203D01*
X165828185Y-44729400D01*
X165809497Y-44551597D01*
X165754250Y-44381565D01*
X165664859Y-44226735D01*
X165618003Y-44174696D01*
X165545235Y-44093878D01*
X165545232Y-44093876D01*
X165545231Y-44093875D01*
X165545230Y-44093874D01*
X165400593Y-43988788D01*
X165237267Y-43916071D01*
X165237265Y-43916070D01*
X165109594Y-43888933D01*
X165062391Y-43878900D01*
X164883609Y-43878900D01*
X164852954Y-43885415D01*
X164708733Y-43916070D01*
X164708728Y-43916072D01*
X164545408Y-43988787D01*
X164400768Y-44093875D01*
X164281140Y-44226736D01*
X164191750Y-44381564D01*
X164191747Y-44381570D01*
X164136504Y-44551592D01*
X164136503Y-44551594D01*
X164117815Y-44729400D01*
X107688500Y-44729400D01*
X107688500Y-41546005D01*
X143829359Y-41546005D01*
X143849885Y-41793729D01*
X143849887Y-41793738D01*
X143910912Y-42034717D01*
X144010766Y-42262364D01*
X144111064Y-42415882D01*
X144851423Y-41675523D01*
X144875007Y-41755844D01*
X144952739Y-41876798D01*
X145061400Y-41970952D01*
X145192185Y-42030680D01*
X145201966Y-42032086D01*
X144464442Y-42769609D01*
X144511268Y-42806055D01*
X144511270Y-42806056D01*
X144729885Y-42924364D01*
X144729896Y-42924369D01*
X144965006Y-43005083D01*
X145210207Y-43046000D01*
X145458793Y-43046000D01*
X145703993Y-43005083D01*
X145939103Y-42924369D01*
X145939114Y-42924364D01*
X146157728Y-42806057D01*
X146157731Y-42806055D01*
X146204556Y-42769609D01*
X145467033Y-42032086D01*
X145476815Y-42030680D01*
X145607600Y-41970952D01*
X145716261Y-41876798D01*
X145793993Y-41755844D01*
X145817576Y-41675524D01*
X146557934Y-42415882D01*
X146658231Y-42262369D01*
X146758087Y-42034717D01*
X146819112Y-41793738D01*
X146819114Y-41793729D01*
X146839641Y-41546005D01*
X146839641Y-41545994D01*
X146819114Y-41298270D01*
X146819112Y-41298261D01*
X146758087Y-41057282D01*
X146658231Y-40829630D01*
X146557934Y-40676116D01*
X145817576Y-41416475D01*
X145793993Y-41336156D01*
X145716261Y-41215202D01*
X145607600Y-41121048D01*
X145476815Y-41061320D01*
X145467034Y-41059913D01*
X146204557Y-40322390D01*
X146204556Y-40322389D01*
X146157729Y-40285943D01*
X145939114Y-40167635D01*
X145939103Y-40167630D01*
X145703993Y-40086916D01*
X145458793Y-40046000D01*
X145210207Y-40046000D01*
X144965006Y-40086916D01*
X144729896Y-40167630D01*
X144729890Y-40167632D01*
X144511261Y-40285949D01*
X144464442Y-40322388D01*
X144464442Y-40322390D01*
X145201966Y-41059913D01*
X145192185Y-41061320D01*
X145061400Y-41121048D01*
X144952739Y-41215202D01*
X144875007Y-41336156D01*
X144851423Y-41416475D01*
X144111064Y-40676116D01*
X144010767Y-40829632D01*
X143910912Y-41057282D01*
X143849887Y-41298261D01*
X143849885Y-41298270D01*
X143829359Y-41545994D01*
X143829359Y-41546005D01*
X107688500Y-41546005D01*
X107688500Y-40096051D01*
X107688763Y-40087972D01*
X107704331Y-39850457D01*
X107706445Y-39834405D01*
X107752083Y-39604969D01*
X107756276Y-39589322D01*
X107831471Y-39367803D01*
X107837667Y-39352843D01*
X107941134Y-39143033D01*
X107949237Y-39128998D01*
X108079204Y-38934490D01*
X108089061Y-38921643D01*
X108243304Y-38745762D01*
X108254762Y-38734304D01*
X108430643Y-38580061D01*
X108443490Y-38570204D01*
X108637998Y-38440237D01*
X108652033Y-38432134D01*
X108861843Y-38328667D01*
X108876803Y-38322471D01*
X109098322Y-38247276D01*
X109113969Y-38243083D01*
X109343405Y-38197445D01*
X109359457Y-38195331D01*
X109596971Y-38179764D01*
X109605052Y-38179500D01*
X109666892Y-38179500D01*
X182344908Y-38179500D01*
X182406748Y-38179500D01*
X182414828Y-38179764D01*
G37*
%TD.AperFunction*%
%TD*%
M02*
