M48
; DRILL file {KiCad 7.0.10} date Wed Jun 26 03:26:12 2024
; FORMAT={-:-/ absolute / metric / decimal}
; #@! TF.CreationDate,2024-06-26T03:26:12-03:00
; #@! TF.GenerationSoftware,Kicad,Pcbnew,7.0.10
; #@! TF.FileFunction,Plated,1,4,PTH
FMAT,2
METRIC
; #@! TA.AperFunction,Plated,PTH,ViaDrill
T1C0.400
; #@! TA.AperFunction,Plated,PTH,ComponentDrill
T2C1.000
; #@! TA.AperFunction,Plated,PTH,ComponentDrill
T3C1.520
%
G90
G05
T1
X134.024Y-71.08
X134.024Y-72.35
X134.024Y-73.62
X134.024Y-88.86
X134.024Y-90.13
X134.024Y-91.4
X134.024Y-106.64
X134.024Y-107.91
X134.024Y-109.18
X135.04Y-76.16
X135.04Y-93.94
X135.04Y-111.72
X139.104Y-71.08
X139.104Y-88.86
X139.104Y-106.64
X140.755Y-76.16
X140.755Y-93.94
X140.755Y-111.72
X143.011Y-76.16
X143.661Y-92.837
X144.311Y-94.107
X144.961Y-92.837
X145.454Y-106.005
X145.581Y-95.377
X147.105Y-69.556
X147.613Y-110.958
X147.613Y-116.038
X148.883Y-116.038
X149.01Y-70.318
X150.086Y-48.245
X150.153Y-116.038
X150.915Y-71.08
X152.386Y-48.245
X154.686Y-48.22
X155.131Y-68.794
X155.614Y-106.005
X156.122Y-56.348
X157.671Y-67.905
X157.773Y-110.958
X157.773Y-116.038
X158.941Y-67.016
X159.043Y-116.038
X160.313Y-116.038
X161.202Y-54.732
X162.484Y-40.284
X162.751Y-76.16
X164.973Y-44.729
X165.774Y-106.005
X165.901Y-92.837
X165.901Y-94.107
X165.901Y-95.377
X166.917Y-95.758
X167.679Y-96.52
X167.924Y-53.038
X167.933Y-56.348
X167.933Y-110.958
X167.933Y-116.038
X168.187Y-67.016
X168.187Y-70.572
X168.187Y-74.128
X168.213Y-77.684
X168.213Y-81.24
X168.213Y-84.796
X168.213Y-88.352
X168.441Y-97.282
X169.203Y-98.044
X169.203Y-116.038
X170.473Y-116.038
X172.72Y-95.758
X175.26Y-96.52
X175.934Y-67.016
X175.934Y-70.572
X175.934Y-106.005
X175.94Y-74.128
X175.947Y-77.684
X175.947Y-81.24
X175.947Y-84.796
X175.947Y-88.352
X177.546Y-90.765
X177.8Y-97.282
X178.093Y-110.958
X178.093Y-116.038
X179.363Y-116.038
X180.34Y-98.044
X180.633Y-116.038
X182.372Y-90.765
X183.681Y-67.016
X183.681Y-70.572
X183.681Y-74.128
X183.707Y-77.684
X183.707Y-81.24
X183.707Y-84.796
X183.707Y-88.352
T2
X111.734Y-47.546
X111.734Y-53.546
X118.784Y-65.238
X118.784Y-77.938
X118.784Y-83.145
X118.784Y-95.845
X118.784Y-100.925
X118.784Y-113.625
X128.784Y-65.238
X128.784Y-77.938
X128.784Y-83.145
X128.784Y-95.845
X128.784Y-100.925
X128.784Y-113.625
X145.334Y-41.546
X145.334Y-59.546
X147.613Y-67.524
X147.613Y-73.112
X150.153Y-67.524
X150.153Y-73.112
X151.511Y-54.483
X151.511Y-57.023
X151.511Y-59.563
X152.693Y-67.524
X152.693Y-73.112
X156.249Y-62.317
X158.789Y-62.317
X161.329Y-62.317
X163.869Y-62.317
X166.409Y-62.317
X168.949Y-62.317
X172.72Y-93.091
X172.72Y-100.076
X175.26Y-100.076
X177.8Y-100.076
X180.34Y-100.076
T3
X111.252Y-120.483
X116.332Y-120.483
X121.412Y-120.483
X126.492Y-120.483
X145.708Y-120.483
X150.788Y-120.483
X155.868Y-120.483
X160.948Y-120.483
X166.028Y-120.483
X171.108Y-120.483
X176.188Y-120.483
X181.268Y-120.483
M30
