%TF.GenerationSoftware,KiCad,Pcbnew,7.0.10*%
%TF.CreationDate,2024-06-26T03:26:06-03:00*%
%TF.ProjectId,board,626f6172-642e-46b6-9963-61645f706362,1.3*%
%TF.SameCoordinates,Original*%
%TF.FileFunction,Soldermask,Top*%
%TF.FilePolarity,Negative*%
%FSLAX46Y46*%
G04 Gerber Fmt 4.6, Leading zero omitted, Abs format (unit mm)*
G04 Created by KiCad (PCBNEW 7.0.10) date 2024-06-26 03:26:06*
%MOMM*%
%LPD*%
G01*
G04 APERTURE LIST*
G04 Aperture macros list*
%AMRoundRect*
0 Rectangle with rounded corners*
0 $1 Rounding radius*
0 $2 $3 $4 $5 $6 $7 $8 $9 X,Y pos of 4 corners*
0 Add a 4 corners polygon primitive as box body*
4,1,4,$2,$3,$4,$5,$6,$7,$8,$9,$2,$3,0*
0 Add four circle primitives for the rounded corners*
1,1,$1+$1,$2,$3*
1,1,$1+$1,$4,$5*
1,1,$1+$1,$6,$7*
1,1,$1+$1,$8,$9*
0 Add four rect primitives between the rounded corners*
20,1,$1+$1,$2,$3,$4,$5,0*
20,1,$1+$1,$4,$5,$6,$7,0*
20,1,$1+$1,$6,$7,$8,$9,0*
20,1,$1+$1,$8,$9,$2,$3,0*%
G04 Aperture macros list end*
%ADD10RoundRect,0.250000X0.925000X-0.412500X0.925000X0.412500X-0.925000X0.412500X-0.925000X-0.412500X0*%
%ADD11RoundRect,0.250000X0.925000X-0.787500X0.925000X0.787500X-0.925000X0.787500X-0.925000X-0.787500X0*%
%ADD12RoundRect,0.150000X-0.725000X-0.150000X0.725000X-0.150000X0.725000X0.150000X-0.725000X0.150000X0*%
%ADD13RoundRect,0.250000X0.500000X1.100000X-0.500000X1.100000X-0.500000X-1.100000X0.500000X-1.100000X0*%
%ADD14RoundRect,0.250000X-1.075000X0.312500X-1.075000X-0.312500X1.075000X-0.312500X1.075000X0.312500X0*%
%ADD15RoundRect,0.150000X0.150000X-0.725000X0.150000X0.725000X-0.150000X0.725000X-0.150000X-0.725000X0*%
%ADD16O,1.712000X1.712000*%
%ADD17C,1.712000*%
%ADD18RoundRect,0.250000X-0.312500X-1.075000X0.312500X-1.075000X0.312500X1.075000X-0.312500X1.075000X0*%
%ADD19O,2.000000X2.000000*%
%ADD20C,2.000000*%
%ADD21RoundRect,0.250000X0.312500X1.075000X-0.312500X1.075000X-0.312500X-1.075000X0.312500X-1.075000X0*%
%ADD22RoundRect,0.102000X0.750000X0.450000X-0.750000X0.450000X-0.750000X-0.450000X0.750000X-0.450000X0*%
%ADD23RoundRect,0.102000X0.450000X0.750000X-0.450000X0.750000X-0.450000X-0.750000X0.450000X-0.750000X0*%
%ADD24RoundRect,0.102000X0.500000X0.500000X-0.500000X0.500000X-0.500000X-0.500000X0.500000X-0.500000X0*%
%ADD25O,3.000000X3.000000*%
%ADD26C,3.000000*%
%ADD27O,1.700000X1.700000*%
%ADD28R,1.500000X2.000000*%
%ADD29R,3.800000X2.000000*%
G04 APERTURE END LIST*
D10*
%TO.C,C2*%
X164973000Y-43357500D03*
X164973000Y-40282500D03*
%TD*%
D11*
%TO.C,C1*%
X159766000Y-45212000D03*
X159766000Y-40287000D03*
%TD*%
D12*
%TO.C,AMP3*%
X135512800Y-105370000D03*
X135512800Y-106640000D03*
X135512800Y-107910000D03*
X135512800Y-109180000D03*
X140662800Y-109180000D03*
X140662800Y-107910000D03*
X140662800Y-106640000D03*
X140662800Y-105370000D03*
%TD*%
D13*
%TO.C,DZ14*%
X174409800Y-77684000D03*
X169609800Y-77684000D03*
%TD*%
D14*
%TO.C,R9*%
X143802800Y-110511500D03*
X143802800Y-113436500D03*
%TD*%
D15*
%TO.C,AMP8*%
X156121800Y-54732000D03*
X157391800Y-54732000D03*
X158661800Y-54732000D03*
X159931800Y-54732000D03*
X159931800Y-49582000D03*
X158661800Y-49582000D03*
X157391800Y-49582000D03*
X156121800Y-49582000D03*
%TD*%
D13*
%TO.C,DZ2*%
X174414800Y-67016000D03*
X169614800Y-67016000D03*
%TD*%
D16*
%TO.C,TP2*%
X118783800Y-83145000D03*
D17*
X118783800Y-95845000D03*
X128783800Y-95845000D03*
X128783800Y-83145000D03*
%TD*%
D18*
%TO.C,R7*%
X136625300Y-85050000D03*
X139550300Y-85050000D03*
%TD*%
D19*
%TO.C,PS1*%
X111734500Y-47546000D03*
D20*
X111734500Y-53546000D03*
X145334500Y-41546000D03*
X145334500Y-59546000D03*
%TD*%
D21*
%TO.C,R16*%
X149710300Y-106005000D03*
X146785300Y-106005000D03*
%TD*%
D22*
%TO.C,MCU1*%
X164515800Y-95377000D03*
X164515800Y-94107000D03*
X164515800Y-92837000D03*
X164515800Y-91567000D03*
X164515800Y-90297000D03*
X164515800Y-89027000D03*
X164515800Y-87757000D03*
X164515800Y-86487000D03*
X164515800Y-85217000D03*
X164515800Y-83947000D03*
X164515800Y-82677000D03*
X164515800Y-81407000D03*
X164515800Y-80137000D03*
X164515800Y-78867000D03*
D23*
X162750800Y-77617000D03*
X161480800Y-77617000D03*
X160210800Y-77617000D03*
X158940800Y-77617000D03*
X157670800Y-77617000D03*
X156400800Y-77617000D03*
X155130800Y-77617000D03*
X153860800Y-77617000D03*
X152590800Y-77617000D03*
X151320800Y-77617000D03*
X150050800Y-77617000D03*
X148780800Y-77617000D03*
D22*
X147015800Y-78867000D03*
X147015800Y-80137000D03*
X147015800Y-81407000D03*
X147015800Y-82677000D03*
X147015800Y-83947000D03*
X147015800Y-85217000D03*
X147015800Y-86487000D03*
X147015800Y-87757000D03*
X147015800Y-89027000D03*
X147015800Y-90297000D03*
X147015800Y-91567000D03*
X147015800Y-92837000D03*
X147015800Y-94107000D03*
X147015800Y-95377000D03*
D24*
X157125800Y-90027000D03*
X158625800Y-90027000D03*
X155625800Y-90027000D03*
X158625800Y-88527000D03*
X157125800Y-88527000D03*
X155625800Y-88527000D03*
X158625800Y-91527000D03*
X157125800Y-91527000D03*
X155625800Y-91527000D03*
%TD*%
D15*
%TO.C,AMP6*%
X166662800Y-114514000D03*
X167932800Y-114514000D03*
X169202800Y-114514000D03*
X170472800Y-114514000D03*
X170472800Y-109364000D03*
X169202800Y-109364000D03*
X167932800Y-109364000D03*
X166662800Y-109364000D03*
%TD*%
D13*
%TO.C,DZ13*%
X182270800Y-77684000D03*
X177470800Y-77684000D03*
%TD*%
D15*
%TO.C,AMP4*%
X146342800Y-114514000D03*
X147612800Y-114514000D03*
X148882800Y-114514000D03*
X150152800Y-114514000D03*
X150152800Y-109364000D03*
X148882800Y-109364000D03*
X147612800Y-109364000D03*
X146342800Y-109364000D03*
%TD*%
D21*
%TO.C,R17*%
X159870300Y-106005000D03*
X156945300Y-106005000D03*
%TD*%
D13*
%TO.C,DZ6*%
X174409800Y-74128000D03*
X169609800Y-74128000D03*
%TD*%
%TO.C,DZ5*%
X182257800Y-74128000D03*
X177457800Y-74128000D03*
%TD*%
D16*
%TO.C,TP1*%
X118783800Y-65238000D03*
D17*
X118783800Y-77938000D03*
X128783800Y-77938000D03*
X128783800Y-65238000D03*
%TD*%
D25*
%TO.C,J6*%
X176187800Y-120483000D03*
D26*
X181267800Y-120483000D03*
%TD*%
D14*
%TO.C,R4*%
X111671800Y-83145000D03*
X111671800Y-86070000D03*
%TD*%
D16*
%TO.C,TP3*%
X118783800Y-100925000D03*
D17*
X118783800Y-113625000D03*
X128783800Y-113625000D03*
X128783800Y-100925000D03*
%TD*%
D27*
%TO.C,P1*%
X147612800Y-73112000D03*
X150152800Y-73112000D03*
X152692800Y-73112000D03*
%TD*%
D18*
%TO.C,R2*%
X163676300Y-53046000D03*
X166601300Y-53046000D03*
%TD*%
D21*
%TO.C,R18*%
X170030300Y-106005000D03*
X167105300Y-106005000D03*
%TD*%
D14*
%TO.C,R11*%
X164122800Y-110511500D03*
X164122800Y-113436500D03*
%TD*%
D13*
%TO.C,DZ11*%
X182270800Y-81240000D03*
X177470800Y-81240000D03*
%TD*%
D27*
%TO.C,SW1*%
X151511000Y-54483000D03*
X151511000Y-57023000D03*
X151511000Y-59563000D03*
%TD*%
D18*
%TO.C,R6*%
X136625300Y-67270000D03*
X139550300Y-67270000D03*
%TD*%
D13*
%TO.C,DZ3*%
X182270800Y-70572000D03*
X177470800Y-70572000D03*
%TD*%
D14*
%TO.C,R10*%
X153962800Y-110511500D03*
X153962800Y-113436500D03*
%TD*%
%TO.C,R3*%
X111671800Y-65238000D03*
X111671800Y-68163000D03*
%TD*%
%TO.C,R12*%
X174282800Y-110511500D03*
X174282800Y-113436500D03*
%TD*%
D13*
%TO.C,DZ12*%
X174409800Y-81240000D03*
X169609800Y-81240000D03*
%TD*%
D25*
%TO.C,J3*%
X145707800Y-120483000D03*
D26*
X150787800Y-120483000D03*
%TD*%
D25*
%TO.C,J1*%
X111252000Y-120483000D03*
D26*
X116332000Y-120483000D03*
%TD*%
D21*
%TO.C,R19*%
X180190300Y-106005000D03*
X177265300Y-106005000D03*
%TD*%
D27*
%TO.C,P4*%
X147612800Y-67524000D03*
X150152800Y-67524000D03*
X152692800Y-67524000D03*
%TD*%
D21*
%TO.C,R15*%
X139550300Y-111720000D03*
X136625300Y-111720000D03*
%TD*%
D13*
%TO.C,DZ9*%
X182270800Y-84796000D03*
X177470800Y-84796000D03*
%TD*%
%TO.C,DZ7*%
X182270800Y-88352000D03*
X177470800Y-88352000D03*
%TD*%
D25*
%TO.C,J5*%
X166027800Y-120483000D03*
D26*
X171107800Y-120483000D03*
%TD*%
D14*
%TO.C,R5*%
X111671800Y-100925000D03*
X111671800Y-103850000D03*
%TD*%
D27*
%TO.C,P5*%
X168948800Y-62317000D03*
X166408800Y-62317000D03*
X163868800Y-62317000D03*
X161328800Y-62317000D03*
X158788800Y-62317000D03*
X156248800Y-62317000D03*
%TD*%
D13*
%TO.C,DZ4*%
X174414800Y-70572000D03*
X169614800Y-70572000D03*
%TD*%
D27*
%TO.C,P3*%
X172720000Y-100076000D03*
X175260000Y-100076000D03*
X177800000Y-100076000D03*
X180340000Y-100076000D03*
%TD*%
D21*
%TO.C,R13*%
X139550300Y-76160000D03*
X136625300Y-76160000D03*
%TD*%
D13*
%TO.C,DZ1*%
X182270800Y-67016000D03*
X177470800Y-67016000D03*
%TD*%
D18*
%TO.C,R8*%
X136625300Y-102830000D03*
X139550300Y-102830000D03*
%TD*%
D25*
%TO.C,J2*%
X121412000Y-120483000D03*
D26*
X126492000Y-120483000D03*
%TD*%
D27*
%TO.C,P2*%
X172720000Y-93091000D03*
%TD*%
D28*
%TO.C,PS2*%
X150086000Y-46315000D03*
X152386000Y-46315000D03*
D29*
X152386000Y-40015000D03*
D28*
X154686000Y-46315000D03*
%TD*%
D21*
%TO.C,R14*%
X139550300Y-93940000D03*
X136625300Y-93940000D03*
%TD*%
D13*
%TO.C,DZ8*%
X174409800Y-88352000D03*
X169609800Y-88352000D03*
%TD*%
%TO.C,DZ10*%
X174409800Y-84796000D03*
X169609800Y-84796000D03*
%TD*%
D15*
%TO.C,AMP7*%
X176822800Y-114514000D03*
X178092800Y-114514000D03*
X179362800Y-114514000D03*
X180632800Y-114514000D03*
X180632800Y-109364000D03*
X179362800Y-109364000D03*
X178092800Y-109364000D03*
X176822800Y-109364000D03*
%TD*%
%TO.C,AMP5*%
X156502800Y-114514000D03*
X157772800Y-114514000D03*
X159042800Y-114514000D03*
X160312800Y-114514000D03*
X160312800Y-109364000D03*
X159042800Y-109364000D03*
X157772800Y-109364000D03*
X156502800Y-109364000D03*
%TD*%
D21*
%TO.C,R1*%
X166601300Y-56348000D03*
X163676300Y-56348000D03*
%TD*%
D25*
%TO.C,J4*%
X155867800Y-120483000D03*
D26*
X160947800Y-120483000D03*
%TD*%
D12*
%TO.C,AMP2*%
X135512800Y-87590000D03*
X135512800Y-88860000D03*
X135512800Y-90130000D03*
X135512800Y-91400000D03*
X140662800Y-91400000D03*
X140662800Y-90130000D03*
X140662800Y-88860000D03*
X140662800Y-87590000D03*
%TD*%
%TO.C,AMP1*%
X135512800Y-69810000D03*
X135512800Y-71080000D03*
X135512800Y-72350000D03*
X135512800Y-73620000D03*
X140662800Y-73620000D03*
X140662800Y-72350000D03*
X140662800Y-71080000D03*
X140662800Y-69810000D03*
%TD*%
M02*
