%TF.GenerationSoftware,KiCad,Pcbnew,7.0.10*%
%TF.CreationDate,2024-06-26T03:26:05-03:00*%
%TF.ProjectId,board,626f6172-642e-46b6-9963-61645f706362,1.3*%
%TF.SameCoordinates,Original*%
%TF.FileFunction,Copper,L1,Top*%
%TF.FilePolarity,Positive*%
%FSLAX46Y46*%
G04 Gerber Fmt 4.6, Leading zero omitted, Abs format (unit mm)*
G04 Created by KiCad (PCBNEW 7.0.10) date 2024-06-26 03:26:05*
%MOMM*%
%LPD*%
G01*
G04 APERTURE LIST*
G04 Aperture macros list*
%AMRoundRect*
0 Rectangle with rounded corners*
0 $1 Rounding radius*
0 $2 $3 $4 $5 $6 $7 $8 $9 X,Y pos of 4 corners*
0 Add a 4 corners polygon primitive as box body*
4,1,4,$2,$3,$4,$5,$6,$7,$8,$9,$2,$3,0*
0 Add four circle primitives for the rounded corners*
1,1,$1+$1,$2,$3*
1,1,$1+$1,$4,$5*
1,1,$1+$1,$6,$7*
1,1,$1+$1,$8,$9*
0 Add four rect primitives between the rounded corners*
20,1,$1+$1,$2,$3,$4,$5,0*
20,1,$1+$1,$4,$5,$6,$7,0*
20,1,$1+$1,$6,$7,$8,$9,0*
20,1,$1+$1,$8,$9,$2,$3,0*%
G04 Aperture macros list end*
%TA.AperFunction,SMDPad,CuDef*%
%ADD10RoundRect,0.250000X0.925000X-0.412500X0.925000X0.412500X-0.925000X0.412500X-0.925000X-0.412500X0*%
%TD*%
%TA.AperFunction,SMDPad,CuDef*%
%ADD11RoundRect,0.250000X0.925000X-0.787500X0.925000X0.787500X-0.925000X0.787500X-0.925000X-0.787500X0*%
%TD*%
%TA.AperFunction,SMDPad,CuDef*%
%ADD12RoundRect,0.150000X-0.725000X-0.150000X0.725000X-0.150000X0.725000X0.150000X-0.725000X0.150000X0*%
%TD*%
%TA.AperFunction,SMDPad,CuDef*%
%ADD13RoundRect,0.250000X0.500000X1.100000X-0.500000X1.100000X-0.500000X-1.100000X0.500000X-1.100000X0*%
%TD*%
%TA.AperFunction,SMDPad,CuDef*%
%ADD14RoundRect,0.250000X-1.075000X0.312500X-1.075000X-0.312500X1.075000X-0.312500X1.075000X0.312500X0*%
%TD*%
%TA.AperFunction,SMDPad,CuDef*%
%ADD15RoundRect,0.150000X0.150000X-0.725000X0.150000X0.725000X-0.150000X0.725000X-0.150000X-0.725000X0*%
%TD*%
%TA.AperFunction,ComponentPad*%
%ADD16O,1.508000X1.508000*%
%TD*%
%TA.AperFunction,ComponentPad*%
%ADD17C,1.508000*%
%TD*%
%TA.AperFunction,SMDPad,CuDef*%
%ADD18RoundRect,0.250000X-0.312500X-1.075000X0.312500X-1.075000X0.312500X1.075000X-0.312500X1.075000X0*%
%TD*%
%TA.AperFunction,ComponentPad*%
%ADD19O,2.000000X2.000000*%
%TD*%
%TA.AperFunction,ComponentPad*%
%ADD20C,2.000000*%
%TD*%
%TA.AperFunction,SMDPad,CuDef*%
%ADD21RoundRect,0.250000X0.312500X1.075000X-0.312500X1.075000X-0.312500X-1.075000X0.312500X-1.075000X0*%
%TD*%
%TA.AperFunction,SMDPad,CuDef*%
%ADD22R,1.500000X0.900000*%
%TD*%
%TA.AperFunction,SMDPad,CuDef*%
%ADD23R,0.900000X1.500000*%
%TD*%
%TA.AperFunction,SMDPad,CuDef*%
%ADD24R,1.000000X1.000000*%
%TD*%
%TA.AperFunction,ComponentPad*%
%ADD25O,3.000000X3.000000*%
%TD*%
%TA.AperFunction,ComponentPad*%
%ADD26C,3.000000*%
%TD*%
%TA.AperFunction,ComponentPad*%
%ADD27O,1.700000X1.700000*%
%TD*%
%TA.AperFunction,SMDPad,CuDef*%
%ADD28R,1.500000X2.000000*%
%TD*%
%TA.AperFunction,SMDPad,CuDef*%
%ADD29R,3.800000X2.000000*%
%TD*%
%TA.AperFunction,ViaPad*%
%ADD30C,0.700000*%
%TD*%
%TA.AperFunction,Conductor*%
%ADD31C,0.200000*%
%TD*%
G04 APERTURE END LIST*
D10*
%TO.P,C2,1*%
%TO.N,Vcc*%
X164973000Y-43357500D03*
%TO.P,C2,2*%
%TO.N,GND*%
X164973000Y-40282500D03*
%TD*%
D11*
%TO.P,C1,1*%
%TO.N,Vin*%
X159766000Y-45212000D03*
%TO.P,C1,2*%
%TO.N,GND*%
X159766000Y-40287000D03*
%TD*%
D12*
%TO.P,AMP3,1*%
%TO.N,Net-(AMP3B-+)*%
X135512800Y-105370000D03*
%TO.P,AMP3,2,-*%
%TO.N,TP C-1*%
X135512800Y-106640000D03*
%TO.P,AMP3,3,+*%
%TO.N,TC A-1*%
X135512800Y-107910000D03*
%TO.P,AMP3,4,V-*%
%TO.N,GND*%
X135512800Y-109180000D03*
%TO.P,AMP3,5,+*%
%TO.N,Net-(AMP3B-+)*%
X140662800Y-109180000D03*
%TO.P,AMP3,6,-*%
%TO.N,Net-(AMP3B--)*%
X140662800Y-107910000D03*
%TO.P,AMP3,7*%
X140662800Y-106640000D03*
%TO.P,AMP3,8,V+*%
%TO.N,Vin*%
X140662800Y-105370000D03*
%TD*%
D13*
%TO.P,DZ14,1,K*%
%TO.N,Current N*%
X174409800Y-77684000D03*
%TO.P,DZ14,2,A*%
%TO.N,GND*%
X169609800Y-77684000D03*
%TD*%
D14*
%TO.P,R9,1*%
%TO.N,Net-(AMP4B-+)*%
X143802800Y-110511500D03*
%TO.P,R9,2*%
%TO.N,TC A-2*%
X143802800Y-113436500D03*
%TD*%
D15*
%TO.P,AMP8,1*%
%TO.N,TC A-1*%
X156121800Y-54732000D03*
%TO.P,AMP8,2,-*%
X157391800Y-54732000D03*
%TO.P,AMP8,3,+*%
%TO.N,V1.65*%
X158661800Y-54732000D03*
%TO.P,AMP8,4,V-*%
%TO.N,GND*%
X159931800Y-54732000D03*
%TO.P,AMP8,5*%
%TO.N,N/C*%
X159931800Y-49582000D03*
%TO.P,AMP8,6*%
X158661800Y-49582000D03*
%TO.P,AMP8,7*%
X157391800Y-49582000D03*
%TO.P,AMP8,8,V+*%
%TO.N,Vin*%
X156121800Y-49582000D03*
%TD*%
D13*
%TO.P,DZ2,1,K*%
%TO.N,Wave A*%
X174414800Y-67016000D03*
%TO.P,DZ2,2,A*%
%TO.N,GND*%
X169614800Y-67016000D03*
%TD*%
D16*
%TO.P,TP2,1*%
%TO.N,Net-(R4-Pad1)*%
X118783800Y-83145000D03*
D17*
%TO.P,TP2,2*%
%TO.N,Neutral*%
X118783800Y-95845000D03*
%TO.P,TP2,3*%
%TO.N,TP B-1*%
X128783800Y-95845000D03*
%TO.P,TP2,4*%
%TO.N,TC A-1*%
X128783800Y-83145000D03*
%TD*%
D18*
%TO.P,R7,1*%
%TO.N,TP B-1*%
X136625300Y-85050000D03*
%TO.P,R7,2*%
%TO.N,Net-(AMP2B-+)*%
X139550300Y-85050000D03*
%TD*%
D19*
%TO.P,PS1,1,AC/L*%
%TO.N,Line A*%
X111734500Y-47546000D03*
D20*
%TO.P,PS1,2,AC/N*%
%TO.N,Neutral*%
X111734500Y-53546000D03*
%TO.P,PS1,3,-Vout*%
%TO.N,GND*%
X145334500Y-41546000D03*
%TO.P,PS1,4,+Vout*%
%TO.N,Net-(PS1-+Vout)*%
X145334500Y-59546000D03*
%TD*%
D21*
%TO.P,R16,1*%
%TO.N,Current A*%
X149710300Y-106005000D03*
%TO.P,R16,2*%
%TO.N,Net-(AMP4B--)*%
X146785300Y-106005000D03*
%TD*%
D22*
%TO.P,MCU1,1,GND*%
%TO.N,GND*%
X164515800Y-95377000D03*
%TO.P,MCU1,2,3V3*%
%TO.N,Vcc*%
X164515800Y-94107000D03*
%TO.P,MCU1,3,EN*%
X164515800Y-92837000D03*
%TO.P,MCU1,4,IO4*%
%TO.N,Current A*%
X164515800Y-91567000D03*
%TO.P,MCU1,5,IO5*%
%TO.N,Current B*%
X164515800Y-90297000D03*
%TO.P,MCU1,6,IO6*%
%TO.N,Current C*%
X164515800Y-89027000D03*
%TO.P,MCU1,7,IO7*%
%TO.N,Current N*%
X164515800Y-87757000D03*
%TO.P,MCU1,8,IO15*%
%TO.N,unconnected-(MCU1-IO15-Pad8)*%
X164515800Y-86487000D03*
%TO.P,MCU1,9,IO16*%
%TO.N,unconnected-(MCU1-IO16-Pad9)*%
X164515800Y-85217000D03*
%TO.P,MCU1,10,IO17*%
%TO.N,unconnected-(MCU1-IO17-Pad10)*%
X164515800Y-83947000D03*
%TO.P,MCU1,11,IO18*%
%TO.N,unconnected-(MCU1-IO18-Pad11)*%
X164515800Y-82677000D03*
%TO.P,MCU1,12,IO8*%
%TO.N,unconnected-(MCU1-IO8-Pad12)*%
X164515800Y-81407000D03*
%TO.P,MCU1,13,IO19*%
%TO.N,unconnected-(MCU1-IO19-Pad13)*%
X164515800Y-80137000D03*
%TO.P,MCU1,14,IO20*%
%TO.N,unconnected-(MCU1-IO20-Pad14)*%
X164515800Y-78867000D03*
D23*
%TO.P,MCU1,15,IO3*%
%TO.N,Wave A*%
X162750800Y-77617000D03*
%TO.P,MCU1,16,IO46*%
%TO.N,unconnected-(MCU1-IO46-Pad16)*%
X161480800Y-77617000D03*
%TO.P,MCU1,17,IO9*%
%TO.N,unconnected-(MCU1-IO9-Pad17)*%
X160210800Y-77617000D03*
%TO.P,MCU1,18,IO10*%
%TO.N,CS*%
X158940800Y-77617000D03*
%TO.P,MCU1,19,IO11*%
%TO.N,MOSI*%
X157670800Y-77617000D03*
%TO.P,MCU1,20,IO12*%
%TO.N,CLK*%
X156400800Y-77617000D03*
%TO.P,MCU1,21,IO13*%
%TO.N,MISO*%
X155130800Y-77617000D03*
%TO.P,MCU1,22,IO14*%
%TO.N,unconnected-(MCU1-IO14-Pad22)*%
X153860800Y-77617000D03*
%TO.P,MCU1,23,IO21*%
%TO.N,unconnected-(MCU1-IO21-Pad23)*%
X152590800Y-77617000D03*
%TO.P,MCU1,24,IO47*%
%TO.N,unconnected-(MCU1-IO47-Pad24)*%
X151320800Y-77617000D03*
%TO.P,MCU1,25,IO48*%
%TO.N,unconnected-(MCU1-IO48-Pad25)*%
X150050800Y-77617000D03*
%TO.P,MCU1,26,IO45*%
%TO.N,unconnected-(MCU1-IO45-Pad26)*%
X148780800Y-77617000D03*
D22*
%TO.P,MCU1,27,IO0*%
%TO.N,unconnected-(MCU1-IO0-Pad27)*%
X147015800Y-78867000D03*
%TO.P,MCU1,28,NC*%
%TO.N,unconnected-(MCU1-NC-Pad28)*%
X147015800Y-80137000D03*
%TO.P,MCU1,29,NC__1*%
%TO.N,unconnected-(MCU1-NC__1-Pad29)*%
X147015800Y-81407000D03*
%TO.P,MCU1,30,NC__2*%
%TO.N,unconnected-(MCU1-NC__2-Pad30)*%
X147015800Y-82677000D03*
%TO.P,MCU1,31,IO38*%
%TO.N,unconnected-(MCU1-IO38-Pad31)*%
X147015800Y-83947000D03*
%TO.P,MCU1,32,IO39*%
%TO.N,unconnected-(MCU1-IO39-Pad32)*%
X147015800Y-85217000D03*
%TO.P,MCU1,33,IO40*%
%TO.N,unconnected-(MCU1-IO40-Pad33)*%
X147015800Y-86487000D03*
%TO.P,MCU1,34,IO41*%
%TO.N,unconnected-(MCU1-IO41-Pad34)*%
X147015800Y-87757000D03*
%TO.P,MCU1,35,IO42*%
%TO.N,unconnected-(MCU1-IO42-Pad35)*%
X147015800Y-89027000D03*
%TO.P,MCU1,36,RXD0*%
%TO.N,UART RX*%
X147015800Y-90297000D03*
%TO.P,MCU1,37,TXD0*%
%TO.N,UART TX*%
X147015800Y-91567000D03*
%TO.P,MCU1,38,IO2*%
%TO.N,Wave B*%
X147015800Y-92837000D03*
%TO.P,MCU1,39,IO1*%
%TO.N,Wave C*%
X147015800Y-94107000D03*
%TO.P,MCU1,40,GND__1*%
%TO.N,GND*%
X147015800Y-95377000D03*
D24*
%TO.P,MCU1,41_1,GND__2*%
%TO.N,unconnected-(MCU1-GND__2-Pad41_1)*%
X157125800Y-90027000D03*
%TO.P,MCU1,41_2,GND__3*%
%TO.N,unconnected-(MCU1-GND__3-Pad41_2)*%
X158625800Y-90027000D03*
%TO.P,MCU1,41_3,GND__4*%
%TO.N,unconnected-(MCU1-GND__4-Pad41_3)*%
X155625800Y-90027000D03*
%TO.P,MCU1,41_4,GND__5*%
%TO.N,unconnected-(MCU1-GND__5-Pad41_4)*%
X158625800Y-88527000D03*
%TO.P,MCU1,41_5,GND__6*%
%TO.N,unconnected-(MCU1-GND__6-Pad41_5)*%
X157125800Y-88527000D03*
%TO.P,MCU1,41_6,GND__7*%
%TO.N,unconnected-(MCU1-GND__7-Pad41_6)*%
X155625800Y-88527000D03*
%TO.P,MCU1,41_7,GND__8*%
%TO.N,unconnected-(MCU1-GND__8-Pad41_7)*%
X158625800Y-91527000D03*
%TO.P,MCU1,41_8,GND__9*%
%TO.N,unconnected-(MCU1-GND__9-Pad41_8)*%
X157125800Y-91527000D03*
%TO.P,MCU1,41_9,GND__10*%
%TO.N,unconnected-(MCU1-GND__10-Pad41_9)*%
X155625800Y-91527000D03*
%TD*%
D15*
%TO.P,AMP6,1*%
%TO.N,Net-(AMP6B-+)*%
X166662800Y-114514000D03*
%TO.P,AMP6,2,-*%
%TO.N,TC C-2*%
X167932800Y-114514000D03*
%TO.P,AMP6,3,+*%
%TO.N,TC A-1*%
X169202800Y-114514000D03*
%TO.P,AMP6,4,V-*%
%TO.N,GND*%
X170472800Y-114514000D03*
%TO.P,AMP6,5,+*%
%TO.N,Net-(AMP6B-+)*%
X170472800Y-109364000D03*
%TO.P,AMP6,6,-*%
%TO.N,Net-(AMP6B--)*%
X169202800Y-109364000D03*
%TO.P,AMP6,7*%
X167932800Y-109364000D03*
%TO.P,AMP6,8,V+*%
%TO.N,Vin*%
X166662800Y-109364000D03*
%TD*%
D13*
%TO.P,DZ13,1,K*%
%TO.N,Vcc*%
X182270800Y-77684000D03*
%TO.P,DZ13,2,A*%
%TO.N,Current N*%
X177470800Y-77684000D03*
%TD*%
D15*
%TO.P,AMP4,1*%
%TO.N,Net-(AMP4B-+)*%
X146342800Y-114514000D03*
%TO.P,AMP4,2,-*%
%TO.N,TC A-2*%
X147612800Y-114514000D03*
%TO.P,AMP4,3,+*%
%TO.N,TC A-1*%
X148882800Y-114514000D03*
%TO.P,AMP4,4,V-*%
%TO.N,GND*%
X150152800Y-114514000D03*
%TO.P,AMP4,5,+*%
%TO.N,Net-(AMP4B-+)*%
X150152800Y-109364000D03*
%TO.P,AMP4,6,-*%
%TO.N,Net-(AMP4B--)*%
X148882800Y-109364000D03*
%TO.P,AMP4,7*%
X147612800Y-109364000D03*
%TO.P,AMP4,8,V+*%
%TO.N,Vin*%
X146342800Y-109364000D03*
%TD*%
D21*
%TO.P,R17,1*%
%TO.N,Current B*%
X159870300Y-106005000D03*
%TO.P,R17,2*%
%TO.N,Net-(AMP5B--)*%
X156945300Y-106005000D03*
%TD*%
D13*
%TO.P,DZ6,1,K*%
%TO.N,Wave C*%
X174409800Y-74128000D03*
%TO.P,DZ6,2,A*%
%TO.N,GND*%
X169609800Y-74128000D03*
%TD*%
%TO.P,DZ5,1,K*%
%TO.N,Vcc*%
X182257800Y-74128000D03*
%TO.P,DZ5,2,A*%
%TO.N,Wave C*%
X177457800Y-74128000D03*
%TD*%
D16*
%TO.P,TP1,1*%
%TO.N,Net-(R3-Pad1)*%
X118783800Y-65238000D03*
D17*
%TO.P,TP1,2*%
%TO.N,Neutral*%
X118783800Y-77938000D03*
%TO.P,TP1,3*%
%TO.N,TP A-1*%
X128783800Y-77938000D03*
%TO.P,TP1,4*%
%TO.N,TC A-1*%
X128783800Y-65238000D03*
%TD*%
D25*
%TO.P,J6,1,Pin_1*%
%TO.N,TC A-1*%
X176187800Y-120483000D03*
D26*
%TO.P,J6,2,Pin_2*%
%TO.N,TC N-2*%
X181267800Y-120483000D03*
%TD*%
D14*
%TO.P,R4,1*%
%TO.N,Net-(R4-Pad1)*%
X111671800Y-83145000D03*
%TO.P,R4,2*%
%TO.N,Line B*%
X111671800Y-86070000D03*
%TD*%
D16*
%TO.P,TP3,1*%
%TO.N,Net-(R5-Pad1)*%
X118783800Y-100925000D03*
D17*
%TO.P,TP3,2*%
%TO.N,Neutral*%
X118783800Y-113625000D03*
%TO.P,TP3,3*%
%TO.N,TP C-1*%
X128783800Y-113625000D03*
%TO.P,TP3,4*%
%TO.N,TC A-1*%
X128783800Y-100925000D03*
%TD*%
D27*
%TO.P,P1,1,Pin_1*%
%TO.N,GND*%
X147612800Y-73112000D03*
%TO.P,P1,2,Pin_2*%
%TO.N,UART TX*%
X150152800Y-73112000D03*
%TO.P,P1,3,Pin_3*%
%TO.N,UART RX*%
X152692800Y-73112000D03*
%TD*%
D18*
%TO.P,R2,1*%
%TO.N,V1.65*%
X163676300Y-53046000D03*
%TO.P,R2,2*%
%TO.N,GND*%
X166601300Y-53046000D03*
%TD*%
D21*
%TO.P,R18,1*%
%TO.N,Current C*%
X170030300Y-106005000D03*
%TO.P,R18,2*%
%TO.N,Net-(AMP6B--)*%
X167105300Y-106005000D03*
%TD*%
D14*
%TO.P,R11,1*%
%TO.N,Net-(AMP6B-+)*%
X164122800Y-110511500D03*
%TO.P,R11,2*%
%TO.N,TC C-2*%
X164122800Y-113436500D03*
%TD*%
D13*
%TO.P,DZ11,1,K*%
%TO.N,Vcc*%
X182270800Y-81240000D03*
%TO.P,DZ11,2,A*%
%TO.N,Current C*%
X177470800Y-81240000D03*
%TD*%
D27*
%TO.P,SW1,1,C*%
%TO.N,unconnected-(SW1-C-Pad1)*%
X151511000Y-54483000D03*
%TO.P,SW1,2,B*%
%TO.N,Vin*%
X151511000Y-57023000D03*
%TO.P,SW1,3,A*%
%TO.N,Net-(PS1-+Vout)*%
X151511000Y-59563000D03*
%TD*%
D18*
%TO.P,R6,1*%
%TO.N,TP A-1*%
X136625300Y-67270000D03*
%TO.P,R6,2*%
%TO.N,Net-(AMP1B-+)*%
X139550300Y-67270000D03*
%TD*%
D13*
%TO.P,DZ3,1,K*%
%TO.N,Vcc*%
X182270800Y-70572000D03*
%TO.P,DZ3,2,A*%
%TO.N,Wave B*%
X177470800Y-70572000D03*
%TD*%
D14*
%TO.P,R10,1*%
%TO.N,Net-(AMP5B-+)*%
X153962800Y-110511500D03*
%TO.P,R10,2*%
%TO.N,TC B-2*%
X153962800Y-113436500D03*
%TD*%
%TO.P,R3,1*%
%TO.N,Net-(R3-Pad1)*%
X111671800Y-65238000D03*
%TO.P,R3,2*%
%TO.N,Line A*%
X111671800Y-68163000D03*
%TD*%
%TO.P,R12,1*%
%TO.N,Net-(AMP7B-+)*%
X174282800Y-110511500D03*
%TO.P,R12,2*%
%TO.N,TC N-2*%
X174282800Y-113436500D03*
%TD*%
D13*
%TO.P,DZ12,1,K*%
%TO.N,Current C*%
X174409800Y-81240000D03*
%TO.P,DZ12,2,A*%
%TO.N,GND*%
X169609800Y-81240000D03*
%TD*%
D25*
%TO.P,J3,1,Pin_1*%
%TO.N,TC A-1*%
X145707800Y-120483000D03*
D26*
%TO.P,J3,2,Pin_2*%
%TO.N,TC A-2*%
X150787800Y-120483000D03*
%TD*%
D25*
%TO.P,J1,1,Pin_1*%
%TO.N,Line A*%
X111252000Y-120483000D03*
D26*
%TO.P,J1,2,Pin_2*%
%TO.N,Line B*%
X116332000Y-120483000D03*
%TD*%
D21*
%TO.P,R19,1*%
%TO.N,Current N*%
X180190300Y-106005000D03*
%TO.P,R19,2*%
%TO.N,Net-(AMP7B--)*%
X177265300Y-106005000D03*
%TD*%
D27*
%TO.P,P4,1,Pin_1*%
%TO.N,Wave A*%
X147612800Y-67524000D03*
%TO.P,P4,2,Pin_2*%
%TO.N,Wave B*%
X150152800Y-67524000D03*
%TO.P,P4,3,Pin_3*%
%TO.N,Wave C*%
X152692800Y-67524000D03*
%TD*%
D21*
%TO.P,R15,1*%
%TO.N,Wave C*%
X139550300Y-111720000D03*
%TO.P,R15,2*%
%TO.N,Net-(AMP3B--)*%
X136625300Y-111720000D03*
%TD*%
D13*
%TO.P,DZ9,1,K*%
%TO.N,Vcc*%
X182270800Y-84796000D03*
%TO.P,DZ9,2,A*%
%TO.N,Current B*%
X177470800Y-84796000D03*
%TD*%
%TO.P,DZ7,1,K*%
%TO.N,Vcc*%
X182270800Y-88352000D03*
%TO.P,DZ7,2,A*%
%TO.N,Current A*%
X177470800Y-88352000D03*
%TD*%
D25*
%TO.P,J5,1,Pin_1*%
%TO.N,TC A-1*%
X166027800Y-120483000D03*
D26*
%TO.P,J5,2,Pin_2*%
%TO.N,TC C-2*%
X171107800Y-120483000D03*
%TD*%
D14*
%TO.P,R5,1*%
%TO.N,Net-(R5-Pad1)*%
X111671800Y-100925000D03*
%TO.P,R5,2*%
%TO.N,Line C*%
X111671800Y-103850000D03*
%TD*%
D27*
%TO.P,P5,1,Pin_1*%
%TO.N,GND*%
X168948800Y-62317000D03*
%TO.P,P5,2,Pin_2*%
%TO.N,Vcc*%
X166408800Y-62317000D03*
%TO.P,P5,3,Pin_3*%
%TO.N,MISO*%
X163868800Y-62317000D03*
%TO.P,P5,4,Pin_4*%
%TO.N,MOSI*%
X161328800Y-62317000D03*
%TO.P,P5,5,Pin_5*%
%TO.N,CLK*%
X158788800Y-62317000D03*
%TO.P,P5,6,Pin_6*%
%TO.N,CS*%
X156248800Y-62317000D03*
%TD*%
D13*
%TO.P,DZ4,1,K*%
%TO.N,Wave B*%
X174414800Y-70572000D03*
%TO.P,DZ4,2,A*%
%TO.N,GND*%
X169614800Y-70572000D03*
%TD*%
D27*
%TO.P,P3,1,Pin_1*%
%TO.N,Current A*%
X172720000Y-100076000D03*
%TO.P,P3,2,Pin_2*%
%TO.N,Current B*%
X175260000Y-100076000D03*
%TO.P,P3,3,Pin_3*%
%TO.N,Current C*%
X177800000Y-100076000D03*
%TO.P,P3,4,Pin_4*%
%TO.N,Current N*%
X180340000Y-100076000D03*
%TD*%
D21*
%TO.P,R13,1*%
%TO.N,Wave A*%
X139550300Y-76160000D03*
%TO.P,R13,2*%
%TO.N,Net-(AMP1B--)*%
X136625300Y-76160000D03*
%TD*%
D13*
%TO.P,DZ1,1,K*%
%TO.N,Vcc*%
X182270800Y-67016000D03*
%TO.P,DZ1,2,A*%
%TO.N,Wave A*%
X177470800Y-67016000D03*
%TD*%
D18*
%TO.P,R8,1*%
%TO.N,TP C-1*%
X136625300Y-102830000D03*
%TO.P,R8,2*%
%TO.N,Net-(AMP3B-+)*%
X139550300Y-102830000D03*
%TD*%
D25*
%TO.P,J2,1,Pin_1*%
%TO.N,Line C*%
X121412000Y-120483000D03*
D26*
%TO.P,J2,2,Pin_2*%
%TO.N,Neutral*%
X126492000Y-120483000D03*
%TD*%
D27*
%TO.P,P2,1,Pin_1*%
%TO.N,TC A-1*%
X172720000Y-93091000D03*
%TD*%
D28*
%TO.P,PS2,1,GND*%
%TO.N,GND*%
X150086000Y-46315000D03*
%TO.P,PS2,2,VO*%
%TO.N,Vcc*%
X152386000Y-46315000D03*
D29*
X152386000Y-40015000D03*
D28*
%TO.P,PS2,3,VI*%
%TO.N,Vin*%
X154686000Y-46315000D03*
%TD*%
D21*
%TO.P,R14,1*%
%TO.N,Wave B*%
X139550300Y-93940000D03*
%TO.P,R14,2*%
%TO.N,Net-(AMP2B--)*%
X136625300Y-93940000D03*
%TD*%
D13*
%TO.P,DZ8,1,K*%
%TO.N,Current A*%
X174409800Y-88352000D03*
%TO.P,DZ8,2,A*%
%TO.N,GND*%
X169609800Y-88352000D03*
%TD*%
%TO.P,DZ10,1,K*%
%TO.N,Current B*%
X174409800Y-84796000D03*
%TO.P,DZ10,2,A*%
%TO.N,GND*%
X169609800Y-84796000D03*
%TD*%
D15*
%TO.P,AMP7,1*%
%TO.N,Net-(AMP7B-+)*%
X176822800Y-114514000D03*
%TO.P,AMP7,2,-*%
%TO.N,TC N-2*%
X178092800Y-114514000D03*
%TO.P,AMP7,3,+*%
%TO.N,TC A-1*%
X179362800Y-114514000D03*
%TO.P,AMP7,4,V-*%
%TO.N,GND*%
X180632800Y-114514000D03*
%TO.P,AMP7,5,+*%
%TO.N,Net-(AMP7B-+)*%
X180632800Y-109364000D03*
%TO.P,AMP7,6,-*%
%TO.N,Net-(AMP7B--)*%
X179362800Y-109364000D03*
%TO.P,AMP7,7*%
X178092800Y-109364000D03*
%TO.P,AMP7,8,V+*%
%TO.N,Vin*%
X176822800Y-109364000D03*
%TD*%
%TO.P,AMP5,1*%
%TO.N,Net-(AMP5B-+)*%
X156502800Y-114514000D03*
%TO.P,AMP5,2,-*%
%TO.N,TC B-2*%
X157772800Y-114514000D03*
%TO.P,AMP5,3,+*%
%TO.N,TC A-1*%
X159042800Y-114514000D03*
%TO.P,AMP5,4,V-*%
%TO.N,GND*%
X160312800Y-114514000D03*
%TO.P,AMP5,5,+*%
%TO.N,Net-(AMP5B-+)*%
X160312800Y-109364000D03*
%TO.P,AMP5,6,-*%
%TO.N,Net-(AMP5B--)*%
X159042800Y-109364000D03*
%TO.P,AMP5,7*%
X157772800Y-109364000D03*
%TO.P,AMP5,8,V+*%
%TO.N,Vin*%
X156502800Y-109364000D03*
%TD*%
D21*
%TO.P,R1,1*%
%TO.N,Vcc*%
X166601300Y-56348000D03*
%TO.P,R1,2*%
%TO.N,V1.65*%
X163676300Y-56348000D03*
%TD*%
D25*
%TO.P,J4,1,Pin_1*%
%TO.N,TC A-1*%
X155867800Y-120483000D03*
D26*
%TO.P,J4,2,Pin_2*%
%TO.N,TC B-2*%
X160947800Y-120483000D03*
%TD*%
D12*
%TO.P,AMP2,1*%
%TO.N,Net-(AMP2B-+)*%
X135512800Y-87590000D03*
%TO.P,AMP2,2,-*%
%TO.N,TP B-1*%
X135512800Y-88860000D03*
%TO.P,AMP2,3,+*%
%TO.N,TC A-1*%
X135512800Y-90130000D03*
%TO.P,AMP2,4,V-*%
%TO.N,GND*%
X135512800Y-91400000D03*
%TO.P,AMP2,5,+*%
%TO.N,Net-(AMP2B-+)*%
X140662800Y-91400000D03*
%TO.P,AMP2,6,-*%
%TO.N,Net-(AMP2B--)*%
X140662800Y-90130000D03*
%TO.P,AMP2,7*%
X140662800Y-88860000D03*
%TO.P,AMP2,8,V+*%
%TO.N,Vin*%
X140662800Y-87590000D03*
%TD*%
%TO.P,AMP1,1*%
%TO.N,Net-(AMP1B-+)*%
X135512800Y-69810000D03*
%TO.P,AMP1,2,-*%
%TO.N,TP A-1*%
X135512800Y-71080000D03*
%TO.P,AMP1,3,+*%
%TO.N,TC A-1*%
X135512800Y-72350000D03*
%TO.P,AMP1,4,V-*%
%TO.N,GND*%
X135512800Y-73620000D03*
%TO.P,AMP1,5,+*%
%TO.N,Net-(AMP1B-+)*%
X140662800Y-73620000D03*
%TO.P,AMP1,6,-*%
%TO.N,Net-(AMP1B--)*%
X140662800Y-72350000D03*
%TO.P,AMP1,7*%
X140662800Y-71080000D03*
%TO.P,AMP1,8,V+*%
%TO.N,Vin*%
X140662800Y-69810000D03*
%TD*%
D30*
%TO.N,GND*%
X162483800Y-40284400D03*
%TO.N,Vcc*%
X164973000Y-44729400D03*
X152386000Y-48245000D03*
X183706800Y-77684000D03*
X177546000Y-90765000D03*
X167932800Y-56348000D03*
X183680800Y-67016000D03*
X183706800Y-88352000D03*
X183706800Y-84796000D03*
X165900800Y-94107000D03*
X165900800Y-92837000D03*
X183680800Y-74128000D03*
X182372000Y-90765000D03*
X183706800Y-81240000D03*
X183680800Y-70572000D03*
%TO.N,GND*%
X134023800Y-91400000D03*
X134023800Y-109180000D03*
X168186800Y-74128000D03*
X167924349Y-53037735D03*
X180632800Y-116038000D03*
X168212800Y-81240000D03*
X161201800Y-54732000D03*
X160312800Y-116038000D03*
X168186800Y-67016000D03*
X168186800Y-70572000D03*
X150086000Y-48245000D03*
X168212800Y-77684000D03*
X145580800Y-95377000D03*
X134023800Y-73620000D03*
X165900800Y-95377000D03*
X150152800Y-116038000D03*
X168212800Y-88352000D03*
X168212800Y-84796000D03*
X170472800Y-116038000D03*
%TO.N,Current A*%
X172720000Y-95758000D03*
X166916800Y-95758000D03*
X175946800Y-88352000D03*
%TO.N,Current B*%
X167678800Y-96520000D03*
X175260000Y-96520000D03*
X175946800Y-84796000D03*
%TO.N,Current C*%
X175946800Y-81240000D03*
X177800000Y-97282000D03*
X168440800Y-97282000D03*
%TO.N,Current N*%
X180340000Y-98044000D03*
X169202800Y-98044000D03*
X175946800Y-77684000D03*
%TO.N,TC A-2*%
X147612800Y-116038000D03*
%TO.N,TC A-1*%
X179362800Y-116038000D03*
X148882800Y-116038000D03*
X169202800Y-116038000D03*
X159042800Y-116038000D03*
X134023800Y-90130000D03*
X156121800Y-56348000D03*
X134023800Y-72350000D03*
X134023800Y-107910000D03*
%TO.N,TP A-1*%
X134023800Y-71080000D03*
%TO.N,TP C-1*%
X134023800Y-106640000D03*
%TO.N,TP B-1*%
X134023800Y-88860000D03*
%TO.N,TC B-2*%
X157772800Y-116038000D03*
%TO.N,Wave A*%
X175933800Y-67016000D03*
X162750800Y-76160000D03*
X147104800Y-69556000D03*
X143010800Y-76160000D03*
X140754800Y-76160000D03*
%TO.N,Wave B*%
X143660800Y-92837000D03*
X140754800Y-93940000D03*
X144960800Y-92837000D03*
X175933800Y-70572000D03*
X149009800Y-70318000D03*
%TO.N,Wave C*%
X144310800Y-94107000D03*
X140754800Y-111720000D03*
X175940300Y-74128000D03*
X150914800Y-71080000D03*
%TO.N,CS*%
X158940800Y-67016000D03*
%TO.N,MOSI*%
X157670800Y-67905000D03*
%TO.N,MISO*%
X155130800Y-68794000D03*
%TO.N,TC N-2*%
X178092800Y-116038000D03*
%TO.N,Vin*%
X154686000Y-48220000D03*
%TO.N,TC C-2*%
X167932800Y-116038000D03*
%TO.N,Net-(AMP1B--)*%
X135039800Y-76160000D03*
X139103800Y-71080000D03*
%TO.N,Net-(AMP2B--)*%
X135039800Y-93940000D03*
X139103800Y-88860000D03*
%TO.N,Net-(AMP3B--)*%
X139103800Y-106640000D03*
X135039800Y-111720000D03*
%TO.N,Net-(AMP4B--)*%
X147612800Y-110958000D03*
X145453800Y-106005000D03*
%TO.N,Net-(AMP5B--)*%
X155613800Y-106005000D03*
X157772800Y-110958000D03*
%TO.N,Net-(AMP6B--)*%
X167932800Y-110958000D03*
X165773800Y-106005000D03*
%TO.N,Net-(AMP7B--)*%
X175933800Y-106005000D03*
X178092800Y-110958000D03*
%TD*%
D31*
%TO.N,GND*%
X162485700Y-40282500D02*
X164973000Y-40282500D01*
X162483800Y-40284400D02*
X162485700Y-40282500D01*
X162481200Y-40287000D02*
X162483800Y-40284400D01*
X159766000Y-40287000D02*
X162481200Y-40287000D01*
%TO.N,Vcc*%
X164973000Y-44729400D02*
X164973000Y-43357500D01*
%TO.N,Vin*%
X155740800Y-48220000D02*
X156121800Y-48601000D01*
X159766000Y-46861800D02*
X158407800Y-48220000D01*
X158407800Y-48220000D02*
X155740800Y-48220000D01*
X159766000Y-45212000D02*
X159766000Y-46861800D01*
X156121800Y-48601000D02*
X156121800Y-49582000D01*
%TO.N,Line B*%
X111671800Y-86070000D02*
X109347000Y-88394800D01*
X109347000Y-88394800D02*
X109347000Y-113498000D01*
X109347000Y-113498000D02*
X116332000Y-120483000D01*
%TO.N,Line A*%
X108460800Y-71374000D02*
X111671800Y-68163000D01*
X111252000Y-120483000D02*
X108458000Y-117689000D01*
X108458000Y-71374000D02*
X108460800Y-71374000D01*
X108458000Y-117689000D02*
X108458000Y-50822500D01*
X108458000Y-50822500D02*
X111734500Y-47546000D01*
%TO.N,Line C*%
X111671800Y-103850000D02*
X111671800Y-110742800D01*
X111671800Y-110742800D02*
X121412000Y-120483000D01*
%TO.N,Net-(R3-Pad1)*%
X111671800Y-65238000D02*
X118783800Y-65238000D01*
%TO.N,Net-(R4-Pad1)*%
X111671800Y-83145000D02*
X118783800Y-83145000D01*
%TO.N,Net-(R5-Pad1)*%
X111671800Y-100925000D02*
X118783800Y-100925000D01*
%TO.N,Vcc*%
X183680800Y-67016000D02*
X182270800Y-67016000D01*
X167932800Y-56348000D02*
X166601300Y-56348000D01*
X183706800Y-88352000D02*
X182270800Y-88352000D01*
X164515800Y-92837000D02*
X165900800Y-92837000D01*
X183706800Y-77684000D02*
X182270800Y-77684000D01*
X182257800Y-74128000D02*
X183680800Y-74128000D01*
X182270800Y-70572000D02*
X183680800Y-70572000D01*
X183706800Y-81240000D02*
X182270800Y-81240000D01*
X152386000Y-48245000D02*
X152386000Y-46315000D01*
X164515800Y-94107000D02*
X165900800Y-94107000D01*
X182372000Y-90765000D02*
X177546000Y-90765000D01*
X183706800Y-84796000D02*
X182283800Y-84796000D01*
%TO.N,GND*%
X150152800Y-116038000D02*
X150152800Y-114514000D01*
X166609565Y-53037735D02*
X166601300Y-53046000D01*
X134023800Y-109180000D02*
X135512800Y-109180000D01*
X168186800Y-74128000D02*
X169609800Y-74128000D01*
X168186800Y-70572000D02*
X169614800Y-70572000D01*
X167924349Y-53037735D02*
X166609565Y-53037735D01*
X168212800Y-88352000D02*
X169609800Y-88352000D01*
X168212800Y-84796000D02*
X169609800Y-84796000D01*
X145580800Y-95377000D02*
X147015800Y-95377000D01*
X168186800Y-67016000D02*
X169614800Y-67016000D01*
X168212800Y-81240000D02*
X169609800Y-81240000D01*
X150086000Y-48245000D02*
X150086000Y-46315000D01*
X170472800Y-116038000D02*
X170472800Y-114514000D01*
X164515800Y-95377000D02*
X165900800Y-95377000D01*
X160312800Y-116038000D02*
X160312800Y-114514000D01*
X134023800Y-73620000D02*
X135512800Y-73620000D01*
X180632800Y-116038000D02*
X180632800Y-114514000D01*
X168212800Y-77684000D02*
X169609800Y-77684000D01*
X159931800Y-54732000D02*
X161201800Y-54732000D01*
X134023800Y-91400000D02*
X135512800Y-91400000D01*
%TO.N,Current A*%
X175946800Y-88352000D02*
X177470800Y-88352000D01*
X166916800Y-92797000D02*
X166916800Y-102703000D01*
X175946800Y-88352000D02*
X174409800Y-88352000D01*
X172720000Y-95758000D02*
X172720000Y-100076000D01*
X152123300Y-103592000D02*
X149710300Y-106005000D01*
X165686800Y-91567000D02*
X166916800Y-92797000D01*
X166027800Y-103592000D02*
X152123300Y-103592000D01*
X166916800Y-102703000D02*
X166027800Y-103592000D01*
X164515800Y-91567000D02*
X165686800Y-91567000D01*
%TO.N,Current B*%
X167678800Y-102957000D02*
X167678800Y-92289000D01*
X161648300Y-104227000D02*
X166408800Y-104227000D01*
X167678800Y-92289000D02*
X165686800Y-90297000D01*
X174409800Y-84796000D02*
X175946800Y-84796000D01*
X175946800Y-84796000D02*
X177470800Y-84796000D01*
X159870300Y-106005000D02*
X161648300Y-104227000D01*
X175260000Y-96520000D02*
X175260000Y-100076000D01*
X165686800Y-90297000D02*
X164515800Y-90297000D01*
X166408800Y-104227000D02*
X167678800Y-102957000D01*
%TO.N,Current C*%
X170030300Y-104546500D02*
X168440800Y-102957000D01*
X170030300Y-106005000D02*
X170030300Y-104546500D01*
X168440800Y-91781000D02*
X165686800Y-89027000D01*
X168440800Y-102957000D02*
X168440800Y-91781000D01*
X175946800Y-81240000D02*
X177470800Y-81240000D01*
X165686800Y-89027000D02*
X164515800Y-89027000D01*
X175946800Y-81240000D02*
X174409800Y-81240000D01*
X177800000Y-97282000D02*
X177800000Y-100076000D01*
%TO.N,Current N*%
X170091800Y-103592000D02*
X169202800Y-102703000D01*
X175946800Y-77684000D02*
X177470800Y-77684000D01*
X169202800Y-102703000D02*
X169202800Y-91273000D01*
X165686800Y-87757000D02*
X164515800Y-87757000D01*
X180340000Y-98044000D02*
X180340000Y-100076000D01*
X169202800Y-91273000D02*
X165686800Y-87757000D01*
X175946800Y-77684000D02*
X174409800Y-77684000D01*
X177777300Y-103592000D02*
X170091800Y-103592000D01*
X180190300Y-106005000D02*
X177777300Y-103592000D01*
%TO.N,TC A-2*%
X144310800Y-116038000D02*
X147612800Y-116038000D01*
X143802800Y-113436500D02*
X143802800Y-115530000D01*
X143802800Y-115530000D02*
X144310800Y-116038000D01*
X150787800Y-120483000D02*
X147612800Y-117308000D01*
X147612800Y-116038000D02*
X147612800Y-114514000D01*
X147612800Y-117308000D02*
X147612800Y-116038000D01*
%TO.N,TC A-1*%
X128783800Y-100925000D02*
X128783800Y-106607000D01*
X130086800Y-107910000D02*
X134023800Y-107910000D01*
X130086800Y-72350000D02*
X134023800Y-72350000D01*
X135512800Y-72350000D02*
X134023800Y-72350000D01*
X159042800Y-116038000D02*
X159042800Y-114514000D01*
X179362800Y-116038000D02*
X179362800Y-114514000D01*
X135512800Y-107910000D02*
X134023800Y-107910000D01*
X128783800Y-71047000D02*
X130086800Y-72350000D01*
X148882800Y-116038000D02*
X148882800Y-114514000D01*
X128783800Y-88827000D02*
X128783800Y-83145000D01*
X134023800Y-90130000D02*
X130086800Y-90130000D01*
X156121800Y-56348000D02*
X156121800Y-54732000D01*
X128783800Y-65238000D02*
X128783800Y-71047000D01*
X135512800Y-90130000D02*
X134023800Y-90130000D01*
X156121800Y-54605000D02*
X157391800Y-54605000D01*
X169202800Y-116038000D02*
X169202800Y-114514000D01*
X128783800Y-106607000D02*
X130086800Y-107910000D01*
X130086800Y-90130000D02*
X128783800Y-88827000D01*
%TO.N,TP A-1*%
X134912800Y-67270000D02*
X136625300Y-67270000D01*
X134023800Y-68159000D02*
X134912800Y-67270000D01*
X134023800Y-71080000D02*
X134023800Y-68159000D01*
X135512800Y-71080000D02*
X134023800Y-71080000D01*
%TO.N,TP C-1*%
X135512800Y-106640000D02*
X134023800Y-106640000D01*
X134023800Y-103211000D02*
X134404800Y-102830000D01*
X134023800Y-106640000D02*
X134023800Y-103211000D01*
X134404800Y-102830000D02*
X136625300Y-102830000D01*
%TO.N,TP B-1*%
X136625300Y-85050000D02*
X134912800Y-85050000D01*
X135512800Y-88860000D02*
X134023800Y-88860000D01*
X134912800Y-85050000D02*
X134023800Y-85939000D01*
X134023800Y-85939000D02*
X134023800Y-88860000D01*
%TO.N,V1.65*%
X158661800Y-55913999D02*
X158661800Y-54732000D01*
X163676300Y-56348000D02*
X159095801Y-56348000D01*
X159095801Y-56348000D02*
X158661800Y-55913999D01*
X163676300Y-53046000D02*
X163676300Y-56348000D01*
%TO.N,TC B-2*%
X154470800Y-116038000D02*
X157772800Y-116038000D01*
X157772800Y-116038000D02*
X157772800Y-117308000D01*
X157772800Y-117308000D02*
X160947800Y-120483000D01*
X153962800Y-115530000D02*
X154470800Y-116038000D01*
X153962800Y-113436500D02*
X153962800Y-115530000D01*
X157772800Y-116038000D02*
X157772800Y-114514000D01*
%TO.N,Wave A*%
X175933800Y-67016000D02*
X174414800Y-67016000D01*
X144945800Y-69556000D02*
X143010800Y-71491000D01*
X147104800Y-69556000D02*
X147612800Y-69048000D01*
X175933800Y-67016000D02*
X177470800Y-67016000D01*
X162750800Y-77617000D02*
X162750800Y-76160000D01*
X143010800Y-71491000D02*
X143010800Y-76160000D01*
X147612800Y-69048000D02*
X147612800Y-67524000D01*
X139550300Y-76160000D02*
X140754800Y-76160000D01*
X147104800Y-69556000D02*
X144945800Y-69556000D01*
%TO.N,Wave B*%
X175933800Y-70572000D02*
X174414800Y-70572000D01*
X175933800Y-70572000D02*
X177470800Y-70572000D01*
X150152800Y-69175000D02*
X150152800Y-67524000D01*
X145072800Y-70318000D02*
X143660800Y-71730000D01*
X147015800Y-92837000D02*
X144960800Y-92837000D01*
X149009800Y-70318000D02*
X145072800Y-70318000D01*
X149009800Y-70318000D02*
X150152800Y-69175000D01*
X143660800Y-71730000D02*
X143660800Y-92837000D01*
X139550300Y-93940000D02*
X140754800Y-93940000D01*
%TO.N,Wave C*%
X145199800Y-71080000D02*
X150914800Y-71080000D01*
X144310800Y-71969000D02*
X145199800Y-71080000D01*
X152692800Y-69302000D02*
X152692800Y-67524000D01*
X139550300Y-111720000D02*
X140754800Y-111720000D01*
X150914800Y-71080000D02*
X152692800Y-69302000D01*
X175940300Y-74128000D02*
X177483800Y-74128000D01*
X144310800Y-94107000D02*
X147015800Y-94107000D01*
X144310800Y-94067000D02*
X144310800Y-71969000D01*
X175940300Y-74128000D02*
X174409800Y-74128000D01*
%TO.N,CS*%
X158940800Y-77617000D02*
X158940800Y-67016000D01*
%TO.N,MOSI*%
X157670800Y-67905000D02*
X157670800Y-77617000D01*
%TO.N,CLK*%
X156400800Y-67245000D02*
X158788800Y-64857000D01*
X158788800Y-64857000D02*
X158788800Y-62317000D01*
X156400800Y-77617000D02*
X156400800Y-67245000D01*
%TO.N,MISO*%
X155130800Y-77617000D02*
X155130800Y-68794000D01*
%TO.N,TC N-2*%
X178092800Y-116038000D02*
X178092800Y-114514000D01*
X174282800Y-113436500D02*
X174282800Y-115530000D01*
X178092800Y-117308000D02*
X181267800Y-120483000D01*
X174282800Y-115530000D02*
X174790800Y-116038000D01*
X174790800Y-116038000D02*
X178092800Y-116038000D01*
X178092800Y-116038000D02*
X178092800Y-117308000D01*
%TO.N,UART TX*%
X145493800Y-91567000D02*
X145072800Y-91146000D01*
X145072800Y-76287000D02*
X145707800Y-75652000D01*
X145707800Y-75652000D02*
X149390800Y-75652000D01*
X150152800Y-74890000D02*
X150152800Y-73112000D01*
X147015800Y-91567000D02*
X145493800Y-91567000D01*
X145072800Y-91146000D02*
X145072800Y-76287000D01*
X149390800Y-75652000D02*
X150152800Y-74890000D01*
%TO.N,UART RX*%
X145961800Y-76160000D02*
X151422800Y-76160000D01*
X152692800Y-74890000D02*
X152692800Y-73112000D01*
X145580800Y-76541000D02*
X145961800Y-76160000D01*
X151422800Y-76160000D02*
X152692800Y-74890000D01*
X147015800Y-90297000D02*
X146001800Y-90297000D01*
X146001800Y-90297000D02*
X145580800Y-89876000D01*
X145580800Y-89876000D02*
X145580800Y-76541000D01*
%TO.N,Vin*%
X154686000Y-48220000D02*
X154686000Y-55372000D01*
X155048800Y-107910000D02*
X156502800Y-109364000D01*
X154686000Y-48220000D02*
X154686000Y-46315000D01*
X175368800Y-107910000D02*
X176822800Y-109364000D01*
X142151800Y-106894000D02*
X142151800Y-103881000D01*
X142151800Y-103881000D02*
X140662800Y-105370000D01*
X154686000Y-55372000D02*
X153035000Y-57023000D01*
X143635800Y-57023000D02*
X142151800Y-58507000D01*
X153035000Y-57023000D02*
X143635800Y-57023000D01*
X143167800Y-107910000D02*
X142151800Y-106894000D01*
X146342800Y-109364000D02*
X144888800Y-107910000D01*
X144888800Y-107910000D02*
X143167800Y-107910000D01*
X165208800Y-107910000D02*
X175368800Y-107910000D01*
X154686000Y-48220000D02*
X155928000Y-48220000D01*
X155048800Y-107910000D02*
X165208800Y-107910000D01*
X165208800Y-107910000D02*
X166662800Y-109364000D01*
X140662800Y-69810000D02*
X142151800Y-68321000D01*
X144888800Y-107910000D02*
X155048800Y-107910000D01*
X142151800Y-58507000D02*
X142151800Y-103881000D01*
X140662800Y-87590000D02*
X142151800Y-86101000D01*
%TO.N,TC C-2*%
X164122800Y-115530000D02*
X164630800Y-116038000D01*
X164122800Y-113436500D02*
X164122800Y-115530000D01*
X164630800Y-116038000D02*
X167932800Y-116038000D01*
X167932800Y-116038000D02*
X167932800Y-114514000D01*
X167932800Y-117308000D02*
X171107800Y-120483000D01*
X167932800Y-116038000D02*
X167932800Y-117308000D01*
%TO.N,Net-(PS1-+Vout)*%
X151511000Y-59563000D02*
X151384000Y-59563000D01*
X151494000Y-59546000D02*
X151511000Y-59563000D01*
X145334500Y-59546000D02*
X151494000Y-59546000D01*
%TO.N,Net-(AMP1B-+)*%
X138468800Y-73620000D02*
X140662800Y-73620000D01*
X137706800Y-69810000D02*
X138087800Y-70191000D01*
X139550300Y-67270000D02*
X139550300Y-68728500D01*
X138087800Y-70191000D02*
X138087800Y-73239000D01*
X135512800Y-69810000D02*
X137706800Y-69810000D01*
X139550300Y-68728500D02*
X138087800Y-70191000D01*
X138087800Y-73239000D02*
X138468800Y-73620000D01*
%TO.N,Net-(AMP1B--)*%
X140662800Y-72350000D02*
X140662800Y-71080000D01*
X139103800Y-71080000D02*
X140662800Y-71080000D01*
X135039800Y-76160000D02*
X136625300Y-76160000D01*
%TO.N,Net-(AMP2B-+)*%
X138468800Y-91400000D02*
X140662800Y-91400000D01*
X138087800Y-87971000D02*
X138087800Y-91019000D01*
X138087800Y-87971000D02*
X139550300Y-86508500D01*
X138087800Y-91019000D02*
X138468800Y-91400000D01*
X135512800Y-87590000D02*
X137706800Y-87590000D01*
X139550300Y-86508500D02*
X139550300Y-85050000D01*
X137706800Y-87590000D02*
X138087800Y-87971000D01*
%TO.N,Net-(AMP2B--)*%
X139103800Y-88860000D02*
X140662800Y-88860000D01*
X140662800Y-90130000D02*
X140662800Y-88860000D01*
X135039800Y-93940000D02*
X136625300Y-93940000D01*
%TO.N,Net-(AMP3B-+)*%
X137706800Y-105370000D02*
X138087800Y-105751000D01*
X138087800Y-105751000D02*
X138087800Y-108647499D01*
X135512800Y-105370000D02*
X137706800Y-105370000D01*
X138087800Y-105751000D02*
X139550300Y-104288500D01*
X139550300Y-104288500D02*
X139550300Y-102830000D01*
X138087800Y-108647499D02*
X138620301Y-109180000D01*
X138620301Y-109180000D02*
X140662800Y-109180000D01*
%TO.N,Net-(AMP3B--)*%
X135039800Y-111720000D02*
X136625300Y-111720000D01*
X140662800Y-107910000D02*
X140662800Y-106640000D01*
X140662800Y-106640000D02*
X139103800Y-106640000D01*
%TO.N,Net-(AMP4B-+)*%
X146723800Y-111847000D02*
X149771800Y-111847000D01*
X150152800Y-111466000D02*
X150152800Y-109364000D01*
X145388300Y-110511500D02*
X146723800Y-111847000D01*
X143802800Y-110511500D02*
X145388300Y-110511500D01*
X149771800Y-111847000D02*
X150152800Y-111466000D01*
X146342800Y-112228000D02*
X146723800Y-111847000D01*
X146342800Y-114514000D02*
X146342800Y-112228000D01*
%TO.N,Net-(AMP4B--)*%
X145453800Y-106005000D02*
X146785300Y-106005000D01*
X148882800Y-109364000D02*
X147612800Y-109364000D01*
X147612800Y-109364000D02*
X147612800Y-110958000D01*
%TO.N,Net-(AMP5B-+)*%
X153962800Y-110511500D02*
X155548300Y-110511500D01*
X156502800Y-112228000D02*
X156883800Y-111847000D01*
X156502800Y-114514000D02*
X156502800Y-112228000D01*
X159931800Y-111847000D02*
X160312800Y-111466000D01*
X156883800Y-111847000D02*
X159931800Y-111847000D01*
X155548300Y-110511500D02*
X156883800Y-111847000D01*
X160312800Y-111466000D02*
X160312800Y-109364000D01*
%TO.N,Net-(AMP5B--)*%
X159042800Y-109364000D02*
X157772800Y-109364000D01*
X155613800Y-106005000D02*
X156945300Y-106005000D01*
X157772800Y-109364000D02*
X157772800Y-110958000D01*
%TO.N,Net-(AMP6B-+)*%
X166662800Y-114514000D02*
X166662800Y-112228000D01*
X167043800Y-111847000D02*
X170091800Y-111847000D01*
X170472800Y-111466000D02*
X170472800Y-109364000D01*
X165708300Y-110511500D02*
X167043800Y-111847000D01*
X166662800Y-112228000D02*
X167043800Y-111847000D01*
X164122800Y-110511500D02*
X165708300Y-110511500D01*
X170091800Y-111847000D02*
X170472800Y-111466000D01*
%TO.N,Net-(AMP6B--)*%
X169202800Y-109364000D02*
X167932800Y-109364000D01*
X167932800Y-109364000D02*
X167932800Y-110958000D01*
X165773800Y-106005000D02*
X167105300Y-106005000D01*
%TO.N,Net-(AMP7B-+)*%
X177203800Y-111847000D02*
X180251800Y-111847000D01*
X176822800Y-112228000D02*
X177203800Y-111847000D01*
X175868300Y-110511500D02*
X177203800Y-111847000D01*
X174282800Y-110511500D02*
X175868300Y-110511500D01*
X176822800Y-114514000D02*
X176822800Y-112228000D01*
X180632800Y-111466000D02*
X180632800Y-109364000D01*
X180251800Y-111847000D02*
X180632800Y-111466000D01*
%TO.N,Net-(AMP7B--)*%
X178092800Y-109364000D02*
X178092800Y-110958000D01*
X179362800Y-109364000D02*
X178092800Y-109364000D01*
X175933800Y-106005000D02*
X177265300Y-106005000D01*
%TD*%
M02*
