%TF.GenerationSoftware,KiCad,Pcbnew,7.0.10*%
%TF.CreationDate,2024-06-26T03:26:06-03:00*%
%TF.ProjectId,board,626f6172-642e-46b6-9963-61645f706362,1.3*%
%TF.SameCoordinates,Original*%
%TF.FileFunction,Soldermask,Bot*%
%TF.FilePolarity,Negative*%
%FSLAX46Y46*%
G04 Gerber Fmt 4.6, Leading zero omitted, Abs format (unit mm)*
G04 Created by KiCad (PCBNEW 7.0.10) date 2024-06-26 03:26:06*
%MOMM*%
%LPD*%
G01*
G04 APERTURE LIST*
%ADD10O,1.712000X1.712000*%
%ADD11C,1.712000*%
%ADD12O,2.000000X2.000000*%
%ADD13C,2.000000*%
%ADD14O,3.000000X3.000000*%
%ADD15C,3.000000*%
%ADD16O,1.700000X1.700000*%
G04 APERTURE END LIST*
D10*
%TO.C,TP2*%
X118783800Y-83145000D03*
D11*
X118783800Y-95845000D03*
X128783800Y-95845000D03*
X128783800Y-83145000D03*
%TD*%
D12*
%TO.C,PS1*%
X111734500Y-47546000D03*
D13*
X111734500Y-53546000D03*
X145334500Y-41546000D03*
X145334500Y-59546000D03*
%TD*%
D10*
%TO.C,TP1*%
X118783800Y-65238000D03*
D11*
X118783800Y-77938000D03*
X128783800Y-77938000D03*
X128783800Y-65238000D03*
%TD*%
D14*
%TO.C,J6*%
X176187800Y-120483000D03*
D15*
X181267800Y-120483000D03*
%TD*%
D10*
%TO.C,TP3*%
X118783800Y-100925000D03*
D11*
X118783800Y-113625000D03*
X128783800Y-113625000D03*
X128783800Y-100925000D03*
%TD*%
D16*
%TO.C,P1*%
X147612800Y-73112000D03*
X150152800Y-73112000D03*
X152692800Y-73112000D03*
%TD*%
%TO.C,SW1*%
X151511000Y-54483000D03*
X151511000Y-57023000D03*
X151511000Y-59563000D03*
%TD*%
D14*
%TO.C,J3*%
X145707800Y-120483000D03*
D15*
X150787800Y-120483000D03*
%TD*%
D14*
%TO.C,J1*%
X111252000Y-120483000D03*
D15*
X116332000Y-120483000D03*
%TD*%
D16*
%TO.C,P4*%
X147612800Y-67524000D03*
X150152800Y-67524000D03*
X152692800Y-67524000D03*
%TD*%
D14*
%TO.C,J5*%
X166027800Y-120483000D03*
D15*
X171107800Y-120483000D03*
%TD*%
D16*
%TO.C,P5*%
X168948800Y-62317000D03*
X166408800Y-62317000D03*
X163868800Y-62317000D03*
X161328800Y-62317000D03*
X158788800Y-62317000D03*
X156248800Y-62317000D03*
%TD*%
%TO.C,P3*%
X172720000Y-100076000D03*
X175260000Y-100076000D03*
X177800000Y-100076000D03*
X180340000Y-100076000D03*
%TD*%
D14*
%TO.C,J2*%
X121412000Y-120483000D03*
D15*
X126492000Y-120483000D03*
%TD*%
D16*
%TO.C,P2*%
X172720000Y-93091000D03*
%TD*%
D14*
%TO.C,J4*%
X155867800Y-120483000D03*
D15*
X160947800Y-120483000D03*
%TD*%
M02*
