%TF.GenerationSoftware,KiCad,Pcbnew,7.0.10*%
%TF.CreationDate,2024-06-26T03:26:06-03:00*%
%TF.ProjectId,board,626f6172-642e-46b6-9963-61645f706362,1.3*%
%TF.SameCoordinates,Original*%
%TF.FileFunction,Legend,Bot*%
%TF.FilePolarity,Positive*%
%FSLAX46Y46*%
G04 Gerber Fmt 4.6, Leading zero omitted, Abs format (unit mm)*
G04 Created by KiCad (PCBNEW 7.0.10) date 2024-06-26 03:26:06*
%MOMM*%
%LPD*%
G01*
G04 APERTURE LIST*
%ADD10C,0.150000*%
G04 APERTURE END LIST*
D10*
X183354565Y-53818496D02*
X183354565Y-54466115D01*
X183354565Y-54466115D02*
X183392660Y-54542306D01*
X183392660Y-54542306D02*
X183430756Y-54580401D01*
X183430756Y-54580401D02*
X183506946Y-54618496D01*
X183506946Y-54618496D02*
X183621232Y-54618496D01*
X183621232Y-54618496D02*
X183697422Y-54580401D01*
X183354565Y-54313735D02*
X183430756Y-54351830D01*
X183430756Y-54351830D02*
X183583137Y-54351830D01*
X183583137Y-54351830D02*
X183659327Y-54313735D01*
X183659327Y-54313735D02*
X183697422Y-54275639D01*
X183697422Y-54275639D02*
X183735518Y-54199449D01*
X183735518Y-54199449D02*
X183735518Y-53970877D01*
X183735518Y-53970877D02*
X183697422Y-53894687D01*
X183697422Y-53894687D02*
X183659327Y-53856592D01*
X183659327Y-53856592D02*
X183583137Y-53818496D01*
X183583137Y-53818496D02*
X183430756Y-53818496D01*
X183430756Y-53818496D02*
X183354565Y-53856592D01*
X182973612Y-54351830D02*
X182973612Y-53818496D01*
X182973612Y-53551830D02*
X183011708Y-53589925D01*
X183011708Y-53589925D02*
X182973612Y-53628020D01*
X182973612Y-53628020D02*
X182935517Y-53589925D01*
X182935517Y-53589925D02*
X182973612Y-53551830D01*
X182973612Y-53551830D02*
X182973612Y-53628020D01*
X182706946Y-53818496D02*
X182402184Y-53818496D01*
X182592660Y-53551830D02*
X182592660Y-54237544D01*
X182592660Y-54237544D02*
X182554565Y-54313735D01*
X182554565Y-54313735D02*
X182478375Y-54351830D01*
X182478375Y-54351830D02*
X182402184Y-54351830D01*
X182135517Y-54351830D02*
X182135517Y-53551830D01*
X181792660Y-54351830D02*
X181792660Y-53932782D01*
X181792660Y-53932782D02*
X181830755Y-53856592D01*
X181830755Y-53856592D02*
X181906946Y-53818496D01*
X181906946Y-53818496D02*
X182021232Y-53818496D01*
X182021232Y-53818496D02*
X182097422Y-53856592D01*
X182097422Y-53856592D02*
X182135517Y-53894687D01*
X181068850Y-53818496D02*
X181068850Y-54351830D01*
X181411707Y-53818496D02*
X181411707Y-54237544D01*
X181411707Y-54237544D02*
X181373612Y-54313735D01*
X181373612Y-54313735D02*
X181297422Y-54351830D01*
X181297422Y-54351830D02*
X181183136Y-54351830D01*
X181183136Y-54351830D02*
X181106945Y-54313735D01*
X181106945Y-54313735D02*
X181068850Y-54275639D01*
X180687897Y-54351830D02*
X180687897Y-53551830D01*
X180687897Y-53856592D02*
X180611707Y-53818496D01*
X180611707Y-53818496D02*
X180459326Y-53818496D01*
X180459326Y-53818496D02*
X180383135Y-53856592D01*
X180383135Y-53856592D02*
X180345040Y-53894687D01*
X180345040Y-53894687D02*
X180306945Y-53970877D01*
X180306945Y-53970877D02*
X180306945Y-54199449D01*
X180306945Y-54199449D02*
X180345040Y-54275639D01*
X180345040Y-54275639D02*
X180383135Y-54313735D01*
X180383135Y-54313735D02*
X180459326Y-54351830D01*
X180459326Y-54351830D02*
X180611707Y-54351830D01*
X180611707Y-54351830D02*
X180687897Y-54313735D01*
X179964087Y-54275639D02*
X179925992Y-54313735D01*
X179925992Y-54313735D02*
X179964087Y-54351830D01*
X179964087Y-54351830D02*
X180002183Y-54313735D01*
X180002183Y-54313735D02*
X179964087Y-54275639D01*
X179964087Y-54275639D02*
X179964087Y-54351830D01*
X179240278Y-54313735D02*
X179316469Y-54351830D01*
X179316469Y-54351830D02*
X179468850Y-54351830D01*
X179468850Y-54351830D02*
X179545040Y-54313735D01*
X179545040Y-54313735D02*
X179583135Y-54275639D01*
X179583135Y-54275639D02*
X179621231Y-54199449D01*
X179621231Y-54199449D02*
X179621231Y-53970877D01*
X179621231Y-53970877D02*
X179583135Y-53894687D01*
X179583135Y-53894687D02*
X179545040Y-53856592D01*
X179545040Y-53856592D02*
X179468850Y-53818496D01*
X179468850Y-53818496D02*
X179316469Y-53818496D01*
X179316469Y-53818496D02*
X179240278Y-53856592D01*
X178783136Y-54351830D02*
X178859326Y-54313735D01*
X178859326Y-54313735D02*
X178897421Y-54275639D01*
X178897421Y-54275639D02*
X178935517Y-54199449D01*
X178935517Y-54199449D02*
X178935517Y-53970877D01*
X178935517Y-53970877D02*
X178897421Y-53894687D01*
X178897421Y-53894687D02*
X178859326Y-53856592D01*
X178859326Y-53856592D02*
X178783136Y-53818496D01*
X178783136Y-53818496D02*
X178668850Y-53818496D01*
X178668850Y-53818496D02*
X178592659Y-53856592D01*
X178592659Y-53856592D02*
X178554564Y-53894687D01*
X178554564Y-53894687D02*
X178516469Y-53970877D01*
X178516469Y-53970877D02*
X178516469Y-54199449D01*
X178516469Y-54199449D02*
X178554564Y-54275639D01*
X178554564Y-54275639D02*
X178592659Y-54313735D01*
X178592659Y-54313735D02*
X178668850Y-54351830D01*
X178668850Y-54351830D02*
X178783136Y-54351830D01*
X178173611Y-54351830D02*
X178173611Y-53818496D01*
X178173611Y-53894687D02*
X178135516Y-53856592D01*
X178135516Y-53856592D02*
X178059326Y-53818496D01*
X178059326Y-53818496D02*
X177945040Y-53818496D01*
X177945040Y-53818496D02*
X177868849Y-53856592D01*
X177868849Y-53856592D02*
X177830754Y-53932782D01*
X177830754Y-53932782D02*
X177830754Y-54351830D01*
X177830754Y-53932782D02*
X177792659Y-53856592D01*
X177792659Y-53856592D02*
X177716468Y-53818496D01*
X177716468Y-53818496D02*
X177602183Y-53818496D01*
X177602183Y-53818496D02*
X177525992Y-53856592D01*
X177525992Y-53856592D02*
X177487897Y-53932782D01*
X177487897Y-53932782D02*
X177487897Y-54351830D01*
X176535516Y-53513735D02*
X177221230Y-54542306D01*
X176154564Y-54351830D02*
X176230754Y-54313735D01*
X176230754Y-54313735D02*
X176268849Y-54237544D01*
X176268849Y-54237544D02*
X176268849Y-53551830D01*
X175506944Y-53818496D02*
X175506944Y-54351830D01*
X175849801Y-53818496D02*
X175849801Y-54237544D01*
X175849801Y-54237544D02*
X175811706Y-54313735D01*
X175811706Y-54313735D02*
X175735516Y-54351830D01*
X175735516Y-54351830D02*
X175621230Y-54351830D01*
X175621230Y-54351830D02*
X175545039Y-54313735D01*
X175545039Y-54313735D02*
X175506944Y-54275639D01*
X174783134Y-54313735D02*
X174859325Y-54351830D01*
X174859325Y-54351830D02*
X175011706Y-54351830D01*
X175011706Y-54351830D02*
X175087896Y-54313735D01*
X175087896Y-54313735D02*
X175125991Y-54275639D01*
X175125991Y-54275639D02*
X175164087Y-54199449D01*
X175164087Y-54199449D02*
X175164087Y-53970877D01*
X175164087Y-53970877D02*
X175125991Y-53894687D01*
X175125991Y-53894687D02*
X175087896Y-53856592D01*
X175087896Y-53856592D02*
X175011706Y-53818496D01*
X175011706Y-53818496D02*
X174859325Y-53818496D01*
X174859325Y-53818496D02*
X174783134Y-53856592D01*
X174097420Y-54351830D02*
X174097420Y-53932782D01*
X174097420Y-53932782D02*
X174135515Y-53856592D01*
X174135515Y-53856592D02*
X174211706Y-53818496D01*
X174211706Y-53818496D02*
X174364087Y-53818496D01*
X174364087Y-53818496D02*
X174440277Y-53856592D01*
X174097420Y-54313735D02*
X174173611Y-54351830D01*
X174173611Y-54351830D02*
X174364087Y-54351830D01*
X174364087Y-54351830D02*
X174440277Y-54313735D01*
X174440277Y-54313735D02*
X174478373Y-54237544D01*
X174478373Y-54237544D02*
X174478373Y-54161354D01*
X174478373Y-54161354D02*
X174440277Y-54085163D01*
X174440277Y-54085163D02*
X174364087Y-54047068D01*
X174364087Y-54047068D02*
X174173611Y-54047068D01*
X174173611Y-54047068D02*
X174097420Y-54008973D01*
X173754563Y-54313735D02*
X173678372Y-54351830D01*
X173678372Y-54351830D02*
X173525991Y-54351830D01*
X173525991Y-54351830D02*
X173449801Y-54313735D01*
X173449801Y-54313735D02*
X173411705Y-54237544D01*
X173411705Y-54237544D02*
X173411705Y-54199449D01*
X173411705Y-54199449D02*
X173449801Y-54123258D01*
X173449801Y-54123258D02*
X173525991Y-54085163D01*
X173525991Y-54085163D02*
X173640277Y-54085163D01*
X173640277Y-54085163D02*
X173716467Y-54047068D01*
X173716467Y-54047068D02*
X173754563Y-53970877D01*
X173754563Y-53970877D02*
X173754563Y-53932782D01*
X173754563Y-53932782D02*
X173716467Y-53856592D01*
X173716467Y-53856592D02*
X173640277Y-53818496D01*
X173640277Y-53818496D02*
X173525991Y-53818496D01*
X173525991Y-53818496D02*
X173449801Y-53856592D01*
X173068848Y-54351830D02*
X173068848Y-53818496D01*
X173068848Y-53970877D02*
X173030753Y-53894687D01*
X173030753Y-53894687D02*
X172992658Y-53856592D01*
X172992658Y-53856592D02*
X172916467Y-53818496D01*
X172916467Y-53818496D02*
X172840277Y-53818496D01*
X172230753Y-53818496D02*
X172230753Y-54466115D01*
X172230753Y-54466115D02*
X172268848Y-54542306D01*
X172268848Y-54542306D02*
X172306944Y-54580401D01*
X172306944Y-54580401D02*
X172383134Y-54618496D01*
X172383134Y-54618496D02*
X172497420Y-54618496D01*
X172497420Y-54618496D02*
X172573610Y-54580401D01*
X172230753Y-54313735D02*
X172306944Y-54351830D01*
X172306944Y-54351830D02*
X172459325Y-54351830D01*
X172459325Y-54351830D02*
X172535515Y-54313735D01*
X172535515Y-54313735D02*
X172573610Y-54275639D01*
X172573610Y-54275639D02*
X172611706Y-54199449D01*
X172611706Y-54199449D02*
X172611706Y-53970877D01*
X172611706Y-53970877D02*
X172573610Y-53894687D01*
X172573610Y-53894687D02*
X172535515Y-53856592D01*
X172535515Y-53856592D02*
X172459325Y-53818496D01*
X172459325Y-53818496D02*
X172306944Y-53818496D01*
X172306944Y-53818496D02*
X172230753Y-53856592D01*
X171506943Y-53818496D02*
X171506943Y-54351830D01*
X171849800Y-53818496D02*
X171849800Y-54237544D01*
X171849800Y-54237544D02*
X171811705Y-54313735D01*
X171811705Y-54313735D02*
X171735515Y-54351830D01*
X171735515Y-54351830D02*
X171621229Y-54351830D01*
X171621229Y-54351830D02*
X171545038Y-54313735D01*
X171545038Y-54313735D02*
X171506943Y-54275639D01*
X170821228Y-54313735D02*
X170897419Y-54351830D01*
X170897419Y-54351830D02*
X171049800Y-54351830D01*
X171049800Y-54351830D02*
X171125990Y-54313735D01*
X171125990Y-54313735D02*
X171164086Y-54237544D01*
X171164086Y-54237544D02*
X171164086Y-53932782D01*
X171164086Y-53932782D02*
X171125990Y-53856592D01*
X171125990Y-53856592D02*
X171049800Y-53818496D01*
X171049800Y-53818496D02*
X170897419Y-53818496D01*
X170897419Y-53818496D02*
X170821228Y-53856592D01*
X170821228Y-53856592D02*
X170783133Y-53932782D01*
X170783133Y-53932782D02*
X170783133Y-54008973D01*
X170783133Y-54008973D02*
X171164086Y-54085163D01*
X170440276Y-54351830D02*
X170440276Y-53818496D01*
X170440276Y-53970877D02*
X170402181Y-53894687D01*
X170402181Y-53894687D02*
X170364086Y-53856592D01*
X170364086Y-53856592D02*
X170287895Y-53818496D01*
X170287895Y-53818496D02*
X170211705Y-53818496D01*
X169945038Y-54351830D02*
X169945038Y-53818496D01*
X169945038Y-53970877D02*
X169906943Y-53894687D01*
X169906943Y-53894687D02*
X169868848Y-53856592D01*
X169868848Y-53856592D02*
X169792657Y-53818496D01*
X169792657Y-53818496D02*
X169716467Y-53818496D01*
X169106943Y-54351830D02*
X169106943Y-53932782D01*
X169106943Y-53932782D02*
X169145038Y-53856592D01*
X169145038Y-53856592D02*
X169221229Y-53818496D01*
X169221229Y-53818496D02*
X169373610Y-53818496D01*
X169373610Y-53818496D02*
X169449800Y-53856592D01*
X169106943Y-54313735D02*
X169183134Y-54351830D01*
X169183134Y-54351830D02*
X169373610Y-54351830D01*
X169373610Y-54351830D02*
X169449800Y-54313735D01*
X169449800Y-54313735D02*
X169487896Y-54237544D01*
X169487896Y-54237544D02*
X169487896Y-54161354D01*
X169487896Y-54161354D02*
X169449800Y-54085163D01*
X169449800Y-54085163D02*
X169373610Y-54047068D01*
X169373610Y-54047068D02*
X169183134Y-54047068D01*
X169183134Y-54047068D02*
X169106943Y-54008973D01*
X179830754Y-54801735D02*
X180516468Y-55830306D01*
X179564087Y-55106496D02*
X179564087Y-55906496D01*
X179564087Y-55144592D02*
X179487897Y-55106496D01*
X179487897Y-55106496D02*
X179335516Y-55106496D01*
X179335516Y-55106496D02*
X179259325Y-55144592D01*
X179259325Y-55144592D02*
X179221230Y-55182687D01*
X179221230Y-55182687D02*
X179183135Y-55258877D01*
X179183135Y-55258877D02*
X179183135Y-55487449D01*
X179183135Y-55487449D02*
X179221230Y-55563639D01*
X179221230Y-55563639D02*
X179259325Y-55601735D01*
X179259325Y-55601735D02*
X179335516Y-55639830D01*
X179335516Y-55639830D02*
X179487897Y-55639830D01*
X179487897Y-55639830D02*
X179564087Y-55601735D01*
X178725992Y-55639830D02*
X178802182Y-55601735D01*
X178802182Y-55601735D02*
X178840277Y-55563639D01*
X178840277Y-55563639D02*
X178878373Y-55487449D01*
X178878373Y-55487449D02*
X178878373Y-55258877D01*
X178878373Y-55258877D02*
X178840277Y-55182687D01*
X178840277Y-55182687D02*
X178802182Y-55144592D01*
X178802182Y-55144592D02*
X178725992Y-55106496D01*
X178725992Y-55106496D02*
X178611706Y-55106496D01*
X178611706Y-55106496D02*
X178535515Y-55144592D01*
X178535515Y-55144592D02*
X178497420Y-55182687D01*
X178497420Y-55182687D02*
X178459325Y-55258877D01*
X178459325Y-55258877D02*
X178459325Y-55487449D01*
X178459325Y-55487449D02*
X178497420Y-55563639D01*
X178497420Y-55563639D02*
X178535515Y-55601735D01*
X178535515Y-55601735D02*
X178611706Y-55639830D01*
X178611706Y-55639830D02*
X178725992Y-55639830D01*
X178192658Y-55106496D02*
X178040277Y-55639830D01*
X178040277Y-55639830D02*
X177887896Y-55258877D01*
X177887896Y-55258877D02*
X177735515Y-55639830D01*
X177735515Y-55639830D02*
X177583134Y-55106496D01*
X176973610Y-55601735D02*
X177049801Y-55639830D01*
X177049801Y-55639830D02*
X177202182Y-55639830D01*
X177202182Y-55639830D02*
X177278372Y-55601735D01*
X177278372Y-55601735D02*
X177316468Y-55525544D01*
X177316468Y-55525544D02*
X177316468Y-55220782D01*
X177316468Y-55220782D02*
X177278372Y-55144592D01*
X177278372Y-55144592D02*
X177202182Y-55106496D01*
X177202182Y-55106496D02*
X177049801Y-55106496D01*
X177049801Y-55106496D02*
X176973610Y-55144592D01*
X176973610Y-55144592D02*
X176935515Y-55220782D01*
X176935515Y-55220782D02*
X176935515Y-55296973D01*
X176935515Y-55296973D02*
X177316468Y-55373163D01*
X176592658Y-55639830D02*
X176592658Y-55106496D01*
X176592658Y-55258877D02*
X176554563Y-55182687D01*
X176554563Y-55182687D02*
X176516468Y-55144592D01*
X176516468Y-55144592D02*
X176440277Y-55106496D01*
X176440277Y-55106496D02*
X176364087Y-55106496D01*
X176287897Y-55716020D02*
X175678373Y-55716020D01*
X175564087Y-55106496D02*
X175373611Y-55639830D01*
X175373611Y-55639830D02*
X175183134Y-55106496D01*
X174878372Y-55639830D02*
X174878372Y-55106496D01*
X174878372Y-54839830D02*
X174916468Y-54877925D01*
X174916468Y-54877925D02*
X174878372Y-54916020D01*
X174878372Y-54916020D02*
X174840277Y-54877925D01*
X174840277Y-54877925D02*
X174878372Y-54839830D01*
X174878372Y-54839830D02*
X174878372Y-54916020D01*
X174535516Y-55601735D02*
X174459325Y-55639830D01*
X174459325Y-55639830D02*
X174306944Y-55639830D01*
X174306944Y-55639830D02*
X174230754Y-55601735D01*
X174230754Y-55601735D02*
X174192658Y-55525544D01*
X174192658Y-55525544D02*
X174192658Y-55487449D01*
X174192658Y-55487449D02*
X174230754Y-55411258D01*
X174230754Y-55411258D02*
X174306944Y-55373163D01*
X174306944Y-55373163D02*
X174421230Y-55373163D01*
X174421230Y-55373163D02*
X174497420Y-55335068D01*
X174497420Y-55335068D02*
X174535516Y-55258877D01*
X174535516Y-55258877D02*
X174535516Y-55220782D01*
X174535516Y-55220782D02*
X174497420Y-55144592D01*
X174497420Y-55144592D02*
X174421230Y-55106496D01*
X174421230Y-55106496D02*
X174306944Y-55106496D01*
X174306944Y-55106496D02*
X174230754Y-55144592D01*
X173849801Y-55639830D02*
X173849801Y-55106496D01*
X173849801Y-54839830D02*
X173887897Y-54877925D01*
X173887897Y-54877925D02*
X173849801Y-54916020D01*
X173849801Y-54916020D02*
X173811706Y-54877925D01*
X173811706Y-54877925D02*
X173849801Y-54839830D01*
X173849801Y-54839830D02*
X173849801Y-54916020D01*
X173354564Y-55639830D02*
X173430754Y-55601735D01*
X173430754Y-55601735D02*
X173468849Y-55563639D01*
X173468849Y-55563639D02*
X173506945Y-55487449D01*
X173506945Y-55487449D02*
X173506945Y-55258877D01*
X173506945Y-55258877D02*
X173468849Y-55182687D01*
X173468849Y-55182687D02*
X173430754Y-55144592D01*
X173430754Y-55144592D02*
X173354564Y-55106496D01*
X173354564Y-55106496D02*
X173240278Y-55106496D01*
X173240278Y-55106496D02*
X173164087Y-55144592D01*
X173164087Y-55144592D02*
X173125992Y-55182687D01*
X173125992Y-55182687D02*
X173087897Y-55258877D01*
X173087897Y-55258877D02*
X173087897Y-55487449D01*
X173087897Y-55487449D02*
X173125992Y-55563639D01*
X173125992Y-55563639D02*
X173164087Y-55601735D01*
X173164087Y-55601735D02*
X173240278Y-55639830D01*
X173240278Y-55639830D02*
X173354564Y-55639830D01*
X172745039Y-55106496D02*
X172745039Y-55639830D01*
X172745039Y-55182687D02*
X172706944Y-55144592D01*
X172706944Y-55144592D02*
X172630754Y-55106496D01*
X172630754Y-55106496D02*
X172516468Y-55106496D01*
X172516468Y-55106496D02*
X172440277Y-55144592D01*
X172440277Y-55144592D02*
X172402182Y-55220782D01*
X172402182Y-55220782D02*
X172402182Y-55639830D01*
%TO.C,G\u002A\u002A\u002A*%
G36*
X176978228Y-49150266D02*
G01*
X176973728Y-49154766D01*
X176969227Y-49150266D01*
X176973728Y-49145766D01*
X176978228Y-49150266D01*
G37*
G36*
X173835329Y-41043297D02*
G01*
X173844068Y-41064053D01*
X173858615Y-41099387D01*
X173878477Y-41148079D01*
X173903162Y-41208910D01*
X173932177Y-41280660D01*
X173965028Y-41362111D01*
X174001224Y-41452044D01*
X174040270Y-41549239D01*
X174081675Y-41652477D01*
X174124945Y-41760539D01*
X174412037Y-42478077D01*
X174378779Y-42491221D01*
X174372634Y-42493680D01*
X174347062Y-42504118D01*
X174310387Y-42519250D01*
X174266554Y-42537446D01*
X174219511Y-42557073D01*
X174197613Y-42566156D01*
X174154723Y-42583485D01*
X174118561Y-42597488D01*
X174092400Y-42606915D01*
X174079516Y-42610516D01*
X174079502Y-42610517D01*
X174074933Y-42605851D01*
X174066693Y-42591200D01*
X174054496Y-42565884D01*
X174038057Y-42529224D01*
X174017090Y-42480541D01*
X173991311Y-42419156D01*
X173960434Y-42344389D01*
X173924174Y-42255561D01*
X173882245Y-42151993D01*
X173834363Y-42033006D01*
X173780242Y-41897920D01*
X173749018Y-41819791D01*
X173707310Y-41715240D01*
X173667928Y-41616307D01*
X173631358Y-41524222D01*
X173598087Y-41440219D01*
X173568600Y-41365530D01*
X173543384Y-41301387D01*
X173522925Y-41249022D01*
X173507710Y-41209667D01*
X173498224Y-41184556D01*
X173494954Y-41174919D01*
X173500551Y-41170325D01*
X173520218Y-41160086D01*
X173551106Y-41145858D01*
X173590137Y-41128888D01*
X173634234Y-41110422D01*
X173680320Y-41091707D01*
X173725318Y-41073989D01*
X173766150Y-41058515D01*
X173799739Y-41046532D01*
X173823007Y-41039286D01*
X173832877Y-41038024D01*
X173835329Y-41043297D01*
G37*
G36*
X171714631Y-42255677D02*
G01*
X171728096Y-42269632D01*
X171751578Y-42295339D01*
X171784039Y-42331596D01*
X171824439Y-42377202D01*
X171871741Y-42430955D01*
X171924905Y-42491653D01*
X171982893Y-42558093D01*
X172044667Y-42629074D01*
X172109188Y-42703394D01*
X172175417Y-42779851D01*
X172242316Y-42857244D01*
X172308847Y-42934369D01*
X172373970Y-43010025D01*
X172436648Y-43083011D01*
X172495841Y-43152124D01*
X172550511Y-43216163D01*
X172599620Y-43273924D01*
X172642129Y-43324208D01*
X172676999Y-43365811D01*
X172703192Y-43397532D01*
X172719670Y-43418168D01*
X172725393Y-43426518D01*
X172725368Y-43426775D01*
X172718079Y-43436784D01*
X172699270Y-43456256D01*
X172671058Y-43483168D01*
X172635557Y-43515500D01*
X172594883Y-43551229D01*
X172591935Y-43553774D01*
X172551260Y-43588603D01*
X172515321Y-43618875D01*
X172486323Y-43642768D01*
X172466475Y-43658464D01*
X172457982Y-43664142D01*
X172456982Y-43663425D01*
X172446482Y-43652617D01*
X172425539Y-43629700D01*
X172395153Y-43595809D01*
X172356327Y-43552079D01*
X172310063Y-43499644D01*
X172257363Y-43439639D01*
X172199228Y-43373198D01*
X172136661Y-43301457D01*
X172070664Y-43225549D01*
X172037012Y-43186786D01*
X171940602Y-43075715D01*
X171855137Y-42977223D01*
X171779966Y-42890550D01*
X171714437Y-42814937D01*
X171657898Y-42749621D01*
X171609697Y-42693844D01*
X171569182Y-42646844D01*
X171535700Y-42607861D01*
X171508599Y-42576135D01*
X171487227Y-42550904D01*
X171470933Y-42531409D01*
X171459063Y-42516889D01*
X171450966Y-42506583D01*
X171445990Y-42499732D01*
X171443483Y-42495574D01*
X171442792Y-42493349D01*
X171445185Y-42490118D01*
X171458589Y-42476640D01*
X171481600Y-42454956D01*
X171511720Y-42427296D01*
X171546450Y-42395886D01*
X171583293Y-42362955D01*
X171619751Y-42330731D01*
X171653327Y-42301440D01*
X171681522Y-42277311D01*
X171701838Y-42260572D01*
X171711778Y-42253450D01*
X171714631Y-42255677D01*
G37*
G36*
X177047838Y-47239865D02*
G01*
X177264003Y-47845163D01*
X176965134Y-47849663D01*
X176666265Y-47854164D01*
X176817526Y-48488714D01*
X176839303Y-48580148D01*
X176862971Y-48679712D01*
X176885095Y-48772979D01*
X176905345Y-48858547D01*
X176923391Y-48935016D01*
X176938903Y-49000983D01*
X176951551Y-49055049D01*
X176961004Y-49095810D01*
X176966933Y-49121866D01*
X176969007Y-49131814D01*
X176968315Y-49135243D01*
X176961141Y-49131814D01*
X176958449Y-49128095D01*
X176946538Y-49110620D01*
X176925917Y-49079938D01*
X176897330Y-49037168D01*
X176861520Y-48983427D01*
X176819231Y-48919834D01*
X176771205Y-48847506D01*
X176718187Y-48767563D01*
X176660918Y-48681121D01*
X176600143Y-48589298D01*
X176536605Y-48493214D01*
X176523724Y-48473726D01*
X176455473Y-48370470D01*
X176386925Y-48266765D01*
X176319216Y-48164330D01*
X176253481Y-48064882D01*
X176190856Y-47970141D01*
X176132478Y-47881824D01*
X176079481Y-47801651D01*
X176033003Y-47731340D01*
X175994179Y-47672609D01*
X175964146Y-47627177D01*
X175944516Y-47597446D01*
X175907806Y-47541631D01*
X175875101Y-47491622D01*
X175847590Y-47449258D01*
X175826465Y-47416375D01*
X175812917Y-47394813D01*
X175808136Y-47386408D01*
X175816434Y-47385160D01*
X175840432Y-47384013D01*
X175877795Y-47383039D01*
X175926180Y-47382286D01*
X175983247Y-47381799D01*
X176046655Y-47381627D01*
X176108925Y-47381460D01*
X176166132Y-47380977D01*
X176214702Y-47380225D01*
X176252292Y-47379251D01*
X176276563Y-47378103D01*
X176285174Y-47376827D01*
X176284766Y-47374728D01*
X176281469Y-47366313D01*
X176274365Y-47351176D01*
X176262859Y-47328180D01*
X176246356Y-47296184D01*
X176224259Y-47254052D01*
X176195975Y-47200642D01*
X176160908Y-47134818D01*
X176118463Y-47055440D01*
X176068045Y-46961369D01*
X176055447Y-46937868D01*
X176019144Y-46869988D01*
X175985942Y-46807674D01*
X175956748Y-46752641D01*
X175932466Y-46706602D01*
X175914001Y-46671272D01*
X175902258Y-46648364D01*
X175898143Y-46639594D01*
X175899343Y-46639233D01*
X175914254Y-46638287D01*
X175944879Y-46637408D01*
X175989544Y-46636615D01*
X176046577Y-46635926D01*
X176114302Y-46635359D01*
X176191049Y-46634931D01*
X176275142Y-46634662D01*
X176364909Y-46634568D01*
X176831674Y-46634568D01*
X177047838Y-47239865D01*
G37*
G36*
X182608510Y-44208877D02*
G01*
X182591393Y-44326200D01*
X182558395Y-44441793D01*
X182510895Y-44548891D01*
X182449826Y-44646401D01*
X182376122Y-44733233D01*
X182290716Y-44808292D01*
X182194541Y-44870486D01*
X182088532Y-44918724D01*
X181973621Y-44951912D01*
X181914671Y-44962076D01*
X181797631Y-44968989D01*
X181680700Y-44959150D01*
X181566188Y-44933168D01*
X181456404Y-44891647D01*
X181353659Y-44835197D01*
X181260263Y-44764423D01*
X181199313Y-44705201D01*
X181123332Y-44611969D01*
X181062149Y-44511430D01*
X181015953Y-44405197D01*
X180984934Y-44294880D01*
X180969280Y-44182092D01*
X180969231Y-44126247D01*
X181315117Y-44126247D01*
X181316350Y-44211119D01*
X181334243Y-44296545D01*
X181356727Y-44352740D01*
X181400072Y-44424043D01*
X181455704Y-44487389D01*
X181520642Y-44539536D01*
X181591912Y-44577239D01*
X181664267Y-44598861D01*
X181747650Y-44609734D01*
X181831229Y-44607425D01*
X181881011Y-44598947D01*
X181965351Y-44571097D01*
X182043306Y-44528360D01*
X182112782Y-44472553D01*
X182171683Y-44405493D01*
X182217914Y-44328996D01*
X182249379Y-44244880D01*
X182250415Y-44240812D01*
X182257362Y-44198167D01*
X182260686Y-44146812D01*
X182260397Y-44093333D01*
X182256506Y-44044320D01*
X182249023Y-44006361D01*
X182225789Y-43944481D01*
X182181113Y-43865457D01*
X182124199Y-43798703D01*
X182056334Y-43745173D01*
X181978807Y-43705820D01*
X181892904Y-43681600D01*
X181799915Y-43673468D01*
X181748609Y-43676392D01*
X181663480Y-43694075D01*
X181584585Y-43726259D01*
X181513228Y-43771201D01*
X181450712Y-43827156D01*
X181398340Y-43892382D01*
X181357415Y-43965135D01*
X181329239Y-44043671D01*
X181315117Y-44126247D01*
X180969231Y-44126247D01*
X180969180Y-44068444D01*
X180984823Y-43955549D01*
X181016399Y-43845016D01*
X181064096Y-43738460D01*
X181128103Y-43637490D01*
X181182723Y-43571484D01*
X181268776Y-43491423D01*
X181366324Y-43424782D01*
X181474473Y-43372147D01*
X181592326Y-43334103D01*
X181635307Y-43326053D01*
X181700418Y-43319952D01*
X181772239Y-43318271D01*
X181844803Y-43320933D01*
X181912144Y-43327862D01*
X181968297Y-43338979D01*
X181990999Y-43345371D01*
X182096133Y-43382267D01*
X182189507Y-43428872D01*
X182275162Y-43487486D01*
X182357139Y-43560410D01*
X182373613Y-43577216D01*
X182449278Y-43668390D01*
X182511501Y-43768209D01*
X182559410Y-43874421D01*
X182592130Y-43984773D01*
X182608788Y-44097009D01*
X182608664Y-44146812D01*
X182608510Y-44208877D01*
G37*
G36*
X172019726Y-43875851D02*
G01*
X172018701Y-43938539D01*
X172014718Y-43994881D01*
X172006741Y-44045749D01*
X171993736Y-44097587D01*
X171974669Y-44156840D01*
X171930172Y-44261374D01*
X171869021Y-44362337D01*
X171794473Y-44453349D01*
X171708019Y-44533220D01*
X171611147Y-44600761D01*
X171505346Y-44654782D01*
X171392106Y-44694093D01*
X171272915Y-44717504D01*
X171167902Y-44722546D01*
X171056059Y-44711977D01*
X170945416Y-44686101D01*
X170839614Y-44645779D01*
X170742294Y-44591874D01*
X170656290Y-44526780D01*
X170575459Y-44445735D01*
X170508376Y-44355806D01*
X170455185Y-44258589D01*
X170416034Y-44155684D01*
X170391068Y-44048686D01*
X170380433Y-43939194D01*
X170382310Y-43885299D01*
X170725889Y-43885299D01*
X170735086Y-43968484D01*
X170758688Y-44048780D01*
X170795937Y-44124278D01*
X170846073Y-44193063D01*
X170908337Y-44253224D01*
X170981971Y-44302849D01*
X171066215Y-44340025D01*
X171092475Y-44347522D01*
X171145945Y-44357311D01*
X171203601Y-44362633D01*
X171258395Y-44362961D01*
X171303281Y-44357766D01*
X171350461Y-44345501D01*
X171435775Y-44310749D01*
X171509459Y-44262391D01*
X171571247Y-44200623D01*
X171620871Y-44125639D01*
X171622566Y-44122430D01*
X171656312Y-44039620D01*
X171673156Y-43954433D01*
X171673633Y-43868808D01*
X171658276Y-43784685D01*
X171627620Y-43704004D01*
X171582199Y-43628706D01*
X171522547Y-43560731D01*
X171449198Y-43502018D01*
X171440845Y-43496589D01*
X171364523Y-43458486D01*
X171281186Y-43434976D01*
X171194110Y-43426145D01*
X171106568Y-43432079D01*
X171021838Y-43452867D01*
X170943192Y-43488593D01*
X170924578Y-43500866D01*
X170887137Y-43531492D01*
X170848529Y-43568900D01*
X170814147Y-43607697D01*
X170789379Y-43642491D01*
X170753747Y-43717916D01*
X170731857Y-43801139D01*
X170725889Y-43885299D01*
X170382310Y-43885299D01*
X170384277Y-43828805D01*
X170402746Y-43719117D01*
X170435984Y-43611728D01*
X170484140Y-43508234D01*
X170547359Y-43410234D01*
X170625787Y-43319325D01*
X170634309Y-43310819D01*
X170709987Y-43243538D01*
X170789352Y-43188678D01*
X170877027Y-43143422D01*
X170977637Y-43104952D01*
X171008543Y-43095197D01*
X171044715Y-43085872D01*
X171081282Y-43079635D01*
X171124112Y-43075545D01*
X171179073Y-43072661D01*
X171220189Y-43071619D01*
X171323499Y-43076045D01*
X171417523Y-43091780D01*
X171506355Y-43119689D01*
X171594091Y-43160643D01*
X171634063Y-43183573D01*
X171732384Y-43253533D01*
X171817419Y-43335024D01*
X171888494Y-43426916D01*
X171944935Y-43528076D01*
X171986071Y-43637374D01*
X172011225Y-43753676D01*
X172019236Y-43868808D01*
X172019726Y-43875851D01*
G37*
G36*
X175652946Y-40574727D02*
G01*
X175650352Y-40592548D01*
X175644922Y-40625786D01*
X175636928Y-40672935D01*
X175626640Y-40732490D01*
X175614331Y-40802948D01*
X175600270Y-40882803D01*
X175584730Y-40970551D01*
X175567981Y-41064688D01*
X175550295Y-41163709D01*
X175531942Y-41266108D01*
X175513193Y-41370383D01*
X175494321Y-41475028D01*
X175475596Y-41578538D01*
X175457288Y-41679410D01*
X175439670Y-41776138D01*
X175423012Y-41867218D01*
X175407585Y-41951146D01*
X175393662Y-42026416D01*
X175381511Y-42091524D01*
X175371406Y-42144967D01*
X175363617Y-42185238D01*
X175358415Y-42210834D01*
X175356071Y-42220250D01*
X175352146Y-42221835D01*
X175333282Y-42227031D01*
X175301739Y-42234736D01*
X175260624Y-42244203D01*
X175213043Y-42254685D01*
X175184288Y-42260738D01*
X175139928Y-42269437D01*
X175103690Y-42275735D01*
X175078719Y-42279106D01*
X175068158Y-42279020D01*
X175065920Y-42276389D01*
X175054408Y-42260529D01*
X175034393Y-42231742D01*
X175006717Y-42191295D01*
X174972222Y-42140454D01*
X174931752Y-42080488D01*
X174886147Y-42012662D01*
X174836251Y-41938245D01*
X174782906Y-41858503D01*
X174726954Y-41774704D01*
X174669237Y-41688114D01*
X174610598Y-41600002D01*
X174551879Y-41511633D01*
X174493922Y-41424276D01*
X174437569Y-41339196D01*
X174383664Y-41257663D01*
X174333048Y-41180942D01*
X174286563Y-41110300D01*
X174245051Y-41047006D01*
X174209356Y-40992326D01*
X174180320Y-40947527D01*
X174158784Y-40913876D01*
X174145591Y-40892641D01*
X174141583Y-40885089D01*
X174143440Y-40884594D01*
X174159688Y-40880887D01*
X174189931Y-40874271D01*
X174231468Y-40865329D01*
X174281596Y-40854643D01*
X174337612Y-40842797D01*
X174393847Y-40831144D01*
X174446682Y-40820822D01*
X174485440Y-40814209D01*
X174511990Y-40811035D01*
X174528198Y-40811025D01*
X174535932Y-40813909D01*
X174538235Y-40816955D01*
X174549582Y-40833622D01*
X174569225Y-40863286D01*
X174596233Y-40904516D01*
X174629679Y-40955884D01*
X174668631Y-41015960D01*
X174712160Y-41083315D01*
X174759337Y-41156519D01*
X174809232Y-41234143D01*
X174867194Y-41324380D01*
X174918915Y-41404747D01*
X174962343Y-41471991D01*
X174998188Y-41527161D01*
X175027160Y-41571306D01*
X175049966Y-41605474D01*
X175067318Y-41630714D01*
X175079924Y-41648076D01*
X175088494Y-41658608D01*
X175093737Y-41663359D01*
X175096362Y-41663377D01*
X175097080Y-41659712D01*
X175097172Y-41658554D01*
X175099260Y-41643588D01*
X175103859Y-41613486D01*
X175110653Y-41570182D01*
X175119328Y-41515614D01*
X175129567Y-41451717D01*
X175141055Y-41380426D01*
X175153475Y-41303678D01*
X175166511Y-41223408D01*
X175179849Y-41141553D01*
X175193172Y-41060049D01*
X175206164Y-40980830D01*
X175218510Y-40905834D01*
X175229893Y-40836995D01*
X175239999Y-40776250D01*
X175248510Y-40725535D01*
X175255112Y-40686786D01*
X175259488Y-40661938D01*
X175261323Y-40652928D01*
X175263094Y-40652168D01*
X175278578Y-40648067D01*
X175307307Y-40641420D01*
X175346197Y-40632863D01*
X175392164Y-40623033D01*
X175442126Y-40612566D01*
X175492998Y-40602100D01*
X175541696Y-40592270D01*
X175585137Y-40583714D01*
X175620238Y-40577067D01*
X175643915Y-40572967D01*
X175653083Y-40572050D01*
X175652946Y-40574727D01*
G37*
G36*
X173014610Y-41525830D02*
G01*
X173097908Y-41553587D01*
X173175250Y-41598221D01*
X173246736Y-41659744D01*
X173264096Y-41678177D01*
X173318971Y-41750121D01*
X173356069Y-41824767D01*
X173375368Y-41901984D01*
X173376846Y-41981636D01*
X173360482Y-42063591D01*
X173326254Y-42147715D01*
X173315973Y-42167241D01*
X173291629Y-42208123D01*
X173262513Y-42249753D01*
X173226832Y-42294305D01*
X173182789Y-42343953D01*
X173128590Y-42400873D01*
X173062437Y-42467240D01*
X173009932Y-42519611D01*
X172968105Y-42562954D01*
X172936952Y-42597922D01*
X172915171Y-42626444D01*
X172901465Y-42650449D01*
X172894533Y-42671867D01*
X172893076Y-42692627D01*
X172895794Y-42714658D01*
X172896258Y-42716869D01*
X172909604Y-42745363D01*
X172933175Y-42772328D01*
X172961468Y-42792651D01*
X172988977Y-42801220D01*
X173048927Y-42797547D01*
X173123029Y-42777676D01*
X173197315Y-42741755D01*
X173270015Y-42690671D01*
X173339361Y-42625314D01*
X173384560Y-42573235D01*
X173427434Y-42512543D01*
X173461348Y-42447909D01*
X173490211Y-42372793D01*
X173518269Y-42289003D01*
X173657374Y-42365097D01*
X173695891Y-42386319D01*
X173737366Y-42409544D01*
X173771240Y-42428932D01*
X173794770Y-42442907D01*
X173805209Y-42449895D01*
X173808150Y-42457001D01*
X173806069Y-42479518D01*
X173796164Y-42512882D01*
X173779699Y-42554427D01*
X173757939Y-42601488D01*
X173732145Y-42651400D01*
X173703582Y-42701498D01*
X173673514Y-42749116D01*
X173643204Y-42791589D01*
X173591681Y-42851808D01*
X173510484Y-42927975D01*
X173419247Y-42996079D01*
X173321598Y-43053778D01*
X173221166Y-43098727D01*
X173121578Y-43128583D01*
X173100245Y-43132597D01*
X173043038Y-43138935D01*
X172981001Y-43141046D01*
X172921549Y-43138822D01*
X172872098Y-43132159D01*
X172808030Y-43112797D01*
X172732511Y-43074105D01*
X172664407Y-43021119D01*
X172606076Y-42955745D01*
X172559875Y-42879886D01*
X172534156Y-42820440D01*
X172515609Y-42754079D01*
X172510552Y-42690702D01*
X172518319Y-42626239D01*
X172519569Y-42620412D01*
X172532123Y-42572250D01*
X172548786Y-42526609D01*
X172570927Y-42481461D01*
X172599917Y-42434779D01*
X172637128Y-42384535D01*
X172683931Y-42328700D01*
X172741695Y-42265249D01*
X172811793Y-42192152D01*
X172837311Y-42165819D01*
X172878607Y-42122369D01*
X172915139Y-42082902D01*
X172944924Y-42049612D01*
X172965976Y-42024691D01*
X172976311Y-42010334D01*
X172982061Y-41997354D01*
X172989690Y-41957586D01*
X172984351Y-41919152D01*
X172967227Y-41886720D01*
X172939499Y-41864959D01*
X172924625Y-41859908D01*
X172884310Y-41855619D01*
X172837010Y-41859867D01*
X172788593Y-41872364D01*
X172750876Y-41888944D01*
X172699871Y-41918431D01*
X172647209Y-41955001D01*
X172598183Y-41994932D01*
X172558083Y-42034502D01*
X172548486Y-42045995D01*
X172525479Y-42077626D01*
X172501505Y-42114936D01*
X172478861Y-42153867D01*
X172459842Y-42190363D01*
X172446747Y-42220364D01*
X172441871Y-42239814D01*
X172439286Y-42247422D01*
X172425382Y-42249010D01*
X172418188Y-42246453D01*
X172395439Y-42235619D01*
X172363875Y-42218649D01*
X172326565Y-42197406D01*
X172286575Y-42173748D01*
X172246976Y-42149537D01*
X172210835Y-42126633D01*
X172181221Y-42106897D01*
X172161203Y-42092189D01*
X172153848Y-42084370D01*
X172155670Y-42074160D01*
X172162506Y-42050735D01*
X172172677Y-42021559D01*
X172179202Y-42005311D01*
X172216175Y-41935681D01*
X172267043Y-41864460D01*
X172329043Y-41794311D01*
X172399413Y-41727897D01*
X172475391Y-41667880D01*
X172554214Y-41616924D01*
X172633120Y-41577692D01*
X172728004Y-41543681D01*
X172829757Y-41520890D01*
X172925260Y-41514935D01*
X173014610Y-41525830D01*
G37*
G36*
X183439746Y-45711283D02*
G01*
X183460539Y-45767587D01*
X183478177Y-45816020D01*
X183491818Y-45854354D01*
X183500621Y-45880364D01*
X183503742Y-45891822D01*
X183502943Y-45894004D01*
X183499896Y-45896851D01*
X183493687Y-45900684D01*
X183483403Y-45905858D01*
X183468129Y-45912727D01*
X183446953Y-45921644D01*
X183418960Y-45932964D01*
X183383238Y-45947039D01*
X183338873Y-45964224D01*
X183284951Y-45984873D01*
X183220558Y-46009339D01*
X183144782Y-46037977D01*
X183056708Y-46071140D01*
X182955423Y-46109181D01*
X182840014Y-46152456D01*
X182709567Y-46201317D01*
X182563168Y-46256119D01*
X182474739Y-46289189D01*
X182389026Y-46321196D01*
X182309814Y-46350726D01*
X182238581Y-46377231D01*
X182176807Y-46400161D01*
X182125972Y-46418968D01*
X182087555Y-46433102D01*
X182063034Y-46442014D01*
X182053890Y-46445156D01*
X182053003Y-46444121D01*
X182046789Y-46430960D01*
X182035991Y-46405114D01*
X182021795Y-46369679D01*
X182005387Y-46327754D01*
X181987954Y-46282437D01*
X181970680Y-46236827D01*
X181954752Y-46194021D01*
X181941356Y-46157119D01*
X181931678Y-46129218D01*
X181926904Y-46113417D01*
X181929902Y-46108635D01*
X181945144Y-46099071D01*
X181973983Y-46085247D01*
X182017281Y-46066783D01*
X182075902Y-46043298D01*
X182150707Y-46014409D01*
X182151460Y-46014122D01*
X182211534Y-45991094D01*
X182265973Y-45970000D01*
X182312535Y-45951724D01*
X182348980Y-45937155D01*
X182373068Y-45927178D01*
X182382558Y-45922680D01*
X182382762Y-45922021D01*
X182380151Y-45909360D01*
X182372093Y-45883035D01*
X182359466Y-45845657D01*
X182343144Y-45799836D01*
X182324002Y-45748180D01*
X182298544Y-45679297D01*
X182273183Y-45605609D01*
X182254650Y-45543457D01*
X182242485Y-45490196D01*
X182238324Y-45458932D01*
X182594470Y-45458932D01*
X182596710Y-45494664D01*
X182605713Y-45537362D01*
X182621763Y-45590139D01*
X182645145Y-45656113D01*
X182656596Y-45686924D01*
X182672897Y-45729896D01*
X182686581Y-45764902D01*
X182696474Y-45788957D01*
X182701399Y-45799075D01*
X182708574Y-45798320D01*
X182730006Y-45792376D01*
X182762577Y-45782014D01*
X182803228Y-45768329D01*
X182848896Y-45752419D01*
X182896521Y-45735380D01*
X182943043Y-45718311D01*
X182985400Y-45702308D01*
X183020533Y-45688467D01*
X183045379Y-45677886D01*
X183056879Y-45671663D01*
X183057223Y-45667336D01*
X183053178Y-45648707D01*
X183044378Y-45618730D01*
X183032003Y-45580769D01*
X183017232Y-45538189D01*
X183001246Y-45494357D01*
X182985224Y-45452638D01*
X182970346Y-45416397D01*
X182957792Y-45389000D01*
X182949714Y-45374885D01*
X182923772Y-45340645D01*
X182892747Y-45309536D01*
X182862888Y-45288194D01*
X182833656Y-45278279D01*
X182788197Y-45275281D01*
X182739167Y-45282777D01*
X182692456Y-45300347D01*
X182689095Y-45302095D01*
X182658878Y-45320733D01*
X182638034Y-45342290D01*
X182619422Y-45373966D01*
X182609145Y-45395900D01*
X182598710Y-45427048D01*
X182594470Y-45458932D01*
X182238324Y-45458932D01*
X182236228Y-45443180D01*
X182235418Y-45399765D01*
X182239596Y-45357306D01*
X182248301Y-45313158D01*
X182255711Y-45285326D01*
X182290455Y-45198918D01*
X182340264Y-45120741D01*
X182403860Y-45052018D01*
X182479963Y-44993975D01*
X182567294Y-44947834D01*
X182664574Y-44914819D01*
X182720264Y-44903576D01*
X182811966Y-44898495D01*
X182899786Y-44910457D01*
X182982707Y-44938948D01*
X183059716Y-44983456D01*
X183129796Y-45043469D01*
X183191932Y-45118473D01*
X183245110Y-45207955D01*
X183249579Y-45217697D01*
X183260874Y-45244652D01*
X183276591Y-45283774D01*
X183295891Y-45332837D01*
X183317930Y-45389614D01*
X183341866Y-45451879D01*
X183366858Y-45517404D01*
X183392063Y-45583965D01*
X183416640Y-45649333D01*
X183423355Y-45667336D01*
X183439746Y-45711283D01*
G37*
G36*
X169831339Y-44532053D02*
G01*
X169850570Y-44539390D01*
X169883992Y-44552452D01*
X169930135Y-44570651D01*
X169987532Y-44593398D01*
X170054713Y-44620103D01*
X170130210Y-44650179D01*
X170212554Y-44683036D01*
X170300275Y-44718086D01*
X170391907Y-44754740D01*
X170485978Y-44792408D01*
X170581022Y-44830503D01*
X170675568Y-44868435D01*
X170768149Y-44905616D01*
X170857295Y-44941457D01*
X170941537Y-44975368D01*
X171019408Y-45006763D01*
X171089438Y-45035050D01*
X171150158Y-45059642D01*
X171200100Y-45079950D01*
X171237794Y-45095386D01*
X171261773Y-45105359D01*
X171270566Y-45109283D01*
X171269510Y-45116631D01*
X171262623Y-45137898D01*
X171250863Y-45169937D01*
X171235488Y-45209682D01*
X171217755Y-45254071D01*
X171198923Y-45300039D01*
X171180247Y-45344521D01*
X171162987Y-45384452D01*
X171148398Y-45416770D01*
X171137739Y-45438409D01*
X171132268Y-45446305D01*
X171130404Y-45445828D01*
X171114613Y-45440200D01*
X171084308Y-45428729D01*
X171041080Y-45412037D01*
X170986518Y-45390746D01*
X170922212Y-45365477D01*
X170849753Y-45336853D01*
X170770730Y-45305496D01*
X170686733Y-45272027D01*
X170653271Y-45258676D01*
X170571378Y-45226082D01*
X170495278Y-45195907D01*
X170426530Y-45168761D01*
X170366695Y-45145257D01*
X170317332Y-45126005D01*
X170279999Y-45111616D01*
X170256257Y-45102703D01*
X170247664Y-45099876D01*
X170247736Y-45100191D01*
X170253580Y-45110580D01*
X170268063Y-45134673D01*
X170290381Y-45171173D01*
X170319730Y-45218781D01*
X170355307Y-45276200D01*
X170396307Y-45342131D01*
X170441927Y-45415276D01*
X170491362Y-45494338D01*
X170543809Y-45578019D01*
X170550400Y-45588524D01*
X170603213Y-45672715D01*
X170653429Y-45752805D01*
X170700177Y-45827400D01*
X170742585Y-45895107D01*
X170779781Y-45954534D01*
X170810893Y-46004288D01*
X170835049Y-46042975D01*
X170851377Y-46069202D01*
X170859005Y-46081577D01*
X170875522Y-46109131D01*
X170816125Y-46257090D01*
X170799893Y-46297560D01*
X170781451Y-46343627D01*
X170765906Y-46382555D01*
X170754530Y-46411157D01*
X170748597Y-46426243D01*
X170747855Y-46428115D01*
X170737268Y-46442209D01*
X170719475Y-46442168D01*
X170718335Y-46441834D01*
X170703096Y-46436310D01*
X170673204Y-46424843D01*
X170630153Y-46408035D01*
X170575439Y-46386484D01*
X170510554Y-46360791D01*
X170436993Y-46331556D01*
X170356250Y-46299379D01*
X170269819Y-46264860D01*
X170179195Y-46228599D01*
X170085871Y-46191197D01*
X169991342Y-46153254D01*
X169897101Y-46115369D01*
X169804643Y-46078143D01*
X169715463Y-46042175D01*
X169631053Y-46008067D01*
X169552909Y-45976417D01*
X169482524Y-45947827D01*
X169421393Y-45922896D01*
X169371009Y-45902224D01*
X169332867Y-45886412D01*
X169308462Y-45876059D01*
X169299286Y-45871765D01*
X169298990Y-45870975D01*
X169301474Y-45857857D01*
X169309782Y-45831265D01*
X169323003Y-45793804D01*
X169340225Y-45748080D01*
X169360536Y-45696698D01*
X169428541Y-45528390D01*
X169465840Y-45543126D01*
X169466172Y-45543257D01*
X169482526Y-45549790D01*
X169513701Y-45562301D01*
X169557899Y-45580068D01*
X169613321Y-45602365D01*
X169678168Y-45628470D01*
X169750641Y-45657657D01*
X169828941Y-45689204D01*
X169911270Y-45722386D01*
X169922873Y-45727059D01*
X170002726Y-45759018D01*
X170076916Y-45788359D01*
X170143870Y-45814484D01*
X170202016Y-45836797D01*
X170249784Y-45854698D01*
X170285600Y-45867591D01*
X170307893Y-45874877D01*
X170315091Y-45875959D01*
X170314257Y-45874379D01*
X170305724Y-45860048D01*
X170288722Y-45832220D01*
X170264059Y-45792198D01*
X170232545Y-45741286D01*
X170194989Y-45680787D01*
X170152198Y-45612005D01*
X170104984Y-45536244D01*
X170054153Y-45454808D01*
X170000516Y-45369000D01*
X169690250Y-44872994D01*
X169757887Y-44702948D01*
X169762769Y-44690679D01*
X169782822Y-44640379D01*
X169800298Y-44596696D01*
X169814181Y-44562160D01*
X169823456Y-44539299D01*
X169827106Y-44530640D01*
X169831339Y-44532053D01*
G37*
G36*
X178487772Y-40861309D02*
G01*
X178596568Y-40899762D01*
X178721688Y-40944031D01*
X178831554Y-40982978D01*
X178927136Y-41016967D01*
X179009406Y-41046361D01*
X179079335Y-41071524D01*
X179137894Y-41092821D01*
X179186054Y-41110613D01*
X179224787Y-41125265D01*
X179255063Y-41137141D01*
X179277854Y-41146604D01*
X179294130Y-41154017D01*
X179304864Y-41159744D01*
X179311025Y-41164149D01*
X179313586Y-41167595D01*
X179313517Y-41170446D01*
X179311878Y-41174911D01*
X179304624Y-41195127D01*
X179292089Y-41230259D01*
X179274724Y-41279032D01*
X179252982Y-41340172D01*
X179227317Y-41412404D01*
X179198181Y-41494456D01*
X179166026Y-41585051D01*
X179131306Y-41682916D01*
X179094473Y-41786777D01*
X179055979Y-41895360D01*
X179031897Y-41963279D01*
X178994452Y-42068787D01*
X178958971Y-42168645D01*
X178925901Y-42261594D01*
X178895694Y-42346378D01*
X178868797Y-42421739D01*
X178845659Y-42486418D01*
X178826731Y-42539158D01*
X178812460Y-42578702D01*
X178803296Y-42603790D01*
X178799688Y-42613166D01*
X178796026Y-42617295D01*
X178782596Y-42619434D01*
X178758542Y-42611546D01*
X178756295Y-42610665D01*
X178738778Y-42604246D01*
X178706498Y-42592670D01*
X178661136Y-42576530D01*
X178604369Y-42556422D01*
X178537876Y-42532938D01*
X178463337Y-42506673D01*
X178382429Y-42478221D01*
X178296832Y-42448176D01*
X178265028Y-42437022D01*
X178181966Y-42407879D01*
X178104790Y-42380784D01*
X178035086Y-42356296D01*
X177974441Y-42334973D01*
X177924440Y-42317373D01*
X177886669Y-42304052D01*
X177862714Y-42295570D01*
X177854162Y-42292483D01*
X177854236Y-42290500D01*
X177858517Y-42275377D01*
X177867518Y-42248120D01*
X177880061Y-42211963D01*
X177894963Y-42170138D01*
X177911046Y-42125878D01*
X177927127Y-42082415D01*
X177942027Y-42042983D01*
X177954565Y-42010815D01*
X177963561Y-41989144D01*
X177967833Y-41981201D01*
X177974262Y-41983058D01*
X177996024Y-41990238D01*
X178031177Y-42002180D01*
X178077730Y-42018197D01*
X178133692Y-42037603D01*
X178197071Y-42059713D01*
X178265877Y-42083841D01*
X178337722Y-42109068D01*
X178401805Y-42131419D01*
X178452193Y-42148683D01*
X178490598Y-42161336D01*
X178518735Y-42169854D01*
X178538318Y-42174714D01*
X178551060Y-42176392D01*
X178558675Y-42175364D01*
X178562877Y-42172107D01*
X178565379Y-42167098D01*
X178579154Y-42130849D01*
X178597263Y-42080912D01*
X178613685Y-42033191D01*
X178627481Y-41990608D01*
X178637714Y-41956088D01*
X178643445Y-41932554D01*
X178643736Y-41922929D01*
X178643585Y-41922844D01*
X178632459Y-41918388D01*
X178606747Y-41908841D01*
X178568719Y-41895025D01*
X178520645Y-41877759D01*
X178464793Y-41857862D01*
X178403435Y-41836154D01*
X178398968Y-41834578D01*
X178338219Y-41813081D01*
X178283382Y-41793547D01*
X178236672Y-41776778D01*
X178200304Y-41763570D01*
X178176492Y-41754723D01*
X178167452Y-41751036D01*
X178167371Y-41750886D01*
X178169527Y-41740622D01*
X178176678Y-41717062D01*
X178187661Y-41683520D01*
X178201312Y-41643308D01*
X178216468Y-41599739D01*
X178231964Y-41556126D01*
X178246637Y-41515781D01*
X178259324Y-41482017D01*
X178268860Y-41458147D01*
X178274083Y-41447483D01*
X178276761Y-41446607D01*
X178289844Y-41448245D01*
X178314163Y-41454489D01*
X178350650Y-41465641D01*
X178400234Y-41482004D01*
X178463845Y-41503879D01*
X178542414Y-41531569D01*
X178636870Y-41565376D01*
X178676653Y-41579552D01*
X178713942Y-41592200D01*
X178739116Y-41599504D01*
X178754802Y-41602062D01*
X178763626Y-41600475D01*
X178768217Y-41595341D01*
X178771775Y-41587507D01*
X178781510Y-41562729D01*
X178793644Y-41529056D01*
X178806971Y-41490184D01*
X178820285Y-41449804D01*
X178832380Y-41411609D01*
X178842049Y-41379293D01*
X178848088Y-41356548D01*
X178849290Y-41347066D01*
X178844493Y-41344825D01*
X178824541Y-41337032D01*
X178791016Y-41324521D01*
X178745934Y-41308029D01*
X178691313Y-41288293D01*
X178629173Y-41266049D01*
X178561530Y-41242034D01*
X178514803Y-41225448D01*
X178450441Y-41202392D01*
X178392845Y-41181512D01*
X178344060Y-41163562D01*
X178306131Y-41149296D01*
X178281102Y-41139470D01*
X178271019Y-41134837D01*
X178270207Y-41133279D01*
X178270558Y-41124168D01*
X178274595Y-41106448D01*
X178282760Y-41078744D01*
X178295492Y-41039684D01*
X178313234Y-40987894D01*
X178336426Y-40922000D01*
X178365510Y-40840629D01*
X178372689Y-40820645D01*
X178487772Y-40861309D01*
G37*
G36*
X177856733Y-41073871D02*
G01*
X177845166Y-41169453D01*
X177832679Y-41272460D01*
X177819439Y-41381496D01*
X177805616Y-41495163D01*
X177798535Y-41553378D01*
X177785098Y-41664057D01*
X177772388Y-41768996D01*
X177760569Y-41866846D01*
X177749800Y-41956262D01*
X177740245Y-42035894D01*
X177732063Y-42104395D01*
X177725418Y-42160419D01*
X177720470Y-42202616D01*
X177717381Y-42229640D01*
X177716313Y-42240143D01*
X177712538Y-42246659D01*
X177696035Y-42247089D01*
X177683528Y-42245018D01*
X177655323Y-42241092D01*
X177615428Y-42235909D01*
X177567143Y-42229897D01*
X177513770Y-42223482D01*
X177465050Y-42217634D01*
X177419316Y-42211945D01*
X177382851Y-42207191D01*
X177358525Y-42203747D01*
X177349211Y-42201990D01*
X177349313Y-42196139D01*
X177351244Y-42174608D01*
X177354943Y-42139560D01*
X177360141Y-42093428D01*
X177366571Y-42038644D01*
X177373963Y-41977640D01*
X177377887Y-41945875D01*
X177386681Y-41875015D01*
X177393331Y-41819432D01*
X177397672Y-41777232D01*
X177399538Y-41746523D01*
X177398764Y-41725410D01*
X177395185Y-41712001D01*
X177388635Y-41704402D01*
X177378948Y-41700719D01*
X177365961Y-41699060D01*
X177349507Y-41697531D01*
X177327887Y-41695139D01*
X177296648Y-41691975D01*
X177274917Y-41690133D01*
X177274663Y-41690119D01*
X177266505Y-41691680D01*
X177255585Y-41697891D01*
X177240619Y-41710037D01*
X177220322Y-41729400D01*
X177193409Y-41757264D01*
X177158595Y-41794913D01*
X177114597Y-41843629D01*
X177060129Y-41904695D01*
X177034073Y-41934012D01*
X176988714Y-41985021D01*
X176947738Y-42031067D01*
X176912659Y-42070449D01*
X176884992Y-42101469D01*
X176866250Y-42122428D01*
X176857947Y-42131625D01*
X176850630Y-42134935D01*
X176835251Y-42136300D01*
X176809875Y-42135585D01*
X176772546Y-42132675D01*
X176721307Y-42127458D01*
X176654203Y-42119821D01*
X176633067Y-42117314D01*
X176576904Y-42110387D01*
X176527246Y-42103888D01*
X176486940Y-42098212D01*
X176458832Y-42093753D01*
X176445766Y-42090907D01*
X176444058Y-42089677D01*
X176444108Y-42083036D01*
X176451398Y-42070307D01*
X176467011Y-42050149D01*
X176492035Y-42021222D01*
X176527555Y-41982185D01*
X176574654Y-41931698D01*
X176586111Y-41919504D01*
X176633796Y-41868688D01*
X176682137Y-41817082D01*
X176727884Y-41768159D01*
X176767790Y-41725394D01*
X176798604Y-41692261D01*
X176878744Y-41605836D01*
X176829290Y-41571776D01*
X176795033Y-41545583D01*
X176734380Y-41483233D01*
X176686079Y-41410445D01*
X176650596Y-41329420D01*
X176628400Y-41242356D01*
X176619958Y-41151453D01*
X176620367Y-41144901D01*
X176992216Y-41144901D01*
X176992502Y-41171813D01*
X176995633Y-41198625D01*
X177003720Y-41220138D01*
X177018731Y-41243676D01*
X177051292Y-41279786D01*
X177095985Y-41309491D01*
X177153253Y-41331311D01*
X177225357Y-41346368D01*
X177240948Y-41348654D01*
X177290468Y-41355376D01*
X177339523Y-41361379D01*
X177379460Y-41365582D01*
X177400918Y-41367461D01*
X177426274Y-41368807D01*
X177440146Y-41366960D01*
X177446614Y-41361024D01*
X177449753Y-41350100D01*
X177451245Y-41341451D01*
X177454979Y-41315406D01*
X177459912Y-41277905D01*
X177465606Y-41232614D01*
X177471625Y-41183195D01*
X177477530Y-41133312D01*
X177482885Y-41086629D01*
X177487251Y-41046810D01*
X177490191Y-41017516D01*
X177491269Y-41002414D01*
X177490062Y-40995776D01*
X177484370Y-40990094D01*
X177471503Y-40985337D01*
X177448776Y-40980822D01*
X177413505Y-40975865D01*
X177363008Y-40969785D01*
X177297482Y-40962537D01*
X177240329Y-40957432D01*
X177195580Y-40955365D01*
X177160430Y-40956433D01*
X177132075Y-40960733D01*
X177107710Y-40968363D01*
X177084531Y-40979420D01*
X177053026Y-41000210D01*
X177018981Y-41037990D01*
X176999017Y-41085671D01*
X176992216Y-41144901D01*
X176620367Y-41144901D01*
X176625736Y-41058910D01*
X176646203Y-40966928D01*
X176681825Y-40877705D01*
X176706050Y-40833862D01*
X176755994Y-40766741D01*
X176815788Y-40712884D01*
X176886750Y-40671418D01*
X176970195Y-40641470D01*
X177067441Y-40622167D01*
X177084465Y-40620046D01*
X177109303Y-40617841D01*
X177136036Y-40616772D01*
X177166435Y-40616974D01*
X177202273Y-40618584D01*
X177245323Y-40621738D01*
X177297357Y-40626572D01*
X177360147Y-40633223D01*
X177435466Y-40641825D01*
X177525086Y-40652516D01*
X177630780Y-40665432D01*
X177900801Y-40698672D01*
X177897847Y-40730139D01*
X177897379Y-40734520D01*
X177894870Y-40756222D01*
X177890430Y-40793728D01*
X177884229Y-40845643D01*
X177876433Y-40910569D01*
X177867212Y-40987111D01*
X177865364Y-41002414D01*
X177856733Y-41073871D01*
G37*
G36*
X179782170Y-41293130D02*
G01*
X179794472Y-41299387D01*
X179817834Y-41314489D01*
X179849682Y-41336514D01*
X179887439Y-41363538D01*
X179928528Y-41393639D01*
X179970372Y-41424894D01*
X180010394Y-41455379D01*
X180046019Y-41483172D01*
X180074670Y-41506349D01*
X180093769Y-41522988D01*
X180100741Y-41531166D01*
X180099773Y-41535777D01*
X180094013Y-41556206D01*
X180083501Y-41591189D01*
X180068740Y-41639125D01*
X180050231Y-41698410D01*
X180028474Y-41767442D01*
X180003972Y-41844619D01*
X179977226Y-41928338D01*
X179948738Y-42016996D01*
X179930811Y-42072679D01*
X179903483Y-42157781D01*
X179878250Y-42236618D01*
X179855603Y-42307639D01*
X179836035Y-42369292D01*
X179820038Y-42420025D01*
X179808103Y-42458286D01*
X179800724Y-42482523D01*
X179798392Y-42491183D01*
X179801808Y-42488923D01*
X179817879Y-42476905D01*
X179845960Y-42455420D01*
X179884775Y-42425456D01*
X179933050Y-42388005D01*
X179989508Y-42344057D01*
X180052874Y-42294602D01*
X180121873Y-42240631D01*
X180195228Y-42183132D01*
X180266177Y-42127623D01*
X180350049Y-42062502D01*
X180422595Y-42006796D01*
X180483377Y-41960831D01*
X180531957Y-41924933D01*
X180567897Y-41899430D01*
X180590761Y-41884649D01*
X180600110Y-41880915D01*
X180604780Y-41884383D01*
X180622676Y-41897375D01*
X180650841Y-41917674D01*
X180686536Y-41943308D01*
X180727023Y-41972307D01*
X180752000Y-41990201D01*
X180789539Y-42017207D01*
X180820438Y-42039576D01*
X180842025Y-42055370D01*
X180851628Y-42062652D01*
X180850070Y-42070304D01*
X180843108Y-42093198D01*
X180831292Y-42129457D01*
X180815277Y-42177221D01*
X180795720Y-42234626D01*
X180773276Y-42299810D01*
X180748601Y-42370912D01*
X180722351Y-42446067D01*
X180695183Y-42523415D01*
X180667752Y-42601094D01*
X180640715Y-42677239D01*
X180614728Y-42749991D01*
X180590446Y-42817485D01*
X180568525Y-42877860D01*
X180549622Y-42929254D01*
X180534393Y-42969804D01*
X180523494Y-42997648D01*
X180517580Y-43010923D01*
X180517519Y-43011025D01*
X180516225Y-43013526D01*
X180516588Y-43014582D01*
X180519681Y-43013428D01*
X180526576Y-43009300D01*
X180538347Y-43001432D01*
X180556066Y-42989060D01*
X180580807Y-42971419D01*
X180613642Y-42947743D01*
X180655645Y-42917268D01*
X180707888Y-42879230D01*
X180771444Y-42832862D01*
X180847387Y-42777401D01*
X180936790Y-42712080D01*
X180992213Y-42671671D01*
X181082023Y-42606640D01*
X181159431Y-42551220D01*
X181224119Y-42505631D01*
X181275771Y-42470093D01*
X181314069Y-42444824D01*
X181338698Y-42430046D01*
X181349340Y-42425977D01*
X181349669Y-42426114D01*
X181361729Y-42433390D01*
X181384895Y-42449010D01*
X181416585Y-42471100D01*
X181454217Y-42497791D01*
X181495210Y-42527210D01*
X181536980Y-42557488D01*
X181576946Y-42586752D01*
X181612525Y-42613132D01*
X181641136Y-42634757D01*
X181660196Y-42649754D01*
X181667122Y-42656255D01*
X181660747Y-42661421D01*
X181640840Y-42675734D01*
X181608837Y-42698146D01*
X181566201Y-42727649D01*
X181514394Y-42763235D01*
X181454880Y-42803896D01*
X181389121Y-42848624D01*
X181318582Y-42896410D01*
X181314519Y-42899158D01*
X181226100Y-42958959D01*
X181128088Y-43025278D01*
X181024569Y-43095348D01*
X180919627Y-43166405D01*
X180817347Y-43235682D01*
X180721814Y-43300413D01*
X180637113Y-43357833D01*
X180584713Y-43393213D01*
X180518638Y-43437368D01*
X180458083Y-43477319D01*
X180404603Y-43512069D01*
X180359749Y-43540621D01*
X180325077Y-43561977D01*
X180302138Y-43575140D01*
X180292487Y-43579113D01*
X180291960Y-43578871D01*
X180280551Y-43571656D01*
X180258246Y-43556449D01*
X180227895Y-43535282D01*
X180192347Y-43510192D01*
X180154450Y-43483214D01*
X180117055Y-43456384D01*
X180083010Y-43431735D01*
X180055164Y-43411304D01*
X180036367Y-43397126D01*
X180029468Y-43391236D01*
X180029516Y-43391051D01*
X180032973Y-43380363D01*
X180041513Y-43354455D01*
X180054593Y-43314966D01*
X180071665Y-43263539D01*
X180092185Y-43201816D01*
X180115608Y-43131437D01*
X180141388Y-43054044D01*
X180168979Y-42971279D01*
X180172347Y-42961178D01*
X180199786Y-42878737D01*
X180225341Y-42801686D01*
X180248467Y-42731694D01*
X180268616Y-42670430D01*
X180285240Y-42619561D01*
X180297792Y-42580757D01*
X180305725Y-42555687D01*
X180308490Y-42546018D01*
X180308192Y-42545957D01*
X180298466Y-42551911D01*
X180276013Y-42567510D01*
X180242194Y-42591759D01*
X180198372Y-42623661D01*
X180145908Y-42662222D01*
X180086165Y-42706445D01*
X180020506Y-42755334D01*
X179950291Y-42807894D01*
X179592091Y-43076717D01*
X179456619Y-42979077D01*
X179321146Y-42881436D01*
X179547737Y-42087042D01*
X179552053Y-42071914D01*
X179584975Y-41956848D01*
X179616557Y-41847005D01*
X179646444Y-41743595D01*
X179674278Y-41647828D01*
X179699705Y-41560913D01*
X179722366Y-41484060D01*
X179741905Y-41418479D01*
X179757967Y-41365379D01*
X179770193Y-41325971D01*
X179778229Y-41301464D01*
X179781717Y-41293068D01*
X179782170Y-41293130D01*
G37*
G36*
X178534514Y-43449724D02*
G01*
X178521174Y-43513720D01*
X178505030Y-43549498D01*
X178468145Y-43599309D01*
X178419547Y-43641112D01*
X178362854Y-43672015D01*
X178301684Y-43689129D01*
X178290806Y-43691014D01*
X178278879Y-43694332D01*
X178266089Y-43700054D01*
X178250887Y-43709404D01*
X178231727Y-43723607D01*
X178207064Y-43743889D01*
X178175351Y-43771472D01*
X178135042Y-43807583D01*
X178084589Y-43853446D01*
X178022448Y-43910286D01*
X177788292Y-44124735D01*
X177788292Y-44608785D01*
X177788292Y-45092836D01*
X177928558Y-45185955D01*
X177971901Y-45215194D01*
X178012740Y-45243680D01*
X178046391Y-45268134D01*
X178070214Y-45286638D01*
X178081570Y-45297272D01*
X178085438Y-45305471D01*
X178088997Y-45321879D01*
X178091528Y-45347553D01*
X178093167Y-45384676D01*
X178094051Y-45435428D01*
X178094316Y-45501994D01*
X178094316Y-45688519D01*
X178290081Y-45691322D01*
X178299388Y-45691459D01*
X178373585Y-45693098D01*
X178432944Y-45695974D01*
X178480307Y-45700812D01*
X178518516Y-45708338D01*
X178550411Y-45719279D01*
X178578836Y-45734359D01*
X178606631Y-45754306D01*
X178636639Y-45779844D01*
X178680788Y-45825849D01*
X178717057Y-45883065D01*
X178739845Y-45948498D01*
X178750637Y-46025347D01*
X178755868Y-46108026D01*
X179040901Y-46110402D01*
X179325934Y-46112778D01*
X179337056Y-46078899D01*
X179359524Y-46026755D01*
X179398414Y-45973647D01*
X179448852Y-45934192D01*
X179510297Y-45908789D01*
X179582209Y-45897837D01*
X179591640Y-45897421D01*
X179626755Y-45896983D01*
X179653170Y-45900104D01*
X179678468Y-45908274D01*
X179710233Y-45922983D01*
X179740130Y-45939623D01*
X179792850Y-45982434D01*
X179830493Y-46035048D01*
X179852908Y-46097216D01*
X179859942Y-46168689D01*
X179859539Y-46176182D01*
X179858523Y-46195095D01*
X179843428Y-46261283D01*
X179812586Y-46319548D01*
X179766884Y-46368508D01*
X179707209Y-46406782D01*
X179698333Y-46410917D01*
X179635483Y-46429542D01*
X179571246Y-46431822D01*
X179508483Y-46418668D01*
X179450054Y-46390987D01*
X179398821Y-46349689D01*
X179357644Y-46295683D01*
X179334559Y-46256291D01*
X179045213Y-46258665D01*
X178755868Y-46261038D01*
X178753424Y-46434302D01*
X178753392Y-46436552D01*
X178750979Y-46607566D01*
X179034272Y-46607566D01*
X179101134Y-46607744D01*
X179178271Y-46608512D01*
X179241603Y-46609854D01*
X179290081Y-46611739D01*
X179322659Y-46614135D01*
X179338288Y-46617008D01*
X179346263Y-46624387D01*
X179363981Y-46646159D01*
X179389891Y-46680969D01*
X179423172Y-46727664D01*
X179463005Y-46785091D01*
X179508571Y-46852098D01*
X179559050Y-46927532D01*
X179759088Y-47228615D01*
X180172420Y-47228615D01*
X180585751Y-47228615D01*
X180594992Y-47202106D01*
X180602053Y-47187105D01*
X180623917Y-47155956D01*
X180653652Y-47123257D01*
X180686479Y-47094028D01*
X180717618Y-47073290D01*
X180728169Y-47068416D01*
X180770206Y-47056655D01*
X180826635Y-47050504D01*
X180831788Y-47050228D01*
X180869361Y-47049152D01*
X180896762Y-47051345D01*
X180920926Y-47057911D01*
X180948789Y-47069954D01*
X180953888Y-47072422D01*
X181012826Y-47110699D01*
X181058629Y-47159418D01*
X181090333Y-47216260D01*
X181106970Y-47278900D01*
X181107298Y-47314707D01*
X181107576Y-47345018D01*
X181091185Y-47412291D01*
X181070276Y-47455682D01*
X181030107Y-47507080D01*
X180979753Y-47546369D01*
X180921927Y-47572435D01*
X180859342Y-47584167D01*
X180794711Y-47580450D01*
X180730745Y-47560172D01*
X180681149Y-47531411D01*
X180631086Y-47484750D01*
X180594887Y-47426901D01*
X180574117Y-47381627D01*
X180140203Y-47381627D01*
X180036920Y-47381467D01*
X179935465Y-47380902D01*
X179850869Y-47379935D01*
X179783357Y-47378569D01*
X179733159Y-47376810D01*
X179700502Y-47374661D01*
X179685615Y-47372129D01*
X179677080Y-47364066D01*
X179659060Y-47341757D01*
X179636685Y-47311628D01*
X180723209Y-47311628D01*
X180727862Y-47351005D01*
X180746542Y-47387241D01*
X180779622Y-47416761D01*
X180808373Y-47430157D01*
X180849108Y-47433907D01*
X180892443Y-47420240D01*
X180893119Y-47419905D01*
X180927330Y-47393484D01*
X180948915Y-47357049D01*
X180956344Y-47314707D01*
X180948092Y-47270568D01*
X180940529Y-47255067D01*
X180913862Y-47225087D01*
X180878477Y-47205195D01*
X180839387Y-47197646D01*
X180801608Y-47204695D01*
X180789712Y-47210409D01*
X180754505Y-47237755D01*
X180732214Y-47272686D01*
X180723209Y-47311628D01*
X179636685Y-47311628D01*
X179632944Y-47306591D01*
X179599595Y-47259781D01*
X179559875Y-47202538D01*
X179514644Y-47136076D01*
X179464766Y-47061605D01*
X179264592Y-46760578D01*
X179007980Y-46760578D01*
X178751368Y-46760578D01*
X178751368Y-47507637D01*
X178751368Y-48254695D01*
X178861898Y-48254695D01*
X178972429Y-48254695D01*
X179070591Y-48036428D01*
X179107155Y-47955217D01*
X179141333Y-47879649D01*
X179169575Y-47817793D01*
X179192608Y-47768213D01*
X179201616Y-47749403D01*
X180031573Y-47749403D01*
X180044452Y-47789601D01*
X180072892Y-47825732D01*
X180097940Y-47841830D01*
X180136878Y-47851245D01*
X180177636Y-47847872D01*
X180214819Y-47832358D01*
X180243033Y-47805348D01*
X180259801Y-47766708D01*
X180262459Y-47725010D01*
X180251932Y-47685113D01*
X180229407Y-47651487D01*
X180196074Y-47628605D01*
X180191950Y-47626916D01*
X180157119Y-47617084D01*
X180126417Y-47619651D01*
X180091775Y-47635121D01*
X180082706Y-47640695D01*
X180051059Y-47671321D01*
X180033895Y-47708767D01*
X180031573Y-47749403D01*
X179201616Y-47749403D01*
X179211160Y-47729473D01*
X179225956Y-47700135D01*
X179237725Y-47678765D01*
X179247193Y-47663924D01*
X179255087Y-47654176D01*
X179262134Y-47648086D01*
X179269061Y-47644215D01*
X179271228Y-47643401D01*
X179288529Y-47640303D01*
X179319444Y-47637831D01*
X179364849Y-47635958D01*
X179425620Y-47634655D01*
X179502634Y-47633894D01*
X179596766Y-47633646D01*
X179901275Y-47633646D01*
X179911899Y-47607996D01*
X179914276Y-47602816D01*
X179935573Y-47571931D01*
X179967480Y-47539487D01*
X180004958Y-47510083D01*
X180042969Y-47488318D01*
X180093865Y-47472915D01*
X180150947Y-47467663D01*
X180207089Y-47472666D01*
X180255372Y-47487937D01*
X180310216Y-47520865D01*
X180355288Y-47564436D01*
X180390255Y-47620322D01*
X180396072Y-47632276D01*
X180408302Y-47660472D01*
X180414554Y-47684456D01*
X180416228Y-47711604D01*
X180415693Y-47725010D01*
X180414723Y-47749290D01*
X180413370Y-47768795D01*
X180408285Y-47806459D01*
X180398979Y-47837168D01*
X180383416Y-47868693D01*
X180366055Y-47895123D01*
X180326116Y-47938240D01*
X180279143Y-47972711D01*
X180230583Y-47994067D01*
X180216086Y-47997500D01*
X180165020Y-48002570D01*
X180110350Y-47999658D01*
X180058945Y-47989454D01*
X180017674Y-47972649D01*
X180008849Y-47967206D01*
X179961797Y-47928654D01*
X179922698Y-47880851D01*
X179896495Y-47829632D01*
X179881232Y-47786659D01*
X179615573Y-47786771D01*
X179349915Y-47786883D01*
X179220265Y-48077044D01*
X179194255Y-48134856D01*
X179164739Y-48199473D01*
X179137631Y-48257781D01*
X179113899Y-48307746D01*
X179094510Y-48347334D01*
X179080432Y-48374512D01*
X179072633Y-48387244D01*
X179067751Y-48392309D01*
X179059324Y-48398371D01*
X179047268Y-48402655D01*
X179028707Y-48405548D01*
X179000769Y-48407437D01*
X178960577Y-48408707D01*
X178905260Y-48409746D01*
X178755868Y-48412208D01*
X178753224Y-48477463D01*
X178750579Y-48542718D01*
X179093223Y-48542718D01*
X179435867Y-48542718D01*
X179445148Y-48517966D01*
X179457515Y-48490748D01*
X179494108Y-48439667D01*
X179542450Y-48397978D01*
X179599089Y-48367765D01*
X179660571Y-48351110D01*
X179723444Y-48350096D01*
X179761785Y-48357276D01*
X179823086Y-48381094D01*
X179874538Y-48416997D01*
X179915292Y-48462618D01*
X179944499Y-48515588D01*
X179961309Y-48573540D01*
X179963752Y-48615044D01*
X179964874Y-48634104D01*
X179954342Y-48694913D01*
X179928867Y-48753599D01*
X179887597Y-48807794D01*
X179876631Y-48818485D01*
X179824124Y-48855678D01*
X179765750Y-48878261D01*
X179704355Y-48886718D01*
X179642788Y-48881531D01*
X179583896Y-48863181D01*
X179530527Y-48832152D01*
X179485530Y-48788925D01*
X179451751Y-48733983D01*
X179434579Y-48695730D01*
X179092974Y-48695730D01*
X178751368Y-48695730D01*
X178751368Y-49015255D01*
X178751368Y-49334780D01*
X178844570Y-49334780D01*
X178937772Y-49334780D01*
X179030891Y-49194514D01*
X179060130Y-49151171D01*
X179088616Y-49110332D01*
X179113070Y-49076682D01*
X179131574Y-49052858D01*
X179142208Y-49041502D01*
X179147808Y-49039864D01*
X179170394Y-49037368D01*
X179207887Y-49035158D01*
X179258356Y-49033236D01*
X179319872Y-49031604D01*
X179390503Y-49030264D01*
X179468318Y-49029218D01*
X179551388Y-49028467D01*
X179637781Y-49028015D01*
X179725567Y-49027862D01*
X179812816Y-49028012D01*
X179897596Y-49028466D01*
X179977977Y-49029225D01*
X180052029Y-49030293D01*
X180117821Y-49031671D01*
X180173422Y-49033362D01*
X180216902Y-49035366D01*
X180246330Y-49037687D01*
X180259776Y-49040326D01*
X180264833Y-49044405D01*
X180281929Y-49060815D01*
X180308580Y-49087857D01*
X180343192Y-49123868D01*
X180384173Y-49167185D01*
X180429929Y-49216144D01*
X180478868Y-49269083D01*
X180679169Y-49486907D01*
X180724123Y-49451373D01*
X180736250Y-49442274D01*
X180796937Y-49409270D01*
X180861137Y-49392697D01*
X180926248Y-49392318D01*
X180989666Y-49407894D01*
X181048790Y-49439185D01*
X181101016Y-49485954D01*
X181105198Y-49490816D01*
X181139940Y-49544819D01*
X181158749Y-49605813D01*
X181161276Y-49658017D01*
X181162113Y-49675309D01*
X181158812Y-49705187D01*
X181140106Y-49768552D01*
X181107715Y-49823486D01*
X181063890Y-49868408D01*
X181010880Y-49901737D01*
X180950934Y-49921892D01*
X180886301Y-49927291D01*
X180819232Y-49916353D01*
X180795889Y-49908473D01*
X180736140Y-49876210D01*
X180687685Y-49830589D01*
X180651751Y-49772978D01*
X180629561Y-49704743D01*
X180619940Y-49657579D01*
X180778425Y-49657579D01*
X180784384Y-49699097D01*
X180804856Y-49735159D01*
X180838687Y-49761877D01*
X180868286Y-49772470D01*
X180912150Y-49773617D01*
X180953241Y-49758551D01*
X180985185Y-49733267D01*
X181004591Y-49700465D01*
X181010546Y-49658017D01*
X181005714Y-49623802D01*
X180987829Y-49588664D01*
X180959998Y-49562991D01*
X180925668Y-49547608D01*
X180888285Y-49543346D01*
X180851298Y-49551033D01*
X180818151Y-49571496D01*
X180792292Y-49605565D01*
X180788133Y-49614492D01*
X180778425Y-49657579D01*
X180619940Y-49657579D01*
X180618016Y-49648148D01*
X180404308Y-49414958D01*
X180190600Y-49181768D01*
X179706422Y-49181768D01*
X179222244Y-49181768D01*
X179126077Y-49326094D01*
X179117340Y-49339152D01*
X179077151Y-49397464D01*
X179045447Y-49440135D01*
X179022120Y-49467303D01*
X179007062Y-49479106D01*
X179006192Y-49479410D01*
X178987321Y-49482676D01*
X178955107Y-49485340D01*
X178913836Y-49487135D01*
X178867791Y-49487792D01*
X178751368Y-49487792D01*
X178751368Y-49642037D01*
X178751368Y-49666173D01*
X178751277Y-49702294D01*
X178750260Y-49768235D01*
X178747652Y-49820574D01*
X178742878Y-49862306D01*
X178735364Y-49896422D01*
X178724537Y-49925916D01*
X178709824Y-49953781D01*
X178690651Y-49983011D01*
X178669067Y-50011058D01*
X178612032Y-50064964D01*
X178545215Y-50104036D01*
X178469530Y-50127815D01*
X178385891Y-50135844D01*
X178319334Y-50135844D01*
X178319334Y-50471714D01*
X178319334Y-50807584D01*
X178370712Y-50828879D01*
X178384729Y-50835164D01*
X178440795Y-50871376D01*
X178485548Y-50919384D01*
X178516174Y-50976336D01*
X178528969Y-51020406D01*
X178532482Y-51059731D01*
X178534965Y-51087533D01*
X178525285Y-51151982D01*
X178500776Y-51211136D01*
X178462282Y-51262376D01*
X178410649Y-51303085D01*
X178364485Y-51325754D01*
X178298540Y-51342856D01*
X178233195Y-51343458D01*
X178170772Y-51328217D01*
X178113597Y-51297789D01*
X178063994Y-51252831D01*
X178024286Y-51193998D01*
X178014749Y-51174100D01*
X178005973Y-51147670D01*
X178001750Y-51117467D01*
X178000658Y-51076418D01*
X178148388Y-51076418D01*
X178148723Y-51082874D01*
X178158524Y-51116825D01*
X178178521Y-51149884D01*
X178204145Y-51174053D01*
X178232528Y-51187547D01*
X178272401Y-51192997D01*
X178309634Y-51184575D01*
X178341727Y-51164660D01*
X178366180Y-51135629D01*
X178380491Y-51099860D01*
X178382160Y-51059731D01*
X178368685Y-51017618D01*
X178351907Y-50995682D01*
X178319526Y-50974471D01*
X178280655Y-50963430D01*
X178240848Y-50963930D01*
X178205661Y-50977345D01*
X178200541Y-50980974D01*
X178174492Y-51008433D01*
X178155645Y-51042777D01*
X178148388Y-51076418D01*
X178000658Y-51076418D01*
X178001151Y-51046403D01*
X178004269Y-51013644D01*
X178011507Y-50986813D01*
X178024286Y-50958837D01*
X178044490Y-50926837D01*
X178076184Y-50889241D01*
X178111236Y-50857153D01*
X178144303Y-50836041D01*
X178166322Y-50826009D01*
X178166322Y-50480926D01*
X178166322Y-50135844D01*
X177995308Y-50135844D01*
X177824295Y-50135844D01*
X177824295Y-50468446D01*
X177824278Y-50496705D01*
X177823900Y-50592645D01*
X177823015Y-50671272D01*
X177821608Y-50733125D01*
X177819662Y-50778743D01*
X177817163Y-50808667D01*
X177814095Y-50823435D01*
X177813138Y-50825048D01*
X177799142Y-50838673D01*
X177769923Y-50861467D01*
X177725635Y-50893320D01*
X177666437Y-50934121D01*
X177592483Y-50983760D01*
X177503932Y-51042126D01*
X177203969Y-51238430D01*
X177203607Y-51653346D01*
X177203246Y-52068262D01*
X177238370Y-52084101D01*
X177241245Y-52085431D01*
X177287392Y-52116351D01*
X177328416Y-52161623D01*
X177361239Y-52217895D01*
X177369951Y-52238000D01*
X177379133Y-52266772D01*
X177382572Y-52296221D01*
X177382109Y-52318477D01*
X177381767Y-52334904D01*
X177380999Y-52345949D01*
X177366854Y-52415018D01*
X177338180Y-52474991D01*
X177296601Y-52524323D01*
X177243738Y-52561470D01*
X177181214Y-52584887D01*
X177110651Y-52593030D01*
X177070432Y-52589820D01*
X177007308Y-52571196D01*
X176950609Y-52537459D01*
X176902913Y-52490318D01*
X176866802Y-52431482D01*
X176866535Y-52430899D01*
X176851166Y-52378700D01*
X176848077Y-52332450D01*
X176997494Y-52332450D01*
X177006310Y-52369699D01*
X177030909Y-52405476D01*
X177033681Y-52408529D01*
X177052162Y-52424798D01*
X177073393Y-52433271D01*
X177104976Y-52437203D01*
X177128136Y-52437398D01*
X177171597Y-52427438D01*
X177203642Y-52403787D01*
X177223462Y-52367211D01*
X177230248Y-52318477D01*
X177228371Y-52290665D01*
X177219671Y-52268789D01*
X177200176Y-52246140D01*
X177191642Y-52238211D01*
X177167190Y-52220102D01*
X177146113Y-52210047D01*
X177123349Y-52206784D01*
X177081637Y-52212550D01*
X177044440Y-52231571D01*
X177015960Y-52261277D01*
X177000401Y-52299101D01*
X176997494Y-52332450D01*
X176848077Y-52332450D01*
X176847226Y-52319709D01*
X176854529Y-52260792D01*
X176872885Y-52208820D01*
X176900801Y-52164306D01*
X176948848Y-52114294D01*
X177006401Y-52078596D01*
X177050234Y-52058786D01*
X177050234Y-51615788D01*
X177050234Y-51172790D01*
X177079694Y-51147105D01*
X177079731Y-51147073D01*
X177093966Y-51136271D01*
X177121374Y-51116921D01*
X177160059Y-51090308D01*
X177208128Y-51057716D01*
X177263688Y-51020429D01*
X177324845Y-50979731D01*
X177389704Y-50936907D01*
X177670254Y-50752392D01*
X177670768Y-50444118D01*
X177671283Y-50135844D01*
X176919724Y-50135844D01*
X176168164Y-50135844D01*
X176168164Y-50293125D01*
X176168164Y-50450406D01*
X176197417Y-50465615D01*
X176203327Y-50468542D01*
X176226125Y-50479321D01*
X176261957Y-50495946D01*
X176308592Y-50517394D01*
X176363799Y-50542639D01*
X176425347Y-50570657D01*
X176491002Y-50600424D01*
X176526667Y-50616630D01*
X176589361Y-50645466D01*
X176646165Y-50672033D01*
X176694968Y-50695317D01*
X176733661Y-50714306D01*
X176760133Y-50727989D01*
X176772274Y-50735352D01*
X176775056Y-50738134D01*
X176779045Y-50744143D01*
X176782207Y-50753376D01*
X176784638Y-50767680D01*
X176786433Y-50788904D01*
X176787688Y-50818894D01*
X176788498Y-50859498D01*
X176788959Y-50912561D01*
X176789166Y-50979931D01*
X176789213Y-51063456D01*
X176789213Y-51376231D01*
X176828961Y-51399524D01*
X176837748Y-51404900D01*
X176889272Y-51447739D01*
X176927630Y-51500529D01*
X176951985Y-51560419D01*
X176960384Y-51617007D01*
X176961505Y-51624557D01*
X176955356Y-51690092D01*
X176932702Y-51754173D01*
X176928550Y-51762277D01*
X176898845Y-51808514D01*
X176862068Y-51844446D01*
X176812763Y-51875596D01*
X176793434Y-51884536D01*
X176769215Y-51891175D01*
X176738156Y-51894492D01*
X176694706Y-51895418D01*
X176672977Y-51895318D01*
X176638674Y-51893911D01*
X176613360Y-51889851D01*
X176590985Y-51881891D01*
X176565496Y-51868783D01*
X176529961Y-51845713D01*
X176482776Y-51800289D01*
X176449591Y-51747724D01*
X176430255Y-51690421D01*
X176424613Y-51630784D01*
X176424780Y-51629525D01*
X176575999Y-51629525D01*
X176582247Y-51666041D01*
X176598980Y-51700621D01*
X176622941Y-51725454D01*
X176633078Y-51731564D01*
X176676470Y-51746924D01*
X176718673Y-51746396D01*
X176756499Y-51731106D01*
X176786760Y-51702180D01*
X176806265Y-51660743D01*
X176806714Y-51659069D01*
X176809500Y-51617007D01*
X176797385Y-51578904D01*
X176773326Y-51547549D01*
X176740276Y-51525729D01*
X176701192Y-51516231D01*
X176659029Y-51521845D01*
X176656135Y-51522855D01*
X176620665Y-51544361D01*
X176592628Y-51577348D01*
X176577217Y-51615850D01*
X176575999Y-51629525D01*
X176424780Y-51629525D01*
X176432514Y-51571217D01*
X176453804Y-51514123D01*
X176488330Y-51461905D01*
X176535940Y-51416968D01*
X176596480Y-51381714D01*
X176645474Y-51360047D01*
X176643088Y-51097544D01*
X176640702Y-50835041D01*
X176541694Y-50790592D01*
X176516701Y-50779369D01*
X176415817Y-50733965D01*
X176329958Y-50695126D01*
X176257942Y-50662292D01*
X176198589Y-50634900D01*
X176150714Y-50612391D01*
X176113137Y-50594201D01*
X176084675Y-50579771D01*
X176064145Y-50568538D01*
X176050366Y-50559942D01*
X176042154Y-50553421D01*
X176041294Y-50552582D01*
X176034155Y-50545117D01*
X176028749Y-50536892D01*
X176024791Y-50525445D01*
X176021997Y-50508312D01*
X176020083Y-50483032D01*
X176018764Y-50447140D01*
X176017755Y-50398174D01*
X176016773Y-50333672D01*
X176013894Y-50135844D01*
X175951518Y-50135844D01*
X175889142Y-50135844D01*
X175889142Y-50530067D01*
X175889142Y-50924290D01*
X175921677Y-50936054D01*
X175940771Y-50944792D01*
X175980463Y-50972530D01*
X176018378Y-51010215D01*
X176049403Y-51053163D01*
X176057016Y-51066705D01*
X176065837Y-51086839D01*
X176070862Y-51108837D01*
X176073118Y-51138075D01*
X176073615Y-51178509D01*
X176073632Y-51179926D01*
X176072162Y-51226399D01*
X176065105Y-51272048D01*
X176050168Y-51309566D01*
X176025118Y-51344180D01*
X175987724Y-51381116D01*
X175966101Y-51398849D01*
X175910335Y-51431050D01*
X175852804Y-51447692D01*
X175795288Y-51450149D01*
X175739571Y-51439796D01*
X175687432Y-51418006D01*
X175640654Y-51386154D01*
X175601018Y-51345614D01*
X175570306Y-51297760D01*
X175550299Y-51243967D01*
X175542989Y-51187237D01*
X175695206Y-51187237D01*
X175702944Y-51227631D01*
X175724990Y-51261208D01*
X175760183Y-51284662D01*
X175772800Y-51289383D01*
X175818568Y-51296427D01*
X175859945Y-51286200D01*
X175896108Y-51258857D01*
X175897812Y-51256987D01*
X175921147Y-51219108D01*
X175928385Y-51178509D01*
X175920210Y-51138700D01*
X175897306Y-51103192D01*
X175860358Y-51075496D01*
X175846323Y-51069416D01*
X175805272Y-51063410D01*
X175765749Y-51073009D01*
X175731685Y-51096738D01*
X175707008Y-51133120D01*
X175702935Y-51143333D01*
X175695206Y-51187237D01*
X175542989Y-51187237D01*
X175542779Y-51185609D01*
X175549527Y-51124059D01*
X175572325Y-51060692D01*
X175603993Y-51009240D01*
X175646613Y-50967376D01*
X175702307Y-50935096D01*
X175736130Y-50919785D01*
X175736130Y-50527814D01*
X175736130Y-50135844D01*
X175416605Y-50135844D01*
X175097080Y-50135844D01*
X175097080Y-50279824D01*
X175097080Y-50423805D01*
X175239946Y-50518999D01*
X175273652Y-50541797D01*
X175320151Y-50574614D01*
X175356751Y-50602265D01*
X175381628Y-50623347D01*
X175392958Y-50636462D01*
X175394047Y-50640771D01*
X175396210Y-50662291D01*
X175398089Y-50698848D01*
X175399687Y-50748501D01*
X175401005Y-50809305D01*
X175402047Y-50879318D01*
X175402814Y-50956595D01*
X175403309Y-51039193D01*
X175403535Y-51125170D01*
X175403494Y-51212580D01*
X175403189Y-51299482D01*
X175402622Y-51383931D01*
X175401796Y-51463985D01*
X175400713Y-51537699D01*
X175399376Y-51603131D01*
X175397787Y-51658336D01*
X175395949Y-51701373D01*
X175393864Y-51730296D01*
X175391534Y-51743162D01*
X175387394Y-51748271D01*
X175370913Y-51765398D01*
X175343805Y-51792071D01*
X175307731Y-51826701D01*
X175264354Y-51867697D01*
X175215334Y-51913470D01*
X175162335Y-51962428D01*
X175127493Y-51994527D01*
X175077919Y-52040495D01*
X175033876Y-52081692D01*
X174996915Y-52116645D01*
X174968591Y-52143883D01*
X174950458Y-52161931D01*
X174944068Y-52169319D01*
X174944682Y-52171261D01*
X174953817Y-52183556D01*
X174970417Y-52200880D01*
X174980491Y-52211365D01*
X175011942Y-52259152D01*
X175031555Y-52315781D01*
X175038714Y-52376998D01*
X175037704Y-52387518D01*
X175032803Y-52438551D01*
X175013206Y-52496189D01*
X175012716Y-52497180D01*
X174976240Y-52552398D01*
X174927956Y-52597875D01*
X174872062Y-52629645D01*
X174846404Y-52637934D01*
X174788701Y-52645950D01*
X174727767Y-52642879D01*
X174670848Y-52628754D01*
X174638660Y-52612698D01*
X174594703Y-52579669D01*
X174555054Y-52538176D01*
X174525140Y-52493266D01*
X174518985Y-52478367D01*
X174509758Y-52439189D01*
X174504947Y-52393176D01*
X174505014Y-52374415D01*
X174657185Y-52374415D01*
X174660519Y-52413510D01*
X174675894Y-52448685D01*
X174703732Y-52475615D01*
X174735629Y-52490371D01*
X174778715Y-52495882D01*
X174819106Y-52486066D01*
X174853302Y-52461951D01*
X174877805Y-52424563D01*
X174887644Y-52387518D01*
X174883826Y-52345381D01*
X174863580Y-52308547D01*
X174827757Y-52279486D01*
X174823790Y-52277292D01*
X174789922Y-52263168D01*
X174759169Y-52261895D01*
X174723459Y-52272970D01*
X174715217Y-52276877D01*
X174684955Y-52301772D01*
X174665470Y-52335727D01*
X174657185Y-52374415D01*
X174505014Y-52374415D01*
X174505111Y-52347511D01*
X174510810Y-52309376D01*
X174524520Y-52271454D01*
X174558979Y-52215600D01*
X174605997Y-52169150D01*
X174662677Y-52134720D01*
X174726120Y-52114928D01*
X174781574Y-52105160D01*
X175015833Y-51889663D01*
X175250092Y-51674167D01*
X175249901Y-51190778D01*
X175249710Y-50707389D01*
X175114128Y-50617832D01*
X175075860Y-50592140D01*
X175034372Y-50563291D01*
X174999572Y-50538007D01*
X174974277Y-50518344D01*
X174961307Y-50506359D01*
X174956215Y-50498948D01*
X174951527Y-50488031D01*
X174948217Y-50472451D01*
X174946050Y-50449539D01*
X174944793Y-50416629D01*
X174944210Y-50371053D01*
X174944068Y-50310144D01*
X174944068Y-50135844D01*
X174770804Y-50135623D01*
X174715550Y-50135121D01*
X174662076Y-50133799D01*
X174615730Y-50131817D01*
X174580134Y-50129329D01*
X174558915Y-50126494D01*
X174550559Y-50124450D01*
X174478917Y-50096992D01*
X174414412Y-50054531D01*
X174359924Y-49999376D01*
X174318333Y-49933832D01*
X174305533Y-49904966D01*
X174296672Y-49875704D01*
X174291487Y-49841795D01*
X174288532Y-49796571D01*
X174284869Y-49712810D01*
X173881609Y-49712810D01*
X173478348Y-49712810D01*
X173467349Y-49746563D01*
X173458982Y-49768843D01*
X173426335Y-49824740D01*
X173382589Y-49869293D01*
X173330401Y-49901808D01*
X173272426Y-49921589D01*
X173211320Y-49927941D01*
X173149738Y-49920170D01*
X173090335Y-49897581D01*
X173035769Y-49859479D01*
X173019041Y-49843452D01*
X172978005Y-49790447D01*
X172953832Y-49732279D01*
X172945911Y-49667643D01*
X172945980Y-49665643D01*
X173096152Y-49665643D01*
X173107086Y-49706698D01*
X173134448Y-49743855D01*
X173140763Y-49749470D01*
X173177746Y-49769647D01*
X173218272Y-49775024D01*
X173258021Y-49766391D01*
X173292673Y-49744541D01*
X173317910Y-49710262D01*
X173329993Y-49676790D01*
X173330557Y-49642037D01*
X173316494Y-49605357D01*
X173314353Y-49601539D01*
X173286370Y-49569476D01*
X173249989Y-49549940D01*
X173209581Y-49543682D01*
X173169522Y-49551454D01*
X173134184Y-49574009D01*
X173123589Y-49585345D01*
X173101651Y-49624067D01*
X173096152Y-49665643D01*
X172945980Y-49665643D01*
X172946785Y-49642219D01*
X172959707Y-49572824D01*
X172988083Y-49512660D01*
X173031920Y-49461717D01*
X173091223Y-49419984D01*
X173091933Y-49419591D01*
X173119383Y-49405755D01*
X173143781Y-49397818D01*
X173172129Y-49394234D01*
X173211432Y-49393459D01*
X173241779Y-49394038D01*
X173274367Y-49397257D01*
X173301073Y-49404591D01*
X173328960Y-49417485D01*
X173358716Y-49435558D01*
X173398144Y-49467077D01*
X173430372Y-49501537D01*
X173450574Y-49534302D01*
X173461135Y-49559798D01*
X173874076Y-49559798D01*
X174287016Y-49559798D01*
X174287016Y-49388785D01*
X174287016Y-49217771D01*
X173888735Y-49217639D01*
X173786773Y-49217470D01*
X173700397Y-49217013D01*
X173629632Y-49216233D01*
X173573278Y-49215100D01*
X173530134Y-49213581D01*
X173498999Y-49211644D01*
X173478671Y-49209257D01*
X173467952Y-49206388D01*
X173463416Y-49202798D01*
X173447550Y-49184596D01*
X173422931Y-49152244D01*
X173390086Y-49106483D01*
X173349537Y-49048051D01*
X173301812Y-48977687D01*
X173247434Y-48896130D01*
X173049419Y-48596990D01*
X172634112Y-48596856D01*
X172218805Y-48596722D01*
X172213534Y-48617724D01*
X172204595Y-48637505D01*
X172182896Y-48667068D01*
X172153353Y-48698176D01*
X172120146Y-48726518D01*
X172087453Y-48747784D01*
X172060958Y-48760263D01*
X172035968Y-48767656D01*
X172006108Y-48771172D01*
X171964833Y-48772110D01*
X171952818Y-48772092D01*
X171916443Y-48770948D01*
X171889852Y-48767060D01*
X171866564Y-48759044D01*
X171840094Y-48745521D01*
X171818744Y-48732535D01*
X171767468Y-48688923D01*
X171730119Y-48637374D01*
X171706630Y-48580371D01*
X171696933Y-48520401D01*
X171697371Y-48513829D01*
X171849677Y-48513829D01*
X171856880Y-48550934D01*
X171876695Y-48584073D01*
X171909984Y-48609786D01*
X171940779Y-48620714D01*
X171982359Y-48621540D01*
X172020714Y-48608259D01*
X172052382Y-48582985D01*
X172073901Y-48547832D01*
X172081809Y-48504912D01*
X172080930Y-48491823D01*
X172067694Y-48452654D01*
X172041447Y-48420131D01*
X172005917Y-48397924D01*
X171964833Y-48389706D01*
X171929735Y-48394966D01*
X171895115Y-48413328D01*
X171869656Y-48441566D01*
X171854223Y-48476220D01*
X171849677Y-48513829D01*
X171697371Y-48513829D01*
X171700964Y-48459948D01*
X171718654Y-48401497D01*
X171749937Y-48347532D01*
X171794748Y-48300539D01*
X171853018Y-48263002D01*
X171900677Y-48246410D01*
X171962288Y-48239662D01*
X172025123Y-48246321D01*
X172083477Y-48266307D01*
X172133907Y-48297759D01*
X172176688Y-48341263D01*
X172212479Y-48398955D01*
X172235073Y-48443542D01*
X172682749Y-48445876D01*
X173130425Y-48448211D01*
X173168121Y-48504912D01*
X173335373Y-48756485D01*
X173540322Y-49064759D01*
X173913669Y-49064759D01*
X174287016Y-49064759D01*
X174287016Y-48313045D01*
X174287016Y-47561332D01*
X174059841Y-47563736D01*
X173832666Y-47566141D01*
X173702063Y-47855533D01*
X173675882Y-47913166D01*
X173646218Y-47977535D01*
X173619024Y-48035560D01*
X173595267Y-48085222D01*
X173594711Y-48086351D01*
X173575918Y-48124497D01*
X173561944Y-48151367D01*
X173554314Y-48163808D01*
X173549327Y-48168775D01*
X173543029Y-48172832D01*
X173533624Y-48176012D01*
X173519250Y-48178423D01*
X173498044Y-48180171D01*
X173468146Y-48181362D01*
X173427694Y-48182103D01*
X173374825Y-48182500D01*
X173307679Y-48182660D01*
X173224393Y-48182690D01*
X172911618Y-48182690D01*
X172888605Y-48221958D01*
X172887480Y-48223863D01*
X172845089Y-48279223D01*
X172793196Y-48319809D01*
X172733136Y-48344833D01*
X172666242Y-48353506D01*
X172621165Y-48351342D01*
X172565051Y-48338892D01*
X172515751Y-48313582D01*
X172468206Y-48273364D01*
X172443147Y-48245283D01*
X172407742Y-48187137D01*
X172389699Y-48124619D01*
X172389440Y-48090565D01*
X172540912Y-48090565D01*
X172542147Y-48110861D01*
X172550523Y-48135323D01*
X172570131Y-48160490D01*
X172580018Y-48170258D01*
X172618532Y-48194873D01*
X172659227Y-48203335D01*
X172698895Y-48196054D01*
X172734328Y-48173440D01*
X172762318Y-48135904D01*
X172766428Y-48126933D01*
X172774008Y-48086351D01*
X172766278Y-48046022D01*
X172744769Y-48010472D01*
X172711012Y-47984225D01*
X172707153Y-47982286D01*
X172673294Y-47969420D01*
X172643141Y-47968661D01*
X172608292Y-47979632D01*
X172600551Y-47983297D01*
X172569193Y-48009324D01*
X172548440Y-48046518D01*
X172540912Y-48090565D01*
X172389440Y-48090565D01*
X172389197Y-48058556D01*
X172406417Y-47989773D01*
X172426773Y-47947629D01*
X172466620Y-47896990D01*
X172516863Y-47857802D01*
X172574603Y-47831281D01*
X172636943Y-47818643D01*
X172700984Y-47821103D01*
X172763827Y-47839877D01*
X172780757Y-47848591D01*
X172821910Y-47877992D01*
X172860700Y-47915667D01*
X172892357Y-47956601D01*
X172912108Y-47995775D01*
X172924909Y-48034178D01*
X173189535Y-48034178D01*
X173454161Y-48034178D01*
X173586216Y-47741922D01*
X173621962Y-47663455D01*
X173658866Y-47584276D01*
X173689238Y-47521449D01*
X173713175Y-47474781D01*
X173730771Y-47444078D01*
X173742125Y-47429147D01*
X173743865Y-47427658D01*
X173751114Y-47422039D01*
X173759476Y-47417652D01*
X173771061Y-47414344D01*
X173787982Y-47411963D01*
X173812349Y-47410357D01*
X173846272Y-47409372D01*
X173891865Y-47408858D01*
X173951236Y-47408661D01*
X174026498Y-47408629D01*
X174287016Y-47408629D01*
X174287016Y-47345624D01*
X174287016Y-47282619D01*
X173828101Y-47282619D01*
X173369186Y-47282619D01*
X173355124Y-47316372D01*
X173347090Y-47332547D01*
X173318228Y-47372355D01*
X173279242Y-47410680D01*
X173234985Y-47442428D01*
X173231275Y-47444578D01*
X173202617Y-47457735D01*
X173169824Y-47465558D01*
X173126012Y-47469773D01*
X173087884Y-47471117D01*
X173059110Y-47468983D01*
X173032775Y-47462023D01*
X173001095Y-47448937D01*
X172964558Y-47429654D01*
X172911799Y-47387296D01*
X172873640Y-47334634D01*
X172850594Y-47272471D01*
X172845385Y-47222731D01*
X172993134Y-47222731D01*
X173005504Y-47259298D01*
X173032746Y-47292996D01*
X173034911Y-47294838D01*
X173066307Y-47311499D01*
X173104625Y-47319593D01*
X173140762Y-47317088D01*
X173164172Y-47307111D01*
X173195098Y-47280806D01*
X173216729Y-47245941D01*
X173224800Y-47208050D01*
X175043076Y-47208050D01*
X175043076Y-47912668D01*
X175043076Y-49388785D01*
X176519192Y-49388785D01*
X177995308Y-49388785D01*
X177995308Y-48623647D01*
X179579676Y-48623647D01*
X179588231Y-48662536D01*
X179609778Y-48697140D01*
X179644330Y-48723589D01*
X179649046Y-48725969D01*
X179679845Y-48737848D01*
X179706382Y-48738402D01*
X179736945Y-48728028D01*
X179753883Y-48719028D01*
X179786009Y-48690162D01*
X179805317Y-48654272D01*
X179811581Y-48615044D01*
X179804581Y-48576159D01*
X179784092Y-48541304D01*
X179749891Y-48514161D01*
X179718128Y-48501198D01*
X179683516Y-48499698D01*
X179644986Y-48512745D01*
X179631844Y-48520016D01*
X179601495Y-48548514D01*
X179584102Y-48584349D01*
X179579676Y-48623647D01*
X177995308Y-48623647D01*
X177995308Y-47912668D01*
X177995308Y-46436552D01*
X176519192Y-46436552D01*
X175043076Y-46436552D01*
X175043076Y-47208050D01*
X173224800Y-47208050D01*
X173220389Y-47168972D01*
X173203456Y-47133809D01*
X173171716Y-47105125D01*
X173164550Y-47100600D01*
X173125618Y-47085864D01*
X173088358Y-47086104D01*
X173054655Y-47098771D01*
X173026396Y-47121317D01*
X173005466Y-47151192D01*
X172993750Y-47185846D01*
X172993134Y-47222731D01*
X172845385Y-47222731D01*
X172843173Y-47201612D01*
X172844720Y-47172027D01*
X172859764Y-47104408D01*
X172890360Y-47045622D01*
X172935983Y-46996507D01*
X172996108Y-46957899D01*
X172999123Y-46956456D01*
X173049956Y-46940687D01*
X173107980Y-46935223D01*
X173166053Y-46940140D01*
X173217034Y-46955515D01*
X173271212Y-46988229D01*
X173318153Y-47032889D01*
X173351767Y-47084476D01*
X173373194Y-47129607D01*
X173830105Y-47129607D01*
X174287016Y-47129607D01*
X174287016Y-46810082D01*
X174287016Y-46490556D01*
X174075382Y-46490556D01*
X173863747Y-46490556D01*
X173773386Y-46627817D01*
X173746665Y-46667528D01*
X173717479Y-46708932D01*
X173691711Y-46743458D01*
X173671441Y-46768332D01*
X173658744Y-46780782D01*
X173657809Y-46781371D01*
X173651359Y-46784594D01*
X173642428Y-46787327D01*
X173629605Y-46789609D01*
X173611480Y-46791482D01*
X173586640Y-46792985D01*
X173553676Y-46794158D01*
X173511176Y-46795043D01*
X173457730Y-46795678D01*
X173391926Y-46796104D01*
X173312353Y-46796362D01*
X173217601Y-46796492D01*
X173106259Y-46796533D01*
X173045302Y-46796490D01*
X172946197Y-46796199D01*
X172855070Y-46795652D01*
X172773354Y-46794871D01*
X172702481Y-46793878D01*
X172643881Y-46792694D01*
X172598988Y-46791340D01*
X172569231Y-46789839D01*
X172556045Y-46788213D01*
X172549257Y-46783476D01*
X172530488Y-46766489D01*
X172502378Y-46738902D01*
X172466509Y-46702335D01*
X172424466Y-46658410D01*
X172377832Y-46608747D01*
X172328191Y-46554968D01*
X172122346Y-46330091D01*
X172090843Y-46360376D01*
X172041267Y-46397379D01*
X171981575Y-46422728D01*
X171918106Y-46433242D01*
X171855207Y-46427679D01*
X171793184Y-46405644D01*
X171737988Y-46369541D01*
X171693831Y-46322454D01*
X171662097Y-46266835D01*
X171644168Y-46205136D01*
X171642765Y-46171652D01*
X171794510Y-46171652D01*
X171803968Y-46210185D01*
X171825674Y-46243843D01*
X171859373Y-46268509D01*
X171892845Y-46280592D01*
X171927598Y-46281156D01*
X171964278Y-46267093D01*
X171973769Y-46261447D01*
X172004869Y-46231606D01*
X172022398Y-46194381D01*
X172025836Y-46153841D01*
X172014662Y-46114052D01*
X171988354Y-46079083D01*
X171974381Y-46067865D01*
X171933844Y-46049704D01*
X171890449Y-46048709D01*
X171846794Y-46065135D01*
X171842167Y-46068015D01*
X171813354Y-46096448D01*
X171797554Y-46132367D01*
X171794510Y-46171652D01*
X171642765Y-46171652D01*
X171641430Y-46139810D01*
X171655264Y-46073307D01*
X171657289Y-46067716D01*
X171682408Y-46021163D01*
X171719264Y-45976727D01*
X171762844Y-45939602D01*
X171808133Y-45914980D01*
X171857581Y-45901846D01*
X171914805Y-45896642D01*
X171969828Y-45900693D01*
X172016050Y-45914028D01*
X172022717Y-45917171D01*
X172079544Y-45954506D01*
X172126138Y-46004564D01*
X172160014Y-46064050D01*
X172178687Y-46129668D01*
X172180366Y-46139193D01*
X172183690Y-46151068D01*
X172184936Y-46153841D01*
X172189442Y-46163871D01*
X172198847Y-46179137D01*
X172213125Y-46198405D01*
X172233499Y-46223214D01*
X172261192Y-46255100D01*
X172297426Y-46295602D01*
X172343424Y-46346258D01*
X172400407Y-46408604D01*
X172615464Y-46643569D01*
X173098374Y-46643569D01*
X173581285Y-46643569D01*
X173675380Y-46502998D01*
X173705224Y-46459100D01*
X173733810Y-46418387D01*
X173758282Y-46384885D01*
X173776727Y-46361212D01*
X173787229Y-46349986D01*
X173793345Y-46347030D01*
X173807640Y-46343753D01*
X173830504Y-46341276D01*
X173863823Y-46339507D01*
X173909484Y-46338356D01*
X173969371Y-46337732D01*
X174045370Y-46337544D01*
X174285758Y-46337544D01*
X174288158Y-46174121D01*
X179475340Y-46174121D01*
X179486639Y-46213461D01*
X179511765Y-46247086D01*
X179549153Y-46271130D01*
X179577537Y-46280644D01*
X179606033Y-46281457D01*
X179637938Y-46270917D01*
X179640399Y-46269802D01*
X179676589Y-46244953D01*
X179699340Y-46212639D01*
X179709339Y-46176182D01*
X179707270Y-46138903D01*
X179693817Y-46104126D01*
X179669664Y-46075171D01*
X179635498Y-46055363D01*
X179592002Y-46048022D01*
X179587816Y-46048069D01*
X179545155Y-46055815D01*
X179512084Y-46077872D01*
X179486247Y-46115749D01*
X179479433Y-46132932D01*
X179475340Y-46174121D01*
X174288158Y-46174121D01*
X174288637Y-46141543D01*
X174291517Y-45945542D01*
X174321044Y-45885610D01*
X174323941Y-45879875D01*
X174366723Y-45816246D01*
X174423550Y-45761968D01*
X174492003Y-45719393D01*
X174495170Y-45717856D01*
X174523415Y-45705830D01*
X174551414Y-45698165D01*
X174585248Y-45693615D01*
X174630993Y-45690937D01*
X174719050Y-45687400D01*
X174719050Y-45342379D01*
X174719050Y-44997358D01*
X174661066Y-44969685D01*
X174642785Y-44960318D01*
X174585608Y-44919808D01*
X174543500Y-44869483D01*
X174516555Y-44809475D01*
X174504861Y-44739919D01*
X174505135Y-44731135D01*
X174656992Y-44731135D01*
X174665815Y-44770011D01*
X174686263Y-44804189D01*
X174718205Y-44829489D01*
X174741847Y-44838694D01*
X174781653Y-44841793D01*
X174818571Y-44831238D01*
X174850103Y-44809671D01*
X174873754Y-44779735D01*
X174887028Y-44744075D01*
X174887428Y-44705333D01*
X174872458Y-44666152D01*
X174871501Y-44664612D01*
X174852855Y-44640810D01*
X174832723Y-44622844D01*
X174823690Y-44617905D01*
X174788314Y-44609072D01*
X174748390Y-44610426D01*
X174711765Y-44622022D01*
X174701565Y-44628126D01*
X174674737Y-44656012D01*
X174659922Y-44691742D01*
X174656992Y-44731135D01*
X174505135Y-44731135D01*
X174506507Y-44687136D01*
X174522829Y-44621173D01*
X174554395Y-44563167D01*
X174600142Y-44514922D01*
X174659007Y-44478242D01*
X174661161Y-44477255D01*
X174716333Y-44460285D01*
X174776423Y-44455050D01*
X174835211Y-44461512D01*
X174886473Y-44479631D01*
X174923402Y-44501920D01*
X174975254Y-44547700D01*
X175014514Y-44604908D01*
X175020314Y-44617100D01*
X175035088Y-44669182D01*
X175037804Y-44705333D01*
X175039474Y-44727557D01*
X175033405Y-44785566D01*
X175016814Y-44836549D01*
X174996042Y-44871359D01*
X174965228Y-44909218D01*
X174931294Y-44940614D01*
X174899121Y-44960413D01*
X174872062Y-44971621D01*
X174872062Y-45330557D01*
X174872062Y-45689493D01*
X175043076Y-45689493D01*
X175214089Y-45689493D01*
X175214089Y-45339680D01*
X175214092Y-45310617D01*
X175214158Y-45227053D01*
X175214378Y-45159169D01*
X175214837Y-45105186D01*
X175215620Y-45063327D01*
X175216812Y-45031815D01*
X175218497Y-45008873D01*
X175220761Y-44992723D01*
X175223689Y-44981589D01*
X175227364Y-44973693D01*
X175231872Y-44967258D01*
X175232880Y-44966136D01*
X175246813Y-44954572D01*
X175273764Y-44934651D01*
X175311975Y-44907588D01*
X175359689Y-44874602D01*
X175415147Y-44836910D01*
X175476591Y-44795729D01*
X175542265Y-44752278D01*
X175834875Y-44559904D01*
X175835007Y-44144989D01*
X175835138Y-43730073D01*
X175798471Y-43713538D01*
X175793560Y-43711180D01*
X175756622Y-43685841D01*
X175720253Y-43649761D01*
X175689511Y-43608637D01*
X175669453Y-43568171D01*
X175657576Y-43520061D01*
X175656230Y-43476665D01*
X175808136Y-43476665D01*
X175810015Y-43505578D01*
X175818605Y-43528682D01*
X175837697Y-43552844D01*
X175846350Y-43561386D01*
X175882887Y-43583497D01*
X175923223Y-43590846D01*
X175963219Y-43583947D01*
X175998738Y-43563314D01*
X176025640Y-43529464D01*
X176038347Y-43497885D01*
X176040065Y-43460821D01*
X176025708Y-43421870D01*
X176006587Y-43395004D01*
X175974278Y-43370956D01*
X175937638Y-43360236D01*
X175900058Y-43361989D01*
X175864927Y-43375363D01*
X175835637Y-43399503D01*
X175815576Y-43433555D01*
X175808136Y-43476665D01*
X175656230Y-43476665D01*
X175655487Y-43452727D01*
X175669696Y-43388253D01*
X175699236Y-43329090D01*
X175743139Y-43277687D01*
X175800437Y-43236497D01*
X175800507Y-43236458D01*
X175828192Y-43222454D01*
X175852760Y-43214383D01*
X175881236Y-43210684D01*
X175920645Y-43209798D01*
X175937385Y-43209947D01*
X175976152Y-43212410D01*
X176006356Y-43218877D01*
X176034889Y-43230603D01*
X176084018Y-43261644D01*
X176132825Y-43308803D01*
X176168891Y-43363572D01*
X176170708Y-43367400D01*
X176185880Y-43417659D01*
X176189586Y-43460821D01*
X176190831Y-43475314D01*
X176185528Y-43533520D01*
X176169940Y-43585432D01*
X176150688Y-43619538D01*
X176115237Y-43662704D01*
X176073311Y-43698842D01*
X176030241Y-43722711D01*
X175988150Y-43738785D01*
X175988150Y-44177861D01*
X175988149Y-44185414D01*
X175988016Y-44272650D01*
X175987670Y-44354516D01*
X175987134Y-44429208D01*
X175986432Y-44494920D01*
X175985585Y-44549850D01*
X175984618Y-44592192D01*
X175983552Y-44620141D01*
X175982411Y-44631894D01*
X175980899Y-44633815D01*
X175967145Y-44645268D01*
X175940548Y-44665003D01*
X175902737Y-44691886D01*
X175855338Y-44724783D01*
X175799979Y-44762560D01*
X175738286Y-44804084D01*
X175671886Y-44848221D01*
X175367101Y-45049592D01*
X175367101Y-45369543D01*
X175367101Y-45689493D01*
X176118855Y-45689493D01*
X176870608Y-45689493D01*
X176868164Y-45517155D01*
X176865719Y-45344816D01*
X176566801Y-45209719D01*
X176525644Y-45191099D01*
X176454745Y-45158862D01*
X176397844Y-45132644D01*
X176353305Y-45111585D01*
X176319491Y-45094824D01*
X176294766Y-45081503D01*
X176277494Y-45070762D01*
X176266037Y-45061740D01*
X176258760Y-45053580D01*
X176254027Y-45045420D01*
X176253640Y-45044587D01*
X176249825Y-45033556D01*
X176246780Y-45017830D01*
X176244425Y-44995507D01*
X176242678Y-44964687D01*
X176241460Y-44923468D01*
X176240690Y-44869951D01*
X176240287Y-44802235D01*
X176240170Y-44718420D01*
X176240170Y-44420619D01*
X176206417Y-44398986D01*
X176174555Y-44375693D01*
X176127387Y-44326195D01*
X176094956Y-44269943D01*
X176077512Y-44209360D01*
X176076584Y-44183104D01*
X176228498Y-44183104D01*
X176241503Y-44221267D01*
X176269952Y-44257173D01*
X176284672Y-44267806D01*
X176321290Y-44280669D01*
X176361966Y-44282063D01*
X176399595Y-44271219D01*
X176400830Y-44270562D01*
X176422597Y-44252076D01*
X176443457Y-44224181D01*
X176459044Y-44193780D01*
X176464990Y-44167782D01*
X176459381Y-44142485D01*
X176444311Y-44111349D01*
X176424165Y-44083244D01*
X176403337Y-44065462D01*
X176372586Y-44053609D01*
X176331254Y-44050232D01*
X176294415Y-44060337D01*
X176263895Y-44081299D01*
X176241519Y-44110497D01*
X176229111Y-44145306D01*
X176228498Y-44183104D01*
X176076584Y-44183104D01*
X176075303Y-44146869D01*
X176088578Y-44084894D01*
X176117586Y-44025857D01*
X176162576Y-43972183D01*
X176180944Y-43955963D01*
X176235386Y-43921104D01*
X176294634Y-43902795D01*
X176361611Y-43899976D01*
X176362359Y-43900025D01*
X176428619Y-43912643D01*
X176486932Y-43939699D01*
X176535884Y-43978875D01*
X176574062Y-44027854D01*
X176600051Y-44084319D01*
X176612437Y-44145951D01*
X176611546Y-44167782D01*
X176609804Y-44210434D01*
X176590741Y-44275450D01*
X176582449Y-44291979D01*
X176553663Y-44332630D01*
X176516263Y-44371195D01*
X176475364Y-44402804D01*
X176436086Y-44422590D01*
X176397682Y-44435387D01*
X176395291Y-44695071D01*
X176395194Y-44706450D01*
X176394935Y-44773614D01*
X176395228Y-44833995D01*
X176396026Y-44885350D01*
X176397281Y-44925436D01*
X176398946Y-44952009D01*
X176400973Y-44962826D01*
X176408296Y-44967017D01*
X176430513Y-44978027D01*
X176465590Y-44994745D01*
X176511596Y-45016266D01*
X176566602Y-45041690D01*
X176628675Y-45070115D01*
X176695887Y-45100637D01*
X176751535Y-45126030D01*
X176815458Y-45155783D01*
X176872949Y-45183175D01*
X176922002Y-45207220D01*
X176960611Y-45226932D01*
X176986772Y-45241326D01*
X176998480Y-45249415D01*
X177000375Y-45251874D01*
X177005007Y-45260511D01*
X177008489Y-45273212D01*
X177010981Y-45292300D01*
X177012642Y-45320097D01*
X177013631Y-45358927D01*
X177014108Y-45411112D01*
X177014231Y-45478974D01*
X177014231Y-45689493D01*
X177081736Y-45689493D01*
X177149242Y-45689493D01*
X177149242Y-45285828D01*
X177149242Y-44882164D01*
X177112635Y-44865656D01*
X177099926Y-44859312D01*
X177053231Y-44825781D01*
X177011906Y-44780805D01*
X176980941Y-44729542D01*
X176973519Y-44711515D01*
X176959158Y-44648186D01*
X176959799Y-44624168D01*
X177109847Y-44624168D01*
X177118482Y-44663179D01*
X177138070Y-44697633D01*
X177166007Y-44721278D01*
X177186152Y-44729584D01*
X177229509Y-44735287D01*
X177271144Y-44726357D01*
X177306802Y-44704111D01*
X177332226Y-44669865D01*
X177334565Y-44664815D01*
X177345456Y-44631169D01*
X177343899Y-44600612D01*
X177329705Y-44565285D01*
X177304723Y-44532155D01*
X177271248Y-44511258D01*
X177233545Y-44503421D01*
X177195227Y-44508177D01*
X177159908Y-44525059D01*
X177131201Y-44553600D01*
X177112720Y-44593333D01*
X177109847Y-44624168D01*
X176959799Y-44624168D01*
X176960870Y-44584056D01*
X176977614Y-44522019D01*
X177008349Y-44464967D01*
X177052034Y-44415792D01*
X177107628Y-44377388D01*
X177117663Y-44372535D01*
X177171510Y-44356316D01*
X177231055Y-44351276D01*
X177289750Y-44357484D01*
X177341046Y-44375005D01*
X177383220Y-44400892D01*
X177434399Y-44449321D01*
X177472214Y-44509801D01*
X177485527Y-44544866D01*
X177495926Y-44608521D01*
X177494076Y-44631169D01*
X177490724Y-44672215D01*
X177471049Y-44732967D01*
X177438031Y-44787800D01*
X177392799Y-44833735D01*
X177336483Y-44867792D01*
X177302254Y-44882894D01*
X177302254Y-45286194D01*
X177302254Y-45689493D01*
X177621779Y-45689493D01*
X177941304Y-45689493D01*
X177941304Y-45533287D01*
X177941304Y-45377080D01*
X177801038Y-45283960D01*
X177757695Y-45254721D01*
X177716856Y-45226236D01*
X177683205Y-45201781D01*
X177659382Y-45183277D01*
X177648026Y-45172643D01*
X177645488Y-45166927D01*
X177643148Y-45155888D01*
X177641181Y-45138510D01*
X177639555Y-45113498D01*
X177638243Y-45079557D01*
X177637214Y-45035390D01*
X177636439Y-44979702D01*
X177635887Y-44911196D01*
X177635530Y-44828577D01*
X177635337Y-44730548D01*
X177635280Y-44615815D01*
X177635421Y-44497805D01*
X177635863Y-44388567D01*
X177636598Y-44293975D01*
X177637615Y-44214588D01*
X177638906Y-44150965D01*
X177640462Y-44103665D01*
X177642274Y-44073247D01*
X177644332Y-44060269D01*
X177648704Y-44054847D01*
X177665271Y-44037606D01*
X177692406Y-44010820D01*
X177728479Y-43976055D01*
X177771864Y-43934873D01*
X177820932Y-43888839D01*
X177874057Y-43839518D01*
X178094731Y-43635680D01*
X178066222Y-43603211D01*
X178055694Y-43590677D01*
X178023526Y-43540292D01*
X178005715Y-43485517D01*
X178000442Y-43421315D01*
X178000739Y-43415277D01*
X178150632Y-43415277D01*
X178157599Y-43458752D01*
X178160609Y-43466334D01*
X178176353Y-43493885D01*
X178194546Y-43513746D01*
X178210506Y-43523265D01*
X178249341Y-43534547D01*
X178289961Y-43534135D01*
X178325034Y-43521587D01*
X178325635Y-43521208D01*
X178358923Y-43493746D01*
X178376931Y-43461038D01*
X178382339Y-43418253D01*
X178382116Y-43404979D01*
X178378649Y-43381356D01*
X178368237Y-43362073D01*
X178347395Y-43339250D01*
X178340102Y-43332090D01*
X178318543Y-43314315D01*
X178298431Y-43306223D01*
X178272220Y-43304306D01*
X178257965Y-43305030D01*
X178215331Y-43317009D01*
X178181738Y-43341388D01*
X178159425Y-43375150D01*
X178150632Y-43415277D01*
X178000739Y-43415277D01*
X178002044Y-43388736D01*
X178016375Y-43321754D01*
X178045725Y-43264651D01*
X178090303Y-43217086D01*
X178150320Y-43178717D01*
X178213408Y-43156439D01*
X178278610Y-43151074D01*
X178343065Y-43162599D01*
X178404635Y-43190628D01*
X178461181Y-43234774D01*
X178487900Y-43266430D01*
X178517011Y-43322051D01*
X178532838Y-43384492D01*
X178533705Y-43418253D01*
X178534514Y-43449724D01*
G37*
%TD*%
M02*
