M48
; DRILL file {KiCad 7.0.10} date Sat May  4 07:59:26 2024
; FORMAT={-:-/ absolute / metric / decimal}
; #@! TF.CreationDate,2024-05-04T07:59:26-03:00
; #@! TF.GenerationSoftware,Kicad,Pcbnew,7.0.10
; #@! TF.FileFunction,Plated,1,2,PTH
FMAT,2
METRIC
; #@! TA.AperFunction,Plated,PTH,ViaDrill
T1C0.200
; #@! TA.AperFunction,Plated,PTH,ViaDrill
T2C0.250
; #@! TA.AperFunction,Plated,PTH,ComponentDrill
T3C0.750
; #@! TA.AperFunction,Plated,PTH,ComponentDrill
T4C0.800
; #@! TA.AperFunction,Plated,PTH,ComponentDrill
T5C1.000
; #@! TA.AperFunction,Plated,PTH,ComponentDrill
T6C1.020
; #@! TA.AperFunction,Plated,PTH,ComponentDrill
T7C1.100
; #@! TA.AperFunction,Plated,PTH,ComponentDrill
T8C1.520
%
G90
G05
T1
X168.275Y-101.6
X170.18Y-82.55
X170.18Y-85.09
X170.815Y-85.09
X170.815Y-87.63
X182.372Y-91.44
X183.007Y-96.52
X183.642Y-93.98
X183.647Y-67.305
X184.023Y-66.665
X184.277Y-99.06
X184.404Y-66.03
X184.785Y-65.395
X185.166Y-64.76
X185.547Y-64.125
X185.928Y-63.49
X186.309Y-62.855
X186.69Y-62.22
X189.992Y-41.91
X189.992Y-42.545
X189.992Y-61.595
T2
X149.225Y-68.707
X191.643Y-51.425
X191.643Y-70.104
T3
X141.732Y-52.7
X141.732Y-60.32
X144.272Y-52.695
X144.272Y-60.315
X146.812Y-52.705
X146.812Y-60.325
X149.352Y-52.695
X149.352Y-60.315
X151.892Y-52.7
X151.892Y-60.32
X154.432Y-52.695
X154.432Y-60.315
X156.972Y-52.7
X156.972Y-60.32
X159.512Y-52.695
X159.512Y-60.315
X162.052Y-52.705
X162.052Y-60.325
X164.592Y-52.7
X164.592Y-60.32
X167.132Y-52.705
X167.132Y-60.325
X169.672Y-52.695
X169.672Y-60.315
X172.212Y-52.705
X172.212Y-60.325
X174.752Y-52.7
X174.752Y-60.32
X177.292Y-52.705
X177.292Y-60.325
X179.832Y-52.695
X179.832Y-60.315
X182.372Y-52.705
X182.372Y-60.325
X184.912Y-52.7
X184.912Y-60.32
X187.452Y-52.7
X187.452Y-60.32
X189.992Y-52.7
X189.992Y-60.32
T4
X97.195Y-132.08
X99.695Y-132.08
X102.235Y-50.165
X102.235Y-60.325
X108.585Y-67.31
X108.585Y-72.39
X108.585Y-77.47
X112.395Y-50.165
X112.395Y-60.325
X118.745Y-67.31
X118.745Y-72.39
X118.745Y-77.47
X122.555Y-50.165
X122.555Y-60.325
X126.905Y-135.89
X127.625Y-121.93
X127.625Y-129.55
X128.905Y-135.89
X130.165Y-121.93
X130.165Y-129.55
X132.705Y-121.93
X132.705Y-129.55
X132.715Y-50.165
X132.715Y-60.325
X135.245Y-121.93
X135.245Y-129.55
X140.095Y-121.92
X140.095Y-132.08
X144.145Y-121.92
X144.145Y-132.08
X145.532Y-39.38
X145.532Y-47.0
X146.685Y-67.31
X146.685Y-77.47
X146.685Y-85.09
X146.685Y-95.25
X146.685Y-102.87
X146.685Y-113.03
X148.072Y-39.38
X148.072Y-47.0
X150.612Y-39.38
X150.612Y-47.0
X151.765Y-78.105
X151.765Y-80.645
X151.765Y-83.185
X151.765Y-85.725
X151.775Y-95.895
X151.775Y-98.435
X151.775Y-100.975
X151.775Y-103.515
X151.775Y-113.675
X151.775Y-116.215
X151.775Y-118.755
X151.775Y-121.295
X153.152Y-39.38
X153.152Y-47.0
X159.385Y-78.105
X159.385Y-80.645
X159.385Y-83.185
X159.385Y-85.725
X159.395Y-95.895
X159.395Y-98.435
X159.395Y-100.975
X159.395Y-103.515
X159.395Y-113.675
X159.395Y-116.215
X159.395Y-118.755
X159.395Y-121.295
X162.677Y-39.38
X162.677Y-47.0
X163.83Y-75.565
X163.83Y-85.725
X163.83Y-93.345
X163.83Y-103.505
X163.83Y-111.125
X163.83Y-121.285
X165.217Y-39.38
X165.217Y-47.0
X167.132Y-75.565
X167.132Y-85.725
X167.132Y-93.345
X167.132Y-103.505
X167.132Y-111.125
X167.132Y-121.285
X167.757Y-39.38
X167.757Y-47.0
X170.297Y-39.38
X170.297Y-47.0
T5
X97.855Y-123.77
X103.855Y-90.17
X106.045Y-129.54
X106.045Y-132.08
X106.045Y-134.62
X109.855Y-90.17
X115.855Y-123.77
X128.985Y-67.31
X128.985Y-80.01
X128.985Y-85.09
X128.985Y-97.79
X128.985Y-102.87
X128.985Y-115.57
X138.985Y-67.31
X138.985Y-80.01
X138.985Y-85.09
X138.985Y-97.79
X138.985Y-102.87
X138.985Y-115.57
X191.272Y-45.085
X193.812Y-45.085
X196.352Y-45.085
X198.892Y-45.085
X202.692Y-50.8
X202.692Y-53.34
X202.692Y-55.88
X202.692Y-58.42
X202.692Y-60.96
X202.692Y-63.5
X202.692Y-68.58
X202.692Y-73.66
X202.692Y-76.2
X202.692Y-78.74
X202.692Y-83.82
X202.692Y-86.36
X202.692Y-88.9
X202.692Y-93.98
X202.692Y-96.52
X202.692Y-99.06
X202.692Y-101.6
X202.692Y-104.14
X202.692Y-106.68
T6
X172.847Y-73.66
X172.847Y-76.2
X172.847Y-78.74
X172.847Y-81.28
X172.847Y-83.82
X172.847Y-86.36
X172.847Y-88.9
X172.847Y-91.44
X172.847Y-93.98
X172.847Y-96.52
X172.847Y-99.06
X172.847Y-101.6
X172.847Y-104.14
X172.847Y-106.68
X172.847Y-109.22
X172.847Y-111.76
X172.847Y-114.3
X172.847Y-116.84
X172.847Y-119.38
X172.847Y-121.92
X172.847Y-124.46
X172.847Y-127.0
X195.707Y-73.66
X195.707Y-76.2
X195.707Y-78.74
X195.707Y-81.28
X195.707Y-83.82
X195.707Y-86.36
X195.707Y-88.9
X195.707Y-91.44
X195.707Y-93.98
X195.707Y-96.52
X195.707Y-99.06
X195.707Y-101.6
X195.707Y-104.14
X195.707Y-106.68
X195.707Y-109.22
X195.707Y-111.76
X195.707Y-114.3
X195.707Y-116.84
X195.707Y-119.38
X195.707Y-121.92
X195.707Y-124.46
X195.707Y-127.0
T7
X114.935Y-135.89
X117.475Y-135.89
X120.015Y-135.89
T8
X97.155Y-44.45
X99.695Y-67.31
X99.695Y-72.39
X99.695Y-77.47
X99.695Y-82.55
X102.235Y-44.45
X107.315Y-44.45
X112.395Y-44.45
X117.475Y-44.45
X122.555Y-44.45
X127.635Y-44.45
X132.715Y-44.45
M30
