M48
; DRILL file {KiCad 7.0.10} date Thu May  2 13:41:41 2024
; FORMAT={-:-/ absolute / inch / decimal}
; #@! TF.CreationDate,2024-05-02T13:41:41-03:00
; #@! TF.GenerationSoftware,Kicad,Pcbnew,7.0.10
; #@! TF.FileFunction,Plated,1,2,PTH
FMAT,2
INCH
; #@! TA.AperFunction,Plated,PTH,ViaDrill
T1C0.0079
; #@! TA.AperFunction,Plated,PTH,ViaDrill
T2C0.0098
; #@! TA.AperFunction,Plated,PTH,ComponentDrill
T3C0.0295
; #@! TA.AperFunction,Plated,PTH,ComponentDrill
T4C0.0315
; #@! TA.AperFunction,Plated,PTH,ComponentDrill
T5C0.0394
; #@! TA.AperFunction,Plated,PTH,ComponentDrill
T6C0.0402
; #@! TA.AperFunction,Plated,PTH,ComponentDrill
T7C0.0433
; #@! TA.AperFunction,Plated,PTH,ComponentDrill
T8C0.0598
%
G90
G05
T1
X4.35Y-4.45
X4.35Y-4.6
X4.35Y-4.8
X5.5996Y-2.15
X5.5996Y-2.85
X5.5996Y-3.55
X5.95Y-2.8
X5.95Y-3.45
X6.475Y-3.1
X6.5Y-3.3
X6.525Y-3.2
X6.55Y-3.4
X7.825Y-4.375
X7.85Y-2.475
X7.865Y-2.175
X7.875Y-2.75
X7.88Y-2.15
X7.895Y-2.125
X7.9Y-2.775
X7.91Y-2.1
X7.925Y-2.075
X7.925Y-2.8
X7.94Y-2.05
X8.3Y-2.75
X8.325Y-2.725
X8.4Y-2.775
X8.425Y-2.8
X8.875Y-4.1
T2
X8.4Y-2.05
T3
X7.4748Y-2.8
X7.4748Y-3.2
X7.4748Y-3.6
X7.4748Y-3.8
X7.4748Y-4.0
X7.4748Y-4.2
X7.475Y-2.4
X7.475Y-2.5
X7.475Y-2.6
X7.475Y-3.0
X7.475Y-3.4
X7.475Y-3.7
X7.475Y-3.9
X7.475Y-4.3
X7.4752Y-2.7
X7.4752Y-2.9
X7.4752Y-3.1
X7.4752Y-3.3
X7.4752Y-3.5
X7.4752Y-4.1
X7.7748Y-2.8
X7.7748Y-3.2
X7.7748Y-3.6
X7.7748Y-3.8
X7.7748Y-4.0
X7.7748Y-4.2
X7.775Y-2.4
X7.775Y-2.5
X7.775Y-2.6
X7.775Y-3.0
X7.775Y-3.4
X7.775Y-3.7
X7.775Y-3.9
X7.775Y-4.3
X7.7752Y-2.7
X7.7752Y-2.9
X7.7752Y-3.1
X7.7752Y-3.3
X7.7752Y-3.5
X7.7752Y-4.1
T4
X2.7516Y-4.7
X2.85Y-4.7
X3.2Y-2.15
X3.2Y-2.35
X3.2Y-2.55
X3.6Y-2.15
X3.6Y-2.35
X3.6Y-2.55
X3.9213Y-4.85
X3.9496Y-4.3004
X3.9496Y-4.6004
X4.0Y-4.85
X4.0496Y-4.3004
X4.0496Y-4.6004
X4.1496Y-4.3004
X4.1496Y-4.6004
X4.2496Y-4.3004
X4.2496Y-4.6004
X4.4406Y-4.3
X4.4406Y-4.7
X4.6Y-4.3
X4.6Y-4.7
X4.7Y-2.15
X4.7Y-2.55
X4.7Y-2.85
X4.7Y-3.25
X4.7Y-3.55
X4.7Y-3.95
X4.9Y-2.15
X4.9Y-2.25
X4.9Y-2.35
X4.9Y-2.45
X4.9004Y-2.8504
X4.9004Y-2.9504
X4.9004Y-3.0504
X4.9004Y-3.1504
X4.9004Y-3.5504
X4.9004Y-3.6504
X4.9004Y-3.7504
X4.9004Y-3.8504
X5.2Y-2.15
X5.2Y-2.25
X5.2Y-2.35
X5.2Y-2.45
X5.2004Y-2.8504
X5.2004Y-2.9504
X5.2004Y-3.0504
X5.2004Y-3.1504
X5.2004Y-3.5504
X5.2004Y-3.6504
X5.2004Y-3.7504
X5.2004Y-3.8504
X5.3996Y-2.3
X5.3996Y-2.45
X5.3996Y-3.0
X5.3996Y-3.15
X5.3996Y-3.7
X5.3996Y-3.85
X5.7996Y-2.3
X5.7996Y-2.45
X5.7996Y-3.0
X5.7996Y-3.15
X5.7996Y-3.7
X5.7996Y-3.85
X8.175Y-3.9
X8.175Y-4.3
X8.325Y-3.9
X8.325Y-4.3
X8.4504Y-3.6004
X8.4504Y-3.7004
X8.4504Y-3.8004
X8.4504Y-3.9004
X8.4508Y-3.1258
X8.4508Y-3.2258
X8.4508Y-3.3258
X8.4508Y-3.4258
X8.7504Y-3.6004
X8.7504Y-3.7004
X8.7504Y-3.8004
X8.7504Y-3.9004
X8.7508Y-3.1258
X8.7508Y-3.2258
X8.7508Y-3.3258
X8.7508Y-3.4258
X8.875Y-3.9
X8.875Y-4.3
X9.025Y-3.9
X9.025Y-4.3
T5
X2.7776Y-4.3728
X3.0138Y-3.05
X3.1Y-4.6
X3.1Y-4.7
X3.1Y-4.8
X3.25Y-3.05
X3.4862Y-4.3728
X4.0031Y-2.15
X4.0031Y-2.65
X4.0031Y-2.85
X4.0031Y-3.35
X4.0031Y-3.55
X4.0031Y-4.05
X4.3969Y-2.15
X4.3969Y-2.65
X4.3969Y-2.85
X4.3969Y-3.35
X4.3969Y-3.55
X4.3969Y-4.05
X7.275Y-2.4
X7.275Y-2.5
X7.275Y-2.6
X7.275Y-2.8256
X7.275Y-2.9256
X7.275Y-3.0256
X7.275Y-3.3
X7.275Y-3.4
X7.275Y-3.5
X7.275Y-3.6
X7.275Y-3.7
X7.275Y-3.8
X8.25Y-2.125
X8.25Y-2.225
X8.25Y-2.325
X8.25Y-2.425
X8.25Y-2.525
X8.25Y-2.625
X8.6Y-2.125
X8.6Y-2.225
X8.6Y-2.325
X8.6Y-2.425
X8.6Y-2.65
T6
X6.1Y-2.4
X6.1Y-2.5
X6.1Y-2.6
X6.1Y-2.7
X6.1Y-2.8
X6.1Y-2.9
X6.1Y-3.0
X6.1Y-3.1
X6.1Y-3.2
X6.1Y-3.3
X6.1Y-3.4
X6.1Y-3.5
X6.1Y-3.6
X6.1Y-3.7
X6.1Y-3.8
X6.1Y-3.9
X6.1Y-4.0
X6.1Y-4.1
X6.1Y-4.2
X6.1Y-4.3
X6.1Y-4.4
X6.1Y-4.5
X7.0Y-2.4
X7.0Y-2.5
X7.0Y-2.6
X7.0Y-2.7
X7.0Y-2.8
X7.0Y-2.9
X7.0Y-3.0
X7.0Y-3.1
X7.0Y-3.2
X7.0Y-3.3
X7.0Y-3.4
X7.0Y-3.5
X7.0Y-3.6
X7.0Y-3.7
X7.0Y-3.8
X7.0Y-3.9
X7.0Y-4.0
X7.0Y-4.1
X7.0Y-4.2
X7.0Y-4.3
X7.0Y-4.4
X7.0Y-4.5
T7
X3.45Y-4.85
X3.55Y-4.85
X3.65Y-4.85
T8
X2.85Y-2.15
X2.85Y-2.35
X2.85Y-2.55
X2.85Y-2.75
X7.525Y-4.725
X7.725Y-4.725
X7.925Y-4.725
X8.125Y-4.725
X8.325Y-4.725
X8.525Y-4.725
X8.725Y-4.725
X8.925Y-4.725
M30
