%TF.GenerationSoftware,KiCad,Pcbnew,7.0.10*%
%TF.CreationDate,2024-05-04T07:59:40-03:00*%
%TF.ProjectId,board,626f6172-642e-46b6-9963-61645f706362,1.4*%
%TF.SameCoordinates,Original*%
%TF.FileFunction,Copper,L1,Top*%
%TF.FilePolarity,Positive*%
%FSLAX46Y46*%
G04 Gerber Fmt 4.6, Leading zero omitted, Abs format (unit mm)*
G04 Created by KiCad (PCBNEW 7.0.10) date 2024-05-04 07:59:40*
%MOMM*%
%LPD*%
G01*
G04 APERTURE LIST*
%TA.AperFunction,ComponentPad*%
%ADD10O,1.500000X1.500000*%
%TD*%
%TA.AperFunction,ComponentPad*%
%ADD11C,1.600000*%
%TD*%
%TA.AperFunction,ComponentPad*%
%ADD12O,1.600000X1.600000*%
%TD*%
%TA.AperFunction,ComponentPad*%
%ADD13O,1.700000X1.700000*%
%TD*%
%TA.AperFunction,ComponentPad*%
%ADD14O,2.000000X2.000000*%
%TD*%
%TA.AperFunction,ComponentPad*%
%ADD15C,2.000000*%
%TD*%
%TA.AperFunction,ComponentPad*%
%ADD16O,1.530000X1.530000*%
%TD*%
%TA.AperFunction,ComponentPad*%
%ADD17C,1.530000*%
%TD*%
%TA.AperFunction,ComponentPad*%
%ADD18O,3.000000X3.000000*%
%TD*%
%TA.AperFunction,ComponentPad*%
%ADD19C,3.000000*%
%TD*%
%TA.AperFunction,ComponentPad*%
%ADD20O,1.508000X1.508000*%
%TD*%
%TA.AperFunction,ComponentPad*%
%ADD21C,1.508000*%
%TD*%
%TA.AperFunction,ComponentPad*%
%ADD22O,1.905000X2.000000*%
%TD*%
%TA.AperFunction,ViaPad*%
%ADD23C,0.400000*%
%TD*%
%TA.AperFunction,ViaPad*%
%ADD24C,0.500000*%
%TD*%
%TA.AperFunction,Conductor*%
%ADD25C,0.250000*%
%TD*%
%TA.AperFunction,Conductor*%
%ADD26C,0.200000*%
%TD*%
G04 APERTURE END LIST*
D10*
%TO.P,DZ17,1,K*%
%TO.N,GND*%
X149352000Y-52695000D03*
%TO.P,DZ17,2,A*%
%TO.N,Treated Wave B*%
X149352000Y-60315000D03*
%TD*%
%TO.P,DZ14,1,K*%
%TO.N,Treated Wave CA*%
X156972000Y-60320000D03*
%TO.P,DZ14,2,A*%
%TO.N,Vcc*%
X156972000Y-52700000D03*
%TD*%
D11*
%TO.P,R9,1*%
%TO.N,Treated Wave A*%
X163830000Y-75565000D03*
D12*
%TO.P,R9,2*%
%TO.N,Net-(U2B-+)*%
X163830000Y-85725000D03*
%TD*%
D10*
%TO.P,DZ2,1,K*%
%TO.N,Current A*%
X187452000Y-60320000D03*
%TO.P,DZ2,2,A*%
%TO.N,Vcc*%
X187452000Y-52700000D03*
%TD*%
D13*
%TO.P,SW2,1,A*%
%TO.N,Vcc*%
X202692000Y-83820000D03*
%TO.P,SW2,2,B*%
%TO.N,System Type*%
X202692000Y-86360000D03*
%TO.P,SW2,3,C*%
%TO.N,GND*%
X202692000Y-88900000D03*
%TD*%
D11*
%TO.P,R7,1*%
%TO.N,Wave B*%
X146685000Y-95250000D03*
D12*
%TO.P,R7,2*%
%TO.N,TC A-2*%
X146685000Y-85090000D03*
%TD*%
%TO.P,U4,1*%
%TO.N,Treated Wave C*%
X151775000Y-113675000D03*
%TO.P,U4,2,-*%
X151775000Y-116215000D03*
%TO.P,U4,3,+*%
%TO.N,Wave C*%
X151775000Y-118755000D03*
%TO.P,U4,4,V-*%
%TO.N,GND*%
X151775000Y-121295000D03*
%TO.P,U4,5,+*%
%TO.N,Net-(U4B-+)*%
X159395000Y-121295000D03*
%TO.P,U4,6,-*%
%TO.N,Treated Wave BC*%
X159395000Y-118755000D03*
%TO.P,U4,7*%
X159395000Y-116215000D03*
%TO.P,U4,8,V+*%
%TO.N,Vin*%
X159395000Y-113675000D03*
%TD*%
D14*
%TO.P,PS1,1,AC/L*%
%TO.N,Line A*%
X109855000Y-90170000D03*
D15*
%TO.P,PS1,2,AC/N*%
%TO.N,Neutral*%
X103855000Y-90170000D03*
%TO.P,PS1,3,-Vout*%
%TO.N,GND*%
X115855000Y-123770000D03*
%TO.P,PS1,4,+Vout*%
%TO.N,Power*%
X97855000Y-123770000D03*
%TD*%
D11*
%TO.P,R15,1*%
%TO.N,TC B-1*%
X122555000Y-60325000D03*
D12*
%TO.P,R15,2*%
%TO.N,TC A-2*%
X122555000Y-50165000D03*
%TD*%
D11*
%TO.P,R16,1*%
%TO.N,TC C-1*%
X112395000Y-60325000D03*
D12*
%TO.P,R16,2*%
%TO.N,TC A-2*%
X112395000Y-50165000D03*
%TD*%
D16*
%TO.P,MCU1,J1_1,3V3*%
%TO.N,Vcc*%
X172847000Y-73660000D03*
D17*
%TO.P,MCU1,J1_2,3V3__1*%
%TO.N,unconnected-(MCU1-3V3__1-PadJ1_2)*%
X172847000Y-76200000D03*
%TO.P,MCU1,J1_3,RST*%
%TO.N,unconnected-(MCU1-RST-PadJ1_3)*%
X172847000Y-78740000D03*
%TO.P,MCU1,J1_4,GPIO4*%
%TO.N,Treated Wave A*%
X172847000Y-81280000D03*
%TO.P,MCU1,J1_5,GPIO5*%
%TO.N,Treated Wave B*%
X172847000Y-83820000D03*
%TO.P,MCU1,J1_6,GPIO6*%
%TO.N,Treated Wave C*%
X172847000Y-86360000D03*
%TO.P,MCU1,J1_7,GPIO7*%
%TO.N,Treated Wave CA*%
X172847000Y-88900000D03*
%TO.P,MCU1,J1_8,GPIO15*%
%TO.N,CS*%
X172847000Y-91440000D03*
%TO.P,MCU1,J1_9,GPIO16*%
%TO.N,MOSI*%
X172847000Y-93980000D03*
%TO.P,MCU1,J1_10,GPIO17*%
%TO.N,SCK*%
X172847000Y-96520000D03*
%TO.P,MCU1,J1_11,GPIO18*%
%TO.N,MISO*%
X172847000Y-99060000D03*
%TO.P,MCU1,J1_12,GPIO8*%
%TO.N,Treated Wave AB*%
X172847000Y-101600000D03*
%TO.P,MCU1,J1_13,GPIO3*%
%TO.N,unconnected-(MCU1-GPIO3-PadJ1_13)*%
X172847000Y-104140000D03*
%TO.P,MCU1,J1_14,GPIO46*%
%TO.N,unconnected-(MCU1-GPIO46-PadJ1_14)*%
X172847000Y-106680000D03*
%TO.P,MCU1,J1_15,GPIO9*%
%TO.N,Treated Wave BC*%
X172847000Y-109220000D03*
%TO.P,MCU1,J1_16,GPIO10*%
%TO.N,unconnected-(MCU1-GPIO10-PadJ1_16)*%
X172847000Y-111760000D03*
%TO.P,MCU1,J1_17,GPIO11*%
%TO.N,Current N*%
X172847000Y-114300000D03*
%TO.P,MCU1,J1_18,GPIO12*%
%TO.N,Current C*%
X172847000Y-116840000D03*
%TO.P,MCU1,J1_19,GPIO13*%
%TO.N,Current B*%
X172847000Y-119380000D03*
%TO.P,MCU1,J1_20,GPIO14*%
%TO.N,Current A*%
X172847000Y-121920000D03*
%TO.P,MCU1,J1_21,5V0*%
%TO.N,unconnected-(MCU1-5V0-PadJ1_21)*%
X172847000Y-124460000D03*
%TO.P,MCU1,J1_22,GND*%
%TO.N,GND*%
X172847000Y-127000000D03*
%TO.P,MCU1,J3_1,GND__1*%
X195707000Y-73660000D03*
%TO.P,MCU1,J3_2,U0TXD/GPIO43*%
%TO.N,UART TX*%
X195707000Y-76200000D03*
%TO.P,MCU1,J3_3,U0RXD/GPIO44*%
%TO.N,UART RX*%
X195707000Y-78740000D03*
%TO.P,MCU1,J3_4,GPIO1*%
%TO.N,System Type*%
X195707000Y-81280000D03*
%TO.P,MCU1,J3_5,GPIO2*%
%TO.N,unconnected-(MCU1-GPIO2-PadJ3_5)*%
X195707000Y-83820000D03*
%TO.P,MCU1,J3_6,MTMS/GPIO42*%
%TO.N,unconnected-(MCU1-MTMS{slash}GPIO42-PadJ3_6)*%
X195707000Y-86360000D03*
%TO.P,MCU1,J3_7,MTDI/GPIO41*%
%TO.N,unconnected-(MCU1-MTDI{slash}GPIO41-PadJ3_7)*%
X195707000Y-88900000D03*
%TO.P,MCU1,J3_8,MTDO/GPIO40*%
%TO.N,unconnected-(MCU1-MTDO{slash}GPIO40-PadJ3_8)*%
X195707000Y-91440000D03*
%TO.P,MCU1,J3_9,MTCK/GPIO39*%
%TO.N,unconnected-(MCU1-MTCK{slash}GPIO39-PadJ3_9)*%
X195707000Y-93980000D03*
%TO.P,MCU1,J3_10,GPIO38*%
%TO.N,unconnected-(MCU1-GPIO38-PadJ3_10)*%
X195707000Y-96520000D03*
%TO.P,MCU1,J3_11,GPIO37*%
%TO.N,unconnected-(MCU1-GPIO37-PadJ3_11)*%
X195707000Y-99060000D03*
%TO.P,MCU1,J3_12,GPIO36*%
%TO.N,unconnected-(MCU1-GPIO36-PadJ3_12)*%
X195707000Y-101600000D03*
%TO.P,MCU1,J3_13,GPIO35*%
%TO.N,unconnected-(MCU1-GPIO35-PadJ3_13)*%
X195707000Y-104140000D03*
%TO.P,MCU1,J3_14,GPIO0*%
%TO.N,unconnected-(MCU1-GPIO0-PadJ3_14)*%
X195707000Y-106680000D03*
%TO.P,MCU1,J3_15,GPIO45*%
%TO.N,unconnected-(MCU1-GPIO45-PadJ3_15)*%
X195707000Y-109220000D03*
%TO.P,MCU1,J3_16,GPIO48*%
%TO.N,unconnected-(MCU1-GPIO48-PadJ3_16)*%
X195707000Y-111760000D03*
%TO.P,MCU1,J3_17,GPIO47*%
%TO.N,unconnected-(MCU1-GPIO47-PadJ3_17)*%
X195707000Y-114300000D03*
%TO.P,MCU1,J3_18,GPIO21*%
%TO.N,unconnected-(MCU1-GPIO21-PadJ3_18)*%
X195707000Y-116840000D03*
%TO.P,MCU1,J3_19,USB_D+/GPIO20*%
%TO.N,unconnected-(MCU1-USB_D+{slash}GPIO20-PadJ3_19)*%
X195707000Y-119380000D03*
%TO.P,MCU1,J3_20,USB_D-/GPIO19*%
%TO.N,unconnected-(MCU1-USB_D-{slash}GPIO19-PadJ3_20)*%
X195707000Y-121920000D03*
%TO.P,MCU1,J3_21,GND__2*%
%TO.N,unconnected-(MCU1-GND__2-PadJ3_21)*%
X195707000Y-124460000D03*
%TO.P,MCU1,J3_22,GND__3*%
%TO.N,GND*%
X195707000Y-127000000D03*
%TD*%
D12*
%TO.P,U3,1*%
%TO.N,Treated Wave B*%
X151775000Y-95895000D03*
%TO.P,U3,2,-*%
X151775000Y-98435000D03*
%TO.P,U3,3,+*%
%TO.N,Wave B*%
X151775000Y-100975000D03*
%TO.P,U3,4,V-*%
%TO.N,GND*%
X151775000Y-103515000D03*
%TO.P,U3,5,+*%
%TO.N,Net-(U3B-+)*%
X159395000Y-103515000D03*
%TO.P,U3,6,-*%
%TO.N,Treated Wave AB*%
X159395000Y-100975000D03*
%TO.P,U3,7*%
X159395000Y-98435000D03*
%TO.P,U3,8,V+*%
%TO.N,Vin*%
X159395000Y-95895000D03*
%TD*%
D10*
%TO.P,DZ13,1,K*%
%TO.N,GND*%
X159512000Y-52695000D03*
%TO.P,DZ13,2,A*%
%TO.N,Treated Wave CA*%
X159512000Y-60315000D03*
%TD*%
D11*
%TO.P,R18,1*%
%TO.N,TC N-1*%
X102235000Y-60325000D03*
D12*
%TO.P,R18,2*%
%TO.N,TC A-2*%
X102235000Y-50165000D03*
%TD*%
D10*
%TO.P,DZ6,1,K*%
%TO.N,Current C*%
X177292000Y-60325000D03*
%TO.P,DZ6,2,A*%
%TO.N,Vcc*%
X177292000Y-52705000D03*
%TD*%
%TO.P,DZ18,1,K*%
%TO.N,Treated Wave B*%
X146812000Y-60325000D03*
%TO.P,DZ18,2,A*%
%TO.N,Vcc*%
X146812000Y-52705000D03*
%TD*%
%TO.P,DZ5,1,K*%
%TO.N,GND*%
X179832000Y-52695000D03*
%TO.P,DZ5,2,A*%
%TO.N,Current C*%
X179832000Y-60315000D03*
%TD*%
D18*
%TO.P,J6,1,Pin_1*%
%TO.N,TC A-2*%
X102235000Y-44450000D03*
D19*
%TO.P,J6,2,Pin_2*%
%TO.N,TC N-1*%
X97155000Y-44450000D03*
%TD*%
D13*
%TO.P,P1,1,Pin_1*%
%TO.N,UART RX*%
X202692000Y-78740000D03*
%TO.P,P1,2,Pin_2*%
%TO.N,UART TX*%
X202692000Y-76200000D03*
%TO.P,P1,3,Pin_3*%
%TO.N,GND*%
X202692000Y-73660000D03*
%TD*%
D11*
%TO.P,R1,1*%
%TO.N,Vcc*%
X140095000Y-132080000D03*
D12*
%TO.P,R1,2*%
%TO.N,Net-(U1A-+)*%
X140095000Y-121920000D03*
%TD*%
D20*
%TO.P,T1,1*%
%TO.N,Net-(R3-Pad1)*%
X128985000Y-67310000D03*
D21*
%TO.P,T1,2*%
%TO.N,Neutral*%
X128985000Y-80010000D03*
%TO.P,T1,3*%
%TO.N,Wave A*%
X138985000Y-80010000D03*
%TO.P,T1,4*%
%TO.N,TC A-2*%
X138985000Y-67310000D03*
%TD*%
D11*
%TO.P,R11,1*%
%TO.N,Treated Wave B*%
X163830000Y-93345000D03*
D12*
%TO.P,R11,2*%
%TO.N,Net-(U3B-+)*%
X163830000Y-103505000D03*
%TD*%
%TO.P,U1,1*%
%TO.N,TC A-2*%
X135245000Y-121930000D03*
%TO.P,U1,2,-*%
X132705000Y-121930000D03*
%TO.P,U1,3,+*%
%TO.N,Net-(U1A-+)*%
X130165000Y-121930000D03*
%TO.P,U1,4,V-*%
%TO.N,GND*%
X127625000Y-121930000D03*
%TO.P,U1,5*%
%TO.N,N/C*%
X127625000Y-129550000D03*
%TO.P,U1,6*%
X130165000Y-129550000D03*
%TO.P,U1,7*%
X132705000Y-129550000D03*
%TO.P,U1,8,V+*%
%TO.N,Vin*%
X135245000Y-129550000D03*
%TD*%
D10*
%TO.P,DZ11,1,K*%
%TO.N,GND*%
X164592000Y-52700000D03*
%TO.P,DZ11,2,A*%
%TO.N,Treated Wave AB*%
X164592000Y-60320000D03*
%TD*%
D13*
%TO.P,SW1,1,A*%
%TO.N,Vin*%
X106045000Y-129540000D03*
%TO.P,SW1,2,B*%
%TO.N,Power*%
X106045000Y-132080000D03*
%TO.P,SW1,3,C*%
%TO.N,unconnected-(SW1A-C-Pad3)*%
X106045000Y-134620000D03*
%TD*%
D11*
%TO.P,R13,1*%
%TO.N,Treated Wave C*%
X163830000Y-111125000D03*
D12*
%TO.P,R13,2*%
%TO.N,Net-(U4B-+)*%
X163830000Y-121285000D03*
%TD*%
D20*
%TO.P,T3,1*%
%TO.N,Net-(R5-Pad1)*%
X128985000Y-102870000D03*
D21*
%TO.P,T3,2*%
%TO.N,Neutral*%
X128985000Y-115570000D03*
%TO.P,T3,3*%
%TO.N,Wave C*%
X138985000Y-115570000D03*
%TO.P,T3,4*%
%TO.N,TC A-2*%
X138985000Y-102870000D03*
%TD*%
D11*
%TO.P,R6,1*%
%TO.N,Wave A*%
X146685000Y-77470000D03*
D12*
%TO.P,R6,2*%
%TO.N,TC A-2*%
X146685000Y-67310000D03*
%TD*%
D10*
%TO.P,DZ3,1,K*%
%TO.N,GND*%
X184912000Y-52700000D03*
%TO.P,DZ3,2,A*%
%TO.N,Current B*%
X184912000Y-60320000D03*
%TD*%
D11*
%TO.P,R10,1*%
%TO.N,Treated Wave C*%
X167132000Y-75565000D03*
D12*
%TO.P,R10,2*%
%TO.N,Net-(U2B-+)*%
X167132000Y-85725000D03*
%TD*%
D10*
%TO.P,DZ16,1,K*%
%TO.N,Treated Wave C*%
X151892000Y-60320000D03*
%TO.P,DZ16,2,A*%
%TO.N,Vcc*%
X151892000Y-52700000D03*
%TD*%
%TO.P,DZ15,1,K*%
%TO.N,GND*%
X154432000Y-52695000D03*
%TO.P,DZ15,2,A*%
%TO.N,Treated Wave C*%
X154432000Y-60315000D03*
%TD*%
D11*
%TO.P,R3,1*%
%TO.N,Net-(R3-Pad1)*%
X118745000Y-67310000D03*
D12*
%TO.P,R3,2*%
%TO.N,Line A*%
X108585000Y-67310000D03*
%TD*%
D11*
%TO.P,R12,1*%
%TO.N,Treated Wave A*%
X167132000Y-93345000D03*
D12*
%TO.P,R12,2*%
%TO.N,Net-(U3B-+)*%
X167132000Y-103505000D03*
%TD*%
D10*
%TO.P,DZ12,1,K*%
%TO.N,Treated Wave AB*%
X162052000Y-60325000D03*
%TO.P,DZ12,2,A*%
%TO.N,Vcc*%
X162052000Y-52705000D03*
%TD*%
D12*
%TO.P,C2,1*%
%TO.N,Vcc*%
X126905000Y-135890000D03*
D11*
%TO.P,C2,2*%
%TO.N,GND*%
X128905000Y-135890000D03*
%TD*%
D18*
%TO.P,J3,1,Pin_1*%
%TO.N,TC A-2*%
X132715000Y-44450000D03*
D19*
%TO.P,J3,2,Pin_2*%
%TO.N,TC A-1*%
X127635000Y-44450000D03*
%TD*%
D11*
%TO.P,R14,1*%
%TO.N,Treated Wave B*%
X167132000Y-111125000D03*
D12*
%TO.P,R14,2*%
%TO.N,Net-(U4B-+)*%
X167132000Y-121285000D03*
%TD*%
D18*
%TO.P,J1,1,Pin_1*%
%TO.N,Line A*%
X99695000Y-67310000D03*
D19*
%TO.P,J1,2,Pin_2*%
%TO.N,Line B*%
X99695000Y-72390000D03*
%TD*%
D13*
%TO.P,P4,1,Pin_1*%
%TO.N,Treated Wave A*%
X202692000Y-63500000D03*
%TO.P,P4,2,Pin_2*%
%TO.N,Treated Wave B*%
X202692000Y-60960000D03*
%TO.P,P4,3,Pin_3*%
%TO.N,Treated Wave C*%
X202692000Y-58420000D03*
%TO.P,P4,4,Pin_4*%
%TO.N,Treated Wave CA*%
X202692000Y-55880000D03*
%TO.P,P4,5,Pin_5*%
%TO.N,Treated Wave AB*%
X202692000Y-53340000D03*
%TO.P,P4,6,Pin_6*%
%TO.N,Treated Wave BC*%
X202692000Y-50800000D03*
%TD*%
D10*
%TO.P,DZ9,1,K*%
%TO.N,GND*%
X169672000Y-52695000D03*
%TO.P,DZ9,2,A*%
%TO.N,Treated Wave BC*%
X169672000Y-60315000D03*
%TD*%
%TO.P,DZ7,1,K*%
%TO.N,GND*%
X174752000Y-52700000D03*
%TO.P,DZ7,2,A*%
%TO.N,Current N*%
X174752000Y-60320000D03*
%TD*%
D20*
%TO.P,T2,1*%
%TO.N,Net-(R4-Pad1)*%
X128985000Y-85090000D03*
D21*
%TO.P,T2,2*%
%TO.N,Neutral*%
X128985000Y-97790000D03*
%TO.P,T2,3*%
%TO.N,Wave B*%
X138985000Y-97790000D03*
%TO.P,T2,4*%
%TO.N,TC A-2*%
X138985000Y-85090000D03*
%TD*%
D18*
%TO.P,J5,1,Pin_1*%
%TO.N,TC A-2*%
X112395000Y-44450000D03*
D19*
%TO.P,J5,2,Pin_2*%
%TO.N,TC C-1*%
X107315000Y-44450000D03*
%TD*%
D10*
%TO.P,DZ20,1,K*%
%TO.N,Treated Wave A*%
X141732000Y-60320000D03*
%TO.P,DZ20,2,A*%
%TO.N,Vcc*%
X141732000Y-52700000D03*
%TD*%
D13*
%TO.P,P5,1,Pin_1*%
%TO.N,GND*%
X202692000Y-93980000D03*
%TO.P,P5,2,Pin_2*%
%TO.N,Vcc*%
X202692000Y-96520000D03*
%TO.P,P5,3,Pin_3*%
%TO.N,MISO*%
X202692000Y-99060000D03*
%TO.P,P5,4,Pin_4*%
%TO.N,MOSI*%
X202692000Y-101600000D03*
%TO.P,P5,5,Pin_5*%
%TO.N,SCK*%
X202692000Y-104140000D03*
%TO.P,P5,6,Pin_6*%
%TO.N,CS*%
X202692000Y-106680000D03*
%TD*%
D10*
%TO.P,DZ4,1,K*%
%TO.N,Current B*%
X182372000Y-60325000D03*
%TO.P,DZ4,2,A*%
%TO.N,Vcc*%
X182372000Y-52705000D03*
%TD*%
D11*
%TO.P,R17,1*%
%TO.N,TC A-1*%
X132715000Y-60325000D03*
D12*
%TO.P,R17,2*%
%TO.N,TC A-2*%
X132715000Y-50165000D03*
%TD*%
D13*
%TO.P,P3,1,Pin_1*%
%TO.N,Current A*%
X191272000Y-45085000D03*
%TO.P,P3,2,Pin_2*%
%TO.N,Current B*%
X193812000Y-45085000D03*
%TO.P,P3,3,Pin_3*%
%TO.N,Current C*%
X196352000Y-45085000D03*
%TO.P,P3,4,Pin_4*%
%TO.N,Current N*%
X198892000Y-45085000D03*
%TD*%
D10*
%TO.P,DZ1,1,K*%
%TO.N,GND*%
X189992000Y-52700000D03*
%TO.P,DZ1,2,A*%
%TO.N,Current A*%
X189992000Y-60320000D03*
%TD*%
D12*
%TO.P,U6,1*%
%TO.N,Current A*%
X170297000Y-39380000D03*
%TO.P,U6,2,-*%
X167757000Y-39380000D03*
%TO.P,U6,3,+*%
%TO.N,TC A-1*%
X165217000Y-39380000D03*
%TO.P,U6,4,V-*%
%TO.N,GND*%
X162677000Y-39380000D03*
%TO.P,U6,5,+*%
%TO.N,TC N-1*%
X162677000Y-47000000D03*
%TO.P,U6,6,-*%
%TO.N,Current N*%
X165217000Y-47000000D03*
%TO.P,U6,7*%
X167757000Y-47000000D03*
%TO.P,U6,8,V+*%
%TO.N,Vin*%
X170297000Y-47000000D03*
%TD*%
%TO.P,C1,1*%
%TO.N,Power*%
X97195000Y-132080000D03*
D11*
%TO.P,C1,2*%
%TO.N,GND*%
X99695000Y-132080000D03*
%TD*%
%TO.P,R8,1*%
%TO.N,Wave C*%
X146685000Y-113030000D03*
D12*
%TO.P,R8,2*%
%TO.N,TC A-2*%
X146685000Y-102870000D03*
%TD*%
D18*
%TO.P,J2,1,Pin_1*%
%TO.N,Line C*%
X99695000Y-77470000D03*
D19*
%TO.P,J2,2,Pin_2*%
%TO.N,Neutral*%
X99695000Y-82550000D03*
%TD*%
D13*
%TO.P,P2,1,Pin_1*%
%TO.N,TC A-2*%
X202692000Y-68580000D03*
%TD*%
D22*
%TO.P,PS2,1,GND*%
%TO.N,GND*%
X114935000Y-135890000D03*
%TO.P,PS2,2,VO*%
%TO.N,Vcc*%
X117475000Y-135890000D03*
%TO.P,PS2,3,VI*%
%TO.N,Vin*%
X120015000Y-135890000D03*
%TD*%
D10*
%TO.P,DZ8,1,K*%
%TO.N,Current N*%
X172212000Y-60325000D03*
%TO.P,DZ8,2,A*%
%TO.N,Vcc*%
X172212000Y-52705000D03*
%TD*%
%TO.P,DZ10,1,K*%
%TO.N,Treated Wave BC*%
X167132000Y-60325000D03*
%TO.P,DZ10,2,A*%
%TO.N,Vcc*%
X167132000Y-52705000D03*
%TD*%
D11*
%TO.P,R4,1*%
%TO.N,Net-(R4-Pad1)*%
X118745000Y-72390000D03*
D12*
%TO.P,R4,2*%
%TO.N,Line B*%
X108585000Y-72390000D03*
%TD*%
D11*
%TO.P,R5,1*%
%TO.N,Net-(R5-Pad1)*%
X118745000Y-77470000D03*
D12*
%TO.P,R5,2*%
%TO.N,Line C*%
X108585000Y-77470000D03*
%TD*%
%TO.P,U2,1*%
%TO.N,Treated Wave A*%
X151765000Y-78105000D03*
%TO.P,U2,2,-*%
X151765000Y-80645000D03*
%TO.P,U2,3,+*%
%TO.N,Wave A*%
X151765000Y-83185000D03*
%TO.P,U2,4,V-*%
%TO.N,GND*%
X151765000Y-85725000D03*
%TO.P,U2,5,+*%
%TO.N,Net-(U2B-+)*%
X159385000Y-85725000D03*
%TO.P,U2,6,-*%
%TO.N,Treated Wave CA*%
X159385000Y-83185000D03*
%TO.P,U2,7*%
X159385000Y-80645000D03*
%TO.P,U2,8,V+*%
%TO.N,Vin*%
X159385000Y-78105000D03*
%TD*%
D11*
%TO.P,R2,1*%
%TO.N,Net-(U1A-+)*%
X144145000Y-121920000D03*
D12*
%TO.P,R2,2*%
%TO.N,GND*%
X144145000Y-132080000D03*
%TD*%
D18*
%TO.P,J4,1,Pin_1*%
%TO.N,TC A-2*%
X122555000Y-44450000D03*
D19*
%TO.P,J4,2,Pin_2*%
%TO.N,TC B-1*%
X117475000Y-44450000D03*
%TD*%
D12*
%TO.P,U5,1*%
%TO.N,Current B*%
X153152000Y-39380000D03*
%TO.P,U5,2,-*%
X150612000Y-39380000D03*
%TO.P,U5,3,+*%
%TO.N,TC B-1*%
X148072000Y-39380000D03*
%TO.P,U5,4,V-*%
%TO.N,GND*%
X145532000Y-39380000D03*
%TO.P,U5,5,+*%
%TO.N,TC C-1*%
X145532000Y-47000000D03*
%TO.P,U5,6,-*%
%TO.N,Current C*%
X148072000Y-47000000D03*
%TO.P,U5,7*%
X150612000Y-47000000D03*
%TO.P,U5,8,V+*%
%TO.N,Vin*%
X153152000Y-47000000D03*
%TD*%
D10*
%TO.P,DZ19,1,K*%
%TO.N,GND*%
X144272000Y-52695000D03*
%TO.P,DZ19,2,A*%
%TO.N,Treated Wave A*%
X144272000Y-60315000D03*
%TD*%
D23*
%TO.N,Treated Wave A*%
X170815000Y-85090000D03*
X183647000Y-67305000D03*
X170815000Y-87630000D03*
%TO.N,Treated Wave B*%
X184023000Y-66665000D03*
%TO.N,Treated Wave C*%
X184404000Y-66030000D03*
%TO.N,Treated Wave CA*%
X184785000Y-65395000D03*
X170180000Y-82550000D03*
X170180000Y-85090000D03*
%TO.N,Treated Wave AB*%
X168275000Y-101600000D03*
X185166000Y-64760000D03*
%TO.N,Treated Wave BC*%
X185547000Y-64125000D03*
D24*
%TO.N,Vcc*%
X191643000Y-70104000D03*
X191643000Y-51425000D03*
%TO.N,GND*%
X149225000Y-68707000D03*
D23*
%TO.N,Current A*%
X189992000Y-61595000D03*
%TO.N,Current B*%
X186690000Y-62220000D03*
%TO.N,Current C*%
X189992000Y-42545000D03*
X186309000Y-62855000D03*
%TO.N,Current N*%
X189992000Y-41910000D03*
X185928000Y-63490000D03*
%TO.N,CS*%
X182372000Y-91440000D03*
%TO.N,MOSI*%
X183642000Y-93980000D03*
%TO.N,SCK*%
X183007000Y-96520000D03*
%TO.N,MISO*%
X184277000Y-99060000D03*
%TD*%
D25*
%TO.N,GND*%
X172847000Y-133477000D02*
X172847000Y-127000000D01*
X170434000Y-135890000D02*
X172847000Y-133477000D01*
X128905000Y-135890000D02*
X170434000Y-135890000D01*
D26*
%TO.N,Treated Wave A*%
X163830000Y-75565000D02*
X163830000Y-80010000D01*
X183647000Y-67305000D02*
X183642000Y-67300000D01*
X183642000Y-67300000D02*
X149977000Y-67300000D01*
X151765000Y-80645000D02*
X151765000Y-78105000D01*
X153030000Y-75565000D02*
X151765000Y-76830000D01*
X149977000Y-67300000D02*
X144272000Y-61595000D01*
X165100000Y-81280000D02*
X172847000Y-81280000D01*
X184277000Y-80645000D02*
X183642000Y-81280000D01*
X170815000Y-85090000D02*
X170815000Y-87630000D01*
X183647000Y-67305000D02*
X184277000Y-67935000D01*
X163830000Y-80010000D02*
X165100000Y-81280000D01*
X184277000Y-67935000D02*
X184277000Y-80645000D01*
X183642000Y-81280000D02*
X172847000Y-81280000D01*
X163830000Y-75565000D02*
X153030000Y-75565000D01*
X151765000Y-76830000D02*
X151765000Y-78105000D01*
X144272000Y-61595000D02*
X144272000Y-60315000D01*
%TO.N,Treated Wave B*%
X163830000Y-93345000D02*
X152918000Y-93345000D01*
X152918000Y-93345000D02*
X151775000Y-94488000D01*
X169545000Y-107315000D02*
X167132000Y-109728000D01*
X167132000Y-109728000D02*
X167132000Y-111125000D01*
X181667685Y-83820000D02*
X184912000Y-80575685D01*
X170180000Y-83820000D02*
X172847000Y-83820000D01*
X164465000Y-95885000D02*
X168275000Y-95885000D01*
X184912000Y-67554000D02*
X184023000Y-66665000D01*
X172847000Y-83820000D02*
X181667685Y-83820000D01*
X149352000Y-61595000D02*
X149352000Y-60315000D01*
X164465000Y-91440000D02*
X168275000Y-91440000D01*
X163830000Y-93345000D02*
X163830000Y-92075000D01*
X169545000Y-90170000D02*
X169545000Y-84455000D01*
X151775000Y-98435000D02*
X151775000Y-95895000D01*
X168275000Y-95885000D02*
X169545000Y-97155000D01*
X169545000Y-84455000D02*
X170180000Y-83820000D01*
X163830000Y-92075000D02*
X164465000Y-91440000D01*
X163830000Y-95250000D02*
X164465000Y-95885000D01*
X163830000Y-93345000D02*
X163830000Y-95250000D01*
X184912000Y-80575685D02*
X184912000Y-67554000D01*
X168275000Y-91440000D02*
X169545000Y-90170000D01*
X154422000Y-66665000D02*
X149352000Y-61595000D01*
X151775000Y-94488000D02*
X151775000Y-95895000D01*
X184023000Y-66665000D02*
X154422000Y-66665000D01*
X169545000Y-97155000D02*
X169545000Y-107315000D01*
%TO.N,Treated Wave C*%
X163830000Y-111125000D02*
X153035000Y-111125000D01*
X151775000Y-112385000D02*
X151775000Y-113675000D01*
X158867000Y-66030000D02*
X154432000Y-61595000D01*
X172847000Y-86360000D02*
X182302685Y-86360000D01*
X184404000Y-66030000D02*
X158867000Y-66030000D01*
X182302685Y-86360000D02*
X185547000Y-83115685D01*
X185547000Y-67173000D02*
X184404000Y-66030000D01*
X153035000Y-111125000D02*
X151775000Y-112385000D01*
X154432000Y-61595000D02*
X154432000Y-60315000D01*
X185547000Y-83115685D02*
X185547000Y-67173000D01*
X151775000Y-113675000D02*
X151775000Y-116215000D01*
%TO.N,Treated Wave CA*%
X185547000Y-88900000D02*
X186182000Y-88265000D01*
X163312000Y-65395000D02*
X159512000Y-61595000D01*
X159385000Y-80645000D02*
X159385000Y-83185000D01*
X162560000Y-82550000D02*
X170180000Y-82550000D01*
X160655000Y-80645000D02*
X162560000Y-82550000D01*
X172847000Y-88900000D02*
X185547000Y-88900000D01*
X159385000Y-80645000D02*
X160655000Y-80645000D01*
X170180000Y-85090000D02*
X170180000Y-88265000D01*
X184785000Y-65395000D02*
X163312000Y-65395000D01*
X170180000Y-88265000D02*
X170815000Y-88900000D01*
X186182000Y-88265000D02*
X186182000Y-66792000D01*
X159512000Y-61595000D02*
X159512000Y-60315000D01*
X170815000Y-88900000D02*
X172847000Y-88900000D01*
X186182000Y-66792000D02*
X184785000Y-65395000D01*
%TO.N,Treated Wave AB*%
X159395000Y-98435000D02*
X159395000Y-100975000D01*
X186817000Y-66411000D02*
X185166000Y-64760000D01*
X186817000Y-100965000D02*
X186817000Y-66411000D01*
X165110000Y-98435000D02*
X159395000Y-98435000D01*
X185166000Y-64760000D02*
X167757000Y-64760000D01*
X167757000Y-64760000D02*
X164592000Y-61595000D01*
X186182000Y-101600000D02*
X186817000Y-100965000D01*
X164592000Y-61595000D02*
X164592000Y-60320000D01*
X168275000Y-101600000D02*
X165110000Y-98435000D01*
X172847000Y-101600000D02*
X186182000Y-101600000D01*
%TO.N,Treated Wave BC*%
X186817000Y-109220000D02*
X187452000Y-108585000D01*
X170180000Y-109855000D02*
X170815000Y-109220000D01*
X170815000Y-109220000D02*
X172847000Y-109220000D01*
X159395000Y-116215000D02*
X168900000Y-116215000D01*
X172847000Y-109220000D02*
X186817000Y-109220000D01*
X159395000Y-116215000D02*
X159395000Y-118755000D01*
X187452000Y-66030000D02*
X185547000Y-64125000D01*
X172202000Y-64125000D02*
X169672000Y-61595000D01*
X170180000Y-114935000D02*
X170180000Y-109855000D01*
X168900000Y-116215000D02*
X170180000Y-114935000D01*
X187452000Y-108585000D02*
X187452000Y-66030000D01*
X185547000Y-64125000D02*
X172202000Y-64125000D01*
X169672000Y-61595000D02*
X169672000Y-60315000D01*
D25*
%TO.N,Line B*%
X99695000Y-72390000D02*
X108585000Y-72390000D01*
%TO.N,Line A*%
X99695000Y-67310000D02*
X108585000Y-67310000D01*
%TO.N,Neutral*%
X120015000Y-82550000D02*
X122555000Y-80010000D01*
X122555000Y-80010000D02*
X128985000Y-80010000D01*
X120015000Y-95250000D02*
X120015000Y-113030000D01*
X99695000Y-82550000D02*
X120015000Y-82550000D01*
X122555000Y-115570000D02*
X128985000Y-115570000D01*
X120015000Y-95250000D02*
X122555000Y-97790000D01*
X120015000Y-82550000D02*
X120015000Y-95250000D01*
X120015000Y-113030000D02*
X122555000Y-115570000D01*
X122555000Y-97790000D02*
X128985000Y-97790000D01*
%TO.N,Line C*%
X99695000Y-77470000D02*
X108585000Y-77470000D01*
%TO.N,Vcc*%
X125095000Y-132080000D02*
X126905000Y-133890000D01*
X117475000Y-133350000D02*
X118745000Y-132080000D01*
X118745000Y-132080000D02*
X125095000Y-132080000D01*
X117475000Y-135890000D02*
X117475000Y-133350000D01*
X125095000Y-132080000D02*
X140095000Y-132080000D01*
X191643000Y-70104000D02*
X191643000Y-51425000D01*
X126905000Y-133890000D02*
X126905000Y-135890000D01*
%TO.N,GND*%
X123825000Y-119380000D02*
X126365000Y-119380000D01*
X204851000Y-88011000D02*
X203962000Y-88900000D01*
X154432000Y-51435000D02*
X154432000Y-52695000D01*
X170942000Y-50165000D02*
X169672000Y-51435000D01*
X127635000Y-138430000D02*
X116205000Y-138430000D01*
X151765000Y-85725000D02*
X150485000Y-85725000D01*
X165862000Y-50165000D02*
X164592000Y-51435000D01*
X146685000Y-130810000D02*
X146685000Y-120650000D01*
X186182000Y-50165000D02*
X184912000Y-51435000D01*
X174752000Y-51435000D02*
X174752000Y-52700000D01*
X145415000Y-132080000D02*
X146685000Y-130810000D01*
X149352000Y-51435000D02*
X150622000Y-50165000D01*
X159512000Y-51435000D02*
X159512000Y-52695000D01*
X164592000Y-51435000D02*
X164592000Y-52700000D01*
X144145000Y-132080000D02*
X145415000Y-132080000D01*
X149225000Y-104775000D02*
X150485000Y-103515000D01*
X126365000Y-119380000D02*
X127625000Y-120640000D01*
X149225000Y-86985000D02*
X150485000Y-85725000D01*
X149225000Y-68707000D02*
X149225000Y-86985000D01*
X202692000Y-93980000D02*
X200787000Y-93980000D01*
X145415000Y-119380000D02*
X149225000Y-115570000D01*
X160782000Y-50165000D02*
X159512000Y-51435000D01*
X181102000Y-50165000D02*
X176022000Y-50165000D01*
X192532000Y-72390000D02*
X192532000Y-50800000D01*
X191897000Y-50165000D02*
X191262000Y-50165000D01*
X145542000Y-50165000D02*
X144272000Y-51435000D01*
X128905000Y-135890000D02*
X128905000Y-137160000D01*
X176022000Y-50165000D02*
X174752000Y-51435000D01*
X150485000Y-103515000D02*
X151775000Y-103515000D01*
X179832000Y-51435000D02*
X179832000Y-52695000D01*
X200787000Y-93980000D02*
X197612000Y-97155000D01*
X149352000Y-52695000D02*
X149352000Y-51435000D01*
X195707000Y-73660000D02*
X193802000Y-73660000D01*
X169672000Y-51435000D02*
X169672000Y-52695000D01*
X197612000Y-99695000D02*
X197612000Y-126365000D01*
X155702000Y-50165000D02*
X150622000Y-50165000D01*
X195707000Y-73660000D02*
X202057000Y-73660000D01*
X126365000Y-119380000D02*
X145415000Y-119380000D01*
X115855000Y-131188750D02*
X115855000Y-123770000D01*
X197612000Y-126365000D02*
X196977000Y-127000000D01*
X146685000Y-120650000D02*
X145415000Y-119380000D01*
X186182000Y-50165000D02*
X181102000Y-50165000D01*
X155702000Y-50165000D02*
X154432000Y-51435000D01*
X192532000Y-50800000D02*
X191897000Y-50165000D01*
X170942000Y-50165000D02*
X165862000Y-50165000D01*
X150622000Y-50165000D02*
X145542000Y-50165000D01*
X181102000Y-50165000D02*
X179832000Y-51435000D01*
X191262000Y-50165000D02*
X186182000Y-50165000D01*
X115855000Y-123770000D02*
X119435000Y-123770000D01*
X115855000Y-123770000D02*
X102925000Y-123770000D01*
X196977000Y-127000000D02*
X195707000Y-127000000D01*
X144272000Y-51435000D02*
X144272000Y-52695000D01*
X114935000Y-132108750D02*
X115855000Y-131188750D01*
X116205000Y-138430000D02*
X114935000Y-137160000D01*
X119435000Y-123770000D02*
X123825000Y-119380000D01*
X102925000Y-123770000D02*
X99695000Y-127000000D01*
X197612000Y-97155000D02*
X197612000Y-99695000D01*
X203962000Y-88900000D02*
X202692000Y-88900000D01*
X114935000Y-137160000D02*
X114935000Y-135890000D01*
X114935000Y-135890000D02*
X114935000Y-132108750D01*
X189992000Y-51435000D02*
X189992000Y-52700000D01*
X197612000Y-92710000D02*
X197612000Y-99695000D01*
X128905000Y-137160000D02*
X127635000Y-138430000D01*
X202692000Y-88900000D02*
X201422000Y-88900000D01*
X191262000Y-50165000D02*
X189992000Y-51435000D01*
X151775000Y-121295000D02*
X147330000Y-121295000D01*
X202692000Y-73660000D02*
X204216000Y-73660000D01*
X127625000Y-120640000D02*
X127625000Y-121930000D01*
X184912000Y-51435000D02*
X184912000Y-52700000D01*
X201422000Y-88900000D02*
X197612000Y-92710000D01*
X204851000Y-74295000D02*
X204851000Y-88011000D01*
X99695000Y-127000000D02*
X99695000Y-132080000D01*
X160782000Y-50165000D02*
X155702000Y-50165000D01*
X147330000Y-121295000D02*
X146685000Y-120650000D01*
X204216000Y-73660000D02*
X204851000Y-74295000D01*
X165862000Y-50165000D02*
X160782000Y-50165000D01*
X149225000Y-115570000D02*
X149225000Y-86985000D01*
X176022000Y-50165000D02*
X170942000Y-50165000D01*
X193802000Y-73660000D02*
X192532000Y-72390000D01*
D26*
%TO.N,Current A*%
X189357000Y-121920000D02*
X189992000Y-121285000D01*
X189977800Y-60334200D02*
X189992000Y-60320000D01*
X189992000Y-121290000D02*
X189992000Y-60320000D01*
X172847000Y-121920000D02*
X189357000Y-121920000D01*
X167757000Y-39380000D02*
X170297000Y-39380000D01*
%TO.N,Current B*%
X188722000Y-119380000D02*
X172847000Y-119380000D01*
X184912000Y-60320000D02*
X184912000Y-61472200D01*
X189357000Y-118745000D02*
X188722000Y-119380000D01*
X185659800Y-62220000D02*
X186690000Y-62220000D01*
X186690000Y-62220000D02*
X189357000Y-64887000D01*
X150612000Y-39380000D02*
X153152000Y-39380000D01*
X184912000Y-61472200D02*
X185659800Y-62220000D01*
X189357000Y-64887000D02*
X189357000Y-118745000D01*
%TO.N,Current C*%
X186309000Y-62855000D02*
X181092000Y-62855000D01*
X172847000Y-116840000D02*
X188087000Y-116840000D01*
X196352000Y-43190000D02*
X196352000Y-45085000D01*
X188087000Y-116840000D02*
X188722000Y-116205000D01*
X188722000Y-65268000D02*
X186309000Y-62855000D01*
X188722000Y-116205000D02*
X188722000Y-65268000D01*
X179832000Y-61595000D02*
X179832000Y-60315000D01*
X181092000Y-62855000D02*
X179832000Y-61595000D01*
X189992000Y-42545000D02*
X195707000Y-42545000D01*
X195707000Y-42545000D02*
X196352000Y-43190000D01*
X148072000Y-47000000D02*
X150612000Y-47000000D01*
%TO.N,Current N*%
X189992000Y-41910000D02*
X198247000Y-41910000D01*
X187452000Y-114300000D02*
X188087000Y-113665000D01*
X198247000Y-41910000D02*
X198892000Y-42555000D01*
X172847000Y-114300000D02*
X187452000Y-114300000D01*
X174752000Y-61595000D02*
X174752000Y-60320000D01*
X176647000Y-63490000D02*
X174752000Y-61595000D01*
X185928000Y-63490000D02*
X176647000Y-63490000D01*
X198892000Y-42555000D02*
X198892000Y-45085000D01*
X188087000Y-65649000D02*
X185928000Y-63490000D01*
X188087000Y-113665000D02*
X188087000Y-65649000D01*
X165217000Y-47000000D02*
X167757000Y-47000000D01*
%TO.N,TC A-2*%
X112395000Y-44450000D02*
X112395000Y-50165000D01*
X122555000Y-44450000D02*
X122555000Y-50165000D01*
X102235000Y-44450000D02*
X102235000Y-50165000D01*
X132715000Y-44450000D02*
X132715000Y-50165000D01*
X135245000Y-121930000D02*
X132705000Y-121930000D01*
%TO.N,TC A-1*%
X132715000Y-60960000D02*
X132715000Y-60325000D01*
X165217000Y-39380000D02*
X165217000Y-37475000D01*
X135255000Y-61595000D02*
X133350000Y-61595000D01*
X135890000Y-60960000D02*
X135255000Y-61595000D01*
X165217000Y-37475000D02*
X164572000Y-36830000D01*
X128905000Y-60325000D02*
X132715000Y-60325000D01*
X164572000Y-36830000D02*
X136525000Y-36830000D01*
X127635000Y-59055000D02*
X128905000Y-60325000D01*
X127635000Y-44450000D02*
X127635000Y-59055000D01*
X136525000Y-36830000D02*
X135890000Y-37465000D01*
X135890000Y-37465000D02*
X135890000Y-60960000D01*
X133350000Y-61595000D02*
X132715000Y-60960000D01*
%TO.N,TC B-1*%
X117475000Y-59055000D02*
X118745000Y-60325000D01*
X148072000Y-38110000D02*
X147427000Y-37465000D01*
X117475000Y-44450000D02*
X117475000Y-59055000D01*
X147427000Y-37465000D02*
X137160000Y-37465000D01*
X122555000Y-61595000D02*
X122555000Y-60325000D01*
X136525000Y-38100000D02*
X136525000Y-61595000D01*
X123190000Y-62230000D02*
X122555000Y-61595000D01*
X137160000Y-37465000D02*
X136525000Y-38100000D01*
X136525000Y-61595000D02*
X135890000Y-62230000D01*
X118745000Y-60325000D02*
X122555000Y-60325000D01*
X135890000Y-62230000D02*
X123190000Y-62230000D01*
X148072000Y-39380000D02*
X148072000Y-38110000D01*
%TO.N,TC C-1*%
X137160000Y-49540000D02*
X137795000Y-48905000D01*
X144897000Y-48905000D02*
X145532000Y-48270000D01*
X112395000Y-60325000D02*
X112395000Y-62230000D01*
X108585000Y-60325000D02*
X112395000Y-60325000D01*
X113030000Y-62865000D02*
X136525000Y-62865000D01*
X107315000Y-44450000D02*
X107315000Y-59055000D01*
X145532000Y-48270000D02*
X145532000Y-47000000D01*
X137795000Y-48905000D02*
X144897000Y-48905000D01*
X107315000Y-59055000D02*
X108585000Y-60325000D01*
X137160000Y-62230000D02*
X137160000Y-49540000D01*
X136525000Y-62865000D02*
X137160000Y-62230000D01*
X112395000Y-62230000D02*
X113030000Y-62865000D01*
%TO.N,TC N-1*%
X98425000Y-60325000D02*
X102235000Y-60325000D01*
X137795000Y-50185000D02*
X138440000Y-49540000D01*
X162042000Y-49540000D02*
X138440000Y-49540000D01*
X102235000Y-62865000D02*
X102870000Y-63500000D01*
X162677000Y-48905000D02*
X162042000Y-49540000D01*
X137795000Y-62865000D02*
X137795000Y-50185000D01*
X102870000Y-63500000D02*
X137160000Y-63500000D01*
X97155000Y-59055000D02*
X98425000Y-60325000D01*
X97155000Y-44450000D02*
X97155000Y-59055000D01*
X162677000Y-47000000D02*
X162677000Y-48905000D01*
X137160000Y-63500000D02*
X137795000Y-62865000D01*
X102235000Y-60325000D02*
X102235000Y-62865000D01*
D25*
%TO.N,Power*%
X97195000Y-124430000D02*
X97855000Y-123770000D01*
X97195000Y-132080000D02*
X97195000Y-124430000D01*
D26*
%TO.N,Net-(U1A-+)*%
X130165000Y-123190000D02*
X130165000Y-121930000D01*
X137555000Y-124460000D02*
X131435000Y-124460000D01*
X144145000Y-121920000D02*
X140095000Y-121920000D01*
X140095000Y-121920000D02*
X137555000Y-124460000D01*
X131435000Y-124460000D02*
X130165000Y-123190000D01*
%TO.N,CS*%
X172847000Y-91440000D02*
X182372000Y-91440000D01*
%TO.N,MOSI*%
X172847000Y-93980000D02*
X183642000Y-93980000D01*
%TO.N,SCK*%
X183007000Y-96520000D02*
X172847000Y-96520000D01*
%TO.N,MISO*%
X172847000Y-99060000D02*
X184277000Y-99060000D01*
%TO.N,Net-(U2B-+)*%
X159385000Y-85725000D02*
X163830000Y-85725000D01*
X163830000Y-85725000D02*
X167132000Y-85725000D01*
%TO.N,System Type*%
X195707000Y-81280000D02*
X198247000Y-81280000D01*
X198247000Y-81280000D02*
X199517000Y-82550000D01*
X199517000Y-85725000D02*
X200152000Y-86360000D01*
X199517000Y-82550000D02*
X199517000Y-85725000D01*
X200152000Y-86360000D02*
X202692000Y-86360000D01*
%TO.N,UART TX*%
X195707000Y-76200000D02*
X202692000Y-76200000D01*
%TO.N,UART RX*%
X195707000Y-78740000D02*
X202692000Y-78740000D01*
%TO.N,Net-(U3B-+)*%
X163820000Y-103515000D02*
X163830000Y-103505000D01*
X159395000Y-103515000D02*
X163820000Y-103515000D01*
X163830000Y-103505000D02*
X167132000Y-103505000D01*
%TO.N,Net-(U4B-+)*%
X163820000Y-121295000D02*
X163830000Y-121285000D01*
X163830000Y-121285000D02*
X167132000Y-121285000D01*
X159395000Y-121295000D02*
X163820000Y-121295000D01*
%TD*%
M02*
