M48
; DRILL file {KiCad 7.0.10} date Sat May  4 10:11:25 2024
; FORMAT={-:-/ absolute / metric / decimal}
; #@! TF.CreationDate,2024-05-04T10:11:25-03:00
; #@! TF.GenerationSoftware,Kicad,Pcbnew,7.0.10
; #@! TF.FileFunction,Plated,1,2,PTH
FMAT,2
METRIC
; #@! TA.AperFunction,Plated,PTH,ViaDrill
T1C0.250
; #@! TA.AperFunction,Plated,PTH,ViaDrill
T2C0.300
; #@! TA.AperFunction,Plated,PTH,ComponentDrill
T3C0.750
; #@! TA.AperFunction,Plated,PTH,ComponentDrill
T4C0.800
; #@! TA.AperFunction,Plated,PTH,ComponentDrill
T5C1.000
; #@! TA.AperFunction,Plated,PTH,ComponentDrill
T6C1.020
; #@! TA.AperFunction,Plated,PTH,ComponentDrill
T7C1.100
; #@! TA.AperFunction,Plated,PTH,ComponentDrill
T8C1.520
%
G90
G05
T1
X191.643Y-70.104
T2
X149.225Y-68.707
X179.705Y-67.3
X180.975Y-66.665
X181.61Y-83.82
X181.61Y-88.9
X182.245Y-66.03
X182.372Y-91.44
X182.88Y-64.125
X183.007Y-96.52
X183.515Y-65.395
X183.642Y-93.98
X184.15Y-63.49
X184.277Y-99.06
X184.785Y-64.76
X185.42Y-62.855
X186.055Y-83.82
X186.69Y-62.22
X186.69Y-88.9
X189.992Y-41.745
X189.992Y-42.545
X189.992Y-61.595
X191.643Y-51.425
T3
X141.732Y-52.7
X141.732Y-60.32
X144.272Y-52.695
X144.272Y-60.315
X146.812Y-52.705
X146.812Y-60.325
X149.352Y-52.695
X149.352Y-60.315
X151.892Y-52.7
X151.892Y-60.32
X154.432Y-52.695
X154.432Y-60.315
X156.972Y-52.7
X156.972Y-60.32
X159.512Y-52.695
X159.512Y-60.315
X162.052Y-52.705
X162.052Y-60.325
X164.592Y-52.7
X164.592Y-60.32
X167.132Y-52.705
X167.132Y-60.325
X169.672Y-52.695
X169.672Y-60.315
X172.212Y-52.705
X172.212Y-60.325
X174.752Y-52.7
X174.752Y-60.32
X177.292Y-52.705
X177.292Y-60.325
X179.832Y-52.695
X179.832Y-60.315
X182.372Y-52.705
X182.372Y-60.325
X184.912Y-52.7
X184.912Y-60.32
X187.452Y-52.7
X187.452Y-60.32
X189.992Y-52.7
X189.992Y-60.32
T4
X102.235Y-50.165
X102.235Y-60.325
X108.585Y-67.31
X108.585Y-72.39
X108.585Y-77.47
X112.395Y-50.165
X112.395Y-60.325
X118.745Y-67.31
X118.745Y-72.39
X118.745Y-77.47
X122.555Y-50.165
X122.555Y-60.325
X123.278Y-126.365
X125.778Y-126.365
X132.715Y-50.165
X132.715Y-60.325
X139.681Y-129.057
X141.681Y-129.057
X145.532Y-39.38
X145.532Y-47.0
X146.685Y-67.31
X146.685Y-77.47
X146.685Y-85.09
X146.685Y-95.25
X146.685Y-102.87
X146.685Y-113.03
X148.072Y-39.38
X148.072Y-47.0
X150.612Y-39.38
X150.612Y-47.0
X151.755Y-121.295
X151.755Y-128.915
X151.765Y-72.39
X151.765Y-74.93
X151.765Y-77.47
X151.765Y-80.01
X151.775Y-90.18
X151.775Y-92.72
X151.775Y-95.26
X151.775Y-97.8
X151.775Y-107.96
X151.775Y-110.5
X151.775Y-113.04
X151.775Y-115.58
X153.152Y-39.38
X153.152Y-47.0
X154.295Y-121.295
X154.295Y-128.915
X156.835Y-121.295
X156.835Y-128.915
X159.375Y-121.295
X159.375Y-128.915
X159.385Y-72.39
X159.385Y-74.93
X159.385Y-77.47
X159.385Y-80.01
X159.395Y-90.18
X159.395Y-92.72
X159.395Y-95.26
X159.395Y-97.8
X159.395Y-107.96
X159.395Y-110.5
X159.395Y-113.04
X159.395Y-115.58
X162.677Y-39.38
X162.677Y-47.0
X163.83Y-69.85
X163.83Y-80.01
X163.83Y-87.63
X163.83Y-97.79
X163.83Y-105.41
X163.83Y-115.57
X163.83Y-120.65
X163.83Y-130.81
X165.217Y-39.38
X165.217Y-47.0
X167.132Y-69.85
X167.132Y-80.01
X167.132Y-87.63
X167.132Y-97.79
X167.132Y-105.41
X167.132Y-115.57
X167.132Y-120.65
X167.132Y-130.81
X167.757Y-39.38
X167.757Y-47.0
X170.297Y-39.38
X170.297Y-47.0
T5
X97.855Y-123.77
X103.855Y-90.17
X109.855Y-90.17
X115.855Y-123.77
X128.985Y-67.31
X128.985Y-80.01
X128.985Y-85.09
X128.985Y-97.79
X128.985Y-102.87
X128.985Y-115.57
X131.445Y-122.555
X131.445Y-125.095
X131.445Y-127.635
X138.985Y-67.31
X138.985Y-80.01
X138.985Y-85.09
X138.985Y-97.79
X138.985Y-102.87
X138.985Y-115.57
X191.272Y-45.085
X193.812Y-45.085
X196.352Y-45.085
X198.892Y-45.085
X202.692Y-50.8
X202.692Y-53.34
X202.692Y-55.88
X202.692Y-58.42
X202.692Y-60.96
X202.692Y-63.5
X202.692Y-68.58
X202.692Y-73.66
X202.692Y-76.2
X202.692Y-78.74
X202.692Y-83.82
X202.692Y-86.36
X202.692Y-88.9
X202.692Y-93.98
X202.692Y-96.52
X202.692Y-99.06
X202.692Y-101.6
X202.692Y-104.14
X202.692Y-106.68
T6
X172.847Y-73.66
X172.847Y-76.2
X172.847Y-78.74
X172.847Y-81.28
X172.847Y-83.82
X172.847Y-86.36
X172.847Y-88.9
X172.847Y-91.44
X172.847Y-93.98
X172.847Y-96.52
X172.847Y-99.06
X172.847Y-101.6
X172.847Y-104.14
X172.847Y-106.68
X172.847Y-109.22
X172.847Y-111.76
X172.847Y-114.3
X172.847Y-116.84
X172.847Y-119.38
X172.847Y-121.92
X172.847Y-124.46
X172.847Y-127.0
X195.707Y-73.66
X195.707Y-76.2
X195.707Y-78.74
X195.707Y-81.28
X195.707Y-83.82
X195.707Y-86.36
X195.707Y-88.9
X195.707Y-91.44
X195.707Y-93.98
X195.707Y-96.52
X195.707Y-99.06
X195.707Y-101.6
X195.707Y-104.14
X195.707Y-106.68
X195.707Y-109.22
X195.707Y-111.76
X195.707Y-114.3
X195.707Y-116.84
X195.707Y-119.38
X195.707Y-121.92
X195.707Y-124.46
X195.707Y-127.0
T7
X139.7Y-124.135
X142.24Y-124.135
X144.78Y-124.135
T8
X97.155Y-44.45
X100.33Y-67.31
X100.33Y-72.39
X100.33Y-77.47
X100.33Y-82.55
X102.235Y-44.45
X107.315Y-44.45
X112.395Y-44.45
X117.475Y-44.45
X122.555Y-44.45
X127.635Y-44.45
X132.715Y-44.45
M30
