%TF.GenerationSoftware,KiCad,Pcbnew,7.0.10*%
%TF.CreationDate,2024-05-02T13:41:35-03:00*%
%TF.ProjectId,board,626f6172-642e-46b6-9963-61645f706362,1.2*%
%TF.SameCoordinates,Original*%
%TF.FileFunction,Copper,L1,Top*%
%TF.FilePolarity,Positive*%
%FSLAX46Y46*%
G04 Gerber Fmt 4.6, Leading zero omitted, Abs format (unit mm)*
G04 Created by KiCad (PCBNEW 7.0.10) date 2024-05-02 13:41:35*
%MOMM*%
%LPD*%
G01*
G04 APERTURE LIST*
%TA.AperFunction,ComponentPad*%
%ADD10O,1.500000X1.500000*%
%TD*%
%TA.AperFunction,ComponentPad*%
%ADD11C,1.600000*%
%TD*%
%TA.AperFunction,ComponentPad*%
%ADD12O,1.600000X1.600000*%
%TD*%
%TA.AperFunction,ComponentPad*%
%ADD13O,1.700000X1.700000*%
%TD*%
%TA.AperFunction,ComponentPad*%
%ADD14O,2.000000X2.000000*%
%TD*%
%TA.AperFunction,ComponentPad*%
%ADD15C,2.000000*%
%TD*%
%TA.AperFunction,ComponentPad*%
%ADD16O,1.530000X1.530000*%
%TD*%
%TA.AperFunction,ComponentPad*%
%ADD17C,1.530000*%
%TD*%
%TA.AperFunction,ComponentPad*%
%ADD18O,3.000000X3.000000*%
%TD*%
%TA.AperFunction,ComponentPad*%
%ADD19C,3.000000*%
%TD*%
%TA.AperFunction,ComponentPad*%
%ADD20O,1.508000X1.508000*%
%TD*%
%TA.AperFunction,ComponentPad*%
%ADD21C,1.508000*%
%TD*%
%TA.AperFunction,ComponentPad*%
%ADD22O,1.905000X2.000000*%
%TD*%
%TA.AperFunction,ViaPad*%
%ADD23C,0.400000*%
%TD*%
%TA.AperFunction,ViaPad*%
%ADD24C,0.500000*%
%TD*%
%TA.AperFunction,Conductor*%
%ADD25C,0.200000*%
%TD*%
%TA.AperFunction,Conductor*%
%ADD26C,0.250000*%
%TD*%
G04 APERTURE END LIST*
D10*
%TO.P,DZ17,1,K*%
%TO.N,GND*%
X189860000Y-101600000D03*
%TO.P,DZ17,2,A*%
%TO.N,Treated Wave B*%
X197480000Y-101600000D03*
%TD*%
%TO.P,DZ14,1,K*%
%TO.N,Treated Wave CA*%
X197485000Y-93980000D03*
%TO.P,DZ14,2,A*%
%TO.N,Vcc*%
X189865000Y-93980000D03*
%TD*%
D11*
%TO.P,R9,1*%
%TO.N,Treated Wave A*%
X147310000Y-62230000D03*
D12*
%TO.P,R9,2*%
%TO.N,Net-(U2B-+)*%
X137150000Y-62230000D03*
%TD*%
D10*
%TO.P,DZ2,1,K*%
%TO.N,Current A*%
X197485000Y-63500000D03*
%TO.P,DZ2,2,A*%
%TO.N,Vcc*%
X189865000Y-63500000D03*
%TD*%
D13*
%TO.P,SW2,1,A*%
%TO.N,Vcc*%
X184785000Y-71770000D03*
%TO.P,SW2,2,B*%
%TO.N,System Type*%
X184785000Y-74310000D03*
%TO.P,SW2,3,C*%
%TO.N,GND*%
X184785000Y-76850000D03*
%TD*%
D11*
%TO.P,R7,1*%
%TO.N,Wave B*%
X119380000Y-82550000D03*
D12*
%TO.P,R7,2*%
%TO.N,TC A-2*%
X119380000Y-72390000D03*
%TD*%
%TO.P,U4,1*%
%TO.N,Treated Wave C*%
X124470000Y-90180000D03*
%TO.P,U4,2,-*%
X124470000Y-92720000D03*
%TO.P,U4,3,+*%
%TO.N,Wave C*%
X124470000Y-95260000D03*
%TO.P,U4,4,V-*%
%TO.N,GND*%
X124470000Y-97800000D03*
%TO.P,U4,5,+*%
%TO.N,Net-(U4B-+)*%
X132090000Y-97800000D03*
%TO.P,U4,6,-*%
%TO.N,Treated Wave BC*%
X132090000Y-95260000D03*
%TO.P,U4,7*%
X132090000Y-92720000D03*
%TO.P,U4,8,V+*%
%TO.N,Vin*%
X132090000Y-90180000D03*
%TD*%
D14*
%TO.P,PS1,1,AC/L*%
%TO.N,Line A*%
X82550000Y-77470000D03*
D15*
%TO.P,PS1,2,AC/N*%
%TO.N,Neutral*%
X76550000Y-77470000D03*
%TO.P,PS1,3,-Vout*%
%TO.N,GND*%
X88550000Y-111070000D03*
%TO.P,PS1,4,+Vout*%
%TO.N,Power*%
X70550000Y-111070000D03*
%TD*%
D11*
%TO.P,R15,1*%
%TO.N,TC A-1*%
X207645000Y-99060000D03*
D12*
%TO.P,R15,2*%
%TO.N,TC A-2*%
X207645000Y-109220000D03*
%TD*%
D11*
%TO.P,R16,1*%
%TO.N,TC B-1*%
X211455000Y-99060000D03*
D12*
%TO.P,R16,2*%
%TO.N,TC A-2*%
X211455000Y-109220000D03*
%TD*%
D16*
%TO.P,MCU1,J1_1,3V3*%
%TO.N,Vcc*%
X154940000Y-60960000D03*
D17*
%TO.P,MCU1,J1_2,3V3__1*%
X154940000Y-63500000D03*
%TO.P,MCU1,J1_3,RST*%
%TO.N,unconnected-(MCU1-RST-PadJ1_3)*%
X154940000Y-66040000D03*
%TO.P,MCU1,J1_4,GPIO4*%
%TO.N,Treated Wave A*%
X154940000Y-68580000D03*
%TO.P,MCU1,J1_5,GPIO5*%
%TO.N,Treated Wave B*%
X154940000Y-71120000D03*
%TO.P,MCU1,J1_6,GPIO6*%
%TO.N,Treated Wave C*%
X154940000Y-73660000D03*
%TO.P,MCU1,J1_7,GPIO7*%
%TO.N,Treated Wave CA*%
X154940000Y-76200000D03*
%TO.P,MCU1,J1_8,GPIO15*%
%TO.N,CS*%
X154940000Y-78740000D03*
%TO.P,MCU1,J1_9,GPIO16*%
%TO.N,MOSI*%
X154940000Y-81280000D03*
%TO.P,MCU1,J1_10,GPIO17*%
%TO.N,SCK*%
X154940000Y-83820000D03*
%TO.P,MCU1,J1_11,GPIO18*%
%TO.N,MISO*%
X154940000Y-86360000D03*
%TO.P,MCU1,J1_12,GPIO8*%
%TO.N,Treated Wave AB*%
X154940000Y-88900000D03*
%TO.P,MCU1,J1_13,GPIO3*%
%TO.N,unconnected-(MCU1-GPIO3-PadJ1_13)*%
X154940000Y-91440000D03*
%TO.P,MCU1,J1_14,GPIO46*%
%TO.N,unconnected-(MCU1-GPIO46-PadJ1_14)*%
X154940000Y-93980000D03*
%TO.P,MCU1,J1_15,GPIO9*%
%TO.N,Treated Wave BC*%
X154940000Y-96520000D03*
%TO.P,MCU1,J1_16,GPIO10*%
%TO.N,unconnected-(MCU1-GPIO10-PadJ1_16)*%
X154940000Y-99060000D03*
%TO.P,MCU1,J1_17,GPIO11*%
%TO.N,Current N*%
X154940000Y-101600000D03*
%TO.P,MCU1,J1_18,GPIO12*%
%TO.N,Current C*%
X154940000Y-104140000D03*
%TO.P,MCU1,J1_19,GPIO13*%
%TO.N,Current B*%
X154940000Y-106680000D03*
%TO.P,MCU1,J1_20,GPIO14*%
%TO.N,Current A*%
X154940000Y-109220000D03*
%TO.P,MCU1,J1_21,5V0*%
%TO.N,unconnected-(MCU1-5V0-PadJ1_21)*%
X154940000Y-111760000D03*
%TO.P,MCU1,J1_22,GND*%
%TO.N,GND*%
X154940000Y-114300000D03*
%TO.P,MCU1,J3_1,GND__1*%
X177800000Y-60960000D03*
%TO.P,MCU1,J3_2,U0TXD/GPIO43*%
%TO.N,UART TX*%
X177800000Y-63500000D03*
%TO.P,MCU1,J3_3,U0RXD/GPIO44*%
%TO.N,UART RX*%
X177800000Y-66040000D03*
%TO.P,MCU1,J3_4,GPIO1*%
%TO.N,System Type*%
X177800000Y-68580000D03*
%TO.P,MCU1,J3_5,GPIO2*%
%TO.N,unconnected-(MCU1-GPIO2-PadJ3_5)*%
X177800000Y-71120000D03*
%TO.P,MCU1,J3_6,MTMS/GPIO42*%
%TO.N,unconnected-(MCU1-MTMS{slash}GPIO42-PadJ3_6)*%
X177800000Y-73660000D03*
%TO.P,MCU1,J3_7,MTDI/GPIO41*%
%TO.N,unconnected-(MCU1-MTDI{slash}GPIO41-PadJ3_7)*%
X177800000Y-76200000D03*
%TO.P,MCU1,J3_8,MTDO/GPIO40*%
%TO.N,unconnected-(MCU1-MTDO{slash}GPIO40-PadJ3_8)*%
X177800000Y-78740000D03*
%TO.P,MCU1,J3_9,MTCK/GPIO39*%
%TO.N,unconnected-(MCU1-MTCK{slash}GPIO39-PadJ3_9)*%
X177800000Y-81280000D03*
%TO.P,MCU1,J3_10,GPIO38*%
%TO.N,unconnected-(MCU1-GPIO38-PadJ3_10)*%
X177800000Y-83820000D03*
%TO.P,MCU1,J3_11,GPIO37*%
%TO.N,unconnected-(MCU1-GPIO37-PadJ3_11)*%
X177800000Y-86360000D03*
%TO.P,MCU1,J3_12,GPIO36*%
%TO.N,unconnected-(MCU1-GPIO36-PadJ3_12)*%
X177800000Y-88900000D03*
%TO.P,MCU1,J3_13,GPIO35*%
%TO.N,unconnected-(MCU1-GPIO35-PadJ3_13)*%
X177800000Y-91440000D03*
%TO.P,MCU1,J3_14,GPIO0*%
%TO.N,unconnected-(MCU1-GPIO0-PadJ3_14)*%
X177800000Y-93980000D03*
%TO.P,MCU1,J3_15,GPIO45*%
%TO.N,unconnected-(MCU1-GPIO45-PadJ3_15)*%
X177800000Y-96520000D03*
%TO.P,MCU1,J3_16,GPIO48*%
%TO.N,unconnected-(MCU1-GPIO48-PadJ3_16)*%
X177800000Y-99060000D03*
%TO.P,MCU1,J3_17,GPIO47*%
%TO.N,unconnected-(MCU1-GPIO47-PadJ3_17)*%
X177800000Y-101600000D03*
%TO.P,MCU1,J3_18,GPIO21*%
%TO.N,unconnected-(MCU1-GPIO21-PadJ3_18)*%
X177800000Y-104140000D03*
%TO.P,MCU1,J3_19,USB_D+/GPIO20*%
%TO.N,unconnected-(MCU1-USB_D+{slash}GPIO20-PadJ3_19)*%
X177800000Y-106680000D03*
%TO.P,MCU1,J3_20,USB_D-/GPIO19*%
%TO.N,unconnected-(MCU1-USB_D-{slash}GPIO19-PadJ3_20)*%
X177800000Y-109220000D03*
%TO.P,MCU1,J3_21,GND__2*%
%TO.N,unconnected-(MCU1-GND__2-PadJ3_21)*%
X177800000Y-111760000D03*
%TO.P,MCU1,J3_22,GND__3*%
%TO.N,GND*%
X177800000Y-114300000D03*
%TD*%
D12*
%TO.P,U3,1*%
%TO.N,Treated Wave B*%
X124470000Y-72400000D03*
%TO.P,U3,2,-*%
X124470000Y-74940000D03*
%TO.P,U3,3,+*%
%TO.N,Wave B*%
X124470000Y-77480000D03*
%TO.P,U3,4,V-*%
%TO.N,GND*%
X124470000Y-80020000D03*
%TO.P,U3,5,+*%
%TO.N,Net-(U3B-+)*%
X132090000Y-80020000D03*
%TO.P,U3,6,-*%
%TO.N,Treated Wave AB*%
X132090000Y-77480000D03*
%TO.P,U3,7*%
X132090000Y-74940000D03*
%TO.P,U3,8,V+*%
%TO.N,Vin*%
X132090000Y-72400000D03*
%TD*%
D10*
%TO.P,DZ13,1,K*%
%TO.N,GND*%
X189860000Y-91440000D03*
%TO.P,DZ13,2,A*%
%TO.N,Treated Wave CA*%
X197480000Y-91440000D03*
%TD*%
D11*
%TO.P,R18,1*%
%TO.N,TC N-1*%
X225425000Y-99060000D03*
D12*
%TO.P,R18,2*%
%TO.N,TC A-2*%
X225425000Y-109220000D03*
%TD*%
D10*
%TO.P,DZ6,1,K*%
%TO.N,Current C*%
X197490000Y-73660000D03*
%TO.P,DZ6,2,A*%
%TO.N,Vcc*%
X189870000Y-73660000D03*
%TD*%
%TO.P,DZ18,1,K*%
%TO.N,Treated Wave B*%
X197490000Y-104140000D03*
%TO.P,DZ18,2,A*%
%TO.N,Vcc*%
X189870000Y-104140000D03*
%TD*%
%TO.P,DZ5,1,K*%
%TO.N,GND*%
X189860000Y-71120000D03*
%TO.P,DZ5,2,A*%
%TO.N,Current C*%
X197480000Y-71120000D03*
%TD*%
D18*
%TO.P,J6,1,Pin_1*%
%TO.N,TC A-2*%
X221615000Y-120015000D03*
D19*
%TO.P,J6,2,Pin_2*%
%TO.N,TC N-1*%
X226695000Y-120015000D03*
%TD*%
D13*
%TO.P,P1,1,Pin_1*%
%TO.N,UART RX*%
X184785000Y-66040000D03*
%TO.P,P1,2,Pin_2*%
%TO.N,UART TX*%
X184785000Y-63500000D03*
%TO.P,P1,3,Pin_3*%
%TO.N,GND*%
X184785000Y-60960000D03*
%TD*%
D11*
%TO.P,R1,1*%
%TO.N,Vcc*%
X112790000Y-119380000D03*
D12*
%TO.P,R1,2*%
%TO.N,Net-(U1A-+)*%
X112790000Y-109220000D03*
%TD*%
D20*
%TO.P,T1,1*%
%TO.N,Net-(R3-Pad1)*%
X101680000Y-54610000D03*
D21*
%TO.P,T1,2*%
%TO.N,Neutral*%
X101680000Y-67310000D03*
%TO.P,T1,3*%
%TO.N,Wave A*%
X111680000Y-67310000D03*
%TO.P,T1,4*%
%TO.N,TC A-2*%
X111680000Y-54610000D03*
%TD*%
D11*
%TO.P,R11,1*%
%TO.N,Treated Wave B*%
X147310000Y-80010000D03*
D12*
%TO.P,R11,2*%
%TO.N,Net-(U3B-+)*%
X137150000Y-80010000D03*
%TD*%
%TO.P,U1,1*%
%TO.N,TC A-2*%
X107940000Y-109230000D03*
%TO.P,U1,2,-*%
X105400000Y-109230000D03*
%TO.P,U1,3,+*%
%TO.N,Net-(U1A-+)*%
X102860000Y-109230000D03*
%TO.P,U1,4,V-*%
%TO.N,GND*%
X100320000Y-109230000D03*
%TO.P,U1,5*%
%TO.N,N/C*%
X100320000Y-116850000D03*
%TO.P,U1,6*%
X102860000Y-116850000D03*
%TO.P,U1,7*%
X105400000Y-116850000D03*
%TO.P,U1,8,V+*%
%TO.N,Vin*%
X107940000Y-116850000D03*
%TD*%
D10*
%TO.P,DZ11,1,K*%
%TO.N,GND*%
X189865000Y-86360000D03*
%TO.P,DZ11,2,A*%
%TO.N,Treated Wave AB*%
X197485000Y-86360000D03*
%TD*%
D13*
%TO.P,SW1,1,A*%
%TO.N,Vin*%
X78740000Y-116840000D03*
%TO.P,SW1,2,B*%
%TO.N,Power*%
X78740000Y-119380000D03*
%TO.P,SW1,3,C*%
%TO.N,unconnected-(SW1A-C-Pad3)*%
X78740000Y-121920000D03*
%TD*%
D11*
%TO.P,R13,1*%
%TO.N,Treated Wave C*%
X147310000Y-97790000D03*
D12*
%TO.P,R13,2*%
%TO.N,Net-(U4B-+)*%
X137150000Y-97790000D03*
%TD*%
D20*
%TO.P,T3,1*%
%TO.N,Net-(R5-Pad1)*%
X101680000Y-90170000D03*
D21*
%TO.P,T3,2*%
%TO.N,Neutral*%
X101680000Y-102870000D03*
%TO.P,T3,3*%
%TO.N,Wave C*%
X111680000Y-102870000D03*
%TO.P,T3,4*%
%TO.N,TC A-2*%
X111680000Y-90170000D03*
%TD*%
D11*
%TO.P,R6,1*%
%TO.N,Wave A*%
X119380000Y-64770000D03*
D12*
%TO.P,R6,2*%
%TO.N,TC A-2*%
X119380000Y-54610000D03*
%TD*%
D10*
%TO.P,DZ3,1,K*%
%TO.N,GND*%
X189865000Y-66040000D03*
%TO.P,DZ3,2,A*%
%TO.N,Current B*%
X197485000Y-66040000D03*
%TD*%
D11*
%TO.P,R10,1*%
%TO.N,Treated Wave C*%
X147310000Y-58420000D03*
D12*
%TO.P,R10,2*%
%TO.N,Net-(U2B-+)*%
X137150000Y-58420000D03*
%TD*%
D10*
%TO.P,DZ16,1,K*%
%TO.N,Treated Wave C*%
X197485000Y-99060000D03*
%TO.P,DZ16,2,A*%
%TO.N,Vcc*%
X189865000Y-99060000D03*
%TD*%
%TO.P,DZ15,1,K*%
%TO.N,GND*%
X189860000Y-96520000D03*
%TO.P,DZ15,2,A*%
%TO.N,Treated Wave C*%
X197480000Y-96520000D03*
%TD*%
D11*
%TO.P,R3,1*%
%TO.N,Net-(R3-Pad1)*%
X91440000Y-54610000D03*
D12*
%TO.P,R3,2*%
%TO.N,Line A*%
X81280000Y-54610000D03*
%TD*%
D11*
%TO.P,R12,1*%
%TO.N,Treated Wave A*%
X147310000Y-76200000D03*
D12*
%TO.P,R12,2*%
%TO.N,Net-(U3B-+)*%
X137150000Y-76200000D03*
%TD*%
D10*
%TO.P,DZ12,1,K*%
%TO.N,Treated Wave AB*%
X197490000Y-88900000D03*
%TO.P,DZ12,2,A*%
%TO.N,Vcc*%
X189870000Y-88900000D03*
%TD*%
D12*
%TO.P,C2,1*%
%TO.N,Vcc*%
X99600000Y-123190000D03*
D11*
%TO.P,C2,2*%
%TO.N,GND*%
X101600000Y-123190000D03*
%TD*%
D18*
%TO.P,J3,1,Pin_1*%
%TO.N,TC A-2*%
X191135000Y-120015000D03*
D19*
%TO.P,J3,2,Pin_2*%
%TO.N,TC A-1*%
X196215000Y-120015000D03*
%TD*%
D11*
%TO.P,R14,1*%
%TO.N,Treated Wave B*%
X147310000Y-93980000D03*
D12*
%TO.P,R14,2*%
%TO.N,Net-(U4B-+)*%
X137150000Y-93980000D03*
%TD*%
D18*
%TO.P,J1,1,Pin_1*%
%TO.N,Line A*%
X72390000Y-54610000D03*
D19*
%TO.P,J1,2,Pin_2*%
%TO.N,Line B*%
X72390000Y-59690000D03*
%TD*%
D13*
%TO.P,P4,1,Pin_1*%
%TO.N,Treated Wave A*%
X209550000Y-53975000D03*
%TO.P,P4,2,Pin_2*%
%TO.N,Treated Wave B*%
X209550000Y-56515000D03*
%TO.P,P4,3,Pin_3*%
%TO.N,Treated Wave C*%
X209550000Y-59055000D03*
%TO.P,P4,4,Pin_4*%
%TO.N,Treated Wave CA*%
X209550000Y-61595000D03*
%TO.P,P4,5,Pin_5*%
%TO.N,Treated Wave AB*%
X209550000Y-64135000D03*
%TO.P,P4,6,Pin_6*%
%TO.N,Treated Wave BC*%
X209550000Y-66675000D03*
%TD*%
D10*
%TO.P,DZ9,1,K*%
%TO.N,GND*%
X189860000Y-81280000D03*
%TO.P,DZ9,2,A*%
%TO.N,Treated Wave BC*%
X197480000Y-81280000D03*
%TD*%
%TO.P,DZ7,1,K*%
%TO.N,GND*%
X189865000Y-76200000D03*
%TO.P,DZ7,2,A*%
%TO.N,Current N*%
X197485000Y-76200000D03*
%TD*%
D20*
%TO.P,T2,1*%
%TO.N,Net-(R4-Pad1)*%
X101680000Y-72390000D03*
D21*
%TO.P,T2,2*%
%TO.N,Neutral*%
X101680000Y-85090000D03*
%TO.P,T2,3*%
%TO.N,Wave B*%
X111680000Y-85090000D03*
%TO.P,T2,4*%
%TO.N,TC A-2*%
X111680000Y-72390000D03*
%TD*%
D18*
%TO.P,J5,1,Pin_1*%
%TO.N,TC A-2*%
X211455000Y-120015000D03*
D19*
%TO.P,J5,2,Pin_2*%
%TO.N,TC C-1*%
X216535000Y-120015000D03*
%TD*%
D10*
%TO.P,DZ20,1,K*%
%TO.N,Treated Wave A*%
X197485000Y-109220000D03*
%TO.P,DZ20,2,A*%
%TO.N,Vcc*%
X189865000Y-109220000D03*
%TD*%
D13*
%TO.P,P5,1,Pin_1*%
%TO.N,GND*%
X184785000Y-83820000D03*
%TO.P,P5,2,Pin_2*%
%TO.N,Vcc*%
X184785000Y-86360000D03*
%TO.P,P5,3,Pin_3*%
%TO.N,MISO*%
X184785000Y-88900000D03*
%TO.P,P5,4,Pin_4*%
%TO.N,MOSI*%
X184785000Y-91440000D03*
%TO.P,P5,5,Pin_5*%
%TO.N,SCK*%
X184785000Y-93980000D03*
%TO.P,P5,6,Pin_6*%
%TO.N,CS*%
X184785000Y-96520000D03*
%TD*%
D10*
%TO.P,DZ4,1,K*%
%TO.N,Current B*%
X197490000Y-68580000D03*
%TO.P,DZ4,2,A*%
%TO.N,Vcc*%
X189870000Y-68580000D03*
%TD*%
D11*
%TO.P,R17,1*%
%TO.N,TC C-1*%
X229235000Y-99060000D03*
D12*
%TO.P,R17,2*%
%TO.N,TC A-2*%
X229235000Y-109220000D03*
%TD*%
D13*
%TO.P,P3,1,Pin_1*%
%TO.N,Current A*%
X218440000Y-53975000D03*
%TO.P,P3,2,Pin_2*%
%TO.N,Current B*%
X218440000Y-56515000D03*
%TO.P,P3,3,Pin_3*%
%TO.N,Current C*%
X218440000Y-59055000D03*
%TO.P,P3,4,Pin_4*%
%TO.N,Current N*%
X218440000Y-61595000D03*
%TD*%
D10*
%TO.P,DZ1,1,K*%
%TO.N,GND*%
X189865000Y-60960000D03*
%TO.P,DZ1,2,A*%
%TO.N,Current A*%
X197485000Y-60960000D03*
%TD*%
D12*
%TO.P,U6,1*%
%TO.N,Current B*%
X214640000Y-91450000D03*
%TO.P,U6,2,-*%
X214640000Y-93990000D03*
%TO.P,U6,3,+*%
%TO.N,TC B-1*%
X214640000Y-96530000D03*
%TO.P,U6,4,V-*%
%TO.N,GND*%
X214640000Y-99070000D03*
%TO.P,U6,5,+*%
%TO.N,TC N-1*%
X222260000Y-99070000D03*
%TO.P,U6,6,-*%
%TO.N,Current N*%
X222260000Y-96530000D03*
%TO.P,U6,7*%
X222260000Y-93990000D03*
%TO.P,U6,8,V+*%
%TO.N,Vin*%
X222260000Y-91450000D03*
%TD*%
%TO.P,C1,1*%
%TO.N,Power*%
X69890000Y-119380000D03*
D11*
%TO.P,C1,2*%
%TO.N,GND*%
X72390000Y-119380000D03*
%TD*%
%TO.P,R8,1*%
%TO.N,Wave C*%
X119380000Y-100330000D03*
D12*
%TO.P,R8,2*%
%TO.N,TC A-2*%
X119380000Y-90170000D03*
%TD*%
D18*
%TO.P,J2,1,Pin_1*%
%TO.N,Line C*%
X72390000Y-64770000D03*
D19*
%TO.P,J2,2,Pin_2*%
%TO.N,Neutral*%
X72390000Y-69850000D03*
%TD*%
D13*
%TO.P,P2,1,Pin_1*%
%TO.N,TC A-2*%
X218440000Y-67310000D03*
%TD*%
D22*
%TO.P,PS2,1,GND*%
%TO.N,GND*%
X87630000Y-123190000D03*
%TO.P,PS2,2,VO*%
%TO.N,Vcc*%
X90170000Y-123190000D03*
%TO.P,PS2,3,VI*%
%TO.N,Vin*%
X92710000Y-123190000D03*
%TD*%
D10*
%TO.P,DZ8,1,K*%
%TO.N,Current N*%
X197490000Y-78740000D03*
%TO.P,DZ8,2,A*%
%TO.N,Vcc*%
X189870000Y-78740000D03*
%TD*%
%TO.P,DZ10,1,K*%
%TO.N,Treated Wave BC*%
X197490000Y-83820000D03*
%TO.P,DZ10,2,A*%
%TO.N,Vcc*%
X189870000Y-83820000D03*
%TD*%
D11*
%TO.P,R4,1*%
%TO.N,Net-(R4-Pad1)*%
X91440000Y-59690000D03*
D12*
%TO.P,R4,2*%
%TO.N,Line B*%
X81280000Y-59690000D03*
%TD*%
D11*
%TO.P,R5,1*%
%TO.N,Net-(R5-Pad1)*%
X91440000Y-64770000D03*
D12*
%TO.P,R5,2*%
%TO.N,Line C*%
X81280000Y-64770000D03*
%TD*%
%TO.P,U2,1*%
%TO.N,Treated Wave A*%
X124460000Y-54610000D03*
%TO.P,U2,2,-*%
X124460000Y-57150000D03*
%TO.P,U2,3,+*%
%TO.N,Wave A*%
X124460000Y-59690000D03*
%TO.P,U2,4,V-*%
%TO.N,GND*%
X124460000Y-62230000D03*
%TO.P,U2,5,+*%
%TO.N,Net-(U2B-+)*%
X132080000Y-62230000D03*
%TO.P,U2,6,-*%
%TO.N,Treated Wave CA*%
X132080000Y-59690000D03*
%TO.P,U2,7*%
X132080000Y-57150000D03*
%TO.P,U2,8,V+*%
%TO.N,Vin*%
X132080000Y-54610000D03*
%TD*%
D11*
%TO.P,R2,1*%
%TO.N,Net-(U1A-+)*%
X116840000Y-109220000D03*
D12*
%TO.P,R2,2*%
%TO.N,GND*%
X116840000Y-119380000D03*
%TD*%
D18*
%TO.P,J4,1,Pin_1*%
%TO.N,TC A-2*%
X201295000Y-120015000D03*
D19*
%TO.P,J4,2,Pin_2*%
%TO.N,TC B-1*%
X206375000Y-120015000D03*
%TD*%
D12*
%TO.P,U5,1*%
%TO.N,Current A*%
X214650000Y-79395000D03*
%TO.P,U5,2,-*%
X214650000Y-81935000D03*
%TO.P,U5,3,+*%
%TO.N,TC A-1*%
X214650000Y-84475000D03*
%TO.P,U5,4,V-*%
%TO.N,GND*%
X214650000Y-87015000D03*
%TO.P,U5,5,+*%
%TO.N,TC C-1*%
X222270000Y-87015000D03*
%TO.P,U5,6,-*%
%TO.N,Current C*%
X222270000Y-84475000D03*
%TO.P,U5,7*%
X222270000Y-81935000D03*
%TO.P,U5,8,V+*%
%TO.N,Vin*%
X222270000Y-79395000D03*
%TD*%
D10*
%TO.P,DZ19,1,K*%
%TO.N,GND*%
X189860000Y-106680000D03*
%TO.P,DZ19,2,A*%
%TO.N,Treated Wave A*%
X197480000Y-106680000D03*
%TD*%
D23*
%TO.N,Treated Wave A*%
X201676000Y-52070000D03*
X142230000Y-54610000D03*
%TO.N,Treated Wave B*%
X201295000Y-52705000D03*
X142230000Y-72390000D03*
%TO.N,Treated Wave C*%
X142230000Y-90170000D03*
X200914000Y-53340000D03*
%TO.N,Treated Wave CA*%
X151130000Y-71120000D03*
X200533000Y-53975000D03*
%TO.N,Treated Wave AB*%
X200152000Y-54610000D03*
X151130000Y-87630000D03*
%TO.N,Treated Wave BC*%
X199771000Y-55245000D03*
%TO.N,Current A*%
X199390000Y-62865000D03*
X211455000Y-69215000D03*
%TO.N,Current B*%
X210820000Y-69850000D03*
X200025000Y-69850000D03*
%TO.N,Current C*%
X213360000Y-70485000D03*
X200660000Y-70485000D03*
%TO.N,Current N*%
X201295000Y-71120000D03*
X213995000Y-71120000D03*
%TO.N,TC A-2*%
X198755000Y-111125000D03*
X110490000Y-113030000D03*
X110490000Y-121920000D03*
X110490000Y-116840000D03*
%TO.N,TC C-1*%
X225425000Y-104140000D03*
%TO.N,CS*%
X164465000Y-78740000D03*
%TO.N,MOSI*%
X165735000Y-81280000D03*
%TO.N,SCK*%
X165100000Y-83820000D03*
%TO.N,MISO*%
X166370000Y-86360000D03*
D24*
%TO.N,Vin*%
X213360000Y-52070000D03*
%TD*%
D25*
%TO.N,Treated Wave A*%
X166370000Y-55372000D02*
X169672000Y-52070000D01*
X142230000Y-54610000D02*
X135880000Y-54610000D01*
X135880000Y-54610000D02*
X133340000Y-52070000D01*
X124460000Y-57150000D02*
X124460000Y-54610000D01*
X169672000Y-52070000D02*
X201676000Y-52070000D01*
X153670000Y-68580000D02*
X154940000Y-68580000D01*
X205105000Y-55499000D02*
X205105000Y-108585000D01*
X124460000Y-53330000D02*
X124460000Y-54610000D01*
X152400000Y-67310000D02*
X153670000Y-68580000D01*
X166370000Y-67945000D02*
X166370000Y-55372000D01*
X125720000Y-52070000D02*
X124460000Y-53330000D01*
X205105000Y-108585000D02*
X204470000Y-109220000D01*
X149155685Y-54610000D02*
X152400000Y-57854315D01*
X142230000Y-54610000D02*
X149155685Y-54610000D01*
X204470000Y-109220000D02*
X197485000Y-109220000D01*
X133340000Y-52070000D02*
X125720000Y-52070000D01*
X165735000Y-68580000D02*
X166370000Y-67945000D01*
X152400000Y-57854315D02*
X152400000Y-67310000D01*
X154940000Y-68580000D02*
X165735000Y-68580000D01*
X201676000Y-52070000D02*
X205105000Y-55499000D01*
%TO.N,Treated Wave B*%
X204470000Y-103505000D02*
X203835000Y-104140000D01*
X154940000Y-71120000D02*
X166370000Y-71120000D01*
X201295000Y-52705000D02*
X204470000Y-55880000D01*
X133340000Y-69850000D02*
X135880000Y-72390000D01*
X167005000Y-55753000D02*
X170053000Y-52705000D01*
X153670000Y-71120000D02*
X154940000Y-71120000D01*
X152400000Y-72390000D02*
X153670000Y-71120000D01*
X124470000Y-74940000D02*
X124470000Y-72400000D01*
X170053000Y-52705000D02*
X201295000Y-52705000D01*
X125720000Y-69850000D02*
X133340000Y-69850000D01*
X124470000Y-72400000D02*
X124470000Y-71100000D01*
X203835000Y-104140000D02*
X197490000Y-104140000D01*
X142230000Y-72390000D02*
X153670000Y-72390000D01*
X204470000Y-55880000D02*
X204470000Y-103505000D01*
X135880000Y-72390000D02*
X142230000Y-72390000D01*
X166370000Y-71120000D02*
X167005000Y-70485000D01*
X124470000Y-71100000D02*
X125720000Y-69850000D01*
X167005000Y-70485000D02*
X167005000Y-55753000D01*
%TO.N,Treated Wave C*%
X203835000Y-98615500D02*
X203390500Y-99060000D01*
X170434000Y-53340000D02*
X200914000Y-53340000D01*
X142230000Y-90170000D02*
X151130000Y-90170000D01*
X154940000Y-73660000D02*
X167005000Y-73660000D01*
X124470000Y-88880000D02*
X125720000Y-87630000D01*
X153670000Y-73660000D02*
X154940000Y-73660000D01*
X167640000Y-73025000D02*
X167640000Y-56134000D01*
X152400000Y-88900000D02*
X152400000Y-74930000D01*
X203835000Y-56261000D02*
X203835000Y-98615500D01*
X151130000Y-90170000D02*
X152400000Y-88900000D01*
X125720000Y-87630000D02*
X133340000Y-87630000D01*
X167005000Y-73660000D02*
X167640000Y-73025000D01*
X203390500Y-99060000D02*
X197485000Y-99060000D01*
X124470000Y-90180000D02*
X124470000Y-88880000D01*
X167640000Y-56134000D02*
X170434000Y-53340000D01*
X152400000Y-74930000D02*
X153670000Y-73660000D01*
X133340000Y-87630000D02*
X135880000Y-90170000D01*
X135880000Y-90170000D02*
X142230000Y-90170000D01*
X124470000Y-90180000D02*
X124470000Y-92720000D01*
X200914000Y-53340000D02*
X203835000Y-56261000D01*
%TO.N,Treated Wave CA*%
X148590000Y-55880000D02*
X151130000Y-58420000D01*
X200533000Y-53975000D02*
X203200000Y-56642000D01*
X202565000Y-93980000D02*
X197485000Y-93980000D01*
X203200000Y-93345000D02*
X202565000Y-93980000D01*
X167640000Y-76200000D02*
X168275000Y-75565000D01*
X170815000Y-53975000D02*
X200533000Y-53975000D01*
X132080000Y-57150000D02*
X132080000Y-59690000D01*
X132080000Y-57150000D02*
X134610000Y-57150000D01*
X168275000Y-56515000D02*
X170815000Y-53975000D01*
X151130000Y-58420000D02*
X151130000Y-71120000D01*
X135880000Y-55880000D02*
X148590000Y-55880000D01*
X168275000Y-75565000D02*
X168275000Y-56515000D01*
X203200000Y-56642000D02*
X203200000Y-93345000D01*
X134610000Y-57150000D02*
X135880000Y-55880000D01*
X154940000Y-76200000D02*
X167640000Y-76200000D01*
%TO.N,Treated Wave AB*%
X134600000Y-74940000D02*
X132090000Y-74940000D01*
X154940000Y-88900000D02*
X168275000Y-88900000D01*
X202565000Y-88265000D02*
X201930000Y-88900000D01*
X168910000Y-88265000D02*
X168910000Y-56896000D01*
X132090000Y-74940000D02*
X132090000Y-77480000D01*
X171196000Y-54610000D02*
X200152000Y-54610000D01*
X201930000Y-88900000D02*
X197490000Y-88900000D01*
X135880000Y-73660000D02*
X134600000Y-74940000D01*
X168275000Y-88900000D02*
X168910000Y-88265000D01*
X151130000Y-87630000D02*
X151130000Y-76200000D01*
X200152000Y-54610000D02*
X202565000Y-57023000D01*
X168910000Y-56896000D02*
X171196000Y-54610000D01*
X202565000Y-57023000D02*
X202565000Y-88265000D01*
X148590000Y-73660000D02*
X135880000Y-73660000D01*
X151130000Y-76200000D02*
X148590000Y-73660000D01*
%TO.N,Treated Wave BC*%
X151130000Y-95250000D02*
X152400000Y-96520000D01*
X134600000Y-92720000D02*
X135880000Y-91440000D01*
X152400000Y-96520000D02*
X154940000Y-96520000D01*
X171577000Y-55245000D02*
X199771000Y-55245000D01*
X199771000Y-55245000D02*
X201930000Y-57404000D01*
X201930000Y-57404000D02*
X201930000Y-83185000D01*
X154940000Y-96520000D02*
X168910000Y-96520000D01*
X135880000Y-91440000D02*
X149860000Y-91440000D01*
X132090000Y-92720000D02*
X132090000Y-95260000D01*
X169545000Y-57277000D02*
X171577000Y-55245000D01*
X201295000Y-83820000D02*
X197490000Y-83820000D01*
X149860000Y-91440000D02*
X151130000Y-92710000D01*
X201930000Y-83185000D02*
X201295000Y-83820000D01*
X132090000Y-92720000D02*
X134600000Y-92720000D01*
X168910000Y-96520000D02*
X169545000Y-95885000D01*
X151130000Y-92710000D02*
X151130000Y-95250000D01*
X169545000Y-95885000D02*
X169545000Y-57277000D01*
D26*
%TO.N,Line B*%
X72390000Y-59690000D02*
X81280000Y-59690000D01*
%TO.N,Line A*%
X72390000Y-54610000D02*
X81280000Y-54610000D01*
%TO.N,Neutral*%
X92710000Y-69850000D02*
X95250000Y-67310000D01*
X95250000Y-67310000D02*
X101680000Y-67310000D01*
X92710000Y-82550000D02*
X92710000Y-100330000D01*
X72390000Y-69850000D02*
X92710000Y-69850000D01*
X95250000Y-102870000D02*
X101680000Y-102870000D01*
X92710000Y-82550000D02*
X95250000Y-85090000D01*
X92710000Y-69850000D02*
X92710000Y-82550000D01*
X92710000Y-100330000D02*
X95250000Y-102870000D01*
X95250000Y-85090000D02*
X101680000Y-85090000D01*
%TO.N,Line C*%
X72390000Y-64770000D02*
X81280000Y-64770000D01*
%TO.N,Vcc*%
X97790000Y-119380000D02*
X99600000Y-121190000D01*
X90170000Y-120650000D02*
X91440000Y-119380000D01*
D25*
X154940000Y-60960000D02*
X154940000Y-63500000D01*
D26*
X91440000Y-119380000D02*
X97790000Y-119380000D01*
X90170000Y-123190000D02*
X90170000Y-120650000D01*
X97790000Y-119380000D02*
X112790000Y-119380000D01*
X99600000Y-121190000D02*
X99600000Y-123190000D01*
%TO.N,GND*%
X96520000Y-106680000D02*
X99060000Y-106680000D01*
X151130000Y-100965000D02*
X152400000Y-102235000D01*
X187330000Y-61600000D02*
X186690000Y-60960000D01*
X121920000Y-81290000D02*
X121910000Y-81280000D01*
X100330000Y-125730000D02*
X88900000Y-125730000D01*
X124460000Y-62230000D02*
X123180000Y-62230000D01*
X187950000Y-71110000D02*
X189865000Y-71110000D01*
X215900000Y-76835000D02*
X213741000Y-76835000D01*
X187330000Y-82550000D02*
X187330000Y-76200000D01*
X187325000Y-70485000D02*
X187950000Y-71110000D01*
X213741000Y-76835000D02*
X212090000Y-75184000D01*
X119380000Y-107950000D02*
X118110000Y-106680000D01*
X187330000Y-95885000D02*
X187955000Y-96510000D01*
X187330000Y-85725000D02*
X187955000Y-86350000D01*
X217170000Y-85725000D02*
X215880000Y-87015000D01*
X189870000Y-106670000D02*
X187955000Y-106670000D01*
X99060000Y-106680000D02*
X100320000Y-107940000D01*
X123180000Y-62230000D02*
X121910000Y-63500000D01*
X187330000Y-106040000D02*
X187330000Y-82550000D01*
X187330000Y-75565000D02*
X187955000Y-76190000D01*
X118110000Y-104775000D02*
X121910000Y-100975000D01*
X186060000Y-83820000D02*
X184785000Y-83820000D01*
X121910000Y-52080000D02*
X121910000Y-63500000D01*
X187955000Y-96510000D02*
X189870000Y-96510000D01*
X121910000Y-100975000D02*
X121920000Y-100965000D01*
X118110000Y-119380000D02*
X119380000Y-118110000D01*
X123170000Y-80020000D02*
X124470000Y-80020000D01*
X186690000Y-60960000D02*
X189865000Y-60960000D01*
X217170000Y-97790000D02*
X215890000Y-99070000D01*
X101600000Y-123190000D02*
X101600000Y-124460000D01*
X187955000Y-91430000D02*
X189865000Y-91430000D01*
X217170000Y-78105000D02*
X215900000Y-76835000D01*
X121910000Y-63500000D02*
X121910000Y-81280000D01*
X217170000Y-85725000D02*
X217170000Y-97790000D01*
X187325000Y-80645000D02*
X187950000Y-81270000D01*
X211201000Y-50546000D02*
X123444000Y-50546000D01*
X187330000Y-106045000D02*
X187330000Y-111755000D01*
X177800000Y-60960000D02*
X184150000Y-60960000D01*
X99060000Y-106680000D02*
X118110000Y-106680000D01*
X88550000Y-118488750D02*
X88550000Y-111070000D01*
X121910000Y-99060000D02*
X121920000Y-99050000D01*
X212090000Y-75184000D02*
X212090000Y-52070000D01*
X187330000Y-82550000D02*
X186060000Y-83820000D01*
X187955000Y-86350000D02*
X189870000Y-86350000D01*
X88550000Y-111070000D02*
X92130000Y-111070000D01*
X88550000Y-111070000D02*
X75620000Y-111070000D01*
X152400000Y-102235000D02*
X152400000Y-113030000D01*
X187330000Y-76200000D02*
X187330000Y-61600000D01*
X187330000Y-90805000D02*
X187955000Y-91430000D01*
X123444000Y-50546000D02*
X121910000Y-52080000D01*
X187950000Y-66030000D02*
X189865000Y-66030000D01*
X121910000Y-81280000D02*
X123170000Y-80020000D01*
X87630000Y-119408750D02*
X88550000Y-118488750D01*
X187955000Y-76190000D02*
X189865000Y-76190000D01*
X88900000Y-125730000D02*
X87630000Y-124460000D01*
X119380000Y-118110000D02*
X119380000Y-107950000D01*
X187330000Y-111755000D02*
X184785000Y-114300000D01*
X187325000Y-65405000D02*
X187950000Y-66030000D01*
X92130000Y-111070000D02*
X96520000Y-106680000D01*
X116840000Y-119380000D02*
X118110000Y-119380000D01*
X75620000Y-111070000D02*
X72390000Y-114300000D01*
X187330000Y-100965000D02*
X187955000Y-101590000D01*
X123170000Y-97800000D02*
X121910000Y-99060000D01*
X187950000Y-81270000D02*
X189865000Y-81270000D01*
X187955000Y-101590000D02*
X189865000Y-101590000D01*
X121910000Y-100975000D02*
X121910000Y-99060000D01*
X187955000Y-106670000D02*
X187330000Y-106045000D01*
X87630000Y-124460000D02*
X87630000Y-123190000D01*
X87630000Y-123190000D02*
X87630000Y-119408750D01*
X212725000Y-52070000D02*
X211201000Y-50546000D01*
X217170000Y-85725000D02*
X217170000Y-78105000D01*
X101600000Y-124460000D02*
X100330000Y-125730000D01*
X121920000Y-100965000D02*
X151130000Y-100965000D01*
X184785000Y-114300000D02*
X177800000Y-114300000D01*
X100320000Y-107940000D02*
X100320000Y-109230000D01*
X186680000Y-76850000D02*
X184785000Y-76850000D01*
X184150000Y-60960000D02*
X186690000Y-60960000D01*
X187330000Y-76200000D02*
X186680000Y-76850000D01*
X72390000Y-114300000D02*
X72390000Y-119380000D01*
X153670000Y-114300000D02*
X154940000Y-114300000D01*
X118110000Y-106680000D02*
X118110000Y-104775000D01*
X121920000Y-99050000D02*
X121920000Y-81290000D01*
X124470000Y-97800000D02*
X123170000Y-97800000D01*
X215880000Y-87015000D02*
X214650000Y-87015000D01*
X152400000Y-113030000D02*
X153670000Y-114300000D01*
X215890000Y-99070000D02*
X214640000Y-99070000D01*
D25*
%TO.N,Current A*%
X199390000Y-62865000D02*
X198755000Y-63500000D01*
X212745000Y-79395000D02*
X214650000Y-79395000D01*
X171450000Y-109220000D02*
X172085000Y-108585000D01*
X211455000Y-78105000D02*
X212745000Y-79395000D01*
X198247000Y-57785000D02*
X199390000Y-58928000D01*
X211455000Y-69215000D02*
X211455000Y-78105000D01*
X154940000Y-109220000D02*
X171450000Y-109220000D01*
X214650000Y-81935000D02*
X214650000Y-79395000D01*
X173037500Y-57785000D02*
X198247000Y-57785000D01*
X199390000Y-58928000D02*
X199390000Y-62865000D01*
X198755000Y-63500000D02*
X197485000Y-63500000D01*
X172085000Y-108585000D02*
X172085000Y-58737500D01*
X172085000Y-58737500D02*
X173037500Y-57785000D01*
%TO.N,Current B*%
X171450000Y-106045000D02*
X170815000Y-106680000D01*
X171450000Y-58420000D02*
X171450000Y-106045000D01*
X210820000Y-90170000D02*
X212100000Y-91450000D01*
X172720000Y-57150000D02*
X171450000Y-58420000D01*
X212100000Y-91450000D02*
X214640000Y-91450000D01*
X198628000Y-57150000D02*
X172720000Y-57150000D01*
X200025000Y-69850000D02*
X200025000Y-58547000D01*
X214640000Y-91450000D02*
X214640000Y-93990000D01*
X199390000Y-68580000D02*
X197490000Y-68580000D01*
X200025000Y-67945000D02*
X199390000Y-68580000D01*
X170815000Y-106680000D02*
X154940000Y-106680000D01*
X200025000Y-58547000D02*
X198628000Y-57150000D01*
X210820000Y-69850000D02*
X210820000Y-90170000D01*
%TO.N,Current C*%
X154940000Y-104140000D02*
X170180000Y-104140000D01*
X170815000Y-103505000D02*
X170815000Y-58039000D01*
X222270000Y-81935000D02*
X222270000Y-84475000D01*
X223500000Y-81935000D02*
X222270000Y-81935000D01*
X224790000Y-77152500D02*
X224790000Y-80645000D01*
X200660000Y-73025000D02*
X200025000Y-73660000D01*
X199009000Y-56515000D02*
X200660000Y-58166000D01*
X213360000Y-70485000D02*
X213360000Y-73914000D01*
X223202500Y-75565000D02*
X224790000Y-77152500D01*
X200025000Y-73660000D02*
X197490000Y-73660000D01*
X213360000Y-73914000D02*
X215011000Y-75565000D01*
X224790000Y-80645000D02*
X223500000Y-81935000D01*
X170815000Y-58039000D02*
X172339000Y-56515000D01*
X170180000Y-104140000D02*
X170815000Y-103505000D01*
X215011000Y-75565000D02*
X223202500Y-75565000D01*
X172339000Y-56515000D02*
X199009000Y-56515000D01*
X200660000Y-58166000D02*
X200660000Y-73025000D01*
%TO.N,Current N*%
X224145000Y-93990000D02*
X222260000Y-93990000D01*
X225425000Y-92710000D02*
X224145000Y-93990000D01*
X201295000Y-78105000D02*
X200660000Y-78740000D01*
X170180000Y-100965000D02*
X170180000Y-57658000D01*
X213995000Y-71120000D02*
X213995000Y-73660000D01*
X200660000Y-78740000D02*
X197490000Y-78740000D01*
X171958000Y-55880000D02*
X199390000Y-55880000D01*
X223520000Y-74930000D02*
X225425000Y-76835000D01*
X154940000Y-101600000D02*
X169545000Y-101600000D01*
X170180000Y-57658000D02*
X171958000Y-55880000D01*
X215265000Y-74930000D02*
X223520000Y-74930000D01*
X222260000Y-93990000D02*
X222260000Y-96530000D01*
X169545000Y-101600000D02*
X170180000Y-100965000D01*
X201295000Y-57785000D02*
X201295000Y-78105000D01*
X199390000Y-55880000D02*
X201295000Y-57785000D01*
X213995000Y-73660000D02*
X215265000Y-74930000D01*
X225425000Y-76835000D02*
X225425000Y-92710000D01*
%TO.N,TC A-2*%
X194945000Y-112395000D02*
X191135000Y-116205000D01*
X204685585Y-113030000D02*
X201295000Y-116420585D01*
X211455000Y-123825000D02*
X208915000Y-126365000D01*
X219075000Y-126365000D02*
X221615000Y-123825000D01*
X110490000Y-113030000D02*
X110490000Y-116840000D01*
X183515000Y-126365000D02*
X186690000Y-123190000D01*
X186690000Y-115570000D02*
X191135000Y-111125000D01*
X111125000Y-126365000D02*
X183515000Y-126365000D01*
X211455000Y-111760000D02*
X210185000Y-113030000D01*
X183515000Y-126365000D02*
X188595000Y-126365000D01*
X110490000Y-125730000D02*
X111125000Y-126365000D01*
X191135000Y-116205000D02*
X191135000Y-120015000D01*
X207645000Y-110490000D02*
X205740000Y-112395000D01*
X191135000Y-111125000D02*
X198755000Y-111125000D01*
X201295000Y-123825000D02*
X198755000Y-126365000D01*
X229235000Y-112395000D02*
X227965000Y-113665000D01*
X110490000Y-121920000D02*
X110490000Y-125730000D01*
X188595000Y-126365000D02*
X198755000Y-126365000D01*
X229235000Y-109220000D02*
X229235000Y-112395000D01*
X221615000Y-123825000D02*
X221615000Y-120015000D01*
X198755000Y-126365000D02*
X219075000Y-126365000D01*
X212725000Y-113665000D02*
X211455000Y-114935000D01*
X210185000Y-113030000D02*
X204685585Y-113030000D01*
X186690000Y-123190000D02*
X186690000Y-115570000D01*
X211455000Y-109220000D02*
X211455000Y-111760000D01*
X191135000Y-120015000D02*
X191135000Y-123825000D01*
X205740000Y-112395000D02*
X194945000Y-112395000D01*
X227965000Y-113665000D02*
X212725000Y-113665000D01*
X207645000Y-109220000D02*
X207645000Y-110490000D01*
X201295000Y-116420585D02*
X201295000Y-120015000D01*
X211455000Y-120015000D02*
X211455000Y-123825000D01*
X201295000Y-120015000D02*
X201295000Y-123825000D01*
X211455000Y-114935000D02*
X211455000Y-120015000D01*
X191135000Y-123825000D02*
X188595000Y-126365000D01*
X107940000Y-109230000D02*
X105400000Y-109230000D01*
%TO.N,TC C-1*%
X229235000Y-100330000D02*
X229235000Y-99060000D01*
X225425000Y-104140000D02*
X229235000Y-100330000D01*
%TO.N,TC N-1*%
X222270000Y-99060000D02*
X222260000Y-99070000D01*
D26*
%TO.N,Power*%
X69890000Y-111730000D02*
X70550000Y-111070000D01*
X69890000Y-119380000D02*
X69890000Y-111730000D01*
D25*
%TO.N,Net-(U1A-+)*%
X102860000Y-110490000D02*
X102860000Y-109230000D01*
X110250000Y-111760000D02*
X104130000Y-111760000D01*
X116840000Y-109220000D02*
X112790000Y-109220000D01*
X112790000Y-109220000D02*
X110250000Y-111760000D01*
X104130000Y-111760000D02*
X102860000Y-110490000D01*
%TO.N,CS*%
X154940000Y-78740000D02*
X164465000Y-78740000D01*
%TO.N,MOSI*%
X154940000Y-81280000D02*
X165735000Y-81280000D01*
%TO.N,SCK*%
X165100000Y-83820000D02*
X154940000Y-83820000D01*
%TO.N,MISO*%
X154940000Y-86360000D02*
X166370000Y-86360000D01*
%TO.N,Net-(U2B-+)*%
X137150000Y-58420000D02*
X137150000Y-62230000D01*
X132080000Y-62230000D02*
X137150000Y-62230000D01*
%TO.N,System Type*%
X177800000Y-68580000D02*
X180340000Y-68580000D01*
X181610000Y-69850000D02*
X181610000Y-73025000D01*
X182895000Y-74310000D02*
X184785000Y-74310000D01*
X180340000Y-68580000D02*
X181610000Y-69850000D01*
X181610000Y-73025000D02*
X182895000Y-74310000D01*
%TO.N,UART TX*%
X177800000Y-63500000D02*
X184785000Y-63500000D01*
%TO.N,UART RX*%
X177800000Y-66040000D02*
X184785000Y-66040000D01*
%TO.N,Net-(U3B-+)*%
X137150000Y-76200000D02*
X137150000Y-80010000D01*
X137140000Y-80020000D02*
X137150000Y-80010000D01*
X132090000Y-80020000D02*
X137140000Y-80020000D01*
%TO.N,Net-(U4B-+)*%
X132090000Y-97800000D02*
X137140000Y-97800000D01*
X137140000Y-97800000D02*
X137150000Y-97790000D01*
X137150000Y-93980000D02*
X137150000Y-97790000D01*
D26*
%TO.N,Vin*%
X221000000Y-79395000D02*
X222270000Y-79395000D01*
X220926500Y-91450000D02*
X222260000Y-91450000D01*
X213995000Y-76200000D02*
X217805000Y-76200000D01*
X212725000Y-74930000D02*
X213995000Y-76200000D01*
X219710000Y-78105000D02*
X221000000Y-79395000D01*
X212725000Y-52070000D02*
X212725000Y-74930000D01*
X219710000Y-90233500D02*
X220926500Y-91450000D01*
X219710000Y-78105000D02*
X219710000Y-90233500D01*
X217805000Y-76200000D02*
X219710000Y-78105000D01*
%TD*%
M02*
