M48
; DRILL file {KiCad 7.0.10} date Fri May  3 21:10:46 2024
; FORMAT={-:-/ absolute / inch / decimal}
; #@! TF.CreationDate,2024-05-03T21:10:46-03:00
; #@! TF.GenerationSoftware,Kicad,Pcbnew,7.0.10
; #@! TF.FileFunction,Plated,1,2,PTH
FMAT,2
INCH
; #@! TA.AperFunction,Plated,PTH,ViaDrill
T1C0.0079
; #@! TA.AperFunction,Plated,PTH,ViaDrill
T2C0.0098
; #@! TA.AperFunction,Plated,PTH,ComponentDrill
T3C0.0295
; #@! TA.AperFunction,Plated,PTH,ComponentDrill
T4C0.0315
; #@! TA.AperFunction,Plated,PTH,ComponentDrill
T5C0.0394
; #@! TA.AperFunction,Plated,PTH,ComponentDrill
T6C0.0402
; #@! TA.AperFunction,Plated,PTH,ComponentDrill
T7C0.0433
; #@! TA.AperFunction,Plated,PTH,ComponentDrill
T8C0.0598
%
G90
G05
T1
X6.625Y-5.425
X6.65Y-3.675
X6.65Y-4.375
X6.675Y-3.1
X6.95Y-3.375
X7.0Y-4.05
X7.45Y-3.6
X7.475Y-3.8
X7.5Y-3.7
X7.5002Y-2.6498
X7.515Y-2.6246
X7.525Y-3.9
X7.53Y-2.5996
X7.545Y-2.5746
X7.56Y-2.5496
X7.575Y-2.5246
X7.59Y-2.4996
X7.605Y-2.4746
X7.62Y-2.4496
X7.75Y-1.65
X7.75Y-1.675
X7.75Y-2.425
T2
X5.55Y-2.05
X7.815Y-2.0246
X7.815Y-2.76
T3
X5.85Y-2.0748
X5.85Y-2.3748
X5.95Y-2.0746
X5.95Y-2.3746
X6.05Y-2.075
X6.05Y-2.375
X6.15Y-2.0746
X6.15Y-2.3746
X6.25Y-2.0748
X6.25Y-2.3748
X6.35Y-2.0746
X6.35Y-2.3746
X6.45Y-2.0748
X6.45Y-2.3748
X6.55Y-2.0746
X6.55Y-2.3746
X6.65Y-2.075
X6.65Y-2.375
X6.75Y-2.0748
X6.75Y-2.3748
X6.85Y-2.075
X6.85Y-2.375
X6.95Y-2.0746
X6.95Y-2.3746
X7.05Y-2.075
X7.05Y-2.375
X7.15Y-2.0748
X7.15Y-2.3748
X7.25Y-2.075
X7.25Y-2.375
X7.35Y-2.0746
X7.35Y-2.3746
X7.45Y-2.075
X7.45Y-2.375
X7.55Y-2.0748
X7.55Y-2.3748
X7.65Y-2.0748
X7.65Y-2.3748
X7.75Y-2.0748
X7.75Y-2.3748
T4
X3.8266Y-5.2
X3.925Y-5.2
X4.025Y-1.975
X4.025Y-2.375
X4.275Y-2.65
X4.275Y-2.85
X4.275Y-3.05
X4.425Y-1.975
X4.425Y-2.375
X4.675Y-2.65
X4.675Y-2.85
X4.675Y-3.05
X4.825Y-1.975
X4.825Y-2.375
X4.9963Y-5.35
X5.0246Y-4.8004
X5.0246Y-5.1004
X5.075Y-5.35
X5.1246Y-4.8004
X5.1246Y-5.1004
X5.2246Y-4.8004
X5.2246Y-5.1004
X5.225Y-1.975
X5.225Y-2.375
X5.3246Y-4.8004
X5.3246Y-5.1004
X5.5156Y-4.8
X5.5156Y-5.2
X5.675Y-4.8
X5.675Y-5.2
X5.775Y-2.65
X5.775Y-3.05
X5.775Y-3.35
X5.775Y-3.75
X5.775Y-4.05
X5.775Y-4.45
X5.975Y-3.075
X5.975Y-3.175
X5.975Y-3.275
X5.975Y-3.375
X5.9754Y-3.7754
X5.9754Y-3.8754
X5.9754Y-3.9754
X5.9754Y-4.0754
X5.9754Y-4.4754
X5.9754Y-4.5754
X5.9754Y-4.6754
X5.9754Y-4.7754
X5.9996Y-1.5504
X5.9996Y-1.8504
X6.0996Y-1.5504
X6.0996Y-1.8504
X6.1996Y-1.5504
X6.1996Y-1.8504
X6.275Y-3.075
X6.275Y-3.175
X6.275Y-3.275
X6.275Y-3.375
X6.2754Y-3.7754
X6.2754Y-3.8754
X6.2754Y-3.9754
X6.2754Y-4.0754
X6.2754Y-4.4754
X6.2754Y-4.5754
X6.2754Y-4.6754
X6.2754Y-4.7754
X6.2996Y-1.5504
X6.2996Y-1.8504
X6.45Y-3.225
X6.45Y-3.375
X6.45Y-3.925
X6.45Y-4.075
X6.45Y-4.625
X6.45Y-4.775
X6.6746Y-1.5504
X6.6746Y-1.8504
X6.7746Y-1.5504
X6.7746Y-1.8504
X6.85Y-3.225
X6.85Y-3.375
X6.85Y-3.925
X6.85Y-4.075
X6.85Y-4.625
X6.85Y-4.775
X6.8746Y-1.5504
X6.8746Y-1.8504
X6.9746Y-1.5504
X6.9746Y-1.8504
T5
X3.8526Y-4.8728
X4.0888Y-3.55
X4.175Y-5.1
X4.175Y-5.2
X4.175Y-5.3
X4.325Y-3.55
X4.5612Y-4.8728
X5.0781Y-2.65
X5.0781Y-3.15
X5.0781Y-3.35
X5.0781Y-3.85
X5.0781Y-4.05
X5.0781Y-4.55
X5.4719Y-2.65
X5.4719Y-3.15
X5.4719Y-3.35
X5.4719Y-3.85
X5.4719Y-4.05
X5.4719Y-4.55
X7.8004Y-1.775
X7.9004Y-1.775
X8.0004Y-1.775
X8.1004Y-1.775
X8.25Y-2.0
X8.25Y-2.1
X8.25Y-2.2
X8.25Y-2.3
X8.25Y-2.4
X8.25Y-2.5
X8.25Y-2.7
X8.25Y-2.9
X8.25Y-3.0
X8.25Y-3.1
X8.25Y-3.3
X8.25Y-3.4
X8.25Y-3.5
X8.25Y-3.7
X8.25Y-3.8
X8.25Y-3.9
X8.25Y-4.0
X8.25Y-4.1
X8.25Y-4.2
T6
X7.075Y-2.9
X7.075Y-3.0
X7.075Y-3.1
X7.075Y-3.2
X7.075Y-3.3
X7.075Y-3.4
X7.075Y-3.5
X7.075Y-3.6
X7.075Y-3.7
X7.075Y-3.8
X7.075Y-3.9
X7.075Y-4.0
X7.075Y-4.1
X7.075Y-4.2
X7.075Y-4.3
X7.075Y-4.4
X7.075Y-4.5
X7.075Y-4.6
X7.075Y-4.7
X7.075Y-4.8
X7.075Y-4.9
X7.075Y-5.0
X7.975Y-2.9
X7.975Y-3.0
X7.975Y-3.1
X7.975Y-3.2
X7.975Y-3.3
X7.975Y-3.4
X7.975Y-3.5
X7.975Y-3.6
X7.975Y-3.7
X7.975Y-3.8
X7.975Y-3.9
X7.975Y-4.0
X7.975Y-4.1
X7.975Y-4.2
X7.975Y-4.3
X7.975Y-4.4
X7.975Y-4.5
X7.975Y-4.6
X7.975Y-4.7
X7.975Y-4.8
X7.975Y-4.9
X7.975Y-5.0
T7
X4.525Y-5.35
X4.625Y-5.35
X4.725Y-5.35
T8
X3.825Y-1.75
X3.925Y-2.65
X3.925Y-2.85
X3.925Y-3.05
X3.925Y-3.25
X4.025Y-1.75
X4.225Y-1.75
X4.425Y-1.75
X4.625Y-1.75
X4.825Y-1.75
X5.025Y-1.75
X5.225Y-1.75
M30
