%TF.GenerationSoftware,KiCad,Pcbnew,7.0.10*%
%TF.CreationDate,2024-05-09T15:11:22-03:00*%
%TF.ProjectId,board,626f6172-642e-46b6-9963-61645f706362,1.6*%
%TF.SameCoordinates,Original*%
%TF.FileFunction,Soldermask,Top*%
%TF.FilePolarity,Negative*%
%FSLAX46Y46*%
G04 Gerber Fmt 4.6, Leading zero omitted, Abs format (unit mm)*
G04 Created by KiCad (PCBNEW 7.0.10) date 2024-05-09 15:11:22*
%MOMM*%
%LPD*%
G01*
G04 APERTURE LIST*
%ADD10O,1.500000X1.500000*%
%ADD11C,1.600000*%
%ADD12O,1.600000X1.600000*%
%ADD13O,1.700000X1.700000*%
%ADD14O,2.000000X2.000000*%
%ADD15C,2.000000*%
%ADD16O,1.734000X1.734000*%
%ADD17C,1.734000*%
%ADD18O,3.000000X3.000000*%
%ADD19C,3.000000*%
%ADD20O,1.712000X1.712000*%
%ADD21C,1.712000*%
%ADD22O,1.905000X2.000000*%
G04 APERTURE END LIST*
D10*
%TO.C,DZ17*%
X149352000Y-52695000D03*
X149352000Y-60315000D03*
%TD*%
%TO.C,DZ14*%
X156972000Y-60320000D03*
X156972000Y-52700000D03*
%TD*%
D11*
%TO.C,R9*%
X163830000Y-69850000D03*
D12*
X163830000Y-80010000D03*
%TD*%
D10*
%TO.C,DZ2*%
X187452000Y-60320000D03*
X187452000Y-52700000D03*
%TD*%
D13*
%TO.C,SW2*%
X202692000Y-83820000D03*
X202692000Y-86360000D03*
X202692000Y-88900000D03*
%TD*%
D11*
%TO.C,R7*%
X146685000Y-95250000D03*
D12*
X146685000Y-85090000D03*
%TD*%
%TO.C,U4*%
X151775000Y-107960000D03*
X151775000Y-110500000D03*
X151775000Y-113040000D03*
X151775000Y-115580000D03*
X159395000Y-115580000D03*
X159395000Y-113040000D03*
X159395000Y-110500000D03*
X159395000Y-107960000D03*
%TD*%
D14*
%TO.C,PS1*%
X109855000Y-90170000D03*
D15*
X103855000Y-90170000D03*
X115855000Y-123770000D03*
X97855000Y-123770000D03*
%TD*%
D11*
%TO.C,R15*%
X122555000Y-60325000D03*
D12*
X122555000Y-50165000D03*
%TD*%
D11*
%TO.C,R16*%
X112395000Y-60325000D03*
D12*
X112395000Y-50165000D03*
%TD*%
D16*
%TO.C,MCU1*%
X172847000Y-73660000D03*
D17*
X172847000Y-76200000D03*
X172847000Y-78740000D03*
X172847000Y-81280000D03*
X172847000Y-83820000D03*
X172847000Y-86360000D03*
X172847000Y-88900000D03*
X172847000Y-91440000D03*
X172847000Y-93980000D03*
X172847000Y-96520000D03*
X172847000Y-99060000D03*
X172847000Y-101600000D03*
X172847000Y-104140000D03*
X172847000Y-106680000D03*
X172847000Y-109220000D03*
X172847000Y-111760000D03*
X172847000Y-114300000D03*
X172847000Y-116840000D03*
X172847000Y-119380000D03*
X172847000Y-121920000D03*
X172847000Y-124460000D03*
X172847000Y-127000000D03*
X195707000Y-73660000D03*
X195707000Y-76200000D03*
X195707000Y-78740000D03*
X195707000Y-81280000D03*
X195707000Y-83820000D03*
X195707000Y-86360000D03*
X195707000Y-88900000D03*
X195707000Y-91440000D03*
X195707000Y-93980000D03*
X195707000Y-96520000D03*
X195707000Y-99060000D03*
X195707000Y-101600000D03*
X195707000Y-104140000D03*
X195707000Y-106680000D03*
X195707000Y-109220000D03*
X195707000Y-111760000D03*
X195707000Y-114300000D03*
X195707000Y-116840000D03*
X195707000Y-119380000D03*
X195707000Y-121920000D03*
X195707000Y-124460000D03*
X195707000Y-127000000D03*
%TD*%
D12*
%TO.C,U3*%
X151775000Y-90180000D03*
X151775000Y-92720000D03*
X151775000Y-95260000D03*
X151775000Y-97800000D03*
X159395000Y-97800000D03*
X159395000Y-95260000D03*
X159395000Y-92720000D03*
X159395000Y-90180000D03*
%TD*%
D10*
%TO.C,DZ13*%
X159512000Y-52695000D03*
X159512000Y-60315000D03*
%TD*%
D11*
%TO.C,R18*%
X102235000Y-60325000D03*
D12*
X102235000Y-50165000D03*
%TD*%
D10*
%TO.C,DZ6*%
X177292000Y-60325000D03*
X177292000Y-52705000D03*
%TD*%
%TO.C,DZ18*%
X146812000Y-60325000D03*
X146812000Y-52705000D03*
%TD*%
%TO.C,DZ5*%
X179832000Y-52695000D03*
X179832000Y-60315000D03*
%TD*%
D18*
%TO.C,J6*%
X102235000Y-44450000D03*
D19*
X97155000Y-44450000D03*
%TD*%
D13*
%TO.C,P1*%
X202692000Y-78740000D03*
X202692000Y-76200000D03*
X202692000Y-73660000D03*
%TD*%
D11*
%TO.C,R1*%
X163830000Y-130810000D03*
D12*
X163830000Y-120650000D03*
%TD*%
D20*
%TO.C,T1*%
X128985000Y-67310000D03*
D21*
X128985000Y-80010000D03*
X138985000Y-80010000D03*
X138985000Y-67310000D03*
%TD*%
D11*
%TO.C,R11*%
X163830000Y-87630000D03*
D12*
X163830000Y-97790000D03*
%TD*%
%TO.C,U1*%
X159375000Y-121295000D03*
X156835000Y-121295000D03*
X154295000Y-121295000D03*
X151755000Y-121295000D03*
X151755000Y-128915000D03*
X154295000Y-128915000D03*
X156835000Y-128915000D03*
X159375000Y-128915000D03*
%TD*%
D10*
%TO.C,DZ11*%
X164592000Y-52700000D03*
X164592000Y-60320000D03*
%TD*%
D13*
%TO.C,SW1*%
X131445000Y-122555000D03*
X131445000Y-125095000D03*
X131445000Y-127635000D03*
%TD*%
D11*
%TO.C,R13*%
X163830000Y-105410000D03*
D12*
X163830000Y-115570000D03*
%TD*%
D20*
%TO.C,T3*%
X128985000Y-102870000D03*
D21*
X128985000Y-115570000D03*
X138985000Y-115570000D03*
X138985000Y-102870000D03*
%TD*%
D11*
%TO.C,R6*%
X146685000Y-77470000D03*
D12*
X146685000Y-67310000D03*
%TD*%
D10*
%TO.C,DZ3*%
X184912000Y-52700000D03*
X184912000Y-60320000D03*
%TD*%
D11*
%TO.C,R10*%
X167132000Y-69850000D03*
D12*
X167132000Y-80010000D03*
%TD*%
D10*
%TO.C,DZ16*%
X151892000Y-60320000D03*
X151892000Y-52700000D03*
%TD*%
%TO.C,DZ15*%
X154432000Y-52695000D03*
X154432000Y-60315000D03*
%TD*%
D11*
%TO.C,R3*%
X118745000Y-67310000D03*
D12*
X108585000Y-67310000D03*
%TD*%
D11*
%TO.C,R12*%
X167132000Y-87630000D03*
D12*
X167132000Y-97790000D03*
%TD*%
D10*
%TO.C,DZ12*%
X162052000Y-60325000D03*
X162052000Y-52705000D03*
%TD*%
D12*
%TO.C,C2*%
X141681200Y-129057400D03*
D11*
X139681200Y-129057400D03*
%TD*%
D18*
%TO.C,J3*%
X132715000Y-44450000D03*
D19*
X127635000Y-44450000D03*
%TD*%
D11*
%TO.C,R14*%
X167132000Y-105410000D03*
D12*
X167132000Y-115570000D03*
%TD*%
D18*
%TO.C,J1*%
X100330000Y-67310000D03*
D19*
X100330000Y-72390000D03*
%TD*%
D13*
%TO.C,P4*%
X202692000Y-63500000D03*
X202692000Y-60960000D03*
X202692000Y-58420000D03*
X202692000Y-55880000D03*
X202692000Y-53340000D03*
X202692000Y-50800000D03*
%TD*%
D10*
%TO.C,DZ9*%
X169672000Y-52695000D03*
X169672000Y-60315000D03*
%TD*%
%TO.C,DZ7*%
X174752000Y-52700000D03*
X174752000Y-60320000D03*
%TD*%
D20*
%TO.C,T2*%
X128985000Y-85090000D03*
D21*
X128985000Y-97790000D03*
X138985000Y-97790000D03*
X138985000Y-85090000D03*
%TD*%
D18*
%TO.C,J5*%
X112395000Y-44450000D03*
D19*
X107315000Y-44450000D03*
%TD*%
D10*
%TO.C,DZ20*%
X141732000Y-60320000D03*
X141732000Y-52700000D03*
%TD*%
D13*
%TO.C,P5*%
X202692000Y-93980000D03*
X202692000Y-96520000D03*
X202692000Y-99060000D03*
X202692000Y-101600000D03*
X202692000Y-104140000D03*
X202692000Y-106680000D03*
%TD*%
D10*
%TO.C,DZ4*%
X182372000Y-60325000D03*
X182372000Y-52705000D03*
%TD*%
D11*
%TO.C,R17*%
X132715000Y-60325000D03*
D12*
X132715000Y-50165000D03*
%TD*%
D13*
%TO.C,P3*%
X191272000Y-45085000D03*
X193812000Y-45085000D03*
X196352000Y-45085000D03*
X198892000Y-45085000D03*
%TD*%
D10*
%TO.C,DZ1*%
X189992000Y-52700000D03*
X189992000Y-60320000D03*
%TD*%
D12*
%TO.C,U6*%
X170297000Y-39380000D03*
X167757000Y-39380000D03*
X165217000Y-39380000D03*
X162677000Y-39380000D03*
X162677000Y-47000000D03*
X165217000Y-47000000D03*
X167757000Y-47000000D03*
X170297000Y-47000000D03*
%TD*%
%TO.C,C1*%
X123277621Y-126365000D03*
D11*
X125777621Y-126365000D03*
%TD*%
%TO.C,R8*%
X146685000Y-113030000D03*
D12*
X146685000Y-102870000D03*
%TD*%
D18*
%TO.C,J2*%
X100330000Y-77470000D03*
D19*
X100330000Y-82550000D03*
%TD*%
D13*
%TO.C,P2*%
X202692000Y-68580000D03*
%TD*%
D22*
%TO.C,PS2*%
X139700000Y-124135000D03*
X142240000Y-124135000D03*
X144780000Y-124135000D03*
%TD*%
D10*
%TO.C,DZ8*%
X172212000Y-60325000D03*
X172212000Y-52705000D03*
%TD*%
%TO.C,DZ10*%
X167132000Y-60325000D03*
X167132000Y-52705000D03*
%TD*%
D11*
%TO.C,R4*%
X118745000Y-72390000D03*
D12*
X108585000Y-72390000D03*
%TD*%
D11*
%TO.C,R5*%
X118745000Y-77470000D03*
D12*
X108585000Y-77470000D03*
%TD*%
%TO.C,U2*%
X151765000Y-72390000D03*
X151765000Y-74930000D03*
X151765000Y-77470000D03*
X151765000Y-80010000D03*
X159385000Y-80010000D03*
X159385000Y-77470000D03*
X159385000Y-74930000D03*
X159385000Y-72390000D03*
%TD*%
D11*
%TO.C,R2*%
X167132000Y-120650000D03*
D12*
X167132000Y-130810000D03*
%TD*%
D18*
%TO.C,J4*%
X122555000Y-44450000D03*
D19*
X117475000Y-44450000D03*
%TD*%
D12*
%TO.C,U5*%
X153152000Y-39380000D03*
X150612000Y-39380000D03*
X148072000Y-39380000D03*
X145532000Y-39380000D03*
X145532000Y-47000000D03*
X148072000Y-47000000D03*
X150612000Y-47000000D03*
X153152000Y-47000000D03*
%TD*%
D10*
%TO.C,DZ19*%
X144272000Y-52695000D03*
X144272000Y-60315000D03*
%TD*%
M02*
