M48
; DRILL file {KiCad 7.0.10} date Thu Mar  7 00:47:12 2024
; FORMAT={-:-/ absolute / metric / decimal}
; #@! TF.CreationDate,2024-03-07T00:47:12-03:00
; #@! TF.GenerationSoftware,Kicad,Pcbnew,7.0.10
; #@! TF.FileFunction,Plated,1,2,PTH
FMAT,2
METRIC
; #@! TA.AperFunction,Plated,PTH,ViaDrill
T1C0.250
; #@! TA.AperFunction,Plated,PTH,ViaDrill
T2C0.400
; #@! TA.AperFunction,Plated,PTH,ComponentDrill
T3C1.000
; #@! TA.AperFunction,Plated,PTH,ComponentDrill
T4C1.520
%
G90
G05
T1
X81.407Y-115.697
X82.042Y-115.697
X82.506Y-118.999
X82.742Y-115.697
X84.03Y-118.364
X85.579Y-117.729
X90.424Y-119.736
X90.424Y-122.936
X92.202Y-120.625
X92.202Y-124.46
X93.98Y-121.539
X93.98Y-126.009
X102.057Y-60.477
X102.057Y-61.9
X103.2Y-58.928
X103.2Y-62.611
X104.343Y-57.404
X104.343Y-63.373
X105.486Y-55.88
X105.486Y-64.135
X108.458Y-106.299
X109.22Y-108.839
X109.982Y-111.379
T2
X76.537Y-118.237
X81.153Y-123.19
X81.172Y-125.62
X84.264Y-80.01
X84.264Y-106.934
X98.93Y-54.254
X101.727Y-123.19
X103.505Y-128.397
T3
X63.453Y-66.929
X63.453Y-79.629
X63.453Y-84.582
X63.453Y-97.282
X63.453Y-102.362
X63.453Y-115.062
X73.453Y-66.929
X73.453Y-79.629
X73.453Y-84.582
X73.453Y-97.282
X73.453Y-102.362
X73.453Y-115.062
X90.558Y-66.929
X90.558Y-79.629
X90.558Y-84.582
X90.558Y-97.282
X90.558Y-102.362
X90.558Y-115.062
X100.558Y-66.929
X100.558Y-79.629
X100.558Y-84.582
X100.558Y-97.282
X100.558Y-102.362
X100.558Y-115.062
X112.878Y-70.739
X112.878Y-73.279
X112.878Y-75.819
X112.878Y-78.359
X112.878Y-80.899
X112.878Y-83.439
X112.878Y-85.979
X112.878Y-88.519
X112.878Y-91.059
X112.878Y-93.599
X112.878Y-96.139
X112.878Y-98.679
X112.878Y-101.219
X112.878Y-103.759
X112.878Y-106.299
X112.878Y-108.839
X112.878Y-111.379
X112.878Y-113.919
X112.878Y-116.459
X112.878Y-118.999
X112.878Y-121.539
X112.878Y-124.079
X138.278Y-70.739
X138.278Y-73.279
X138.278Y-75.819
X138.278Y-78.359
X138.278Y-80.899
X138.278Y-83.439
X138.278Y-85.979
X138.278Y-88.519
X138.278Y-91.059
X138.278Y-93.599
X138.278Y-96.139
X138.278Y-98.679
X138.278Y-101.219
X138.278Y-103.759
X138.278Y-106.299
X138.278Y-108.839
X138.278Y-111.379
X138.278Y-113.919
X138.278Y-116.459
X138.278Y-118.999
X138.278Y-121.539
X138.278Y-124.079
T4
X57.277Y-122.745
X58.115Y-57.328
X62.357Y-122.745
X63.195Y-57.328
X67.437Y-122.745
X68.275Y-57.328
X72.517Y-122.745
X73.355Y-57.328
X78.435Y-57.328
X83.515Y-57.328
X88.595Y-57.328
X93.675Y-57.328
M30
