%TF.GenerationSoftware,KiCad,Pcbnew,7.0.10*%
%TF.CreationDate,2024-03-07T00:47:07-03:00*%
%TF.ProjectId,board,626f6172-642e-46b6-9963-61645f706362,rev?*%
%TF.SameCoordinates,Original*%
%TF.FileFunction,Paste,Top*%
%TF.FilePolarity,Positive*%
%FSLAX46Y46*%
G04 Gerber Fmt 4.6, Leading zero omitted, Abs format (unit mm)*
G04 Created by KiCad (PCBNEW 7.0.10) date 2024-03-07 00:47:07*
%MOMM*%
%LPD*%
G01*
G04 APERTURE LIST*
G04 Aperture macros list*
%AMRoundRect*
0 Rectangle with rounded corners*
0 $1 Rounding radius*
0 $2 $3 $4 $5 $6 $7 $8 $9 X,Y pos of 4 corners*
0 Add a 4 corners polygon primitive as box body*
4,1,4,$2,$3,$4,$5,$6,$7,$8,$9,$2,$3,0*
0 Add four circle primitives for the rounded corners*
1,1,$1+$1,$2,$3*
1,1,$1+$1,$4,$5*
1,1,$1+$1,$6,$7*
1,1,$1+$1,$8,$9*
0 Add four rect primitives between the rounded corners*
20,1,$1+$1,$2,$3,$4,$5,0*
20,1,$1+$1,$4,$5,$6,$7,0*
20,1,$1+$1,$6,$7,$8,$9,0*
20,1,$1+$1,$8,$9,$2,$3,0*%
G04 Aperture macros list end*
%ADD10RoundRect,0.150000X0.150000X0.200000X-0.150000X0.200000X-0.150000X-0.200000X0.150000X-0.200000X0*%
%ADD11RoundRect,0.150000X-0.200000X0.150000X-0.200000X-0.150000X0.200000X-0.150000X0.200000X0.150000X0*%
%ADD12RoundRect,0.250000X0.312500X0.625000X-0.312500X0.625000X-0.312500X-0.625000X0.312500X-0.625000X0*%
%ADD13RoundRect,0.250000X0.625000X-0.312500X0.625000X0.312500X-0.625000X0.312500X-0.625000X-0.312500X0*%
%ADD14RoundRect,0.250000X-0.625000X0.312500X-0.625000X-0.312500X0.625000X-0.312500X0.625000X0.312500X0*%
%ADD15RoundRect,0.250000X-0.312500X-0.625000X0.312500X-0.625000X0.312500X0.625000X-0.312500X0.625000X0*%
%ADD16RoundRect,0.150000X0.200000X-0.150000X0.200000X0.150000X-0.200000X0.150000X-0.200000X-0.150000X0*%
G04 APERTURE END LIST*
D10*
%TO.C,DZ17*%
X107224600Y-60477400D03*
X108624600Y-60477400D03*
%TD*%
D11*
%TO.C,DZ4*%
X82506000Y-121213000D03*
X82506000Y-119813000D03*
%TD*%
D10*
%TO.C,DZ15*%
X98930000Y-57404000D03*
X100330000Y-57404000D03*
%TD*%
%TO.C,DZ10*%
X95439000Y-122936000D03*
X96839000Y-122936000D03*
%TD*%
D12*
%TO.C,R20*%
X93664500Y-62915800D03*
X90739500Y-62915800D03*
%TD*%
D13*
%TO.C,R4*%
X79765300Y-92750100D03*
X79765300Y-89825100D03*
%TD*%
D10*
%TO.C,DZ11*%
X95439000Y-124460000D03*
X96839000Y-124460000D03*
%TD*%
D14*
%TO.C,R11*%
X84264500Y-102362000D03*
X84264500Y-105287000D03*
%TD*%
D15*
%TO.C,R17*%
X60274200Y-62915800D03*
X63199200Y-62915800D03*
%TD*%
D10*
%TO.C,DZ20*%
X107224600Y-55880000D03*
X108624600Y-55880000D03*
%TD*%
%TO.C,DZ7*%
X87565000Y-122936000D03*
X88965000Y-122936000D03*
%TD*%
D12*
%TO.C,R14*%
X79462500Y-125620200D03*
X76537500Y-125620200D03*
%TD*%
D10*
%TO.C,DZ15*%
X98930000Y-55880000D03*
X100330000Y-55880000D03*
%TD*%
D14*
%TO.C,R7*%
X84264500Y-66965100D03*
X84264500Y-69890100D03*
%TD*%
D12*
%TO.C,R19*%
X83519200Y-62915800D03*
X80594200Y-62915800D03*
%TD*%
D13*
%TO.C,R2*%
X79765300Y-75097100D03*
X79765300Y-72172100D03*
%TD*%
D10*
%TO.C,DZ14*%
X98930000Y-58928000D03*
X100330000Y-58928000D03*
%TD*%
D16*
%TO.C,DZ1*%
X79458000Y-119813000D03*
X79458000Y-121213000D03*
%TD*%
D15*
%TO.C,R16*%
X103501000Y-125620200D03*
X106426000Y-125620200D03*
%TD*%
D16*
%TO.C,DZ3*%
X80982000Y-119813000D03*
X80982000Y-121213000D03*
%TD*%
D13*
%TO.C,R12*%
X106870500Y-110530100D03*
X106870500Y-107605100D03*
%TD*%
D15*
%TO.C,R15*%
X103501000Y-123190000D03*
X106426000Y-123190000D03*
%TD*%
D16*
%TO.C,DZ1*%
X77908600Y-119813000D03*
X77908600Y-121213000D03*
%TD*%
D14*
%TO.C,R1*%
X57159300Y-66965100D03*
X57159300Y-69890100D03*
%TD*%
D10*
%TO.C,DZ9*%
X87565000Y-126009400D03*
X88965000Y-126009400D03*
%TD*%
D11*
%TO.C,DZ6*%
X85579400Y-121213000D03*
X85579400Y-119813000D03*
%TD*%
D13*
%TO.C,R8*%
X106870500Y-75097100D03*
X106870500Y-72172100D03*
%TD*%
%TO.C,R6*%
X79765300Y-110530100D03*
X79765300Y-107605100D03*
%TD*%
D14*
%TO.C,R3*%
X57159300Y-84618100D03*
X57159300Y-87543100D03*
%TD*%
D12*
%TO.C,R18*%
X73359200Y-62915800D03*
X70434200Y-62915800D03*
%TD*%
D10*
%TO.C,DZ19*%
X107224600Y-57404000D03*
X108624600Y-57404000D03*
%TD*%
D13*
%TO.C,R5*%
X57159300Y-105348500D03*
X57159300Y-102423500D03*
%TD*%
D10*
%TO.C,DZ8*%
X87565000Y-124460000D03*
X88965000Y-124460000D03*
%TD*%
D13*
%TO.C,R10*%
X106870500Y-92750100D03*
X106870500Y-89825100D03*
%TD*%
D11*
%TO.C,DZ5*%
X84030000Y-121213000D03*
X84030000Y-119813000D03*
%TD*%
D14*
%TO.C,R9*%
X84264500Y-81722500D03*
X84264500Y-84647500D03*
%TD*%
D10*
%TO.C,DZ12*%
X95439000Y-126009400D03*
X96839000Y-126009400D03*
%TD*%
D12*
%TO.C,R13*%
X79462500Y-123190000D03*
X76537500Y-123190000D03*
%TD*%
D10*
%TO.C,DZ13*%
X98930000Y-60477400D03*
X100330000Y-60477400D03*
%TD*%
%TO.C,DZ18*%
X107224600Y-58928000D03*
X108624600Y-58928000D03*
%TD*%
M02*
