%TF.GenerationSoftware,KiCad,Pcbnew,7.0.10*%
%TF.CreationDate,2024-03-07T00:47:07-03:00*%
%TF.ProjectId,board,626f6172-642e-46b6-9963-61645f706362,rev?*%
%TF.SameCoordinates,Original*%
%TF.FileFunction,Legend,Top*%
%TF.FilePolarity,Positive*%
%FSLAX46Y46*%
G04 Gerber Fmt 4.6, Leading zero omitted, Abs format (unit mm)*
G04 Created by KiCad (PCBNEW 7.0.10) date 2024-03-07 00:47:07*
%MOMM*%
%LPD*%
G01*
G04 APERTURE LIST*
%ADD10C,0.200000*%
%ADD11C,0.600000*%
%ADD12C,0.120000*%
%ADD13C,0.127000*%
G04 APERTURE END LIST*
D10*
X116761713Y-56119838D02*
X117142666Y-56119838D01*
X117142666Y-56119838D02*
X117333142Y-56215076D01*
X117333142Y-56215076D02*
X117523618Y-56405552D01*
X117523618Y-56405552D02*
X117618856Y-56786504D01*
X117618856Y-56786504D02*
X117618856Y-57453171D01*
X117618856Y-57453171D02*
X117523618Y-57834123D01*
X117523618Y-57834123D02*
X117333142Y-58024600D01*
X117333142Y-58024600D02*
X117142666Y-58119838D01*
X117142666Y-58119838D02*
X116761713Y-58119838D01*
X116761713Y-58119838D02*
X116571237Y-58024600D01*
X116571237Y-58024600D02*
X116380761Y-57834123D01*
X116380761Y-57834123D02*
X116285523Y-57453171D01*
X116285523Y-57453171D02*
X116285523Y-56786504D01*
X116285523Y-56786504D02*
X116380761Y-56405552D01*
X116380761Y-56405552D02*
X116571237Y-56215076D01*
X116571237Y-56215076D02*
X116761713Y-56119838D01*
X118475999Y-56786504D02*
X118475999Y-58786504D01*
X118475999Y-56881742D02*
X118666475Y-56786504D01*
X118666475Y-56786504D02*
X119047428Y-56786504D01*
X119047428Y-56786504D02*
X119237904Y-56881742D01*
X119237904Y-56881742D02*
X119333142Y-56976980D01*
X119333142Y-56976980D02*
X119428380Y-57167457D01*
X119428380Y-57167457D02*
X119428380Y-57738885D01*
X119428380Y-57738885D02*
X119333142Y-57929361D01*
X119333142Y-57929361D02*
X119237904Y-58024600D01*
X119237904Y-58024600D02*
X119047428Y-58119838D01*
X119047428Y-58119838D02*
X118666475Y-58119838D01*
X118666475Y-58119838D02*
X118475999Y-58024600D01*
X121047428Y-58024600D02*
X120856952Y-58119838D01*
X120856952Y-58119838D02*
X120475999Y-58119838D01*
X120475999Y-58119838D02*
X120285523Y-58024600D01*
X120285523Y-58024600D02*
X120190285Y-57834123D01*
X120190285Y-57834123D02*
X120190285Y-57072219D01*
X120190285Y-57072219D02*
X120285523Y-56881742D01*
X120285523Y-56881742D02*
X120475999Y-56786504D01*
X120475999Y-56786504D02*
X120856952Y-56786504D01*
X120856952Y-56786504D02*
X121047428Y-56881742D01*
X121047428Y-56881742D02*
X121142666Y-57072219D01*
X121142666Y-57072219D02*
X121142666Y-57262695D01*
X121142666Y-57262695D02*
X120190285Y-57453171D01*
X121999809Y-56786504D02*
X121999809Y-58119838D01*
X121999809Y-56976980D02*
X122095047Y-56881742D01*
X122095047Y-56881742D02*
X122285523Y-56786504D01*
X122285523Y-56786504D02*
X122571238Y-56786504D01*
X122571238Y-56786504D02*
X122761714Y-56881742D01*
X122761714Y-56881742D02*
X122856952Y-57072219D01*
X122856952Y-57072219D02*
X122856952Y-58119838D01*
X125237905Y-58024600D02*
X125523619Y-58119838D01*
X125523619Y-58119838D02*
X125999810Y-58119838D01*
X125999810Y-58119838D02*
X126190286Y-58024600D01*
X126190286Y-58024600D02*
X126285524Y-57929361D01*
X126285524Y-57929361D02*
X126380762Y-57738885D01*
X126380762Y-57738885D02*
X126380762Y-57548409D01*
X126380762Y-57548409D02*
X126285524Y-57357933D01*
X126285524Y-57357933D02*
X126190286Y-57262695D01*
X126190286Y-57262695D02*
X125999810Y-57167457D01*
X125999810Y-57167457D02*
X125618857Y-57072219D01*
X125618857Y-57072219D02*
X125428381Y-56976980D01*
X125428381Y-56976980D02*
X125333143Y-56881742D01*
X125333143Y-56881742D02*
X125237905Y-56691266D01*
X125237905Y-56691266D02*
X125237905Y-56500790D01*
X125237905Y-56500790D02*
X125333143Y-56310314D01*
X125333143Y-56310314D02*
X125428381Y-56215076D01*
X125428381Y-56215076D02*
X125618857Y-56119838D01*
X125618857Y-56119838D02*
X126095048Y-56119838D01*
X126095048Y-56119838D02*
X126380762Y-56215076D01*
X127523619Y-58119838D02*
X127333143Y-58024600D01*
X127333143Y-58024600D02*
X127237905Y-57929361D01*
X127237905Y-57929361D02*
X127142667Y-57738885D01*
X127142667Y-57738885D02*
X127142667Y-57167457D01*
X127142667Y-57167457D02*
X127237905Y-56976980D01*
X127237905Y-56976980D02*
X127333143Y-56881742D01*
X127333143Y-56881742D02*
X127523619Y-56786504D01*
X127523619Y-56786504D02*
X127809334Y-56786504D01*
X127809334Y-56786504D02*
X127999810Y-56881742D01*
X127999810Y-56881742D02*
X128095048Y-56976980D01*
X128095048Y-56976980D02*
X128190286Y-57167457D01*
X128190286Y-57167457D02*
X128190286Y-57738885D01*
X128190286Y-57738885D02*
X128095048Y-57929361D01*
X128095048Y-57929361D02*
X127999810Y-58024600D01*
X127999810Y-58024600D02*
X127809334Y-58119838D01*
X127809334Y-58119838D02*
X127523619Y-58119838D01*
X129904572Y-56786504D02*
X129904572Y-58119838D01*
X129047429Y-56786504D02*
X129047429Y-57834123D01*
X129047429Y-57834123D02*
X129142667Y-58024600D01*
X129142667Y-58024600D02*
X129333143Y-58119838D01*
X129333143Y-58119838D02*
X129618858Y-58119838D01*
X129618858Y-58119838D02*
X129809334Y-58024600D01*
X129809334Y-58024600D02*
X129904572Y-57929361D01*
X130856953Y-58119838D02*
X130856953Y-56786504D01*
X130856953Y-57167457D02*
X130952191Y-56976980D01*
X130952191Y-56976980D02*
X131047429Y-56881742D01*
X131047429Y-56881742D02*
X131237905Y-56786504D01*
X131237905Y-56786504D02*
X131428382Y-56786504D01*
X132952191Y-58024600D02*
X132761715Y-58119838D01*
X132761715Y-58119838D02*
X132380762Y-58119838D01*
X132380762Y-58119838D02*
X132190286Y-58024600D01*
X132190286Y-58024600D02*
X132095048Y-57929361D01*
X132095048Y-57929361D02*
X131999810Y-57738885D01*
X131999810Y-57738885D02*
X131999810Y-57167457D01*
X131999810Y-57167457D02*
X132095048Y-56976980D01*
X132095048Y-56976980D02*
X132190286Y-56881742D01*
X132190286Y-56881742D02*
X132380762Y-56786504D01*
X132380762Y-56786504D02*
X132761715Y-56786504D01*
X132761715Y-56786504D02*
X132952191Y-56881742D01*
X134571239Y-58024600D02*
X134380763Y-58119838D01*
X134380763Y-58119838D02*
X133999810Y-58119838D01*
X133999810Y-58119838D02*
X133809334Y-58024600D01*
X133809334Y-58024600D02*
X133714096Y-57834123D01*
X133714096Y-57834123D02*
X133714096Y-57072219D01*
X133714096Y-57072219D02*
X133809334Y-56881742D01*
X133809334Y-56881742D02*
X133999810Y-56786504D01*
X133999810Y-56786504D02*
X134380763Y-56786504D01*
X134380763Y-56786504D02*
X134571239Y-56881742D01*
X134571239Y-56881742D02*
X134666477Y-57072219D01*
X134666477Y-57072219D02*
X134666477Y-57262695D01*
X134666477Y-57262695D02*
X133714096Y-57453171D01*
X119047428Y-61339838D02*
X119047428Y-59339838D01*
X119047428Y-60292219D02*
X120190285Y-60292219D01*
X120190285Y-61339838D02*
X120190285Y-59339838D01*
X121999809Y-61339838D02*
X121999809Y-60292219D01*
X121999809Y-60292219D02*
X121904571Y-60101742D01*
X121904571Y-60101742D02*
X121714095Y-60006504D01*
X121714095Y-60006504D02*
X121333142Y-60006504D01*
X121333142Y-60006504D02*
X121142666Y-60101742D01*
X121999809Y-61244600D02*
X121809333Y-61339838D01*
X121809333Y-61339838D02*
X121333142Y-61339838D01*
X121333142Y-61339838D02*
X121142666Y-61244600D01*
X121142666Y-61244600D02*
X121047428Y-61054123D01*
X121047428Y-61054123D02*
X121047428Y-60863647D01*
X121047428Y-60863647D02*
X121142666Y-60673171D01*
X121142666Y-60673171D02*
X121333142Y-60577933D01*
X121333142Y-60577933D02*
X121809333Y-60577933D01*
X121809333Y-60577933D02*
X121999809Y-60482695D01*
X122952190Y-61339838D02*
X122952190Y-60006504D01*
X122952190Y-60387457D02*
X123047428Y-60196980D01*
X123047428Y-60196980D02*
X123142666Y-60101742D01*
X123142666Y-60101742D02*
X123333142Y-60006504D01*
X123333142Y-60006504D02*
X123523619Y-60006504D01*
X125047428Y-61339838D02*
X125047428Y-59339838D01*
X125047428Y-61244600D02*
X124856952Y-61339838D01*
X124856952Y-61339838D02*
X124475999Y-61339838D01*
X124475999Y-61339838D02*
X124285523Y-61244600D01*
X124285523Y-61244600D02*
X124190285Y-61149361D01*
X124190285Y-61149361D02*
X124095047Y-60958885D01*
X124095047Y-60958885D02*
X124095047Y-60387457D01*
X124095047Y-60387457D02*
X124190285Y-60196980D01*
X124190285Y-60196980D02*
X124285523Y-60101742D01*
X124285523Y-60101742D02*
X124475999Y-60006504D01*
X124475999Y-60006504D02*
X124856952Y-60006504D01*
X124856952Y-60006504D02*
X125047428Y-60101742D01*
X125809333Y-60006504D02*
X126190285Y-61339838D01*
X126190285Y-61339838D02*
X126571238Y-60387457D01*
X126571238Y-60387457D02*
X126952190Y-61339838D01*
X126952190Y-61339838D02*
X127333142Y-60006504D01*
X128952190Y-61339838D02*
X128952190Y-60292219D01*
X128952190Y-60292219D02*
X128856952Y-60101742D01*
X128856952Y-60101742D02*
X128666476Y-60006504D01*
X128666476Y-60006504D02*
X128285523Y-60006504D01*
X128285523Y-60006504D02*
X128095047Y-60101742D01*
X128952190Y-61244600D02*
X128761714Y-61339838D01*
X128761714Y-61339838D02*
X128285523Y-61339838D01*
X128285523Y-61339838D02*
X128095047Y-61244600D01*
X128095047Y-61244600D02*
X127999809Y-61054123D01*
X127999809Y-61054123D02*
X127999809Y-60863647D01*
X127999809Y-60863647D02*
X128095047Y-60673171D01*
X128095047Y-60673171D02*
X128285523Y-60577933D01*
X128285523Y-60577933D02*
X128761714Y-60577933D01*
X128761714Y-60577933D02*
X128952190Y-60482695D01*
X129904571Y-61339838D02*
X129904571Y-60006504D01*
X129904571Y-60387457D02*
X129999809Y-60196980D01*
X129999809Y-60196980D02*
X130095047Y-60101742D01*
X130095047Y-60101742D02*
X130285523Y-60006504D01*
X130285523Y-60006504D02*
X130476000Y-60006504D01*
X131904571Y-61244600D02*
X131714095Y-61339838D01*
X131714095Y-61339838D02*
X131333142Y-61339838D01*
X131333142Y-61339838D02*
X131142666Y-61244600D01*
X131142666Y-61244600D02*
X131047428Y-61054123D01*
X131047428Y-61054123D02*
X131047428Y-60292219D01*
X131047428Y-60292219D02*
X131142666Y-60101742D01*
X131142666Y-60101742D02*
X131333142Y-60006504D01*
X131333142Y-60006504D02*
X131714095Y-60006504D01*
X131714095Y-60006504D02*
X131904571Y-60101742D01*
X131904571Y-60101742D02*
X131999809Y-60292219D01*
X131999809Y-60292219D02*
X131999809Y-60482695D01*
X131999809Y-60482695D02*
X131047428Y-60673171D01*
X116785522Y-53810552D02*
X116785522Y-54620076D01*
X116785522Y-54620076D02*
X116737903Y-54715314D01*
X116737903Y-54715314D02*
X116690284Y-54762933D01*
X116690284Y-54762933D02*
X116595046Y-54810552D01*
X116595046Y-54810552D02*
X116452189Y-54810552D01*
X116452189Y-54810552D02*
X116356951Y-54762933D01*
X116785522Y-54429600D02*
X116690284Y-54477219D01*
X116690284Y-54477219D02*
X116499808Y-54477219D01*
X116499808Y-54477219D02*
X116404570Y-54429600D01*
X116404570Y-54429600D02*
X116356951Y-54381980D01*
X116356951Y-54381980D02*
X116309332Y-54286742D01*
X116309332Y-54286742D02*
X116309332Y-54001028D01*
X116309332Y-54001028D02*
X116356951Y-53905790D01*
X116356951Y-53905790D02*
X116404570Y-53858171D01*
X116404570Y-53858171D02*
X116499808Y-53810552D01*
X116499808Y-53810552D02*
X116690284Y-53810552D01*
X116690284Y-53810552D02*
X116785522Y-53858171D01*
X117261713Y-54477219D02*
X117261713Y-53810552D01*
X117261713Y-53477219D02*
X117214094Y-53524838D01*
X117214094Y-53524838D02*
X117261713Y-53572457D01*
X117261713Y-53572457D02*
X117309332Y-53524838D01*
X117309332Y-53524838D02*
X117261713Y-53477219D01*
X117261713Y-53477219D02*
X117261713Y-53572457D01*
X117595046Y-53810552D02*
X117975998Y-53810552D01*
X117737903Y-53477219D02*
X117737903Y-54334361D01*
X117737903Y-54334361D02*
X117785522Y-54429600D01*
X117785522Y-54429600D02*
X117880760Y-54477219D01*
X117880760Y-54477219D02*
X117975998Y-54477219D01*
X118309332Y-54477219D02*
X118309332Y-53477219D01*
X118737903Y-54477219D02*
X118737903Y-53953409D01*
X118737903Y-53953409D02*
X118690284Y-53858171D01*
X118690284Y-53858171D02*
X118595046Y-53810552D01*
X118595046Y-53810552D02*
X118452189Y-53810552D01*
X118452189Y-53810552D02*
X118356951Y-53858171D01*
X118356951Y-53858171D02*
X118309332Y-53905790D01*
X119642665Y-53810552D02*
X119642665Y-54477219D01*
X119214094Y-53810552D02*
X119214094Y-54334361D01*
X119214094Y-54334361D02*
X119261713Y-54429600D01*
X119261713Y-54429600D02*
X119356951Y-54477219D01*
X119356951Y-54477219D02*
X119499808Y-54477219D01*
X119499808Y-54477219D02*
X119595046Y-54429600D01*
X119595046Y-54429600D02*
X119642665Y-54381980D01*
X120118856Y-54477219D02*
X120118856Y-53477219D01*
X120118856Y-53858171D02*
X120214094Y-53810552D01*
X120214094Y-53810552D02*
X120404570Y-53810552D01*
X120404570Y-53810552D02*
X120499808Y-53858171D01*
X120499808Y-53858171D02*
X120547427Y-53905790D01*
X120547427Y-53905790D02*
X120595046Y-54001028D01*
X120595046Y-54001028D02*
X120595046Y-54286742D01*
X120595046Y-54286742D02*
X120547427Y-54381980D01*
X120547427Y-54381980D02*
X120499808Y-54429600D01*
X120499808Y-54429600D02*
X120404570Y-54477219D01*
X120404570Y-54477219D02*
X120214094Y-54477219D01*
X120214094Y-54477219D02*
X120118856Y-54429600D01*
X121023618Y-54381980D02*
X121071237Y-54429600D01*
X121071237Y-54429600D02*
X121023618Y-54477219D01*
X121023618Y-54477219D02*
X120975999Y-54429600D01*
X120975999Y-54429600D02*
X121023618Y-54381980D01*
X121023618Y-54381980D02*
X121023618Y-54477219D01*
X121928379Y-54429600D02*
X121833141Y-54477219D01*
X121833141Y-54477219D02*
X121642665Y-54477219D01*
X121642665Y-54477219D02*
X121547427Y-54429600D01*
X121547427Y-54429600D02*
X121499808Y-54381980D01*
X121499808Y-54381980D02*
X121452189Y-54286742D01*
X121452189Y-54286742D02*
X121452189Y-54001028D01*
X121452189Y-54001028D02*
X121499808Y-53905790D01*
X121499808Y-53905790D02*
X121547427Y-53858171D01*
X121547427Y-53858171D02*
X121642665Y-53810552D01*
X121642665Y-53810552D02*
X121833141Y-53810552D01*
X121833141Y-53810552D02*
X121928379Y-53858171D01*
X122499808Y-54477219D02*
X122404570Y-54429600D01*
X122404570Y-54429600D02*
X122356951Y-54381980D01*
X122356951Y-54381980D02*
X122309332Y-54286742D01*
X122309332Y-54286742D02*
X122309332Y-54001028D01*
X122309332Y-54001028D02*
X122356951Y-53905790D01*
X122356951Y-53905790D02*
X122404570Y-53858171D01*
X122404570Y-53858171D02*
X122499808Y-53810552D01*
X122499808Y-53810552D02*
X122642665Y-53810552D01*
X122642665Y-53810552D02*
X122737903Y-53858171D01*
X122737903Y-53858171D02*
X122785522Y-53905790D01*
X122785522Y-53905790D02*
X122833141Y-54001028D01*
X122833141Y-54001028D02*
X122833141Y-54286742D01*
X122833141Y-54286742D02*
X122785522Y-54381980D01*
X122785522Y-54381980D02*
X122737903Y-54429600D01*
X122737903Y-54429600D02*
X122642665Y-54477219D01*
X122642665Y-54477219D02*
X122499808Y-54477219D01*
X123261713Y-54477219D02*
X123261713Y-53810552D01*
X123261713Y-53905790D02*
X123309332Y-53858171D01*
X123309332Y-53858171D02*
X123404570Y-53810552D01*
X123404570Y-53810552D02*
X123547427Y-53810552D01*
X123547427Y-53810552D02*
X123642665Y-53858171D01*
X123642665Y-53858171D02*
X123690284Y-53953409D01*
X123690284Y-53953409D02*
X123690284Y-54477219D01*
X123690284Y-53953409D02*
X123737903Y-53858171D01*
X123737903Y-53858171D02*
X123833141Y-53810552D01*
X123833141Y-53810552D02*
X123975998Y-53810552D01*
X123975998Y-53810552D02*
X124071237Y-53858171D01*
X124071237Y-53858171D02*
X124118856Y-53953409D01*
X124118856Y-53953409D02*
X124118856Y-54477219D01*
X125309331Y-53429600D02*
X124452189Y-54715314D01*
X125785522Y-54477219D02*
X125690284Y-54429600D01*
X125690284Y-54429600D02*
X125642665Y-54334361D01*
X125642665Y-54334361D02*
X125642665Y-53477219D01*
X126595046Y-53810552D02*
X126595046Y-54477219D01*
X126166475Y-53810552D02*
X126166475Y-54334361D01*
X126166475Y-54334361D02*
X126214094Y-54429600D01*
X126214094Y-54429600D02*
X126309332Y-54477219D01*
X126309332Y-54477219D02*
X126452189Y-54477219D01*
X126452189Y-54477219D02*
X126547427Y-54429600D01*
X126547427Y-54429600D02*
X126595046Y-54381980D01*
X127499808Y-54429600D02*
X127404570Y-54477219D01*
X127404570Y-54477219D02*
X127214094Y-54477219D01*
X127214094Y-54477219D02*
X127118856Y-54429600D01*
X127118856Y-54429600D02*
X127071237Y-54381980D01*
X127071237Y-54381980D02*
X127023618Y-54286742D01*
X127023618Y-54286742D02*
X127023618Y-54001028D01*
X127023618Y-54001028D02*
X127071237Y-53905790D01*
X127071237Y-53905790D02*
X127118856Y-53858171D01*
X127118856Y-53858171D02*
X127214094Y-53810552D01*
X127214094Y-53810552D02*
X127404570Y-53810552D01*
X127404570Y-53810552D02*
X127499808Y-53858171D01*
X128356951Y-54477219D02*
X128356951Y-53953409D01*
X128356951Y-53953409D02*
X128309332Y-53858171D01*
X128309332Y-53858171D02*
X128214094Y-53810552D01*
X128214094Y-53810552D02*
X128023618Y-53810552D01*
X128023618Y-53810552D02*
X127928380Y-53858171D01*
X128356951Y-54429600D02*
X128261713Y-54477219D01*
X128261713Y-54477219D02*
X128023618Y-54477219D01*
X128023618Y-54477219D02*
X127928380Y-54429600D01*
X127928380Y-54429600D02*
X127880761Y-54334361D01*
X127880761Y-54334361D02*
X127880761Y-54239123D01*
X127880761Y-54239123D02*
X127928380Y-54143885D01*
X127928380Y-54143885D02*
X128023618Y-54096266D01*
X128023618Y-54096266D02*
X128261713Y-54096266D01*
X128261713Y-54096266D02*
X128356951Y-54048647D01*
X128785523Y-54429600D02*
X128880761Y-54477219D01*
X128880761Y-54477219D02*
X129071237Y-54477219D01*
X129071237Y-54477219D02*
X129166475Y-54429600D01*
X129166475Y-54429600D02*
X129214094Y-54334361D01*
X129214094Y-54334361D02*
X129214094Y-54286742D01*
X129214094Y-54286742D02*
X129166475Y-54191504D01*
X129166475Y-54191504D02*
X129071237Y-54143885D01*
X129071237Y-54143885D02*
X128928380Y-54143885D01*
X128928380Y-54143885D02*
X128833142Y-54096266D01*
X128833142Y-54096266D02*
X128785523Y-54001028D01*
X128785523Y-54001028D02*
X128785523Y-53953409D01*
X128785523Y-53953409D02*
X128833142Y-53858171D01*
X128833142Y-53858171D02*
X128928380Y-53810552D01*
X128928380Y-53810552D02*
X129071237Y-53810552D01*
X129071237Y-53810552D02*
X129166475Y-53858171D01*
X129642666Y-54477219D02*
X129642666Y-53810552D01*
X129642666Y-54001028D02*
X129690285Y-53905790D01*
X129690285Y-53905790D02*
X129737904Y-53858171D01*
X129737904Y-53858171D02*
X129833142Y-53810552D01*
X129833142Y-53810552D02*
X129928380Y-53810552D01*
X130690285Y-53810552D02*
X130690285Y-54620076D01*
X130690285Y-54620076D02*
X130642666Y-54715314D01*
X130642666Y-54715314D02*
X130595047Y-54762933D01*
X130595047Y-54762933D02*
X130499809Y-54810552D01*
X130499809Y-54810552D02*
X130356952Y-54810552D01*
X130356952Y-54810552D02*
X130261714Y-54762933D01*
X130690285Y-54429600D02*
X130595047Y-54477219D01*
X130595047Y-54477219D02*
X130404571Y-54477219D01*
X130404571Y-54477219D02*
X130309333Y-54429600D01*
X130309333Y-54429600D02*
X130261714Y-54381980D01*
X130261714Y-54381980D02*
X130214095Y-54286742D01*
X130214095Y-54286742D02*
X130214095Y-54001028D01*
X130214095Y-54001028D02*
X130261714Y-53905790D01*
X130261714Y-53905790D02*
X130309333Y-53858171D01*
X130309333Y-53858171D02*
X130404571Y-53810552D01*
X130404571Y-53810552D02*
X130595047Y-53810552D01*
X130595047Y-53810552D02*
X130690285Y-53858171D01*
X131595047Y-53810552D02*
X131595047Y-54477219D01*
X131166476Y-53810552D02*
X131166476Y-54334361D01*
X131166476Y-54334361D02*
X131214095Y-54429600D01*
X131214095Y-54429600D02*
X131309333Y-54477219D01*
X131309333Y-54477219D02*
X131452190Y-54477219D01*
X131452190Y-54477219D02*
X131547428Y-54429600D01*
X131547428Y-54429600D02*
X131595047Y-54381980D01*
X132452190Y-54429600D02*
X132356952Y-54477219D01*
X132356952Y-54477219D02*
X132166476Y-54477219D01*
X132166476Y-54477219D02*
X132071238Y-54429600D01*
X132071238Y-54429600D02*
X132023619Y-54334361D01*
X132023619Y-54334361D02*
X132023619Y-53953409D01*
X132023619Y-53953409D02*
X132071238Y-53858171D01*
X132071238Y-53858171D02*
X132166476Y-53810552D01*
X132166476Y-53810552D02*
X132356952Y-53810552D01*
X132356952Y-53810552D02*
X132452190Y-53858171D01*
X132452190Y-53858171D02*
X132499809Y-53953409D01*
X132499809Y-53953409D02*
X132499809Y-54048647D01*
X132499809Y-54048647D02*
X132023619Y-54143885D01*
X132928381Y-54477219D02*
X132928381Y-53810552D01*
X132928381Y-54001028D02*
X132976000Y-53905790D01*
X132976000Y-53905790D02*
X133023619Y-53858171D01*
X133023619Y-53858171D02*
X133118857Y-53810552D01*
X133118857Y-53810552D02*
X133214095Y-53810552D01*
X133547429Y-54477219D02*
X133547429Y-53810552D01*
X133547429Y-54001028D02*
X133595048Y-53905790D01*
X133595048Y-53905790D02*
X133642667Y-53858171D01*
X133642667Y-53858171D02*
X133737905Y-53810552D01*
X133737905Y-53810552D02*
X133833143Y-53810552D01*
X134595048Y-54477219D02*
X134595048Y-53953409D01*
X134595048Y-53953409D02*
X134547429Y-53858171D01*
X134547429Y-53858171D02*
X134452191Y-53810552D01*
X134452191Y-53810552D02*
X134261715Y-53810552D01*
X134261715Y-53810552D02*
X134166477Y-53858171D01*
X134595048Y-54429600D02*
X134499810Y-54477219D01*
X134499810Y-54477219D02*
X134261715Y-54477219D01*
X134261715Y-54477219D02*
X134166477Y-54429600D01*
X134166477Y-54429600D02*
X134118858Y-54334361D01*
X134118858Y-54334361D02*
X134118858Y-54239123D01*
X134118858Y-54239123D02*
X134166477Y-54143885D01*
X134166477Y-54143885D02*
X134261715Y-54096266D01*
X134261715Y-54096266D02*
X134499810Y-54096266D01*
X134499810Y-54096266D02*
X134595048Y-54048647D01*
X56798057Y-50337138D02*
X57940914Y-50337138D01*
X57369485Y-52337138D02*
X57369485Y-50337138D01*
X59750438Y-52146661D02*
X59655200Y-52241900D01*
X59655200Y-52241900D02*
X59369486Y-52337138D01*
X59369486Y-52337138D02*
X59179010Y-52337138D01*
X59179010Y-52337138D02*
X58893295Y-52241900D01*
X58893295Y-52241900D02*
X58702819Y-52051423D01*
X58702819Y-52051423D02*
X58607581Y-51860947D01*
X58607581Y-51860947D02*
X58512343Y-51479995D01*
X58512343Y-51479995D02*
X58512343Y-51194280D01*
X58512343Y-51194280D02*
X58607581Y-50813328D01*
X58607581Y-50813328D02*
X58702819Y-50622852D01*
X58702819Y-50622852D02*
X58893295Y-50432376D01*
X58893295Y-50432376D02*
X59179010Y-50337138D01*
X59179010Y-50337138D02*
X59369486Y-50337138D01*
X59369486Y-50337138D02*
X59655200Y-50432376D01*
X59655200Y-50432376D02*
X59750438Y-50527614D01*
X60607581Y-51575233D02*
X62131391Y-51575233D01*
X63083771Y-52337138D02*
X63083771Y-50337138D01*
X63083771Y-50337138D02*
X64226628Y-52337138D01*
X64226628Y-52337138D02*
X64226628Y-50337138D01*
D11*
X63405381Y-71098276D02*
X65691095Y-71098276D01*
X64548238Y-75098276D02*
X64548238Y-71098276D01*
X67024428Y-75098276D02*
X67024428Y-71098276D01*
X67024428Y-71098276D02*
X68548238Y-71098276D01*
X68548238Y-71098276D02*
X68929190Y-71288752D01*
X68929190Y-71288752D02*
X69119667Y-71479228D01*
X69119667Y-71479228D02*
X69310143Y-71860180D01*
X69310143Y-71860180D02*
X69310143Y-72431609D01*
X69310143Y-72431609D02*
X69119667Y-72812561D01*
X69119667Y-72812561D02*
X68929190Y-73003038D01*
X68929190Y-73003038D02*
X68548238Y-73193514D01*
X68548238Y-73193514D02*
X67024428Y-73193514D01*
X73119667Y-75098276D02*
X70833952Y-75098276D01*
X71976809Y-75098276D02*
X71976809Y-71098276D01*
X71976809Y-71098276D02*
X71595857Y-71669704D01*
X71595857Y-71669704D02*
X71214905Y-72050657D01*
X71214905Y-72050657D02*
X70833952Y-72241133D01*
D12*
X91687714Y-63279655D02*
X91421047Y-62898702D01*
X91230571Y-63279655D02*
X91230571Y-62479655D01*
X91230571Y-62479655D02*
X91535333Y-62479655D01*
X91535333Y-62479655D02*
X91611523Y-62517750D01*
X91611523Y-62517750D02*
X91649618Y-62555845D01*
X91649618Y-62555845D02*
X91687714Y-62632036D01*
X91687714Y-62632036D02*
X91687714Y-62746321D01*
X91687714Y-62746321D02*
X91649618Y-62822512D01*
X91649618Y-62822512D02*
X91611523Y-62860607D01*
X91611523Y-62860607D02*
X91535333Y-62898702D01*
X91535333Y-62898702D02*
X91230571Y-62898702D01*
X91992475Y-62555845D02*
X92030571Y-62517750D01*
X92030571Y-62517750D02*
X92106761Y-62479655D01*
X92106761Y-62479655D02*
X92297237Y-62479655D01*
X92297237Y-62479655D02*
X92373428Y-62517750D01*
X92373428Y-62517750D02*
X92411523Y-62555845D01*
X92411523Y-62555845D02*
X92449618Y-62632036D01*
X92449618Y-62632036D02*
X92449618Y-62708226D01*
X92449618Y-62708226D02*
X92411523Y-62822512D01*
X92411523Y-62822512D02*
X91954380Y-63279655D01*
X91954380Y-63279655D02*
X92449618Y-63279655D01*
X92944857Y-62479655D02*
X93021047Y-62479655D01*
X93021047Y-62479655D02*
X93097238Y-62517750D01*
X93097238Y-62517750D02*
X93135333Y-62555845D01*
X93135333Y-62555845D02*
X93173428Y-62632036D01*
X93173428Y-62632036D02*
X93211523Y-62784417D01*
X93211523Y-62784417D02*
X93211523Y-62974893D01*
X93211523Y-62974893D02*
X93173428Y-63127274D01*
X93173428Y-63127274D02*
X93135333Y-63203464D01*
X93135333Y-63203464D02*
X93097238Y-63241560D01*
X93097238Y-63241560D02*
X93021047Y-63279655D01*
X93021047Y-63279655D02*
X92944857Y-63279655D01*
X92944857Y-63279655D02*
X92868666Y-63241560D01*
X92868666Y-63241560D02*
X92830571Y-63203464D01*
X92830571Y-63203464D02*
X92792476Y-63127274D01*
X92792476Y-63127274D02*
X92754380Y-62974893D01*
X92754380Y-62974893D02*
X92754380Y-62784417D01*
X92754380Y-62784417D02*
X92792476Y-62632036D01*
X92792476Y-62632036D02*
X92830571Y-62555845D01*
X92830571Y-62555845D02*
X92868666Y-62517750D01*
X92868666Y-62517750D02*
X92944857Y-62479655D01*
D10*
X77165676Y-50337138D02*
X78308533Y-50337138D01*
X77737104Y-52337138D02*
X77737104Y-50337138D01*
X80118057Y-52146661D02*
X80022819Y-52241900D01*
X80022819Y-52241900D02*
X79737105Y-52337138D01*
X79737105Y-52337138D02*
X79546629Y-52337138D01*
X79546629Y-52337138D02*
X79260914Y-52241900D01*
X79260914Y-52241900D02*
X79070438Y-52051423D01*
X79070438Y-52051423D02*
X78975200Y-51860947D01*
X78975200Y-51860947D02*
X78879962Y-51479995D01*
X78879962Y-51479995D02*
X78879962Y-51194280D01*
X78879962Y-51194280D02*
X78975200Y-50813328D01*
X78975200Y-50813328D02*
X79070438Y-50622852D01*
X79070438Y-50622852D02*
X79260914Y-50432376D01*
X79260914Y-50432376D02*
X79546629Y-50337138D01*
X79546629Y-50337138D02*
X79737105Y-50337138D01*
X79737105Y-50337138D02*
X80022819Y-50432376D01*
X80022819Y-50432376D02*
X80118057Y-50527614D01*
X80975200Y-51575233D02*
X82499010Y-51575233D01*
X84118057Y-51289519D02*
X84403771Y-51384757D01*
X84403771Y-51384757D02*
X84499009Y-51479995D01*
X84499009Y-51479995D02*
X84594247Y-51670471D01*
X84594247Y-51670471D02*
X84594247Y-51956185D01*
X84594247Y-51956185D02*
X84499009Y-52146661D01*
X84499009Y-52146661D02*
X84403771Y-52241900D01*
X84403771Y-52241900D02*
X84213295Y-52337138D01*
X84213295Y-52337138D02*
X83451390Y-52337138D01*
X83451390Y-52337138D02*
X83451390Y-50337138D01*
X83451390Y-50337138D02*
X84118057Y-50337138D01*
X84118057Y-50337138D02*
X84308533Y-50432376D01*
X84308533Y-50432376D02*
X84403771Y-50527614D01*
X84403771Y-50527614D02*
X84499009Y-50718090D01*
X84499009Y-50718090D02*
X84499009Y-50908566D01*
X84499009Y-50908566D02*
X84403771Y-51099042D01*
X84403771Y-51099042D02*
X84308533Y-51194280D01*
X84308533Y-51194280D02*
X84118057Y-51289519D01*
X84118057Y-51289519D02*
X83451390Y-51289519D01*
D11*
X90510581Y-106531276D02*
X92796295Y-106531276D01*
X91653438Y-110531276D02*
X91653438Y-106531276D01*
X94129628Y-110531276D02*
X94129628Y-106531276D01*
X94129628Y-106531276D02*
X95653438Y-106531276D01*
X95653438Y-106531276D02*
X96034390Y-106721752D01*
X96034390Y-106721752D02*
X96224867Y-106912228D01*
X96224867Y-106912228D02*
X96415343Y-107293180D01*
X96415343Y-107293180D02*
X96415343Y-107864609D01*
X96415343Y-107864609D02*
X96224867Y-108245561D01*
X96224867Y-108245561D02*
X96034390Y-108436038D01*
X96034390Y-108436038D02*
X95653438Y-108626514D01*
X95653438Y-108626514D02*
X94129628Y-108626514D01*
X99843914Y-106531276D02*
X99082009Y-106531276D01*
X99082009Y-106531276D02*
X98701057Y-106721752D01*
X98701057Y-106721752D02*
X98510581Y-106912228D01*
X98510581Y-106912228D02*
X98129628Y-107483657D01*
X98129628Y-107483657D02*
X97939152Y-108245561D01*
X97939152Y-108245561D02*
X97939152Y-109769371D01*
X97939152Y-109769371D02*
X98129628Y-110150323D01*
X98129628Y-110150323D02*
X98320105Y-110340800D01*
X98320105Y-110340800D02*
X98701057Y-110531276D01*
X98701057Y-110531276D02*
X99462962Y-110531276D01*
X99462962Y-110531276D02*
X99843914Y-110340800D01*
X99843914Y-110340800D02*
X100034390Y-110150323D01*
X100034390Y-110150323D02*
X100224867Y-109769371D01*
X100224867Y-109769371D02*
X100224867Y-108816990D01*
X100224867Y-108816990D02*
X100034390Y-108436038D01*
X100034390Y-108436038D02*
X99843914Y-108245561D01*
X99843914Y-108245561D02*
X99462962Y-108055085D01*
X99462962Y-108055085D02*
X98701057Y-108055085D01*
X98701057Y-108055085D02*
X98320105Y-108245561D01*
X98320105Y-108245561D02*
X98129628Y-108436038D01*
X98129628Y-108436038D02*
X97939152Y-108816990D01*
X90510581Y-88751276D02*
X92796295Y-88751276D01*
X91653438Y-92751276D02*
X91653438Y-88751276D01*
X94129628Y-92751276D02*
X94129628Y-88751276D01*
X94129628Y-88751276D02*
X95653438Y-88751276D01*
X95653438Y-88751276D02*
X96034390Y-88941752D01*
X96034390Y-88941752D02*
X96224867Y-89132228D01*
X96224867Y-89132228D02*
X96415343Y-89513180D01*
X96415343Y-89513180D02*
X96415343Y-90084609D01*
X96415343Y-90084609D02*
X96224867Y-90465561D01*
X96224867Y-90465561D02*
X96034390Y-90656038D01*
X96034390Y-90656038D02*
X95653438Y-90846514D01*
X95653438Y-90846514D02*
X94129628Y-90846514D01*
X100034390Y-88751276D02*
X98129628Y-88751276D01*
X98129628Y-88751276D02*
X97939152Y-90656038D01*
X97939152Y-90656038D02*
X98129628Y-90465561D01*
X98129628Y-90465561D02*
X98510581Y-90275085D01*
X98510581Y-90275085D02*
X99462962Y-90275085D01*
X99462962Y-90275085D02*
X99843914Y-90465561D01*
X99843914Y-90465561D02*
X100034390Y-90656038D01*
X100034390Y-90656038D02*
X100224867Y-91036990D01*
X100224867Y-91036990D02*
X100224867Y-91989371D01*
X100224867Y-91989371D02*
X100034390Y-92370323D01*
X100034390Y-92370323D02*
X99843914Y-92560800D01*
X99843914Y-92560800D02*
X99462962Y-92751276D01*
X99462962Y-92751276D02*
X98510581Y-92751276D01*
X98510581Y-92751276D02*
X98129628Y-92560800D01*
X98129628Y-92560800D02*
X97939152Y-92370323D01*
D12*
X80129155Y-91420932D02*
X79748202Y-91687599D01*
X80129155Y-91878075D02*
X79329155Y-91878075D01*
X79329155Y-91878075D02*
X79329155Y-91573313D01*
X79329155Y-91573313D02*
X79367250Y-91497123D01*
X79367250Y-91497123D02*
X79405345Y-91459028D01*
X79405345Y-91459028D02*
X79481536Y-91420932D01*
X79481536Y-91420932D02*
X79595821Y-91420932D01*
X79595821Y-91420932D02*
X79672012Y-91459028D01*
X79672012Y-91459028D02*
X79710107Y-91497123D01*
X79710107Y-91497123D02*
X79748202Y-91573313D01*
X79748202Y-91573313D02*
X79748202Y-91878075D01*
X79595821Y-90735218D02*
X80129155Y-90735218D01*
X79291060Y-90925694D02*
X79862488Y-91116171D01*
X79862488Y-91116171D02*
X79862488Y-90620932D01*
X84628355Y-104338785D02*
X84247402Y-104605452D01*
X84628355Y-104795928D02*
X83828355Y-104795928D01*
X83828355Y-104795928D02*
X83828355Y-104491166D01*
X83828355Y-104491166D02*
X83866450Y-104414976D01*
X83866450Y-104414976D02*
X83904545Y-104376881D01*
X83904545Y-104376881D02*
X83980736Y-104338785D01*
X83980736Y-104338785D02*
X84095021Y-104338785D01*
X84095021Y-104338785D02*
X84171212Y-104376881D01*
X84171212Y-104376881D02*
X84209307Y-104414976D01*
X84209307Y-104414976D02*
X84247402Y-104491166D01*
X84247402Y-104491166D02*
X84247402Y-104795928D01*
X84628355Y-103576881D02*
X84628355Y-104034024D01*
X84628355Y-103805452D02*
X83828355Y-103805452D01*
X83828355Y-103805452D02*
X83942640Y-103881643D01*
X83942640Y-103881643D02*
X84018831Y-103957833D01*
X84018831Y-103957833D02*
X84056926Y-104034024D01*
X84628355Y-102814976D02*
X84628355Y-103272119D01*
X84628355Y-103043547D02*
X83828355Y-103043547D01*
X83828355Y-103043547D02*
X83942640Y-103119738D01*
X83942640Y-103119738D02*
X84018831Y-103195928D01*
X84018831Y-103195928D02*
X84056926Y-103272119D01*
X61222414Y-63279655D02*
X60955747Y-62898702D01*
X60765271Y-63279655D02*
X60765271Y-62479655D01*
X60765271Y-62479655D02*
X61070033Y-62479655D01*
X61070033Y-62479655D02*
X61146223Y-62517750D01*
X61146223Y-62517750D02*
X61184318Y-62555845D01*
X61184318Y-62555845D02*
X61222414Y-62632036D01*
X61222414Y-62632036D02*
X61222414Y-62746321D01*
X61222414Y-62746321D02*
X61184318Y-62822512D01*
X61184318Y-62822512D02*
X61146223Y-62860607D01*
X61146223Y-62860607D02*
X61070033Y-62898702D01*
X61070033Y-62898702D02*
X60765271Y-62898702D01*
X61984318Y-63279655D02*
X61527175Y-63279655D01*
X61755747Y-63279655D02*
X61755747Y-62479655D01*
X61755747Y-62479655D02*
X61679556Y-62593940D01*
X61679556Y-62593940D02*
X61603366Y-62670131D01*
X61603366Y-62670131D02*
X61527175Y-62708226D01*
X62250985Y-62479655D02*
X62784319Y-62479655D01*
X62784319Y-62479655D02*
X62441461Y-63279655D01*
X77485714Y-125984055D02*
X77219047Y-125603102D01*
X77028571Y-125984055D02*
X77028571Y-125184055D01*
X77028571Y-125184055D02*
X77333333Y-125184055D01*
X77333333Y-125184055D02*
X77409523Y-125222150D01*
X77409523Y-125222150D02*
X77447618Y-125260245D01*
X77447618Y-125260245D02*
X77485714Y-125336436D01*
X77485714Y-125336436D02*
X77485714Y-125450721D01*
X77485714Y-125450721D02*
X77447618Y-125526912D01*
X77447618Y-125526912D02*
X77409523Y-125565007D01*
X77409523Y-125565007D02*
X77333333Y-125603102D01*
X77333333Y-125603102D02*
X77028571Y-125603102D01*
X78247618Y-125984055D02*
X77790475Y-125984055D01*
X78019047Y-125984055D02*
X78019047Y-125184055D01*
X78019047Y-125184055D02*
X77942856Y-125298340D01*
X77942856Y-125298340D02*
X77866666Y-125374531D01*
X77866666Y-125374531D02*
X77790475Y-125412626D01*
X78933333Y-125450721D02*
X78933333Y-125984055D01*
X78742857Y-125145960D02*
X78552380Y-125717388D01*
X78552380Y-125717388D02*
X79047619Y-125717388D01*
X84628355Y-68560932D02*
X84247402Y-68827599D01*
X84628355Y-69018075D02*
X83828355Y-69018075D01*
X83828355Y-69018075D02*
X83828355Y-68713313D01*
X83828355Y-68713313D02*
X83866450Y-68637123D01*
X83866450Y-68637123D02*
X83904545Y-68599028D01*
X83904545Y-68599028D02*
X83980736Y-68560932D01*
X83980736Y-68560932D02*
X84095021Y-68560932D01*
X84095021Y-68560932D02*
X84171212Y-68599028D01*
X84171212Y-68599028D02*
X84209307Y-68637123D01*
X84209307Y-68637123D02*
X84247402Y-68713313D01*
X84247402Y-68713313D02*
X84247402Y-69018075D01*
X83828355Y-68294266D02*
X83828355Y-67760932D01*
X83828355Y-67760932D02*
X84628355Y-68103790D01*
X81542414Y-63279655D02*
X81275747Y-62898702D01*
X81085271Y-63279655D02*
X81085271Y-62479655D01*
X81085271Y-62479655D02*
X81390033Y-62479655D01*
X81390033Y-62479655D02*
X81466223Y-62517750D01*
X81466223Y-62517750D02*
X81504318Y-62555845D01*
X81504318Y-62555845D02*
X81542414Y-62632036D01*
X81542414Y-62632036D02*
X81542414Y-62746321D01*
X81542414Y-62746321D02*
X81504318Y-62822512D01*
X81504318Y-62822512D02*
X81466223Y-62860607D01*
X81466223Y-62860607D02*
X81390033Y-62898702D01*
X81390033Y-62898702D02*
X81085271Y-62898702D01*
X82304318Y-63279655D02*
X81847175Y-63279655D01*
X82075747Y-63279655D02*
X82075747Y-62479655D01*
X82075747Y-62479655D02*
X81999556Y-62593940D01*
X81999556Y-62593940D02*
X81923366Y-62670131D01*
X81923366Y-62670131D02*
X81847175Y-62708226D01*
X82685271Y-63279655D02*
X82837652Y-63279655D01*
X82837652Y-63279655D02*
X82913842Y-63241560D01*
X82913842Y-63241560D02*
X82951938Y-63203464D01*
X82951938Y-63203464D02*
X83028128Y-63089179D01*
X83028128Y-63089179D02*
X83066223Y-62936798D01*
X83066223Y-62936798D02*
X83066223Y-62632036D01*
X83066223Y-62632036D02*
X83028128Y-62555845D01*
X83028128Y-62555845D02*
X82990033Y-62517750D01*
X82990033Y-62517750D02*
X82913842Y-62479655D01*
X82913842Y-62479655D02*
X82761461Y-62479655D01*
X82761461Y-62479655D02*
X82685271Y-62517750D01*
X82685271Y-62517750D02*
X82647176Y-62555845D01*
X82647176Y-62555845D02*
X82609080Y-62632036D01*
X82609080Y-62632036D02*
X82609080Y-62822512D01*
X82609080Y-62822512D02*
X82647176Y-62898702D01*
X82647176Y-62898702D02*
X82685271Y-62936798D01*
X82685271Y-62936798D02*
X82761461Y-62974893D01*
X82761461Y-62974893D02*
X82913842Y-62974893D01*
X82913842Y-62974893D02*
X82990033Y-62936798D01*
X82990033Y-62936798D02*
X83028128Y-62898702D01*
X83028128Y-62898702D02*
X83066223Y-62822512D01*
X80129155Y-73767932D02*
X79748202Y-74034599D01*
X80129155Y-74225075D02*
X79329155Y-74225075D01*
X79329155Y-74225075D02*
X79329155Y-73920313D01*
X79329155Y-73920313D02*
X79367250Y-73844123D01*
X79367250Y-73844123D02*
X79405345Y-73806028D01*
X79405345Y-73806028D02*
X79481536Y-73767932D01*
X79481536Y-73767932D02*
X79595821Y-73767932D01*
X79595821Y-73767932D02*
X79672012Y-73806028D01*
X79672012Y-73806028D02*
X79710107Y-73844123D01*
X79710107Y-73844123D02*
X79748202Y-73920313D01*
X79748202Y-73920313D02*
X79748202Y-74225075D01*
X79405345Y-73463171D02*
X79367250Y-73425075D01*
X79367250Y-73425075D02*
X79329155Y-73348885D01*
X79329155Y-73348885D02*
X79329155Y-73158409D01*
X79329155Y-73158409D02*
X79367250Y-73082218D01*
X79367250Y-73082218D02*
X79405345Y-73044123D01*
X79405345Y-73044123D02*
X79481536Y-73006028D01*
X79481536Y-73006028D02*
X79557726Y-73006028D01*
X79557726Y-73006028D02*
X79672012Y-73044123D01*
X79672012Y-73044123D02*
X80129155Y-73501266D01*
X80129155Y-73501266D02*
X80129155Y-73006028D01*
X104449214Y-125984055D02*
X104182547Y-125603102D01*
X103992071Y-125984055D02*
X103992071Y-125184055D01*
X103992071Y-125184055D02*
X104296833Y-125184055D01*
X104296833Y-125184055D02*
X104373023Y-125222150D01*
X104373023Y-125222150D02*
X104411118Y-125260245D01*
X104411118Y-125260245D02*
X104449214Y-125336436D01*
X104449214Y-125336436D02*
X104449214Y-125450721D01*
X104449214Y-125450721D02*
X104411118Y-125526912D01*
X104411118Y-125526912D02*
X104373023Y-125565007D01*
X104373023Y-125565007D02*
X104296833Y-125603102D01*
X104296833Y-125603102D02*
X103992071Y-125603102D01*
X105211118Y-125984055D02*
X104753975Y-125984055D01*
X104982547Y-125984055D02*
X104982547Y-125184055D01*
X104982547Y-125184055D02*
X104906356Y-125298340D01*
X104906356Y-125298340D02*
X104830166Y-125374531D01*
X104830166Y-125374531D02*
X104753975Y-125412626D01*
X105896833Y-125184055D02*
X105744452Y-125184055D01*
X105744452Y-125184055D02*
X105668261Y-125222150D01*
X105668261Y-125222150D02*
X105630166Y-125260245D01*
X105630166Y-125260245D02*
X105553976Y-125374531D01*
X105553976Y-125374531D02*
X105515880Y-125526912D01*
X105515880Y-125526912D02*
X105515880Y-125831674D01*
X105515880Y-125831674D02*
X105553976Y-125907864D01*
X105553976Y-125907864D02*
X105592071Y-125945960D01*
X105592071Y-125945960D02*
X105668261Y-125984055D01*
X105668261Y-125984055D02*
X105820642Y-125984055D01*
X105820642Y-125984055D02*
X105896833Y-125945960D01*
X105896833Y-125945960D02*
X105934928Y-125907864D01*
X105934928Y-125907864D02*
X105973023Y-125831674D01*
X105973023Y-125831674D02*
X105973023Y-125641198D01*
X105973023Y-125641198D02*
X105934928Y-125565007D01*
X105934928Y-125565007D02*
X105896833Y-125526912D01*
X105896833Y-125526912D02*
X105820642Y-125488817D01*
X105820642Y-125488817D02*
X105668261Y-125488817D01*
X105668261Y-125488817D02*
X105592071Y-125526912D01*
X105592071Y-125526912D02*
X105553976Y-125565007D01*
X105553976Y-125565007D02*
X105515880Y-125641198D01*
X107234355Y-109581885D02*
X106853402Y-109848552D01*
X107234355Y-110039028D02*
X106434355Y-110039028D01*
X106434355Y-110039028D02*
X106434355Y-109734266D01*
X106434355Y-109734266D02*
X106472450Y-109658076D01*
X106472450Y-109658076D02*
X106510545Y-109619981D01*
X106510545Y-109619981D02*
X106586736Y-109581885D01*
X106586736Y-109581885D02*
X106701021Y-109581885D01*
X106701021Y-109581885D02*
X106777212Y-109619981D01*
X106777212Y-109619981D02*
X106815307Y-109658076D01*
X106815307Y-109658076D02*
X106853402Y-109734266D01*
X106853402Y-109734266D02*
X106853402Y-110039028D01*
X107234355Y-108819981D02*
X107234355Y-109277124D01*
X107234355Y-109048552D02*
X106434355Y-109048552D01*
X106434355Y-109048552D02*
X106548640Y-109124743D01*
X106548640Y-109124743D02*
X106624831Y-109200933D01*
X106624831Y-109200933D02*
X106662926Y-109277124D01*
X106510545Y-108515219D02*
X106472450Y-108477123D01*
X106472450Y-108477123D02*
X106434355Y-108400933D01*
X106434355Y-108400933D02*
X106434355Y-108210457D01*
X106434355Y-108210457D02*
X106472450Y-108134266D01*
X106472450Y-108134266D02*
X106510545Y-108096171D01*
X106510545Y-108096171D02*
X106586736Y-108058076D01*
X106586736Y-108058076D02*
X106662926Y-108058076D01*
X106662926Y-108058076D02*
X106777212Y-108096171D01*
X106777212Y-108096171D02*
X107234355Y-108553314D01*
X107234355Y-108553314D02*
X107234355Y-108058076D01*
X104449214Y-123553855D02*
X104182547Y-123172902D01*
X103992071Y-123553855D02*
X103992071Y-122753855D01*
X103992071Y-122753855D02*
X104296833Y-122753855D01*
X104296833Y-122753855D02*
X104373023Y-122791950D01*
X104373023Y-122791950D02*
X104411118Y-122830045D01*
X104411118Y-122830045D02*
X104449214Y-122906236D01*
X104449214Y-122906236D02*
X104449214Y-123020521D01*
X104449214Y-123020521D02*
X104411118Y-123096712D01*
X104411118Y-123096712D02*
X104373023Y-123134807D01*
X104373023Y-123134807D02*
X104296833Y-123172902D01*
X104296833Y-123172902D02*
X103992071Y-123172902D01*
X105211118Y-123553855D02*
X104753975Y-123553855D01*
X104982547Y-123553855D02*
X104982547Y-122753855D01*
X104982547Y-122753855D02*
X104906356Y-122868140D01*
X104906356Y-122868140D02*
X104830166Y-122944331D01*
X104830166Y-122944331D02*
X104753975Y-122982426D01*
X105934928Y-122753855D02*
X105553976Y-122753855D01*
X105553976Y-122753855D02*
X105515880Y-123134807D01*
X105515880Y-123134807D02*
X105553976Y-123096712D01*
X105553976Y-123096712D02*
X105630166Y-123058617D01*
X105630166Y-123058617D02*
X105820642Y-123058617D01*
X105820642Y-123058617D02*
X105896833Y-123096712D01*
X105896833Y-123096712D02*
X105934928Y-123134807D01*
X105934928Y-123134807D02*
X105973023Y-123210998D01*
X105973023Y-123210998D02*
X105973023Y-123401474D01*
X105973023Y-123401474D02*
X105934928Y-123477664D01*
X105934928Y-123477664D02*
X105896833Y-123515760D01*
X105896833Y-123515760D02*
X105820642Y-123553855D01*
X105820642Y-123553855D02*
X105630166Y-123553855D01*
X105630166Y-123553855D02*
X105553976Y-123515760D01*
X105553976Y-123515760D02*
X105515880Y-123477664D01*
X57523155Y-68560932D02*
X57142202Y-68827599D01*
X57523155Y-69018075D02*
X56723155Y-69018075D01*
X56723155Y-69018075D02*
X56723155Y-68713313D01*
X56723155Y-68713313D02*
X56761250Y-68637123D01*
X56761250Y-68637123D02*
X56799345Y-68599028D01*
X56799345Y-68599028D02*
X56875536Y-68560932D01*
X56875536Y-68560932D02*
X56989821Y-68560932D01*
X56989821Y-68560932D02*
X57066012Y-68599028D01*
X57066012Y-68599028D02*
X57104107Y-68637123D01*
X57104107Y-68637123D02*
X57142202Y-68713313D01*
X57142202Y-68713313D02*
X57142202Y-69018075D01*
X57523155Y-67799028D02*
X57523155Y-68256171D01*
X57523155Y-68027599D02*
X56723155Y-68027599D01*
X56723155Y-68027599D02*
X56837440Y-68103790D01*
X56837440Y-68103790D02*
X56913631Y-68179980D01*
X56913631Y-68179980D02*
X56951726Y-68256171D01*
X107234355Y-73767932D02*
X106853402Y-74034599D01*
X107234355Y-74225075D02*
X106434355Y-74225075D01*
X106434355Y-74225075D02*
X106434355Y-73920313D01*
X106434355Y-73920313D02*
X106472450Y-73844123D01*
X106472450Y-73844123D02*
X106510545Y-73806028D01*
X106510545Y-73806028D02*
X106586736Y-73767932D01*
X106586736Y-73767932D02*
X106701021Y-73767932D01*
X106701021Y-73767932D02*
X106777212Y-73806028D01*
X106777212Y-73806028D02*
X106815307Y-73844123D01*
X106815307Y-73844123D02*
X106853402Y-73920313D01*
X106853402Y-73920313D02*
X106853402Y-74225075D01*
X106777212Y-73310790D02*
X106739117Y-73386980D01*
X106739117Y-73386980D02*
X106701021Y-73425075D01*
X106701021Y-73425075D02*
X106624831Y-73463171D01*
X106624831Y-73463171D02*
X106586736Y-73463171D01*
X106586736Y-73463171D02*
X106510545Y-73425075D01*
X106510545Y-73425075D02*
X106472450Y-73386980D01*
X106472450Y-73386980D02*
X106434355Y-73310790D01*
X106434355Y-73310790D02*
X106434355Y-73158409D01*
X106434355Y-73158409D02*
X106472450Y-73082218D01*
X106472450Y-73082218D02*
X106510545Y-73044123D01*
X106510545Y-73044123D02*
X106586736Y-73006028D01*
X106586736Y-73006028D02*
X106624831Y-73006028D01*
X106624831Y-73006028D02*
X106701021Y-73044123D01*
X106701021Y-73044123D02*
X106739117Y-73082218D01*
X106739117Y-73082218D02*
X106777212Y-73158409D01*
X106777212Y-73158409D02*
X106777212Y-73310790D01*
X106777212Y-73310790D02*
X106815307Y-73386980D01*
X106815307Y-73386980D02*
X106853402Y-73425075D01*
X106853402Y-73425075D02*
X106929593Y-73463171D01*
X106929593Y-73463171D02*
X107081974Y-73463171D01*
X107081974Y-73463171D02*
X107158164Y-73425075D01*
X107158164Y-73425075D02*
X107196260Y-73386980D01*
X107196260Y-73386980D02*
X107234355Y-73310790D01*
X107234355Y-73310790D02*
X107234355Y-73158409D01*
X107234355Y-73158409D02*
X107196260Y-73082218D01*
X107196260Y-73082218D02*
X107158164Y-73044123D01*
X107158164Y-73044123D02*
X107081974Y-73006028D01*
X107081974Y-73006028D02*
X106929593Y-73006028D01*
X106929593Y-73006028D02*
X106853402Y-73044123D01*
X106853402Y-73044123D02*
X106815307Y-73082218D01*
X106815307Y-73082218D02*
X106777212Y-73158409D01*
X80129155Y-109200932D02*
X79748202Y-109467599D01*
X80129155Y-109658075D02*
X79329155Y-109658075D01*
X79329155Y-109658075D02*
X79329155Y-109353313D01*
X79329155Y-109353313D02*
X79367250Y-109277123D01*
X79367250Y-109277123D02*
X79405345Y-109239028D01*
X79405345Y-109239028D02*
X79481536Y-109200932D01*
X79481536Y-109200932D02*
X79595821Y-109200932D01*
X79595821Y-109200932D02*
X79672012Y-109239028D01*
X79672012Y-109239028D02*
X79710107Y-109277123D01*
X79710107Y-109277123D02*
X79748202Y-109353313D01*
X79748202Y-109353313D02*
X79748202Y-109658075D01*
X79329155Y-108515218D02*
X79329155Y-108667599D01*
X79329155Y-108667599D02*
X79367250Y-108743790D01*
X79367250Y-108743790D02*
X79405345Y-108781885D01*
X79405345Y-108781885D02*
X79519631Y-108858075D01*
X79519631Y-108858075D02*
X79672012Y-108896171D01*
X79672012Y-108896171D02*
X79976774Y-108896171D01*
X79976774Y-108896171D02*
X80052964Y-108858075D01*
X80052964Y-108858075D02*
X80091060Y-108819980D01*
X80091060Y-108819980D02*
X80129155Y-108743790D01*
X80129155Y-108743790D02*
X80129155Y-108591409D01*
X80129155Y-108591409D02*
X80091060Y-108515218D01*
X80091060Y-108515218D02*
X80052964Y-108477123D01*
X80052964Y-108477123D02*
X79976774Y-108439028D01*
X79976774Y-108439028D02*
X79786298Y-108439028D01*
X79786298Y-108439028D02*
X79710107Y-108477123D01*
X79710107Y-108477123D02*
X79672012Y-108515218D01*
X79672012Y-108515218D02*
X79633917Y-108591409D01*
X79633917Y-108591409D02*
X79633917Y-108743790D01*
X79633917Y-108743790D02*
X79672012Y-108819980D01*
X79672012Y-108819980D02*
X79710107Y-108858075D01*
X79710107Y-108858075D02*
X79786298Y-108896171D01*
X57523155Y-86213932D02*
X57142202Y-86480599D01*
X57523155Y-86671075D02*
X56723155Y-86671075D01*
X56723155Y-86671075D02*
X56723155Y-86366313D01*
X56723155Y-86366313D02*
X56761250Y-86290123D01*
X56761250Y-86290123D02*
X56799345Y-86252028D01*
X56799345Y-86252028D02*
X56875536Y-86213932D01*
X56875536Y-86213932D02*
X56989821Y-86213932D01*
X56989821Y-86213932D02*
X57066012Y-86252028D01*
X57066012Y-86252028D02*
X57104107Y-86290123D01*
X57104107Y-86290123D02*
X57142202Y-86366313D01*
X57142202Y-86366313D02*
X57142202Y-86671075D01*
X56723155Y-85947266D02*
X56723155Y-85452028D01*
X56723155Y-85452028D02*
X57027917Y-85718694D01*
X57027917Y-85718694D02*
X57027917Y-85604409D01*
X57027917Y-85604409D02*
X57066012Y-85528218D01*
X57066012Y-85528218D02*
X57104107Y-85490123D01*
X57104107Y-85490123D02*
X57180298Y-85452028D01*
X57180298Y-85452028D02*
X57370774Y-85452028D01*
X57370774Y-85452028D02*
X57446964Y-85490123D01*
X57446964Y-85490123D02*
X57485060Y-85528218D01*
X57485060Y-85528218D02*
X57523155Y-85604409D01*
X57523155Y-85604409D02*
X57523155Y-85832980D01*
X57523155Y-85832980D02*
X57485060Y-85909171D01*
X57485060Y-85909171D02*
X57446964Y-85947266D01*
X71382414Y-63279655D02*
X71115747Y-62898702D01*
X70925271Y-63279655D02*
X70925271Y-62479655D01*
X70925271Y-62479655D02*
X71230033Y-62479655D01*
X71230033Y-62479655D02*
X71306223Y-62517750D01*
X71306223Y-62517750D02*
X71344318Y-62555845D01*
X71344318Y-62555845D02*
X71382414Y-62632036D01*
X71382414Y-62632036D02*
X71382414Y-62746321D01*
X71382414Y-62746321D02*
X71344318Y-62822512D01*
X71344318Y-62822512D02*
X71306223Y-62860607D01*
X71306223Y-62860607D02*
X71230033Y-62898702D01*
X71230033Y-62898702D02*
X70925271Y-62898702D01*
X72144318Y-63279655D02*
X71687175Y-63279655D01*
X71915747Y-63279655D02*
X71915747Y-62479655D01*
X71915747Y-62479655D02*
X71839556Y-62593940D01*
X71839556Y-62593940D02*
X71763366Y-62670131D01*
X71763366Y-62670131D02*
X71687175Y-62708226D01*
X72601461Y-62822512D02*
X72525271Y-62784417D01*
X72525271Y-62784417D02*
X72487176Y-62746321D01*
X72487176Y-62746321D02*
X72449080Y-62670131D01*
X72449080Y-62670131D02*
X72449080Y-62632036D01*
X72449080Y-62632036D02*
X72487176Y-62555845D01*
X72487176Y-62555845D02*
X72525271Y-62517750D01*
X72525271Y-62517750D02*
X72601461Y-62479655D01*
X72601461Y-62479655D02*
X72753842Y-62479655D01*
X72753842Y-62479655D02*
X72830033Y-62517750D01*
X72830033Y-62517750D02*
X72868128Y-62555845D01*
X72868128Y-62555845D02*
X72906223Y-62632036D01*
X72906223Y-62632036D02*
X72906223Y-62670131D01*
X72906223Y-62670131D02*
X72868128Y-62746321D01*
X72868128Y-62746321D02*
X72830033Y-62784417D01*
X72830033Y-62784417D02*
X72753842Y-62822512D01*
X72753842Y-62822512D02*
X72601461Y-62822512D01*
X72601461Y-62822512D02*
X72525271Y-62860607D01*
X72525271Y-62860607D02*
X72487176Y-62898702D01*
X72487176Y-62898702D02*
X72449080Y-62974893D01*
X72449080Y-62974893D02*
X72449080Y-63127274D01*
X72449080Y-63127274D02*
X72487176Y-63203464D01*
X72487176Y-63203464D02*
X72525271Y-63241560D01*
X72525271Y-63241560D02*
X72601461Y-63279655D01*
X72601461Y-63279655D02*
X72753842Y-63279655D01*
X72753842Y-63279655D02*
X72830033Y-63241560D01*
X72830033Y-63241560D02*
X72868128Y-63203464D01*
X72868128Y-63203464D02*
X72906223Y-63127274D01*
X72906223Y-63127274D02*
X72906223Y-62974893D01*
X72906223Y-62974893D02*
X72868128Y-62898702D01*
X72868128Y-62898702D02*
X72830033Y-62860607D01*
X72830033Y-62860607D02*
X72753842Y-62822512D01*
D10*
X67005676Y-50337138D02*
X68148533Y-50337138D01*
X67577104Y-52337138D02*
X67577104Y-50337138D01*
X69958057Y-52146661D02*
X69862819Y-52241900D01*
X69862819Y-52241900D02*
X69577105Y-52337138D01*
X69577105Y-52337138D02*
X69386629Y-52337138D01*
X69386629Y-52337138D02*
X69100914Y-52241900D01*
X69100914Y-52241900D02*
X68910438Y-52051423D01*
X68910438Y-52051423D02*
X68815200Y-51860947D01*
X68815200Y-51860947D02*
X68719962Y-51479995D01*
X68719962Y-51479995D02*
X68719962Y-51194280D01*
X68719962Y-51194280D02*
X68815200Y-50813328D01*
X68815200Y-50813328D02*
X68910438Y-50622852D01*
X68910438Y-50622852D02*
X69100914Y-50432376D01*
X69100914Y-50432376D02*
X69386629Y-50337138D01*
X69386629Y-50337138D02*
X69577105Y-50337138D01*
X69577105Y-50337138D02*
X69862819Y-50432376D01*
X69862819Y-50432376D02*
X69958057Y-50527614D01*
X70815200Y-51575233D02*
X72339010Y-51575233D01*
X74434247Y-52146661D02*
X74339009Y-52241900D01*
X74339009Y-52241900D02*
X74053295Y-52337138D01*
X74053295Y-52337138D02*
X73862819Y-52337138D01*
X73862819Y-52337138D02*
X73577104Y-52241900D01*
X73577104Y-52241900D02*
X73386628Y-52051423D01*
X73386628Y-52051423D02*
X73291390Y-51860947D01*
X73291390Y-51860947D02*
X73196152Y-51479995D01*
X73196152Y-51479995D02*
X73196152Y-51194280D01*
X73196152Y-51194280D02*
X73291390Y-50813328D01*
X73291390Y-50813328D02*
X73386628Y-50622852D01*
X73386628Y-50622852D02*
X73577104Y-50432376D01*
X73577104Y-50432376D02*
X73862819Y-50337138D01*
X73862819Y-50337138D02*
X74053295Y-50337138D01*
X74053295Y-50337138D02*
X74339009Y-50432376D01*
X74339009Y-50432376D02*
X74434247Y-50527614D01*
X87468533Y-50337138D02*
X88611390Y-50337138D01*
X88039961Y-52337138D02*
X88039961Y-50337138D01*
X90420914Y-52146661D02*
X90325676Y-52241900D01*
X90325676Y-52241900D02*
X90039962Y-52337138D01*
X90039962Y-52337138D02*
X89849486Y-52337138D01*
X89849486Y-52337138D02*
X89563771Y-52241900D01*
X89563771Y-52241900D02*
X89373295Y-52051423D01*
X89373295Y-52051423D02*
X89278057Y-51860947D01*
X89278057Y-51860947D02*
X89182819Y-51479995D01*
X89182819Y-51479995D02*
X89182819Y-51194280D01*
X89182819Y-51194280D02*
X89278057Y-50813328D01*
X89278057Y-50813328D02*
X89373295Y-50622852D01*
X89373295Y-50622852D02*
X89563771Y-50432376D01*
X89563771Y-50432376D02*
X89849486Y-50337138D01*
X89849486Y-50337138D02*
X90039962Y-50337138D01*
X90039962Y-50337138D02*
X90325676Y-50432376D01*
X90325676Y-50432376D02*
X90420914Y-50527614D01*
X91278057Y-51575233D02*
X92801867Y-51575233D01*
X93659009Y-51765709D02*
X94611390Y-51765709D01*
X93468533Y-52337138D02*
X94135199Y-50337138D01*
X94135199Y-50337138D02*
X94801866Y-52337138D01*
X56816999Y-128994409D02*
X57769380Y-128994409D01*
X56626523Y-129565838D02*
X57293189Y-127565838D01*
X57293189Y-127565838D02*
X57959856Y-129565838D01*
X62340810Y-128518219D02*
X62626524Y-128613457D01*
X62626524Y-128613457D02*
X62721762Y-128708695D01*
X62721762Y-128708695D02*
X62817000Y-128899171D01*
X62817000Y-128899171D02*
X62817000Y-129184885D01*
X62817000Y-129184885D02*
X62721762Y-129375361D01*
X62721762Y-129375361D02*
X62626524Y-129470600D01*
X62626524Y-129470600D02*
X62436048Y-129565838D01*
X62436048Y-129565838D02*
X61674143Y-129565838D01*
X61674143Y-129565838D02*
X61674143Y-127565838D01*
X61674143Y-127565838D02*
X62340810Y-127565838D01*
X62340810Y-127565838D02*
X62531286Y-127661076D01*
X62531286Y-127661076D02*
X62626524Y-127756314D01*
X62626524Y-127756314D02*
X62721762Y-127946790D01*
X62721762Y-127946790D02*
X62721762Y-128137266D01*
X62721762Y-128137266D02*
X62626524Y-128327742D01*
X62626524Y-128327742D02*
X62531286Y-128422980D01*
X62531286Y-128422980D02*
X62340810Y-128518219D01*
X62340810Y-128518219D02*
X61674143Y-128518219D01*
D12*
X57523155Y-104019332D02*
X57142202Y-104285999D01*
X57523155Y-104476475D02*
X56723155Y-104476475D01*
X56723155Y-104476475D02*
X56723155Y-104171713D01*
X56723155Y-104171713D02*
X56761250Y-104095523D01*
X56761250Y-104095523D02*
X56799345Y-104057428D01*
X56799345Y-104057428D02*
X56875536Y-104019332D01*
X56875536Y-104019332D02*
X56989821Y-104019332D01*
X56989821Y-104019332D02*
X57066012Y-104057428D01*
X57066012Y-104057428D02*
X57104107Y-104095523D01*
X57104107Y-104095523D02*
X57142202Y-104171713D01*
X57142202Y-104171713D02*
X57142202Y-104476475D01*
X56723155Y-103295523D02*
X56723155Y-103676475D01*
X56723155Y-103676475D02*
X57104107Y-103714571D01*
X57104107Y-103714571D02*
X57066012Y-103676475D01*
X57066012Y-103676475D02*
X57027917Y-103600285D01*
X57027917Y-103600285D02*
X57027917Y-103409809D01*
X57027917Y-103409809D02*
X57066012Y-103333618D01*
X57066012Y-103333618D02*
X57104107Y-103295523D01*
X57104107Y-103295523D02*
X57180298Y-103257428D01*
X57180298Y-103257428D02*
X57370774Y-103257428D01*
X57370774Y-103257428D02*
X57446964Y-103295523D01*
X57446964Y-103295523D02*
X57485060Y-103333618D01*
X57485060Y-103333618D02*
X57523155Y-103409809D01*
X57523155Y-103409809D02*
X57523155Y-103600285D01*
X57523155Y-103600285D02*
X57485060Y-103676475D01*
X57485060Y-103676475D02*
X57446964Y-103714571D01*
X107234355Y-91801885D02*
X106853402Y-92068552D01*
X107234355Y-92259028D02*
X106434355Y-92259028D01*
X106434355Y-92259028D02*
X106434355Y-91954266D01*
X106434355Y-91954266D02*
X106472450Y-91878076D01*
X106472450Y-91878076D02*
X106510545Y-91839981D01*
X106510545Y-91839981D02*
X106586736Y-91801885D01*
X106586736Y-91801885D02*
X106701021Y-91801885D01*
X106701021Y-91801885D02*
X106777212Y-91839981D01*
X106777212Y-91839981D02*
X106815307Y-91878076D01*
X106815307Y-91878076D02*
X106853402Y-91954266D01*
X106853402Y-91954266D02*
X106853402Y-92259028D01*
X107234355Y-91039981D02*
X107234355Y-91497124D01*
X107234355Y-91268552D02*
X106434355Y-91268552D01*
X106434355Y-91268552D02*
X106548640Y-91344743D01*
X106548640Y-91344743D02*
X106624831Y-91420933D01*
X106624831Y-91420933D02*
X106662926Y-91497124D01*
X106434355Y-90544742D02*
X106434355Y-90468552D01*
X106434355Y-90468552D02*
X106472450Y-90392361D01*
X106472450Y-90392361D02*
X106510545Y-90354266D01*
X106510545Y-90354266D02*
X106586736Y-90316171D01*
X106586736Y-90316171D02*
X106739117Y-90278076D01*
X106739117Y-90278076D02*
X106929593Y-90278076D01*
X106929593Y-90278076D02*
X107081974Y-90316171D01*
X107081974Y-90316171D02*
X107158164Y-90354266D01*
X107158164Y-90354266D02*
X107196260Y-90392361D01*
X107196260Y-90392361D02*
X107234355Y-90468552D01*
X107234355Y-90468552D02*
X107234355Y-90544742D01*
X107234355Y-90544742D02*
X107196260Y-90620933D01*
X107196260Y-90620933D02*
X107158164Y-90659028D01*
X107158164Y-90659028D02*
X107081974Y-90697123D01*
X107081974Y-90697123D02*
X106929593Y-90735219D01*
X106929593Y-90735219D02*
X106739117Y-90735219D01*
X106739117Y-90735219D02*
X106586736Y-90697123D01*
X106586736Y-90697123D02*
X106510545Y-90659028D01*
X106510545Y-90659028D02*
X106472450Y-90620933D01*
X106472450Y-90620933D02*
X106434355Y-90544742D01*
X84628355Y-83318332D02*
X84247402Y-83584999D01*
X84628355Y-83775475D02*
X83828355Y-83775475D01*
X83828355Y-83775475D02*
X83828355Y-83470713D01*
X83828355Y-83470713D02*
X83866450Y-83394523D01*
X83866450Y-83394523D02*
X83904545Y-83356428D01*
X83904545Y-83356428D02*
X83980736Y-83318332D01*
X83980736Y-83318332D02*
X84095021Y-83318332D01*
X84095021Y-83318332D02*
X84171212Y-83356428D01*
X84171212Y-83356428D02*
X84209307Y-83394523D01*
X84209307Y-83394523D02*
X84247402Y-83470713D01*
X84247402Y-83470713D02*
X84247402Y-83775475D01*
X84628355Y-82937380D02*
X84628355Y-82784999D01*
X84628355Y-82784999D02*
X84590260Y-82708809D01*
X84590260Y-82708809D02*
X84552164Y-82670713D01*
X84552164Y-82670713D02*
X84437879Y-82594523D01*
X84437879Y-82594523D02*
X84285498Y-82556428D01*
X84285498Y-82556428D02*
X83980736Y-82556428D01*
X83980736Y-82556428D02*
X83904545Y-82594523D01*
X83904545Y-82594523D02*
X83866450Y-82632618D01*
X83866450Y-82632618D02*
X83828355Y-82708809D01*
X83828355Y-82708809D02*
X83828355Y-82861190D01*
X83828355Y-82861190D02*
X83866450Y-82937380D01*
X83866450Y-82937380D02*
X83904545Y-82975475D01*
X83904545Y-82975475D02*
X83980736Y-83013571D01*
X83980736Y-83013571D02*
X84171212Y-83013571D01*
X84171212Y-83013571D02*
X84247402Y-82975475D01*
X84247402Y-82975475D02*
X84285498Y-82937380D01*
X84285498Y-82937380D02*
X84323593Y-82861190D01*
X84323593Y-82861190D02*
X84323593Y-82708809D01*
X84323593Y-82708809D02*
X84285498Y-82632618D01*
X84285498Y-82632618D02*
X84247402Y-82594523D01*
X84247402Y-82594523D02*
X84171212Y-82556428D01*
D11*
X90510581Y-71098276D02*
X92796295Y-71098276D01*
X91653438Y-75098276D02*
X91653438Y-71098276D01*
X94129628Y-75098276D02*
X94129628Y-71098276D01*
X94129628Y-71098276D02*
X95653438Y-71098276D01*
X95653438Y-71098276D02*
X96034390Y-71288752D01*
X96034390Y-71288752D02*
X96224867Y-71479228D01*
X96224867Y-71479228D02*
X96415343Y-71860180D01*
X96415343Y-71860180D02*
X96415343Y-72431609D01*
X96415343Y-72431609D02*
X96224867Y-72812561D01*
X96224867Y-72812561D02*
X96034390Y-73003038D01*
X96034390Y-73003038D02*
X95653438Y-73193514D01*
X95653438Y-73193514D02*
X94129628Y-73193514D01*
X99843914Y-72431609D02*
X99843914Y-75098276D01*
X98891533Y-70907800D02*
X97939152Y-73764942D01*
X97939152Y-73764942D02*
X100415343Y-73764942D01*
D12*
X77485714Y-123553855D02*
X77219047Y-123172902D01*
X77028571Y-123553855D02*
X77028571Y-122753855D01*
X77028571Y-122753855D02*
X77333333Y-122753855D01*
X77333333Y-122753855D02*
X77409523Y-122791950D01*
X77409523Y-122791950D02*
X77447618Y-122830045D01*
X77447618Y-122830045D02*
X77485714Y-122906236D01*
X77485714Y-122906236D02*
X77485714Y-123020521D01*
X77485714Y-123020521D02*
X77447618Y-123096712D01*
X77447618Y-123096712D02*
X77409523Y-123134807D01*
X77409523Y-123134807D02*
X77333333Y-123172902D01*
X77333333Y-123172902D02*
X77028571Y-123172902D01*
X78247618Y-123553855D02*
X77790475Y-123553855D01*
X78019047Y-123553855D02*
X78019047Y-122753855D01*
X78019047Y-122753855D02*
X77942856Y-122868140D01*
X77942856Y-122868140D02*
X77866666Y-122944331D01*
X77866666Y-122944331D02*
X77790475Y-122982426D01*
X78514285Y-122753855D02*
X79009523Y-122753855D01*
X79009523Y-122753855D02*
X78742857Y-123058617D01*
X78742857Y-123058617D02*
X78857142Y-123058617D01*
X78857142Y-123058617D02*
X78933333Y-123096712D01*
X78933333Y-123096712D02*
X78971428Y-123134807D01*
X78971428Y-123134807D02*
X79009523Y-123210998D01*
X79009523Y-123210998D02*
X79009523Y-123401474D01*
X79009523Y-123401474D02*
X78971428Y-123477664D01*
X78971428Y-123477664D02*
X78933333Y-123515760D01*
X78933333Y-123515760D02*
X78857142Y-123553855D01*
X78857142Y-123553855D02*
X78628571Y-123553855D01*
X78628571Y-123553855D02*
X78552380Y-123515760D01*
X78552380Y-123515760D02*
X78514285Y-123477664D01*
D11*
X63405381Y-106531276D02*
X65691095Y-106531276D01*
X64548238Y-110531276D02*
X64548238Y-106531276D01*
X67024428Y-110531276D02*
X67024428Y-106531276D01*
X67024428Y-106531276D02*
X68548238Y-106531276D01*
X68548238Y-106531276D02*
X68929190Y-106721752D01*
X68929190Y-106721752D02*
X69119667Y-106912228D01*
X69119667Y-106912228D02*
X69310143Y-107293180D01*
X69310143Y-107293180D02*
X69310143Y-107864609D01*
X69310143Y-107864609D02*
X69119667Y-108245561D01*
X69119667Y-108245561D02*
X68929190Y-108436038D01*
X68929190Y-108436038D02*
X68548238Y-108626514D01*
X68548238Y-108626514D02*
X67024428Y-108626514D01*
X70643476Y-106531276D02*
X73119667Y-106531276D01*
X73119667Y-106531276D02*
X71786333Y-108055085D01*
X71786333Y-108055085D02*
X72357762Y-108055085D01*
X72357762Y-108055085D02*
X72738714Y-108245561D01*
X72738714Y-108245561D02*
X72929190Y-108436038D01*
X72929190Y-108436038D02*
X73119667Y-108816990D01*
X73119667Y-108816990D02*
X73119667Y-109769371D01*
X73119667Y-109769371D02*
X72929190Y-110150323D01*
X72929190Y-110150323D02*
X72738714Y-110340800D01*
X72738714Y-110340800D02*
X72357762Y-110531276D01*
X72357762Y-110531276D02*
X71214905Y-110531276D01*
X71214905Y-110531276D02*
X70833952Y-110340800D01*
X70833952Y-110340800D02*
X70643476Y-110150323D01*
D10*
X68024618Y-129375361D02*
X67929380Y-129470600D01*
X67929380Y-129470600D02*
X67643666Y-129565838D01*
X67643666Y-129565838D02*
X67453190Y-129565838D01*
X67453190Y-129565838D02*
X67167475Y-129470600D01*
X67167475Y-129470600D02*
X66976999Y-129280123D01*
X66976999Y-129280123D02*
X66881761Y-129089647D01*
X66881761Y-129089647D02*
X66786523Y-128708695D01*
X66786523Y-128708695D02*
X66786523Y-128422980D01*
X66786523Y-128422980D02*
X66881761Y-128042028D01*
X66881761Y-128042028D02*
X66976999Y-127851552D01*
X66976999Y-127851552D02*
X67167475Y-127661076D01*
X67167475Y-127661076D02*
X67453190Y-127565838D01*
X67453190Y-127565838D02*
X67643666Y-127565838D01*
X67643666Y-127565838D02*
X67929380Y-127661076D01*
X67929380Y-127661076D02*
X68024618Y-127756314D01*
X71929381Y-129565838D02*
X71929381Y-127565838D01*
X71929381Y-127565838D02*
X73072238Y-129565838D01*
X73072238Y-129565838D02*
X73072238Y-127565838D01*
D11*
X63405381Y-88751276D02*
X65691095Y-88751276D01*
X64548238Y-92751276D02*
X64548238Y-88751276D01*
X67024428Y-92751276D02*
X67024428Y-88751276D01*
X67024428Y-88751276D02*
X68548238Y-88751276D01*
X68548238Y-88751276D02*
X68929190Y-88941752D01*
X68929190Y-88941752D02*
X69119667Y-89132228D01*
X69119667Y-89132228D02*
X69310143Y-89513180D01*
X69310143Y-89513180D02*
X69310143Y-90084609D01*
X69310143Y-90084609D02*
X69119667Y-90465561D01*
X69119667Y-90465561D02*
X68929190Y-90656038D01*
X68929190Y-90656038D02*
X68548238Y-90846514D01*
X68548238Y-90846514D02*
X67024428Y-90846514D01*
X70833952Y-89132228D02*
X71024428Y-88941752D01*
X71024428Y-88941752D02*
X71405381Y-88751276D01*
X71405381Y-88751276D02*
X72357762Y-88751276D01*
X72357762Y-88751276D02*
X72738714Y-88941752D01*
X72738714Y-88941752D02*
X72929190Y-89132228D01*
X72929190Y-89132228D02*
X73119667Y-89513180D01*
X73119667Y-89513180D02*
X73119667Y-89894133D01*
X73119667Y-89894133D02*
X72929190Y-90465561D01*
X72929190Y-90465561D02*
X70643476Y-92751276D01*
X70643476Y-92751276D02*
X73119667Y-92751276D01*
D12*
%TO.C,DZ17*%
X106664600Y-59877400D02*
X106664600Y-61077400D01*
X108624600Y-59877400D02*
X106664600Y-59877400D01*
X108624600Y-61077400D02*
X106664600Y-61077400D01*
%TO.C,DZ4*%
X81906000Y-121773000D02*
X83106000Y-121773000D01*
X81906000Y-119813000D02*
X81906000Y-121773000D01*
X83106000Y-119813000D02*
X83106000Y-121773000D01*
%TO.C,ST6*%
X65735200Y-61137800D02*
X65735200Y-53517800D01*
X65735200Y-53517800D02*
X55575200Y-53517800D01*
X55575200Y-61137800D02*
X65735200Y-61137800D01*
X55575200Y-54787800D02*
X65735200Y-54787800D01*
X55575200Y-53517800D02*
X55575200Y-61137800D01*
%TO.C,ESP32-S3_BACK1*%
X139607600Y-122809000D02*
X139607600Y-69409000D01*
X139607600Y-122809000D02*
X136947600Y-122809000D01*
X139607600Y-69409000D02*
X136947600Y-69409000D01*
X138277600Y-125409000D02*
X136947600Y-125409000D01*
X136947600Y-125409000D02*
X136947600Y-124079000D01*
X136947600Y-122809000D02*
X136947600Y-69409000D01*
%TO.C,DZ15*%
X98370000Y-56804000D02*
X98370000Y-58004000D01*
X100330000Y-56804000D02*
X98370000Y-56804000D01*
X100330000Y-58004000D02*
X98370000Y-58004000D01*
%TO.C,DZ10*%
X94879000Y-122336000D02*
X94879000Y-123536000D01*
X96839000Y-122336000D02*
X94879000Y-122336000D01*
X96839000Y-123536000D02*
X94879000Y-123536000D01*
D13*
%TO.C,TP1*%
X58853000Y-64929000D02*
X78053000Y-64929000D01*
X58853000Y-81629000D02*
X58853000Y-64929000D01*
X78053000Y-64929000D02*
X78053000Y-81629000D01*
X78053000Y-81629000D02*
X58853000Y-81629000D01*
D10*
X58353000Y-66879000D02*
G75*
G03*
X58153000Y-66879000I-100000J0D01*
G01*
X58153000Y-66879000D02*
G75*
G03*
X58353000Y-66879000I100000J0D01*
G01*
D12*
%TO.C,R20*%
X92929064Y-63825800D02*
X91474936Y-63825800D01*
X92929064Y-62005800D02*
X91474936Y-62005800D01*
%TO.C,ST4*%
X86055200Y-61137800D02*
X86055200Y-53517800D01*
X86055200Y-53517800D02*
X75895200Y-53517800D01*
X75895200Y-61137800D02*
X86055200Y-61137800D01*
X75895200Y-54787800D02*
X86055200Y-54787800D01*
X75895200Y-53517800D02*
X75895200Y-61137800D01*
D13*
%TO.C,TP6*%
X85958200Y-100362000D02*
X105158200Y-100362000D01*
X85958200Y-117062000D02*
X85958200Y-100362000D01*
X105158200Y-100362000D02*
X105158200Y-117062000D01*
X105158200Y-117062000D02*
X85958200Y-117062000D01*
D10*
X85458200Y-102312000D02*
G75*
G03*
X85258200Y-102312000I-100000J0D01*
G01*
X85258200Y-102312000D02*
G75*
G03*
X85458200Y-102312000I100000J0D01*
G01*
D13*
%TO.C,TP5*%
X85958200Y-82582000D02*
X105158200Y-82582000D01*
X85958200Y-99282000D02*
X85958200Y-82582000D01*
X105158200Y-82582000D02*
X105158200Y-99282000D01*
X105158200Y-99282000D02*
X85958200Y-99282000D01*
D10*
X85458200Y-84532000D02*
G75*
G03*
X85258200Y-84532000I-100000J0D01*
G01*
X85258200Y-84532000D02*
G75*
G03*
X85458200Y-84532000I100000J0D01*
G01*
D12*
%TO.C,R4*%
X78855300Y-92014664D02*
X78855300Y-90560536D01*
X80675300Y-92014664D02*
X80675300Y-90560536D01*
%TO.C,DZ11*%
X94879000Y-123860000D02*
X94879000Y-125060000D01*
X96839000Y-123860000D02*
X94879000Y-123860000D01*
X96839000Y-125060000D02*
X94879000Y-125060000D01*
%TO.C,R11*%
X85174500Y-103097436D02*
X85174500Y-104551564D01*
X83354500Y-103097436D02*
X83354500Y-104551564D01*
%TO.C,R17*%
X61009636Y-62005800D02*
X62463764Y-62005800D01*
X61009636Y-63825800D02*
X62463764Y-63825800D01*
%TO.C,DZ20*%
X106664600Y-55280000D02*
X106664600Y-56480000D01*
X108624600Y-55280000D02*
X106664600Y-55280000D01*
X108624600Y-56480000D02*
X106664600Y-56480000D01*
%TO.C,DZ7*%
X87005000Y-122336000D02*
X87005000Y-123536000D01*
X88965000Y-122336000D02*
X87005000Y-122336000D01*
X88965000Y-123536000D02*
X87005000Y-123536000D01*
%TO.C,R14*%
X78727064Y-126530200D02*
X77272936Y-126530200D01*
X78727064Y-124710200D02*
X77272936Y-124710200D01*
%TO.C,DZ15*%
X98370000Y-55280000D02*
X98370000Y-56480000D01*
X100330000Y-55280000D02*
X98370000Y-55280000D01*
X100330000Y-56480000D02*
X98370000Y-56480000D01*
%TO.C,R7*%
X85174500Y-67700536D02*
X85174500Y-69154664D01*
X83354500Y-67700536D02*
X83354500Y-69154664D01*
%TO.C,R19*%
X82783764Y-63825800D02*
X81329636Y-63825800D01*
X82783764Y-62005800D02*
X81329636Y-62005800D01*
%TO.C,R2*%
X78855300Y-74361664D02*
X78855300Y-72907536D01*
X80675300Y-74361664D02*
X80675300Y-72907536D01*
%TO.C,DZ14*%
X98370000Y-58328000D02*
X98370000Y-59528000D01*
X100330000Y-58328000D02*
X98370000Y-58328000D01*
X100330000Y-59528000D02*
X98370000Y-59528000D01*
%TO.C,DZ1*%
X80058000Y-119253000D02*
X78858000Y-119253000D01*
X80058000Y-121213000D02*
X80058000Y-119253000D01*
X78858000Y-121213000D02*
X78858000Y-119253000D01*
%TO.C,R16*%
X104236436Y-124710200D02*
X105690564Y-124710200D01*
X104236436Y-126530200D02*
X105690564Y-126530200D01*
%TO.C,DZ3*%
X81582000Y-119253000D02*
X80382000Y-119253000D01*
X81582000Y-121213000D02*
X81582000Y-119253000D01*
X80382000Y-121213000D02*
X80382000Y-119253000D01*
%TO.C,R12*%
X105960500Y-109794664D02*
X105960500Y-108340536D01*
X107780500Y-109794664D02*
X107780500Y-108340536D01*
%TO.C,R15*%
X104236436Y-122280000D02*
X105690564Y-122280000D01*
X104236436Y-124100000D02*
X105690564Y-124100000D01*
%TO.C,DZ1*%
X78508600Y-119253000D02*
X77308600Y-119253000D01*
X78508600Y-121213000D02*
X78508600Y-119253000D01*
X77308600Y-121213000D02*
X77308600Y-119253000D01*
%TO.C,R1*%
X58069300Y-67700536D02*
X58069300Y-69154664D01*
X56249300Y-67700536D02*
X56249300Y-69154664D01*
%TO.C,DZ9*%
X87005000Y-125409400D02*
X87005000Y-126609400D01*
X88965000Y-125409400D02*
X87005000Y-125409400D01*
X88965000Y-126609400D02*
X87005000Y-126609400D01*
%TO.C,DZ6*%
X84979400Y-121773000D02*
X86179400Y-121773000D01*
X84979400Y-119813000D02*
X84979400Y-121773000D01*
X86179400Y-119813000D02*
X86179400Y-121773000D01*
%TO.C,R8*%
X105960500Y-74361664D02*
X105960500Y-72907536D01*
X107780500Y-74361664D02*
X107780500Y-72907536D01*
%TO.C,R6*%
X78855300Y-109794664D02*
X78855300Y-108340536D01*
X80675300Y-109794664D02*
X80675300Y-108340536D01*
%TO.C,R3*%
X58069300Y-85353536D02*
X58069300Y-86807664D01*
X56249300Y-85353536D02*
X56249300Y-86807664D01*
%TO.C,R18*%
X72623764Y-63825800D02*
X71169636Y-63825800D01*
X72623764Y-62005800D02*
X71169636Y-62005800D01*
%TO.C,ST5*%
X75895200Y-61137800D02*
X75895200Y-53517800D01*
X75895200Y-53517800D02*
X65735200Y-53517800D01*
X65735200Y-61137800D02*
X75895200Y-61137800D01*
X65735200Y-54787800D02*
X75895200Y-54787800D01*
X65735200Y-53517800D02*
X65735200Y-61137800D01*
%TO.C,ST3*%
X96215200Y-61137800D02*
X96215200Y-53517800D01*
X96215200Y-53517800D02*
X86055200Y-53517800D01*
X86055200Y-61137800D02*
X96215200Y-61137800D01*
X86055200Y-54787800D02*
X96215200Y-54787800D01*
X86055200Y-53517800D02*
X86055200Y-61137800D01*
%TO.C,ST1*%
X54737000Y-118935500D02*
X54737000Y-126555500D01*
X54737000Y-126555500D02*
X64897000Y-126555500D01*
X64897000Y-118935500D02*
X54737000Y-118935500D01*
X64897000Y-125285500D02*
X54737000Y-125285500D01*
X64897000Y-126555500D02*
X64897000Y-118935500D01*
%TO.C,DZ19*%
X106664600Y-56804000D02*
X106664600Y-58004000D01*
X108624600Y-56804000D02*
X106664600Y-56804000D01*
X108624600Y-58004000D02*
X106664600Y-58004000D01*
%TO.C,ESP32-S3_FRONT1*%
X114207600Y-122809000D02*
X114207600Y-69409000D01*
X114207600Y-122809000D02*
X111547600Y-122809000D01*
X114207600Y-69409000D02*
X111547600Y-69409000D01*
X112877600Y-125409000D02*
X111547600Y-125409000D01*
X111547600Y-125409000D02*
X111547600Y-124079000D01*
X111547600Y-122809000D02*
X111547600Y-69409000D01*
%TO.C,R5*%
X56249300Y-104613064D02*
X56249300Y-103158936D01*
X58069300Y-104613064D02*
X58069300Y-103158936D01*
%TO.C,DZ8*%
X87005000Y-123860000D02*
X87005000Y-125060000D01*
X88965000Y-123860000D02*
X87005000Y-123860000D01*
X88965000Y-125060000D02*
X87005000Y-125060000D01*
%TO.C,R10*%
X105960500Y-92014664D02*
X105960500Y-90560536D01*
X107780500Y-92014664D02*
X107780500Y-90560536D01*
%TO.C,DZ5*%
X83430000Y-121773000D02*
X84630000Y-121773000D01*
X83430000Y-119813000D02*
X83430000Y-121773000D01*
X84630000Y-119813000D02*
X84630000Y-121773000D01*
%TO.C,R9*%
X85174500Y-82457936D02*
X85174500Y-83912064D01*
X83354500Y-82457936D02*
X83354500Y-83912064D01*
D13*
%TO.C,TP4*%
X85958200Y-64929000D02*
X105158200Y-64929000D01*
X85958200Y-81629000D02*
X85958200Y-64929000D01*
X105158200Y-64929000D02*
X105158200Y-81629000D01*
X105158200Y-81629000D02*
X85958200Y-81629000D01*
D10*
X85458200Y-66879000D02*
G75*
G03*
X85258200Y-66879000I-100000J0D01*
G01*
X85258200Y-66879000D02*
G75*
G03*
X85458200Y-66879000I100000J0D01*
G01*
D12*
%TO.C,DZ12*%
X94879000Y-125409400D02*
X94879000Y-126609400D01*
X96839000Y-125409400D02*
X94879000Y-125409400D01*
X96839000Y-126609400D02*
X94879000Y-126609400D01*
%TO.C,R13*%
X78727064Y-124100000D02*
X77272936Y-124100000D01*
X78727064Y-122280000D02*
X77272936Y-122280000D01*
%TO.C,DZ13*%
X98370000Y-59877400D02*
X98370000Y-61077400D01*
X100330000Y-59877400D02*
X98370000Y-59877400D01*
X100330000Y-61077400D02*
X98370000Y-61077400D01*
D13*
%TO.C,TP3*%
X58853000Y-100362000D02*
X78053000Y-100362000D01*
X58853000Y-117062000D02*
X58853000Y-100362000D01*
X78053000Y-100362000D02*
X78053000Y-117062000D01*
X78053000Y-117062000D02*
X58853000Y-117062000D01*
D10*
X58353000Y-102312000D02*
G75*
G03*
X58153000Y-102312000I-100000J0D01*
G01*
X58153000Y-102312000D02*
G75*
G03*
X58353000Y-102312000I100000J0D01*
G01*
D12*
%TO.C,ST2*%
X64897000Y-118935500D02*
X64897000Y-126555500D01*
X64897000Y-126555500D02*
X75057000Y-126555500D01*
X75057000Y-118935500D02*
X64897000Y-118935500D01*
X75057000Y-125285500D02*
X64897000Y-125285500D01*
X75057000Y-126555500D02*
X75057000Y-118935500D01*
%TO.C,DZ18*%
X106664600Y-58328000D02*
X106664600Y-59528000D01*
X108624600Y-58328000D02*
X106664600Y-58328000D01*
X108624600Y-59528000D02*
X106664600Y-59528000D01*
D13*
%TO.C,TP2*%
X58853000Y-82582000D02*
X78053000Y-82582000D01*
X58853000Y-99282000D02*
X58853000Y-82582000D01*
X78053000Y-82582000D02*
X78053000Y-99282000D01*
X78053000Y-99282000D02*
X58853000Y-99282000D01*
D10*
X58353000Y-84532000D02*
G75*
G03*
X58153000Y-84532000I-100000J0D01*
G01*
X58153000Y-84532000D02*
G75*
G03*
X58353000Y-84532000I100000J0D01*
G01*
%TD*%
M02*
