%TF.GenerationSoftware,KiCad,Pcbnew,7.0.10*%
%TF.CreationDate,2024-03-07T00:47:07-03:00*%
%TF.ProjectId,board,626f6172-642e-46b6-9963-61645f706362,rev?*%
%TF.SameCoordinates,Original*%
%TF.FileFunction,Soldermask,Bot*%
%TF.FilePolarity,Negative*%
%FSLAX46Y46*%
G04 Gerber Fmt 4.6, Leading zero omitted, Abs format (unit mm)*
G04 Created by KiCad (PCBNEW 7.0.10) date 2024-03-07 00:47:07*
%MOMM*%
%LPD*%
G01*
G04 APERTURE LIST*
%ADD10C,3.000000*%
%ADD11C,1.700000*%
%ADD12O,1.700000X1.700000*%
%ADD13C,1.712000*%
G04 APERTURE END LIST*
D10*
%TO.C,ST6*%
X63195200Y-57327800D03*
X58115200Y-57327800D03*
%TD*%
D11*
%TO.C,ESP32-S3_BACK1*%
X138277600Y-124079000D03*
D12*
X138277600Y-121539000D03*
X138277600Y-118999000D03*
X138277600Y-116459000D03*
X138277600Y-113919000D03*
X138277600Y-111379000D03*
X138277600Y-108839000D03*
X138277600Y-106299000D03*
X138277600Y-103759000D03*
X138277600Y-101219000D03*
X138277600Y-98679000D03*
X138277600Y-96139000D03*
X138277600Y-93599000D03*
X138277600Y-91059000D03*
X138277600Y-88519000D03*
X138277600Y-85979000D03*
X138277600Y-83439000D03*
X138277600Y-80899000D03*
X138277600Y-78359000D03*
X138277600Y-75819000D03*
X138277600Y-73279000D03*
X138277600Y-70739000D03*
%TD*%
D13*
%TO.C,TP1*%
X63453000Y-66929000D03*
X63453000Y-79629000D03*
X73453000Y-79629000D03*
X73453000Y-66929000D03*
%TD*%
D10*
%TO.C,ST4*%
X83515200Y-57327800D03*
X78435200Y-57327800D03*
%TD*%
D13*
%TO.C,TP6*%
X90558200Y-102362000D03*
X90558200Y-115062000D03*
X100558200Y-115062000D03*
X100558200Y-102362000D03*
%TD*%
%TO.C,TP5*%
X90558200Y-84582000D03*
X90558200Y-97282000D03*
X100558200Y-97282000D03*
X100558200Y-84582000D03*
%TD*%
D10*
%TO.C,ST5*%
X73355200Y-57327800D03*
X68275200Y-57327800D03*
%TD*%
%TO.C,ST3*%
X93675200Y-57327800D03*
X88595200Y-57327800D03*
%TD*%
%TO.C,ST1*%
X57277000Y-122745500D03*
X62357000Y-122745500D03*
%TD*%
D11*
%TO.C,ESP32-S3_FRONT1*%
X112877600Y-124079000D03*
D12*
X112877600Y-121539000D03*
X112877600Y-118999000D03*
X112877600Y-116459000D03*
X112877600Y-113919000D03*
X112877600Y-111379000D03*
X112877600Y-108839000D03*
X112877600Y-106299000D03*
X112877600Y-103759000D03*
X112877600Y-101219000D03*
X112877600Y-98679000D03*
X112877600Y-96139000D03*
X112877600Y-93599000D03*
X112877600Y-91059000D03*
X112877600Y-88519000D03*
X112877600Y-85979000D03*
X112877600Y-83439000D03*
X112877600Y-80899000D03*
X112877600Y-78359000D03*
X112877600Y-75819000D03*
X112877600Y-73279000D03*
X112877600Y-70739000D03*
%TD*%
D13*
%TO.C,TP4*%
X90558200Y-66929000D03*
X90558200Y-79629000D03*
X100558200Y-79629000D03*
X100558200Y-66929000D03*
%TD*%
%TO.C,TP3*%
X63453000Y-102362000D03*
X63453000Y-115062000D03*
X73453000Y-115062000D03*
X73453000Y-102362000D03*
%TD*%
D10*
%TO.C,ST2*%
X67437000Y-122745500D03*
X72517000Y-122745500D03*
%TD*%
D13*
%TO.C,TP2*%
X63453000Y-84582000D03*
X63453000Y-97282000D03*
X73453000Y-97282000D03*
X73453000Y-84582000D03*
%TD*%
M02*
