%TF.GenerationSoftware,KiCad,Pcbnew,7.0.10*%
%TF.CreationDate,2024-03-07T00:47:07-03:00*%
%TF.ProjectId,board,626f6172-642e-46b6-9963-61645f706362,rev?*%
%TF.SameCoordinates,Original*%
%TF.FileFunction,Soldermask,Top*%
%TF.FilePolarity,Negative*%
%FSLAX46Y46*%
G04 Gerber Fmt 4.6, Leading zero omitted, Abs format (unit mm)*
G04 Created by KiCad (PCBNEW 7.0.10) date 2024-03-07 00:47:07*
%MOMM*%
%LPD*%
G01*
G04 APERTURE LIST*
G04 Aperture macros list*
%AMRoundRect*
0 Rectangle with rounded corners*
0 $1 Rounding radius*
0 $2 $3 $4 $5 $6 $7 $8 $9 X,Y pos of 4 corners*
0 Add a 4 corners polygon primitive as box body*
4,1,4,$2,$3,$4,$5,$6,$7,$8,$9,$2,$3,0*
0 Add four circle primitives for the rounded corners*
1,1,$1+$1,$2,$3*
1,1,$1+$1,$4,$5*
1,1,$1+$1,$6,$7*
1,1,$1+$1,$8,$9*
0 Add four rect primitives between the rounded corners*
20,1,$1+$1,$2,$3,$4,$5,0*
20,1,$1+$1,$4,$5,$6,$7,0*
20,1,$1+$1,$6,$7,$8,$9,0*
20,1,$1+$1,$8,$9,$2,$3,0*%
G04 Aperture macros list end*
%ADD10RoundRect,0.150000X0.150000X0.200000X-0.150000X0.200000X-0.150000X-0.200000X0.150000X-0.200000X0*%
%ADD11RoundRect,0.150000X-0.200000X0.150000X-0.200000X-0.150000X0.200000X-0.150000X0.200000X0.150000X0*%
%ADD12C,3.000000*%
%ADD13C,1.700000*%
%ADD14O,1.700000X1.700000*%
%ADD15C,1.712000*%
%ADD16RoundRect,0.250000X0.312500X0.625000X-0.312500X0.625000X-0.312500X-0.625000X0.312500X-0.625000X0*%
%ADD17RoundRect,0.250000X0.625000X-0.312500X0.625000X0.312500X-0.625000X0.312500X-0.625000X-0.312500X0*%
%ADD18RoundRect,0.250000X-0.625000X0.312500X-0.625000X-0.312500X0.625000X-0.312500X0.625000X0.312500X0*%
%ADD19RoundRect,0.250000X-0.312500X-0.625000X0.312500X-0.625000X0.312500X0.625000X-0.312500X0.625000X0*%
%ADD20RoundRect,0.150000X0.200000X-0.150000X0.200000X0.150000X-0.200000X0.150000X-0.200000X-0.150000X0*%
G04 APERTURE END LIST*
D10*
%TO.C,DZ17*%
X107224600Y-60477400D03*
X108624600Y-60477400D03*
%TD*%
D11*
%TO.C,DZ4*%
X82506000Y-121213000D03*
X82506000Y-119813000D03*
%TD*%
D12*
%TO.C,ST6*%
X63195200Y-57327800D03*
X58115200Y-57327800D03*
%TD*%
D13*
%TO.C,ESP32-S3_BACK1*%
X138277600Y-124079000D03*
D14*
X138277600Y-121539000D03*
X138277600Y-118999000D03*
X138277600Y-116459000D03*
X138277600Y-113919000D03*
X138277600Y-111379000D03*
X138277600Y-108839000D03*
X138277600Y-106299000D03*
X138277600Y-103759000D03*
X138277600Y-101219000D03*
X138277600Y-98679000D03*
X138277600Y-96139000D03*
X138277600Y-93599000D03*
X138277600Y-91059000D03*
X138277600Y-88519000D03*
X138277600Y-85979000D03*
X138277600Y-83439000D03*
X138277600Y-80899000D03*
X138277600Y-78359000D03*
X138277600Y-75819000D03*
X138277600Y-73279000D03*
X138277600Y-70739000D03*
%TD*%
D10*
%TO.C,DZ15*%
X98930000Y-57404000D03*
X100330000Y-57404000D03*
%TD*%
%TO.C,DZ10*%
X95439000Y-122936000D03*
X96839000Y-122936000D03*
%TD*%
D15*
%TO.C,TP1*%
X63453000Y-66929000D03*
X63453000Y-79629000D03*
X73453000Y-79629000D03*
X73453000Y-66929000D03*
%TD*%
D16*
%TO.C,R20*%
X93664500Y-62915800D03*
X90739500Y-62915800D03*
%TD*%
D12*
%TO.C,ST4*%
X83515200Y-57327800D03*
X78435200Y-57327800D03*
%TD*%
D15*
%TO.C,TP6*%
X90558200Y-102362000D03*
X90558200Y-115062000D03*
X100558200Y-115062000D03*
X100558200Y-102362000D03*
%TD*%
%TO.C,TP5*%
X90558200Y-84582000D03*
X90558200Y-97282000D03*
X100558200Y-97282000D03*
X100558200Y-84582000D03*
%TD*%
D17*
%TO.C,R4*%
X79765300Y-92750100D03*
X79765300Y-89825100D03*
%TD*%
D10*
%TO.C,DZ11*%
X95439000Y-124460000D03*
X96839000Y-124460000D03*
%TD*%
D18*
%TO.C,R11*%
X84264500Y-102362000D03*
X84264500Y-105287000D03*
%TD*%
D19*
%TO.C,R17*%
X60274200Y-62915800D03*
X63199200Y-62915800D03*
%TD*%
D10*
%TO.C,DZ20*%
X107224600Y-55880000D03*
X108624600Y-55880000D03*
%TD*%
%TO.C,DZ7*%
X87565000Y-122936000D03*
X88965000Y-122936000D03*
%TD*%
D16*
%TO.C,R14*%
X79462500Y-125620200D03*
X76537500Y-125620200D03*
%TD*%
D10*
%TO.C,DZ15*%
X98930000Y-55880000D03*
X100330000Y-55880000D03*
%TD*%
D18*
%TO.C,R7*%
X84264500Y-66965100D03*
X84264500Y-69890100D03*
%TD*%
D16*
%TO.C,R19*%
X83519200Y-62915800D03*
X80594200Y-62915800D03*
%TD*%
D17*
%TO.C,R2*%
X79765300Y-75097100D03*
X79765300Y-72172100D03*
%TD*%
D10*
%TO.C,DZ14*%
X98930000Y-58928000D03*
X100330000Y-58928000D03*
%TD*%
D20*
%TO.C,DZ1*%
X79458000Y-119813000D03*
X79458000Y-121213000D03*
%TD*%
D19*
%TO.C,R16*%
X103501000Y-125620200D03*
X106426000Y-125620200D03*
%TD*%
D20*
%TO.C,DZ3*%
X80982000Y-119813000D03*
X80982000Y-121213000D03*
%TD*%
D17*
%TO.C,R12*%
X106870500Y-110530100D03*
X106870500Y-107605100D03*
%TD*%
D19*
%TO.C,R15*%
X103501000Y-123190000D03*
X106426000Y-123190000D03*
%TD*%
D20*
%TO.C,DZ1*%
X77908600Y-119813000D03*
X77908600Y-121213000D03*
%TD*%
D18*
%TO.C,R1*%
X57159300Y-66965100D03*
X57159300Y-69890100D03*
%TD*%
D10*
%TO.C,DZ9*%
X87565000Y-126009400D03*
X88965000Y-126009400D03*
%TD*%
D11*
%TO.C,DZ6*%
X85579400Y-121213000D03*
X85579400Y-119813000D03*
%TD*%
D17*
%TO.C,R8*%
X106870500Y-75097100D03*
X106870500Y-72172100D03*
%TD*%
%TO.C,R6*%
X79765300Y-110530100D03*
X79765300Y-107605100D03*
%TD*%
D18*
%TO.C,R3*%
X57159300Y-84618100D03*
X57159300Y-87543100D03*
%TD*%
D16*
%TO.C,R18*%
X73359200Y-62915800D03*
X70434200Y-62915800D03*
%TD*%
D12*
%TO.C,ST5*%
X73355200Y-57327800D03*
X68275200Y-57327800D03*
%TD*%
%TO.C,ST3*%
X93675200Y-57327800D03*
X88595200Y-57327800D03*
%TD*%
%TO.C,ST1*%
X57277000Y-122745500D03*
X62357000Y-122745500D03*
%TD*%
D10*
%TO.C,DZ19*%
X107224600Y-57404000D03*
X108624600Y-57404000D03*
%TD*%
D13*
%TO.C,ESP32-S3_FRONT1*%
X112877600Y-124079000D03*
D14*
X112877600Y-121539000D03*
X112877600Y-118999000D03*
X112877600Y-116459000D03*
X112877600Y-113919000D03*
X112877600Y-111379000D03*
X112877600Y-108839000D03*
X112877600Y-106299000D03*
X112877600Y-103759000D03*
X112877600Y-101219000D03*
X112877600Y-98679000D03*
X112877600Y-96139000D03*
X112877600Y-93599000D03*
X112877600Y-91059000D03*
X112877600Y-88519000D03*
X112877600Y-85979000D03*
X112877600Y-83439000D03*
X112877600Y-80899000D03*
X112877600Y-78359000D03*
X112877600Y-75819000D03*
X112877600Y-73279000D03*
X112877600Y-70739000D03*
%TD*%
D17*
%TO.C,R5*%
X57159300Y-105348500D03*
X57159300Y-102423500D03*
%TD*%
D10*
%TO.C,DZ8*%
X87565000Y-124460000D03*
X88965000Y-124460000D03*
%TD*%
D17*
%TO.C,R10*%
X106870500Y-92750100D03*
X106870500Y-89825100D03*
%TD*%
D11*
%TO.C,DZ5*%
X84030000Y-121213000D03*
X84030000Y-119813000D03*
%TD*%
D18*
%TO.C,R9*%
X84264500Y-81722500D03*
X84264500Y-84647500D03*
%TD*%
D15*
%TO.C,TP4*%
X90558200Y-66929000D03*
X90558200Y-79629000D03*
X100558200Y-79629000D03*
X100558200Y-66929000D03*
%TD*%
D10*
%TO.C,DZ12*%
X95439000Y-126009400D03*
X96839000Y-126009400D03*
%TD*%
D16*
%TO.C,R13*%
X79462500Y-123190000D03*
X76537500Y-123190000D03*
%TD*%
D10*
%TO.C,DZ13*%
X98930000Y-60477400D03*
X100330000Y-60477400D03*
%TD*%
D15*
%TO.C,TP3*%
X63453000Y-102362000D03*
X63453000Y-115062000D03*
X73453000Y-115062000D03*
X73453000Y-102362000D03*
%TD*%
D12*
%TO.C,ST2*%
X67437000Y-122745500D03*
X72517000Y-122745500D03*
%TD*%
D10*
%TO.C,DZ18*%
X107224600Y-58928000D03*
X108624600Y-58928000D03*
%TD*%
D15*
%TO.C,TP2*%
X63453000Y-84582000D03*
X63453000Y-97282000D03*
X73453000Y-97282000D03*
X73453000Y-84582000D03*
%TD*%
M02*
