%TF.GenerationSoftware,KiCad,Pcbnew,7.0.10*%
%TF.CreationDate,2024-03-07T00:47:07-03:00*%
%TF.ProjectId,board,626f6172-642e-46b6-9963-61645f706362,rev?*%
%TF.SameCoordinates,Original*%
%TF.FileFunction,Copper,L2,Bot*%
%TF.FilePolarity,Positive*%
%FSLAX46Y46*%
G04 Gerber Fmt 4.6, Leading zero omitted, Abs format (unit mm)*
G04 Created by KiCad (PCBNEW 7.0.10) date 2024-03-07 00:47:07*
%MOMM*%
%LPD*%
G01*
G04 APERTURE LIST*
%TA.AperFunction,ComponentPad*%
%ADD10C,3.000000*%
%TD*%
%TA.AperFunction,ComponentPad*%
%ADD11C,1.700000*%
%TD*%
%TA.AperFunction,ComponentPad*%
%ADD12O,1.700000X1.700000*%
%TD*%
%TA.AperFunction,ComponentPad*%
%ADD13C,1.508000*%
%TD*%
%TA.AperFunction,ViaPad*%
%ADD14C,0.800000*%
%TD*%
%TA.AperFunction,ViaPad*%
%ADD15C,0.500000*%
%TD*%
%TA.AperFunction,Conductor*%
%ADD16C,0.250000*%
%TD*%
G04 APERTURE END LIST*
D10*
%TO.P,ST6,1,Pin_1*%
%TO.N,V_Ref_Current*%
X63195200Y-57327800D03*
%TO.P,ST6,2,Pin_2*%
%TO.N,N_Current_Wave*%
X58115200Y-57327800D03*
%TD*%
D11*
%TO.P,ESP32-S3_BACK1,1,Pin_1*%
%TO.N,GND*%
X138277600Y-124079000D03*
D12*
%TO.P,ESP32-S3_BACK1,2,Pin_2*%
%TO.N,N/C*%
X138277600Y-121539000D03*
%TO.P,ESP32-S3_BACK1,3,Pin_3*%
X138277600Y-118999000D03*
%TO.P,ESP32-S3_BACK1,4,Pin_4*%
X138277600Y-116459000D03*
%TO.P,ESP32-S3_BACK1,5,Pin_5*%
X138277600Y-113919000D03*
%TO.P,ESP32-S3_BACK1,6,Pin_6*%
X138277600Y-111379000D03*
%TO.P,ESP32-S3_BACK1,7,Pin_7*%
X138277600Y-108839000D03*
%TO.P,ESP32-S3_BACK1,8,Pin_8*%
X138277600Y-106299000D03*
%TO.P,ESP32-S3_BACK1,9,Pin_9*%
X138277600Y-103759000D03*
%TO.P,ESP32-S3_BACK1,10,Pin_10*%
X138277600Y-101219000D03*
%TO.P,ESP32-S3_BACK1,11,Pin_11*%
X138277600Y-98679000D03*
%TO.P,ESP32-S3_BACK1,12,Pin_12*%
X138277600Y-96139000D03*
%TO.P,ESP32-S3_BACK1,13,Pin_13*%
X138277600Y-93599000D03*
%TO.P,ESP32-S3_BACK1,14,Pin_14*%
X138277600Y-91059000D03*
%TO.P,ESP32-S3_BACK1,15,Pin_15*%
X138277600Y-88519000D03*
%TO.P,ESP32-S3_BACK1,16,Pin_16*%
X138277600Y-85979000D03*
%TO.P,ESP32-S3_BACK1,17,Pin_17*%
X138277600Y-83439000D03*
%TO.P,ESP32-S3_BACK1,18,Pin_18*%
X138277600Y-80899000D03*
%TO.P,ESP32-S3_BACK1,19,Pin_19*%
X138277600Y-78359000D03*
%TO.P,ESP32-S3_BACK1,20,Pin_20*%
X138277600Y-75819000D03*
%TO.P,ESP32-S3_BACK1,21,Pin_21*%
X138277600Y-73279000D03*
%TO.P,ESP32-S3_BACK1,22,Pin_22*%
X138277600Y-70739000D03*
%TD*%
D13*
%TO.P,TP1,1*%
%TO.N,A_Voltage_Load*%
X63453000Y-66929000D03*
%TO.P,TP1,2*%
%TO.N,N_Voltage*%
X63453000Y-79629000D03*
%TO.P,TP1,3*%
%TO.N,V_Ref_Voltage*%
X73453000Y-79629000D03*
%TO.P,TP1,4*%
%TO.N,A_Wave*%
X73453000Y-66929000D03*
%TD*%
D10*
%TO.P,ST4,1,Pin_1*%
%TO.N,V_Ref_Current*%
X83515200Y-57327800D03*
%TO.P,ST4,2,Pin_2*%
%TO.N,B_Current_Wave*%
X78435200Y-57327800D03*
%TD*%
D13*
%TO.P,TP6,1*%
%TO.N,BC_Voltage_Load*%
X90558200Y-102362000D03*
%TO.P,TP6,2*%
%TO.N,C_Voltage*%
X90558200Y-115062000D03*
%TO.P,TP6,3*%
%TO.N,V_Ref_Voltage*%
X100558200Y-115062000D03*
%TO.P,TP6,4*%
%TO.N,BC_Wave*%
X100558200Y-102362000D03*
%TD*%
%TO.P,TP5,1*%
%TO.N,AC_Voltage_Load*%
X90558200Y-84582000D03*
%TO.P,TP5,2*%
%TO.N,C_Voltage*%
X90558200Y-97282000D03*
%TO.P,TP5,3*%
%TO.N,V_Ref_Voltage*%
X100558200Y-97282000D03*
%TO.P,TP5,4*%
%TO.N,AC_Wave*%
X100558200Y-84582000D03*
%TD*%
D10*
%TO.P,ST5,1,Pin_1*%
%TO.N,V_Ref_Current*%
X73355200Y-57327800D03*
%TO.P,ST5,2,Pin_2*%
%TO.N,C_Current_Wave*%
X68275200Y-57327800D03*
%TD*%
%TO.P,ST3,1,Pin_1*%
%TO.N,V_Ref_Current*%
X93675200Y-57327800D03*
%TO.P,ST3,2,Pin_2*%
%TO.N,A_Current_Wave*%
X88595200Y-57327800D03*
%TD*%
%TO.P,ST1,1,Pin_1*%
%TO.N,A_Voltage*%
X57277000Y-122745500D03*
%TO.P,ST1,2,Pin_2*%
%TO.N,B_Voltage*%
X62357000Y-122745500D03*
%TD*%
D11*
%TO.P,ESP32-S3_FRONT1,1,Pin_1*%
%TO.N,GND*%
X112877600Y-124079000D03*
D12*
%TO.P,ESP32-S3_FRONT1,2,Pin_2*%
%TO.N,N/C*%
X112877600Y-121539000D03*
%TO.P,ESP32-S3_FRONT1,3,Pin_3*%
%TO.N,C_Wave*%
X112877600Y-118999000D03*
%TO.P,ESP32-S3_FRONT1,4,Pin_4*%
%TO.N,B_Wave*%
X112877600Y-116459000D03*
%TO.P,ESP32-S3_FRONT1,5,Pin_5*%
%TO.N,A_Wave*%
X112877600Y-113919000D03*
%TO.P,ESP32-S3_FRONT1,6,Pin_6*%
%TO.N,AB_Wave*%
X112877600Y-111379000D03*
%TO.P,ESP32-S3_FRONT1,7,Pin_7*%
%TO.N,AC_Wave*%
X112877600Y-108839000D03*
%TO.P,ESP32-S3_FRONT1,8,Pin_8*%
%TO.N,BC_Wave*%
X112877600Y-106299000D03*
%TO.P,ESP32-S3_FRONT1,9,Pin_9*%
%TO.N,A_Current_Wave*%
X112877600Y-103759000D03*
%TO.P,ESP32-S3_FRONT1,10,Pin_10*%
%TO.N,B_Current_Wave*%
X112877600Y-101219000D03*
%TO.P,ESP32-S3_FRONT1,11,Pin_11*%
%TO.N,C_Current_Wave*%
X112877600Y-98679000D03*
%TO.P,ESP32-S3_FRONT1,12,Pin_12*%
%TO.N,N_Current_Wave*%
X112877600Y-96139000D03*
%TO.P,ESP32-S3_FRONT1,13,Pin_13*%
%TO.N,N/C*%
X112877600Y-93599000D03*
%TO.P,ESP32-S3_FRONT1,14,Pin_14*%
X112877600Y-91059000D03*
%TO.P,ESP32-S3_FRONT1,15,Pin_15*%
X112877600Y-88519000D03*
%TO.P,ESP32-S3_FRONT1,16,Pin_16*%
X112877600Y-85979000D03*
%TO.P,ESP32-S3_FRONT1,17,Pin_17*%
X112877600Y-83439000D03*
%TO.P,ESP32-S3_FRONT1,18,Pin_18*%
X112877600Y-80899000D03*
%TO.P,ESP32-S3_FRONT1,19,Pin_19*%
X112877600Y-78359000D03*
%TO.P,ESP32-S3_FRONT1,20,Pin_20*%
X112877600Y-75819000D03*
%TO.P,ESP32-S3_FRONT1,21,Pin_21*%
X112877600Y-73279000D03*
%TO.P,ESP32-S3_FRONT1,22,Pin_22*%
%TO.N,VCC*%
X112877600Y-70739000D03*
%TD*%
D13*
%TO.P,TP4,1*%
%TO.N,AB_Voltage_Load*%
X90558200Y-66929000D03*
%TO.P,TP4,2*%
%TO.N,B_Voltage*%
X90558200Y-79629000D03*
%TO.P,TP4,3*%
%TO.N,V_Ref_Voltage*%
X100558200Y-79629000D03*
%TO.P,TP4,4*%
%TO.N,AB_Wave*%
X100558200Y-66929000D03*
%TD*%
%TO.P,TP3,1*%
%TO.N,C_Voltage_Load*%
X63453000Y-102362000D03*
%TO.P,TP3,2*%
%TO.N,N_Voltage*%
X63453000Y-115062000D03*
%TO.P,TP3,3*%
%TO.N,V_Ref_Voltage*%
X73453000Y-115062000D03*
%TO.P,TP3,4*%
%TO.N,C_Wave*%
X73453000Y-102362000D03*
%TD*%
D10*
%TO.P,ST2,1,Pin_1*%
%TO.N,C_Voltage*%
X67437000Y-122745500D03*
%TO.P,ST2,2,Pin_2*%
%TO.N,N_Voltage*%
X72517000Y-122745500D03*
%TD*%
D13*
%TO.P,TP2,1*%
%TO.N,B_Voltage_Load*%
X63453000Y-84582000D03*
%TO.P,TP2,2*%
%TO.N,N_Voltage*%
X63453000Y-97282000D03*
%TO.P,TP2,3*%
%TO.N,V_Ref_Voltage*%
X73453000Y-97282000D03*
%TO.P,TP2,4*%
%TO.N,B_Wave*%
X73453000Y-84582000D03*
%TD*%
D14*
%TO.N,A_Voltage*%
X84264500Y-80010000D03*
%TO.N,B_Voltage*%
X84264500Y-106934000D03*
D15*
%TO.N,A_Wave*%
X82742003Y-115697000D03*
X85579400Y-117729000D03*
%TO.N,B_Wave*%
X84030000Y-118364000D03*
X82042000Y-115697000D03*
%TO.N,C_Wave*%
X81407000Y-115697000D03*
X82506000Y-118999000D03*
D14*
%TO.N,V_Ref_Voltage*%
X76537500Y-118237000D03*
%TO.N,VCC*%
X98930000Y-54254400D03*
X81172200Y-125620200D03*
X103505000Y-128397000D03*
%TO.N,GND*%
X101727000Y-123190000D03*
X81153000Y-123190000D03*
D15*
%TO.N,AB_Wave*%
X93980000Y-126009400D03*
X93980000Y-121539000D03*
X109982000Y-111379000D03*
%TO.N,AC_Wave*%
X109220000Y-108839000D03*
X92202000Y-124460000D03*
X92202000Y-120624600D03*
%TO.N,BC_Wave*%
X90424000Y-119735600D03*
X108458000Y-106299000D03*
X90424000Y-122936000D03*
%TO.N,A_Current_Wave*%
X102057200Y-60477400D03*
X102057200Y-61899800D03*
%TO.N,C_Current_Wave*%
X104343200Y-57404000D03*
X104343200Y-63373000D03*
%TO.N,B_Current_Wave*%
X103200200Y-58928000D03*
X103200200Y-62611000D03*
%TO.N,N_Current_Wave*%
X105486200Y-64135000D03*
X105486200Y-55880000D03*
%TD*%
D16*
%TO.N,A_Voltage*%
X62928500Y-120078500D02*
X69342000Y-113665000D01*
X69342000Y-113665000D02*
X69342000Y-94932500D01*
X57277000Y-122745500D02*
X59944000Y-120078500D01*
X69342000Y-94932500D02*
X84264500Y-80010000D01*
X59944000Y-120078500D02*
X62928500Y-120078500D01*
%TO.N,B_Voltage*%
X70485000Y-114617500D02*
X70485000Y-113284000D01*
X62357000Y-122745500D02*
X70485000Y-114617500D01*
X76835000Y-106934000D02*
X84264500Y-106934000D01*
X70485000Y-113284000D02*
X76835000Y-106934000D01*
%TO.N,C_Voltage*%
X67437000Y-122745500D02*
X71501000Y-118681500D01*
X71501000Y-114300000D02*
X73710800Y-112090200D01*
X71501000Y-118681500D02*
X71501000Y-114300000D01*
X73710800Y-112090200D02*
X87586400Y-112090200D01*
X87586400Y-112090200D02*
X90558200Y-115062000D01*
%TO.N,A_Wave*%
X84774003Y-117729000D02*
X85579400Y-117729000D01*
X106984800Y-117729000D02*
X110794800Y-113919000D01*
X110794800Y-113919000D02*
X112877600Y-113919000D01*
X82742003Y-115697000D02*
X84774003Y-117729000D01*
X85579400Y-117729000D02*
X106984800Y-117729000D01*
%TO.N,B_Wave*%
X84030000Y-118364000D02*
X108635800Y-118364000D01*
X84030000Y-118364000D02*
X82042000Y-116376000D01*
X110540800Y-116459000D02*
X112877600Y-116459000D01*
X82042000Y-116376000D02*
X82042000Y-115697000D01*
X108635800Y-118364000D02*
X110540800Y-116459000D01*
%TO.N,C_Wave*%
X82506000Y-118999000D02*
X82506000Y-118745000D01*
X82506000Y-118999000D02*
X82506000Y-118193000D01*
X82506000Y-118193000D02*
X81407000Y-117094000D01*
X81407000Y-117094000D02*
X81407000Y-115697000D01*
X82506000Y-118999000D02*
X112877600Y-118999000D01*
%TO.N,V_Ref_Voltage*%
X73453000Y-115062000D02*
X73453000Y-116506000D01*
X75184000Y-118237000D02*
X76537500Y-118237000D01*
X86614000Y-114681000D02*
X88392000Y-116459000D01*
X81026000Y-114681000D02*
X86614000Y-114681000D01*
X99161200Y-116459000D02*
X100558200Y-115062000D01*
X88392000Y-116459000D02*
X99161200Y-116459000D01*
X76537500Y-118237000D02*
X77470000Y-118237000D01*
X73453000Y-116506000D02*
X75184000Y-118237000D01*
X77470000Y-118237000D02*
X81026000Y-114681000D01*
%TO.N,VCC*%
X112877600Y-70739000D02*
X112877600Y-55854600D01*
X115671600Y-125984000D02*
X115671600Y-125857000D01*
X83949000Y-128397000D02*
X113258600Y-128397000D01*
X115671600Y-71755000D02*
X114655600Y-70739000D01*
X115671600Y-125857000D02*
X115671600Y-71755000D01*
X111277400Y-54254400D02*
X98930000Y-54254400D01*
X114655600Y-70739000D02*
X112877600Y-70739000D01*
X113258600Y-128397000D02*
X115671600Y-125984000D01*
X112877600Y-55854600D02*
X111277400Y-54254400D01*
X81172200Y-125620200D02*
X83949000Y-128397000D01*
%TO.N,GND*%
X112877600Y-124079000D02*
X109372400Y-127584200D01*
X101727000Y-126568200D02*
X102743000Y-127584200D01*
X85547200Y-127584200D02*
X102743000Y-127584200D01*
X101727000Y-123190000D02*
X101727000Y-126568200D01*
X81153000Y-123190000D02*
X85547200Y-127584200D01*
X109372400Y-127584200D02*
X102743000Y-127584200D01*
%TO.N,AB_Wave*%
X93980000Y-126009400D02*
X93980000Y-121539000D01*
X112877600Y-111379000D02*
X109982000Y-111379000D01*
%TO.N,AC_Wave*%
X92202000Y-120624600D02*
X92202000Y-124460000D01*
X112877600Y-108839000D02*
X109220000Y-108839000D01*
%TO.N,BC_Wave*%
X112877600Y-106299000D02*
X108458000Y-106299000D01*
X90424000Y-119735600D02*
X90424000Y-122936000D01*
%TO.N,A_Current_Wave*%
X102057200Y-61899800D02*
X102057200Y-60477400D01*
X88595200Y-57327800D02*
X93167200Y-61899800D01*
X93167200Y-61899800D02*
X102057200Y-61899800D01*
%TO.N,C_Current_Wave*%
X68275200Y-57327800D02*
X74320400Y-63373000D01*
X74320400Y-63373000D02*
X104343200Y-63373000D01*
X104343200Y-57404000D02*
X104343200Y-63373000D01*
%TO.N,B_Current_Wave*%
X103149400Y-62661800D02*
X103200200Y-62611000D01*
X103200200Y-62611000D02*
X103200200Y-58928000D01*
X78435200Y-57327800D02*
X83769200Y-62661800D01*
X83769200Y-62661800D02*
X103149400Y-62661800D01*
%TO.N,N_Current_Wave*%
X58115200Y-57327800D02*
X64922400Y-64135000D01*
X64922400Y-64135000D02*
X105486200Y-64135000D01*
X105486200Y-64135000D02*
X105486200Y-55880000D01*
%TD*%
M02*
