M48
; DRILL file {KiCad 7.0.10} date Mon Apr  1 07:54:03 2024
; FORMAT={-:-/ absolute / metric / decimal}
; #@! TF.CreationDate,2024-04-01T07:54:03-03:00
; #@! TF.GenerationSoftware,Kicad,Pcbnew,7.0.10
; #@! TF.FileFunction,Plated,1,2,PTH
FMAT,2
METRIC
; #@! TA.AperFunction,Plated,PTH,ViaDrill
T1C0.200
; #@! TA.AperFunction,Plated,PTH,ComponentDrill
T2C0.750
; #@! TA.AperFunction,Plated,PTH,ComponentDrill
T3C0.800
; #@! TA.AperFunction,Plated,PTH,ComponentDrill
T4C1.000
; #@! TA.AperFunction,Plated,PTH,ComponentDrill
T5C1.020
; #@! TA.AperFunction,Plated,PTH,ComponentDrill
T6C1.100
; #@! TA.AperFunction,Plated,PTH,ComponentDrill
T7C1.300
; #@! TA.AperFunction,Plated,PTH,ComponentDrill
T8C1.520
%
G90
G05
T1
X117.348Y-83.185
X120.142Y-49.403
X120.142Y-54.483
X123.952Y-45.923
X124.46Y-104.013
X125.73Y-105.537
X127.0Y-104.775
X128.27Y-106.299
X140.081Y-101.473
X144.018Y-101.473
X151.389Y-48.59
X151.389Y-71.45
X152.151Y-50.876
X152.151Y-73.736
X152.913Y-53.162
X152.913Y-76.022
X153.675Y-55.448
X153.675Y-78.308
X154.442Y-57.734
X154.442Y-80.594
X155.199Y-60.02
X155.199Y-82.88
X155.961Y-62.306
X155.961Y-85.166
X156.713Y-64.592
X156.713Y-87.452
X157.475Y-66.878
X157.475Y-89.738
X158.232Y-69.164
X158.232Y-92.024
T2
X142.225Y-82.88
X142.23Y-69.164
X142.23Y-78.308
X142.23Y-80.594
X142.23Y-85.166
X142.23Y-87.452
X142.23Y-89.738
X142.23Y-92.024
X142.24Y-64.592
X142.24Y-66.878
X142.24Y-73.736
X142.24Y-76.022
X142.245Y-48.59
X142.245Y-50.876
X142.245Y-53.162
X142.245Y-55.448
X142.245Y-60.02
X142.245Y-71.45
X142.25Y-62.306
X142.255Y-57.734
X149.845Y-82.88
X149.85Y-69.164
X149.85Y-78.308
X149.85Y-80.594
X149.85Y-85.166
X149.85Y-87.452
X149.85Y-89.738
X149.85Y-92.024
X149.86Y-64.592
X149.86Y-66.878
X149.86Y-73.736
X149.86Y-76.022
X149.865Y-48.59
X149.865Y-50.876
X149.865Y-53.162
X149.865Y-55.448
X149.865Y-60.02
X149.865Y-71.45
X149.87Y-62.306
X149.875Y-57.734
T3
X78.74Y-46.228
X78.74Y-56.388
X78.74Y-64.008
X78.74Y-74.168
X78.74Y-81.788
X78.74Y-91.948
X90.678Y-100.028
X90.678Y-103.926
X100.838Y-100.028
X100.838Y-103.926
X102.362Y-48.768
X102.362Y-58.928
X102.362Y-66.548
X102.362Y-76.708
X102.362Y-84.328
X102.362Y-94.488
X106.807Y-58.039
X106.807Y-68.199
X106.807Y-71.628
X106.807Y-81.788
X106.807Y-84.328
X106.807Y-94.488
X106.807Y-100.751
X106.807Y-103.251
X109.982Y-58.039
X109.982Y-68.199
X109.982Y-71.628
X109.982Y-81.788
X109.982Y-84.328
X109.982Y-94.488
X168.879Y-47.371
X168.879Y-57.531
X168.93Y-79.019
X168.93Y-89.179
X188.183Y-79.019
X188.183Y-89.179
X188.234Y-47.371
X188.234Y-57.531
X191.625Y-47.371
X191.625Y-57.531
X191.625Y-79.019
X191.625Y-89.179
X210.98Y-47.371
X210.98Y-57.531
X210.98Y-79.019
X210.98Y-89.179
T4
X85.551Y-46.228
X85.551Y-58.928
X85.551Y-64.008
X85.551Y-76.708
X85.551Y-81.788
X85.551Y-94.488
X92.837Y-121.333
X92.837Y-127.333
X95.551Y-46.228
X95.551Y-58.928
X95.551Y-64.008
X95.551Y-76.708
X95.551Y-81.788
X95.551Y-94.488
X108.331Y-48.133
X108.331Y-50.673
X108.331Y-53.213
X126.437Y-115.333
X126.437Y-133.333
X139.827Y-116.713
X139.827Y-119.253
X139.827Y-121.793
X145.034Y-95.631
X145.034Y-98.171
X145.527Y-111.743
X145.527Y-134.493
X149.027Y-111.743
X151.384Y-95.631
X156.027Y-111.743
X159.527Y-111.743
X159.527Y-134.493
X160.782Y-48.083
X160.782Y-50.623
X160.782Y-53.163
X160.782Y-55.703
X160.782Y-58.243
X160.782Y-60.783
X160.782Y-82.677
X160.782Y-85.217
X160.782Y-87.757
X160.782Y-90.297
X172.212Y-98.933
X172.212Y-101.473
X172.212Y-104.013
X172.212Y-106.553
X172.212Y-109.093
X172.212Y-111.633
T5
X114.427Y-48.133
X114.427Y-50.673
X114.427Y-53.213
X114.427Y-55.753
X114.427Y-58.293
X114.427Y-60.833
X114.427Y-63.373
X114.427Y-65.913
X114.427Y-68.453
X114.427Y-70.993
X114.427Y-73.533
X114.427Y-76.073
X114.427Y-78.613
X114.427Y-81.153
X114.427Y-83.693
X114.427Y-86.233
X114.427Y-88.773
X114.427Y-91.313
X114.427Y-93.853
X114.427Y-96.393
X114.427Y-98.933
X114.427Y-101.473
X137.287Y-48.133
X137.287Y-50.673
X137.287Y-53.213
X137.287Y-55.753
X137.287Y-58.293
X137.287Y-60.833
X137.287Y-63.373
X137.287Y-65.913
X137.287Y-68.453
X137.287Y-70.993
X137.287Y-73.533
X137.287Y-76.073
X137.287Y-78.613
X137.287Y-81.153
X137.287Y-83.693
X137.287Y-86.233
X137.287Y-88.773
X137.287Y-91.313
X137.287Y-93.853
X137.287Y-96.393
X137.287Y-98.933
X137.287Y-101.473
T6
X133.167Y-117.983
X133.167Y-120.523
X133.167Y-123.063
X173.552Y-71.247
X173.553Y-65.303
X183.712Y-71.247
X183.713Y-65.303
X196.298Y-65.303
X196.302Y-71.247
X206.458Y-65.303
X206.462Y-71.247
T7
X172.562Y-47.371
X172.562Y-59.571
X172.602Y-76.979
X172.602Y-89.179
X178.562Y-61.571
X178.602Y-74.979
X184.562Y-47.371
X184.562Y-59.571
X184.602Y-76.979
X184.602Y-89.179
X195.308Y-47.371
X195.308Y-59.571
X195.308Y-76.979
X195.308Y-89.179
X201.308Y-61.571
X201.308Y-74.979
X207.308Y-47.371
X207.308Y-59.571
X207.308Y-76.979
X207.308Y-89.179
T8
X84.582Y-101.473
X84.582Y-106.553
X84.582Y-111.633
X84.582Y-116.713
X134.112Y-131.953
X139.192Y-131.953
X165.862Y-130.048
X170.942Y-130.048
X176.022Y-130.048
X181.102Y-130.048
X186.182Y-130.048
X191.262Y-130.048
X196.342Y-130.048
X201.422Y-130.048
M30
