%TF.GenerationSoftware,KiCad,Pcbnew,7.0.10*%
%TF.CreationDate,2024-04-01T07:53:45-03:00*%
%TF.ProjectId,board,626f6172-642e-46b6-9963-61645f706362,4.6*%
%TF.SameCoordinates,Original*%
%TF.FileFunction,Copper,L2,Bot*%
%TF.FilePolarity,Positive*%
%FSLAX46Y46*%
G04 Gerber Fmt 4.6, Leading zero omitted, Abs format (unit mm)*
G04 Created by KiCad (PCBNEW 7.0.10) date 2024-04-01 07:53:45*
%MOMM*%
%LPD*%
G01*
G04 APERTURE LIST*
%TA.AperFunction,ComponentPad*%
%ADD10C,1.600000*%
%TD*%
%TA.AperFunction,ComponentPad*%
%ADD11O,1.600000X1.600000*%
%TD*%
%TA.AperFunction,ComponentPad*%
%ADD12O,3.000000X3.000000*%
%TD*%
%TA.AperFunction,ComponentPad*%
%ADD13C,3.000000*%
%TD*%
%TA.AperFunction,ComponentPad*%
%ADD14C,1.950000*%
%TD*%
%TA.AperFunction,ComponentPad*%
%ADD15O,1.700000X1.700000*%
%TD*%
%TA.AperFunction,ComponentPad*%
%ADD16O,1.500000X1.500000*%
%TD*%
%TA.AperFunction,ComponentPad*%
%ADD17O,1.508000X1.508000*%
%TD*%
%TA.AperFunction,ComponentPad*%
%ADD18C,1.508000*%
%TD*%
%TA.AperFunction,ComponentPad*%
%ADD19R,1.676400X1.676400*%
%TD*%
%TA.AperFunction,ComponentPad*%
%ADD20O,2.000000X2.000000*%
%TD*%
%TA.AperFunction,ComponentPad*%
%ADD21C,2.000000*%
%TD*%
%TA.AperFunction,ComponentPad*%
%ADD22O,2.200000X2.200000*%
%TD*%
%TA.AperFunction,ComponentPad*%
%ADD23O,1.530000X1.530000*%
%TD*%
%TA.AperFunction,ComponentPad*%
%ADD24C,1.530000*%
%TD*%
%TA.AperFunction,ComponentPad*%
%ADD25O,2.000000X1.905000*%
%TD*%
%TA.AperFunction,ViaPad*%
%ADD26C,0.400000*%
%TD*%
%TA.AperFunction,Conductor*%
%ADD27C,0.200000*%
%TD*%
%TA.AperFunction,Conductor*%
%ADD28C,0.500000*%
%TD*%
G04 APERTURE END LIST*
D10*
%TO.P,R21,1*%
%TO.N,TC A-1*%
X191624700Y-79019400D03*
D11*
%TO.P,R21,2*%
%TO.N,Net-(K3-PadNO)*%
X191624700Y-89179400D03*
%TD*%
D12*
%TO.P,J6,1,Pin_1*%
%TO.N,C Cwave*%
X176022000Y-130048000D03*
D13*
%TO.P,J6,2,Pin_2*%
%TO.N,TC A-1*%
X181102000Y-130048000D03*
%TD*%
D14*
%TO.P,K2,COIL1*%
%TO.N,Select C Level*%
X195307700Y-59571000D03*
%TO.P,K2,COIL2*%
%TO.N,GND*%
X207307700Y-59571000D03*
%TO.P,K2,COM*%
%TO.N,B Cwave*%
X201307700Y-61571000D03*
%TO.P,K2,NC*%
%TO.N,Net-(K2-PadNC)*%
X195307700Y-47371000D03*
%TO.P,K2,NO*%
%TO.N,Net-(K2-PadNO)*%
X207307700Y-47371000D03*
%TD*%
D10*
%TO.P,R15,1*%
%TO.N,TC A-1*%
X168879000Y-57531000D03*
D11*
%TO.P,R15,2*%
%TO.N,Net-(K1-PadNC)*%
X168879000Y-47371000D03*
%TD*%
D14*
%TO.P,K4,COIL1*%
%TO.N,GND*%
X184601600Y-76979400D03*
%TO.P,K4,COIL2*%
%TO.N,Select C Level*%
X172601600Y-76979400D03*
%TO.P,K4,COM*%
%TO.N,N Cwave*%
X178601600Y-74979400D03*
%TO.P,K4,NC*%
%TO.N,Net-(K4-PadNC)*%
X184601600Y-89179400D03*
%TO.P,K4,NO*%
%TO.N,Net-(K4-PadNO)*%
X172601600Y-89179400D03*
%TD*%
D15*
%TO.P,P1,1,Pin_1*%
%TO.N,GND*%
X151384000Y-95631000D03*
%TD*%
D10*
%TO.P,R10,1*%
%TO.N,B Vwave*%
X106807000Y-81788000D03*
D11*
%TO.P,R10,2*%
%TO.N,AB Vwave*%
X106807000Y-71628000D03*
%TD*%
D10*
%TO.P,R22,1*%
%TO.N,TC A-1*%
X168929800Y-79019400D03*
D11*
%TO.P,R22,2*%
%TO.N,Net-(K4-PadNO)*%
X168929800Y-89179400D03*
%TD*%
D10*
%TO.P,R5,1*%
%TO.N,Net-(R5-Pad1)*%
X78740000Y-81788000D03*
D11*
%TO.P,R5,2*%
%TO.N,Line C*%
X78740000Y-91948000D03*
%TD*%
D16*
%TO.P,DZ5,1,K*%
%TO.N,Vcc*%
X142245000Y-53162200D03*
%TO.P,DZ5,2,A*%
%TO.N,A Vwave*%
X149865000Y-53162200D03*
%TD*%
D15*
%TO.P,P2,1,Pin_1*%
%TO.N,UART TX*%
X145034000Y-95631000D03*
%TO.P,P2,2,Pin_2*%
%TO.N,UART RX*%
X145034000Y-98171000D03*
%TD*%
D17*
%TO.P,T1,1*%
%TO.N,Net-(R3-Pad1)*%
X85551000Y-46228000D03*
D18*
%TO.P,T1,2*%
%TO.N,Neutral*%
X85551000Y-58928000D03*
%TO.P,T1,3*%
%TO.N,A Vwave*%
X95551000Y-58928000D03*
%TO.P,T1,4*%
%TO.N,TC A-1*%
X95551000Y-46228000D03*
%TD*%
D10*
%TO.P,R8,1*%
%TO.N,C Vwave*%
X102362000Y-94488000D03*
D11*
%TO.P,R8,2*%
%TO.N,TC A-1*%
X102362000Y-84328000D03*
%TD*%
D19*
%TO.P,U1,B+,B+*%
%TO.N,Battery +*%
X149027000Y-111743000D03*
%TO.P,U1,B-,B-*%
%TO.N,Battery -*%
X156027000Y-111743000D03*
%TO.P,U1,IN+,IN+*%
%TO.N,Net-(PS1-+Vout)*%
X145527000Y-134493000D03*
%TO.P,U1,IN-,IN-*%
%TO.N,Net-(PS1--Vout)*%
X159527000Y-134493000D03*
%TO.P,U1,OUT+,OUT+*%
%TO.N,Vin*%
X145527000Y-111743000D03*
%TO.P,U1,OUT-,OUT-*%
%TO.N,GND*%
X159527000Y-111743000D03*
%TD*%
D15*
%TO.P,P3,1,Pin_1*%
%TO.N,A Cwave*%
X160782000Y-82677000D03*
%TO.P,P3,2,Pin_2*%
%TO.N,B Cwave*%
X160782000Y-85217000D03*
%TO.P,P3,3,Pin_3*%
%TO.N,C Cwave*%
X160782000Y-87757000D03*
%TO.P,P3,4,Pin_4*%
%TO.N,N Cwave*%
X160782000Y-90297000D03*
%TD*%
D10*
%TO.P,R20,1*%
%TO.N,TC A-1*%
X210979500Y-57531000D03*
D11*
%TO.P,R20,2*%
%TO.N,Net-(K2-PadNO)*%
X210979500Y-47371000D03*
%TD*%
D16*
%TO.P,DZ13,1,K*%
%TO.N,Vcc*%
X142250000Y-62306200D03*
%TO.P,DZ13,2,A*%
%TO.N,A Cwave*%
X149870000Y-62306200D03*
%TD*%
%TO.P,DZ4,1,K*%
%TO.N,B Vwave*%
X149860000Y-73736200D03*
%TO.P,DZ4,2,A*%
%TO.N,GND*%
X142240000Y-73736200D03*
%TD*%
%TO.P,DZ9,1,K*%
%TO.N,Vcc*%
X142255000Y-57734200D03*
%TO.P,DZ9,2,A*%
%TO.N,AB Vwave*%
X149875000Y-57734200D03*
%TD*%
%TO.P,DZ1,1,K*%
%TO.N,Vcc*%
X142245000Y-48590200D03*
%TO.P,DZ1,2,A*%
%TO.N,C Vwave*%
X149865000Y-48590200D03*
%TD*%
D10*
%TO.P,R11,1*%
%TO.N,BC Vwave*%
X106807000Y-94488000D03*
D11*
%TO.P,R11,2*%
%TO.N,B Vwave*%
X106807000Y-84328000D03*
%TD*%
%TO.P,C1,1*%
%TO.N,Vcc*%
X106807000Y-100751000D03*
D10*
%TO.P,C1,2*%
%TO.N,GND*%
X106807000Y-103251000D03*
%TD*%
D16*
%TO.P,DZ12,1,K*%
%TO.N,CA Vwave*%
X149845000Y-82880200D03*
%TO.P,DZ12,2,A*%
%TO.N,GND*%
X142225000Y-82880200D03*
%TD*%
D10*
%TO.P,R19,1*%
%TO.N,TC A-1*%
X188233800Y-57531000D03*
D11*
%TO.P,R19,2*%
%TO.N,Net-(K1-PadNO)*%
X188233800Y-47371000D03*
%TD*%
D10*
%TO.P,R1,1*%
%TO.N,Vcc*%
X100838000Y-100028379D03*
D11*
%TO.P,R1,2*%
%TO.N,TC A-1*%
X90678000Y-100028379D03*
%TD*%
D12*
%TO.P,J3,1,Pin_1*%
%TO.N,Line A*%
X84582000Y-101473000D03*
D13*
%TO.P,J3,2,Pin_2*%
%TO.N,Line B*%
X84582000Y-106553000D03*
%TD*%
D10*
%TO.P,R2,1*%
%TO.N,TC A-1*%
X90678000Y-103925999D03*
D11*
%TO.P,R2,2*%
%TO.N,GND*%
X100838000Y-103925999D03*
%TD*%
D16*
%TO.P,DZ8,1,K*%
%TO.N,BC Vwave*%
X149850000Y-78308200D03*
%TO.P,DZ8,2,A*%
%TO.N,GND*%
X142230000Y-78308200D03*
%TD*%
D10*
%TO.P,R9,1*%
%TO.N,AB Vwave*%
X106807000Y-68199000D03*
D11*
%TO.P,R9,2*%
%TO.N,A Vwave*%
X106807000Y-58039000D03*
%TD*%
D16*
%TO.P,DZ3,1,K*%
%TO.N,Vcc*%
X142245000Y-50876200D03*
%TO.P,DZ3,2,A*%
%TO.N,B Vwave*%
X149865000Y-50876200D03*
%TD*%
D17*
%TO.P,T2,1*%
%TO.N,Net-(R4-Pad1)*%
X85551000Y-64008000D03*
D18*
%TO.P,T2,2*%
%TO.N,Neutral*%
X85551000Y-76708000D03*
%TO.P,T2,3*%
%TO.N,B Vwave*%
X95551000Y-76708000D03*
%TO.P,T2,4*%
%TO.N,TC A-1*%
X95551000Y-64008000D03*
%TD*%
D16*
%TO.P,DZ17,1,K*%
%TO.N,Vcc*%
X142240000Y-66878200D03*
%TO.P,DZ17,2,A*%
%TO.N,C Cwave*%
X149860000Y-66878200D03*
%TD*%
D15*
%TO.P,SW2,1,A*%
%TO.N,Vcc*%
X108331000Y-48133000D03*
%TO.P,SW2,2,B*%
%TO.N,System Type*%
X108331000Y-50673000D03*
%TO.P,SW2,3,C*%
%TO.N,GND*%
X108331000Y-53213000D03*
%TD*%
D20*
%TO.P,PS1,1,AC/L*%
%TO.N,Line A*%
X92837000Y-121333000D03*
D21*
%TO.P,PS1,2,AC/N*%
%TO.N,Neutral*%
X92837000Y-127333000D03*
%TO.P,PS1,3,-Vout*%
%TO.N,Net-(PS1--Vout)*%
X126437000Y-115333000D03*
%TO.P,PS1,4,+Vout*%
%TO.N,Net-(PS1-+Vout)*%
X126437000Y-133333000D03*
%TD*%
D16*
%TO.P,DZ14,1,K*%
%TO.N,A Cwave*%
X149850000Y-85166200D03*
%TO.P,DZ14,2,A*%
%TO.N,GND*%
X142230000Y-85166200D03*
%TD*%
%TO.P,DZ2,1,K*%
%TO.N,C Vwave*%
X149865000Y-71450200D03*
%TO.P,DZ2,2,A*%
%TO.N,GND*%
X142245000Y-71450200D03*
%TD*%
%TO.P,DZ19,1,K*%
%TO.N,Vcc*%
X142230000Y-69164200D03*
%TO.P,DZ19,2,A*%
%TO.N,N Cwave*%
X149850000Y-69164200D03*
%TD*%
D12*
%TO.P,J4,1,Pin_1*%
%TO.N,A Cwave*%
X196342000Y-130048000D03*
D13*
%TO.P,J4,2,Pin_2*%
%TO.N,TC A-1*%
X201422000Y-130048000D03*
%TD*%
D22*
%TO.P,D4,1,K*%
%TO.N,Select C Level*%
X173552000Y-71247000D03*
%TO.P,D4,2,A*%
%TO.N,GND*%
X183712000Y-71247000D03*
%TD*%
D10*
%TO.P,R3,1*%
%TO.N,Net-(R3-Pad1)*%
X78740000Y-46228000D03*
D11*
%TO.P,R3,2*%
%TO.N,Line A*%
X78740000Y-56388000D03*
%TD*%
D16*
%TO.P,DZ11,1,K*%
%TO.N,Vcc*%
X142245000Y-60020200D03*
%TO.P,DZ11,2,A*%
%TO.N,CA Vwave*%
X149865000Y-60020200D03*
%TD*%
%TO.P,DZ7,1,K*%
%TO.N,Vcc*%
X142245000Y-55448200D03*
%TO.P,DZ7,2,A*%
%TO.N,BC Vwave*%
X149865000Y-55448200D03*
%TD*%
D22*
%TO.P,D2,1,K*%
%TO.N,Select C Level*%
X196298300Y-65303400D03*
%TO.P,D2,2,A*%
%TO.N,GND*%
X206458300Y-65303400D03*
%TD*%
D12*
%TO.P,J7,1,Pin_1*%
%TO.N,N Cwave*%
X165862000Y-130048000D03*
D13*
%TO.P,J7,2,Pin_2*%
%TO.N,TC A-1*%
X170942000Y-130048000D03*
%TD*%
D22*
%TO.P,D3,1,K*%
%TO.N,Select C Level*%
X196302000Y-71247000D03*
%TO.P,D3,2,A*%
%TO.N,GND*%
X206462000Y-71247000D03*
%TD*%
D10*
%TO.P,R7,1*%
%TO.N,B Vwave*%
X102362000Y-76708000D03*
D11*
%TO.P,R7,2*%
%TO.N,TC A-1*%
X102362000Y-66548000D03*
%TD*%
D14*
%TO.P,K1,COIL1*%
%TO.N,Select C Level*%
X172562000Y-59571000D03*
%TO.P,K1,COIL2*%
%TO.N,GND*%
X184562000Y-59571000D03*
%TO.P,K1,COM*%
%TO.N,A Cwave*%
X178562000Y-61571000D03*
%TO.P,K1,NC*%
%TO.N,Net-(K1-PadNC)*%
X172562000Y-47371000D03*
%TO.P,K1,NO*%
%TO.N,Net-(K1-PadNO)*%
X184562000Y-47371000D03*
%TD*%
D10*
%TO.P,R12,1*%
%TO.N,C Vwave*%
X109982000Y-84328000D03*
D11*
%TO.P,R12,2*%
%TO.N,BC Vwave*%
X109982000Y-94488000D03*
%TD*%
D16*
%TO.P,DZ16,1,K*%
%TO.N,B Cwave*%
X149850000Y-87452200D03*
%TO.P,DZ16,2,A*%
%TO.N,GND*%
X142230000Y-87452200D03*
%TD*%
%TO.P,DZ18,1,K*%
%TO.N,C Cwave*%
X149850000Y-89738200D03*
%TO.P,DZ18,2,A*%
%TO.N,GND*%
X142230000Y-89738200D03*
%TD*%
D10*
%TO.P,R17,1*%
%TO.N,TC A-1*%
X210979500Y-79019400D03*
D11*
%TO.P,R17,2*%
%TO.N,Net-(K3-PadNC)*%
X210979500Y-89179400D03*
%TD*%
D10*
%TO.P,R13,1*%
%TO.N,CA Vwave*%
X109982000Y-71628000D03*
D11*
%TO.P,R13,2*%
%TO.N,C Vwave*%
X109982000Y-81788000D03*
%TD*%
D10*
%TO.P,R4,1*%
%TO.N,Net-(R4-Pad1)*%
X78740000Y-64008000D03*
D11*
%TO.P,R4,2*%
%TO.N,Line B*%
X78740000Y-74168000D03*
%TD*%
D10*
%TO.P,R14,1*%
%TO.N,A Vwave*%
X109982000Y-58039000D03*
D11*
%TO.P,R14,2*%
%TO.N,CA Vwave*%
X109982000Y-68199000D03*
%TD*%
D12*
%TO.P,J2,1,Pin_1*%
%TO.N,Line C*%
X84582000Y-111633000D03*
D13*
%TO.P,J2,2,Pin_2*%
%TO.N,Neutral*%
X84582000Y-116713000D03*
%TD*%
D15*
%TO.P,P4,1,Pin_1*%
%TO.N,C Vwave*%
X160782000Y-48083000D03*
%TO.P,P4,2,Pin_2*%
%TO.N,B Vwave*%
X160782000Y-50623000D03*
%TO.P,P4,3,Pin_3*%
%TO.N,A Vwave*%
X160782000Y-53163000D03*
%TO.P,P4,4,Pin_4*%
%TO.N,BC Vwave*%
X160782000Y-55703000D03*
%TO.P,P4,5,Pin_5*%
%TO.N,AB Vwave*%
X160782000Y-58243000D03*
%TO.P,P4,6,Pin_6*%
%TO.N,CA Vwave*%
X160782000Y-60783000D03*
%TD*%
D16*
%TO.P,DZ6,1,K*%
%TO.N,A Vwave*%
X149860000Y-76022200D03*
%TO.P,DZ6,2,A*%
%TO.N,GND*%
X142240000Y-76022200D03*
%TD*%
%TO.P,DZ10,1,K*%
%TO.N,AB Vwave*%
X149850000Y-80594200D03*
%TO.P,DZ10,2,A*%
%TO.N,GND*%
X142230000Y-80594200D03*
%TD*%
%TO.P,DZ20,1,K*%
%TO.N,N Cwave*%
X149850000Y-92024200D03*
%TO.P,DZ20,2,A*%
%TO.N,GND*%
X142230000Y-92024200D03*
%TD*%
D23*
%TO.P,MCU1,J1_1,3V3*%
%TO.N,Vcc*%
X114427000Y-48133000D03*
D24*
%TO.P,MCU1,J1_2,3V3__1*%
%TO.N,unconnected-(MCU1-3V3__1-PadJ1_2)*%
X114427000Y-50673000D03*
%TO.P,MCU1,J1_3,RST*%
%TO.N,unconnected-(MCU1-RST-PadJ1_3)*%
X114427000Y-53213000D03*
%TO.P,MCU1,J1_4,GPIO4*%
%TO.N,N Cwave*%
X114427000Y-55753000D03*
%TO.P,MCU1,J1_5,GPIO5*%
%TO.N,C Cwave*%
X114427000Y-58293000D03*
%TO.P,MCU1,J1_6,GPIO6*%
%TO.N,B Cwave*%
X114427000Y-60833000D03*
%TO.P,MCU1,J1_7,GPIO7*%
%TO.N,A Cwave*%
X114427000Y-63373000D03*
%TO.P,MCU1,J1_8,GPIO15*%
%TO.N,CA Vwave*%
X114427000Y-65913000D03*
%TO.P,MCU1,J1_9,GPIO16*%
%TO.N,AB Vwave*%
X114427000Y-68453000D03*
%TO.P,MCU1,J1_10,GPIO17*%
%TO.N,BC Vwave*%
X114427000Y-70993000D03*
%TO.P,MCU1,J1_11,GPIO18*%
%TO.N,A Vwave*%
X114427000Y-73533000D03*
%TO.P,MCU1,J1_12,GPIO8*%
%TO.N,B Vwave*%
X114427000Y-76073000D03*
%TO.P,MCU1,J1_13,GPIO3*%
%TO.N,C Vwave*%
X114427000Y-78613000D03*
%TO.P,MCU1,J1_14,GPIO46*%
%TO.N,unconnected-(MCU1-GPIO46-PadJ1_14)*%
X114427000Y-81153000D03*
%TO.P,MCU1,J1_15,GPIO9*%
%TO.N,unconnected-(MCU1-GPIO9-PadJ1_15)*%
X114427000Y-83693000D03*
%TO.P,MCU1,J1_16,GPIO10*%
%TO.N,CS*%
X114427000Y-86233000D03*
%TO.P,MCU1,J1_17,GPIO11*%
%TO.N,MOSI*%
X114427000Y-88773000D03*
%TO.P,MCU1,J1_18,GPIO12*%
%TO.N,SCK*%
X114427000Y-91313000D03*
%TO.P,MCU1,J1_19,GPIO13*%
%TO.N,MISO*%
X114427000Y-93853000D03*
%TO.P,MCU1,J1_20,GPIO14*%
%TO.N,unconnected-(MCU1-GPIO14-PadJ1_20)*%
X114427000Y-96393000D03*
%TO.P,MCU1,J1_21,5V0*%
%TO.N,unconnected-(MCU1-5V0-PadJ1_21)*%
X114427000Y-98933000D03*
%TO.P,MCU1,J1_22,GND*%
%TO.N,GND*%
X114427000Y-101473000D03*
%TO.P,MCU1,J3_1,GND__1*%
%TO.N,unconnected-(MCU1-GND__1-PadJ3_1)*%
X137287000Y-48133000D03*
%TO.P,MCU1,J3_2,U0TXD/GPIO43*%
%TO.N,UART TX*%
X137287000Y-50673000D03*
%TO.P,MCU1,J3_3,U0RXD/GPIO44*%
%TO.N,UART RX*%
X137287000Y-53213000D03*
%TO.P,MCU1,J3_4,GPIO1*%
%TO.N,System Type*%
X137287000Y-55753000D03*
%TO.P,MCU1,J3_5,GPIO2*%
%TO.N,Select C Level*%
X137287000Y-58293000D03*
%TO.P,MCU1,J3_6,MTMS/GPIO42*%
%TO.N,unconnected-(MCU1-MTMS{slash}GPIO42-PadJ3_6)*%
X137287000Y-60833000D03*
%TO.P,MCU1,J3_7,MTDI/GPIO41*%
%TO.N,unconnected-(MCU1-MTDI{slash}GPIO41-PadJ3_7)*%
X137287000Y-63373000D03*
%TO.P,MCU1,J3_8,MTDO/GPIO40*%
%TO.N,unconnected-(MCU1-MTDO{slash}GPIO40-PadJ3_8)*%
X137287000Y-65913000D03*
%TO.P,MCU1,J3_9,MTCK/GPIO39*%
%TO.N,unconnected-(MCU1-MTCK{slash}GPIO39-PadJ3_9)*%
X137287000Y-68453000D03*
%TO.P,MCU1,J3_10,GPIO38*%
%TO.N,unconnected-(MCU1-GPIO38-PadJ3_10)*%
X137287000Y-70993000D03*
%TO.P,MCU1,J3_11,GPIO37*%
%TO.N,unconnected-(MCU1-GPIO37-PadJ3_11)*%
X137287000Y-73533000D03*
%TO.P,MCU1,J3_12,GPIO36*%
%TO.N,unconnected-(MCU1-GPIO36-PadJ3_12)*%
X137287000Y-76073000D03*
%TO.P,MCU1,J3_13,GPIO35*%
%TO.N,unconnected-(MCU1-GPIO35-PadJ3_13)*%
X137287000Y-78613000D03*
%TO.P,MCU1,J3_14,GPIO0*%
%TO.N,unconnected-(MCU1-GPIO0-PadJ3_14)*%
X137287000Y-81153000D03*
%TO.P,MCU1,J3_15,GPIO45*%
%TO.N,unconnected-(MCU1-GPIO45-PadJ3_15)*%
X137287000Y-83693000D03*
%TO.P,MCU1,J3_16,GPIO48*%
%TO.N,unconnected-(MCU1-GPIO48-PadJ3_16)*%
X137287000Y-86233000D03*
%TO.P,MCU1,J3_17,GPIO47*%
%TO.N,unconnected-(MCU1-GPIO47-PadJ3_17)*%
X137287000Y-88773000D03*
%TO.P,MCU1,J3_18,GPIO21*%
%TO.N,unconnected-(MCU1-GPIO21-PadJ3_18)*%
X137287000Y-91313000D03*
%TO.P,MCU1,J3_19,USB_D+/GPIO20*%
%TO.N,unconnected-(MCU1-USB_D+{slash}GPIO20-PadJ3_19)*%
X137287000Y-93853000D03*
%TO.P,MCU1,J3_20,USB_D-/GPIO19*%
%TO.N,unconnected-(MCU1-USB_D-{slash}GPIO19-PadJ3_20)*%
X137287000Y-96393000D03*
%TO.P,MCU1,J3_21,GND__2*%
%TO.N,unconnected-(MCU1-GND__2-PadJ3_21)*%
X137287000Y-98933000D03*
%TO.P,MCU1,J3_22,GND__3*%
%TO.N,unconnected-(MCU1-GND__3-PadJ3_22)*%
X137287000Y-101473000D03*
%TD*%
D10*
%TO.P,R18,1*%
%TO.N,TC A-1*%
X188183000Y-79019400D03*
D11*
%TO.P,R18,2*%
%TO.N,Net-(K4-PadNC)*%
X188183000Y-89179400D03*
%TD*%
D12*
%TO.P,J5,1,Pin_1*%
%TO.N,B Cwave*%
X186182000Y-130048000D03*
D13*
%TO.P,J5,2,Pin_2*%
%TO.N,TC A-1*%
X191262000Y-130048000D03*
%TD*%
D17*
%TO.P,T3,1*%
%TO.N,Net-(R5-Pad1)*%
X85551000Y-81788000D03*
D18*
%TO.P,T3,2*%
%TO.N,Neutral*%
X85551000Y-94488000D03*
%TO.P,T3,3*%
%TO.N,C Vwave*%
X95551000Y-94488000D03*
%TO.P,T3,4*%
%TO.N,TC A-1*%
X95551000Y-81788000D03*
%TD*%
D22*
%TO.P,D1,1,K*%
%TO.N,Select C Level*%
X173552600Y-65303400D03*
%TO.P,D1,2,A*%
%TO.N,GND*%
X183712600Y-65303400D03*
%TD*%
D12*
%TO.P,J1,1,Pin_1*%
%TO.N,Battery +*%
X134112000Y-131953000D03*
D13*
%TO.P,J1,2,Pin_2*%
%TO.N,Battery -*%
X139192000Y-131953000D03*
%TD*%
D15*
%TO.P,SW1,1,A*%
%TO.N,unconnected-(SW1A-A-Pad1)*%
X139827000Y-116713000D03*
%TO.P,SW1,2,B*%
%TO.N,Vin*%
X139827000Y-119253000D03*
%TO.P,SW1,3,C*%
%TO.N,Net-(SW1A-C)*%
X139827000Y-121793000D03*
%TD*%
D25*
%TO.P,U2,1,GND*%
%TO.N,GND*%
X133167000Y-117983000D03*
%TO.P,U2,2,VO*%
%TO.N,Vcc*%
X133167000Y-120523000D03*
%TO.P,U2,3,VI*%
%TO.N,Net-(SW1A-C)*%
X133167000Y-123063000D03*
%TD*%
D16*
%TO.P,DZ15,1,K*%
%TO.N,Vcc*%
X142240000Y-64592200D03*
%TO.P,DZ15,2,A*%
%TO.N,B Cwave*%
X149860000Y-64592200D03*
%TD*%
D10*
%TO.P,R16,1*%
%TO.N,TC A-1*%
X191624700Y-57531000D03*
D11*
%TO.P,R16,2*%
%TO.N,Net-(K2-PadNC)*%
X191624700Y-47371000D03*
%TD*%
D14*
%TO.P,K3,COIL1*%
%TO.N,GND*%
X207307700Y-76979400D03*
%TO.P,K3,COIL2*%
%TO.N,Select C Level*%
X195307700Y-76979400D03*
%TO.P,K3,COM*%
%TO.N,C Cwave*%
X201307700Y-74979400D03*
%TO.P,K3,NC*%
%TO.N,Net-(K3-PadNC)*%
X207307700Y-89179400D03*
%TO.P,K3,NO*%
%TO.N,Net-(K3-PadNO)*%
X195307700Y-89179400D03*
%TD*%
D10*
%TO.P,R6,1*%
%TO.N,A Vwave*%
X102362000Y-58928000D03*
D11*
%TO.P,R6,2*%
%TO.N,TC A-1*%
X102362000Y-48768000D03*
%TD*%
D15*
%TO.P,P5,1,Pin_1*%
%TO.N,GND*%
X172212000Y-98933000D03*
%TO.P,P5,2,Pin_2*%
%TO.N,Vcc*%
X172212000Y-101473000D03*
%TO.P,P5,3,Pin_3*%
%TO.N,MISO*%
X172212000Y-104013000D03*
%TO.P,P5,4,Pin_4*%
%TO.N,MOSI*%
X172212000Y-106553000D03*
%TO.P,P5,5,Pin_5*%
%TO.N,SCK*%
X172212000Y-109093000D03*
%TO.P,P5,6,Pin_6*%
%TO.N,CS*%
X172212000Y-111633000D03*
%TD*%
D26*
%TO.N,A Vwave*%
X152913000Y-53162200D03*
X152913000Y-76022200D03*
%TO.N,B Vwave*%
X152151000Y-73736200D03*
X152151000Y-50876200D03*
%TO.N,C Vwave*%
X151389000Y-48590200D03*
X151389000Y-71450200D03*
%TO.N,AB Vwave*%
X154442000Y-80594200D03*
X154442000Y-57734200D03*
%TO.N,CA Vwave*%
X155199000Y-82880200D03*
X155199000Y-60020200D03*
%TO.N,BC Vwave*%
X153675000Y-55448200D03*
X153675000Y-78308200D03*
%TO.N,Vcc*%
X140081000Y-101473000D03*
X123952000Y-45923200D03*
X144018000Y-101473000D03*
%TO.N,GND*%
X117348000Y-83185000D03*
%TO.N,A Cwave*%
X155961000Y-62306200D03*
X155961000Y-85166200D03*
%TO.N,B Cwave*%
X156713000Y-87452200D03*
X156713000Y-64592200D03*
%TO.N,C Cwave*%
X157475000Y-89738200D03*
X157475000Y-66878200D03*
%TO.N,N Cwave*%
X158232000Y-92024200D03*
X158232000Y-69164200D03*
%TO.N,Select C Level*%
X120142000Y-54483000D03*
X120142000Y-49403000D03*
%TO.N,CS*%
X128270000Y-106299000D03*
%TO.N,MOSI*%
X127000000Y-104775000D03*
%TO.N,SCK*%
X125730000Y-105537000D03*
%TO.N,MISO*%
X124460000Y-104013000D03*
%TD*%
D27*
%TO.N,A Vwave*%
X152913000Y-53162200D02*
X152913000Y-46723300D01*
X128016000Y-66929000D02*
X121412000Y-73533000D01*
X109982000Y-57658000D02*
X106807000Y-57658000D01*
X151147700Y-44958000D02*
X133546315Y-44958000D01*
X152913000Y-76022200D02*
X152913000Y-53162200D01*
X105537000Y-58928000D02*
X106807000Y-57658000D01*
X128016000Y-50488315D02*
X128016000Y-66929000D01*
X121412000Y-73533000D02*
X113538000Y-73533000D01*
X133546315Y-44958000D02*
X128016000Y-50488315D01*
X102362000Y-58928000D02*
X105537000Y-58928000D01*
X152913000Y-46723300D02*
X151147700Y-44958000D01*
%TO.N,B Vwave*%
X121412000Y-76073000D02*
X114427000Y-76073000D01*
X102362000Y-76708000D02*
X105537000Y-76708000D01*
X128778000Y-68707000D02*
X121412000Y-76073000D01*
X128778000Y-50673000D02*
X128778000Y-68707000D01*
X106807000Y-77978000D02*
X106807000Y-81788000D01*
X105537000Y-76708000D02*
X106807000Y-77978000D01*
X152151000Y-46939200D02*
X150804800Y-45593000D01*
X152151000Y-73736200D02*
X152151000Y-50876200D01*
X150804800Y-45593000D02*
X133858000Y-45593000D01*
X133858000Y-45593000D02*
X128778000Y-50673000D01*
X106807000Y-81788000D02*
X106807000Y-84328000D01*
X152151000Y-50876200D02*
X152151000Y-46939200D01*
%TO.N,C Vwave*%
X151389000Y-48590200D02*
X151389000Y-47142400D01*
X151389000Y-71450200D02*
X151389000Y-48590200D01*
X102362000Y-94488000D02*
X102362000Y-91313000D01*
X109982000Y-87503000D02*
X109982000Y-84328000D01*
X108077000Y-89408000D02*
X109982000Y-87503000D01*
X134112000Y-46228000D02*
X129540000Y-50800000D01*
X150474600Y-46228000D02*
X134112000Y-46228000D01*
X121412000Y-78613000D02*
X114427000Y-78613000D01*
X129540000Y-70485000D02*
X121412000Y-78613000D01*
X151389000Y-47142400D02*
X150474600Y-46228000D01*
X104267000Y-89408000D02*
X108077000Y-89408000D01*
X109982000Y-84328000D02*
X109982000Y-81788000D01*
X129540000Y-50800000D02*
X129540000Y-70485000D01*
X102362000Y-91313000D02*
X104267000Y-89408000D01*
%TO.N,AB Vwave*%
X154442000Y-80594200D02*
X154442000Y-57734200D01*
X154442000Y-57734200D02*
X154442000Y-46258400D01*
X106807000Y-67818000D02*
X106807000Y-70993000D01*
X151871600Y-43688000D02*
X132911314Y-43688000D01*
X132911314Y-43688000D02*
X126492000Y-50107314D01*
X121412000Y-68453000D02*
X114427000Y-68453000D01*
X126492000Y-50107314D02*
X126492000Y-63373000D01*
X126492000Y-63373000D02*
X121412000Y-68453000D01*
X154442000Y-46258400D02*
X151871600Y-43688000D01*
%TO.N,CA Vwave*%
X109982000Y-67818000D02*
X109982000Y-71628000D01*
X125730000Y-49911000D02*
X132588000Y-43053000D01*
X155199000Y-45999400D02*
X155199000Y-60020200D01*
X132588000Y-43053000D02*
X152252600Y-43053000D01*
X114427000Y-65913000D02*
X121412000Y-65913000D01*
X155199000Y-60020200D02*
X155199000Y-82880200D01*
X125730000Y-61595000D02*
X125730000Y-49911000D01*
X121412000Y-65913000D02*
X125730000Y-61595000D01*
X152252600Y-43053000D02*
X155199000Y-45999400D01*
%TO.N,BC Vwave*%
X112268000Y-71882000D02*
X113157000Y-70993000D01*
X153675000Y-46504225D02*
X153675000Y-55448200D01*
X112268000Y-87630000D02*
X112268000Y-71882000D01*
X114427000Y-70993000D02*
X121412000Y-70993000D01*
X109982000Y-94488000D02*
X106807000Y-94488000D01*
X109982000Y-89916000D02*
X112268000Y-87630000D01*
X109982000Y-94488000D02*
X109982000Y-89916000D01*
X127254000Y-65151000D02*
X127254000Y-50292000D01*
X133223000Y-44323000D02*
X151493775Y-44323000D01*
X121412000Y-70993000D02*
X127254000Y-65151000D01*
X113157000Y-70993000D02*
X114427000Y-70993000D01*
X151493775Y-44323000D02*
X153675000Y-46504225D01*
X127254000Y-50292000D02*
X133223000Y-44323000D01*
X153675000Y-55448200D02*
X153675000Y-78308200D01*
%TO.N,Line A*%
X81582000Y-121333000D02*
X79502000Y-119253000D01*
X92837000Y-121333000D02*
X81582000Y-121333000D01*
X79502000Y-103378000D02*
X81407000Y-101473000D01*
X81407000Y-101473000D02*
X84582000Y-101473000D01*
X79502000Y-119253000D02*
X79502000Y-103378000D01*
%TO.N,Net-(R3-Pad1)*%
X78740000Y-46228000D02*
X85551000Y-46228000D01*
%TO.N,Net-(R4-Pad1)*%
X78740000Y-64008000D02*
X85551000Y-64008000D01*
%TO.N,Net-(R5-Pad1)*%
X78740000Y-81788000D02*
X85551000Y-81788000D01*
%TO.N,Vcc*%
X102783000Y-100751000D02*
X106807000Y-100751000D01*
X103719000Y-97663000D02*
X106807000Y-100751000D01*
X114427000Y-48133000D02*
X108331000Y-48133000D01*
X102060379Y-100028379D02*
X102783000Y-100751000D01*
X114427000Y-48133000D02*
X121742200Y-48133000D01*
X140081000Y-69723000D02*
X140081000Y-101473000D01*
X172212000Y-101473000D02*
X144018000Y-101473000D01*
X92075000Y-44831000D02*
X92075000Y-96012000D01*
X100838000Y-100028379D02*
X102060379Y-100028379D01*
X109982000Y-43688000D02*
X108458000Y-43688000D01*
X93218000Y-43688000D02*
X92075000Y-44831000D01*
X142230000Y-69164200D02*
X140639800Y-69164200D01*
X114427000Y-48133000D02*
X109982000Y-43688000D01*
X93726000Y-97663000D02*
X103719000Y-97663000D01*
X92075000Y-96012000D02*
X93726000Y-97663000D01*
X140639800Y-69164200D02*
X140081000Y-69723000D01*
X121742200Y-48133000D02*
X123952000Y-45923200D01*
X108458000Y-43688000D02*
X93218000Y-43688000D01*
%TO.N,GND*%
X151384000Y-98171000D02*
X151384000Y-95631000D01*
X117348000Y-83185000D02*
X117348000Y-100330000D01*
X159527000Y-111743000D02*
X159527000Y-110378000D01*
X152146000Y-98933000D02*
X151384000Y-98171000D01*
X206458300Y-71243300D02*
X206462000Y-71247000D01*
X143002000Y-100457000D02*
X149098000Y-100457000D01*
X100838000Y-103925999D02*
X102068001Y-103925999D01*
X183712600Y-65303400D02*
X183712600Y-71246400D01*
X133167000Y-112578000D02*
X133167000Y-117983000D01*
X158496000Y-109347000D02*
X136398000Y-109347000D01*
X106807000Y-103251000D02*
X112649000Y-103251000D01*
X112649000Y-103251000D02*
X114427000Y-101473000D01*
X102068001Y-103925999D02*
X102743000Y-103251000D01*
X149098000Y-100457000D02*
X151384000Y-98171000D01*
X206458300Y-65303400D02*
X206458300Y-71243300D01*
X136398000Y-109347000D02*
X133167000Y-112578000D01*
X142230000Y-92024200D02*
X142230000Y-99685000D01*
X142230000Y-99685000D02*
X143002000Y-100457000D01*
X102743000Y-103251000D02*
X106807000Y-103251000D01*
X116205000Y-103251000D02*
X114427000Y-101473000D01*
X140208000Y-103251000D02*
X116205000Y-103251000D01*
X172212000Y-98933000D02*
X152146000Y-98933000D01*
X183712600Y-71246400D02*
X183712000Y-71247000D01*
X159527000Y-110378000D02*
X158496000Y-109347000D01*
X142230000Y-101229000D02*
X140208000Y-103251000D01*
X116205000Y-101473000D02*
X114427000Y-101473000D01*
X142230000Y-101229000D02*
X143002000Y-100457000D01*
X117348000Y-100330000D02*
X116205000Y-101473000D01*
%TO.N,A Cwave*%
X155961000Y-45745400D02*
X152633600Y-42418000D01*
X121412000Y-63373000D02*
X114427000Y-63373000D01*
X155961000Y-85166200D02*
X155961000Y-62306200D01*
X124968000Y-49755157D02*
X124968000Y-59817000D01*
X155961000Y-62306200D02*
X155961000Y-45745400D01*
X124968000Y-59817000D02*
X121412000Y-63373000D01*
X152633600Y-42418000D02*
X132305157Y-42418000D01*
X132305157Y-42418000D02*
X124968000Y-49755157D01*
%TO.N,B Cwave*%
X121412000Y-60833000D02*
X114427000Y-60833000D01*
X153027300Y-41783000D02*
X132080000Y-41783000D01*
X132080000Y-41783000D02*
X124206000Y-49657000D01*
X124206000Y-58039000D02*
X121412000Y-60833000D01*
X156713000Y-64592200D02*
X156713000Y-45468700D01*
X156713000Y-64592200D02*
X156713000Y-87452200D01*
X124206000Y-49657000D02*
X124206000Y-58039000D01*
X156713000Y-45468700D02*
X153027300Y-41783000D01*
%TO.N,C Cwave*%
X157459600Y-45212000D02*
X153395600Y-41148000D01*
X157475000Y-66878200D02*
X157459600Y-66862800D01*
X157459600Y-66862800D02*
X157459600Y-45212000D01*
X123444000Y-49530000D02*
X123444000Y-56261000D01*
X153395600Y-41148000D02*
X131826000Y-41148000D01*
X121412000Y-58293000D02*
X114427000Y-58293000D01*
X131826000Y-41148000D02*
X123444000Y-49530000D01*
X157475000Y-89738200D02*
X157475000Y-66878200D01*
X123444000Y-56261000D02*
X121412000Y-58293000D01*
%TO.N,N Cwave*%
X158232000Y-92024200D02*
X158232000Y-69164200D01*
X122682000Y-54483000D02*
X121412000Y-55753000D01*
X131572000Y-40513000D02*
X122682000Y-49403000D01*
X122682000Y-49403000D02*
X122682000Y-54483000D01*
X153776600Y-40513000D02*
X131572000Y-40513000D01*
X158221600Y-69153800D02*
X158221600Y-44958000D01*
X121412000Y-55753000D02*
X114427000Y-55753000D01*
X158221600Y-44958000D02*
X153776600Y-40513000D01*
X158232000Y-69164200D02*
X158221600Y-69153800D01*
%TO.N,Select C Level*%
X173552000Y-71247000D02*
X173552000Y-65304000D01*
X173552000Y-65304000D02*
X173552600Y-65303400D01*
X196302000Y-65307100D02*
X196298300Y-65303400D01*
X196302000Y-71247000D02*
X196302000Y-65307100D01*
X120142000Y-54483000D02*
X120142000Y-49403000D01*
%TO.N,TC A-1*%
X188722000Y-135763000D02*
X198882000Y-135763000D01*
X170250600Y-80340200D02*
X186862200Y-80340200D01*
X213614000Y-123317000D02*
X211328000Y-125603000D01*
X201422000Y-91821000D02*
X201422000Y-80848200D01*
X95551000Y-46228000D02*
X97964000Y-48641000D01*
X211328000Y-43307000D02*
X202692000Y-43307000D01*
X168402000Y-135763000D02*
X178562000Y-135763000D01*
X90678000Y-103925999D02*
X90678000Y-105664000D01*
X210820000Y-124079000D02*
X212090000Y-122809000D01*
X191624700Y-79019400D02*
X193453500Y-80848200D01*
X181102000Y-133223000D02*
X178562000Y-135763000D01*
X188233800Y-57531000D02*
X186405000Y-55702200D01*
X161798000Y-133604000D02*
X163957000Y-135763000D01*
X170942000Y-130048000D02*
X170942000Y-133223000D01*
X202692000Y-43307000D02*
X201422000Y-44577000D01*
X202946000Y-93345000D02*
X201422000Y-91821000D01*
X210439000Y-123317000D02*
X211328000Y-122428000D01*
X211074000Y-124841000D02*
X212852000Y-123063000D01*
X90678000Y-105664000D02*
X93472000Y-108458000D01*
X178562000Y-91948000D02*
X178562000Y-80340200D01*
X97964000Y-48641000D02*
X97964000Y-61595000D01*
X168879000Y-78968600D02*
X168929800Y-79019400D01*
X191262000Y-133223000D02*
X188722000Y-135763000D01*
X210312000Y-94107000D02*
X180721000Y-94107000D01*
X181102000Y-130048000D02*
X181102000Y-126873000D01*
X209150700Y-80848200D02*
X210979500Y-79019400D01*
X198882000Y-135763000D02*
X201422000Y-133223000D01*
X180975000Y-42545000D02*
X211582000Y-42545000D01*
X93472000Y-108458000D02*
X160782000Y-108458000D01*
X201422000Y-80848200D02*
X209150700Y-80848200D01*
X193294000Y-124841000D02*
X211074000Y-124841000D01*
X212090000Y-94869000D02*
X210566000Y-93345000D01*
X163957000Y-135763000D02*
X168402000Y-135763000D01*
X186862200Y-80340200D02*
X188183000Y-79019400D01*
X178562000Y-135763000D02*
X188722000Y-135763000D01*
X210566000Y-93345000D02*
X202946000Y-93345000D01*
X201422000Y-44577000D02*
X201422000Y-55702200D01*
X168929800Y-79019400D02*
X170250600Y-80340200D01*
X209150700Y-55702200D02*
X201422000Y-55702200D01*
X201422000Y-126873000D02*
X201422000Y-130048000D01*
X212090000Y-122809000D02*
X212090000Y-94869000D01*
X170942000Y-130048000D02*
X170942000Y-126873000D01*
X191262000Y-126873000D02*
X193294000Y-124841000D01*
X201422000Y-133223000D02*
X201422000Y-130048000D01*
X213614000Y-44577000D02*
X213614000Y-123317000D01*
X210979500Y-57531000D02*
X209150700Y-55702200D01*
X211582000Y-42545000D02*
X213614000Y-44577000D01*
X178562000Y-55702200D02*
X178562000Y-44958000D01*
X193453500Y-55702200D02*
X191624700Y-57531000D01*
X212852000Y-44831000D02*
X211328000Y-43307000D01*
X178562000Y-44958000D02*
X180975000Y-42545000D01*
X97964000Y-66421000D02*
X97964000Y-79375000D01*
X201422000Y-55702200D02*
X193453500Y-55702200D01*
X95551000Y-64008000D02*
X97964000Y-66421000D01*
X191262000Y-130048000D02*
X191262000Y-126873000D01*
X174498000Y-123317000D02*
X210439000Y-123317000D01*
X170942000Y-133223000D02*
X168402000Y-135763000D01*
X97964000Y-79375000D02*
X95551000Y-81788000D01*
X183896000Y-124079000D02*
X210820000Y-124079000D01*
X193453500Y-80848200D02*
X201422000Y-80848200D01*
X186405000Y-55702200D02*
X178562000Y-55702200D01*
X181102000Y-126873000D02*
X183896000Y-124079000D01*
X178562000Y-55702200D02*
X170707800Y-55702200D01*
X90678000Y-103925999D02*
X90678000Y-100028379D01*
X161798000Y-109474000D02*
X161798000Y-133604000D01*
X211328000Y-122428000D02*
X211328000Y-95123000D01*
X170942000Y-126873000D02*
X174498000Y-123317000D01*
X202692000Y-125603000D02*
X201422000Y-126873000D01*
X211328000Y-95123000D02*
X210312000Y-94107000D01*
X160782000Y-108458000D02*
X161798000Y-109474000D01*
X212852000Y-123063000D02*
X212852000Y-44831000D01*
X181102000Y-130048000D02*
X181102000Y-133223000D01*
X97964000Y-61595000D02*
X95551000Y-64008000D01*
X170707800Y-55702200D02*
X168879000Y-57531000D01*
X211328000Y-125603000D02*
X202692000Y-125603000D01*
X191262000Y-130048000D02*
X191262000Y-133223000D01*
X180721000Y-94107000D02*
X178562000Y-91948000D01*
%TO.N,CS*%
X169672000Y-111633000D02*
X164338000Y-106299000D01*
X172212000Y-111633000D02*
X169672000Y-111633000D01*
X164338000Y-106299000D02*
X128270000Y-106299000D01*
%TO.N,MOSI*%
X169672000Y-106553000D02*
X167894000Y-104775000D01*
X172212000Y-106553000D02*
X169672000Y-106553000D01*
X167894000Y-104775000D02*
X127000000Y-104775000D01*
%TO.N,SCK*%
X166116000Y-105537000D02*
X125730000Y-105537000D01*
X172212000Y-109093000D02*
X169672000Y-109093000D01*
X169672000Y-109093000D02*
X166116000Y-105537000D01*
%TO.N,MISO*%
X172212000Y-104013000D02*
X124460000Y-104013000D01*
D28*
%TO.N,Net-(PS1--Vout)*%
X126437000Y-124278000D02*
X126437000Y-115333000D01*
X129032000Y-126873000D02*
X126437000Y-124278000D01*
X155702000Y-126873000D02*
X129032000Y-126873000D01*
X159527000Y-134493000D02*
X159527000Y-130698000D01*
X159527000Y-130698000D02*
X155702000Y-126873000D01*
%TO.N,Net-(PS1-+Vout)*%
X128867000Y-135763000D02*
X144257000Y-135763000D01*
X126437000Y-133333000D02*
X128867000Y-135763000D01*
X144257000Y-135763000D02*
X145527000Y-134493000D01*
%TD*%
M02*
