%TF.GenerationSoftware,KiCad,Pcbnew,7.0.10*%
%TF.CreationDate,2024-04-01T07:53:45-03:00*%
%TF.ProjectId,board,626f6172-642e-46b6-9963-61645f706362,4.6*%
%TF.SameCoordinates,Original*%
%TF.FileFunction,Copper,L1,Top*%
%TF.FilePolarity,Positive*%
%FSLAX46Y46*%
G04 Gerber Fmt 4.6, Leading zero omitted, Abs format (unit mm)*
G04 Created by KiCad (PCBNEW 7.0.10) date 2024-04-01 07:53:45*
%MOMM*%
%LPD*%
G01*
G04 APERTURE LIST*
%TA.AperFunction,ComponentPad*%
%ADD10C,1.600000*%
%TD*%
%TA.AperFunction,ComponentPad*%
%ADD11O,1.600000X1.600000*%
%TD*%
%TA.AperFunction,ComponentPad*%
%ADD12O,3.000000X3.000000*%
%TD*%
%TA.AperFunction,ComponentPad*%
%ADD13C,3.000000*%
%TD*%
%TA.AperFunction,ComponentPad*%
%ADD14C,1.950000*%
%TD*%
%TA.AperFunction,ComponentPad*%
%ADD15O,1.700000X1.700000*%
%TD*%
%TA.AperFunction,ComponentPad*%
%ADD16O,1.500000X1.500000*%
%TD*%
%TA.AperFunction,ComponentPad*%
%ADD17O,1.508000X1.508000*%
%TD*%
%TA.AperFunction,ComponentPad*%
%ADD18C,1.508000*%
%TD*%
%TA.AperFunction,ComponentPad*%
%ADD19R,1.676400X1.676400*%
%TD*%
%TA.AperFunction,ComponentPad*%
%ADD20O,2.000000X2.000000*%
%TD*%
%TA.AperFunction,ComponentPad*%
%ADD21C,2.000000*%
%TD*%
%TA.AperFunction,ComponentPad*%
%ADD22O,2.200000X2.200000*%
%TD*%
%TA.AperFunction,ComponentPad*%
%ADD23O,1.530000X1.530000*%
%TD*%
%TA.AperFunction,ComponentPad*%
%ADD24C,1.530000*%
%TD*%
%TA.AperFunction,ComponentPad*%
%ADD25O,2.000000X1.905000*%
%TD*%
%TA.AperFunction,ViaPad*%
%ADD26C,0.400000*%
%TD*%
%TA.AperFunction,Conductor*%
%ADD27C,0.200000*%
%TD*%
%TA.AperFunction,Conductor*%
%ADD28C,0.500000*%
%TD*%
G04 APERTURE END LIST*
D10*
%TO.P,R21,1*%
%TO.N,TC A-1*%
X191624700Y-79019400D03*
D11*
%TO.P,R21,2*%
%TO.N,Net-(K3-PadNO)*%
X191624700Y-89179400D03*
%TD*%
D12*
%TO.P,J6,1,Pin_1*%
%TO.N,C Cwave*%
X176022000Y-130048000D03*
D13*
%TO.P,J6,2,Pin_2*%
%TO.N,TC A-1*%
X181102000Y-130048000D03*
%TD*%
D14*
%TO.P,K2,COIL1*%
%TO.N,Select C Level*%
X195307700Y-59571000D03*
%TO.P,K2,COIL2*%
%TO.N,GND*%
X207307700Y-59571000D03*
%TO.P,K2,COM*%
%TO.N,B Cwave*%
X201307700Y-61571000D03*
%TO.P,K2,NC*%
%TO.N,Net-(K2-PadNC)*%
X195307700Y-47371000D03*
%TO.P,K2,NO*%
%TO.N,Net-(K2-PadNO)*%
X207307700Y-47371000D03*
%TD*%
D10*
%TO.P,R15,1*%
%TO.N,TC A-1*%
X168879000Y-57531000D03*
D11*
%TO.P,R15,2*%
%TO.N,Net-(K1-PadNC)*%
X168879000Y-47371000D03*
%TD*%
D14*
%TO.P,K4,COIL1*%
%TO.N,GND*%
X184601600Y-76979400D03*
%TO.P,K4,COIL2*%
%TO.N,Select C Level*%
X172601600Y-76979400D03*
%TO.P,K4,COM*%
%TO.N,N Cwave*%
X178601600Y-74979400D03*
%TO.P,K4,NC*%
%TO.N,Net-(K4-PadNC)*%
X184601600Y-89179400D03*
%TO.P,K4,NO*%
%TO.N,Net-(K4-PadNO)*%
X172601600Y-89179400D03*
%TD*%
D15*
%TO.P,P1,1,Pin_1*%
%TO.N,GND*%
X151384000Y-95631000D03*
%TD*%
D10*
%TO.P,R10,1*%
%TO.N,B Vwave*%
X106807000Y-81788000D03*
D11*
%TO.P,R10,2*%
%TO.N,AB Vwave*%
X106807000Y-71628000D03*
%TD*%
D10*
%TO.P,R22,1*%
%TO.N,TC A-1*%
X168929800Y-79019400D03*
D11*
%TO.P,R22,2*%
%TO.N,Net-(K4-PadNO)*%
X168929800Y-89179400D03*
%TD*%
D10*
%TO.P,R5,1*%
%TO.N,Net-(R5-Pad1)*%
X78740000Y-81788000D03*
D11*
%TO.P,R5,2*%
%TO.N,Line C*%
X78740000Y-91948000D03*
%TD*%
D16*
%TO.P,DZ5,1,K*%
%TO.N,Vcc*%
X142245000Y-53162200D03*
%TO.P,DZ5,2,A*%
%TO.N,A Vwave*%
X149865000Y-53162200D03*
%TD*%
D15*
%TO.P,P2,1,Pin_1*%
%TO.N,UART TX*%
X145034000Y-95631000D03*
%TO.P,P2,2,Pin_2*%
%TO.N,UART RX*%
X145034000Y-98171000D03*
%TD*%
D17*
%TO.P,T1,1*%
%TO.N,Net-(R3-Pad1)*%
X85551000Y-46228000D03*
D18*
%TO.P,T1,2*%
%TO.N,Neutral*%
X85551000Y-58928000D03*
%TO.P,T1,3*%
%TO.N,A Vwave*%
X95551000Y-58928000D03*
%TO.P,T1,4*%
%TO.N,TC A-1*%
X95551000Y-46228000D03*
%TD*%
D10*
%TO.P,R8,1*%
%TO.N,C Vwave*%
X102362000Y-94488000D03*
D11*
%TO.P,R8,2*%
%TO.N,TC A-1*%
X102362000Y-84328000D03*
%TD*%
D19*
%TO.P,U1,B+,B+*%
%TO.N,Battery +*%
X149027000Y-111743000D03*
%TO.P,U1,B-,B-*%
%TO.N,Battery -*%
X156027000Y-111743000D03*
%TO.P,U1,IN+,IN+*%
%TO.N,Net-(PS1-+Vout)*%
X145527000Y-134493000D03*
%TO.P,U1,IN-,IN-*%
%TO.N,Net-(PS1--Vout)*%
X159527000Y-134493000D03*
%TO.P,U1,OUT+,OUT+*%
%TO.N,Vin*%
X145527000Y-111743000D03*
%TO.P,U1,OUT-,OUT-*%
%TO.N,GND*%
X159527000Y-111743000D03*
%TD*%
D15*
%TO.P,P3,1,Pin_1*%
%TO.N,A Cwave*%
X160782000Y-82677000D03*
%TO.P,P3,2,Pin_2*%
%TO.N,B Cwave*%
X160782000Y-85217000D03*
%TO.P,P3,3,Pin_3*%
%TO.N,C Cwave*%
X160782000Y-87757000D03*
%TO.P,P3,4,Pin_4*%
%TO.N,N Cwave*%
X160782000Y-90297000D03*
%TD*%
D10*
%TO.P,R20,1*%
%TO.N,TC A-1*%
X210979500Y-57531000D03*
D11*
%TO.P,R20,2*%
%TO.N,Net-(K2-PadNO)*%
X210979500Y-47371000D03*
%TD*%
D16*
%TO.P,DZ13,1,K*%
%TO.N,Vcc*%
X142250000Y-62306200D03*
%TO.P,DZ13,2,A*%
%TO.N,A Cwave*%
X149870000Y-62306200D03*
%TD*%
%TO.P,DZ4,1,K*%
%TO.N,B Vwave*%
X149860000Y-73736200D03*
%TO.P,DZ4,2,A*%
%TO.N,GND*%
X142240000Y-73736200D03*
%TD*%
%TO.P,DZ9,1,K*%
%TO.N,Vcc*%
X142255000Y-57734200D03*
%TO.P,DZ9,2,A*%
%TO.N,AB Vwave*%
X149875000Y-57734200D03*
%TD*%
%TO.P,DZ1,1,K*%
%TO.N,Vcc*%
X142245000Y-48590200D03*
%TO.P,DZ1,2,A*%
%TO.N,C Vwave*%
X149865000Y-48590200D03*
%TD*%
D10*
%TO.P,R11,1*%
%TO.N,BC Vwave*%
X106807000Y-94488000D03*
D11*
%TO.P,R11,2*%
%TO.N,B Vwave*%
X106807000Y-84328000D03*
%TD*%
%TO.P,C1,1*%
%TO.N,Vcc*%
X106807000Y-100751000D03*
D10*
%TO.P,C1,2*%
%TO.N,GND*%
X106807000Y-103251000D03*
%TD*%
D16*
%TO.P,DZ12,1,K*%
%TO.N,CA Vwave*%
X149845000Y-82880200D03*
%TO.P,DZ12,2,A*%
%TO.N,GND*%
X142225000Y-82880200D03*
%TD*%
D10*
%TO.P,R19,1*%
%TO.N,TC A-1*%
X188233800Y-57531000D03*
D11*
%TO.P,R19,2*%
%TO.N,Net-(K1-PadNO)*%
X188233800Y-47371000D03*
%TD*%
D10*
%TO.P,R1,1*%
%TO.N,Vcc*%
X100838000Y-100028379D03*
D11*
%TO.P,R1,2*%
%TO.N,TC A-1*%
X90678000Y-100028379D03*
%TD*%
D12*
%TO.P,J3,1,Pin_1*%
%TO.N,Line A*%
X84582000Y-101473000D03*
D13*
%TO.P,J3,2,Pin_2*%
%TO.N,Line B*%
X84582000Y-106553000D03*
%TD*%
D10*
%TO.P,R2,1*%
%TO.N,TC A-1*%
X90678000Y-103925999D03*
D11*
%TO.P,R2,2*%
%TO.N,GND*%
X100838000Y-103925999D03*
%TD*%
D16*
%TO.P,DZ8,1,K*%
%TO.N,BC Vwave*%
X149850000Y-78308200D03*
%TO.P,DZ8,2,A*%
%TO.N,GND*%
X142230000Y-78308200D03*
%TD*%
D10*
%TO.P,R9,1*%
%TO.N,AB Vwave*%
X106807000Y-68199000D03*
D11*
%TO.P,R9,2*%
%TO.N,A Vwave*%
X106807000Y-58039000D03*
%TD*%
D16*
%TO.P,DZ3,1,K*%
%TO.N,Vcc*%
X142245000Y-50876200D03*
%TO.P,DZ3,2,A*%
%TO.N,B Vwave*%
X149865000Y-50876200D03*
%TD*%
D17*
%TO.P,T2,1*%
%TO.N,Net-(R4-Pad1)*%
X85551000Y-64008000D03*
D18*
%TO.P,T2,2*%
%TO.N,Neutral*%
X85551000Y-76708000D03*
%TO.P,T2,3*%
%TO.N,B Vwave*%
X95551000Y-76708000D03*
%TO.P,T2,4*%
%TO.N,TC A-1*%
X95551000Y-64008000D03*
%TD*%
D16*
%TO.P,DZ17,1,K*%
%TO.N,Vcc*%
X142240000Y-66878200D03*
%TO.P,DZ17,2,A*%
%TO.N,C Cwave*%
X149860000Y-66878200D03*
%TD*%
D15*
%TO.P,SW2,1,A*%
%TO.N,Vcc*%
X108331000Y-48133000D03*
%TO.P,SW2,2,B*%
%TO.N,System Type*%
X108331000Y-50673000D03*
%TO.P,SW2,3,C*%
%TO.N,GND*%
X108331000Y-53213000D03*
%TD*%
D20*
%TO.P,PS1,1,AC/L*%
%TO.N,Line A*%
X92837000Y-121333000D03*
D21*
%TO.P,PS1,2,AC/N*%
%TO.N,Neutral*%
X92837000Y-127333000D03*
%TO.P,PS1,3,-Vout*%
%TO.N,Net-(PS1--Vout)*%
X126437000Y-115333000D03*
%TO.P,PS1,4,+Vout*%
%TO.N,Net-(PS1-+Vout)*%
X126437000Y-133333000D03*
%TD*%
D16*
%TO.P,DZ14,1,K*%
%TO.N,A Cwave*%
X149850000Y-85166200D03*
%TO.P,DZ14,2,A*%
%TO.N,GND*%
X142230000Y-85166200D03*
%TD*%
%TO.P,DZ2,1,K*%
%TO.N,C Vwave*%
X149865000Y-71450200D03*
%TO.P,DZ2,2,A*%
%TO.N,GND*%
X142245000Y-71450200D03*
%TD*%
%TO.P,DZ19,1,K*%
%TO.N,Vcc*%
X142230000Y-69164200D03*
%TO.P,DZ19,2,A*%
%TO.N,N Cwave*%
X149850000Y-69164200D03*
%TD*%
D12*
%TO.P,J4,1,Pin_1*%
%TO.N,A Cwave*%
X196342000Y-130048000D03*
D13*
%TO.P,J4,2,Pin_2*%
%TO.N,TC A-1*%
X201422000Y-130048000D03*
%TD*%
D22*
%TO.P,D4,1,K*%
%TO.N,Select C Level*%
X173552000Y-71247000D03*
%TO.P,D4,2,A*%
%TO.N,GND*%
X183712000Y-71247000D03*
%TD*%
D10*
%TO.P,R3,1*%
%TO.N,Net-(R3-Pad1)*%
X78740000Y-46228000D03*
D11*
%TO.P,R3,2*%
%TO.N,Line A*%
X78740000Y-56388000D03*
%TD*%
D16*
%TO.P,DZ11,1,K*%
%TO.N,Vcc*%
X142245000Y-60020200D03*
%TO.P,DZ11,2,A*%
%TO.N,CA Vwave*%
X149865000Y-60020200D03*
%TD*%
%TO.P,DZ7,1,K*%
%TO.N,Vcc*%
X142245000Y-55448200D03*
%TO.P,DZ7,2,A*%
%TO.N,BC Vwave*%
X149865000Y-55448200D03*
%TD*%
D22*
%TO.P,D2,1,K*%
%TO.N,Select C Level*%
X196298300Y-65303400D03*
%TO.P,D2,2,A*%
%TO.N,GND*%
X206458300Y-65303400D03*
%TD*%
D12*
%TO.P,J7,1,Pin_1*%
%TO.N,N Cwave*%
X165862000Y-130048000D03*
D13*
%TO.P,J7,2,Pin_2*%
%TO.N,TC A-1*%
X170942000Y-130048000D03*
%TD*%
D22*
%TO.P,D3,1,K*%
%TO.N,Select C Level*%
X196302000Y-71247000D03*
%TO.P,D3,2,A*%
%TO.N,GND*%
X206462000Y-71247000D03*
%TD*%
D10*
%TO.P,R7,1*%
%TO.N,B Vwave*%
X102362000Y-76708000D03*
D11*
%TO.P,R7,2*%
%TO.N,TC A-1*%
X102362000Y-66548000D03*
%TD*%
D14*
%TO.P,K1,COIL1*%
%TO.N,Select C Level*%
X172562000Y-59571000D03*
%TO.P,K1,COIL2*%
%TO.N,GND*%
X184562000Y-59571000D03*
%TO.P,K1,COM*%
%TO.N,A Cwave*%
X178562000Y-61571000D03*
%TO.P,K1,NC*%
%TO.N,Net-(K1-PadNC)*%
X172562000Y-47371000D03*
%TO.P,K1,NO*%
%TO.N,Net-(K1-PadNO)*%
X184562000Y-47371000D03*
%TD*%
D10*
%TO.P,R12,1*%
%TO.N,C Vwave*%
X109982000Y-84328000D03*
D11*
%TO.P,R12,2*%
%TO.N,BC Vwave*%
X109982000Y-94488000D03*
%TD*%
D16*
%TO.P,DZ16,1,K*%
%TO.N,B Cwave*%
X149850000Y-87452200D03*
%TO.P,DZ16,2,A*%
%TO.N,GND*%
X142230000Y-87452200D03*
%TD*%
%TO.P,DZ18,1,K*%
%TO.N,C Cwave*%
X149850000Y-89738200D03*
%TO.P,DZ18,2,A*%
%TO.N,GND*%
X142230000Y-89738200D03*
%TD*%
D10*
%TO.P,R17,1*%
%TO.N,TC A-1*%
X210979500Y-79019400D03*
D11*
%TO.P,R17,2*%
%TO.N,Net-(K3-PadNC)*%
X210979500Y-89179400D03*
%TD*%
D10*
%TO.P,R13,1*%
%TO.N,CA Vwave*%
X109982000Y-71628000D03*
D11*
%TO.P,R13,2*%
%TO.N,C Vwave*%
X109982000Y-81788000D03*
%TD*%
D10*
%TO.P,R4,1*%
%TO.N,Net-(R4-Pad1)*%
X78740000Y-64008000D03*
D11*
%TO.P,R4,2*%
%TO.N,Line B*%
X78740000Y-74168000D03*
%TD*%
D10*
%TO.P,R14,1*%
%TO.N,A Vwave*%
X109982000Y-58039000D03*
D11*
%TO.P,R14,2*%
%TO.N,CA Vwave*%
X109982000Y-68199000D03*
%TD*%
D12*
%TO.P,J2,1,Pin_1*%
%TO.N,Line C*%
X84582000Y-111633000D03*
D13*
%TO.P,J2,2,Pin_2*%
%TO.N,Neutral*%
X84582000Y-116713000D03*
%TD*%
D15*
%TO.P,P4,1,Pin_1*%
%TO.N,C Vwave*%
X160782000Y-48083000D03*
%TO.P,P4,2,Pin_2*%
%TO.N,B Vwave*%
X160782000Y-50623000D03*
%TO.P,P4,3,Pin_3*%
%TO.N,A Vwave*%
X160782000Y-53163000D03*
%TO.P,P4,4,Pin_4*%
%TO.N,BC Vwave*%
X160782000Y-55703000D03*
%TO.P,P4,5,Pin_5*%
%TO.N,AB Vwave*%
X160782000Y-58243000D03*
%TO.P,P4,6,Pin_6*%
%TO.N,CA Vwave*%
X160782000Y-60783000D03*
%TD*%
D16*
%TO.P,DZ6,1,K*%
%TO.N,A Vwave*%
X149860000Y-76022200D03*
%TO.P,DZ6,2,A*%
%TO.N,GND*%
X142240000Y-76022200D03*
%TD*%
%TO.P,DZ10,1,K*%
%TO.N,AB Vwave*%
X149850000Y-80594200D03*
%TO.P,DZ10,2,A*%
%TO.N,GND*%
X142230000Y-80594200D03*
%TD*%
%TO.P,DZ20,1,K*%
%TO.N,N Cwave*%
X149850000Y-92024200D03*
%TO.P,DZ20,2,A*%
%TO.N,GND*%
X142230000Y-92024200D03*
%TD*%
D23*
%TO.P,MCU1,J1_1,3V3*%
%TO.N,Vcc*%
X114427000Y-48133000D03*
D24*
%TO.P,MCU1,J1_2,3V3__1*%
%TO.N,unconnected-(MCU1-3V3__1-PadJ1_2)*%
X114427000Y-50673000D03*
%TO.P,MCU1,J1_3,RST*%
%TO.N,unconnected-(MCU1-RST-PadJ1_3)*%
X114427000Y-53213000D03*
%TO.P,MCU1,J1_4,GPIO4*%
%TO.N,N Cwave*%
X114427000Y-55753000D03*
%TO.P,MCU1,J1_5,GPIO5*%
%TO.N,C Cwave*%
X114427000Y-58293000D03*
%TO.P,MCU1,J1_6,GPIO6*%
%TO.N,B Cwave*%
X114427000Y-60833000D03*
%TO.P,MCU1,J1_7,GPIO7*%
%TO.N,A Cwave*%
X114427000Y-63373000D03*
%TO.P,MCU1,J1_8,GPIO15*%
%TO.N,CA Vwave*%
X114427000Y-65913000D03*
%TO.P,MCU1,J1_9,GPIO16*%
%TO.N,AB Vwave*%
X114427000Y-68453000D03*
%TO.P,MCU1,J1_10,GPIO17*%
%TO.N,BC Vwave*%
X114427000Y-70993000D03*
%TO.P,MCU1,J1_11,GPIO18*%
%TO.N,A Vwave*%
X114427000Y-73533000D03*
%TO.P,MCU1,J1_12,GPIO8*%
%TO.N,B Vwave*%
X114427000Y-76073000D03*
%TO.P,MCU1,J1_13,GPIO3*%
%TO.N,C Vwave*%
X114427000Y-78613000D03*
%TO.P,MCU1,J1_14,GPIO46*%
%TO.N,unconnected-(MCU1-GPIO46-PadJ1_14)*%
X114427000Y-81153000D03*
%TO.P,MCU1,J1_15,GPIO9*%
%TO.N,unconnected-(MCU1-GPIO9-PadJ1_15)*%
X114427000Y-83693000D03*
%TO.P,MCU1,J1_16,GPIO10*%
%TO.N,CS*%
X114427000Y-86233000D03*
%TO.P,MCU1,J1_17,GPIO11*%
%TO.N,MOSI*%
X114427000Y-88773000D03*
%TO.P,MCU1,J1_18,GPIO12*%
%TO.N,SCK*%
X114427000Y-91313000D03*
%TO.P,MCU1,J1_19,GPIO13*%
%TO.N,MISO*%
X114427000Y-93853000D03*
%TO.P,MCU1,J1_20,GPIO14*%
%TO.N,unconnected-(MCU1-GPIO14-PadJ1_20)*%
X114427000Y-96393000D03*
%TO.P,MCU1,J1_21,5V0*%
%TO.N,unconnected-(MCU1-5V0-PadJ1_21)*%
X114427000Y-98933000D03*
%TO.P,MCU1,J1_22,GND*%
%TO.N,GND*%
X114427000Y-101473000D03*
%TO.P,MCU1,J3_1,GND__1*%
%TO.N,unconnected-(MCU1-GND__1-PadJ3_1)*%
X137287000Y-48133000D03*
%TO.P,MCU1,J3_2,U0TXD/GPIO43*%
%TO.N,UART TX*%
X137287000Y-50673000D03*
%TO.P,MCU1,J3_3,U0RXD/GPIO44*%
%TO.N,UART RX*%
X137287000Y-53213000D03*
%TO.P,MCU1,J3_4,GPIO1*%
%TO.N,System Type*%
X137287000Y-55753000D03*
%TO.P,MCU1,J3_5,GPIO2*%
%TO.N,Select C Level*%
X137287000Y-58293000D03*
%TO.P,MCU1,J3_6,MTMS/GPIO42*%
%TO.N,unconnected-(MCU1-MTMS{slash}GPIO42-PadJ3_6)*%
X137287000Y-60833000D03*
%TO.P,MCU1,J3_7,MTDI/GPIO41*%
%TO.N,unconnected-(MCU1-MTDI{slash}GPIO41-PadJ3_7)*%
X137287000Y-63373000D03*
%TO.P,MCU1,J3_8,MTDO/GPIO40*%
%TO.N,unconnected-(MCU1-MTDO{slash}GPIO40-PadJ3_8)*%
X137287000Y-65913000D03*
%TO.P,MCU1,J3_9,MTCK/GPIO39*%
%TO.N,unconnected-(MCU1-MTCK{slash}GPIO39-PadJ3_9)*%
X137287000Y-68453000D03*
%TO.P,MCU1,J3_10,GPIO38*%
%TO.N,unconnected-(MCU1-GPIO38-PadJ3_10)*%
X137287000Y-70993000D03*
%TO.P,MCU1,J3_11,GPIO37*%
%TO.N,unconnected-(MCU1-GPIO37-PadJ3_11)*%
X137287000Y-73533000D03*
%TO.P,MCU1,J3_12,GPIO36*%
%TO.N,unconnected-(MCU1-GPIO36-PadJ3_12)*%
X137287000Y-76073000D03*
%TO.P,MCU1,J3_13,GPIO35*%
%TO.N,unconnected-(MCU1-GPIO35-PadJ3_13)*%
X137287000Y-78613000D03*
%TO.P,MCU1,J3_14,GPIO0*%
%TO.N,unconnected-(MCU1-GPIO0-PadJ3_14)*%
X137287000Y-81153000D03*
%TO.P,MCU1,J3_15,GPIO45*%
%TO.N,unconnected-(MCU1-GPIO45-PadJ3_15)*%
X137287000Y-83693000D03*
%TO.P,MCU1,J3_16,GPIO48*%
%TO.N,unconnected-(MCU1-GPIO48-PadJ3_16)*%
X137287000Y-86233000D03*
%TO.P,MCU1,J3_17,GPIO47*%
%TO.N,unconnected-(MCU1-GPIO47-PadJ3_17)*%
X137287000Y-88773000D03*
%TO.P,MCU1,J3_18,GPIO21*%
%TO.N,unconnected-(MCU1-GPIO21-PadJ3_18)*%
X137287000Y-91313000D03*
%TO.P,MCU1,J3_19,USB_D+/GPIO20*%
%TO.N,unconnected-(MCU1-USB_D+{slash}GPIO20-PadJ3_19)*%
X137287000Y-93853000D03*
%TO.P,MCU1,J3_20,USB_D-/GPIO19*%
%TO.N,unconnected-(MCU1-USB_D-{slash}GPIO19-PadJ3_20)*%
X137287000Y-96393000D03*
%TO.P,MCU1,J3_21,GND__2*%
%TO.N,unconnected-(MCU1-GND__2-PadJ3_21)*%
X137287000Y-98933000D03*
%TO.P,MCU1,J3_22,GND__3*%
%TO.N,unconnected-(MCU1-GND__3-PadJ3_22)*%
X137287000Y-101473000D03*
%TD*%
D10*
%TO.P,R18,1*%
%TO.N,TC A-1*%
X188183000Y-79019400D03*
D11*
%TO.P,R18,2*%
%TO.N,Net-(K4-PadNC)*%
X188183000Y-89179400D03*
%TD*%
D12*
%TO.P,J5,1,Pin_1*%
%TO.N,B Cwave*%
X186182000Y-130048000D03*
D13*
%TO.P,J5,2,Pin_2*%
%TO.N,TC A-1*%
X191262000Y-130048000D03*
%TD*%
D17*
%TO.P,T3,1*%
%TO.N,Net-(R5-Pad1)*%
X85551000Y-81788000D03*
D18*
%TO.P,T3,2*%
%TO.N,Neutral*%
X85551000Y-94488000D03*
%TO.P,T3,3*%
%TO.N,C Vwave*%
X95551000Y-94488000D03*
%TO.P,T3,4*%
%TO.N,TC A-1*%
X95551000Y-81788000D03*
%TD*%
D22*
%TO.P,D1,1,K*%
%TO.N,Select C Level*%
X173552600Y-65303400D03*
%TO.P,D1,2,A*%
%TO.N,GND*%
X183712600Y-65303400D03*
%TD*%
D12*
%TO.P,J1,1,Pin_1*%
%TO.N,Battery +*%
X134112000Y-131953000D03*
D13*
%TO.P,J1,2,Pin_2*%
%TO.N,Battery -*%
X139192000Y-131953000D03*
%TD*%
D15*
%TO.P,SW1,1,A*%
%TO.N,unconnected-(SW1A-A-Pad1)*%
X139827000Y-116713000D03*
%TO.P,SW1,2,B*%
%TO.N,Vin*%
X139827000Y-119253000D03*
%TO.P,SW1,3,C*%
%TO.N,Net-(SW1A-C)*%
X139827000Y-121793000D03*
%TD*%
D25*
%TO.P,U2,1,GND*%
%TO.N,GND*%
X133167000Y-117983000D03*
%TO.P,U2,2,VO*%
%TO.N,Vcc*%
X133167000Y-120523000D03*
%TO.P,U2,3,VI*%
%TO.N,Net-(SW1A-C)*%
X133167000Y-123063000D03*
%TD*%
D16*
%TO.P,DZ15,1,K*%
%TO.N,Vcc*%
X142240000Y-64592200D03*
%TO.P,DZ15,2,A*%
%TO.N,B Cwave*%
X149860000Y-64592200D03*
%TD*%
D10*
%TO.P,R16,1*%
%TO.N,TC A-1*%
X191624700Y-57531000D03*
D11*
%TO.P,R16,2*%
%TO.N,Net-(K2-PadNC)*%
X191624700Y-47371000D03*
%TD*%
D14*
%TO.P,K3,COIL1*%
%TO.N,GND*%
X207307700Y-76979400D03*
%TO.P,K3,COIL2*%
%TO.N,Select C Level*%
X195307700Y-76979400D03*
%TO.P,K3,COM*%
%TO.N,C Cwave*%
X201307700Y-74979400D03*
%TO.P,K3,NC*%
%TO.N,Net-(K3-PadNC)*%
X207307700Y-89179400D03*
%TO.P,K3,NO*%
%TO.N,Net-(K3-PadNO)*%
X195307700Y-89179400D03*
%TD*%
D10*
%TO.P,R6,1*%
%TO.N,A Vwave*%
X102362000Y-58928000D03*
D11*
%TO.P,R6,2*%
%TO.N,TC A-1*%
X102362000Y-48768000D03*
%TD*%
D15*
%TO.P,P5,1,Pin_1*%
%TO.N,GND*%
X172212000Y-98933000D03*
%TO.P,P5,2,Pin_2*%
%TO.N,Vcc*%
X172212000Y-101473000D03*
%TO.P,P5,3,Pin_3*%
%TO.N,MISO*%
X172212000Y-104013000D03*
%TO.P,P5,4,Pin_4*%
%TO.N,MOSI*%
X172212000Y-106553000D03*
%TO.P,P5,5,Pin_5*%
%TO.N,SCK*%
X172212000Y-109093000D03*
%TO.P,P5,6,Pin_6*%
%TO.N,CS*%
X172212000Y-111633000D03*
%TD*%
D26*
%TO.N,A Vwave*%
X152913000Y-53162200D03*
X152913000Y-76022200D03*
%TO.N,B Vwave*%
X152151000Y-73736200D03*
X152151000Y-50876200D03*
%TO.N,C Vwave*%
X151389000Y-48590200D03*
X151389000Y-71450200D03*
%TO.N,AB Vwave*%
X154442000Y-80594200D03*
X154442000Y-57734200D03*
%TO.N,CA Vwave*%
X155199000Y-82880200D03*
X155199000Y-60020200D03*
%TO.N,BC Vwave*%
X153675000Y-55448200D03*
X153675000Y-78308200D03*
%TO.N,Vcc*%
X140081000Y-101473000D03*
X123952000Y-45923200D03*
X144018000Y-101473000D03*
%TO.N,GND*%
X117348000Y-83185000D03*
%TO.N,A Cwave*%
X155961000Y-62306200D03*
X155961000Y-85166200D03*
%TO.N,B Cwave*%
X156713000Y-87452200D03*
X156713000Y-64592200D03*
%TO.N,C Cwave*%
X157475000Y-89738200D03*
X157475000Y-66878200D03*
%TO.N,N Cwave*%
X158232000Y-92024200D03*
X158232000Y-69164200D03*
%TO.N,Select C Level*%
X120142000Y-54483000D03*
X120142000Y-49403000D03*
%TO.N,CS*%
X128270000Y-106299000D03*
%TO.N,MOSI*%
X127000000Y-104775000D03*
%TO.N,SCK*%
X125730000Y-105537000D03*
%TO.N,MISO*%
X124460000Y-104013000D03*
%TD*%
D27*
%TO.N,A Vwave*%
X102362000Y-58928000D02*
X104902000Y-61468000D01*
X104902000Y-72390000D02*
X106045000Y-73533000D01*
X106045000Y-73533000D02*
X114427000Y-73533000D01*
X152913000Y-53162200D02*
X152963800Y-53213000D01*
X149865000Y-53162200D02*
X152913000Y-53162200D01*
X152913800Y-53163000D02*
X152913000Y-53162200D01*
X102362000Y-58928000D02*
X95551000Y-58928000D01*
X160782000Y-53163000D02*
X152913800Y-53163000D01*
X149860000Y-76022200D02*
X152913000Y-76022200D01*
X104902000Y-61468000D02*
X104902000Y-72390000D01*
%TO.N,B Vwave*%
X102997000Y-76073000D02*
X102362000Y-76708000D01*
X95551000Y-76708000D02*
X102362000Y-76708000D01*
X149860000Y-73736200D02*
X152151000Y-73736200D01*
X114427000Y-76073000D02*
X102997000Y-76073000D01*
X149865000Y-50876200D02*
X152151000Y-50876200D01*
X160782000Y-50623000D02*
X152404200Y-50623000D01*
X152404200Y-50623000D02*
X152151000Y-50876200D01*
%TO.N,C Vwave*%
X149865000Y-48590200D02*
X151389000Y-48590200D01*
X160782000Y-48083000D02*
X151896200Y-48083000D01*
X111252000Y-78613000D02*
X114427000Y-78613000D01*
X109982000Y-79883000D02*
X111252000Y-78613000D01*
X151896200Y-48083000D02*
X151389000Y-48590200D01*
X149865000Y-71450200D02*
X151389000Y-71450200D01*
X95551000Y-94488000D02*
X102362000Y-94488000D01*
X109982000Y-81788000D02*
X109982000Y-79883000D01*
%TO.N,AB Vwave*%
X154442000Y-57734200D02*
X154950800Y-58243000D01*
X149875000Y-57734200D02*
X154442000Y-57734200D01*
X149850000Y-80594200D02*
X154442000Y-80594200D01*
X111506000Y-69850000D02*
X112903000Y-68453000D01*
X154950800Y-58243000D02*
X160782000Y-58243000D01*
X112903000Y-68453000D02*
X114427000Y-68453000D01*
X108585000Y-69850000D02*
X111506000Y-69850000D01*
X106807000Y-71628000D02*
X108585000Y-69850000D01*
%TO.N,CA Vwave*%
X149845000Y-82880200D02*
X155199000Y-82880200D01*
X149865000Y-60020200D02*
X155199000Y-60020200D01*
X109982000Y-68199000D02*
X112268000Y-65913000D01*
X112268000Y-65913000D02*
X114427000Y-65913000D01*
X155199000Y-60020200D02*
X155961800Y-60783000D01*
X155961800Y-60783000D02*
X160782000Y-60783000D01*
%TO.N,BC Vwave*%
X149850000Y-78308200D02*
X153675000Y-78308200D01*
X160782000Y-55703000D02*
X153929800Y-55703000D01*
X153929800Y-55703000D02*
X153675000Y-55448200D01*
X149865000Y-55448200D02*
X153675000Y-55448200D01*
%TO.N,Line B*%
X80819000Y-76247000D02*
X78740000Y-74168000D01*
X80819000Y-102790000D02*
X80819000Y-76247000D01*
X84582000Y-106553000D02*
X80819000Y-102790000D01*
%TO.N,Line A*%
X82089000Y-59737000D02*
X78740000Y-56388000D01*
X82089000Y-98980000D02*
X82089000Y-59737000D01*
X84582000Y-101473000D02*
X82089000Y-98980000D01*
%TO.N,Neutral*%
X89487000Y-127333000D02*
X92837000Y-127333000D01*
X83359000Y-61120000D02*
X85551000Y-58928000D01*
X84582000Y-116713000D02*
X88439000Y-112856000D01*
X83359000Y-74516000D02*
X83359000Y-61120000D01*
X88439000Y-97376000D02*
X85551000Y-94488000D01*
X84582000Y-122428000D02*
X89487000Y-127333000D01*
X85551000Y-76708000D02*
X83359000Y-74516000D01*
X85551000Y-94488000D02*
X83359000Y-92296000D01*
X88439000Y-112856000D02*
X88439000Y-97376000D01*
X84582000Y-116713000D02*
X84582000Y-122428000D01*
X83359000Y-78900000D02*
X85551000Y-76708000D01*
X83359000Y-92296000D02*
X83359000Y-78900000D01*
%TO.N,Line C*%
X78740000Y-105791000D02*
X78740000Y-91948000D01*
X84582000Y-111633000D02*
X78740000Y-105791000D01*
%TO.N,Vcc*%
X109895000Y-100751000D02*
X111887000Y-102743000D01*
X142245000Y-60020200D02*
X142245000Y-57744200D01*
X142245000Y-57744200D02*
X142255000Y-57734200D01*
X111887000Y-102743000D02*
X111887000Y-116078000D01*
X123952000Y-45923200D02*
X139578000Y-45923200D01*
X142245000Y-50876200D02*
X142245000Y-48590200D01*
X139578000Y-45923200D02*
X142245000Y-48590200D01*
X142230000Y-69164200D02*
X142230000Y-66888200D01*
X142245000Y-53162200D02*
X142245000Y-50876200D01*
X142245000Y-62301200D02*
X142250000Y-62306200D01*
X142230000Y-66888200D02*
X142240000Y-66878200D01*
X142240000Y-62316200D02*
X142250000Y-62306200D01*
X142240000Y-64592200D02*
X142240000Y-62316200D01*
X111887000Y-116078000D02*
X116332000Y-120523000D01*
X116332000Y-120523000D02*
X133167000Y-120523000D01*
X140081000Y-101473000D02*
X144018000Y-101473000D01*
X142245000Y-60020200D02*
X142245000Y-62301200D01*
X142240000Y-66878200D02*
X142240000Y-64592200D01*
X142255000Y-57734200D02*
X142255000Y-55458200D01*
X142255000Y-55458200D02*
X142245000Y-55448200D01*
X106807000Y-100751000D02*
X109895000Y-100751000D01*
X142245000Y-55448200D02*
X142245000Y-53162200D01*
%TO.N,GND*%
X142230000Y-82875200D02*
X142225000Y-82880200D01*
X206462000Y-71247000D02*
X206462000Y-76133700D01*
X183712600Y-65303400D02*
X183712600Y-60420400D01*
X142230000Y-78308200D02*
X142230000Y-79573200D01*
X142230000Y-79573200D02*
X142225000Y-79578200D01*
X142230000Y-76032200D02*
X142240000Y-76022200D01*
X142240000Y-73736200D02*
X142240000Y-76022200D01*
X142230000Y-85166200D02*
X142230000Y-87452200D01*
X179832000Y-98933000D02*
X202057000Y-98933000D01*
X114427000Y-114808000D02*
X114427000Y-101473000D01*
X183712600Y-60420400D02*
X184562000Y-59571000D01*
X206462000Y-76133700D02*
X207307700Y-76979400D01*
X111252000Y-46863000D02*
X112522000Y-45593000D01*
X206458300Y-65303400D02*
X206458300Y-60420400D01*
X142225000Y-82880200D02*
X142225000Y-85161200D01*
X117602000Y-117983000D02*
X114427000Y-114808000D01*
X142230000Y-89738200D02*
X142230000Y-92024200D01*
X181737000Y-79844000D02*
X184601600Y-76979400D01*
X206458300Y-60420400D02*
X207307700Y-59571000D01*
X179832000Y-98933000D02*
X181737000Y-97028000D01*
X202057000Y-98933000D02*
X204597000Y-96393000D01*
X142245000Y-73731200D02*
X142240000Y-73736200D01*
X142225000Y-79578200D02*
X142230000Y-79583200D01*
X183712000Y-75581800D02*
X184601600Y-76471400D01*
X142245000Y-71450200D02*
X142245000Y-73731200D01*
X204597000Y-79690100D02*
X207307700Y-76979400D01*
X183712000Y-71247000D02*
X183712000Y-75581800D01*
X142230000Y-87452200D02*
X142230000Y-89738200D01*
X172212000Y-98933000D02*
X179832000Y-98933000D01*
X117348000Y-46863000D02*
X117348000Y-83185000D01*
X204597000Y-96393000D02*
X204597000Y-79690100D01*
X142230000Y-79583200D02*
X142230000Y-80594200D01*
X142225000Y-85161200D02*
X142230000Y-85166200D01*
X110083600Y-53213000D02*
X111252000Y-52044600D01*
X111252000Y-52044600D02*
X111252000Y-46863000D01*
X181737000Y-97028000D02*
X181737000Y-79844000D01*
X142230000Y-80594200D02*
X142230000Y-82875200D01*
X108331000Y-53213000D02*
X110083600Y-53213000D01*
X133167000Y-117983000D02*
X117602000Y-117983000D01*
X116078000Y-45593000D02*
X117348000Y-46863000D01*
X112522000Y-45593000D02*
X116078000Y-45593000D01*
X142230000Y-78308200D02*
X142230000Y-76032200D01*
%TO.N,A Cwave*%
X155961000Y-85166200D02*
X149850000Y-85166200D01*
X192532000Y-122428000D02*
X196342000Y-126238000D01*
X178562000Y-65628000D02*
X177007000Y-67183000D01*
X177007000Y-67183000D02*
X162560000Y-67183000D01*
X166497000Y-121158000D02*
X167767000Y-122428000D01*
X157683200Y-62306200D02*
X155961000Y-62306200D01*
X162560000Y-67183000D02*
X157683200Y-62306200D01*
X196342000Y-126238000D02*
X196342000Y-130048000D01*
X167767000Y-122428000D02*
X192532000Y-122428000D01*
X165481000Y-82677000D02*
X166497000Y-83693000D01*
X155961000Y-85166200D02*
X158450200Y-82677000D01*
X149870000Y-62306200D02*
X155961000Y-62306200D01*
X178562000Y-61571000D02*
X178562000Y-65628000D01*
X166497000Y-83693000D02*
X166497000Y-121158000D01*
X158450200Y-82677000D02*
X160782000Y-82677000D01*
X160782000Y-82677000D02*
X165481000Y-82677000D01*
%TO.N,B Cwave*%
X157937200Y-64592200D02*
X156713000Y-64592200D01*
X183642000Y-123698000D02*
X167132000Y-123698000D01*
X186182000Y-130048000D02*
X186182000Y-126238000D01*
X156713000Y-87452200D02*
X156713000Y-86746000D01*
X149850000Y-87452200D02*
X156713000Y-87452200D01*
X156713000Y-86746000D02*
X158242000Y-85217000D01*
X201307700Y-65615300D02*
X198978000Y-67945000D01*
X186182000Y-126238000D02*
X183642000Y-123698000D01*
X161290000Y-67945000D02*
X157937200Y-64592200D01*
X165227000Y-121793000D02*
X165227000Y-86233000D01*
X165227000Y-86233000D02*
X164211000Y-85217000D01*
X164211000Y-85217000D02*
X160782000Y-85217000D01*
X158242000Y-85217000D02*
X160782000Y-85217000D01*
X198978000Y-67945000D02*
X161290000Y-67945000D01*
X167132000Y-123698000D02*
X165227000Y-121793000D01*
X201307700Y-61571000D02*
X201307700Y-65615300D01*
X149860000Y-64592200D02*
X156713000Y-64592200D01*
%TO.N,C Cwave*%
X163957000Y-88773000D02*
X162941000Y-87757000D01*
X157475000Y-89159000D02*
X158877000Y-87757000D01*
X157475000Y-89738200D02*
X157475000Y-89159000D01*
X158191200Y-66878200D02*
X157475000Y-66878200D01*
X162941000Y-87757000D02*
X160782000Y-87757000D01*
X158877000Y-87757000D02*
X160782000Y-87757000D01*
X157475000Y-66878200D02*
X149860000Y-66878200D01*
X176022000Y-126238000D02*
X174752000Y-124968000D01*
X199105000Y-68707000D02*
X160020000Y-68707000D01*
X166497000Y-124968000D02*
X163957000Y-122428000D01*
X174752000Y-124968000D02*
X166497000Y-124968000D01*
X163957000Y-122428000D02*
X163957000Y-88773000D01*
X201307700Y-74979400D02*
X201307700Y-70909700D01*
X201307700Y-70909700D02*
X199105000Y-68707000D01*
X149850000Y-89738200D02*
X157475000Y-89738200D01*
X176022000Y-130048000D02*
X176022000Y-126238000D01*
X160020000Y-68707000D02*
X158191200Y-66878200D01*
%TO.N,N Cwave*%
X162687000Y-123063000D02*
X162687000Y-91313000D01*
X158536800Y-69469000D02*
X158232000Y-69164200D01*
X178601600Y-71063600D02*
X177007000Y-69469000D01*
X159512000Y-90297000D02*
X160782000Y-90297000D01*
X177007000Y-69469000D02*
X158536800Y-69469000D01*
X158242000Y-92034200D02*
X158232000Y-92024200D01*
X158232000Y-91577000D02*
X159512000Y-90297000D01*
X158232000Y-92024200D02*
X149850000Y-92024200D01*
X162687000Y-91313000D02*
X161671000Y-90297000D01*
X165862000Y-126238000D02*
X162687000Y-123063000D01*
X158232000Y-92024200D02*
X158232000Y-91577000D01*
X149850000Y-69164200D02*
X158232000Y-69164200D01*
X165862000Y-130048000D02*
X165862000Y-126238000D01*
X178601600Y-74979400D02*
X178601600Y-71063600D01*
X161671000Y-90297000D02*
X160782000Y-90297000D01*
%TO.N,Select C Level*%
X173552600Y-65303400D02*
X173552600Y-60561600D01*
X198247000Y-43688000D02*
X198247000Y-56631700D01*
X175387000Y-56746000D02*
X172562000Y-59571000D01*
X171577000Y-39878000D02*
X175387000Y-43688000D01*
X194437000Y-39878000D02*
X198247000Y-43688000D01*
X120142000Y-49026093D02*
X129290093Y-39878000D01*
X120142000Y-49403000D02*
X120142000Y-49026093D01*
X196298300Y-65303400D02*
X196298300Y-60561600D01*
X137287000Y-58293000D02*
X123952000Y-58293000D01*
X196302000Y-71247000D02*
X196302000Y-75985100D01*
X173552000Y-75521000D02*
X172601600Y-76471400D01*
X196302000Y-75985100D02*
X195307700Y-76979400D01*
X175387000Y-43688000D02*
X175387000Y-56746000D01*
X129290093Y-39878000D02*
X194437000Y-39878000D01*
X196298300Y-60561600D02*
X195307700Y-59571000D01*
X123952000Y-58293000D02*
X120142000Y-54483000D01*
X173552600Y-60561600D02*
X172562000Y-59571000D01*
X173552000Y-71247000D02*
X173552000Y-75521000D01*
X198247000Y-56631700D02*
X195307700Y-59571000D01*
%TO.N,TC A-1*%
X99822000Y-81788000D02*
X102362000Y-84328000D01*
X90678000Y-100028379D02*
X90678000Y-86661000D01*
X95551000Y-64008000D02*
X99822000Y-64008000D01*
X99822000Y-64008000D02*
X102362000Y-66548000D01*
X95551000Y-81788000D02*
X99822000Y-81788000D01*
X90678000Y-86661000D02*
X95551000Y-81788000D01*
X95551000Y-46228000D02*
X99822000Y-46228000D01*
X99822000Y-46228000D02*
X102362000Y-48768000D01*
D28*
%TO.N,Battery +*%
X149027000Y-117038000D02*
X149027000Y-111743000D01*
X134112000Y-131953000D02*
X149027000Y-117038000D01*
%TO.N,Battery -*%
X139192000Y-131953000D02*
X156027000Y-115118000D01*
X156027000Y-115118000D02*
X156027000Y-111743000D01*
D27*
%TO.N,Net-(K1-PadNC)*%
X172562000Y-47371000D02*
X168879000Y-47371000D01*
%TO.N,Net-(K1-PadNO)*%
X184562000Y-47371000D02*
X188284600Y-47371000D01*
%TO.N,Net-(K2-PadNO)*%
X207307700Y-47371000D02*
X211030300Y-47371000D01*
%TO.N,Net-(K2-PadNC)*%
X195307700Y-47371000D02*
X191624700Y-47371000D01*
%TO.N,Net-(K3-PadNO)*%
X191624700Y-89179400D02*
X195307700Y-89179400D01*
%TO.N,Net-(K3-PadNC)*%
X207307700Y-89179400D02*
X210979500Y-89179400D01*
%TO.N,Net-(K4-PadNO)*%
X168929800Y-89179400D02*
X172601600Y-89179400D01*
%TO.N,Net-(K4-PadNC)*%
X184601600Y-89179400D02*
X188183000Y-89179400D01*
%TO.N,CS*%
X128270000Y-106299000D02*
X128270000Y-94869000D01*
X128270000Y-94869000D02*
X119634000Y-86233000D01*
X119634000Y-86233000D02*
X114427000Y-86233000D01*
%TO.N,MOSI*%
X120142000Y-88773000D02*
X114427000Y-88773000D01*
X127000000Y-95631000D02*
X120142000Y-88773000D01*
X127000000Y-104775000D02*
X127000000Y-95631000D01*
%TO.N,SCK*%
X125730000Y-96393000D02*
X120650000Y-91313000D01*
X120650000Y-91313000D02*
X114427000Y-91313000D01*
X125730000Y-105537000D02*
X125730000Y-96393000D01*
%TO.N,MISO*%
X124460000Y-104013000D02*
X124460000Y-97155000D01*
X121158000Y-93853000D02*
X114427000Y-93853000D01*
X124460000Y-97155000D02*
X121158000Y-93853000D01*
%TO.N,System Type*%
X118872000Y-50673000D02*
X121158000Y-52959000D01*
X105410000Y-49657000D02*
X105410000Y-45593000D01*
X108331000Y-50673000D02*
X106426000Y-50673000D01*
X116840000Y-44323000D02*
X118872000Y-46355000D01*
X105410000Y-45593000D02*
X106680000Y-44323000D01*
X135128000Y-55753000D02*
X137287000Y-55753000D01*
X132334000Y-52959000D02*
X135128000Y-55753000D01*
X121158000Y-52959000D02*
X132334000Y-52959000D01*
X106426000Y-50673000D02*
X105410000Y-49657000D01*
X106680000Y-44323000D02*
X116840000Y-44323000D01*
X118872000Y-46355000D02*
X118872000Y-50673000D01*
%TO.N,UART TX*%
X138938000Y-50673000D02*
X137287000Y-50673000D01*
X140462000Y-93853000D02*
X140462000Y-52197000D01*
X145034000Y-95631000D02*
X142240000Y-95631000D01*
X140462000Y-52197000D02*
X138938000Y-50673000D01*
X142240000Y-95631000D02*
X140462000Y-93853000D01*
%TO.N,UART RX*%
X139700000Y-95631000D02*
X139700000Y-53975000D01*
X138938000Y-53213000D02*
X137287000Y-53213000D01*
X145034000Y-98171000D02*
X142240000Y-98171000D01*
X139700000Y-53975000D02*
X138938000Y-53213000D01*
X142240000Y-98171000D02*
X139700000Y-95631000D01*
D28*
%TO.N,Vin*%
X145527000Y-115443000D02*
X145527000Y-111743000D01*
X141717000Y-119253000D02*
X145527000Y-115443000D01*
X139827000Y-119253000D02*
X141717000Y-119253000D01*
D27*
X145527000Y-115458000D02*
X145527000Y-115443000D01*
D28*
%TO.N,Net-(SW1A-C)*%
X138557000Y-123063000D02*
X139827000Y-121793000D01*
X133167000Y-123063000D02*
X138557000Y-123063000D01*
%TD*%
M02*
