%TF.GenerationSoftware,KiCad,Pcbnew,7.0.10*%
%TF.CreationDate,2024-04-01T07:53:47-03:00*%
%TF.ProjectId,board,626f6172-642e-46b6-9963-61645f706362,4.6*%
%TF.SameCoordinates,Original*%
%TF.FileFunction,Soldermask,Bot*%
%TF.FilePolarity,Negative*%
%FSLAX46Y46*%
G04 Gerber Fmt 4.6, Leading zero omitted, Abs format (unit mm)*
G04 Created by KiCad (PCBNEW 7.0.10) date 2024-04-01 07:53:47*
%MOMM*%
%LPD*%
G01*
G04 APERTURE LIST*
G04 Aperture macros list*
%AMRoundRect*
0 Rectangle with rounded corners*
0 $1 Rounding radius*
0 $2 $3 $4 $5 $6 $7 $8 $9 X,Y pos of 4 corners*
0 Add a 4 corners polygon primitive as box body*
4,1,4,$2,$3,$4,$5,$6,$7,$8,$9,$2,$3,0*
0 Add four circle primitives for the rounded corners*
1,1,$1+$1,$2,$3*
1,1,$1+$1,$4,$5*
1,1,$1+$1,$6,$7*
1,1,$1+$1,$8,$9*
0 Add four rect primitives between the rounded corners*
20,1,$1+$1,$2,$3,$4,$5,0*
20,1,$1+$1,$4,$5,$6,$7,0*
20,1,$1+$1,$6,$7,$8,$9,0*
20,1,$1+$1,$8,$9,$2,$3,0*%
G04 Aperture macros list end*
%ADD10C,1.600000*%
%ADD11O,1.600000X1.600000*%
%ADD12O,3.000000X3.000000*%
%ADD13C,3.000000*%
%ADD14C,2.154000*%
%ADD15O,1.700000X1.700000*%
%ADD16O,1.500000X1.500000*%
%ADD17O,1.712000X1.712000*%
%ADD18C,1.712000*%
%ADD19RoundRect,0.102000X0.838200X-0.838200X0.838200X0.838200X-0.838200X0.838200X-0.838200X-0.838200X0*%
%ADD20O,2.000000X2.000000*%
%ADD21C,2.000000*%
%ADD22O,2.200000X2.200000*%
%ADD23O,1.734000X1.734000*%
%ADD24C,1.734000*%
%ADD25O,2.000000X1.905000*%
G04 APERTURE END LIST*
D10*
%TO.C,R21*%
X191624700Y-79019400D03*
D11*
X191624700Y-89179400D03*
%TD*%
D12*
%TO.C,J6*%
X176022000Y-130048000D03*
D13*
X181102000Y-130048000D03*
%TD*%
D14*
%TO.C,K2*%
X195307700Y-59571000D03*
X207307700Y-59571000D03*
X201307700Y-61571000D03*
X195307700Y-47371000D03*
X207307700Y-47371000D03*
%TD*%
D10*
%TO.C,R15*%
X168879000Y-57531000D03*
D11*
X168879000Y-47371000D03*
%TD*%
D14*
%TO.C,K4*%
X184601600Y-76979400D03*
X172601600Y-76979400D03*
X178601600Y-74979400D03*
X184601600Y-89179400D03*
X172601600Y-89179400D03*
%TD*%
D15*
%TO.C,P1*%
X151384000Y-95631000D03*
%TD*%
D10*
%TO.C,R10*%
X106807000Y-81788000D03*
D11*
X106807000Y-71628000D03*
%TD*%
D10*
%TO.C,R22*%
X168929800Y-79019400D03*
D11*
X168929800Y-89179400D03*
%TD*%
D10*
%TO.C,R5*%
X78740000Y-81788000D03*
D11*
X78740000Y-91948000D03*
%TD*%
D16*
%TO.C,DZ5*%
X142245000Y-53162200D03*
X149865000Y-53162200D03*
%TD*%
D15*
%TO.C,P2*%
X145034000Y-95631000D03*
X145034000Y-98171000D03*
%TD*%
D17*
%TO.C,T1*%
X85551000Y-46228000D03*
D18*
X85551000Y-58928000D03*
X95551000Y-58928000D03*
X95551000Y-46228000D03*
%TD*%
D10*
%TO.C,R8*%
X102362000Y-94488000D03*
D11*
X102362000Y-84328000D03*
%TD*%
D19*
%TO.C,U1*%
X149027000Y-111743000D03*
X156027000Y-111743000D03*
X145527000Y-134493000D03*
X159527000Y-134493000D03*
X145527000Y-111743000D03*
X159527000Y-111743000D03*
%TD*%
D15*
%TO.C,P3*%
X160782000Y-82677000D03*
X160782000Y-85217000D03*
X160782000Y-87757000D03*
X160782000Y-90297000D03*
%TD*%
D10*
%TO.C,R20*%
X210979500Y-57531000D03*
D11*
X210979500Y-47371000D03*
%TD*%
D16*
%TO.C,DZ13*%
X142250000Y-62306200D03*
X149870000Y-62306200D03*
%TD*%
%TO.C,DZ4*%
X149860000Y-73736200D03*
X142240000Y-73736200D03*
%TD*%
%TO.C,DZ9*%
X142255000Y-57734200D03*
X149875000Y-57734200D03*
%TD*%
%TO.C,DZ1*%
X142245000Y-48590200D03*
X149865000Y-48590200D03*
%TD*%
D10*
%TO.C,R11*%
X106807000Y-94488000D03*
D11*
X106807000Y-84328000D03*
%TD*%
%TO.C,C1*%
X106807000Y-100751000D03*
D10*
X106807000Y-103251000D03*
%TD*%
D16*
%TO.C,DZ12*%
X149845000Y-82880200D03*
X142225000Y-82880200D03*
%TD*%
D10*
%TO.C,R19*%
X188233800Y-57531000D03*
D11*
X188233800Y-47371000D03*
%TD*%
D10*
%TO.C,R1*%
X100838000Y-100028379D03*
D11*
X90678000Y-100028379D03*
%TD*%
D12*
%TO.C,J3*%
X84582000Y-101473000D03*
D13*
X84582000Y-106553000D03*
%TD*%
D10*
%TO.C,R2*%
X90678000Y-103925999D03*
D11*
X100838000Y-103925999D03*
%TD*%
D16*
%TO.C,DZ8*%
X149850000Y-78308200D03*
X142230000Y-78308200D03*
%TD*%
D10*
%TO.C,R9*%
X106807000Y-68199000D03*
D11*
X106807000Y-58039000D03*
%TD*%
D16*
%TO.C,DZ3*%
X142245000Y-50876200D03*
X149865000Y-50876200D03*
%TD*%
D17*
%TO.C,T2*%
X85551000Y-64008000D03*
D18*
X85551000Y-76708000D03*
X95551000Y-76708000D03*
X95551000Y-64008000D03*
%TD*%
D16*
%TO.C,DZ17*%
X142240000Y-66878200D03*
X149860000Y-66878200D03*
%TD*%
D15*
%TO.C,SW2*%
X108331000Y-48133000D03*
X108331000Y-50673000D03*
X108331000Y-53213000D03*
%TD*%
D20*
%TO.C,PS1*%
X92837000Y-121333000D03*
D21*
X92837000Y-127333000D03*
X126437000Y-115333000D03*
X126437000Y-133333000D03*
%TD*%
D16*
%TO.C,DZ14*%
X149850000Y-85166200D03*
X142230000Y-85166200D03*
%TD*%
%TO.C,DZ2*%
X149865000Y-71450200D03*
X142245000Y-71450200D03*
%TD*%
%TO.C,DZ19*%
X142230000Y-69164200D03*
X149850000Y-69164200D03*
%TD*%
D12*
%TO.C,J4*%
X196342000Y-130048000D03*
D13*
X201422000Y-130048000D03*
%TD*%
D22*
%TO.C,D4*%
X173552000Y-71247000D03*
X183712000Y-71247000D03*
%TD*%
D10*
%TO.C,R3*%
X78740000Y-46228000D03*
D11*
X78740000Y-56388000D03*
%TD*%
D16*
%TO.C,DZ11*%
X142245000Y-60020200D03*
X149865000Y-60020200D03*
%TD*%
%TO.C,DZ7*%
X142245000Y-55448200D03*
X149865000Y-55448200D03*
%TD*%
D22*
%TO.C,D2*%
X196298300Y-65303400D03*
X206458300Y-65303400D03*
%TD*%
D12*
%TO.C,J7*%
X165862000Y-130048000D03*
D13*
X170942000Y-130048000D03*
%TD*%
D22*
%TO.C,D3*%
X196302000Y-71247000D03*
X206462000Y-71247000D03*
%TD*%
D10*
%TO.C,R7*%
X102362000Y-76708000D03*
D11*
X102362000Y-66548000D03*
%TD*%
D14*
%TO.C,K1*%
X172562000Y-59571000D03*
X184562000Y-59571000D03*
X178562000Y-61571000D03*
X172562000Y-47371000D03*
X184562000Y-47371000D03*
%TD*%
D10*
%TO.C,R12*%
X109982000Y-84328000D03*
D11*
X109982000Y-94488000D03*
%TD*%
D16*
%TO.C,DZ16*%
X149850000Y-87452200D03*
X142230000Y-87452200D03*
%TD*%
%TO.C,DZ18*%
X149850000Y-89738200D03*
X142230000Y-89738200D03*
%TD*%
D10*
%TO.C,R17*%
X210979500Y-79019400D03*
D11*
X210979500Y-89179400D03*
%TD*%
D10*
%TO.C,R13*%
X109982000Y-71628000D03*
D11*
X109982000Y-81788000D03*
%TD*%
D10*
%TO.C,R4*%
X78740000Y-64008000D03*
D11*
X78740000Y-74168000D03*
%TD*%
D10*
%TO.C,R14*%
X109982000Y-58039000D03*
D11*
X109982000Y-68199000D03*
%TD*%
D12*
%TO.C,J2*%
X84582000Y-111633000D03*
D13*
X84582000Y-116713000D03*
%TD*%
D15*
%TO.C,P4*%
X160782000Y-48083000D03*
X160782000Y-50623000D03*
X160782000Y-53163000D03*
X160782000Y-55703000D03*
X160782000Y-58243000D03*
X160782000Y-60783000D03*
%TD*%
D16*
%TO.C,DZ6*%
X149860000Y-76022200D03*
X142240000Y-76022200D03*
%TD*%
%TO.C,DZ10*%
X149850000Y-80594200D03*
X142230000Y-80594200D03*
%TD*%
%TO.C,DZ20*%
X149850000Y-92024200D03*
X142230000Y-92024200D03*
%TD*%
D23*
%TO.C,MCU1*%
X114427000Y-48133000D03*
D24*
X114427000Y-50673000D03*
X114427000Y-53213000D03*
X114427000Y-55753000D03*
X114427000Y-58293000D03*
X114427000Y-60833000D03*
X114427000Y-63373000D03*
X114427000Y-65913000D03*
X114427000Y-68453000D03*
X114427000Y-70993000D03*
X114427000Y-73533000D03*
X114427000Y-76073000D03*
X114427000Y-78613000D03*
X114427000Y-81153000D03*
X114427000Y-83693000D03*
X114427000Y-86233000D03*
X114427000Y-88773000D03*
X114427000Y-91313000D03*
X114427000Y-93853000D03*
X114427000Y-96393000D03*
X114427000Y-98933000D03*
X114427000Y-101473000D03*
X137287000Y-48133000D03*
X137287000Y-50673000D03*
X137287000Y-53213000D03*
X137287000Y-55753000D03*
X137287000Y-58293000D03*
X137287000Y-60833000D03*
X137287000Y-63373000D03*
X137287000Y-65913000D03*
X137287000Y-68453000D03*
X137287000Y-70993000D03*
X137287000Y-73533000D03*
X137287000Y-76073000D03*
X137287000Y-78613000D03*
X137287000Y-81153000D03*
X137287000Y-83693000D03*
X137287000Y-86233000D03*
X137287000Y-88773000D03*
X137287000Y-91313000D03*
X137287000Y-93853000D03*
X137287000Y-96393000D03*
X137287000Y-98933000D03*
X137287000Y-101473000D03*
%TD*%
D10*
%TO.C,R18*%
X188183000Y-79019400D03*
D11*
X188183000Y-89179400D03*
%TD*%
D12*
%TO.C,J5*%
X186182000Y-130048000D03*
D13*
X191262000Y-130048000D03*
%TD*%
D17*
%TO.C,T3*%
X85551000Y-81788000D03*
D18*
X85551000Y-94488000D03*
X95551000Y-94488000D03*
X95551000Y-81788000D03*
%TD*%
D22*
%TO.C,D1*%
X173552600Y-65303400D03*
X183712600Y-65303400D03*
%TD*%
D12*
%TO.C,J1*%
X134112000Y-131953000D03*
D13*
X139192000Y-131953000D03*
%TD*%
D15*
%TO.C,SW1*%
X139827000Y-116713000D03*
X139827000Y-119253000D03*
X139827000Y-121793000D03*
%TD*%
D25*
%TO.C,U2*%
X133167000Y-117983000D03*
X133167000Y-120523000D03*
X133167000Y-123063000D03*
%TD*%
D16*
%TO.C,DZ15*%
X142240000Y-64592200D03*
X149860000Y-64592200D03*
%TD*%
D10*
%TO.C,R16*%
X191624700Y-57531000D03*
D11*
X191624700Y-47371000D03*
%TD*%
D14*
%TO.C,K3*%
X207307700Y-76979400D03*
X195307700Y-76979400D03*
X201307700Y-74979400D03*
X207307700Y-89179400D03*
X195307700Y-89179400D03*
%TD*%
D10*
%TO.C,R6*%
X102362000Y-58928000D03*
D11*
X102362000Y-48768000D03*
%TD*%
D15*
%TO.C,P5*%
X172212000Y-98933000D03*
X172212000Y-101473000D03*
X172212000Y-104013000D03*
X172212000Y-106553000D03*
X172212000Y-109093000D03*
X172212000Y-111633000D03*
%TD*%
M02*
