<svg xmlns="http://www.w3.org/2000/svg" xmlns:xlink="http://www.w3.org/1999/xlink" width="2000" zoomAndPan="magnify" viewBox="0 0 1500 1499.999933" height="2000" preserveAspectRatio="xMidYMid meet" version="1.0"><defs><clipPath id="7870475af6"><path d="M 0 3.457031 L 1499.9375 3.457031 L 1499.9375 1499.269531 L 0 1499.269531 Z M 0 3.457031 " clip-rule="nonzero"/></clipPath><clipPath id="8336415580"><path d="M 613.386719 551.113281 L 845.886719 551.113281 L 845.886719 951.613281 L 613.386719 951.613281 Z M 613.386719 551.113281 " clip-rule="nonzero"/></clipPath></defs><g clip-path="url(#7870475af6)"><path fill="#00bf63" d="M 1457.222656 459.304688 C 1467.472656 459.304688 1475.828125 467.660156 1475.828125 477.933594 C 1475.828125 488.179688 1467.472656 496.511719 1457.222656 496.511719 C 1446.941406 496.511719 1438.5625 488.179688 1438.5625 477.933594 C 1438.574219 467.660156 1446.941406 459.304688 1457.222656 459.304688 Z M 1177.589844 571.96875 C 1179.832031 575.324219 1183.574219 577.332031 1187.605469 577.332031 L 1351.652344 577.332031 C 1355.019531 577.332031 1358.253906 575.929688 1360.546875 573.429688 L 1423.730469 504.414062 C 1431.574219 514.277344 1443.65625 520.632812 1457.222656 520.632812 C 1480.796875 520.632812 1499.949219 501.480469 1499.949219 477.933594 C 1499.949219 454.351562 1480.796875 435.183594 1457.222656 435.183594 C 1433.640625 435.183594 1414.453125 454.363281 1414.453125 477.933594 C 1414.453125 478.222656 1414.488281 478.515625 1414.5 478.808594 L 1346.335938 553.226562 L 1194.078125 553.226562 L 1165.566406 510.488281 C 1163.308594 507.125 1159.558594 505.125 1155.527344 505.125 L 1083.644531 505.125 L 1083.644531 529.234375 L 1149.0625 529.234375 Z M 1006.832031 269.921875 C 996.550781 269.921875 988.171875 261.554688 988.171875 251.269531 C 988.183594 240.996094 996.550781 232.652344 1006.832031 232.652344 C 1017.09375 232.652344 1025.460938 240.996094 1025.460938 251.269531 C 1025.460938 261.554688 1017.09375 269.921875 1006.832031 269.921875 Z M 1006.832031 208.535156 C 983.25 208.535156 964.074219 227.710938 964.074219 251.269531 C 964.074219 269.441406 975.480469 284.960938 991.488281 291.144531 L 991.488281 402.871094 L 1015.597656 402.871094 L 1015.597656 293.128906 C 1034.972656 289.074219 1049.570312 271.847656 1049.570312 251.269531 C 1049.570312 227.710938 1030.402344 208.535156 1006.832031 208.535156 Z M 1268.378906 623.121094 C 1278.636719 623.121094 1286.992188 631.476562 1286.992188 641.734375 C 1286.992188 652.007812 1278.636719 660.351562 1268.378906 660.351562 C 1258.105469 660.351562 1249.75 652.007812 1249.75 641.734375 C 1249.75 631.476562 1258.105469 623.121094 1268.378906 623.121094 Z M 1268.378906 684.472656 C 1291.9375 684.472656 1311.101562 665.304688 1311.101562 641.734375 C 1311.101562 618.175781 1291.9375 599.011719 1268.378906 599.011719 C 1248.992188 599.011719 1232.605469 611.984375 1227.394531 629.6875 L 1083.644531 629.6875 L 1083.644531 653.808594 L 1227.394531 653.808594 C 1232.617188 671.5 1248.992188 684.472656 1268.378906 684.472656 Z M 1448.425781 865.570312 C 1438.164062 865.570312 1429.808594 857.214844 1429.808594 846.941406 C 1429.808594 836.679688 1438.164062 828.324219 1448.425781 828.324219 C 1458.695312 828.324219 1467.074219 836.679688 1467.074219 846.941406 C 1467.074219 857.214844 1458.707031 865.570312 1448.425781 865.570312 Z M 1448.425781 804.207031 C 1428.523438 804.207031 1411.789062 817.902344 1407.066406 836.367188 L 1271.894531 836.367188 C 1267.839844 836.367188 1264.054688 838.386719 1261.824219 841.777344 L 1200.65625 934.339844 L 1083.820312 934.339844 C 1083.761719 934.339844 1083.703125 934.351562 1083.644531 934.351562 L 1083.644531 958.425781 C 1083.703125 958.425781 1083.761719 958.449219 1083.820312 958.449219 L 1207.144531 958.449219 C 1211.1875 958.449219 1214.972656 956.429688 1217.203125 953.027344 L 1278.371094 860.472656 L 1407.910156 860.472656 C 1413.589844 877.417969 1429.585938 889.679688 1448.414062 889.679688 C 1471.996094 889.679688 1491.183594 870.511719 1491.183594 846.941406 C 1491.195312 823.382812 1472.007812 804.207031 1448.425781 804.207031 Z M 1339.652344 762.03125 C 1349.921875 762.03125 1358.277344 770.375 1358.277344 780.625 C 1358.277344 790.90625 1349.921875 799.273438 1339.652344 799.273438 C 1329.390625 799.273438 1321.035156 790.90625 1321.035156 780.625 C 1321.035156 770.375 1329.390625 762.03125 1339.652344 762.03125 Z M 1154.300781 698.519531 L 1195.304688 789.292969 C 1197.234375 793.605469 1201.558594 796.398438 1206.300781 796.398438 L 1299.964844 796.398438 C 1306.253906 812.1875 1321.65625 823.394531 1339.652344 823.394531 C 1363.222656 823.394531 1382.386719 804.207031 1382.386719 780.625 C 1382.386719 757.078125 1363.222656 737.921875 1339.652344 737.921875 C 1318.945312 737.921875 1301.648438 752.71875 1297.746094 772.28125 L 1214.074219 772.28125 L 1173.066406 681.503906 C 1171.128906 677.179688 1166.816406 674.398438 1162.082031 674.398438 L 1083.644531 674.398438 L 1083.644531 698.519531 Z M 825.488281 36.328125 C 835.785156 36.328125 844.152344 44.683594 844.152344 54.957031 C 844.152344 65.226562 835.785156 73.574219 825.488281 73.574219 C 815.242188 73.574219 806.910156 65.21875 806.910156 54.957031 C 806.910156 44.683594 815.253906 36.328125 825.488281 36.328125 Z M 814.9375 96.3125 L 814.9375 231.496094 C 814.9375 235.539062 816.96875 239.304688 820.347656 241.558594 L 912.890625 302.722656 L 912.890625 402.871094 L 936.996094 402.871094 L 936.996094 296.238281 C 936.996094 292.195312 934.976562 288.421875 931.597656 286.175781 L 839.058594 225.011719 L 839.058594 95.460938 C 856 89.769531 868.261719 73.78125 868.261719 54.957031 C 868.261719 31.386719 849.082031 12.21875 825.488281 12.21875 C 801.941406 12.21875 782.789062 31.386719 782.789062 54.957031 C 782.789062 74.871094 796.496094 91.605469 814.9375 96.3125 Z M 1252.109375 1046.902344 C 1241.851562 1046.902344 1233.519531 1038.535156 1233.519531 1028.261719 C 1233.519531 1018.003906 1241.851562 1009.65625 1252.109375 1009.65625 C 1262.394531 1009.65625 1270.761719 1018.003906 1270.761719 1028.261719 C 1270.761719 1038.535156 1262.394531 1046.902344 1252.109375 1046.902344 Z M 1252.109375 985.550781 C 1233.960938 985.550781 1218.480469 996.933594 1212.296875 1012.917969 L 1083.832031 1012.917969 C 1083.773438 1012.917969 1083.703125 1012.941406 1083.644531 1012.941406 L 1083.644531 1037.015625 C 1083.703125 1037.027344 1083.773438 1037.039062 1083.832031 1037.039062 L 1210.320312 1037.039062 C 1214.378906 1056.414062 1231.566406 1071.023438 1252.109375 1071.023438 C 1275.683594 1071.023438 1294.882812 1051.820312 1294.882812 1028.25 C 1294.882812 1004.703125 1275.695312 985.550781 1252.109375 985.550781 Z M 51.523438 677.878906 C 41.273438 677.878906 32.917969 669.535156 32.917969 659.300781 C 32.917969 649.015625 41.261719 640.636719 51.523438 640.636719 C 61.796875 640.636719 70.152344 649.015625 70.152344 659.300781 C 70.152344 669.546875 61.796875 677.878906 51.523438 677.878906 Z M 282.777344 553.15625 L 221.613281 645.695312 L 92.015625 645.695312 C 86.324219 628.765625 70.351562 616.515625 51.523438 616.515625 C 27.964844 616.515625 8.789062 635.707031 8.789062 659.289062 C 8.789062 682.847656 27.964844 702 51.523438 702 C 71.460938 702 88.195312 688.28125 92.902344 669.804688 L 228.101562 669.804688 C 232.144531 669.804688 235.917969 667.796875 238.160156 664.40625 L 299.335938 571.875 L 379.691406 571.875 L 379.691406 547.757812 L 292.839844 547.757812 C 288.785156 547.757812 285.023438 549.777344 282.777344 553.15625 Z M 704.070312 1357.585938 C 693.824219 1357.585938 685.492188 1349.230469 685.492188 1338.96875 C 685.492188 1328.6875 693.824219 1320.34375 704.070312 1320.34375 C 714.355469 1320.34375 722.722656 1328.6875 722.722656 1338.96875 C 722.722656 1349.230469 714.355469 1357.585938 704.070312 1357.585938 Z M 712.425781 1297.050781 L 712.425781 1213.402344 L 803.261719 1172.386719 C 807.585938 1170.433594 810.367188 1166.132812 810.367188 1161.402344 L 810.367188 1103.367188 L 786.234375 1103.367188 L 786.234375 1153.605469 L 695.402344 1194.613281 C 691.089844 1196.566406 688.308594 1200.863281 688.308594 1205.609375 L 688.308594 1299.285156 C 672.542969 1305.582031 661.359375 1320.984375 661.359375 1338.96875 C 661.359375 1362.53125 680.523438 1381.707031 704.070312 1381.707031 C 727.652344 1381.707031 746.84375 1362.53125 746.84375 1338.96875 C 746.84375 1318.25 732.011719 1300.957031 712.425781 1297.050781 Z M 456.46875 1270.070312 C 446.207031 1270.070312 437.851562 1261.714844 437.851562 1251.453125 C 437.851562 1241.195312 446.207031 1232.828125 456.46875 1232.828125 C 466.75 1232.828125 475.09375 1241.195312 475.09375 1251.453125 C 475.09375 1261.714844 466.75 1270.070312 456.46875 1270.070312 Z M 471.835938 1211.617188 L 471.835938 1103.367188 L 447.714844 1103.367188 L 447.714844 1209.628906 C 428.339844 1213.671875 413.742188 1230.886719 413.742188 1251.453125 C 413.742188 1275.011719 432.910156 1294.191406 456.46875 1294.191406 C 480.050781 1294.191406 499.203125 1275.011719 499.203125 1251.453125 C 499.203125 1233.304688 487.820312 1217.796875 471.835938 1211.617188 Z M 247.8125 496.546875 C 237.566406 496.546875 229.222656 488.191406 229.222656 477.933594 C 229.222656 467.660156 237.566406 459.304688 247.8125 459.304688 C 258.097656 459.304688 266.476562 467.660156 266.476562 477.933594 C 266.476562 488.191406 258.097656 496.546875 247.8125 496.546875 Z M 247.824219 435.183594 C 224.265625 435.183594 205.113281 454.363281 205.113281 477.933594 C 205.113281 501.492188 224.265625 520.65625 247.8125 520.65625 C 265.972656 520.65625 281.492188 509.261719 287.675781 493.277344 L 379.691406 493.277344 L 379.691406 469.167969 L 289.671875 469.167969 C 285.617188 449.78125 268.394531 435.183594 247.824219 435.183594 Z M 42.792969 1046.902344 C 32.511719 1046.902344 24.121094 1038.570312 24.121094 1028.320312 C 24.121094 1018.046875 32.511719 1009.703125 42.792969 1009.703125 C 53.066406 1009.703125 61.421875 1018.046875 61.421875 1028.320312 C 61.421875 1038.570312 53.066406 1046.902344 42.792969 1046.902344 Z M 322.40625 934.238281 C 320.164062 930.882812 316.410156 928.871094 312.378906 928.871094 L 148.34375 928.871094 C 144.964844 928.871094 141.726562 930.285156 139.449219 932.777344 L 76.238281 1001.78125 C 68.410156 991.917969 56.339844 985.574219 42.792969 985.574219 C 19.210938 985.574219 0 1004.75 0 1028.308594 C 0 1051.867188 19.210938 1071.023438 42.792969 1071.023438 C 66.363281 1071.023438 85.53125 1051.867188 85.53125 1028.308594 C 85.53125 1027.992188 85.496094 1027.703125 85.484375 1027.398438 L 153.648438 952.980469 L 305.917969 952.980469 L 334.40625 995.695312 C 336.652344 999.046875 340.402344 1001.058594 344.421875 1001.058594 L 379.691406 1001.058594 L 379.691406 976.949219 L 350.882812 976.949219 Z M 231.605469 883.109375 C 221.320312 883.109375 212.953125 874.753906 212.953125 864.472656 C 212.953125 854.210938 221.320312 845.878906 231.605469 845.878906 C 241.867188 845.878906 250.199219 854.210938 250.199219 864.472656 C 250.199219 874.753906 241.867188 883.109375 231.605469 883.109375 Z M 231.605469 821.769531 C 208.035156 821.769531 188.847656 840.910156 188.847656 864.472656 C 188.847656 888.042969 208.035156 907.242188 231.605469 907.242188 C 250.980469 907.242188 267.339844 894.257812 272.554688 876.53125 L 379.691406 876.53125 L 379.691406 852.410156 L 272.554688 852.410156 C 267.328125 834.71875 250.980469 821.769531 231.605469 821.769531 Z M 637.8125 1466.382812 C 627.539062 1466.382812 619.195312 1458.039062 619.195312 1447.765625 C 619.195312 1437.496094 627.539062 1429.140625 637.8125 1429.140625 C 648.082031 1429.140625 656.4375 1437.496094 656.4375 1447.765625 C 656.425781 1458.039062 648.082031 1466.382812 637.8125 1466.382812 Z M 648.363281 1406.410156 L 648.363281 1271.203125 C 648.363281 1267.148438 646.34375 1263.386719 642.964844 1261.128906 L 550.421875 1199.964844 L 550.421875 1103.367188 L 526.316406 1103.367188 L 526.316406 1206.449219 C 526.316406 1210.496094 528.335938 1214.28125 531.714844 1216.523438 L 624.257812 1277.6875 L 624.257812 1407.273438 C 607.324219 1412.964844 595.074219 1428.953125 595.074219 1447.765625 C 595.074219 1471.351562 614.253906 1490.503906 637.8125 1490.503906 C 661.382812 1490.503906 680.546875 1471.351562 680.546875 1447.765625 C 680.546875 1427.855469 666.828125 1411.121094 648.363281 1406.410156 Z M 160.332031 744.140625 C 150.046875 744.140625 141.679688 735.808594 141.679688 725.546875 C 141.679688 715.277344 150.046875 706.921875 160.332031 706.921875 C 170.59375 706.921875 178.925781 715.277344 178.925781 725.546875 C 178.925781 735.808594 170.582031 744.140625 160.332031 744.140625 Z M 304.691406 716.851562 C 302.738281 712.539062 298.4375 709.757812 293.691406 709.757812 L 199.984375 709.757812 C 193.683594 693.996094 178.304688 682.8125 160.34375 682.8125 C 136.75 682.8125 117.574219 701.988281 117.574219 725.558594 C 117.574219 749.105469 136.75 768.25 160.34375 768.25 C 181.039062 768.25 198.335938 753.453125 202.214844 733.867188 L 285.910156 733.867188 L 326.882812 824.679688 C 328.832031 829.003906 333.132812 831.785156 337.867188 831.785156 L 379.691406 831.785156 L 379.691406 807.652344 L 345.660156 807.652344 Z M 843.019531 1286.300781 C 832.757812 1286.300781 824.402344 1277.957031 824.402344 1267.6875 C 824.402344 1257.414062 832.757812 1249.070312 843.019531 1249.070312 C 853.265625 1249.070312 861.597656 1257.414062 861.597656 1267.6875 C 861.597656 1277.957031 853.265625 1286.300781 843.019531 1286.300781 Z M 855.066406 1226.714844 L 855.066406 1103.367188 L 830.96875 1103.367188 L 830.96875 1226.714844 C 813.253906 1231.925781 800.28125 1248.308594 800.28125 1267.6875 C 800.28125 1291.246094 819.449219 1310.421875 843.019531 1310.421875 C 866.566406 1310.421875 885.71875 1291.246094 885.71875 1267.6875 C 885.71875 1248.308594 872.769531 1231.9375 855.066406 1226.714844 Z M 620.292969 216.410156 C 630.554688 216.410156 638.910156 224.765625 638.910156 235.050781 C 638.910156 245.308594 630.554688 253.664062 620.292969 253.664062 C 610.023438 253.664062 601.679688 245.308594 601.679688 235.050781 C 601.679688 224.765625 610.023438 216.410156 620.292969 216.410156 Z M 608.234375 276.007812 L 608.234375 402.871094 L 632.34375 402.871094 L 632.34375 276.007812 C 650.058594 270.796875 663.03125 254.414062 663.03125 235.050781 C 663.03125 211.480469 643.851562 192.300781 620.292969 192.300781 C 596.722656 192.300781 577.558594 211.480469 577.558594 235.050781 C 577.558594 254.414062 590.53125 270.796875 608.234375 276.007812 Z M 759.21875 145.136719 C 769.476562 145.136719 777.832031 153.492188 777.832031 163.753906 C 777.832031 174.027344 769.476562 182.371094 759.21875 182.371094 C 748.957031 182.371094 740.625 174.027344 740.625 163.753906 C 740.625 153.492188 748.957031 145.136719 759.21875 145.136719 Z M 750.863281 205.660156 L 750.863281 289.332031 L 660.039062 330.335938 C 655.726562 332.289062 652.945312 336.589844 652.945312 341.335938 L 652.945312 402.871094 L 677.066406 402.871094 L 677.066406 349.117188 L 767.878906 308.109375 C 772.175781 306.160156 774.980469 301.859375 774.980469 297.113281 L 774.980469 203.4375 C 790.746094 197.152344 801.941406 181.75 801.941406 163.765625 C 801.941406 140.195312 782.765625 121.027344 759.21875 121.027344 C 735.660156 121.027344 716.503906 140.195312 716.503906 163.765625 C 716.503906 184.460938 731.289062 201.757812 750.863281 205.660156 Z M 456.433594 64.808594 C 446.183594 64.808594 437.851562 56.476562 437.851562 46.226562 C 437.851562 35.941406 446.195312 27.574219 456.433594 27.574219 C 466.714844 27.574219 475.09375 35.941406 475.09375 46.226562 C 475.09375 56.476562 466.726562 64.808594 456.433594 64.808594 Z M 555.894531 315.824219 L 555.894531 151.796875 C 555.894531 148.410156 554.46875 145.183594 551.976562 142.90625 L 482.972656 79.660156 C 492.847656 71.832031 499.203125 59.757812 499.203125 46.226562 C 499.203125 22.644531 480.027344 3.457031 456.445312 3.457031 C 432.898438 3.457031 413.742188 22.644531 413.742188 46.226562 C 413.742188 69.773438 432.898438 88.929688 456.445312 88.929688 C 456.761719 88.929688 457.050781 88.894531 457.367188 88.882812 L 531.773438 157.105469 L 531.773438 309.382812 L 489.035156 337.851562 C 485.683594 340.082031 483.671875 343.847656 483.671875 347.890625 L 483.671875 402.871094 L 507.78125 402.871094 L 507.78125 354.339844 L 550.527344 325.863281 C 553.882812 323.640625 555.894531 319.867188 555.894531 315.824219 Z M 1006.832031 1475.148438 C 996.574219 1475.148438 988.21875 1466.792969 988.21875 1456.53125 C 988.21875 1446.25 996.574219 1437.882812 1006.832031 1437.882812 C 1017.09375 1437.882812 1025.460938 1446.25 1025.460938 1456.53125 C 1025.460938 1466.792969 1017.105469 1475.148438 1006.832031 1475.148438 Z M 1006.832031 1413.761719 C 1006.507812 1413.761719 1006.214844 1413.808594 1005.886719 1413.808594 L 931.539062 1345.65625 L 931.539062 1193.375 L 974.277344 1164.871094 C 977.628906 1162.617188 979.652344 1158.878906 979.652344 1154.832031 L 979.652344 1103.367188 L 955.519531 1103.367188 L 955.519531 1148.371094 L 912.785156 1176.886719 C 909.429688 1179.140625 907.421875 1182.890625 907.421875 1186.921875 L 907.421875 1350.960938 C 907.421875 1354.335938 908.835938 1357.574219 911.335938 1359.851562 L 980.292969 1423.0625 C 970.441406 1430.90625 964.097656 1442.988281 964.097656 1456.53125 C 964.097656 1480.101562 983.273438 1499.269531 1006.832031 1499.269531 C 1030.402344 1499.269531 1049.570312 1480.101562 1049.570312 1456.53125 C 1049.582031 1432.949219 1030.402344 1413.761719 1006.832031 1413.761719 " fill-opacity="1" fill-rule="nonzero"/></g><path fill="#9b9b9e" d="M 499.332031 985.433594 L 499.332031 520.761719 L 964.003906 520.761719 L 964.003906 985.433594 Z M 1028.125 402.871094 L 435.1875 402.871094 C 404.640625 402.871094 379.691406 427.8125 379.691406 458.324219 L 379.691406 1047.882812 C 379.691406 1078.335938 404.640625 1103.367188 435.1875 1103.367188 L 1028.125 1103.367188 C 1058.683594 1103.367188 1083.644531 1078.335938 1083.644531 1047.882812 L 1083.644531 458.324219 C 1083.644531 427.8125 1058.683594 402.871094 1028.125 402.871094 " fill-opacity="1" fill-rule="nonzero"/><path fill="#bcbbc3" d="M 499.332031 985.433594 L 964.003906 985.433594 L 964.003906 520.761719 L 499.332031 520.761719 L 499.332031 985.433594 " fill-opacity="1" fill-rule="nonzero"/><g clip-path="url(#8336415580)"><path fill="#fbc646" d="M 682.285156 551.125 L 831.523438 551.125 L 768.375 668.6875 L 845.871094 668.6875 L 658.363281 951.601562 L 708.109375 743.230469 L 613.402344 743.230469 L 682.285156 551.125 " fill-opacity="1" fill-rule="nonzero"/></g></svg>