%TF.GenerationSoftware,KiCad,Pcbnew,7.0.10*%
%TF.CreationDate,2024-06-01T10:30:07-03:00*%
%TF.ProjectId,board,626f6172-642e-46b6-9963-61645f706362,1.1*%
%TF.SameCoordinates,Original*%
%TF.FileFunction,Soldermask,Bot*%
%TF.FilePolarity,Negative*%
%FSLAX46Y46*%
G04 Gerber Fmt 4.6, Leading zero omitted, Abs format (unit mm)*
G04 Created by KiCad (PCBNEW 7.0.10) date 2024-06-01 10:30:07*
%MOMM*%
%LPD*%
G01*
G04 APERTURE LIST*
%ADD10O,1.600000X1.600000*%
%ADD11O,1.500000X1.500000*%
%ADD12C,1.600000*%
%ADD13O,2.000000X2.000000*%
%ADD14C,2.000000*%
%ADD15O,1.734000X1.734000*%
%ADD16C,1.734000*%
%ADD17O,1.712000X1.712000*%
%ADD18C,1.712000*%
%ADD19O,3.000000X3.000000*%
%ADD20C,3.000000*%
%ADD21O,1.700000X1.700000*%
%ADD22O,2.000000X1.905000*%
G04 APERTURE END LIST*
D10*
%TO.C,AMP3*%
X128280000Y-106944000D03*
X128280000Y-109484000D03*
X128280000Y-112024000D03*
X128280000Y-114564000D03*
X135900000Y-114564000D03*
X135900000Y-112024000D03*
X135900000Y-109484000D03*
X135900000Y-106944000D03*
%TD*%
D11*
%TO.C,DZ14*%
X189738000Y-52324000D03*
X189738000Y-44704000D03*
%TD*%
D12*
%TO.C,R9*%
X157780000Y-74920000D03*
D10*
X147620000Y-74920000D03*
%TD*%
%TO.C,AMP8*%
X167132000Y-59944000D03*
X167132000Y-62484000D03*
X167132000Y-65024000D03*
X167132000Y-67564000D03*
X174752000Y-67564000D03*
X174752000Y-65024000D03*
X174752000Y-62484000D03*
X174752000Y-59944000D03*
%TD*%
D11*
%TO.C,DZ2*%
X159258000Y-52324000D03*
X159258000Y-44704000D03*
%TD*%
D12*
%TO.C,R7*%
X126995000Y-103373000D03*
D10*
X137155000Y-103373000D03*
%TD*%
D13*
%TO.C,PS1*%
X103124000Y-51912000D03*
D14*
X103124000Y-57912000D03*
X136724000Y-45912000D03*
X136724000Y-63912000D03*
%TD*%
D12*
%TO.C,R16*%
X160772000Y-63236000D03*
D10*
X160772000Y-73396000D03*
%TD*%
D15*
%TO.C,MCU1*%
X166136800Y-77694000D03*
D16*
X166136800Y-80234000D03*
X166136800Y-82774000D03*
X166136800Y-85314000D03*
X166136800Y-87854000D03*
X166136800Y-90394000D03*
X166136800Y-92934000D03*
X166136800Y-95474000D03*
X166136800Y-98014000D03*
X166136800Y-100554000D03*
X166136800Y-103094000D03*
X166136800Y-105634000D03*
X166136800Y-108174000D03*
X166136800Y-110714000D03*
X166136800Y-113254000D03*
X166136800Y-115794000D03*
X166136800Y-118334000D03*
X166136800Y-120874000D03*
X166136800Y-123414000D03*
X166136800Y-125954000D03*
X166136800Y-128494000D03*
X166136800Y-131034000D03*
X188996800Y-77694000D03*
X188996800Y-80234000D03*
X188996800Y-82774000D03*
X188996800Y-85314000D03*
X188996800Y-87854000D03*
X188996800Y-90394000D03*
X188996800Y-92934000D03*
X188996800Y-95474000D03*
X188996800Y-98014000D03*
X188996800Y-100554000D03*
X188996800Y-103094000D03*
X188996800Y-105634000D03*
X188996800Y-108174000D03*
X188996800Y-110714000D03*
X188996800Y-113254000D03*
X188996800Y-115794000D03*
X188996800Y-118334000D03*
X188996800Y-120874000D03*
X188996800Y-123414000D03*
X188996800Y-125954000D03*
X188996800Y-128494000D03*
X188996800Y-131034000D03*
%TD*%
D10*
%TO.C,AMP6*%
X148834000Y-93208000D03*
X148834000Y-95748000D03*
X148834000Y-98288000D03*
X148834000Y-100828000D03*
X156454000Y-100828000D03*
X156454000Y-98288000D03*
X156454000Y-95748000D03*
X156454000Y-93208000D03*
%TD*%
D11*
%TO.C,DZ13*%
X187198000Y-44704000D03*
X187198000Y-52324000D03*
%TD*%
D10*
%TO.C,AMP4*%
X148844000Y-63754000D03*
X148844000Y-66294000D03*
X148844000Y-68834000D03*
X148844000Y-71374000D03*
X156464000Y-71374000D03*
X156464000Y-68834000D03*
X156464000Y-66294000D03*
X156464000Y-63754000D03*
%TD*%
D12*
%TO.C,R17*%
X160772000Y-77968000D03*
D10*
X160772000Y-88128000D03*
%TD*%
D11*
%TO.C,DZ6*%
X169418000Y-52329000D03*
X169418000Y-44709000D03*
%TD*%
%TO.C,DZ5*%
X166878000Y-44704000D03*
X166878000Y-52324000D03*
%TD*%
D17*
%TO.C,TP1*%
X110490000Y-69850000D03*
D18*
X110490000Y-82550000D03*
X120490000Y-82550000D03*
X120490000Y-69850000D03*
%TD*%
D19*
%TO.C,J6*%
X154960800Y-125954000D03*
D20*
X160040800Y-125954000D03*
%TD*%
D21*
%TO.C,P1*%
X184404000Y-67564000D03*
X186944000Y-67564000D03*
X189484000Y-67564000D03*
%TD*%
D12*
%TO.C,R2*%
X137160000Y-73660000D03*
D10*
X127000000Y-73660000D03*
%TD*%
D12*
%TO.C,R18*%
X160772000Y-92700000D03*
D10*
X160772000Y-102860000D03*
%TD*%
D12*
%TO.C,R11*%
X157724000Y-104384000D03*
D10*
X147564000Y-104384000D03*
%TD*%
D11*
%TO.C,DZ11*%
X182118000Y-44704000D03*
X182118000Y-52324000D03*
%TD*%
D21*
%TO.C,SW1*%
X143510000Y-58832000D03*
X143510000Y-61372000D03*
X143510000Y-63912000D03*
%TD*%
D12*
%TO.C,R6*%
X127000000Y-88646000D03*
D10*
X137160000Y-88646000D03*
%TD*%
D11*
%TO.C,DZ3*%
X161798000Y-44694000D03*
X161798000Y-52314000D03*
%TD*%
D12*
%TO.C,R10*%
X157714000Y-89642000D03*
D10*
X147554000Y-89642000D03*
%TD*%
D17*
%TO.C,TP2*%
X110490000Y-87630000D03*
D18*
X110490000Y-100330000D03*
X120490000Y-100330000D03*
X120490000Y-87630000D03*
%TD*%
D12*
%TO.C,R3*%
X103505000Y-69850000D03*
D10*
X103505000Y-80010000D03*
%TD*%
D12*
%TO.C,R12*%
X157754800Y-119096000D03*
D10*
X147594800Y-119096000D03*
%TD*%
D11*
%TO.C,DZ12*%
X184658000Y-52329000D03*
X184658000Y-44709000D03*
%TD*%
D10*
%TO.C,C2*%
X152654000Y-55690888D03*
D12*
X152654000Y-58190888D03*
%TD*%
D19*
%TO.C,J3*%
X124480800Y-125954000D03*
D20*
X129560800Y-125954000D03*
%TD*%
D19*
%TO.C,J1*%
X102108000Y-125984000D03*
D20*
X107188000Y-125984000D03*
%TD*%
D12*
%TO.C,R19*%
X160772000Y-107432000D03*
D10*
X160772000Y-117592000D03*
%TD*%
D21*
%TO.C,P4*%
X184404000Y-62230000D03*
X186944000Y-62230000D03*
X189484000Y-62230000D03*
%TD*%
D12*
%TO.C,R15*%
X140208000Y-106426000D03*
D10*
X140208000Y-116586000D03*
%TD*%
D11*
%TO.C,DZ9*%
X177038000Y-44699000D03*
X177038000Y-52319000D03*
%TD*%
%TO.C,DZ7*%
X171958000Y-44699000D03*
X171958000Y-52319000D03*
%TD*%
D19*
%TO.C,J5*%
X144800800Y-125954000D03*
D20*
X149880800Y-125954000D03*
%TD*%
D21*
%TO.C,P5*%
X192659000Y-91694000D03*
X192659000Y-94234000D03*
X192659000Y-96774000D03*
X192659000Y-99314000D03*
X192659000Y-101854000D03*
X192659000Y-104394000D03*
%TD*%
D11*
%TO.C,DZ4*%
X164338000Y-52324000D03*
X164338000Y-44704000D03*
%TD*%
D21*
%TO.C,P3*%
X183134000Y-56896000D03*
X185674000Y-56896000D03*
X188214000Y-56896000D03*
X190754000Y-56896000D03*
%TD*%
D12*
%TO.C,R13*%
X140208000Y-76962000D03*
D10*
X140208000Y-87122000D03*
%TD*%
D17*
%TO.C,TP3*%
X110490000Y-105410000D03*
D18*
X110490000Y-118110000D03*
X120490000Y-118110000D03*
X120490000Y-105410000D03*
%TD*%
D11*
%TO.C,DZ1*%
X156718000Y-44699000D03*
X156718000Y-52319000D03*
%TD*%
D10*
%TO.C,C1*%
X143510000Y-48427000D03*
D12*
X143510000Y-45927000D03*
%TD*%
%TO.C,R8*%
X127000000Y-118110000D03*
D10*
X137160000Y-118110000D03*
%TD*%
D19*
%TO.C,J2*%
X112268000Y-125984000D03*
D20*
X117348000Y-125984000D03*
%TD*%
D21*
%TO.C,P2*%
X161290000Y-56642000D03*
%TD*%
D22*
%TO.C,PS2*%
X149098000Y-45720000D03*
X149098000Y-48260000D03*
X149098000Y-50800000D03*
%TD*%
D12*
%TO.C,R14*%
X140203000Y-91689000D03*
D10*
X140203000Y-101849000D03*
%TD*%
D11*
%TO.C,DZ8*%
X174498000Y-52324000D03*
X174498000Y-44704000D03*
%TD*%
%TO.C,DZ10*%
X179578000Y-52324000D03*
X179578000Y-44704000D03*
%TD*%
D12*
%TO.C,R4*%
X103505000Y-87630000D03*
D10*
X103505000Y-97790000D03*
%TD*%
D12*
%TO.C,R5*%
X103505000Y-105410000D03*
D10*
X103505000Y-115570000D03*
%TD*%
%TO.C,AMP7*%
X148824000Y-107930000D03*
X148824000Y-110470000D03*
X148824000Y-113010000D03*
X148824000Y-115550000D03*
X156444000Y-115550000D03*
X156444000Y-113010000D03*
X156444000Y-110470000D03*
X156444000Y-107930000D03*
%TD*%
%TO.C,AMP5*%
X148834000Y-78476000D03*
X148834000Y-81016000D03*
X148834000Y-83556000D03*
X148834000Y-86096000D03*
X156454000Y-86096000D03*
X156454000Y-83556000D03*
X156454000Y-81016000D03*
X156454000Y-78476000D03*
%TD*%
D12*
%TO.C,R1*%
X127000000Y-70104000D03*
D10*
X137160000Y-70104000D03*
%TD*%
D19*
%TO.C,J4*%
X134640800Y-125954000D03*
D20*
X139720800Y-125954000D03*
%TD*%
D10*
%TO.C,AMP2*%
X128275000Y-92207000D03*
X128275000Y-94747000D03*
X128275000Y-97287000D03*
X128275000Y-99827000D03*
X135895000Y-99827000D03*
X135895000Y-97287000D03*
X135895000Y-94747000D03*
X135895000Y-92207000D03*
%TD*%
%TO.C,AMP1*%
X128270000Y-77470000D03*
X128270000Y-80010000D03*
X128270000Y-82550000D03*
X128270000Y-85090000D03*
X135890000Y-85090000D03*
X135890000Y-82550000D03*
X135890000Y-80010000D03*
X135890000Y-77470000D03*
%TD*%
M02*
