M48
; DRILL file {KiCad 7.0.10} date Sat Jun  1 23:55:27 2024
; FORMAT={-:-/ absolute / metric / decimal}
; #@! TF.CreationDate,2024-06-01T23:55:27-03:00
; #@! TF.GenerationSoftware,Kicad,Pcbnew,7.0.10
; #@! TF.FileFunction,Plated,1,2,PTH
FMAT,2
METRIC
; #@! TA.AperFunction,Plated,PTH,ViaDrill
T1C0.300
; #@! TA.AperFunction,Plated,PTH,ComponentDrill
T2C0.750
; #@! TA.AperFunction,Plated,PTH,ComponentDrill
T3C0.800
; #@! TA.AperFunction,Plated,PTH,ComponentDrill
T4C1.000
; #@! TA.AperFunction,Plated,PTH,ComponentDrill
T5C1.020
; #@! TA.AperFunction,Plated,PTH,ComponentDrill
T6C1.100
; #@! TA.AperFunction,Plated,PTH,ComponentDrill
T7C1.520
%
G90
G05
T1
X147.341Y-76.678
X147.341Y-91.41
X147.341Y-106.142
X150.622Y-60.198
X151.384Y-53.848
X151.659Y-62.454
X155.767Y-55.691
X155.956Y-53.848
X157.48Y-61.722
X157.755Y-76.678
X157.755Y-91.41
X157.755Y-106.142
X159.512Y-61.722
X177.038Y-61.214
X177.673Y-60.579
X178.308Y-59.944
X178.943Y-54.229
X179.578Y-54.864
X180.213Y-55.499
X180.848Y-56.134
X184.658Y-95.474
X185.547Y-99.314
X185.547Y-101.854
X186.436Y-96.774
T2
X156.718Y-44.699
X156.718Y-52.319
X159.258Y-44.704
X159.258Y-52.324
X161.798Y-44.694
X161.798Y-52.314
X164.338Y-44.704
X164.338Y-52.324
X166.878Y-44.704
X166.878Y-52.324
X169.418Y-44.709
X169.418Y-52.329
X171.958Y-44.699
X171.958Y-52.319
X174.498Y-44.704
X174.498Y-52.324
X177.038Y-44.699
X177.038Y-52.319
X179.578Y-44.704
X179.578Y-52.324
X182.118Y-44.704
X182.118Y-52.324
X184.658Y-44.709
X184.658Y-52.329
X187.198Y-44.704
X187.198Y-52.324
X189.738Y-44.704
X189.738Y-52.324
T3
X103.505Y-69.85
X103.505Y-80.01
X103.505Y-87.63
X103.505Y-97.79
X103.505Y-105.41
X103.505Y-115.57
X126.995Y-103.373
X127.0Y-70.104
X127.0Y-73.66
X127.0Y-88.646
X127.0Y-118.11
X128.27Y-77.47
X128.27Y-80.01
X128.27Y-82.55
X128.27Y-85.09
X128.275Y-92.207
X128.275Y-94.747
X128.275Y-97.287
X128.275Y-99.827
X128.28Y-106.944
X128.28Y-109.484
X128.28Y-112.024
X128.28Y-114.564
X135.89Y-77.47
X135.89Y-80.01
X135.89Y-82.55
X135.89Y-85.09
X135.895Y-92.207
X135.895Y-94.747
X135.895Y-97.287
X135.895Y-99.827
X135.9Y-106.944
X135.9Y-109.484
X135.9Y-112.024
X135.9Y-114.564
X137.155Y-103.373
X137.16Y-70.104
X137.16Y-73.66
X137.16Y-88.646
X137.16Y-118.11
X140.203Y-91.689
X140.203Y-101.849
X140.208Y-76.962
X140.208Y-87.122
X140.208Y-106.426
X140.208Y-116.586
X143.51Y-45.927
X143.51Y-48.427
X147.554Y-89.642
X147.564Y-104.384
X147.595Y-119.096
X147.62Y-74.92
X148.824Y-107.93
X148.824Y-110.47
X148.824Y-113.01
X148.824Y-115.55
X148.834Y-78.476
X148.834Y-81.016
X148.834Y-83.556
X148.834Y-86.096
X148.834Y-93.208
X148.834Y-95.748
X148.834Y-98.288
X148.834Y-100.828
X148.844Y-63.754
X148.844Y-66.294
X148.844Y-68.834
X148.844Y-71.374
X152.654Y-55.691
X152.654Y-58.191
X156.444Y-107.93
X156.444Y-110.47
X156.444Y-113.01
X156.444Y-115.55
X156.454Y-78.476
X156.454Y-81.016
X156.454Y-83.556
X156.454Y-86.096
X156.454Y-93.208
X156.454Y-95.748
X156.454Y-98.288
X156.454Y-100.828
X156.464Y-63.754
X156.464Y-66.294
X156.464Y-68.834
X156.464Y-71.374
X157.714Y-89.642
X157.724Y-104.384
X157.755Y-119.096
X157.78Y-74.92
X160.772Y-63.236
X160.772Y-73.396
X160.772Y-77.968
X160.772Y-88.128
X160.772Y-92.7
X160.772Y-102.86
X160.772Y-107.432
X160.772Y-117.592
X167.132Y-59.944
X167.132Y-62.484
X167.132Y-65.024
X167.132Y-67.564
X174.752Y-59.944
X174.752Y-62.484
X174.752Y-65.024
X174.752Y-67.564
T4
X103.124Y-51.912
X103.124Y-57.912
X110.49Y-69.85
X110.49Y-82.55
X110.49Y-87.63
X110.49Y-100.33
X110.49Y-105.41
X110.49Y-118.11
X120.49Y-69.85
X120.49Y-82.55
X120.49Y-87.63
X120.49Y-100.33
X120.49Y-105.41
X120.49Y-118.11
X136.724Y-45.912
X136.724Y-63.912
X143.51Y-58.832
X143.51Y-61.372
X143.51Y-63.912
X161.29Y-56.896
X183.134Y-56.896
X184.404Y-62.23
X184.404Y-67.564
X185.674Y-56.896
X186.944Y-62.23
X186.944Y-67.564
X188.214Y-56.896
X189.484Y-62.23
X189.484Y-67.564
X190.754Y-56.896
X192.659Y-91.694
X192.659Y-94.234
X192.659Y-96.774
X192.659Y-99.314
X192.659Y-101.854
X192.659Y-104.394
T5
X166.137Y-77.694
X166.137Y-80.234
X166.137Y-82.774
X166.137Y-85.314
X166.137Y-87.854
X166.137Y-90.394
X166.137Y-92.934
X166.137Y-95.474
X166.137Y-98.014
X166.137Y-100.554
X166.137Y-103.094
X166.137Y-105.634
X166.137Y-108.174
X166.137Y-110.714
X166.137Y-113.254
X166.137Y-115.794
X166.137Y-118.334
X166.137Y-120.874
X166.137Y-123.414
X166.137Y-125.954
X166.137Y-128.494
X166.137Y-131.034
X188.997Y-77.694
X188.997Y-80.234
X188.997Y-82.774
X188.997Y-85.314
X188.997Y-87.854
X188.997Y-90.394
X188.997Y-92.934
X188.997Y-95.474
X188.997Y-98.014
X188.997Y-100.554
X188.997Y-103.094
X188.997Y-105.634
X188.997Y-108.174
X188.997Y-110.714
X188.997Y-113.254
X188.997Y-115.794
X188.997Y-118.334
X188.997Y-120.874
X188.997Y-123.414
X188.997Y-125.954
X188.997Y-128.494
X188.997Y-131.034
T6
X149.098Y-45.72
X149.098Y-48.26
X149.098Y-50.8
T7
X102.108Y-125.984
X107.188Y-125.984
X112.268Y-125.984
X117.348Y-125.984
X124.481Y-125.954
X129.561Y-125.954
X134.641Y-125.954
X139.721Y-125.954
X144.801Y-125.954
X149.881Y-125.954
X154.961Y-125.954
X160.041Y-125.954
M30
