%TF.GenerationSoftware,KiCad,Pcbnew,7.0.10*%
%TF.CreationDate,2024-06-02T02:53:49-03:00*%
%TF.ProjectId,board,626f6172-642e-46b6-9963-61645f706362,1.3*%
%TF.SameCoordinates,Original*%
%TF.FileFunction,Legend,Bot*%
%TF.FilePolarity,Positive*%
%FSLAX46Y46*%
G04 Gerber Fmt 4.6, Leading zero omitted, Abs format (unit mm)*
G04 Created by KiCad (PCBNEW 7.0.10) date 2024-06-02 02:53:49*
%MOMM*%
%LPD*%
G01*
G04 APERTURE LIST*
%ADD10C,0.150000*%
G04 APERTURE END LIST*
D10*
X185388230Y-128389057D02*
X185388230Y-129117628D01*
X185388230Y-129117628D02*
X185431087Y-129203342D01*
X185431087Y-129203342D02*
X185473944Y-129246200D01*
X185473944Y-129246200D02*
X185559658Y-129289057D01*
X185559658Y-129289057D02*
X185688230Y-129289057D01*
X185688230Y-129289057D02*
X185773944Y-129246200D01*
X185388230Y-128946200D02*
X185473944Y-128989057D01*
X185473944Y-128989057D02*
X185645372Y-128989057D01*
X185645372Y-128989057D02*
X185731087Y-128946200D01*
X185731087Y-128946200D02*
X185773944Y-128903342D01*
X185773944Y-128903342D02*
X185816801Y-128817628D01*
X185816801Y-128817628D02*
X185816801Y-128560485D01*
X185816801Y-128560485D02*
X185773944Y-128474771D01*
X185773944Y-128474771D02*
X185731087Y-128431914D01*
X185731087Y-128431914D02*
X185645372Y-128389057D01*
X185645372Y-128389057D02*
X185473944Y-128389057D01*
X185473944Y-128389057D02*
X185388230Y-128431914D01*
X184959658Y-128989057D02*
X184959658Y-128389057D01*
X184959658Y-128089057D02*
X185002515Y-128131914D01*
X185002515Y-128131914D02*
X184959658Y-128174771D01*
X184959658Y-128174771D02*
X184916801Y-128131914D01*
X184916801Y-128131914D02*
X184959658Y-128089057D01*
X184959658Y-128089057D02*
X184959658Y-128174771D01*
X184659658Y-128389057D02*
X184316801Y-128389057D01*
X184531087Y-128089057D02*
X184531087Y-128860485D01*
X184531087Y-128860485D02*
X184488230Y-128946200D01*
X184488230Y-128946200D02*
X184402515Y-128989057D01*
X184402515Y-128989057D02*
X184316801Y-128989057D01*
X184016801Y-128989057D02*
X184016801Y-128089057D01*
X183631087Y-128989057D02*
X183631087Y-128517628D01*
X183631087Y-128517628D02*
X183673944Y-128431914D01*
X183673944Y-128431914D02*
X183759658Y-128389057D01*
X183759658Y-128389057D02*
X183888229Y-128389057D01*
X183888229Y-128389057D02*
X183973944Y-128431914D01*
X183973944Y-128431914D02*
X184016801Y-128474771D01*
X182816801Y-128389057D02*
X182816801Y-128989057D01*
X183202515Y-128389057D02*
X183202515Y-128860485D01*
X183202515Y-128860485D02*
X183159658Y-128946200D01*
X183159658Y-128946200D02*
X183073943Y-128989057D01*
X183073943Y-128989057D02*
X182945372Y-128989057D01*
X182945372Y-128989057D02*
X182859658Y-128946200D01*
X182859658Y-128946200D02*
X182816801Y-128903342D01*
X182388229Y-128989057D02*
X182388229Y-128089057D01*
X182388229Y-128431914D02*
X182302515Y-128389057D01*
X182302515Y-128389057D02*
X182131086Y-128389057D01*
X182131086Y-128389057D02*
X182045372Y-128431914D01*
X182045372Y-128431914D02*
X182002515Y-128474771D01*
X182002515Y-128474771D02*
X181959657Y-128560485D01*
X181959657Y-128560485D02*
X181959657Y-128817628D01*
X181959657Y-128817628D02*
X182002515Y-128903342D01*
X182002515Y-128903342D02*
X182045372Y-128946200D01*
X182045372Y-128946200D02*
X182131086Y-128989057D01*
X182131086Y-128989057D02*
X182302515Y-128989057D01*
X182302515Y-128989057D02*
X182388229Y-128946200D01*
X181573943Y-128903342D02*
X181531086Y-128946200D01*
X181531086Y-128946200D02*
X181573943Y-128989057D01*
X181573943Y-128989057D02*
X181616800Y-128946200D01*
X181616800Y-128946200D02*
X181573943Y-128903342D01*
X181573943Y-128903342D02*
X181573943Y-128989057D01*
X180759658Y-128946200D02*
X180845372Y-128989057D01*
X180845372Y-128989057D02*
X181016800Y-128989057D01*
X181016800Y-128989057D02*
X181102515Y-128946200D01*
X181102515Y-128946200D02*
X181145372Y-128903342D01*
X181145372Y-128903342D02*
X181188229Y-128817628D01*
X181188229Y-128817628D02*
X181188229Y-128560485D01*
X181188229Y-128560485D02*
X181145372Y-128474771D01*
X181145372Y-128474771D02*
X181102515Y-128431914D01*
X181102515Y-128431914D02*
X181016800Y-128389057D01*
X181016800Y-128389057D02*
X180845372Y-128389057D01*
X180845372Y-128389057D02*
X180759658Y-128431914D01*
X180245371Y-128989057D02*
X180331086Y-128946200D01*
X180331086Y-128946200D02*
X180373943Y-128903342D01*
X180373943Y-128903342D02*
X180416800Y-128817628D01*
X180416800Y-128817628D02*
X180416800Y-128560485D01*
X180416800Y-128560485D02*
X180373943Y-128474771D01*
X180373943Y-128474771D02*
X180331086Y-128431914D01*
X180331086Y-128431914D02*
X180245371Y-128389057D01*
X180245371Y-128389057D02*
X180116800Y-128389057D01*
X180116800Y-128389057D02*
X180031086Y-128431914D01*
X180031086Y-128431914D02*
X179988229Y-128474771D01*
X179988229Y-128474771D02*
X179945371Y-128560485D01*
X179945371Y-128560485D02*
X179945371Y-128817628D01*
X179945371Y-128817628D02*
X179988229Y-128903342D01*
X179988229Y-128903342D02*
X180031086Y-128946200D01*
X180031086Y-128946200D02*
X180116800Y-128989057D01*
X180116800Y-128989057D02*
X180245371Y-128989057D01*
X179559657Y-128989057D02*
X179559657Y-128389057D01*
X179559657Y-128474771D02*
X179516800Y-128431914D01*
X179516800Y-128431914D02*
X179431085Y-128389057D01*
X179431085Y-128389057D02*
X179302514Y-128389057D01*
X179302514Y-128389057D02*
X179216800Y-128431914D01*
X179216800Y-128431914D02*
X179173943Y-128517628D01*
X179173943Y-128517628D02*
X179173943Y-128989057D01*
X179173943Y-128517628D02*
X179131085Y-128431914D01*
X179131085Y-128431914D02*
X179045371Y-128389057D01*
X179045371Y-128389057D02*
X178916800Y-128389057D01*
X178916800Y-128389057D02*
X178831085Y-128431914D01*
X178831085Y-128431914D02*
X178788228Y-128517628D01*
X178788228Y-128517628D02*
X178788228Y-128989057D01*
X177716800Y-128046200D02*
X178488228Y-129203342D01*
X177288228Y-128989057D02*
X177373943Y-128946200D01*
X177373943Y-128946200D02*
X177416800Y-128860485D01*
X177416800Y-128860485D02*
X177416800Y-128089057D01*
X176559657Y-128389057D02*
X176559657Y-128989057D01*
X176945371Y-128389057D02*
X176945371Y-128860485D01*
X176945371Y-128860485D02*
X176902514Y-128946200D01*
X176902514Y-128946200D02*
X176816799Y-128989057D01*
X176816799Y-128989057D02*
X176688228Y-128989057D01*
X176688228Y-128989057D02*
X176602514Y-128946200D01*
X176602514Y-128946200D02*
X176559657Y-128903342D01*
X175745371Y-128946200D02*
X175831085Y-128989057D01*
X175831085Y-128989057D02*
X176002513Y-128989057D01*
X176002513Y-128989057D02*
X176088228Y-128946200D01*
X176088228Y-128946200D02*
X176131085Y-128903342D01*
X176131085Y-128903342D02*
X176173942Y-128817628D01*
X176173942Y-128817628D02*
X176173942Y-128560485D01*
X176173942Y-128560485D02*
X176131085Y-128474771D01*
X176131085Y-128474771D02*
X176088228Y-128431914D01*
X176088228Y-128431914D02*
X176002513Y-128389057D01*
X176002513Y-128389057D02*
X175831085Y-128389057D01*
X175831085Y-128389057D02*
X175745371Y-128431914D01*
X174973942Y-128989057D02*
X174973942Y-128517628D01*
X174973942Y-128517628D02*
X175016799Y-128431914D01*
X175016799Y-128431914D02*
X175102513Y-128389057D01*
X175102513Y-128389057D02*
X175273942Y-128389057D01*
X175273942Y-128389057D02*
X175359656Y-128431914D01*
X174973942Y-128946200D02*
X175059656Y-128989057D01*
X175059656Y-128989057D02*
X175273942Y-128989057D01*
X175273942Y-128989057D02*
X175359656Y-128946200D01*
X175359656Y-128946200D02*
X175402513Y-128860485D01*
X175402513Y-128860485D02*
X175402513Y-128774771D01*
X175402513Y-128774771D02*
X175359656Y-128689057D01*
X175359656Y-128689057D02*
X175273942Y-128646200D01*
X175273942Y-128646200D02*
X175059656Y-128646200D01*
X175059656Y-128646200D02*
X174973942Y-128603342D01*
X174588227Y-128946200D02*
X174502513Y-128989057D01*
X174502513Y-128989057D02*
X174331084Y-128989057D01*
X174331084Y-128989057D02*
X174245370Y-128946200D01*
X174245370Y-128946200D02*
X174202513Y-128860485D01*
X174202513Y-128860485D02*
X174202513Y-128817628D01*
X174202513Y-128817628D02*
X174245370Y-128731914D01*
X174245370Y-128731914D02*
X174331084Y-128689057D01*
X174331084Y-128689057D02*
X174459656Y-128689057D01*
X174459656Y-128689057D02*
X174545370Y-128646200D01*
X174545370Y-128646200D02*
X174588227Y-128560485D01*
X174588227Y-128560485D02*
X174588227Y-128517628D01*
X174588227Y-128517628D02*
X174545370Y-128431914D01*
X174545370Y-128431914D02*
X174459656Y-128389057D01*
X174459656Y-128389057D02*
X174331084Y-128389057D01*
X174331084Y-128389057D02*
X174245370Y-128431914D01*
X173816799Y-128989057D02*
X173816799Y-128389057D01*
X173816799Y-128560485D02*
X173773942Y-128474771D01*
X173773942Y-128474771D02*
X173731085Y-128431914D01*
X173731085Y-128431914D02*
X173645370Y-128389057D01*
X173645370Y-128389057D02*
X173559656Y-128389057D01*
X172873942Y-128389057D02*
X172873942Y-129117628D01*
X172873942Y-129117628D02*
X172916799Y-129203342D01*
X172916799Y-129203342D02*
X172959656Y-129246200D01*
X172959656Y-129246200D02*
X173045370Y-129289057D01*
X173045370Y-129289057D02*
X173173942Y-129289057D01*
X173173942Y-129289057D02*
X173259656Y-129246200D01*
X172873942Y-128946200D02*
X172959656Y-128989057D01*
X172959656Y-128989057D02*
X173131084Y-128989057D01*
X173131084Y-128989057D02*
X173216799Y-128946200D01*
X173216799Y-128946200D02*
X173259656Y-128903342D01*
X173259656Y-128903342D02*
X173302513Y-128817628D01*
X173302513Y-128817628D02*
X173302513Y-128560485D01*
X173302513Y-128560485D02*
X173259656Y-128474771D01*
X173259656Y-128474771D02*
X173216799Y-128431914D01*
X173216799Y-128431914D02*
X173131084Y-128389057D01*
X173131084Y-128389057D02*
X172959656Y-128389057D01*
X172959656Y-128389057D02*
X172873942Y-128431914D01*
X172059656Y-128389057D02*
X172059656Y-128989057D01*
X172445370Y-128389057D02*
X172445370Y-128860485D01*
X172445370Y-128860485D02*
X172402513Y-128946200D01*
X172402513Y-128946200D02*
X172316798Y-128989057D01*
X172316798Y-128989057D02*
X172188227Y-128989057D01*
X172188227Y-128989057D02*
X172102513Y-128946200D01*
X172102513Y-128946200D02*
X172059656Y-128903342D01*
X171288227Y-128946200D02*
X171373941Y-128989057D01*
X171373941Y-128989057D02*
X171545370Y-128989057D01*
X171545370Y-128989057D02*
X171631084Y-128946200D01*
X171631084Y-128946200D02*
X171673941Y-128860485D01*
X171673941Y-128860485D02*
X171673941Y-128517628D01*
X171673941Y-128517628D02*
X171631084Y-128431914D01*
X171631084Y-128431914D02*
X171545370Y-128389057D01*
X171545370Y-128389057D02*
X171373941Y-128389057D01*
X171373941Y-128389057D02*
X171288227Y-128431914D01*
X171288227Y-128431914D02*
X171245370Y-128517628D01*
X171245370Y-128517628D02*
X171245370Y-128603342D01*
X171245370Y-128603342D02*
X171673941Y-128689057D01*
X170859655Y-128989057D02*
X170859655Y-128389057D01*
X170859655Y-128560485D02*
X170816798Y-128474771D01*
X170816798Y-128474771D02*
X170773941Y-128431914D01*
X170773941Y-128431914D02*
X170688226Y-128389057D01*
X170688226Y-128389057D02*
X170602512Y-128389057D01*
X170302512Y-128989057D02*
X170302512Y-128389057D01*
X170302512Y-128560485D02*
X170259655Y-128474771D01*
X170259655Y-128474771D02*
X170216798Y-128431914D01*
X170216798Y-128431914D02*
X170131083Y-128389057D01*
X170131083Y-128389057D02*
X170045369Y-128389057D01*
X169359655Y-128989057D02*
X169359655Y-128517628D01*
X169359655Y-128517628D02*
X169402512Y-128431914D01*
X169402512Y-128431914D02*
X169488226Y-128389057D01*
X169488226Y-128389057D02*
X169659655Y-128389057D01*
X169659655Y-128389057D02*
X169745369Y-128431914D01*
X169359655Y-128946200D02*
X169445369Y-128989057D01*
X169445369Y-128989057D02*
X169659655Y-128989057D01*
X169659655Y-128989057D02*
X169745369Y-128946200D01*
X169745369Y-128946200D02*
X169788226Y-128860485D01*
X169788226Y-128860485D02*
X169788226Y-128774771D01*
X169788226Y-128774771D02*
X169745369Y-128689057D01*
X169745369Y-128689057D02*
X169659655Y-128646200D01*
X169659655Y-128646200D02*
X169445369Y-128646200D01*
X169445369Y-128646200D02*
X169359655Y-128603342D01*
X181423942Y-129495200D02*
X182195370Y-130652342D01*
X181123942Y-129838057D02*
X181123942Y-130738057D01*
X181123942Y-129880914D02*
X181038228Y-129838057D01*
X181038228Y-129838057D02*
X180866799Y-129838057D01*
X180866799Y-129838057D02*
X180781085Y-129880914D01*
X180781085Y-129880914D02*
X180738228Y-129923771D01*
X180738228Y-129923771D02*
X180695370Y-130009485D01*
X180695370Y-130009485D02*
X180695370Y-130266628D01*
X180695370Y-130266628D02*
X180738228Y-130352342D01*
X180738228Y-130352342D02*
X180781085Y-130395200D01*
X180781085Y-130395200D02*
X180866799Y-130438057D01*
X180866799Y-130438057D02*
X181038228Y-130438057D01*
X181038228Y-130438057D02*
X181123942Y-130395200D01*
X180181084Y-130438057D02*
X180266799Y-130395200D01*
X180266799Y-130395200D02*
X180309656Y-130352342D01*
X180309656Y-130352342D02*
X180352513Y-130266628D01*
X180352513Y-130266628D02*
X180352513Y-130009485D01*
X180352513Y-130009485D02*
X180309656Y-129923771D01*
X180309656Y-129923771D02*
X180266799Y-129880914D01*
X180266799Y-129880914D02*
X180181084Y-129838057D01*
X180181084Y-129838057D02*
X180052513Y-129838057D01*
X180052513Y-129838057D02*
X179966799Y-129880914D01*
X179966799Y-129880914D02*
X179923942Y-129923771D01*
X179923942Y-129923771D02*
X179881084Y-130009485D01*
X179881084Y-130009485D02*
X179881084Y-130266628D01*
X179881084Y-130266628D02*
X179923942Y-130352342D01*
X179923942Y-130352342D02*
X179966799Y-130395200D01*
X179966799Y-130395200D02*
X180052513Y-130438057D01*
X180052513Y-130438057D02*
X180181084Y-130438057D01*
X179581084Y-129838057D02*
X179409656Y-130438057D01*
X179409656Y-130438057D02*
X179238227Y-130009485D01*
X179238227Y-130009485D02*
X179066798Y-130438057D01*
X179066798Y-130438057D02*
X178895370Y-129838057D01*
X178209656Y-130395200D02*
X178295370Y-130438057D01*
X178295370Y-130438057D02*
X178466799Y-130438057D01*
X178466799Y-130438057D02*
X178552513Y-130395200D01*
X178552513Y-130395200D02*
X178595370Y-130309485D01*
X178595370Y-130309485D02*
X178595370Y-129966628D01*
X178595370Y-129966628D02*
X178552513Y-129880914D01*
X178552513Y-129880914D02*
X178466799Y-129838057D01*
X178466799Y-129838057D02*
X178295370Y-129838057D01*
X178295370Y-129838057D02*
X178209656Y-129880914D01*
X178209656Y-129880914D02*
X178166799Y-129966628D01*
X178166799Y-129966628D02*
X178166799Y-130052342D01*
X178166799Y-130052342D02*
X178595370Y-130138057D01*
X177781084Y-130438057D02*
X177781084Y-129838057D01*
X177781084Y-130009485D02*
X177738227Y-129923771D01*
X177738227Y-129923771D02*
X177695370Y-129880914D01*
X177695370Y-129880914D02*
X177609655Y-129838057D01*
X177609655Y-129838057D02*
X177523941Y-129838057D01*
X177438227Y-130523771D02*
X176752512Y-130523771D01*
X176623941Y-129838057D02*
X176409655Y-130438057D01*
X176409655Y-130438057D02*
X176195370Y-129838057D01*
X175852513Y-130438057D02*
X175852513Y-129838057D01*
X175852513Y-129538057D02*
X175895370Y-129580914D01*
X175895370Y-129580914D02*
X175852513Y-129623771D01*
X175852513Y-129623771D02*
X175809656Y-129580914D01*
X175809656Y-129580914D02*
X175852513Y-129538057D01*
X175852513Y-129538057D02*
X175852513Y-129623771D01*
X175466799Y-130395200D02*
X175381085Y-130438057D01*
X175381085Y-130438057D02*
X175209656Y-130438057D01*
X175209656Y-130438057D02*
X175123942Y-130395200D01*
X175123942Y-130395200D02*
X175081085Y-130309485D01*
X175081085Y-130309485D02*
X175081085Y-130266628D01*
X175081085Y-130266628D02*
X175123942Y-130180914D01*
X175123942Y-130180914D02*
X175209656Y-130138057D01*
X175209656Y-130138057D02*
X175338228Y-130138057D01*
X175338228Y-130138057D02*
X175423942Y-130095200D01*
X175423942Y-130095200D02*
X175466799Y-130009485D01*
X175466799Y-130009485D02*
X175466799Y-129966628D01*
X175466799Y-129966628D02*
X175423942Y-129880914D01*
X175423942Y-129880914D02*
X175338228Y-129838057D01*
X175338228Y-129838057D02*
X175209656Y-129838057D01*
X175209656Y-129838057D02*
X175123942Y-129880914D01*
X174695371Y-130438057D02*
X174695371Y-129838057D01*
X174695371Y-129538057D02*
X174738228Y-129580914D01*
X174738228Y-129580914D02*
X174695371Y-129623771D01*
X174695371Y-129623771D02*
X174652514Y-129580914D01*
X174652514Y-129580914D02*
X174695371Y-129538057D01*
X174695371Y-129538057D02*
X174695371Y-129623771D01*
X174138228Y-130438057D02*
X174223943Y-130395200D01*
X174223943Y-130395200D02*
X174266800Y-130352342D01*
X174266800Y-130352342D02*
X174309657Y-130266628D01*
X174309657Y-130266628D02*
X174309657Y-130009485D01*
X174309657Y-130009485D02*
X174266800Y-129923771D01*
X174266800Y-129923771D02*
X174223943Y-129880914D01*
X174223943Y-129880914D02*
X174138228Y-129838057D01*
X174138228Y-129838057D02*
X174009657Y-129838057D01*
X174009657Y-129838057D02*
X173923943Y-129880914D01*
X173923943Y-129880914D02*
X173881086Y-129923771D01*
X173881086Y-129923771D02*
X173838228Y-130009485D01*
X173838228Y-130009485D02*
X173838228Y-130266628D01*
X173838228Y-130266628D02*
X173881086Y-130352342D01*
X173881086Y-130352342D02*
X173923943Y-130395200D01*
X173923943Y-130395200D02*
X174009657Y-130438057D01*
X174009657Y-130438057D02*
X174138228Y-130438057D01*
X173452514Y-129838057D02*
X173452514Y-130438057D01*
X173452514Y-129923771D02*
X173409657Y-129880914D01*
X173409657Y-129880914D02*
X173323942Y-129838057D01*
X173323942Y-129838057D02*
X173195371Y-129838057D01*
X173195371Y-129838057D02*
X173109657Y-129880914D01*
X173109657Y-129880914D02*
X173066800Y-129966628D01*
X173066800Y-129966628D02*
X173066800Y-130438057D01*
%TO.C,G\u002A\u002A\u002A*%
G36*
X178142845Y-123325731D02*
G01*
X178138345Y-123330231D01*
X178133844Y-123325731D01*
X178138345Y-123321231D01*
X178142845Y-123325731D01*
G37*
G36*
X174999946Y-115218762D02*
G01*
X175008685Y-115239518D01*
X175023232Y-115274852D01*
X175043094Y-115323544D01*
X175067779Y-115384375D01*
X175096794Y-115456125D01*
X175129645Y-115537576D01*
X175165841Y-115627509D01*
X175204887Y-115724704D01*
X175246292Y-115827942D01*
X175289562Y-115936004D01*
X175576654Y-116653542D01*
X175543396Y-116666686D01*
X175537251Y-116669145D01*
X175511679Y-116679583D01*
X175475004Y-116694715D01*
X175431171Y-116712911D01*
X175384128Y-116732538D01*
X175362230Y-116741621D01*
X175319340Y-116758950D01*
X175283178Y-116772953D01*
X175257017Y-116782380D01*
X175244133Y-116785981D01*
X175244119Y-116785982D01*
X175239550Y-116781316D01*
X175231310Y-116766665D01*
X175219113Y-116741349D01*
X175202674Y-116704689D01*
X175181707Y-116656006D01*
X175155928Y-116594621D01*
X175125051Y-116519854D01*
X175088791Y-116431026D01*
X175046862Y-116327458D01*
X174998980Y-116208471D01*
X174944859Y-116073385D01*
X174913635Y-115995256D01*
X174871927Y-115890705D01*
X174832545Y-115791772D01*
X174795975Y-115699687D01*
X174762704Y-115615684D01*
X174733217Y-115540995D01*
X174708001Y-115476852D01*
X174687542Y-115424487D01*
X174672327Y-115385132D01*
X174662841Y-115360021D01*
X174659571Y-115350384D01*
X174665168Y-115345790D01*
X174684835Y-115335551D01*
X174715723Y-115321323D01*
X174754754Y-115304353D01*
X174798851Y-115285887D01*
X174844937Y-115267172D01*
X174889935Y-115249454D01*
X174930767Y-115233980D01*
X174964356Y-115221997D01*
X174987624Y-115214751D01*
X174997494Y-115213489D01*
X174999946Y-115218762D01*
G37*
G36*
X172879248Y-116431142D02*
G01*
X172892713Y-116445097D01*
X172916195Y-116470804D01*
X172948656Y-116507061D01*
X172989056Y-116552667D01*
X173036358Y-116606420D01*
X173089522Y-116667118D01*
X173147510Y-116733558D01*
X173209284Y-116804539D01*
X173273805Y-116878859D01*
X173340034Y-116955316D01*
X173406933Y-117032709D01*
X173473464Y-117109834D01*
X173538587Y-117185490D01*
X173601265Y-117258476D01*
X173660458Y-117327589D01*
X173715128Y-117391628D01*
X173764237Y-117449389D01*
X173806746Y-117499673D01*
X173841616Y-117541276D01*
X173867809Y-117572997D01*
X173884287Y-117593633D01*
X173890010Y-117601983D01*
X173889985Y-117602240D01*
X173882696Y-117612249D01*
X173863887Y-117631721D01*
X173835675Y-117658633D01*
X173800174Y-117690965D01*
X173759500Y-117726694D01*
X173756552Y-117729239D01*
X173715877Y-117764068D01*
X173679938Y-117794340D01*
X173650940Y-117818233D01*
X173631092Y-117833929D01*
X173622599Y-117839607D01*
X173621599Y-117838890D01*
X173611099Y-117828082D01*
X173590156Y-117805165D01*
X173559770Y-117771274D01*
X173520944Y-117727544D01*
X173474680Y-117675109D01*
X173421980Y-117615104D01*
X173363845Y-117548663D01*
X173301278Y-117476922D01*
X173235281Y-117401014D01*
X173201629Y-117362251D01*
X173105219Y-117251180D01*
X173019754Y-117152688D01*
X172944583Y-117066015D01*
X172879054Y-116990402D01*
X172822515Y-116925086D01*
X172774314Y-116869309D01*
X172733799Y-116822309D01*
X172700317Y-116783326D01*
X172673216Y-116751600D01*
X172651844Y-116726369D01*
X172635550Y-116706874D01*
X172623680Y-116692354D01*
X172615583Y-116682048D01*
X172610607Y-116675197D01*
X172608100Y-116671039D01*
X172607409Y-116668814D01*
X172609802Y-116665583D01*
X172623206Y-116652105D01*
X172646217Y-116630421D01*
X172676337Y-116602761D01*
X172711067Y-116571351D01*
X172747910Y-116538420D01*
X172784368Y-116506196D01*
X172817944Y-116476905D01*
X172846139Y-116452776D01*
X172866455Y-116436037D01*
X172876395Y-116428915D01*
X172879248Y-116431142D01*
G37*
G36*
X178212455Y-121415330D02*
G01*
X178428620Y-122020628D01*
X178129751Y-122025128D01*
X177830882Y-122029629D01*
X177982143Y-122664179D01*
X178003920Y-122755613D01*
X178027588Y-122855177D01*
X178049712Y-122948444D01*
X178069962Y-123034012D01*
X178088008Y-123110481D01*
X178103520Y-123176448D01*
X178116168Y-123230514D01*
X178125621Y-123271275D01*
X178131550Y-123297331D01*
X178133624Y-123307279D01*
X178132932Y-123310708D01*
X178125758Y-123307279D01*
X178123066Y-123303560D01*
X178111155Y-123286085D01*
X178090534Y-123255403D01*
X178061947Y-123212633D01*
X178026137Y-123158892D01*
X177983848Y-123095299D01*
X177935822Y-123022971D01*
X177882804Y-122943028D01*
X177825535Y-122856586D01*
X177764760Y-122764763D01*
X177701222Y-122668679D01*
X177688341Y-122649191D01*
X177620090Y-122545935D01*
X177551542Y-122442230D01*
X177483833Y-122339795D01*
X177418098Y-122240347D01*
X177355473Y-122145606D01*
X177297095Y-122057289D01*
X177244098Y-121977116D01*
X177197620Y-121906805D01*
X177158796Y-121848074D01*
X177128763Y-121802642D01*
X177109133Y-121772911D01*
X177072423Y-121717096D01*
X177039718Y-121667087D01*
X177012207Y-121624723D01*
X176991082Y-121591840D01*
X176977534Y-121570278D01*
X176972753Y-121561873D01*
X176981051Y-121560625D01*
X177005049Y-121559478D01*
X177042412Y-121558504D01*
X177090797Y-121557751D01*
X177147864Y-121557264D01*
X177211272Y-121557092D01*
X177273542Y-121556925D01*
X177330749Y-121556442D01*
X177379319Y-121555690D01*
X177416909Y-121554716D01*
X177441180Y-121553568D01*
X177449791Y-121552292D01*
X177449383Y-121550193D01*
X177446086Y-121541778D01*
X177438982Y-121526641D01*
X177427476Y-121503645D01*
X177410973Y-121471649D01*
X177388876Y-121429517D01*
X177360592Y-121376107D01*
X177325525Y-121310283D01*
X177283080Y-121230905D01*
X177232662Y-121136834D01*
X177220064Y-121113333D01*
X177183761Y-121045453D01*
X177150559Y-120983139D01*
X177121365Y-120928106D01*
X177097083Y-120882067D01*
X177078618Y-120846737D01*
X177066875Y-120823829D01*
X177062760Y-120815059D01*
X177063960Y-120814698D01*
X177078871Y-120813752D01*
X177109496Y-120812873D01*
X177154161Y-120812080D01*
X177211194Y-120811391D01*
X177278919Y-120810824D01*
X177355666Y-120810396D01*
X177439759Y-120810127D01*
X177529526Y-120810033D01*
X177996291Y-120810033D01*
X178212455Y-121415330D01*
G37*
G36*
X183773127Y-118384342D02*
G01*
X183756010Y-118501665D01*
X183723012Y-118617258D01*
X183675512Y-118724356D01*
X183614443Y-118821866D01*
X183540739Y-118908698D01*
X183455333Y-118983757D01*
X183359158Y-119045951D01*
X183253149Y-119094189D01*
X183138238Y-119127377D01*
X183079288Y-119137541D01*
X182962248Y-119144454D01*
X182845317Y-119134615D01*
X182730805Y-119108633D01*
X182621021Y-119067112D01*
X182518276Y-119010662D01*
X182424880Y-118939888D01*
X182363930Y-118880666D01*
X182287949Y-118787434D01*
X182226766Y-118686895D01*
X182180570Y-118580662D01*
X182149551Y-118470345D01*
X182133897Y-118357557D01*
X182133848Y-118301712D01*
X182479734Y-118301712D01*
X182480967Y-118386584D01*
X182498860Y-118472010D01*
X182521344Y-118528205D01*
X182564689Y-118599508D01*
X182620321Y-118662854D01*
X182685259Y-118715001D01*
X182756529Y-118752704D01*
X182828884Y-118774326D01*
X182912267Y-118785199D01*
X182995846Y-118782890D01*
X183045628Y-118774412D01*
X183129968Y-118746562D01*
X183207923Y-118703825D01*
X183277399Y-118648018D01*
X183336300Y-118580958D01*
X183382531Y-118504461D01*
X183413996Y-118420345D01*
X183415032Y-118416277D01*
X183421979Y-118373632D01*
X183425303Y-118322277D01*
X183425014Y-118268798D01*
X183421123Y-118219785D01*
X183413640Y-118181826D01*
X183390406Y-118119946D01*
X183345730Y-118040922D01*
X183288816Y-117974168D01*
X183220951Y-117920638D01*
X183143424Y-117881285D01*
X183057521Y-117857065D01*
X182964532Y-117848933D01*
X182913226Y-117851857D01*
X182828097Y-117869540D01*
X182749202Y-117901724D01*
X182677845Y-117946666D01*
X182615329Y-118002621D01*
X182562957Y-118067847D01*
X182522032Y-118140600D01*
X182493856Y-118219136D01*
X182479734Y-118301712D01*
X182133848Y-118301712D01*
X182133797Y-118243909D01*
X182149440Y-118131014D01*
X182181016Y-118020481D01*
X182228713Y-117913925D01*
X182292720Y-117812955D01*
X182347340Y-117746949D01*
X182433393Y-117666888D01*
X182530941Y-117600247D01*
X182639090Y-117547612D01*
X182756943Y-117509568D01*
X182799924Y-117501518D01*
X182865035Y-117495417D01*
X182936856Y-117493736D01*
X183009420Y-117496398D01*
X183076761Y-117503327D01*
X183132914Y-117514444D01*
X183155616Y-117520836D01*
X183260750Y-117557732D01*
X183354124Y-117604337D01*
X183439779Y-117662951D01*
X183521756Y-117735875D01*
X183538230Y-117752681D01*
X183613895Y-117843855D01*
X183676118Y-117943674D01*
X183724027Y-118049886D01*
X183756747Y-118160238D01*
X183773405Y-118272474D01*
X183773281Y-118322277D01*
X183773127Y-118384342D01*
G37*
G36*
X173184343Y-118051316D02*
G01*
X173183318Y-118114004D01*
X173179335Y-118170346D01*
X173171358Y-118221214D01*
X173158353Y-118273052D01*
X173139286Y-118332305D01*
X173094789Y-118436839D01*
X173033638Y-118537802D01*
X172959090Y-118628814D01*
X172872636Y-118708685D01*
X172775764Y-118776226D01*
X172669963Y-118830247D01*
X172556723Y-118869558D01*
X172437532Y-118892969D01*
X172332519Y-118898011D01*
X172220676Y-118887442D01*
X172110033Y-118861566D01*
X172004231Y-118821244D01*
X171906911Y-118767339D01*
X171820907Y-118702245D01*
X171740076Y-118621200D01*
X171672993Y-118531271D01*
X171619802Y-118434054D01*
X171580651Y-118331149D01*
X171555685Y-118224151D01*
X171545050Y-118114659D01*
X171546927Y-118060764D01*
X171890506Y-118060764D01*
X171899703Y-118143949D01*
X171923305Y-118224245D01*
X171960554Y-118299743D01*
X172010690Y-118368528D01*
X172072954Y-118428689D01*
X172146588Y-118478314D01*
X172230832Y-118515490D01*
X172257092Y-118522987D01*
X172310562Y-118532776D01*
X172368218Y-118538098D01*
X172423012Y-118538426D01*
X172467898Y-118533231D01*
X172515078Y-118520966D01*
X172600392Y-118486214D01*
X172674076Y-118437856D01*
X172735864Y-118376088D01*
X172785488Y-118301104D01*
X172787183Y-118297895D01*
X172820929Y-118215085D01*
X172837773Y-118129898D01*
X172838250Y-118044273D01*
X172822893Y-117960150D01*
X172792237Y-117879469D01*
X172746816Y-117804171D01*
X172687164Y-117736196D01*
X172613815Y-117677483D01*
X172605462Y-117672054D01*
X172529140Y-117633951D01*
X172445803Y-117610441D01*
X172358727Y-117601610D01*
X172271185Y-117607544D01*
X172186455Y-117628332D01*
X172107809Y-117664058D01*
X172089195Y-117676331D01*
X172051754Y-117706957D01*
X172013146Y-117744365D01*
X171978764Y-117783162D01*
X171953996Y-117817956D01*
X171918364Y-117893381D01*
X171896474Y-117976604D01*
X171890506Y-118060764D01*
X171546927Y-118060764D01*
X171548894Y-118004270D01*
X171567363Y-117894582D01*
X171600601Y-117787193D01*
X171648757Y-117683699D01*
X171711976Y-117585699D01*
X171790404Y-117494790D01*
X171798926Y-117486284D01*
X171874604Y-117419003D01*
X171953969Y-117364143D01*
X172041644Y-117318887D01*
X172142254Y-117280417D01*
X172173160Y-117270662D01*
X172209332Y-117261337D01*
X172245899Y-117255100D01*
X172288729Y-117251010D01*
X172343690Y-117248126D01*
X172384806Y-117247084D01*
X172488116Y-117251510D01*
X172582140Y-117267245D01*
X172670972Y-117295154D01*
X172758708Y-117336108D01*
X172798680Y-117359038D01*
X172897001Y-117428998D01*
X172982036Y-117510489D01*
X173053111Y-117602381D01*
X173109552Y-117703541D01*
X173150688Y-117812839D01*
X173175842Y-117929141D01*
X173183853Y-118044273D01*
X173184343Y-118051316D01*
G37*
G36*
X176817563Y-114750192D02*
G01*
X176814969Y-114768013D01*
X176809539Y-114801251D01*
X176801545Y-114848400D01*
X176791257Y-114907955D01*
X176778948Y-114978413D01*
X176764887Y-115058268D01*
X176749347Y-115146016D01*
X176732598Y-115240153D01*
X176714912Y-115339174D01*
X176696559Y-115441573D01*
X176677810Y-115545848D01*
X176658938Y-115650493D01*
X176640213Y-115754003D01*
X176621905Y-115854875D01*
X176604287Y-115951603D01*
X176587629Y-116042683D01*
X176572202Y-116126611D01*
X176558279Y-116201881D01*
X176546128Y-116266989D01*
X176536023Y-116320432D01*
X176528234Y-116360703D01*
X176523032Y-116386299D01*
X176520688Y-116395715D01*
X176516763Y-116397300D01*
X176497899Y-116402496D01*
X176466356Y-116410201D01*
X176425241Y-116419668D01*
X176377660Y-116430150D01*
X176348905Y-116436203D01*
X176304545Y-116444902D01*
X176268307Y-116451200D01*
X176243336Y-116454571D01*
X176232775Y-116454485D01*
X176230537Y-116451854D01*
X176219025Y-116435994D01*
X176199010Y-116407207D01*
X176171334Y-116366760D01*
X176136839Y-116315919D01*
X176096369Y-116255953D01*
X176050764Y-116188127D01*
X176000868Y-116113710D01*
X175947523Y-116033968D01*
X175891571Y-115950169D01*
X175833854Y-115863579D01*
X175775215Y-115775467D01*
X175716496Y-115687098D01*
X175658539Y-115599741D01*
X175602186Y-115514661D01*
X175548281Y-115433128D01*
X175497665Y-115356407D01*
X175451180Y-115285765D01*
X175409668Y-115222471D01*
X175373973Y-115167791D01*
X175344937Y-115122992D01*
X175323401Y-115089341D01*
X175310208Y-115068106D01*
X175306200Y-115060554D01*
X175308057Y-115060059D01*
X175324305Y-115056352D01*
X175354548Y-115049736D01*
X175396085Y-115040794D01*
X175446213Y-115030108D01*
X175502229Y-115018262D01*
X175558464Y-115006609D01*
X175611299Y-114996287D01*
X175650057Y-114989674D01*
X175676607Y-114986500D01*
X175692815Y-114986490D01*
X175700549Y-114989374D01*
X175702852Y-114992420D01*
X175714199Y-115009087D01*
X175733842Y-115038751D01*
X175760850Y-115079981D01*
X175794296Y-115131349D01*
X175833248Y-115191425D01*
X175876777Y-115258780D01*
X175923954Y-115331984D01*
X175973849Y-115409608D01*
X176031811Y-115499845D01*
X176083532Y-115580212D01*
X176126960Y-115647456D01*
X176162805Y-115702626D01*
X176191777Y-115746771D01*
X176214583Y-115780939D01*
X176231935Y-115806179D01*
X176244541Y-115823541D01*
X176253111Y-115834073D01*
X176258354Y-115838824D01*
X176260979Y-115838842D01*
X176261697Y-115835177D01*
X176261789Y-115834019D01*
X176263877Y-115819053D01*
X176268476Y-115788951D01*
X176275270Y-115745647D01*
X176283945Y-115691079D01*
X176294184Y-115627182D01*
X176305672Y-115555891D01*
X176318092Y-115479143D01*
X176331128Y-115398873D01*
X176344466Y-115317018D01*
X176357789Y-115235514D01*
X176370781Y-115156295D01*
X176383127Y-115081299D01*
X176394510Y-115012460D01*
X176404616Y-114951715D01*
X176413127Y-114901000D01*
X176419729Y-114862251D01*
X176424105Y-114837403D01*
X176425940Y-114828393D01*
X176427711Y-114827633D01*
X176443195Y-114823532D01*
X176471924Y-114816885D01*
X176510814Y-114808328D01*
X176556781Y-114798498D01*
X176606743Y-114788031D01*
X176657615Y-114777565D01*
X176706313Y-114767735D01*
X176749754Y-114759179D01*
X176784855Y-114752532D01*
X176808532Y-114748432D01*
X176817700Y-114747515D01*
X176817563Y-114750192D01*
G37*
G36*
X174179227Y-115701295D02*
G01*
X174262525Y-115729052D01*
X174339867Y-115773686D01*
X174411353Y-115835209D01*
X174428713Y-115853642D01*
X174483588Y-115925586D01*
X174520686Y-116000232D01*
X174539985Y-116077449D01*
X174541463Y-116157101D01*
X174525099Y-116239056D01*
X174490871Y-116323180D01*
X174480590Y-116342706D01*
X174456246Y-116383588D01*
X174427130Y-116425218D01*
X174391449Y-116469770D01*
X174347406Y-116519418D01*
X174293207Y-116576338D01*
X174227054Y-116642705D01*
X174174549Y-116695076D01*
X174132722Y-116738419D01*
X174101569Y-116773387D01*
X174079788Y-116801909D01*
X174066082Y-116825914D01*
X174059150Y-116847332D01*
X174057693Y-116868092D01*
X174060411Y-116890123D01*
X174060875Y-116892334D01*
X174074221Y-116920828D01*
X174097792Y-116947793D01*
X174126085Y-116968116D01*
X174153594Y-116976685D01*
X174213544Y-116973012D01*
X174287646Y-116953141D01*
X174361932Y-116917220D01*
X174434632Y-116866136D01*
X174503978Y-116800779D01*
X174549177Y-116748700D01*
X174592051Y-116688008D01*
X174625965Y-116623374D01*
X174654828Y-116548258D01*
X174682886Y-116464468D01*
X174821991Y-116540562D01*
X174860508Y-116561784D01*
X174901983Y-116585009D01*
X174935857Y-116604397D01*
X174959387Y-116618372D01*
X174969826Y-116625360D01*
X174972767Y-116632466D01*
X174970686Y-116654983D01*
X174960781Y-116688347D01*
X174944316Y-116729892D01*
X174922556Y-116776953D01*
X174896762Y-116826865D01*
X174868199Y-116876963D01*
X174838131Y-116924581D01*
X174807821Y-116967054D01*
X174756298Y-117027273D01*
X174675101Y-117103440D01*
X174583864Y-117171544D01*
X174486215Y-117229243D01*
X174385783Y-117274192D01*
X174286195Y-117304048D01*
X174264862Y-117308062D01*
X174207655Y-117314400D01*
X174145618Y-117316511D01*
X174086166Y-117314287D01*
X174036715Y-117307624D01*
X173972647Y-117288262D01*
X173897128Y-117249570D01*
X173829024Y-117196584D01*
X173770693Y-117131210D01*
X173724492Y-117055351D01*
X173698773Y-116995905D01*
X173680226Y-116929544D01*
X173675169Y-116866167D01*
X173682936Y-116801704D01*
X173684186Y-116795877D01*
X173696740Y-116747715D01*
X173713403Y-116702074D01*
X173735544Y-116656926D01*
X173764534Y-116610244D01*
X173801745Y-116560000D01*
X173848548Y-116504165D01*
X173906312Y-116440714D01*
X173976410Y-116367617D01*
X174001928Y-116341284D01*
X174043224Y-116297834D01*
X174079756Y-116258367D01*
X174109541Y-116225077D01*
X174130593Y-116200156D01*
X174140928Y-116185799D01*
X174146678Y-116172819D01*
X174154307Y-116133051D01*
X174148968Y-116094617D01*
X174131844Y-116062185D01*
X174104116Y-116040424D01*
X174089242Y-116035373D01*
X174048927Y-116031084D01*
X174001627Y-116035332D01*
X173953210Y-116047829D01*
X173915493Y-116064409D01*
X173864488Y-116093896D01*
X173811826Y-116130466D01*
X173762800Y-116170397D01*
X173722700Y-116209967D01*
X173713103Y-116221460D01*
X173690096Y-116253091D01*
X173666122Y-116290401D01*
X173643478Y-116329332D01*
X173624459Y-116365828D01*
X173611364Y-116395829D01*
X173606488Y-116415279D01*
X173603903Y-116422887D01*
X173589999Y-116424475D01*
X173582805Y-116421918D01*
X173560056Y-116411084D01*
X173528492Y-116394114D01*
X173491182Y-116372871D01*
X173451192Y-116349213D01*
X173411593Y-116325002D01*
X173375452Y-116302098D01*
X173345838Y-116282362D01*
X173325820Y-116267654D01*
X173318465Y-116259835D01*
X173320287Y-116249625D01*
X173327123Y-116226200D01*
X173337294Y-116197024D01*
X173343819Y-116180776D01*
X173380792Y-116111146D01*
X173431660Y-116039925D01*
X173493660Y-115969776D01*
X173564030Y-115903362D01*
X173640008Y-115843345D01*
X173718831Y-115792389D01*
X173797737Y-115753157D01*
X173892621Y-115719146D01*
X173994374Y-115696355D01*
X174089877Y-115690400D01*
X174179227Y-115701295D01*
G37*
G36*
X184604363Y-119886748D02*
G01*
X184625156Y-119943052D01*
X184642794Y-119991485D01*
X184656435Y-120029819D01*
X184665238Y-120055829D01*
X184668359Y-120067287D01*
X184667560Y-120069469D01*
X184664513Y-120072316D01*
X184658304Y-120076149D01*
X184648020Y-120081323D01*
X184632746Y-120088192D01*
X184611570Y-120097109D01*
X184583577Y-120108429D01*
X184547855Y-120122504D01*
X184503490Y-120139689D01*
X184449568Y-120160338D01*
X184385175Y-120184804D01*
X184309399Y-120213442D01*
X184221325Y-120246605D01*
X184120040Y-120284646D01*
X184004631Y-120327921D01*
X183874184Y-120376782D01*
X183727785Y-120431584D01*
X183639356Y-120464654D01*
X183553643Y-120496661D01*
X183474431Y-120526191D01*
X183403198Y-120552696D01*
X183341424Y-120575626D01*
X183290589Y-120594433D01*
X183252172Y-120608567D01*
X183227651Y-120617479D01*
X183218507Y-120620621D01*
X183217620Y-120619586D01*
X183211406Y-120606425D01*
X183200608Y-120580579D01*
X183186412Y-120545144D01*
X183170004Y-120503219D01*
X183152571Y-120457902D01*
X183135297Y-120412292D01*
X183119369Y-120369486D01*
X183105973Y-120332584D01*
X183096295Y-120304683D01*
X183091521Y-120288882D01*
X183094519Y-120284100D01*
X183109761Y-120274536D01*
X183138600Y-120260712D01*
X183181898Y-120242248D01*
X183240519Y-120218763D01*
X183315324Y-120189874D01*
X183316077Y-120189587D01*
X183376151Y-120166559D01*
X183430590Y-120145465D01*
X183477152Y-120127189D01*
X183513597Y-120112620D01*
X183537685Y-120102643D01*
X183547175Y-120098145D01*
X183547379Y-120097486D01*
X183544768Y-120084825D01*
X183536710Y-120058500D01*
X183524083Y-120021122D01*
X183507761Y-119975301D01*
X183488619Y-119923645D01*
X183463161Y-119854762D01*
X183437800Y-119781074D01*
X183419267Y-119718922D01*
X183407102Y-119665661D01*
X183402941Y-119634397D01*
X183759087Y-119634397D01*
X183761327Y-119670129D01*
X183770330Y-119712827D01*
X183786380Y-119765604D01*
X183809762Y-119831578D01*
X183821213Y-119862389D01*
X183837514Y-119905361D01*
X183851198Y-119940367D01*
X183861091Y-119964422D01*
X183866016Y-119974540D01*
X183873191Y-119973785D01*
X183894623Y-119967841D01*
X183927194Y-119957479D01*
X183967845Y-119943794D01*
X184013513Y-119927884D01*
X184061138Y-119910845D01*
X184107660Y-119893776D01*
X184150017Y-119877773D01*
X184185150Y-119863932D01*
X184209996Y-119853351D01*
X184221496Y-119847128D01*
X184221840Y-119842801D01*
X184217795Y-119824172D01*
X184208995Y-119794195D01*
X184196620Y-119756234D01*
X184181849Y-119713654D01*
X184165863Y-119669822D01*
X184149841Y-119628103D01*
X184134963Y-119591862D01*
X184122409Y-119564465D01*
X184114331Y-119550350D01*
X184088389Y-119516110D01*
X184057364Y-119485001D01*
X184027505Y-119463659D01*
X183998273Y-119453744D01*
X183952814Y-119450746D01*
X183903784Y-119458242D01*
X183857073Y-119475812D01*
X183853712Y-119477560D01*
X183823495Y-119496198D01*
X183802651Y-119517755D01*
X183784039Y-119549431D01*
X183773762Y-119571365D01*
X183763327Y-119602513D01*
X183759087Y-119634397D01*
X183402941Y-119634397D01*
X183400845Y-119618645D01*
X183400035Y-119575230D01*
X183404213Y-119532771D01*
X183412918Y-119488623D01*
X183420328Y-119460791D01*
X183455072Y-119374383D01*
X183504881Y-119296206D01*
X183568477Y-119227483D01*
X183644580Y-119169440D01*
X183731911Y-119123299D01*
X183829191Y-119090284D01*
X183884881Y-119079041D01*
X183976583Y-119073960D01*
X184064403Y-119085922D01*
X184147324Y-119114413D01*
X184224333Y-119158921D01*
X184294413Y-119218934D01*
X184356549Y-119293938D01*
X184409727Y-119383420D01*
X184414196Y-119393162D01*
X184425491Y-119420117D01*
X184441208Y-119459239D01*
X184460508Y-119508302D01*
X184482547Y-119565079D01*
X184506483Y-119627344D01*
X184531475Y-119692869D01*
X184556680Y-119759430D01*
X184581257Y-119824798D01*
X184587972Y-119842801D01*
X184604363Y-119886748D01*
G37*
G36*
X170995956Y-118707518D02*
G01*
X171015187Y-118714855D01*
X171048609Y-118727917D01*
X171094752Y-118746116D01*
X171152149Y-118768863D01*
X171219330Y-118795568D01*
X171294827Y-118825644D01*
X171377171Y-118858501D01*
X171464892Y-118893551D01*
X171556524Y-118930205D01*
X171650595Y-118967873D01*
X171745639Y-119005968D01*
X171840185Y-119043900D01*
X171932766Y-119081081D01*
X172021912Y-119116922D01*
X172106154Y-119150833D01*
X172184025Y-119182228D01*
X172254055Y-119210515D01*
X172314775Y-119235107D01*
X172364717Y-119255415D01*
X172402411Y-119270851D01*
X172426390Y-119280824D01*
X172435183Y-119284748D01*
X172434127Y-119292096D01*
X172427240Y-119313363D01*
X172415480Y-119345402D01*
X172400105Y-119385147D01*
X172382372Y-119429536D01*
X172363540Y-119475504D01*
X172344864Y-119519986D01*
X172327604Y-119559917D01*
X172313015Y-119592235D01*
X172302356Y-119613874D01*
X172296885Y-119621770D01*
X172295021Y-119621293D01*
X172279230Y-119615665D01*
X172248925Y-119604194D01*
X172205697Y-119587502D01*
X172151135Y-119566211D01*
X172086829Y-119540942D01*
X172014370Y-119512318D01*
X171935347Y-119480961D01*
X171851350Y-119447492D01*
X171817888Y-119434141D01*
X171735995Y-119401547D01*
X171659895Y-119371372D01*
X171591147Y-119344226D01*
X171531312Y-119320722D01*
X171481949Y-119301470D01*
X171444616Y-119287081D01*
X171420874Y-119278168D01*
X171412281Y-119275341D01*
X171412353Y-119275656D01*
X171418197Y-119286045D01*
X171432680Y-119310138D01*
X171454998Y-119346638D01*
X171484347Y-119394246D01*
X171519924Y-119451665D01*
X171560924Y-119517596D01*
X171606544Y-119590741D01*
X171655979Y-119669803D01*
X171708426Y-119753484D01*
X171715017Y-119763989D01*
X171767830Y-119848180D01*
X171818046Y-119928270D01*
X171864794Y-120002865D01*
X171907202Y-120070572D01*
X171944398Y-120129999D01*
X171975510Y-120179753D01*
X171999666Y-120218440D01*
X172015994Y-120244667D01*
X172023622Y-120257042D01*
X172040139Y-120284596D01*
X171980742Y-120432555D01*
X171964510Y-120473025D01*
X171946068Y-120519092D01*
X171930523Y-120558020D01*
X171919147Y-120586622D01*
X171913214Y-120601708D01*
X171912472Y-120603580D01*
X171901885Y-120617674D01*
X171884092Y-120617633D01*
X171882952Y-120617299D01*
X171867713Y-120611775D01*
X171837821Y-120600308D01*
X171794770Y-120583500D01*
X171740056Y-120561949D01*
X171675171Y-120536256D01*
X171601610Y-120507021D01*
X171520867Y-120474844D01*
X171434436Y-120440325D01*
X171343812Y-120404064D01*
X171250488Y-120366662D01*
X171155959Y-120328719D01*
X171061718Y-120290834D01*
X170969260Y-120253608D01*
X170880080Y-120217640D01*
X170795670Y-120183532D01*
X170717526Y-120151882D01*
X170647141Y-120123292D01*
X170586010Y-120098361D01*
X170535626Y-120077689D01*
X170497484Y-120061877D01*
X170473079Y-120051524D01*
X170463903Y-120047230D01*
X170463607Y-120046440D01*
X170466091Y-120033322D01*
X170474399Y-120006730D01*
X170487620Y-119969269D01*
X170504842Y-119923545D01*
X170525153Y-119872163D01*
X170593158Y-119703855D01*
X170630457Y-119718591D01*
X170630789Y-119718722D01*
X170647143Y-119725255D01*
X170678318Y-119737766D01*
X170722516Y-119755533D01*
X170777938Y-119777830D01*
X170842785Y-119803935D01*
X170915258Y-119833122D01*
X170993558Y-119864669D01*
X171075887Y-119897851D01*
X171087490Y-119902524D01*
X171167343Y-119934483D01*
X171241533Y-119963824D01*
X171308487Y-119989949D01*
X171366633Y-120012262D01*
X171414401Y-120030163D01*
X171450217Y-120043056D01*
X171472510Y-120050342D01*
X171479708Y-120051424D01*
X171478874Y-120049844D01*
X171470341Y-120035513D01*
X171453339Y-120007685D01*
X171428676Y-119967663D01*
X171397162Y-119916751D01*
X171359606Y-119856252D01*
X171316815Y-119787470D01*
X171269601Y-119711709D01*
X171218770Y-119630273D01*
X171165133Y-119544465D01*
X170854867Y-119048459D01*
X170922504Y-118878413D01*
X170927386Y-118866144D01*
X170947439Y-118815844D01*
X170964915Y-118772161D01*
X170978798Y-118737625D01*
X170988073Y-118714764D01*
X170991723Y-118706105D01*
X170995956Y-118707518D01*
G37*
G36*
X179652389Y-115036774D02*
G01*
X179761185Y-115075227D01*
X179886305Y-115119496D01*
X179996171Y-115158443D01*
X180091753Y-115192432D01*
X180174023Y-115221826D01*
X180243952Y-115246989D01*
X180302511Y-115268286D01*
X180350671Y-115286078D01*
X180389404Y-115300730D01*
X180419680Y-115312606D01*
X180442471Y-115322069D01*
X180458747Y-115329482D01*
X180469481Y-115335209D01*
X180475642Y-115339614D01*
X180478203Y-115343060D01*
X180478134Y-115345911D01*
X180476495Y-115350376D01*
X180469241Y-115370592D01*
X180456706Y-115405724D01*
X180439341Y-115454497D01*
X180417599Y-115515637D01*
X180391934Y-115587869D01*
X180362798Y-115669921D01*
X180330643Y-115760516D01*
X180295923Y-115858381D01*
X180259090Y-115962242D01*
X180220596Y-116070825D01*
X180196514Y-116138744D01*
X180159069Y-116244252D01*
X180123588Y-116344110D01*
X180090518Y-116437059D01*
X180060311Y-116521843D01*
X180033414Y-116597204D01*
X180010276Y-116661883D01*
X179991348Y-116714623D01*
X179977077Y-116754167D01*
X179967913Y-116779255D01*
X179964305Y-116788631D01*
X179960643Y-116792760D01*
X179947213Y-116794899D01*
X179923159Y-116787011D01*
X179920912Y-116786130D01*
X179903395Y-116779711D01*
X179871115Y-116768135D01*
X179825753Y-116751995D01*
X179768986Y-116731887D01*
X179702493Y-116708403D01*
X179627954Y-116682138D01*
X179547046Y-116653686D01*
X179461449Y-116623641D01*
X179429645Y-116612487D01*
X179346583Y-116583344D01*
X179269407Y-116556249D01*
X179199703Y-116531761D01*
X179139058Y-116510438D01*
X179089057Y-116492838D01*
X179051286Y-116479517D01*
X179027331Y-116471035D01*
X179018779Y-116467948D01*
X179018853Y-116465965D01*
X179023134Y-116450842D01*
X179032135Y-116423585D01*
X179044678Y-116387428D01*
X179059580Y-116345603D01*
X179075663Y-116301343D01*
X179091744Y-116257880D01*
X179106644Y-116218448D01*
X179119182Y-116186280D01*
X179128178Y-116164609D01*
X179132450Y-116156666D01*
X179138879Y-116158523D01*
X179160641Y-116165703D01*
X179195794Y-116177645D01*
X179242347Y-116193662D01*
X179298309Y-116213068D01*
X179361688Y-116235178D01*
X179430494Y-116259306D01*
X179502339Y-116284533D01*
X179566422Y-116306884D01*
X179616810Y-116324148D01*
X179655215Y-116336801D01*
X179683352Y-116345319D01*
X179702935Y-116350179D01*
X179715677Y-116351857D01*
X179723292Y-116350829D01*
X179727494Y-116347572D01*
X179729996Y-116342563D01*
X179743771Y-116306314D01*
X179761880Y-116256377D01*
X179778302Y-116208656D01*
X179792098Y-116166073D01*
X179802331Y-116131553D01*
X179808062Y-116108019D01*
X179808353Y-116098394D01*
X179808202Y-116098309D01*
X179797076Y-116093853D01*
X179771364Y-116084306D01*
X179733336Y-116070490D01*
X179685262Y-116053224D01*
X179629410Y-116033327D01*
X179568052Y-116011619D01*
X179563585Y-116010043D01*
X179502836Y-115988546D01*
X179447999Y-115969012D01*
X179401289Y-115952243D01*
X179364921Y-115939035D01*
X179341109Y-115930188D01*
X179332069Y-115926501D01*
X179331988Y-115926351D01*
X179334144Y-115916087D01*
X179341295Y-115892527D01*
X179352278Y-115858985D01*
X179365929Y-115818773D01*
X179381085Y-115775204D01*
X179396581Y-115731591D01*
X179411254Y-115691246D01*
X179423941Y-115657482D01*
X179433477Y-115633612D01*
X179438700Y-115622948D01*
X179441378Y-115622072D01*
X179454461Y-115623710D01*
X179478780Y-115629954D01*
X179515267Y-115641106D01*
X179564851Y-115657469D01*
X179628462Y-115679344D01*
X179707031Y-115707034D01*
X179801487Y-115740841D01*
X179841270Y-115755017D01*
X179878559Y-115767665D01*
X179903733Y-115774969D01*
X179919419Y-115777527D01*
X179928243Y-115775940D01*
X179932834Y-115770806D01*
X179936392Y-115762972D01*
X179946127Y-115738194D01*
X179958261Y-115704521D01*
X179971588Y-115665649D01*
X179984902Y-115625269D01*
X179996997Y-115587074D01*
X180006666Y-115554758D01*
X180012705Y-115532013D01*
X180013907Y-115522531D01*
X180009110Y-115520290D01*
X179989158Y-115512497D01*
X179955633Y-115499986D01*
X179910551Y-115483494D01*
X179855930Y-115463758D01*
X179793790Y-115441514D01*
X179726147Y-115417499D01*
X179679420Y-115400913D01*
X179615058Y-115377857D01*
X179557462Y-115356977D01*
X179508677Y-115339027D01*
X179470748Y-115324761D01*
X179445719Y-115314935D01*
X179435636Y-115310302D01*
X179434824Y-115308744D01*
X179435175Y-115299633D01*
X179439212Y-115281913D01*
X179447377Y-115254209D01*
X179460109Y-115215149D01*
X179477851Y-115163359D01*
X179501043Y-115097465D01*
X179530127Y-115016094D01*
X179537306Y-114996110D01*
X179652389Y-115036774D01*
G37*
G36*
X179021350Y-115249336D02*
G01*
X179009783Y-115344918D01*
X178997296Y-115447925D01*
X178984056Y-115556961D01*
X178970233Y-115670628D01*
X178963152Y-115728843D01*
X178949715Y-115839522D01*
X178937005Y-115944461D01*
X178925186Y-116042311D01*
X178914417Y-116131727D01*
X178904862Y-116211359D01*
X178896680Y-116279860D01*
X178890035Y-116335884D01*
X178885087Y-116378081D01*
X178881998Y-116405105D01*
X178880930Y-116415608D01*
X178877155Y-116422124D01*
X178860652Y-116422554D01*
X178848145Y-116420483D01*
X178819940Y-116416557D01*
X178780045Y-116411374D01*
X178731760Y-116405362D01*
X178678387Y-116398947D01*
X178629667Y-116393099D01*
X178583933Y-116387410D01*
X178547468Y-116382656D01*
X178523142Y-116379212D01*
X178513828Y-116377455D01*
X178513930Y-116371604D01*
X178515861Y-116350073D01*
X178519560Y-116315025D01*
X178524758Y-116268893D01*
X178531188Y-116214109D01*
X178538580Y-116153105D01*
X178542504Y-116121340D01*
X178551298Y-116050480D01*
X178557948Y-115994897D01*
X178562289Y-115952697D01*
X178564155Y-115921988D01*
X178563381Y-115900875D01*
X178559802Y-115887466D01*
X178553252Y-115879867D01*
X178543565Y-115876184D01*
X178530578Y-115874525D01*
X178514124Y-115872996D01*
X178492504Y-115870604D01*
X178461265Y-115867440D01*
X178439534Y-115865598D01*
X178439280Y-115865584D01*
X178431122Y-115867145D01*
X178420202Y-115873356D01*
X178405236Y-115885502D01*
X178384939Y-115904865D01*
X178358026Y-115932729D01*
X178323212Y-115970378D01*
X178279214Y-116019094D01*
X178224746Y-116080160D01*
X178198690Y-116109477D01*
X178153331Y-116160486D01*
X178112355Y-116206532D01*
X178077276Y-116245914D01*
X178049609Y-116276934D01*
X178030867Y-116297893D01*
X178022564Y-116307090D01*
X178015247Y-116310400D01*
X177999868Y-116311765D01*
X177974492Y-116311050D01*
X177937163Y-116308140D01*
X177885924Y-116302923D01*
X177818820Y-116295286D01*
X177797684Y-116292779D01*
X177741521Y-116285852D01*
X177691863Y-116279353D01*
X177651557Y-116273677D01*
X177623449Y-116269218D01*
X177610383Y-116266372D01*
X177608675Y-116265142D01*
X177608725Y-116258501D01*
X177616015Y-116245772D01*
X177631628Y-116225614D01*
X177656652Y-116196687D01*
X177692172Y-116157650D01*
X177739271Y-116107163D01*
X177750728Y-116094969D01*
X177798413Y-116044153D01*
X177846754Y-115992547D01*
X177892501Y-115943624D01*
X177932407Y-115900859D01*
X177963221Y-115867726D01*
X178043361Y-115781301D01*
X177993907Y-115747241D01*
X177959650Y-115721048D01*
X177898997Y-115658698D01*
X177850696Y-115585910D01*
X177815213Y-115504885D01*
X177793017Y-115417821D01*
X177784575Y-115326918D01*
X177784984Y-115320366D01*
X178156833Y-115320366D01*
X178157119Y-115347278D01*
X178160250Y-115374090D01*
X178168337Y-115395603D01*
X178183348Y-115419141D01*
X178215909Y-115455251D01*
X178260602Y-115484956D01*
X178317870Y-115506776D01*
X178389974Y-115521833D01*
X178405565Y-115524119D01*
X178455085Y-115530841D01*
X178504140Y-115536844D01*
X178544077Y-115541047D01*
X178565535Y-115542926D01*
X178590891Y-115544272D01*
X178604763Y-115542425D01*
X178611231Y-115536489D01*
X178614370Y-115525565D01*
X178615862Y-115516916D01*
X178619596Y-115490871D01*
X178624529Y-115453370D01*
X178630223Y-115408079D01*
X178636242Y-115358660D01*
X178642147Y-115308777D01*
X178647502Y-115262094D01*
X178651868Y-115222275D01*
X178654808Y-115192981D01*
X178655886Y-115177879D01*
X178654679Y-115171241D01*
X178648987Y-115165559D01*
X178636120Y-115160802D01*
X178613393Y-115156287D01*
X178578122Y-115151330D01*
X178527625Y-115145250D01*
X178462099Y-115138002D01*
X178404946Y-115132897D01*
X178360197Y-115130830D01*
X178325047Y-115131898D01*
X178296692Y-115136198D01*
X178272327Y-115143828D01*
X178249148Y-115154885D01*
X178217643Y-115175675D01*
X178183598Y-115213455D01*
X178163634Y-115261136D01*
X178156833Y-115320366D01*
X177784984Y-115320366D01*
X177790353Y-115234375D01*
X177810820Y-115142393D01*
X177846442Y-115053170D01*
X177870667Y-115009327D01*
X177920611Y-114942206D01*
X177980405Y-114888349D01*
X178051367Y-114846883D01*
X178134812Y-114816935D01*
X178232058Y-114797632D01*
X178249082Y-114795511D01*
X178273920Y-114793306D01*
X178300653Y-114792237D01*
X178331052Y-114792439D01*
X178366890Y-114794049D01*
X178409940Y-114797203D01*
X178461974Y-114802037D01*
X178524764Y-114808688D01*
X178600083Y-114817290D01*
X178689703Y-114827981D01*
X178795397Y-114840897D01*
X179065418Y-114874137D01*
X179062464Y-114905604D01*
X179061996Y-114909985D01*
X179059487Y-114931687D01*
X179055047Y-114969193D01*
X179048846Y-115021108D01*
X179041050Y-115086034D01*
X179031829Y-115162576D01*
X179029981Y-115177879D01*
X179021350Y-115249336D01*
G37*
G36*
X180946787Y-115468595D02*
G01*
X180959089Y-115474852D01*
X180982451Y-115489954D01*
X181014299Y-115511979D01*
X181052056Y-115539003D01*
X181093145Y-115569104D01*
X181134989Y-115600359D01*
X181175011Y-115630844D01*
X181210636Y-115658637D01*
X181239287Y-115681814D01*
X181258386Y-115698453D01*
X181265358Y-115706631D01*
X181264390Y-115711242D01*
X181258630Y-115731671D01*
X181248118Y-115766654D01*
X181233357Y-115814590D01*
X181214848Y-115873875D01*
X181193091Y-115942907D01*
X181168589Y-116020084D01*
X181141843Y-116103803D01*
X181113355Y-116192461D01*
X181095428Y-116248144D01*
X181068100Y-116333246D01*
X181042867Y-116412083D01*
X181020220Y-116483104D01*
X181000652Y-116544757D01*
X180984655Y-116595490D01*
X180972720Y-116633751D01*
X180965341Y-116657988D01*
X180963009Y-116666648D01*
X180966425Y-116664388D01*
X180982496Y-116652370D01*
X181010577Y-116630885D01*
X181049392Y-116600921D01*
X181097667Y-116563470D01*
X181154125Y-116519522D01*
X181217491Y-116470067D01*
X181286490Y-116416096D01*
X181359845Y-116358597D01*
X181430794Y-116303088D01*
X181514666Y-116237967D01*
X181587212Y-116182261D01*
X181647994Y-116136296D01*
X181696574Y-116100398D01*
X181732514Y-116074895D01*
X181755378Y-116060114D01*
X181764727Y-116056380D01*
X181769397Y-116059848D01*
X181787293Y-116072840D01*
X181815458Y-116093139D01*
X181851153Y-116118773D01*
X181891640Y-116147772D01*
X181916617Y-116165666D01*
X181954156Y-116192672D01*
X181985055Y-116215041D01*
X182006642Y-116230835D01*
X182016245Y-116238117D01*
X182014687Y-116245769D01*
X182007725Y-116268663D01*
X181995909Y-116304922D01*
X181979894Y-116352686D01*
X181960337Y-116410091D01*
X181937893Y-116475275D01*
X181913218Y-116546377D01*
X181886968Y-116621532D01*
X181859800Y-116698880D01*
X181832369Y-116776559D01*
X181805332Y-116852704D01*
X181779345Y-116925456D01*
X181755063Y-116992950D01*
X181733142Y-117053325D01*
X181714239Y-117104719D01*
X181699010Y-117145269D01*
X181688111Y-117173113D01*
X181682197Y-117186388D01*
X181682136Y-117186490D01*
X181680842Y-117188991D01*
X181681205Y-117190047D01*
X181684298Y-117188893D01*
X181691193Y-117184765D01*
X181702964Y-117176897D01*
X181720683Y-117164525D01*
X181745424Y-117146884D01*
X181778259Y-117123208D01*
X181820262Y-117092733D01*
X181872505Y-117054695D01*
X181936061Y-117008327D01*
X182012004Y-116952866D01*
X182101407Y-116887545D01*
X182156830Y-116847136D01*
X182246640Y-116782105D01*
X182324048Y-116726685D01*
X182388736Y-116681096D01*
X182440388Y-116645558D01*
X182478686Y-116620289D01*
X182503315Y-116605511D01*
X182513957Y-116601442D01*
X182514286Y-116601579D01*
X182526346Y-116608855D01*
X182549512Y-116624475D01*
X182581202Y-116646565D01*
X182618834Y-116673256D01*
X182659827Y-116702675D01*
X182701597Y-116732953D01*
X182741563Y-116762217D01*
X182777142Y-116788597D01*
X182805753Y-116810222D01*
X182824813Y-116825219D01*
X182831739Y-116831720D01*
X182825364Y-116836886D01*
X182805457Y-116851199D01*
X182773454Y-116873611D01*
X182730818Y-116903114D01*
X182679011Y-116938700D01*
X182619497Y-116979361D01*
X182553738Y-117024089D01*
X182483199Y-117071875D01*
X182479136Y-117074623D01*
X182390717Y-117134424D01*
X182292705Y-117200743D01*
X182189186Y-117270813D01*
X182084244Y-117341870D01*
X181981964Y-117411147D01*
X181886431Y-117475878D01*
X181801730Y-117533298D01*
X181749330Y-117568678D01*
X181683255Y-117612833D01*
X181622700Y-117652784D01*
X181569220Y-117687534D01*
X181524366Y-117716086D01*
X181489694Y-117737442D01*
X181466755Y-117750605D01*
X181457104Y-117754578D01*
X181456577Y-117754336D01*
X181445168Y-117747121D01*
X181422863Y-117731914D01*
X181392512Y-117710747D01*
X181356964Y-117685657D01*
X181319067Y-117658679D01*
X181281672Y-117631849D01*
X181247627Y-117607200D01*
X181219781Y-117586769D01*
X181200984Y-117572591D01*
X181194085Y-117566701D01*
X181194133Y-117566516D01*
X181197590Y-117555828D01*
X181206130Y-117529920D01*
X181219210Y-117490431D01*
X181236282Y-117439004D01*
X181256802Y-117377281D01*
X181280225Y-117306902D01*
X181306005Y-117229509D01*
X181333596Y-117146744D01*
X181336964Y-117136643D01*
X181364403Y-117054202D01*
X181389958Y-116977151D01*
X181413084Y-116907159D01*
X181433233Y-116845895D01*
X181449857Y-116795026D01*
X181462409Y-116756222D01*
X181470342Y-116731152D01*
X181473107Y-116721483D01*
X181472809Y-116721422D01*
X181463083Y-116727376D01*
X181440630Y-116742975D01*
X181406811Y-116767224D01*
X181362989Y-116799126D01*
X181310525Y-116837687D01*
X181250782Y-116881910D01*
X181185123Y-116930799D01*
X181114908Y-116983359D01*
X180756708Y-117252182D01*
X180621236Y-117154542D01*
X180485763Y-117056901D01*
X180712354Y-116262507D01*
X180716670Y-116247379D01*
X180749592Y-116132313D01*
X180781174Y-116022470D01*
X180811061Y-115919060D01*
X180838895Y-115823293D01*
X180864322Y-115736378D01*
X180886983Y-115659525D01*
X180906522Y-115593944D01*
X180922584Y-115540844D01*
X180934810Y-115501436D01*
X180942846Y-115476929D01*
X180946334Y-115468533D01*
X180946787Y-115468595D01*
G37*
G36*
X179699131Y-117625189D02*
G01*
X179685791Y-117689185D01*
X179669647Y-117724963D01*
X179632762Y-117774774D01*
X179584164Y-117816577D01*
X179527471Y-117847480D01*
X179466301Y-117864594D01*
X179455423Y-117866479D01*
X179443496Y-117869797D01*
X179430706Y-117875519D01*
X179415504Y-117884869D01*
X179396344Y-117899072D01*
X179371681Y-117919354D01*
X179339968Y-117946937D01*
X179299659Y-117983048D01*
X179249206Y-118028911D01*
X179187065Y-118085751D01*
X178952909Y-118300200D01*
X178952909Y-118784250D01*
X178952909Y-119268301D01*
X179093175Y-119361420D01*
X179136518Y-119390659D01*
X179177357Y-119419145D01*
X179211008Y-119443599D01*
X179234831Y-119462103D01*
X179246187Y-119472737D01*
X179250055Y-119480936D01*
X179253614Y-119497344D01*
X179256145Y-119523018D01*
X179257784Y-119560141D01*
X179258668Y-119610893D01*
X179258933Y-119677459D01*
X179258933Y-119863984D01*
X179454698Y-119866787D01*
X179464005Y-119866924D01*
X179538202Y-119868563D01*
X179597561Y-119871439D01*
X179644924Y-119876277D01*
X179683133Y-119883803D01*
X179715028Y-119894744D01*
X179743453Y-119909824D01*
X179771248Y-119929771D01*
X179801256Y-119955309D01*
X179845405Y-120001314D01*
X179881674Y-120058530D01*
X179904462Y-120123963D01*
X179915254Y-120200812D01*
X179920485Y-120283491D01*
X180205518Y-120285867D01*
X180490551Y-120288243D01*
X180501673Y-120254364D01*
X180524141Y-120202220D01*
X180563031Y-120149112D01*
X180613469Y-120109657D01*
X180674914Y-120084254D01*
X180746826Y-120073302D01*
X180756257Y-120072886D01*
X180791372Y-120072448D01*
X180817787Y-120075569D01*
X180843085Y-120083739D01*
X180874850Y-120098448D01*
X180904747Y-120115088D01*
X180957467Y-120157899D01*
X180995110Y-120210513D01*
X181017525Y-120272681D01*
X181024559Y-120344154D01*
X181024156Y-120351647D01*
X181023140Y-120370560D01*
X181008045Y-120436748D01*
X180977203Y-120495013D01*
X180931501Y-120543973D01*
X180871826Y-120582247D01*
X180862950Y-120586382D01*
X180800100Y-120605007D01*
X180735863Y-120607287D01*
X180673100Y-120594133D01*
X180614671Y-120566452D01*
X180563438Y-120525154D01*
X180522261Y-120471148D01*
X180499176Y-120431756D01*
X180209830Y-120434130D01*
X179920485Y-120436503D01*
X179918041Y-120609767D01*
X179918009Y-120612017D01*
X179915596Y-120783031D01*
X180198889Y-120783031D01*
X180265751Y-120783209D01*
X180342888Y-120783977D01*
X180406220Y-120785319D01*
X180454698Y-120787204D01*
X180487276Y-120789600D01*
X180502905Y-120792473D01*
X180510880Y-120799852D01*
X180528598Y-120821624D01*
X180554508Y-120856434D01*
X180587789Y-120903129D01*
X180627622Y-120960556D01*
X180673188Y-121027563D01*
X180723667Y-121102997D01*
X180923705Y-121404080D01*
X181337037Y-121404080D01*
X181750368Y-121404080D01*
X181759609Y-121377571D01*
X181766670Y-121362570D01*
X181788534Y-121331421D01*
X181818269Y-121298722D01*
X181851096Y-121269493D01*
X181882235Y-121248755D01*
X181892786Y-121243881D01*
X181934823Y-121232120D01*
X181991252Y-121225969D01*
X181996405Y-121225693D01*
X182033978Y-121224617D01*
X182061379Y-121226810D01*
X182085543Y-121233376D01*
X182113406Y-121245419D01*
X182118505Y-121247887D01*
X182177443Y-121286164D01*
X182223246Y-121334883D01*
X182254950Y-121391725D01*
X182271587Y-121454365D01*
X182271915Y-121490172D01*
X182272193Y-121520483D01*
X182255802Y-121587756D01*
X182234893Y-121631147D01*
X182194724Y-121682545D01*
X182144370Y-121721834D01*
X182086544Y-121747900D01*
X182023959Y-121759632D01*
X181959328Y-121755915D01*
X181895362Y-121735637D01*
X181845766Y-121706876D01*
X181795703Y-121660215D01*
X181759504Y-121602366D01*
X181738734Y-121557092D01*
X181304820Y-121557092D01*
X181201537Y-121556932D01*
X181100082Y-121556367D01*
X181015486Y-121555400D01*
X180947974Y-121554034D01*
X180897776Y-121552275D01*
X180865119Y-121550126D01*
X180850232Y-121547594D01*
X180841697Y-121539531D01*
X180823677Y-121517222D01*
X180801302Y-121487093D01*
X181887826Y-121487093D01*
X181892479Y-121526470D01*
X181911159Y-121562706D01*
X181944239Y-121592226D01*
X181972990Y-121605622D01*
X182013725Y-121609372D01*
X182057060Y-121595705D01*
X182057736Y-121595370D01*
X182091947Y-121568949D01*
X182113532Y-121532514D01*
X182120961Y-121490172D01*
X182112709Y-121446033D01*
X182105146Y-121430532D01*
X182078479Y-121400552D01*
X182043094Y-121380660D01*
X182004004Y-121373111D01*
X181966225Y-121380160D01*
X181954329Y-121385874D01*
X181919122Y-121413220D01*
X181896831Y-121448151D01*
X181887826Y-121487093D01*
X180801302Y-121487093D01*
X180797561Y-121482056D01*
X180764212Y-121435246D01*
X180724492Y-121378003D01*
X180679261Y-121311541D01*
X180629383Y-121237070D01*
X180429209Y-120936043D01*
X180172597Y-120936043D01*
X179915985Y-120936043D01*
X179915985Y-121683102D01*
X179915985Y-122430160D01*
X180026515Y-122430160D01*
X180137046Y-122430160D01*
X180235208Y-122211893D01*
X180271772Y-122130682D01*
X180305950Y-122055114D01*
X180334192Y-121993258D01*
X180357225Y-121943678D01*
X180366233Y-121924868D01*
X181196190Y-121924868D01*
X181209069Y-121965066D01*
X181237509Y-122001197D01*
X181262557Y-122017295D01*
X181301495Y-122026710D01*
X181342253Y-122023337D01*
X181379436Y-122007823D01*
X181407650Y-121980813D01*
X181424418Y-121942173D01*
X181427076Y-121900475D01*
X181416549Y-121860578D01*
X181394024Y-121826952D01*
X181360691Y-121804070D01*
X181356567Y-121802381D01*
X181321736Y-121792549D01*
X181291034Y-121795116D01*
X181256392Y-121810586D01*
X181247323Y-121816160D01*
X181215676Y-121846786D01*
X181198512Y-121884232D01*
X181196190Y-121924868D01*
X180366233Y-121924868D01*
X180375777Y-121904938D01*
X180390573Y-121875600D01*
X180402342Y-121854230D01*
X180411810Y-121839389D01*
X180419704Y-121829641D01*
X180426751Y-121823551D01*
X180433678Y-121819680D01*
X180435845Y-121818866D01*
X180453146Y-121815768D01*
X180484061Y-121813296D01*
X180529466Y-121811423D01*
X180590237Y-121810120D01*
X180667251Y-121809359D01*
X180761383Y-121809111D01*
X181065892Y-121809111D01*
X181076516Y-121783461D01*
X181078893Y-121778281D01*
X181100190Y-121747396D01*
X181132097Y-121714952D01*
X181169575Y-121685548D01*
X181207586Y-121663783D01*
X181258482Y-121648380D01*
X181315564Y-121643128D01*
X181371706Y-121648131D01*
X181419989Y-121663402D01*
X181474833Y-121696330D01*
X181519905Y-121739901D01*
X181554872Y-121795787D01*
X181560689Y-121807741D01*
X181572919Y-121835937D01*
X181579171Y-121859921D01*
X181580845Y-121887069D01*
X181580310Y-121900475D01*
X181579340Y-121924755D01*
X181577987Y-121944260D01*
X181572902Y-121981924D01*
X181563596Y-122012633D01*
X181548033Y-122044158D01*
X181530672Y-122070588D01*
X181490733Y-122113705D01*
X181443760Y-122148176D01*
X181395200Y-122169532D01*
X181380703Y-122172965D01*
X181329637Y-122178035D01*
X181274967Y-122175123D01*
X181223562Y-122164919D01*
X181182291Y-122148114D01*
X181173466Y-122142671D01*
X181126414Y-122104119D01*
X181087315Y-122056316D01*
X181061112Y-122005097D01*
X181045849Y-121962124D01*
X180780190Y-121962236D01*
X180514532Y-121962348D01*
X180384882Y-122252509D01*
X180358872Y-122310321D01*
X180329356Y-122374938D01*
X180302248Y-122433246D01*
X180278516Y-122483211D01*
X180259127Y-122522799D01*
X180245049Y-122549977D01*
X180237250Y-122562709D01*
X180232368Y-122567774D01*
X180223941Y-122573836D01*
X180211885Y-122578120D01*
X180193324Y-122581013D01*
X180165386Y-122582902D01*
X180125194Y-122584172D01*
X180069877Y-122585211D01*
X179920485Y-122587673D01*
X179917841Y-122652928D01*
X179915196Y-122718183D01*
X180257840Y-122718183D01*
X180600484Y-122718183D01*
X180609765Y-122693431D01*
X180622132Y-122666213D01*
X180658725Y-122615132D01*
X180707067Y-122573443D01*
X180763706Y-122543230D01*
X180825188Y-122526575D01*
X180888061Y-122525561D01*
X180926402Y-122532741D01*
X180987703Y-122556559D01*
X181039155Y-122592462D01*
X181079909Y-122638083D01*
X181109116Y-122691053D01*
X181125926Y-122749005D01*
X181128369Y-122790509D01*
X181129491Y-122809569D01*
X181118959Y-122870378D01*
X181093484Y-122929064D01*
X181052214Y-122983259D01*
X181041248Y-122993950D01*
X180988741Y-123031143D01*
X180930367Y-123053726D01*
X180868972Y-123062183D01*
X180807405Y-123056996D01*
X180748513Y-123038646D01*
X180695144Y-123007617D01*
X180650147Y-122964390D01*
X180616368Y-122909448D01*
X180599196Y-122871195D01*
X180257591Y-122871195D01*
X179915985Y-122871195D01*
X179915985Y-123190720D01*
X179915985Y-123510245D01*
X180009187Y-123510245D01*
X180102389Y-123510245D01*
X180195508Y-123369979D01*
X180224747Y-123326636D01*
X180253233Y-123285797D01*
X180277687Y-123252147D01*
X180296191Y-123228323D01*
X180306825Y-123216967D01*
X180312425Y-123215329D01*
X180335011Y-123212833D01*
X180372504Y-123210623D01*
X180422973Y-123208701D01*
X180484489Y-123207069D01*
X180555120Y-123205729D01*
X180632935Y-123204683D01*
X180716005Y-123203932D01*
X180802398Y-123203480D01*
X180890184Y-123203327D01*
X180977433Y-123203477D01*
X181062213Y-123203931D01*
X181142594Y-123204690D01*
X181216646Y-123205758D01*
X181282438Y-123207136D01*
X181338039Y-123208827D01*
X181381519Y-123210831D01*
X181410947Y-123213152D01*
X181424393Y-123215791D01*
X181429450Y-123219870D01*
X181446546Y-123236280D01*
X181473197Y-123263322D01*
X181507809Y-123299333D01*
X181548790Y-123342650D01*
X181594546Y-123391609D01*
X181643485Y-123444548D01*
X181843786Y-123662372D01*
X181888740Y-123626838D01*
X181900867Y-123617739D01*
X181961554Y-123584735D01*
X182025754Y-123568162D01*
X182090865Y-123567783D01*
X182154283Y-123583359D01*
X182213407Y-123614650D01*
X182265633Y-123661419D01*
X182269815Y-123666281D01*
X182304557Y-123720284D01*
X182323366Y-123781278D01*
X182325893Y-123833482D01*
X182326730Y-123850774D01*
X182323429Y-123880652D01*
X182304723Y-123944017D01*
X182272332Y-123998951D01*
X182228507Y-124043873D01*
X182175497Y-124077202D01*
X182115551Y-124097357D01*
X182050918Y-124102756D01*
X181983849Y-124091818D01*
X181960506Y-124083938D01*
X181900757Y-124051675D01*
X181852302Y-124006054D01*
X181816368Y-123948443D01*
X181794178Y-123880208D01*
X181784557Y-123833044D01*
X181943042Y-123833044D01*
X181949001Y-123874562D01*
X181969473Y-123910624D01*
X182003304Y-123937342D01*
X182032903Y-123947935D01*
X182076767Y-123949082D01*
X182117858Y-123934016D01*
X182149802Y-123908732D01*
X182169208Y-123875930D01*
X182175163Y-123833482D01*
X182170331Y-123799267D01*
X182152446Y-123764129D01*
X182124615Y-123738456D01*
X182090285Y-123723073D01*
X182052902Y-123718811D01*
X182015915Y-123726498D01*
X181982768Y-123746961D01*
X181956909Y-123781030D01*
X181952750Y-123789957D01*
X181943042Y-123833044D01*
X181784557Y-123833044D01*
X181782633Y-123823613D01*
X181568925Y-123590423D01*
X181355217Y-123357233D01*
X180871039Y-123357233D01*
X180386861Y-123357233D01*
X180290694Y-123501559D01*
X180281957Y-123514617D01*
X180241768Y-123572929D01*
X180210064Y-123615600D01*
X180186737Y-123642768D01*
X180171679Y-123654571D01*
X180170809Y-123654875D01*
X180151938Y-123658141D01*
X180119724Y-123660805D01*
X180078453Y-123662600D01*
X180032408Y-123663257D01*
X179915985Y-123663257D01*
X179915985Y-123817502D01*
X179915985Y-123841638D01*
X179915894Y-123877759D01*
X179914877Y-123943700D01*
X179912269Y-123996039D01*
X179907495Y-124037771D01*
X179899981Y-124071887D01*
X179889154Y-124101381D01*
X179874441Y-124129246D01*
X179855268Y-124158476D01*
X179833684Y-124186523D01*
X179776649Y-124240429D01*
X179709832Y-124279501D01*
X179634147Y-124303280D01*
X179550508Y-124311309D01*
X179483951Y-124311309D01*
X179483951Y-124647179D01*
X179483951Y-124983049D01*
X179535329Y-125004344D01*
X179549346Y-125010629D01*
X179605412Y-125046841D01*
X179650165Y-125094849D01*
X179680791Y-125151801D01*
X179693586Y-125195871D01*
X179697099Y-125235196D01*
X179699582Y-125262998D01*
X179689902Y-125327447D01*
X179665393Y-125386601D01*
X179626899Y-125437841D01*
X179575266Y-125478550D01*
X179529102Y-125501219D01*
X179463157Y-125518321D01*
X179397812Y-125518923D01*
X179335389Y-125503682D01*
X179278214Y-125473254D01*
X179228611Y-125428296D01*
X179188903Y-125369463D01*
X179179366Y-125349565D01*
X179170590Y-125323135D01*
X179166367Y-125292932D01*
X179165275Y-125251883D01*
X179313005Y-125251883D01*
X179313340Y-125258339D01*
X179323141Y-125292290D01*
X179343138Y-125325349D01*
X179368762Y-125349518D01*
X179397145Y-125363012D01*
X179437018Y-125368462D01*
X179474251Y-125360040D01*
X179506344Y-125340125D01*
X179530797Y-125311094D01*
X179545108Y-125275325D01*
X179546777Y-125235196D01*
X179533302Y-125193083D01*
X179516524Y-125171147D01*
X179484143Y-125149936D01*
X179445272Y-125138895D01*
X179405465Y-125139395D01*
X179370278Y-125152810D01*
X179365158Y-125156439D01*
X179339109Y-125183898D01*
X179320262Y-125218242D01*
X179313005Y-125251883D01*
X179165275Y-125251883D01*
X179165768Y-125221868D01*
X179168886Y-125189109D01*
X179176124Y-125162278D01*
X179188903Y-125134302D01*
X179209107Y-125102302D01*
X179240801Y-125064706D01*
X179275853Y-125032618D01*
X179308920Y-125011506D01*
X179330939Y-125001474D01*
X179330939Y-124656391D01*
X179330939Y-124311309D01*
X179159925Y-124311309D01*
X178988912Y-124311309D01*
X178988912Y-124643911D01*
X178988895Y-124672170D01*
X178988517Y-124768110D01*
X178987632Y-124846737D01*
X178986225Y-124908590D01*
X178984279Y-124954208D01*
X178981780Y-124984132D01*
X178978712Y-124998900D01*
X178977755Y-125000513D01*
X178963759Y-125014138D01*
X178934540Y-125036932D01*
X178890252Y-125068785D01*
X178831054Y-125109586D01*
X178757100Y-125159225D01*
X178668549Y-125217591D01*
X178368586Y-125413895D01*
X178368224Y-125828811D01*
X178367863Y-126243727D01*
X178402987Y-126259566D01*
X178405862Y-126260896D01*
X178452009Y-126291816D01*
X178493033Y-126337088D01*
X178525856Y-126393360D01*
X178534568Y-126413465D01*
X178543750Y-126442237D01*
X178547189Y-126471686D01*
X178546726Y-126493942D01*
X178546384Y-126510369D01*
X178545616Y-126521414D01*
X178531471Y-126590483D01*
X178502797Y-126650456D01*
X178461218Y-126699788D01*
X178408355Y-126736935D01*
X178345831Y-126760352D01*
X178275268Y-126768495D01*
X178235049Y-126765285D01*
X178171925Y-126746661D01*
X178115226Y-126712924D01*
X178067530Y-126665783D01*
X178031419Y-126606947D01*
X178031152Y-126606364D01*
X178015783Y-126554165D01*
X178012694Y-126507915D01*
X178162111Y-126507915D01*
X178170927Y-126545164D01*
X178195526Y-126580941D01*
X178198298Y-126583994D01*
X178216779Y-126600263D01*
X178238010Y-126608736D01*
X178269593Y-126612668D01*
X178292753Y-126612863D01*
X178336214Y-126602903D01*
X178368259Y-126579252D01*
X178388079Y-126542676D01*
X178394865Y-126493942D01*
X178392988Y-126466130D01*
X178384288Y-126444254D01*
X178364793Y-126421605D01*
X178356259Y-126413676D01*
X178331807Y-126395567D01*
X178310730Y-126385512D01*
X178287966Y-126382249D01*
X178246254Y-126388015D01*
X178209057Y-126407036D01*
X178180577Y-126436742D01*
X178165018Y-126474566D01*
X178162111Y-126507915D01*
X178012694Y-126507915D01*
X178011843Y-126495174D01*
X178019146Y-126436257D01*
X178037502Y-126384285D01*
X178065418Y-126339771D01*
X178113465Y-126289759D01*
X178171018Y-126254061D01*
X178214851Y-126234251D01*
X178214851Y-125791253D01*
X178214851Y-125348255D01*
X178244311Y-125322570D01*
X178244348Y-125322538D01*
X178258583Y-125311736D01*
X178285991Y-125292386D01*
X178324676Y-125265773D01*
X178372745Y-125233181D01*
X178428305Y-125195894D01*
X178489462Y-125155196D01*
X178554321Y-125112372D01*
X178834871Y-124927857D01*
X178835385Y-124619583D01*
X178835900Y-124311309D01*
X178084341Y-124311309D01*
X177332781Y-124311309D01*
X177332781Y-124468590D01*
X177332781Y-124625871D01*
X177362034Y-124641080D01*
X177367944Y-124644007D01*
X177390742Y-124654786D01*
X177426574Y-124671411D01*
X177473209Y-124692859D01*
X177528416Y-124718104D01*
X177589964Y-124746122D01*
X177655619Y-124775889D01*
X177691284Y-124792095D01*
X177753978Y-124820931D01*
X177810782Y-124847498D01*
X177859585Y-124870782D01*
X177898278Y-124889771D01*
X177924750Y-124903454D01*
X177936891Y-124910817D01*
X177939673Y-124913599D01*
X177943662Y-124919608D01*
X177946824Y-124928841D01*
X177949255Y-124943145D01*
X177951050Y-124964369D01*
X177952305Y-124994359D01*
X177953115Y-125034963D01*
X177953576Y-125088026D01*
X177953783Y-125155396D01*
X177953830Y-125238921D01*
X177953830Y-125551696D01*
X177993578Y-125574989D01*
X178002365Y-125580365D01*
X178053889Y-125623204D01*
X178092247Y-125675994D01*
X178116602Y-125735884D01*
X178125001Y-125792472D01*
X178126122Y-125800022D01*
X178119973Y-125865557D01*
X178097319Y-125929638D01*
X178093167Y-125937742D01*
X178063462Y-125983979D01*
X178026685Y-126019911D01*
X177977380Y-126051061D01*
X177958051Y-126060001D01*
X177933832Y-126066640D01*
X177902773Y-126069957D01*
X177859323Y-126070883D01*
X177837594Y-126070783D01*
X177803291Y-126069376D01*
X177777977Y-126065316D01*
X177755602Y-126057356D01*
X177730113Y-126044248D01*
X177694578Y-126021178D01*
X177647393Y-125975754D01*
X177614208Y-125923189D01*
X177594872Y-125865886D01*
X177589230Y-125806249D01*
X177589397Y-125804990D01*
X177740616Y-125804990D01*
X177746864Y-125841506D01*
X177763597Y-125876086D01*
X177787558Y-125900919D01*
X177797695Y-125907029D01*
X177841087Y-125922389D01*
X177883290Y-125921861D01*
X177921116Y-125906571D01*
X177951377Y-125877645D01*
X177970882Y-125836208D01*
X177971331Y-125834534D01*
X177974117Y-125792472D01*
X177962002Y-125754369D01*
X177937943Y-125723014D01*
X177904893Y-125701194D01*
X177865809Y-125691696D01*
X177823646Y-125697310D01*
X177820752Y-125698320D01*
X177785282Y-125719826D01*
X177757245Y-125752813D01*
X177741834Y-125791315D01*
X177740616Y-125804990D01*
X177589397Y-125804990D01*
X177597131Y-125746682D01*
X177618421Y-125689588D01*
X177652947Y-125637370D01*
X177700557Y-125592433D01*
X177761097Y-125557179D01*
X177810091Y-125535512D01*
X177807705Y-125273009D01*
X177805319Y-125010506D01*
X177706311Y-124966057D01*
X177681318Y-124954834D01*
X177580434Y-124909430D01*
X177494575Y-124870591D01*
X177422559Y-124837757D01*
X177363206Y-124810365D01*
X177315331Y-124787856D01*
X177277754Y-124769666D01*
X177249292Y-124755236D01*
X177228762Y-124744003D01*
X177214983Y-124735407D01*
X177206771Y-124728886D01*
X177205911Y-124728047D01*
X177198772Y-124720582D01*
X177193366Y-124712357D01*
X177189408Y-124700910D01*
X177186614Y-124683777D01*
X177184700Y-124658497D01*
X177183381Y-124622605D01*
X177182372Y-124573639D01*
X177181390Y-124509137D01*
X177178511Y-124311309D01*
X177116135Y-124311309D01*
X177053759Y-124311309D01*
X177053759Y-124705532D01*
X177053759Y-125099755D01*
X177086294Y-125111519D01*
X177105388Y-125120257D01*
X177145080Y-125147995D01*
X177182995Y-125185680D01*
X177214020Y-125228628D01*
X177221633Y-125242170D01*
X177230454Y-125262304D01*
X177235479Y-125284302D01*
X177237735Y-125313540D01*
X177238232Y-125353974D01*
X177238249Y-125355391D01*
X177236779Y-125401864D01*
X177229722Y-125447513D01*
X177214785Y-125485031D01*
X177189735Y-125519645D01*
X177152341Y-125556581D01*
X177130718Y-125574314D01*
X177074952Y-125606515D01*
X177017421Y-125623157D01*
X176959905Y-125625614D01*
X176904188Y-125615261D01*
X176852049Y-125593471D01*
X176805271Y-125561619D01*
X176765635Y-125521079D01*
X176734923Y-125473225D01*
X176714916Y-125419432D01*
X176707606Y-125362702D01*
X176859823Y-125362702D01*
X176867561Y-125403096D01*
X176889607Y-125436673D01*
X176924800Y-125460127D01*
X176937417Y-125464848D01*
X176983185Y-125471892D01*
X177024562Y-125461665D01*
X177060725Y-125434322D01*
X177062429Y-125432452D01*
X177085764Y-125394573D01*
X177093002Y-125353974D01*
X177084827Y-125314165D01*
X177061923Y-125278657D01*
X177024975Y-125250961D01*
X177010940Y-125244881D01*
X176969889Y-125238875D01*
X176930366Y-125248474D01*
X176896302Y-125272203D01*
X176871625Y-125308585D01*
X176867552Y-125318798D01*
X176859823Y-125362702D01*
X176707606Y-125362702D01*
X176707396Y-125361074D01*
X176714144Y-125299524D01*
X176736942Y-125236157D01*
X176768610Y-125184705D01*
X176811230Y-125142841D01*
X176866924Y-125110561D01*
X176900747Y-125095250D01*
X176900747Y-124703279D01*
X176900747Y-124311309D01*
X176581222Y-124311309D01*
X176261697Y-124311309D01*
X176261697Y-124455289D01*
X176261697Y-124599270D01*
X176404563Y-124694464D01*
X176438269Y-124717262D01*
X176484768Y-124750079D01*
X176521368Y-124777730D01*
X176546245Y-124798812D01*
X176557575Y-124811927D01*
X176558664Y-124816236D01*
X176560827Y-124837756D01*
X176562706Y-124874313D01*
X176564304Y-124923966D01*
X176565622Y-124984770D01*
X176566664Y-125054783D01*
X176567431Y-125132060D01*
X176567926Y-125214658D01*
X176568152Y-125300635D01*
X176568111Y-125388045D01*
X176567806Y-125474947D01*
X176567239Y-125559396D01*
X176566413Y-125639450D01*
X176565330Y-125713164D01*
X176563993Y-125778596D01*
X176562404Y-125833801D01*
X176560566Y-125876838D01*
X176558481Y-125905761D01*
X176556151Y-125918627D01*
X176552011Y-125923736D01*
X176535530Y-125940863D01*
X176508422Y-125967536D01*
X176472348Y-126002166D01*
X176428971Y-126043162D01*
X176379951Y-126088935D01*
X176326952Y-126137893D01*
X176292110Y-126169992D01*
X176242536Y-126215960D01*
X176198493Y-126257157D01*
X176161532Y-126292110D01*
X176133208Y-126319348D01*
X176115075Y-126337396D01*
X176108685Y-126344784D01*
X176109299Y-126346726D01*
X176118434Y-126359021D01*
X176135034Y-126376345D01*
X176145108Y-126386830D01*
X176176559Y-126434617D01*
X176196172Y-126491246D01*
X176203331Y-126552463D01*
X176202321Y-126562983D01*
X176197420Y-126614016D01*
X176177823Y-126671654D01*
X176177333Y-126672645D01*
X176140857Y-126727863D01*
X176092573Y-126773340D01*
X176036679Y-126805110D01*
X176011021Y-126813399D01*
X175953318Y-126821415D01*
X175892384Y-126818344D01*
X175835465Y-126804219D01*
X175803277Y-126788163D01*
X175759320Y-126755134D01*
X175719671Y-126713641D01*
X175689757Y-126668731D01*
X175683602Y-126653832D01*
X175674375Y-126614654D01*
X175669564Y-126568641D01*
X175669631Y-126549880D01*
X175821802Y-126549880D01*
X175825136Y-126588975D01*
X175840511Y-126624150D01*
X175868349Y-126651080D01*
X175900246Y-126665836D01*
X175943332Y-126671347D01*
X175983723Y-126661531D01*
X176017919Y-126637416D01*
X176042422Y-126600028D01*
X176052261Y-126562983D01*
X176048443Y-126520846D01*
X176028197Y-126484012D01*
X175992374Y-126454951D01*
X175988407Y-126452757D01*
X175954539Y-126438633D01*
X175923786Y-126437360D01*
X175888076Y-126448435D01*
X175879834Y-126452342D01*
X175849572Y-126477237D01*
X175830087Y-126511192D01*
X175821802Y-126549880D01*
X175669631Y-126549880D01*
X175669728Y-126522976D01*
X175675427Y-126484841D01*
X175689137Y-126446919D01*
X175723596Y-126391065D01*
X175770614Y-126344615D01*
X175827294Y-126310185D01*
X175890737Y-126290393D01*
X175946191Y-126280625D01*
X176180450Y-126065128D01*
X176414709Y-125849632D01*
X176414518Y-125366243D01*
X176414327Y-124882854D01*
X176278745Y-124793297D01*
X176240477Y-124767605D01*
X176198989Y-124738756D01*
X176164189Y-124713472D01*
X176138894Y-124693809D01*
X176125924Y-124681824D01*
X176120832Y-124674413D01*
X176116144Y-124663496D01*
X176112834Y-124647916D01*
X176110667Y-124625004D01*
X176109410Y-124592094D01*
X176108827Y-124546518D01*
X176108685Y-124485609D01*
X176108685Y-124311309D01*
X175935421Y-124311088D01*
X175880167Y-124310586D01*
X175826693Y-124309264D01*
X175780347Y-124307282D01*
X175744751Y-124304794D01*
X175723532Y-124301959D01*
X175715176Y-124299915D01*
X175643534Y-124272457D01*
X175579029Y-124229996D01*
X175524541Y-124174841D01*
X175482950Y-124109297D01*
X175470150Y-124080431D01*
X175461289Y-124051169D01*
X175456104Y-124017260D01*
X175453149Y-123972036D01*
X175449486Y-123888275D01*
X175046226Y-123888275D01*
X174642965Y-123888275D01*
X174631966Y-123922028D01*
X174623599Y-123944308D01*
X174590952Y-124000205D01*
X174547206Y-124044758D01*
X174495018Y-124077273D01*
X174437043Y-124097054D01*
X174375937Y-124103406D01*
X174314355Y-124095635D01*
X174254952Y-124073046D01*
X174200386Y-124034944D01*
X174183658Y-124018917D01*
X174142622Y-123965912D01*
X174118449Y-123907744D01*
X174110528Y-123843108D01*
X174110597Y-123841108D01*
X174260769Y-123841108D01*
X174271703Y-123882163D01*
X174299065Y-123919320D01*
X174305380Y-123924935D01*
X174342363Y-123945112D01*
X174382889Y-123950489D01*
X174422638Y-123941856D01*
X174457290Y-123920006D01*
X174482527Y-123885727D01*
X174494610Y-123852255D01*
X174495174Y-123817502D01*
X174481111Y-123780822D01*
X174478970Y-123777004D01*
X174450987Y-123744941D01*
X174414606Y-123725405D01*
X174374198Y-123719147D01*
X174334139Y-123726919D01*
X174298801Y-123749474D01*
X174288206Y-123760810D01*
X174266268Y-123799532D01*
X174260769Y-123841108D01*
X174110597Y-123841108D01*
X174111402Y-123817684D01*
X174124324Y-123748289D01*
X174152700Y-123688125D01*
X174196537Y-123637182D01*
X174255840Y-123595449D01*
X174256550Y-123595056D01*
X174284000Y-123581220D01*
X174308398Y-123573283D01*
X174336746Y-123569699D01*
X174376049Y-123568924D01*
X174406396Y-123569503D01*
X174438984Y-123572722D01*
X174465690Y-123580056D01*
X174493577Y-123592950D01*
X174523333Y-123611023D01*
X174562761Y-123642542D01*
X174594989Y-123677002D01*
X174615191Y-123709767D01*
X174625752Y-123735263D01*
X175038693Y-123735263D01*
X175451633Y-123735263D01*
X175451633Y-123564250D01*
X175451633Y-123393236D01*
X175053352Y-123393104D01*
X174951390Y-123392935D01*
X174865014Y-123392478D01*
X174794249Y-123391698D01*
X174737895Y-123390565D01*
X174694751Y-123389046D01*
X174663616Y-123387109D01*
X174643288Y-123384722D01*
X174632569Y-123381853D01*
X174628033Y-123378263D01*
X174612167Y-123360061D01*
X174587548Y-123327709D01*
X174554703Y-123281948D01*
X174514154Y-123223516D01*
X174466429Y-123153152D01*
X174412051Y-123071595D01*
X174214036Y-122772455D01*
X173798729Y-122772321D01*
X173383422Y-122772187D01*
X173378151Y-122793189D01*
X173369212Y-122812970D01*
X173347513Y-122842533D01*
X173317970Y-122873641D01*
X173284763Y-122901983D01*
X173252070Y-122923249D01*
X173225575Y-122935728D01*
X173200585Y-122943121D01*
X173170725Y-122946637D01*
X173129450Y-122947575D01*
X173117435Y-122947557D01*
X173081060Y-122946413D01*
X173054469Y-122942525D01*
X173031181Y-122934509D01*
X173004711Y-122920986D01*
X172983361Y-122908000D01*
X172932085Y-122864388D01*
X172894736Y-122812839D01*
X172871247Y-122755836D01*
X172861550Y-122695866D01*
X172861988Y-122689294D01*
X173014294Y-122689294D01*
X173021497Y-122726399D01*
X173041312Y-122759538D01*
X173074601Y-122785251D01*
X173105396Y-122796179D01*
X173146976Y-122797005D01*
X173185331Y-122783724D01*
X173216999Y-122758450D01*
X173238518Y-122723297D01*
X173246426Y-122680377D01*
X173245547Y-122667288D01*
X173232311Y-122628119D01*
X173206064Y-122595596D01*
X173170534Y-122573389D01*
X173129450Y-122565171D01*
X173094352Y-122570431D01*
X173059732Y-122588793D01*
X173034273Y-122617031D01*
X173018840Y-122651685D01*
X173014294Y-122689294D01*
X172861988Y-122689294D01*
X172865581Y-122635413D01*
X172883271Y-122576962D01*
X172914554Y-122522997D01*
X172959365Y-122476004D01*
X173017635Y-122438467D01*
X173065294Y-122421875D01*
X173126905Y-122415127D01*
X173189740Y-122421786D01*
X173248094Y-122441772D01*
X173298524Y-122473224D01*
X173341305Y-122516728D01*
X173377096Y-122574420D01*
X173399690Y-122619007D01*
X173847366Y-122621341D01*
X174295042Y-122623676D01*
X174332738Y-122680377D01*
X174499990Y-122931950D01*
X174704939Y-123240224D01*
X175078286Y-123240224D01*
X175451633Y-123240224D01*
X175451633Y-122488510D01*
X175451633Y-121736797D01*
X175224458Y-121739201D01*
X174997283Y-121741606D01*
X174866680Y-122030998D01*
X174840499Y-122088631D01*
X174810835Y-122153000D01*
X174783641Y-122211025D01*
X174759884Y-122260687D01*
X174759328Y-122261816D01*
X174740535Y-122299962D01*
X174726561Y-122326832D01*
X174718931Y-122339273D01*
X174713944Y-122344240D01*
X174707646Y-122348297D01*
X174698241Y-122351477D01*
X174683867Y-122353888D01*
X174662661Y-122355636D01*
X174632763Y-122356827D01*
X174592311Y-122357568D01*
X174539442Y-122357965D01*
X174472296Y-122358125D01*
X174389010Y-122358155D01*
X174076235Y-122358155D01*
X174053222Y-122397423D01*
X174052097Y-122399328D01*
X174009706Y-122454688D01*
X173957813Y-122495274D01*
X173897753Y-122520298D01*
X173830859Y-122528971D01*
X173785782Y-122526807D01*
X173729668Y-122514357D01*
X173680368Y-122489047D01*
X173632823Y-122448829D01*
X173607764Y-122420748D01*
X173572359Y-122362602D01*
X173554316Y-122300084D01*
X173554057Y-122266030D01*
X173705529Y-122266030D01*
X173706764Y-122286326D01*
X173715140Y-122310788D01*
X173734748Y-122335955D01*
X173744635Y-122345723D01*
X173783149Y-122370338D01*
X173823844Y-122378800D01*
X173863512Y-122371519D01*
X173898945Y-122348905D01*
X173926935Y-122311369D01*
X173931045Y-122302398D01*
X173938625Y-122261816D01*
X173930895Y-122221487D01*
X173909386Y-122185937D01*
X173875629Y-122159690D01*
X173871770Y-122157751D01*
X173837911Y-122144885D01*
X173807758Y-122144126D01*
X173772909Y-122155097D01*
X173765168Y-122158762D01*
X173733810Y-122184789D01*
X173713057Y-122221983D01*
X173705529Y-122266030D01*
X173554057Y-122266030D01*
X173553814Y-122234021D01*
X173571034Y-122165238D01*
X173591390Y-122123094D01*
X173631237Y-122072455D01*
X173681480Y-122033267D01*
X173739220Y-122006746D01*
X173801560Y-121994108D01*
X173865601Y-121996568D01*
X173928444Y-122015342D01*
X173945374Y-122024056D01*
X173986527Y-122053457D01*
X174025317Y-122091132D01*
X174056974Y-122132066D01*
X174076725Y-122171240D01*
X174089526Y-122209643D01*
X174354152Y-122209643D01*
X174618778Y-122209643D01*
X174750833Y-121917387D01*
X174786579Y-121838920D01*
X174823483Y-121759741D01*
X174853855Y-121696914D01*
X174877792Y-121650246D01*
X174895388Y-121619543D01*
X174906742Y-121604612D01*
X174908482Y-121603123D01*
X174915731Y-121597504D01*
X174924093Y-121593117D01*
X174935678Y-121589809D01*
X174952599Y-121587428D01*
X174976966Y-121585822D01*
X175010889Y-121584837D01*
X175056482Y-121584323D01*
X175115853Y-121584126D01*
X175191115Y-121584094D01*
X175451633Y-121584094D01*
X175451633Y-121521089D01*
X175451633Y-121458084D01*
X174992718Y-121458084D01*
X174533803Y-121458084D01*
X174519741Y-121491837D01*
X174511707Y-121508012D01*
X174482845Y-121547820D01*
X174443859Y-121586145D01*
X174399602Y-121617893D01*
X174395892Y-121620043D01*
X174367234Y-121633200D01*
X174334441Y-121641023D01*
X174290629Y-121645238D01*
X174252501Y-121646582D01*
X174223727Y-121644448D01*
X174197392Y-121637488D01*
X174165712Y-121624402D01*
X174129175Y-121605119D01*
X174076416Y-121562761D01*
X174038257Y-121510099D01*
X174015211Y-121447936D01*
X174010002Y-121398196D01*
X174157751Y-121398196D01*
X174170121Y-121434763D01*
X174197363Y-121468461D01*
X174199528Y-121470303D01*
X174230924Y-121486964D01*
X174269242Y-121495058D01*
X174305379Y-121492553D01*
X174328789Y-121482576D01*
X174359715Y-121456271D01*
X174381346Y-121421406D01*
X174389417Y-121383515D01*
X176207693Y-121383515D01*
X176207693Y-122088133D01*
X176207693Y-123564250D01*
X177683809Y-123564250D01*
X179159925Y-123564250D01*
X179159925Y-122799112D01*
X180744293Y-122799112D01*
X180752848Y-122838001D01*
X180774395Y-122872605D01*
X180808947Y-122899054D01*
X180813663Y-122901434D01*
X180844462Y-122913313D01*
X180870999Y-122913867D01*
X180901562Y-122903493D01*
X180918500Y-122894493D01*
X180950626Y-122865627D01*
X180969934Y-122829737D01*
X180976198Y-122790509D01*
X180969198Y-122751624D01*
X180948709Y-122716769D01*
X180914508Y-122689626D01*
X180882745Y-122676663D01*
X180848133Y-122675163D01*
X180809603Y-122688210D01*
X180796461Y-122695481D01*
X180766112Y-122723979D01*
X180748719Y-122759814D01*
X180744293Y-122799112D01*
X179159925Y-122799112D01*
X179159925Y-122088133D01*
X179159925Y-120612017D01*
X177683809Y-120612017D01*
X176207693Y-120612017D01*
X176207693Y-121383515D01*
X174389417Y-121383515D01*
X174385006Y-121344437D01*
X174368073Y-121309274D01*
X174336333Y-121280590D01*
X174329167Y-121276065D01*
X174290235Y-121261329D01*
X174252975Y-121261569D01*
X174219272Y-121274236D01*
X174191013Y-121296782D01*
X174170083Y-121326657D01*
X174158367Y-121361311D01*
X174157751Y-121398196D01*
X174010002Y-121398196D01*
X174007790Y-121377077D01*
X174009337Y-121347492D01*
X174024381Y-121279873D01*
X174054977Y-121221087D01*
X174100600Y-121171972D01*
X174160725Y-121133364D01*
X174163740Y-121131921D01*
X174214573Y-121116152D01*
X174272597Y-121110688D01*
X174330670Y-121115605D01*
X174381651Y-121130980D01*
X174435829Y-121163694D01*
X174482770Y-121208354D01*
X174516384Y-121259941D01*
X174537811Y-121305072D01*
X174994722Y-121305072D01*
X175451633Y-121305072D01*
X175451633Y-120985547D01*
X175451633Y-120666021D01*
X175239999Y-120666021D01*
X175028364Y-120666021D01*
X174938003Y-120803282D01*
X174911282Y-120842993D01*
X174882096Y-120884397D01*
X174856328Y-120918923D01*
X174836058Y-120943797D01*
X174823361Y-120956247D01*
X174822426Y-120956836D01*
X174815976Y-120960059D01*
X174807045Y-120962792D01*
X174794222Y-120965074D01*
X174776097Y-120966947D01*
X174751257Y-120968450D01*
X174718293Y-120969623D01*
X174675793Y-120970508D01*
X174622347Y-120971143D01*
X174556543Y-120971569D01*
X174476970Y-120971827D01*
X174382218Y-120971957D01*
X174270876Y-120971998D01*
X174209919Y-120971955D01*
X174110814Y-120971664D01*
X174019687Y-120971117D01*
X173937971Y-120970336D01*
X173867098Y-120969343D01*
X173808498Y-120968159D01*
X173763605Y-120966805D01*
X173733848Y-120965304D01*
X173720662Y-120963678D01*
X173713874Y-120958941D01*
X173695105Y-120941954D01*
X173666995Y-120914367D01*
X173631126Y-120877800D01*
X173589083Y-120833875D01*
X173542449Y-120784212D01*
X173492808Y-120730433D01*
X173286963Y-120505556D01*
X173255460Y-120535841D01*
X173205884Y-120572844D01*
X173146192Y-120598193D01*
X173082723Y-120608707D01*
X173019824Y-120603144D01*
X172957801Y-120581109D01*
X172902605Y-120545006D01*
X172858448Y-120497919D01*
X172826714Y-120442300D01*
X172808785Y-120380601D01*
X172807382Y-120347117D01*
X172959127Y-120347117D01*
X172968585Y-120385650D01*
X172990291Y-120419308D01*
X173023990Y-120443974D01*
X173057462Y-120456057D01*
X173092215Y-120456621D01*
X173128895Y-120442558D01*
X173138386Y-120436912D01*
X173169486Y-120407071D01*
X173187015Y-120369846D01*
X173190453Y-120329306D01*
X173179279Y-120289517D01*
X173152971Y-120254548D01*
X173138998Y-120243330D01*
X173098461Y-120225169D01*
X173055066Y-120224174D01*
X173011411Y-120240600D01*
X173006784Y-120243480D01*
X172977971Y-120271913D01*
X172962171Y-120307832D01*
X172959127Y-120347117D01*
X172807382Y-120347117D01*
X172806047Y-120315275D01*
X172819881Y-120248772D01*
X172821906Y-120243181D01*
X172847025Y-120196628D01*
X172883881Y-120152192D01*
X172927461Y-120115067D01*
X172972750Y-120090445D01*
X173022198Y-120077311D01*
X173079422Y-120072107D01*
X173134445Y-120076158D01*
X173180667Y-120089493D01*
X173187334Y-120092636D01*
X173244161Y-120129971D01*
X173290755Y-120180029D01*
X173324631Y-120239515D01*
X173343304Y-120305133D01*
X173344983Y-120314658D01*
X173348307Y-120326533D01*
X173349553Y-120329306D01*
X173354059Y-120339336D01*
X173363464Y-120354602D01*
X173377742Y-120373870D01*
X173398116Y-120398679D01*
X173425809Y-120430565D01*
X173462043Y-120471067D01*
X173508041Y-120521723D01*
X173565024Y-120584069D01*
X173780081Y-120819034D01*
X174262991Y-120819034D01*
X174745902Y-120819034D01*
X174839997Y-120678463D01*
X174869841Y-120634565D01*
X174898427Y-120593852D01*
X174922899Y-120560350D01*
X174941344Y-120536677D01*
X174951846Y-120525451D01*
X174957962Y-120522495D01*
X174972257Y-120519218D01*
X174995121Y-120516741D01*
X175028440Y-120514972D01*
X175074101Y-120513821D01*
X175133988Y-120513197D01*
X175209987Y-120513009D01*
X175450375Y-120513009D01*
X175452775Y-120349586D01*
X180639957Y-120349586D01*
X180651256Y-120388926D01*
X180676382Y-120422551D01*
X180713770Y-120446595D01*
X180742154Y-120456109D01*
X180770650Y-120456922D01*
X180802555Y-120446382D01*
X180805016Y-120445267D01*
X180841206Y-120420418D01*
X180863957Y-120388104D01*
X180873956Y-120351647D01*
X180871887Y-120314368D01*
X180858434Y-120279591D01*
X180834281Y-120250636D01*
X180800115Y-120230828D01*
X180756619Y-120223487D01*
X180752433Y-120223534D01*
X180709772Y-120231280D01*
X180676701Y-120253337D01*
X180650864Y-120291214D01*
X180644050Y-120308397D01*
X180639957Y-120349586D01*
X175452775Y-120349586D01*
X175453254Y-120317008D01*
X175456134Y-120121007D01*
X175485661Y-120061075D01*
X175488558Y-120055340D01*
X175531340Y-119991711D01*
X175588167Y-119937433D01*
X175656620Y-119894858D01*
X175659787Y-119893321D01*
X175688032Y-119881295D01*
X175716031Y-119873630D01*
X175749865Y-119869080D01*
X175795610Y-119866402D01*
X175883667Y-119862865D01*
X175883667Y-119517844D01*
X175883667Y-119172823D01*
X175825683Y-119145150D01*
X175807402Y-119135783D01*
X175750225Y-119095273D01*
X175708117Y-119044948D01*
X175681172Y-118984940D01*
X175669478Y-118915384D01*
X175669752Y-118906600D01*
X175821609Y-118906600D01*
X175830432Y-118945476D01*
X175850880Y-118979654D01*
X175882822Y-119004954D01*
X175906464Y-119014159D01*
X175946270Y-119017258D01*
X175983188Y-119006703D01*
X176014720Y-118985136D01*
X176038371Y-118955200D01*
X176051645Y-118919540D01*
X176052045Y-118880798D01*
X176037075Y-118841617D01*
X176036118Y-118840077D01*
X176017472Y-118816275D01*
X175997340Y-118798309D01*
X175988307Y-118793370D01*
X175952931Y-118784537D01*
X175913007Y-118785891D01*
X175876382Y-118797487D01*
X175866182Y-118803591D01*
X175839354Y-118831477D01*
X175824539Y-118867207D01*
X175821609Y-118906600D01*
X175669752Y-118906600D01*
X175671124Y-118862601D01*
X175687446Y-118796638D01*
X175719012Y-118738632D01*
X175764759Y-118690387D01*
X175823624Y-118653707D01*
X175825778Y-118652720D01*
X175880950Y-118635750D01*
X175941040Y-118630515D01*
X175999828Y-118636977D01*
X176051090Y-118655096D01*
X176088019Y-118677385D01*
X176139871Y-118723165D01*
X176179131Y-118780373D01*
X176184931Y-118792565D01*
X176199705Y-118844647D01*
X176202421Y-118880798D01*
X176204091Y-118903022D01*
X176198022Y-118961031D01*
X176181431Y-119012014D01*
X176160659Y-119046824D01*
X176129845Y-119084683D01*
X176095911Y-119116079D01*
X176063738Y-119135878D01*
X176036679Y-119147086D01*
X176036679Y-119506022D01*
X176036679Y-119864958D01*
X176207693Y-119864958D01*
X176378706Y-119864958D01*
X176378706Y-119515145D01*
X176378709Y-119486082D01*
X176378775Y-119402518D01*
X176378995Y-119334634D01*
X176379454Y-119280651D01*
X176380237Y-119238792D01*
X176381429Y-119207280D01*
X176383114Y-119184338D01*
X176385378Y-119168188D01*
X176388306Y-119157054D01*
X176391981Y-119149158D01*
X176396489Y-119142723D01*
X176397497Y-119141601D01*
X176411430Y-119130037D01*
X176438381Y-119110116D01*
X176476592Y-119083053D01*
X176524306Y-119050067D01*
X176579764Y-119012375D01*
X176641208Y-118971194D01*
X176706882Y-118927743D01*
X176999492Y-118735369D01*
X176999624Y-118320454D01*
X176999755Y-117905538D01*
X176963088Y-117889003D01*
X176958177Y-117886645D01*
X176921239Y-117861306D01*
X176884870Y-117825226D01*
X176854128Y-117784102D01*
X176834070Y-117743636D01*
X176822193Y-117695526D01*
X176820847Y-117652130D01*
X176972753Y-117652130D01*
X176974632Y-117681043D01*
X176983222Y-117704147D01*
X177002314Y-117728309D01*
X177010967Y-117736851D01*
X177047504Y-117758962D01*
X177087840Y-117766311D01*
X177127836Y-117759412D01*
X177163355Y-117738779D01*
X177190257Y-117704929D01*
X177202964Y-117673350D01*
X177204682Y-117636286D01*
X177190325Y-117597335D01*
X177171204Y-117570469D01*
X177138895Y-117546421D01*
X177102255Y-117535701D01*
X177064675Y-117537454D01*
X177029544Y-117550828D01*
X177000254Y-117574968D01*
X176980193Y-117609020D01*
X176972753Y-117652130D01*
X176820847Y-117652130D01*
X176820104Y-117628192D01*
X176834313Y-117563718D01*
X176863853Y-117504555D01*
X176907756Y-117453152D01*
X176965054Y-117411962D01*
X176965124Y-117411923D01*
X176992809Y-117397919D01*
X177017377Y-117389848D01*
X177045853Y-117386149D01*
X177085262Y-117385263D01*
X177102002Y-117385412D01*
X177140769Y-117387875D01*
X177170973Y-117394342D01*
X177199506Y-117406068D01*
X177248635Y-117437109D01*
X177297442Y-117484268D01*
X177333508Y-117539037D01*
X177335325Y-117542865D01*
X177350497Y-117593124D01*
X177354203Y-117636286D01*
X177355448Y-117650779D01*
X177350145Y-117708985D01*
X177334557Y-117760897D01*
X177315305Y-117795003D01*
X177279854Y-117838169D01*
X177237928Y-117874307D01*
X177194858Y-117898176D01*
X177152767Y-117914250D01*
X177152767Y-118353326D01*
X177152766Y-118360879D01*
X177152633Y-118448115D01*
X177152287Y-118529981D01*
X177151751Y-118604673D01*
X177151049Y-118670385D01*
X177150202Y-118725315D01*
X177149235Y-118767657D01*
X177148169Y-118795606D01*
X177147028Y-118807359D01*
X177145516Y-118809280D01*
X177131762Y-118820733D01*
X177105165Y-118840468D01*
X177067354Y-118867351D01*
X177019955Y-118900248D01*
X176964596Y-118938025D01*
X176902903Y-118979549D01*
X176836503Y-119023686D01*
X176531718Y-119225057D01*
X176531718Y-119545008D01*
X176531718Y-119864958D01*
X177283472Y-119864958D01*
X178035225Y-119864958D01*
X178032781Y-119692620D01*
X178030336Y-119520281D01*
X177731418Y-119385184D01*
X177690261Y-119366564D01*
X177619362Y-119334327D01*
X177562461Y-119308109D01*
X177517922Y-119287050D01*
X177484108Y-119270289D01*
X177459383Y-119256968D01*
X177442111Y-119246227D01*
X177430654Y-119237205D01*
X177423377Y-119229045D01*
X177418644Y-119220885D01*
X177418257Y-119220052D01*
X177414442Y-119209021D01*
X177411397Y-119193295D01*
X177409042Y-119170972D01*
X177407295Y-119140152D01*
X177406077Y-119098933D01*
X177405307Y-119045416D01*
X177404904Y-118977700D01*
X177404787Y-118893885D01*
X177404787Y-118596084D01*
X177371034Y-118574451D01*
X177339172Y-118551158D01*
X177292004Y-118501660D01*
X177259573Y-118445408D01*
X177242129Y-118384825D01*
X177241201Y-118358569D01*
X177393115Y-118358569D01*
X177406120Y-118396732D01*
X177434569Y-118432638D01*
X177449289Y-118443271D01*
X177485907Y-118456134D01*
X177526583Y-118457528D01*
X177564212Y-118446684D01*
X177565447Y-118446027D01*
X177587214Y-118427541D01*
X177608074Y-118399646D01*
X177623661Y-118369245D01*
X177629607Y-118343247D01*
X177623998Y-118317950D01*
X177608928Y-118286814D01*
X177588782Y-118258709D01*
X177567954Y-118240927D01*
X177537203Y-118229074D01*
X177495871Y-118225697D01*
X177459032Y-118235802D01*
X177428512Y-118256764D01*
X177406136Y-118285962D01*
X177393728Y-118320771D01*
X177393115Y-118358569D01*
X177241201Y-118358569D01*
X177239920Y-118322334D01*
X177253195Y-118260359D01*
X177282203Y-118201322D01*
X177327193Y-118147648D01*
X177345561Y-118131428D01*
X177400003Y-118096569D01*
X177459251Y-118078260D01*
X177526228Y-118075441D01*
X177526976Y-118075490D01*
X177593236Y-118088108D01*
X177651549Y-118115164D01*
X177700501Y-118154340D01*
X177738679Y-118203319D01*
X177764668Y-118259784D01*
X177777054Y-118321416D01*
X177776163Y-118343247D01*
X177774421Y-118385899D01*
X177755358Y-118450915D01*
X177747066Y-118467444D01*
X177718280Y-118508095D01*
X177680880Y-118546660D01*
X177639981Y-118578269D01*
X177600703Y-118598055D01*
X177562299Y-118610852D01*
X177559908Y-118870536D01*
X177559811Y-118881915D01*
X177559552Y-118949079D01*
X177559845Y-119009460D01*
X177560643Y-119060815D01*
X177561898Y-119100901D01*
X177563563Y-119127474D01*
X177565590Y-119138291D01*
X177572913Y-119142482D01*
X177595130Y-119153492D01*
X177630207Y-119170210D01*
X177676213Y-119191731D01*
X177731219Y-119217155D01*
X177793292Y-119245580D01*
X177860504Y-119276102D01*
X177916152Y-119301495D01*
X177980075Y-119331248D01*
X178037566Y-119358640D01*
X178086619Y-119382685D01*
X178125228Y-119402397D01*
X178151389Y-119416791D01*
X178163097Y-119424880D01*
X178164992Y-119427339D01*
X178169624Y-119435976D01*
X178173106Y-119448677D01*
X178175598Y-119467765D01*
X178177259Y-119495562D01*
X178178248Y-119534392D01*
X178178725Y-119586577D01*
X178178848Y-119654439D01*
X178178848Y-119864958D01*
X178246353Y-119864958D01*
X178313859Y-119864958D01*
X178313859Y-119461293D01*
X178313859Y-119057629D01*
X178277252Y-119041121D01*
X178264543Y-119034777D01*
X178217848Y-119001246D01*
X178176523Y-118956270D01*
X178145558Y-118905007D01*
X178138136Y-118886980D01*
X178123775Y-118823651D01*
X178124416Y-118799633D01*
X178274464Y-118799633D01*
X178283099Y-118838644D01*
X178302687Y-118873098D01*
X178330624Y-118896743D01*
X178350769Y-118905049D01*
X178394126Y-118910752D01*
X178435761Y-118901822D01*
X178471419Y-118879576D01*
X178496843Y-118845330D01*
X178499182Y-118840280D01*
X178510073Y-118806634D01*
X178508516Y-118776077D01*
X178494322Y-118740750D01*
X178469340Y-118707620D01*
X178435865Y-118686723D01*
X178398162Y-118678886D01*
X178359844Y-118683642D01*
X178324525Y-118700524D01*
X178295818Y-118729065D01*
X178277337Y-118768798D01*
X178274464Y-118799633D01*
X178124416Y-118799633D01*
X178125487Y-118759521D01*
X178142231Y-118697484D01*
X178172966Y-118640432D01*
X178216651Y-118591257D01*
X178272245Y-118552853D01*
X178282280Y-118548000D01*
X178336127Y-118531781D01*
X178395672Y-118526741D01*
X178454367Y-118532949D01*
X178505663Y-118550470D01*
X178547837Y-118576357D01*
X178599016Y-118624786D01*
X178636831Y-118685266D01*
X178650144Y-118720331D01*
X178660543Y-118783986D01*
X178658693Y-118806634D01*
X178655341Y-118847680D01*
X178635666Y-118908432D01*
X178602648Y-118963265D01*
X178557416Y-119009200D01*
X178501100Y-119043257D01*
X178466871Y-119058359D01*
X178466871Y-119461659D01*
X178466871Y-119864958D01*
X178786396Y-119864958D01*
X179105921Y-119864958D01*
X179105921Y-119708752D01*
X179105921Y-119552545D01*
X178965655Y-119459425D01*
X178922312Y-119430186D01*
X178881473Y-119401701D01*
X178847822Y-119377246D01*
X178823999Y-119358742D01*
X178812643Y-119348108D01*
X178810105Y-119342392D01*
X178807765Y-119331353D01*
X178805798Y-119313975D01*
X178804172Y-119288963D01*
X178802860Y-119255022D01*
X178801831Y-119210855D01*
X178801056Y-119155167D01*
X178800504Y-119086661D01*
X178800147Y-119004042D01*
X178799954Y-118906013D01*
X178799897Y-118791280D01*
X178800038Y-118673270D01*
X178800480Y-118564032D01*
X178801215Y-118469440D01*
X178802232Y-118390053D01*
X178803523Y-118326430D01*
X178805079Y-118279130D01*
X178806891Y-118248712D01*
X178808949Y-118235734D01*
X178813321Y-118230312D01*
X178829888Y-118213071D01*
X178857023Y-118186285D01*
X178893096Y-118151520D01*
X178936481Y-118110338D01*
X178985549Y-118064304D01*
X179038674Y-118014983D01*
X179259348Y-117811145D01*
X179230839Y-117778676D01*
X179220311Y-117766142D01*
X179188143Y-117715757D01*
X179170332Y-117660982D01*
X179165059Y-117596780D01*
X179165356Y-117590742D01*
X179315249Y-117590742D01*
X179322216Y-117634217D01*
X179325226Y-117641799D01*
X179340970Y-117669350D01*
X179359163Y-117689211D01*
X179375123Y-117698730D01*
X179413958Y-117710012D01*
X179454578Y-117709600D01*
X179489651Y-117697052D01*
X179490252Y-117696673D01*
X179523540Y-117669211D01*
X179541548Y-117636503D01*
X179546956Y-117593718D01*
X179546733Y-117580444D01*
X179543266Y-117556821D01*
X179532854Y-117537538D01*
X179512012Y-117514715D01*
X179504719Y-117507555D01*
X179483160Y-117489780D01*
X179463048Y-117481688D01*
X179436837Y-117479771D01*
X179422582Y-117480495D01*
X179379948Y-117492474D01*
X179346355Y-117516853D01*
X179324042Y-117550615D01*
X179315249Y-117590742D01*
X179165356Y-117590742D01*
X179166661Y-117564201D01*
X179180992Y-117497219D01*
X179210342Y-117440116D01*
X179254920Y-117392551D01*
X179314937Y-117354182D01*
X179378025Y-117331904D01*
X179443227Y-117326539D01*
X179507682Y-117338064D01*
X179569252Y-117366093D01*
X179625798Y-117410239D01*
X179652517Y-117441895D01*
X179681628Y-117497516D01*
X179697455Y-117559957D01*
X179698322Y-117593718D01*
X179699131Y-117625189D01*
G37*
%TD*%
M02*
