%TF.GenerationSoftware,KiCad,Pcbnew,7.0.10*%
%TF.CreationDate,2024-07-15T02:50:03-03:00*%
%TF.ProjectId,board,626f6172-642e-46b6-9963-61645f706362,1.0*%
%TF.SameCoordinates,Original*%
%TF.FileFunction,Soldermask,Bot*%
%TF.FilePolarity,Negative*%
%FSLAX46Y46*%
G04 Gerber Fmt 4.6, Leading zero omitted, Abs format (unit mm)*
G04 Created by KiCad (PCBNEW 7.0.10) date 2024-07-15 02:50:03*
%MOMM*%
%LPD*%
G01*
G04 APERTURE LIST*
%ADD10O,1.712000X1.712000*%
%ADD11C,1.712000*%
%ADD12O,3.000000X3.000000*%
%ADD13C,3.000000*%
%ADD14O,1.700000X1.700000*%
G04 APERTURE END LIST*
D10*
%TO.C,TP2*%
X115189600Y-78079600D03*
D11*
X115189600Y-90779600D03*
X125189600Y-90779600D03*
X125189600Y-78079600D03*
%TD*%
D10*
%TO.C,TP1*%
X115189600Y-60680600D03*
D11*
X115189600Y-73380600D03*
X125189600Y-73380600D03*
X125189600Y-60680600D03*
%TD*%
D12*
%TO.C,J7*%
X173101600Y-114782600D03*
D13*
X178181600Y-114782600D03*
%TD*%
D10*
%TO.C,TP3*%
X115189600Y-95478600D03*
D11*
X115189600Y-108178600D03*
X125189600Y-108178600D03*
X125189600Y-95478600D03*
%TD*%
D14*
%TO.C,P1*%
X143370600Y-69209600D03*
X145910600Y-69209600D03*
X148450600Y-69209600D03*
%TD*%
%TO.C,SW1*%
X125222600Y-48728600D03*
X127762600Y-48728600D03*
X130302600Y-48728600D03*
%TD*%
D12*
%TO.C,J4*%
X142621600Y-114782600D03*
D13*
X147701600Y-114782600D03*
%TD*%
D12*
%TO.C,J3*%
X109093600Y-114782600D03*
D13*
X114173600Y-114782600D03*
%TD*%
D14*
%TO.C,P4*%
X167767600Y-64871600D03*
X170307600Y-64871600D03*
X172847600Y-64871600D03*
%TD*%
D12*
%TO.C,J6*%
X162941600Y-114782600D03*
D13*
X168021600Y-114782600D03*
%TD*%
D14*
%TO.C,P5*%
X164567600Y-59664600D03*
X162027600Y-59664600D03*
X159487600Y-59664600D03*
X156947600Y-59664600D03*
X154407600Y-59664600D03*
X151867600Y-59664600D03*
%TD*%
%TO.C,P3*%
X166507600Y-70078600D03*
X169047600Y-70078600D03*
X171587600Y-70078600D03*
X174127600Y-70078600D03*
%TD*%
D12*
%TO.C,J2*%
X119253600Y-114782600D03*
D13*
X124333600Y-114782600D03*
%TD*%
D14*
%TO.C,P2*%
X170434600Y-59664600D03*
%TD*%
D12*
%TO.C,J5*%
X152781600Y-114782600D03*
D13*
X157861600Y-114782600D03*
%TD*%
D12*
%TO.C,J1*%
X112674600Y-49885600D03*
D13*
X112674600Y-54965600D03*
%TD*%
M02*
