M48
; DRILL file {KiCad 7.0.10} date Thu Apr  4 21:44:29 2024
; FORMAT={-:-/ absolute / metric / decimal}
; #@! TF.CreationDate,2024-04-04T21:44:29-03:00
; #@! TF.GenerationSoftware,Kicad,Pcbnew,7.0.10
; #@! TF.FileFunction,Plated,1,2,PTH
FMAT,2
METRIC
; #@! TA.AperFunction,Plated,PTH,ViaDrill
T1C0.200
; #@! TA.AperFunction,Plated,PTH,ViaDrill
T2C0.400
; #@! TA.AperFunction,Plated,PTH,ComponentDrill
T3C0.750
; #@! TA.AperFunction,Plated,PTH,ComponentDrill
T4C0.800
; #@! TA.AperFunction,Plated,PTH,ComponentDrill
T5C1.000
; #@! TA.AperFunction,Plated,PTH,ComponentDrill
T6C1.020
; #@! TA.AperFunction,Plated,PTH,ComponentDrill
T7C1.100
; #@! TA.AperFunction,Plated,PTH,ComponentDrill
T8C1.300
; #@! TA.AperFunction,Plated,PTH,ComponentDrill
T9C1.520
%
G90
G05
T1
X164.211Y-64.135
X164.211Y-68.707
X167.64Y-130.683
X168.275Y-131.953
X168.91Y-131.318
X169.545Y-132.588
X188.982Y-70.104
X189.617Y-69.469
X190.252Y-68.834
X190.887Y-68.199
X191.262Y-73.152
X191.522Y-67.564
X192.157Y-67.03
X199.142Y-60.947
X199.142Y-66.294
X199.777Y-59.677
X199.777Y-65.633
X200.412Y-58.407
X200.412Y-64.998
X201.041Y-57.137
X201.047Y-64.363
X202.311Y-84.201
X202.946Y-88.773
X203.581Y-93.345
X204.216Y-97.917
X204.851Y-102.489
X205.486Y-107.061
X206.121Y-111.633
X206.756Y-116.205
X207.391Y-120.777
X208.026Y-125.349
T2
X162.814Y-128.905
T3
X192.908Y-83.058
X192.908Y-87.63
X192.908Y-119.634
X192.913Y-85.344
X192.913Y-89.916
X192.913Y-92.202
X192.913Y-96.774
X192.913Y-99.06
X192.913Y-101.346
X192.913Y-103.632
X192.913Y-105.918
X192.913Y-108.204
X192.913Y-110.49
X192.913Y-112.776
X192.913Y-115.062
X192.913Y-117.348
X192.913Y-124.206
X192.913Y-126.492
X192.918Y-94.488
X192.918Y-121.92
X200.528Y-83.058
X200.528Y-87.63
X200.528Y-119.634
X200.533Y-85.344
X200.533Y-89.916
X200.533Y-92.202
X200.533Y-96.774
X200.533Y-99.06
X200.533Y-101.346
X200.533Y-103.632
X200.533Y-105.918
X200.533Y-108.204
X200.533Y-110.49
X200.533Y-112.776
X200.533Y-115.062
X200.533Y-117.348
X200.533Y-124.206
X200.533Y-126.492
X200.538Y-94.488
X200.538Y-121.92
T4
X92.177Y-36.853
X92.177Y-47.013
X101.981Y-67.564
X101.981Y-72.644
X101.981Y-77.724
X112.141Y-67.564
X112.141Y-72.644
X112.141Y-77.724
X112.243Y-36.853
X112.243Y-47.013
X116.307Y-36.853
X116.307Y-47.013
X116.372Y-136.144
X118.872Y-136.144
X125.984Y-120.015
X125.984Y-123.444
X136.144Y-120.015
X136.144Y-123.444
X136.373Y-36.853
X136.373Y-47.013
X140.31Y-36.853
X140.31Y-47.013
X151.892Y-70.104
X151.892Y-80.264
X151.892Y-87.884
X151.892Y-98.044
X151.892Y-105.664
X151.892Y-115.824
X156.591Y-75.819
X156.591Y-85.979
X156.591Y-89.281
X156.591Y-99.441
X156.591Y-102.743
X156.591Y-112.903
X160.147Y-75.819
X160.147Y-85.979
X160.147Y-89.281
X160.147Y-99.441
X160.147Y-102.743
X160.147Y-112.903
X160.376Y-36.853
X160.376Y-47.013
X164.567Y-36.853
X164.567Y-47.013
X184.633Y-36.853
X184.633Y-47.013
T5
X90.366Y-113.904
X90.366Y-127.904
X90.398Y-95.679
X90.398Y-101.679
X109.099Y-133.832
X109.099Y-136.372
X109.099Y-138.912
X113.116Y-113.904
X113.116Y-117.404
X113.116Y-124.404
X113.116Y-127.904
X117.094Y-63.5
X119.634Y-63.5
X122.174Y-63.5
X123.998Y-89.679
X123.998Y-107.679
X135.081Y-67.564
X135.081Y-80.264
X135.081Y-85.344
X135.081Y-98.044
X135.081Y-103.124
X135.081Y-115.824
X145.081Y-67.564
X145.081Y-80.264
X145.081Y-85.344
X145.081Y-98.044
X145.081Y-103.124
X145.081Y-115.824
X158.369Y-65.151
X158.369Y-67.691
X158.369Y-70.231
X192.913Y-132.207
X194.056Y-73.152
X194.056Y-75.692
X194.056Y-78.232
X195.326Y-36.83
X195.326Y-39.37
X195.326Y-41.91
X195.326Y-44.45
X195.326Y-46.99
X195.326Y-49.53
X195.453Y-132.207
X197.993Y-132.207
X200.533Y-132.207
X203.073Y-132.207
X203.904Y-36.83
X203.904Y-39.37
X203.904Y-41.91
X203.904Y-44.45
X203.911Y-49.53
X205.613Y-132.207
T6
X165.481Y-73.152
X165.481Y-75.692
X165.481Y-78.232
X165.481Y-80.772
X165.481Y-83.312
X165.481Y-85.852
X165.481Y-88.392
X165.481Y-90.932
X165.481Y-93.472
X165.481Y-96.012
X165.481Y-98.552
X165.481Y-101.092
X165.481Y-103.632
X165.481Y-106.172
X165.481Y-108.712
X165.481Y-111.252
X165.481Y-113.792
X165.481Y-116.332
X165.481Y-118.872
X165.481Y-121.412
X165.481Y-123.952
X165.481Y-126.492
X188.341Y-73.152
X188.341Y-75.692
X188.341Y-78.232
X188.341Y-80.772
X188.341Y-83.312
X188.341Y-85.852
X188.341Y-88.392
X188.341Y-90.932
X188.341Y-93.472
X188.341Y-96.012
X188.341Y-98.552
X188.341Y-101.092
X188.341Y-103.632
X188.341Y-106.172
X188.341Y-108.712
X188.341Y-111.252
X188.341Y-113.792
X188.341Y-116.332
X188.341Y-118.872
X188.341Y-121.412
X188.341Y-123.952
X188.341Y-126.492
T7
X97.13Y-54.991
X107.29Y-54.991
X121.26Y-54.991
X121.976Y-118.364
X121.976Y-120.904
X121.976Y-123.444
X131.42Y-54.991
X145.263Y-54.991
X155.423Y-54.991
X169.647Y-54.991
X179.807Y-54.991
T8
X96.21Y-36.853
X96.21Y-49.053
X102.21Y-51.053
X108.21Y-36.853
X108.21Y-49.053
X120.34Y-36.853
X120.34Y-49.053
X126.34Y-51.053
X132.34Y-36.853
X132.34Y-49.053
X144.343Y-36.853
X144.343Y-49.053
X150.343Y-51.053
X156.343Y-36.853
X156.343Y-49.053
X168.631Y-36.853
X168.631Y-49.053
X174.631Y-51.053
X180.631Y-36.853
X180.631Y-49.053
T9
X94.996Y-67.564
X94.996Y-72.644
X94.996Y-77.724
X94.996Y-82.804
X95.637Y-134.62
X100.717Y-134.62
X125.222Y-134.62
X130.302Y-134.62
X135.382Y-134.62
X140.462Y-134.62
X145.542Y-134.62
X150.622Y-134.62
X155.702Y-134.62
X160.782Y-134.62
M30
