M48
; DRILL file {KiCad 7.0.10} date Mon Apr  1 07:54:36 2024
; FORMAT={-:-/ absolute / metric / decimal}
; #@! TF.CreationDate,2024-04-01T07:54:36-03:00
; #@! TF.GenerationSoftware,Kicad,Pcbnew,7.0.10
; #@! TF.FileFunction,Plated,1,2,PTH
FMAT,2
METRIC
; #@! TA.AperFunction,Plated,PTH,ViaDrill
T1C0.200
; #@! TA.AperFunction,Plated,PTH,ViaDrill
T2C0.400
; #@! TA.AperFunction,Plated,PTH,ComponentDrill
T3C0.750
; #@! TA.AperFunction,Plated,PTH,ComponentDrill
T4C0.800
; #@! TA.AperFunction,Plated,PTH,ComponentDrill
T5C1.000
; #@! TA.AperFunction,Plated,PTH,ComponentDrill
T6C1.020
; #@! TA.AperFunction,Plated,PTH,ComponentDrill
T7C1.100
; #@! TA.AperFunction,Plated,PTH,ComponentDrill
T8C1.300
; #@! TA.AperFunction,Plated,PTH,ComponentDrill
T9C1.520
%
G90
G05
T1
X159.76Y-65.812
X159.76Y-70.384
X163.189Y-132.36
X163.824Y-133.63
X164.459Y-132.995
X165.094Y-134.265
X186.811Y-74.829
X197.86Y-85.878
X198.495Y-90.45
X199.13Y-95.022
X199.765Y-99.594
X200.4Y-104.166
X201.035Y-108.738
X201.67Y-113.31
X202.305Y-117.882
X202.94Y-122.454
X203.575Y-127.026
X210.687Y-113.31
X211.957Y-115.85
X213.227Y-118.39
X214.497Y-120.93
T2
X158.363Y-130.582
T3
X188.457Y-84.735
X188.457Y-89.307
X188.457Y-121.311
X188.462Y-87.021
X188.462Y-91.593
X188.462Y-93.879
X188.462Y-98.451
X188.462Y-100.737
X188.462Y-103.023
X188.462Y-105.309
X188.462Y-107.595
X188.462Y-109.881
X188.462Y-112.167
X188.462Y-114.453
X188.462Y-116.739
X188.462Y-119.025
X188.462Y-125.883
X188.462Y-128.169
X188.467Y-96.165
X188.467Y-123.597
X196.077Y-84.735
X196.077Y-89.307
X196.077Y-121.311
X196.082Y-87.021
X196.082Y-91.593
X196.082Y-93.879
X196.082Y-98.451
X196.082Y-100.737
X196.082Y-103.023
X196.082Y-105.309
X196.082Y-107.595
X196.082Y-109.881
X196.082Y-112.167
X196.082Y-114.453
X196.082Y-116.739
X196.082Y-119.025
X196.082Y-125.883
X196.082Y-128.169
X196.087Y-96.165
X196.087Y-123.597
T4
X82.29Y-38.53
X82.29Y-48.69
X97.53Y-69.241
X97.53Y-74.321
X97.53Y-79.401
X102.356Y-38.53
X102.356Y-48.69
X106.42Y-38.53
X106.42Y-48.69
X107.69Y-69.241
X107.69Y-74.321
X107.69Y-79.401
X111.921Y-137.821
X114.421Y-137.821
X121.533Y-121.692
X121.533Y-125.121
X126.486Y-38.53
X126.486Y-48.69
X130.423Y-38.53
X130.423Y-48.69
X131.693Y-121.692
X131.693Y-125.121
X147.441Y-71.781
X147.441Y-81.941
X147.441Y-89.561
X147.441Y-99.721
X147.441Y-107.341
X147.441Y-117.501
X150.489Y-38.53
X150.489Y-48.69
X152.14Y-77.496
X152.14Y-87.656
X152.14Y-90.958
X152.14Y-101.118
X152.14Y-104.42
X152.14Y-114.58
X154.68Y-38.53
X154.68Y-48.69
X155.696Y-77.496
X155.696Y-87.656
X155.696Y-90.958
X155.696Y-101.118
X155.696Y-104.42
X155.696Y-114.58
X174.746Y-38.53
X174.746Y-48.69
T5
X85.915Y-115.581
X85.915Y-129.581
X85.948Y-97.356
X85.948Y-103.356
X99.689Y-137.821
X102.229Y-137.821
X104.769Y-137.821
X108.665Y-115.581
X108.665Y-119.081
X108.665Y-126.081
X108.665Y-129.581
X112.643Y-65.177
X115.183Y-65.177
X117.723Y-65.177
X119.548Y-91.356
X119.548Y-109.356
X130.63Y-69.241
X130.63Y-81.941
X130.63Y-87.021
X130.63Y-99.721
X130.63Y-104.801
X130.63Y-117.501
X135.453Y-123.394
X140.63Y-69.241
X140.63Y-81.941
X140.63Y-87.021
X140.63Y-99.721
X140.63Y-104.801
X140.63Y-117.501
X153.918Y-66.828
X153.918Y-69.368
X153.918Y-71.908
X188.462Y-133.884
X189.605Y-74.829
X189.605Y-77.369
X189.605Y-79.909
X191.002Y-133.884
X193.542Y-133.884
X196.082Y-133.884
X198.622Y-133.884
X201.162Y-133.884
X205.988Y-85.878
X205.988Y-88.418
X205.988Y-90.958
X205.988Y-93.498
X205.988Y-96.038
X205.988Y-98.578
X205.988Y-113.31
X205.988Y-115.85
X205.988Y-118.39
X205.988Y-120.93
T6
X161.03Y-74.829
X161.03Y-77.369
X161.03Y-79.909
X161.03Y-82.449
X161.03Y-84.989
X161.03Y-87.529
X161.03Y-90.069
X161.03Y-92.609
X161.03Y-95.149
X161.03Y-97.689
X161.03Y-100.229
X161.03Y-102.769
X161.03Y-105.309
X161.03Y-107.849
X161.03Y-110.389
X161.03Y-112.929
X161.03Y-115.469
X161.03Y-118.009
X161.03Y-120.549
X161.03Y-123.089
X161.03Y-125.629
X161.03Y-128.169
X183.89Y-74.829
X183.89Y-77.369
X183.89Y-79.909
X183.89Y-82.449
X183.89Y-84.989
X183.89Y-87.529
X183.89Y-90.069
X183.89Y-92.609
X183.89Y-95.149
X183.89Y-97.689
X183.89Y-100.229
X183.89Y-102.769
X183.89Y-105.309
X183.89Y-107.849
X183.89Y-110.389
X183.89Y-112.929
X183.89Y-115.469
X183.89Y-118.009
X183.89Y-120.549
X183.89Y-123.089
X183.89Y-125.629
X183.89Y-128.169
T7
X87.243Y-56.668
X97.403Y-56.668
X111.373Y-56.668
X117.525Y-120.041
X117.525Y-122.581
X117.525Y-125.121
X121.533Y-56.668
X135.376Y-56.668
X145.536Y-56.668
X159.76Y-56.668
X169.92Y-56.668
T8
X86.323Y-38.53
X86.323Y-50.73
X92.323Y-52.73
X98.323Y-38.53
X98.323Y-50.73
X110.453Y-38.53
X110.453Y-50.73
X116.453Y-52.73
X122.453Y-38.53
X122.453Y-50.73
X134.456Y-38.53
X134.456Y-50.73
X140.456Y-52.73
X146.456Y-38.53
X146.456Y-50.73
X158.744Y-38.53
X158.744Y-50.73
X164.744Y-52.73
X170.744Y-38.53
X170.744Y-50.73
T9
X90.545Y-69.241
X90.545Y-74.321
X90.545Y-79.401
X90.545Y-84.481
X90.545Y-135.281
X90.545Y-140.361
X120.771Y-136.297
X125.851Y-136.297
X130.931Y-136.297
X136.011Y-136.297
X141.091Y-136.297
X146.171Y-136.297
X151.251Y-136.297
X156.331Y-136.297
M30
