%TF.GenerationSoftware,KiCad,Pcbnew,7.0.10*%
%TF.CreationDate,2024-04-04T21:44:23-03:00*%
%TF.ProjectId,board,626f6172-642e-46b6-9963-61645f706362,1.8*%
%TF.SameCoordinates,Original*%
%TF.FileFunction,Copper,L1,Top*%
%TF.FilePolarity,Positive*%
%FSLAX46Y46*%
G04 Gerber Fmt 4.6, Leading zero omitted, Abs format (unit mm)*
G04 Created by KiCad (PCBNEW 7.0.10) date 2024-04-04 21:44:23*
%MOMM*%
%LPD*%
G01*
G04 APERTURE LIST*
%TA.AperFunction,ComponentPad*%
%ADD10C,1.600000*%
%TD*%
%TA.AperFunction,ComponentPad*%
%ADD11O,1.600000X1.600000*%
%TD*%
%TA.AperFunction,ComponentPad*%
%ADD12O,3.000000X3.000000*%
%TD*%
%TA.AperFunction,ComponentPad*%
%ADD13C,3.000000*%
%TD*%
%TA.AperFunction,ComponentPad*%
%ADD14C,1.950000*%
%TD*%
%TA.AperFunction,ComponentPad*%
%ADD15O,1.700000X1.700000*%
%TD*%
%TA.AperFunction,ComponentPad*%
%ADD16O,1.500000X1.500000*%
%TD*%
%TA.AperFunction,ComponentPad*%
%ADD17O,1.508000X1.508000*%
%TD*%
%TA.AperFunction,ComponentPad*%
%ADD18C,1.508000*%
%TD*%
%TA.AperFunction,ComponentPad*%
%ADD19O,1.676400X1.676400*%
%TD*%
%TA.AperFunction,ComponentPad*%
%ADD20O,2.000000X2.000000*%
%TD*%
%TA.AperFunction,ComponentPad*%
%ADD21C,2.000000*%
%TD*%
%TA.AperFunction,ComponentPad*%
%ADD22O,2.200000X2.200000*%
%TD*%
%TA.AperFunction,ComponentPad*%
%ADD23O,1.530000X1.530000*%
%TD*%
%TA.AperFunction,ComponentPad*%
%ADD24C,1.530000*%
%TD*%
%TA.AperFunction,ComponentPad*%
%ADD25O,2.000000X1.905000*%
%TD*%
%TA.AperFunction,ViaPad*%
%ADD26C,0.400000*%
%TD*%
%TA.AperFunction,ViaPad*%
%ADD27C,0.800000*%
%TD*%
%TA.AperFunction,Conductor*%
%ADD28C,0.200000*%
%TD*%
%TA.AperFunction,Conductor*%
%ADD29C,0.400000*%
%TD*%
%TA.AperFunction,Conductor*%
%ADD30C,0.500000*%
%TD*%
G04 APERTURE END LIST*
D10*
%TO.P,R21,1*%
%TO.N,TC A-1*%
X160375600Y-47013000D03*
D11*
%TO.P,R21,2*%
%TO.N,Net-(K3-PadNO)*%
X160375600Y-36853000D03*
%TD*%
D12*
%TO.P,J6,1,Pin_1*%
%TO.N,C Cwave*%
X135382000Y-134620000D03*
D13*
%TO.P,J6,2,Pin_2*%
%TO.N,TC A-1*%
X140462000Y-134620000D03*
%TD*%
D14*
%TO.P,K2,COIL1*%
%TO.N,Select C Level*%
X120339600Y-49053000D03*
%TO.P,K2,COIL2*%
%TO.N,GND*%
X132339600Y-49053000D03*
%TO.P,K2,COM*%
%TO.N,B Cwave*%
X126339600Y-51053000D03*
%TO.P,K2,NC*%
%TO.N,Net-(K2-PadNC)*%
X120339600Y-36853000D03*
%TO.P,K2,NO*%
%TO.N,Net-(K2-PadNO)*%
X132339600Y-36853000D03*
%TD*%
D10*
%TO.P,R15,1*%
%TO.N,TC A-1*%
X92176600Y-47013000D03*
D11*
%TO.P,R15,2*%
%TO.N,Net-(K1-PadNC)*%
X92176600Y-36853000D03*
%TD*%
D14*
%TO.P,K4,COIL1*%
%TO.N,Select C Level*%
X168630600Y-49053000D03*
%TO.P,K4,COIL2*%
%TO.N,GND*%
X180630600Y-49053000D03*
%TO.P,K4,COM*%
%TO.N,N Cwave*%
X174630600Y-51053000D03*
%TO.P,K4,NC*%
%TO.N,Net-(K4-PadNC)*%
X168630600Y-36853000D03*
%TO.P,K4,NO*%
%TO.N,Net-(K4-PadNO)*%
X180630600Y-36853000D03*
%TD*%
D15*
%TO.P,P1,1,Pin_1*%
%TO.N,UART RX*%
X194056000Y-78232000D03*
%TO.P,P1,2,Pin_2*%
%TO.N,UART TX*%
X194056000Y-75692000D03*
%TO.P,P1,3,Pin_3*%
%TO.N,GND*%
X194056000Y-73152000D03*
%TD*%
D10*
%TO.P,R10,1*%
%TO.N,B Vwave*%
X156591000Y-99441000D03*
D11*
%TO.P,R10,2*%
%TO.N,AB Vwave*%
X156591000Y-89281000D03*
%TD*%
D10*
%TO.P,R22,1*%
%TO.N,TC A-1*%
X184632600Y-47013000D03*
D11*
%TO.P,R22,2*%
%TO.N,Net-(K4-PadNO)*%
X184632600Y-36853000D03*
%TD*%
D10*
%TO.P,R5,1*%
%TO.N,Net-(R5-Pad1)*%
X112141000Y-77724000D03*
D11*
%TO.P,R5,2*%
%TO.N,Line C*%
X101981000Y-77724000D03*
%TD*%
D16*
%TO.P,DZ5,1,K*%
%TO.N,Vcc*%
X192913000Y-92202000D03*
%TO.P,DZ5,2,A*%
%TO.N,A Vwave*%
X200533000Y-92202000D03*
%TD*%
D17*
%TO.P,T1,1*%
%TO.N,Net-(R3-Pad1)*%
X135081000Y-67564000D03*
D18*
%TO.P,T1,2*%
%TO.N,Neutral*%
X135081000Y-80264000D03*
%TO.P,T1,3*%
%TO.N,A Vwave*%
X145081000Y-80264000D03*
%TO.P,T1,4*%
%TO.N,TC A-1*%
X145081000Y-67564000D03*
%TD*%
D10*
%TO.P,R8,1*%
%TO.N,C Vwave*%
X151892000Y-115824000D03*
D11*
%TO.P,R8,2*%
%TO.N,TC A-1*%
X151892000Y-105664000D03*
%TD*%
D19*
%TO.P,U1,B+,B+*%
%TO.N,Battery +*%
X113116000Y-117404000D03*
%TO.P,U1,B-,B-*%
%TO.N,Battery -*%
X113116000Y-124404000D03*
%TO.P,U1,IN+,IN+*%
%TO.N,Net-(PS1-+Vout)*%
X90366000Y-113904000D03*
%TO.P,U1,IN-,IN-*%
%TO.N,Net-(PS1--Vout)*%
X90366000Y-127904000D03*
%TO.P,U1,OUT+,OUT+*%
%TO.N,Vin*%
X113116000Y-113904000D03*
%TO.P,U1,OUT-,OUT-*%
%TO.N,GND*%
X113116000Y-127904000D03*
%TD*%
D15*
%TO.P,P3,1,Pin_1*%
%TO.N,A Cwave*%
X203904100Y-36830000D03*
%TO.P,P3,2,Pin_2*%
%TO.N,B Cwave*%
X203904100Y-39370000D03*
%TO.P,P3,3,Pin_3*%
%TO.N,C Cwave*%
X203904100Y-41910000D03*
%TO.P,P3,4,Pin_4*%
%TO.N,N Cwave*%
X203904100Y-44450000D03*
%TD*%
D10*
%TO.P,R20,1*%
%TO.N,TC A-1*%
X136372600Y-47013000D03*
D11*
%TO.P,R20,2*%
%TO.N,Net-(K2-PadNO)*%
X136372600Y-36853000D03*
%TD*%
D16*
%TO.P,DZ13,1,K*%
%TO.N,Vcc*%
X192913000Y-110490000D03*
%TO.P,DZ13,2,A*%
%TO.N,A Cwave*%
X200533000Y-110490000D03*
%TD*%
%TO.P,DZ4,1,K*%
%TO.N,B Vwave*%
X200533000Y-89916000D03*
%TO.P,DZ4,2,A*%
%TO.N,GND*%
X192913000Y-89916000D03*
%TD*%
D15*
%TO.P,P2,1,Pin_1*%
%TO.N,TC A-1*%
X203911200Y-49530000D03*
%TD*%
D16*
%TO.P,DZ9,1,K*%
%TO.N,Vcc*%
X192913000Y-101346000D03*
%TO.P,DZ9,2,A*%
%TO.N,AB Vwave*%
X200533000Y-101346000D03*
%TD*%
%TO.P,DZ1,1,K*%
%TO.N,Vcc*%
X192908000Y-83058000D03*
%TO.P,DZ1,2,A*%
%TO.N,C Vwave*%
X200528000Y-83058000D03*
%TD*%
D10*
%TO.P,R11,1*%
%TO.N,BC Vwave*%
X156591000Y-112903000D03*
D11*
%TO.P,R11,2*%
%TO.N,B Vwave*%
X156591000Y-102743000D03*
%TD*%
%TO.P,C1,1*%
%TO.N,Vcc*%
X116372000Y-136144000D03*
D10*
%TO.P,C1,2*%
%TO.N,GND*%
X118872000Y-136144000D03*
%TD*%
D16*
%TO.P,DZ12,1,K*%
%TO.N,CA Vwave*%
X200533000Y-108204000D03*
%TO.P,DZ12,2,A*%
%TO.N,GND*%
X192913000Y-108204000D03*
%TD*%
D10*
%TO.P,R19,1*%
%TO.N,TC A-1*%
X112242600Y-47013000D03*
D11*
%TO.P,R19,2*%
%TO.N,Net-(K1-PadNO)*%
X112242600Y-36853000D03*
%TD*%
D10*
%TO.P,R1,1*%
%TO.N,Vcc*%
X125984000Y-120015000D03*
D11*
%TO.P,R1,2*%
%TO.N,TC A-1*%
X136144000Y-120015000D03*
%TD*%
D15*
%TO.P,SW3,1,A*%
%TO.N,Vcc*%
X117094000Y-63500000D03*
%TO.P,SW3,2,B*%
%TO.N,Select C Level*%
X119634000Y-63500000D03*
%TO.P,SW3,3,C*%
%TO.N,GND*%
X122174000Y-63500000D03*
%TD*%
D12*
%TO.P,J3,1,Pin_1*%
%TO.N,Line A*%
X94996000Y-67564000D03*
D13*
%TO.P,J3,2,Pin_2*%
%TO.N,Line B*%
X94996000Y-72644000D03*
%TD*%
D10*
%TO.P,R2,1*%
%TO.N,TC A-1*%
X136144000Y-123444000D03*
D11*
%TO.P,R2,2*%
%TO.N,GND*%
X125984000Y-123444000D03*
%TD*%
D16*
%TO.P,DZ8,1,K*%
%TO.N,BC Vwave*%
X200533000Y-99060000D03*
%TO.P,DZ8,2,A*%
%TO.N,GND*%
X192913000Y-99060000D03*
%TD*%
D10*
%TO.P,R9,1*%
%TO.N,AB Vwave*%
X156591000Y-85979000D03*
D11*
%TO.P,R9,2*%
%TO.N,A Vwave*%
X156591000Y-75819000D03*
%TD*%
D16*
%TO.P,DZ3,1,K*%
%TO.N,Vcc*%
X192908000Y-87630000D03*
%TO.P,DZ3,2,A*%
%TO.N,B Vwave*%
X200528000Y-87630000D03*
%TD*%
D17*
%TO.P,T2,1*%
%TO.N,Net-(R4-Pad1)*%
X135081000Y-85344000D03*
D18*
%TO.P,T2,2*%
%TO.N,Neutral*%
X135081000Y-98044000D03*
%TO.P,T2,3*%
%TO.N,B Vwave*%
X145081000Y-98044000D03*
%TO.P,T2,4*%
%TO.N,TC A-1*%
X145081000Y-85344000D03*
%TD*%
D16*
%TO.P,DZ17,1,K*%
%TO.N,Vcc*%
X192908000Y-119634000D03*
%TO.P,DZ17,2,A*%
%TO.N,C Cwave*%
X200528000Y-119634000D03*
%TD*%
D15*
%TO.P,SW2,1,A*%
%TO.N,Vcc*%
X158369000Y-70231000D03*
%TO.P,SW2,2,B*%
%TO.N,System Type*%
X158369000Y-67691000D03*
%TO.P,SW2,3,C*%
%TO.N,GND*%
X158369000Y-65151000D03*
%TD*%
D20*
%TO.P,PS1,1,AC/L*%
%TO.N,Line A*%
X90398500Y-95679000D03*
D21*
%TO.P,PS1,2,AC/N*%
%TO.N,Neutral*%
X90398500Y-101679000D03*
%TO.P,PS1,3,-Vout*%
%TO.N,Net-(PS1--Vout)*%
X123998500Y-89679000D03*
%TO.P,PS1,4,+Vout*%
%TO.N,Net-(PS1-+Vout)*%
X123998500Y-107679000D03*
%TD*%
D16*
%TO.P,DZ14,1,K*%
%TO.N,A Cwave*%
X200533000Y-112776000D03*
%TO.P,DZ14,2,A*%
%TO.N,GND*%
X192913000Y-112776000D03*
%TD*%
%TO.P,DZ2,1,K*%
%TO.N,C Vwave*%
X200533000Y-85344000D03*
%TO.P,DZ2,2,A*%
%TO.N,GND*%
X192913000Y-85344000D03*
%TD*%
%TO.P,DZ19,1,K*%
%TO.N,Vcc*%
X192913000Y-124206000D03*
%TO.P,DZ19,2,A*%
%TO.N,N Cwave*%
X200533000Y-124206000D03*
%TD*%
D12*
%TO.P,J4,1,Pin_1*%
%TO.N,A Cwave*%
X155702000Y-134620000D03*
D13*
%TO.P,J4,2,Pin_2*%
%TO.N,TC A-1*%
X160782000Y-134620000D03*
%TD*%
D22*
%TO.P,D4,1,K*%
%TO.N,Select C Level*%
X169646600Y-54991000D03*
%TO.P,D4,2,A*%
%TO.N,GND*%
X179806600Y-54991000D03*
%TD*%
D10*
%TO.P,R3,1*%
%TO.N,Net-(R3-Pad1)*%
X112141000Y-67564000D03*
D11*
%TO.P,R3,2*%
%TO.N,Line A*%
X101981000Y-67564000D03*
%TD*%
D16*
%TO.P,DZ11,1,K*%
%TO.N,Vcc*%
X192913000Y-105918000D03*
%TO.P,DZ11,2,A*%
%TO.N,CA Vwave*%
X200533000Y-105918000D03*
%TD*%
%TO.P,DZ7,1,K*%
%TO.N,Vcc*%
X192913000Y-96774000D03*
%TO.P,DZ7,2,A*%
%TO.N,BC Vwave*%
X200533000Y-96774000D03*
%TD*%
D22*
%TO.P,D2,1,K*%
%TO.N,Select C Level*%
X121259600Y-54991000D03*
%TO.P,D2,2,A*%
%TO.N,GND*%
X131419600Y-54991000D03*
%TD*%
D12*
%TO.P,J7,1,Pin_1*%
%TO.N,N Cwave*%
X125222000Y-134620000D03*
D13*
%TO.P,J7,2,Pin_2*%
%TO.N,TC A-1*%
X130302000Y-134620000D03*
%TD*%
D22*
%TO.P,D3,1,K*%
%TO.N,Select C Level*%
X145262600Y-54991000D03*
%TO.P,D3,2,A*%
%TO.N,GND*%
X155422600Y-54991000D03*
%TD*%
D10*
%TO.P,R7,1*%
%TO.N,B Vwave*%
X151892000Y-98044000D03*
D11*
%TO.P,R7,2*%
%TO.N,TC A-1*%
X151892000Y-87884000D03*
%TD*%
D14*
%TO.P,K1,COIL1*%
%TO.N,Select C Level*%
X96209600Y-49053000D03*
%TO.P,K1,COIL2*%
%TO.N,GND*%
X108209600Y-49053000D03*
%TO.P,K1,COM*%
%TO.N,A Cwave*%
X102209600Y-51053000D03*
%TO.P,K1,NC*%
%TO.N,Net-(K1-PadNC)*%
X96209600Y-36853000D03*
%TO.P,K1,NO*%
%TO.N,Net-(K1-PadNO)*%
X108209600Y-36853000D03*
%TD*%
D10*
%TO.P,R12,1*%
%TO.N,C Vwave*%
X160147000Y-102743000D03*
D11*
%TO.P,R12,2*%
%TO.N,BC Vwave*%
X160147000Y-112903000D03*
%TD*%
D16*
%TO.P,DZ16,1,K*%
%TO.N,B Cwave*%
X200533000Y-117348000D03*
%TO.P,DZ16,2,A*%
%TO.N,GND*%
X192913000Y-117348000D03*
%TD*%
%TO.P,DZ18,1,K*%
%TO.N,C Cwave*%
X200538000Y-121920000D03*
%TO.P,DZ18,2,A*%
%TO.N,GND*%
X192918000Y-121920000D03*
%TD*%
D10*
%TO.P,R17,1*%
%TO.N,TC A-1*%
X140309600Y-47013000D03*
D11*
%TO.P,R17,2*%
%TO.N,Net-(K3-PadNC)*%
X140309600Y-36853000D03*
%TD*%
D10*
%TO.P,R13,1*%
%TO.N,CA Vwave*%
X160147000Y-89281000D03*
D11*
%TO.P,R13,2*%
%TO.N,C Vwave*%
X160147000Y-99441000D03*
%TD*%
D10*
%TO.P,R4,1*%
%TO.N,Net-(R4-Pad1)*%
X112141000Y-72644000D03*
D11*
%TO.P,R4,2*%
%TO.N,Line B*%
X101981000Y-72644000D03*
%TD*%
D10*
%TO.P,R14,1*%
%TO.N,A Vwave*%
X160147000Y-75819000D03*
D11*
%TO.P,R14,2*%
%TO.N,CA Vwave*%
X160147000Y-85979000D03*
%TD*%
D12*
%TO.P,J2,1,Pin_1*%
%TO.N,Line C*%
X94996000Y-77724000D03*
D13*
%TO.P,J2,2,Pin_2*%
%TO.N,Neutral*%
X94996000Y-82804000D03*
%TD*%
D15*
%TO.P,P4,1,Pin_1*%
%TO.N,C Vwave*%
X195326000Y-36830000D03*
%TO.P,P4,2,Pin_2*%
%TO.N,B Vwave*%
X195326000Y-39370000D03*
%TO.P,P4,3,Pin_3*%
%TO.N,A Vwave*%
X195326000Y-41910000D03*
%TO.P,P4,4,Pin_4*%
%TO.N,BC Vwave*%
X195326000Y-44450000D03*
%TO.P,P4,5,Pin_5*%
%TO.N,AB Vwave*%
X195326000Y-46990000D03*
%TO.P,P4,6,Pin_6*%
%TO.N,CA Vwave*%
X195326000Y-49530000D03*
%TD*%
D16*
%TO.P,DZ6,1,K*%
%TO.N,A Vwave*%
X200538000Y-94488000D03*
%TO.P,DZ6,2,A*%
%TO.N,GND*%
X192918000Y-94488000D03*
%TD*%
%TO.P,DZ10,1,K*%
%TO.N,AB Vwave*%
X200533000Y-103632000D03*
%TO.P,DZ10,2,A*%
%TO.N,GND*%
X192913000Y-103632000D03*
%TD*%
%TO.P,DZ20,1,K*%
%TO.N,N Cwave*%
X200533000Y-126492000D03*
%TO.P,DZ20,2,A*%
%TO.N,GND*%
X192913000Y-126492000D03*
%TD*%
D23*
%TO.P,MCU1,J1_1,3V3*%
%TO.N,Vcc*%
X165481000Y-73152000D03*
D24*
%TO.P,MCU1,J1_2,3V3__1*%
X165481000Y-75692000D03*
%TO.P,MCU1,J1_3,RST*%
%TO.N,unconnected-(MCU1-RST-PadJ1_3)*%
X165481000Y-78232000D03*
%TO.P,MCU1,J1_4,GPIO4*%
%TO.N,N Cwave*%
X165481000Y-80772000D03*
%TO.P,MCU1,J1_5,GPIO5*%
%TO.N,C Cwave*%
X165481000Y-83312000D03*
%TO.P,MCU1,J1_6,GPIO6*%
%TO.N,B Cwave*%
X165481000Y-85852000D03*
%TO.P,MCU1,J1_7,GPIO7*%
%TO.N,A Cwave*%
X165481000Y-88392000D03*
%TO.P,MCU1,J1_8,GPIO15*%
%TO.N,CA Vwave*%
X165481000Y-90932000D03*
%TO.P,MCU1,J1_9,GPIO16*%
%TO.N,AB Vwave*%
X165481000Y-93472000D03*
%TO.P,MCU1,J1_10,GPIO17*%
%TO.N,BC Vwave*%
X165481000Y-96012000D03*
%TO.P,MCU1,J1_11,GPIO18*%
%TO.N,A Vwave*%
X165481000Y-98552000D03*
%TO.P,MCU1,J1_12,GPIO8*%
%TO.N,B Vwave*%
X165481000Y-101092000D03*
%TO.P,MCU1,J1_13,GPIO3*%
%TO.N,C Vwave*%
X165481000Y-103632000D03*
%TO.P,MCU1,J1_14,GPIO46*%
%TO.N,unconnected-(MCU1-GPIO46-PadJ1_14)*%
X165481000Y-106172000D03*
%TO.P,MCU1,J1_15,GPIO9*%
%TO.N,unconnected-(MCU1-GPIO9-PadJ1_15)*%
X165481000Y-108712000D03*
%TO.P,MCU1,J1_16,GPIO10*%
%TO.N,CS*%
X165481000Y-111252000D03*
%TO.P,MCU1,J1_17,GPIO11*%
%TO.N,MOSI*%
X165481000Y-113792000D03*
%TO.P,MCU1,J1_18,GPIO12*%
%TO.N,SCK*%
X165481000Y-116332000D03*
%TO.P,MCU1,J1_19,GPIO13*%
%TO.N,MISO*%
X165481000Y-118872000D03*
%TO.P,MCU1,J1_20,GPIO14*%
%TO.N,unconnected-(MCU1-GPIO14-PadJ1_20)*%
X165481000Y-121412000D03*
%TO.P,MCU1,J1_21,5V0*%
%TO.N,unconnected-(MCU1-5V0-PadJ1_21)*%
X165481000Y-123952000D03*
%TO.P,MCU1,J1_22,GND*%
%TO.N,GND*%
X165481000Y-126492000D03*
%TO.P,MCU1,J3_1,GND__1*%
X188341000Y-73152000D03*
%TO.P,MCU1,J3_2,U0TXD/GPIO43*%
%TO.N,UART TX*%
X188341000Y-75692000D03*
%TO.P,MCU1,J3_3,U0RXD/GPIO44*%
%TO.N,UART RX*%
X188341000Y-78232000D03*
%TO.P,MCU1,J3_4,GPIO1*%
%TO.N,System Type*%
X188341000Y-80772000D03*
%TO.P,MCU1,J3_5,GPIO2*%
%TO.N,Select C Level*%
X188341000Y-83312000D03*
%TO.P,MCU1,J3_6,MTMS/GPIO42*%
%TO.N,unconnected-(MCU1-MTMS{slash}GPIO42-PadJ3_6)*%
X188341000Y-85852000D03*
%TO.P,MCU1,J3_7,MTDI/GPIO41*%
%TO.N,unconnected-(MCU1-MTDI{slash}GPIO41-PadJ3_7)*%
X188341000Y-88392000D03*
%TO.P,MCU1,J3_8,MTDO/GPIO40*%
%TO.N,unconnected-(MCU1-MTDO{slash}GPIO40-PadJ3_8)*%
X188341000Y-90932000D03*
%TO.P,MCU1,J3_9,MTCK/GPIO39*%
%TO.N,unconnected-(MCU1-MTCK{slash}GPIO39-PadJ3_9)*%
X188341000Y-93472000D03*
%TO.P,MCU1,J3_10,GPIO38*%
%TO.N,unconnected-(MCU1-GPIO38-PadJ3_10)*%
X188341000Y-96012000D03*
%TO.P,MCU1,J3_11,GPIO37*%
%TO.N,unconnected-(MCU1-GPIO37-PadJ3_11)*%
X188341000Y-98552000D03*
%TO.P,MCU1,J3_12,GPIO36*%
%TO.N,unconnected-(MCU1-GPIO36-PadJ3_12)*%
X188341000Y-101092000D03*
%TO.P,MCU1,J3_13,GPIO35*%
%TO.N,unconnected-(MCU1-GPIO35-PadJ3_13)*%
X188341000Y-103632000D03*
%TO.P,MCU1,J3_14,GPIO0*%
%TO.N,unconnected-(MCU1-GPIO0-PadJ3_14)*%
X188341000Y-106172000D03*
%TO.P,MCU1,J3_15,GPIO45*%
%TO.N,unconnected-(MCU1-GPIO45-PadJ3_15)*%
X188341000Y-108712000D03*
%TO.P,MCU1,J3_16,GPIO48*%
%TO.N,unconnected-(MCU1-GPIO48-PadJ3_16)*%
X188341000Y-111252000D03*
%TO.P,MCU1,J3_17,GPIO47*%
%TO.N,unconnected-(MCU1-GPIO47-PadJ3_17)*%
X188341000Y-113792000D03*
%TO.P,MCU1,J3_18,GPIO21*%
%TO.N,unconnected-(MCU1-GPIO21-PadJ3_18)*%
X188341000Y-116332000D03*
%TO.P,MCU1,J3_19,USB_D+/GPIO20*%
%TO.N,unconnected-(MCU1-USB_D+{slash}GPIO20-PadJ3_19)*%
X188341000Y-118872000D03*
%TO.P,MCU1,J3_20,USB_D-/GPIO19*%
%TO.N,unconnected-(MCU1-USB_D-{slash}GPIO19-PadJ3_20)*%
X188341000Y-121412000D03*
%TO.P,MCU1,J3_21,GND__2*%
%TO.N,unconnected-(MCU1-GND__2-PadJ3_21)*%
X188341000Y-123952000D03*
%TO.P,MCU1,J3_22,GND__3*%
%TO.N,GND*%
X188341000Y-126492000D03*
%TD*%
D10*
%TO.P,R18,1*%
%TO.N,TC A-1*%
X164566600Y-47013000D03*
D11*
%TO.P,R18,2*%
%TO.N,Net-(K4-PadNC)*%
X164566600Y-36853000D03*
%TD*%
D12*
%TO.P,J5,1,Pin_1*%
%TO.N,B Cwave*%
X145542000Y-134620000D03*
D13*
%TO.P,J5,2,Pin_2*%
%TO.N,TC A-1*%
X150622000Y-134620000D03*
%TD*%
D17*
%TO.P,T3,1*%
%TO.N,Net-(R5-Pad1)*%
X135081000Y-103124000D03*
D18*
%TO.P,T3,2*%
%TO.N,Neutral*%
X135081000Y-115824000D03*
%TO.P,T3,3*%
%TO.N,C Vwave*%
X145081000Y-115824000D03*
%TO.P,T3,4*%
%TO.N,TC A-1*%
X145081000Y-103124000D03*
%TD*%
D22*
%TO.P,D1,1,K*%
%TO.N,Select C Level*%
X97129600Y-54991000D03*
%TO.P,D1,2,A*%
%TO.N,GND*%
X107289600Y-54991000D03*
%TD*%
D12*
%TO.P,J1,1,Pin_1*%
%TO.N,Battery +*%
X95636600Y-134620000D03*
D13*
%TO.P,J1,2,Pin_2*%
%TO.N,Battery -*%
X100716600Y-134620000D03*
%TD*%
D15*
%TO.P,SW1,1,A*%
%TO.N,unconnected-(SW1A-A-Pad1)*%
X109098600Y-138911600D03*
%TO.P,SW1,2,B*%
%TO.N,Vin*%
X109098600Y-136371600D03*
%TO.P,SW1,3,C*%
%TO.N,Net-(SW1A-C)*%
X109098600Y-133831600D03*
%TD*%
D25*
%TO.P,U2,1,GND*%
%TO.N,GND*%
X121976000Y-123444000D03*
%TO.P,U2,2,VO*%
%TO.N,Vcc*%
X121976000Y-120904000D03*
%TO.P,U2,3,VI*%
%TO.N,Net-(SW1A-C)*%
X121976000Y-118364000D03*
%TD*%
D16*
%TO.P,DZ15,1,K*%
%TO.N,Vcc*%
X192913000Y-115062000D03*
%TO.P,DZ15,2,A*%
%TO.N,B Cwave*%
X200533000Y-115062000D03*
%TD*%
D10*
%TO.P,R16,1*%
%TO.N,TC A-1*%
X116306600Y-47013000D03*
D11*
%TO.P,R16,2*%
%TO.N,Net-(K2-PadNC)*%
X116306600Y-36853000D03*
%TD*%
D14*
%TO.P,K3,COIL1*%
%TO.N,Select C Level*%
X144342600Y-49053000D03*
%TO.P,K3,COIL2*%
%TO.N,GND*%
X156342600Y-49053000D03*
%TO.P,K3,COM*%
%TO.N,C Cwave*%
X150342600Y-51053000D03*
%TO.P,K3,NC*%
%TO.N,Net-(K3-PadNC)*%
X144342600Y-36853000D03*
%TO.P,K3,NO*%
%TO.N,Net-(K3-PadNO)*%
X156342600Y-36853000D03*
%TD*%
D10*
%TO.P,R6,1*%
%TO.N,A Vwave*%
X151892000Y-80264000D03*
D11*
%TO.P,R6,2*%
%TO.N,TC A-1*%
X151892000Y-70104000D03*
%TD*%
D15*
%TO.P,P5,1,Pin_1*%
%TO.N,GND*%
X192913000Y-132207000D03*
%TO.P,P5,2,Pin_2*%
%TO.N,Vcc*%
X195453000Y-132207000D03*
%TO.P,P5,3,Pin_3*%
%TO.N,MISO*%
X197993000Y-132207000D03*
%TO.P,P5,4,Pin_4*%
%TO.N,MOSI*%
X200533000Y-132207000D03*
%TO.P,P5,5,Pin_5*%
%TO.N,SCK*%
X203073000Y-132207000D03*
%TO.P,P5,6,Pin_6*%
%TO.N,CS*%
X205613000Y-132207000D03*
%TD*%
D26*
%TO.N,A Vwave*%
X203581000Y-93345000D03*
X190251600Y-68834000D03*
%TO.N,B Vwave*%
X202946000Y-88773000D03*
X189616600Y-69469000D03*
%TO.N,C Vwave*%
X188981600Y-70104000D03*
X202311000Y-84201000D03*
%TO.N,AB Vwave*%
X191521600Y-67564000D03*
X204851000Y-102489000D03*
%TO.N,CA Vwave*%
X192156600Y-67029600D03*
X205486000Y-107061000D03*
%TO.N,BC Vwave*%
X204216000Y-97917000D03*
X190886600Y-68199000D03*
D27*
%TO.N,Vcc*%
X162814000Y-128905000D03*
D26*
%TO.N,GND*%
X191262000Y-73152000D03*
%TO.N,A Cwave*%
X206121000Y-111633000D03*
X199141600Y-60946800D03*
X199141600Y-66294000D03*
%TO.N,B Cwave*%
X199776600Y-59676800D03*
X206756000Y-116205000D03*
X199776600Y-65632600D03*
%TO.N,C Cwave*%
X200411600Y-58406800D03*
X207391000Y-120777000D03*
X200411600Y-64997600D03*
%TO.N,N Cwave*%
X201046600Y-64362600D03*
X201041000Y-57136800D03*
X208026000Y-125349000D03*
%TO.N,Select C Level*%
X164211000Y-68707000D03*
X164211000Y-64135000D03*
%TO.N,CS*%
X169545000Y-132588000D03*
%TO.N,MOSI*%
X168910000Y-131318000D03*
%TO.N,SCK*%
X168275000Y-131953000D03*
%TO.N,MISO*%
X167640000Y-130683000D03*
%TD*%
D28*
%TO.N,A Vwave*%
X164211000Y-98552000D02*
X165481000Y-98552000D01*
X203581000Y-72009000D02*
X200406000Y-68834000D01*
X154559000Y-82931000D02*
X154559000Y-114173000D01*
X186944000Y-68834000D02*
X183896000Y-71882000D01*
X154940000Y-114554000D02*
X161798000Y-114554000D01*
X161798000Y-114554000D02*
X162179000Y-114173000D01*
X203581000Y-93345000D02*
X203581000Y-72009000D01*
X200533000Y-92202000D02*
X200533000Y-93345000D01*
X162179000Y-100584000D02*
X164211000Y-98552000D01*
X183896000Y-71882000D02*
X183896000Y-93472000D01*
X200406000Y-68834000D02*
X186944000Y-68834000D01*
X154559000Y-114173000D02*
X154940000Y-114554000D01*
X151892000Y-80264000D02*
X154559000Y-82931000D01*
X162179000Y-114173000D02*
X162179000Y-100584000D01*
X183896000Y-93472000D02*
X178816000Y-98552000D01*
X200533000Y-94483000D02*
X200538000Y-94488000D01*
X203581000Y-93345000D02*
X200533000Y-93345000D01*
X156591000Y-75819000D02*
X160147000Y-75819000D01*
X145081000Y-80264000D02*
X151892000Y-80264000D01*
X200533000Y-93345000D02*
X200533000Y-94483000D01*
X178816000Y-98552000D02*
X165481000Y-98552000D01*
%TO.N,B Vwave*%
X154578000Y-115208000D02*
X162160000Y-115208000D01*
X156591000Y-99441000D02*
X156591000Y-102743000D01*
X184531000Y-95377000D02*
X178816000Y-101092000D01*
X164211000Y-101092000D02*
X165481000Y-101092000D01*
X187325000Y-69469000D02*
X184531000Y-72263000D01*
X151892000Y-98044000D02*
X153924000Y-100076000D01*
X162814000Y-114554000D02*
X162814000Y-102489000D01*
X184531000Y-72263000D02*
X184531000Y-95377000D01*
X162814000Y-102489000D02*
X164211000Y-101092000D01*
X153924000Y-114554000D02*
X154578000Y-115208000D01*
X202946000Y-88773000D02*
X202946000Y-72263000D01*
X200152000Y-69469000D02*
X187325000Y-69469000D01*
X162160000Y-115208000D02*
X162814000Y-114554000D01*
X153924000Y-100076000D02*
X153924000Y-114554000D01*
X200528000Y-89911000D02*
X200533000Y-89916000D01*
X202946000Y-72263000D02*
X200152000Y-69469000D01*
X178816000Y-101092000D02*
X165481000Y-101092000D01*
X202946000Y-88773000D02*
X200528000Y-88773000D01*
X200528000Y-88773000D02*
X200528000Y-89911000D01*
X145081000Y-98044000D02*
X151892000Y-98044000D01*
X200528000Y-87630000D02*
X200528000Y-88773000D01*
%TO.N,C Vwave*%
X164211000Y-103632000D02*
X163449000Y-104394000D01*
X199771000Y-70104000D02*
X187706000Y-70104000D01*
X162560000Y-115824000D02*
X152908000Y-115824000D01*
X202311000Y-84201000D02*
X202311000Y-72644000D01*
X185166000Y-72644000D02*
X185166000Y-97282000D01*
X178816000Y-103632000D02*
X165481000Y-103632000D01*
X200528000Y-83058000D02*
X200528000Y-84201000D01*
X200528000Y-84201000D02*
X202311000Y-84201000D01*
X163449000Y-104394000D02*
X163449000Y-114935000D01*
X165735000Y-103632000D02*
X164211000Y-103632000D01*
X200528000Y-85339000D02*
X200533000Y-85344000D01*
X185166000Y-97282000D02*
X178816000Y-103632000D01*
X163449000Y-114935000D02*
X162560000Y-115824000D01*
X160147000Y-99441000D02*
X160147000Y-102743000D01*
X202311000Y-72644000D02*
X199771000Y-70104000D01*
X187706000Y-70104000D02*
X185166000Y-72644000D01*
X200528000Y-84201000D02*
X200528000Y-85339000D01*
X145081000Y-115824000D02*
X151892000Y-115824000D01*
%TO.N,AB Vwave*%
X156591000Y-85979000D02*
X156591000Y-89281000D01*
X178816000Y-93472000D02*
X165481000Y-93472000D01*
X156591000Y-91821000D02*
X158242000Y-93472000D01*
X200533000Y-101346000D02*
X200533000Y-102489000D01*
X158242000Y-93472000D02*
X165481000Y-93472000D01*
X182626000Y-71247000D02*
X182626000Y-89662000D01*
X156591000Y-89281000D02*
X156591000Y-91821000D01*
X200914000Y-67564000D02*
X186309000Y-67564000D01*
X204851000Y-102489000D02*
X204851000Y-71501000D01*
X204851000Y-71501000D02*
X200914000Y-67564000D01*
X182626000Y-89662000D02*
X178816000Y-93472000D01*
X204851000Y-102489000D02*
X200533000Y-102489000D01*
X186309000Y-67564000D02*
X182626000Y-71247000D01*
X200533000Y-102489000D02*
X200533000Y-103632000D01*
%TO.N,CA Vwave*%
X200533000Y-107061000D02*
X200533000Y-108204000D01*
X181991000Y-87757000D02*
X178816000Y-90932000D01*
X178816000Y-90932000D02*
X165481000Y-90932000D01*
X181991000Y-70866000D02*
X181991000Y-87757000D01*
X205486000Y-107061000D02*
X200533000Y-107061000D01*
X205486000Y-107061000D02*
X205486000Y-71247000D01*
X160147000Y-89281000D02*
X161798000Y-90932000D01*
X205486000Y-71247000D02*
X201168000Y-66929000D01*
X161798000Y-90932000D02*
X165481000Y-90932000D01*
X201168000Y-66929000D02*
X185928000Y-66929000D01*
X185928000Y-66929000D02*
X181991000Y-70866000D01*
X200533000Y-105918000D02*
X200533000Y-107061000D01*
%TO.N,BC Vwave*%
X183261000Y-71564500D02*
X183261000Y-91567000D01*
X186626500Y-68199000D02*
X183261000Y-71564500D01*
X204216000Y-71755000D02*
X200660000Y-68199000D01*
X204216000Y-97917000D02*
X200533000Y-97917000D01*
X178816000Y-96012000D02*
X165481000Y-96012000D01*
X158369000Y-112903000D02*
X158369000Y-97663000D01*
X200533000Y-96774000D02*
X200533000Y-97917000D01*
X204216000Y-97917000D02*
X204216000Y-71755000D01*
X183261000Y-91567000D02*
X178816000Y-96012000D01*
X200533000Y-97917000D02*
X200533000Y-99060000D01*
X160020000Y-96012000D02*
X165481000Y-96012000D01*
X156591000Y-112903000D02*
X160147000Y-112903000D01*
X158369000Y-97663000D02*
X160020000Y-96012000D01*
X200660000Y-68199000D02*
X186626500Y-68199000D01*
D29*
%TO.N,Line B*%
X94996000Y-72644000D02*
X101981000Y-72644000D01*
%TO.N,Line A*%
X94996000Y-67564000D02*
X101981000Y-67564000D01*
%TO.N,Line C*%
X94996000Y-77724000D02*
X101981000Y-77724000D01*
%TO.N,Net-(R3-Pad1)*%
X112141000Y-67564000D02*
X135081000Y-67564000D01*
%TO.N,Net-(R4-Pad1)*%
X131191000Y-85344000D02*
X135081000Y-85344000D01*
X112141000Y-72644000D02*
X126746000Y-72644000D01*
X129794000Y-83947000D02*
X131191000Y-85344000D01*
X126746000Y-72644000D02*
X129794000Y-75692000D01*
X129794000Y-75692000D02*
X129794000Y-83947000D01*
%TO.N,Net-(R5-Pad1)*%
X112141000Y-77724000D02*
X125476000Y-77724000D01*
X125476000Y-77724000D02*
X128778000Y-81026000D01*
X128778000Y-100584000D02*
X131318000Y-103124000D01*
X128778000Y-81026000D02*
X128778000Y-100584000D01*
X131318000Y-103124000D02*
X135081000Y-103124000D01*
%TO.N,Vcc*%
X120396000Y-120904000D02*
X119761000Y-121539000D01*
D28*
X193802000Y-128905000D02*
X190500000Y-128905000D01*
X190500000Y-111633000D02*
X190500000Y-116205000D01*
X190500000Y-128905000D02*
X162814000Y-128905000D01*
X190500000Y-93345000D02*
X190500000Y-97917000D01*
X156845000Y-70231000D02*
X158369000Y-70231000D01*
X162560000Y-70231000D02*
X158369000Y-70231000D01*
X191643000Y-101346000D02*
X190500000Y-102489000D01*
X190500000Y-120777000D02*
X190500000Y-125349000D01*
D29*
X124714000Y-120015000D02*
X125984000Y-120015000D01*
D28*
X192913000Y-105918000D02*
X191643000Y-105918000D01*
X190500000Y-97917000D02*
X190500000Y-102489000D01*
X190500000Y-116205000D02*
X190500000Y-120777000D01*
D29*
X162814000Y-128905000D02*
X119761000Y-128905000D01*
D28*
X191643000Y-115062000D02*
X190500000Y-116205000D01*
X125121400Y-65251600D02*
X126238000Y-64135000D01*
X191643000Y-83058000D02*
X190500000Y-84201000D01*
X190500000Y-102489000D02*
X190500000Y-107061000D01*
X117829600Y-65251600D02*
X125121400Y-65251600D01*
X195453000Y-132207000D02*
X195453000Y-130556000D01*
X192913000Y-115062000D02*
X191643000Y-115062000D01*
D29*
X119761000Y-128905000D02*
X116372000Y-132294000D01*
D28*
X191643000Y-124206000D02*
X192913000Y-124206000D01*
X191643000Y-110490000D02*
X190500000Y-111633000D01*
X191643000Y-96774000D02*
X190500000Y-97917000D01*
D29*
X123825000Y-120904000D02*
X124714000Y-120015000D01*
X116372000Y-132294000D02*
X116372000Y-136144000D01*
D28*
X192913000Y-110490000D02*
X191643000Y-110490000D01*
X165481000Y-73152000D02*
X162560000Y-70231000D01*
X192913000Y-92202000D02*
X191643000Y-92202000D01*
X192908000Y-119634000D02*
X191643000Y-119634000D01*
X117094000Y-64516000D02*
X117829600Y-65251600D01*
X191643000Y-105918000D02*
X190500000Y-107061000D01*
X192908000Y-87630000D02*
X191643000Y-87630000D01*
X150749000Y-64135000D02*
X156845000Y-70231000D01*
D29*
X121976000Y-120904000D02*
X120396000Y-120904000D01*
D28*
X190500000Y-107061000D02*
X190500000Y-111633000D01*
X192913000Y-96774000D02*
X191643000Y-96774000D01*
X195453000Y-130556000D02*
X193802000Y-128905000D01*
X191643000Y-87630000D02*
X190500000Y-88773000D01*
X190500000Y-88773000D02*
X190500000Y-93345000D01*
X165481000Y-73152000D02*
X165481000Y-75692000D01*
X190500000Y-84201000D02*
X190500000Y-88773000D01*
X191643000Y-119634000D02*
X190500000Y-120777000D01*
X192913000Y-101346000D02*
X191643000Y-101346000D01*
X191643000Y-92202000D02*
X190500000Y-93345000D01*
D29*
X121976000Y-120904000D02*
X123825000Y-120904000D01*
X119761000Y-121539000D02*
X119761000Y-128905000D01*
D28*
X117094000Y-63500000D02*
X117094000Y-64516000D01*
X192908000Y-83058000D02*
X191643000Y-83058000D01*
X190500000Y-125349000D02*
X191643000Y-124206000D01*
X190500000Y-128905000D02*
X190500000Y-125349000D01*
X126238000Y-64135000D02*
X150749000Y-64135000D01*
%TO.N,GND*%
X107289600Y-54991000D02*
X107289600Y-49973000D01*
X131419600Y-49973000D02*
X132339600Y-49053000D01*
D29*
X121976000Y-123444000D02*
X125024000Y-126492000D01*
D28*
X188341000Y-73152000D02*
X191262000Y-73152000D01*
X179806600Y-54991000D02*
X179806600Y-49846000D01*
X155422600Y-54991000D02*
X155422600Y-49973000D01*
X191262000Y-73152000D02*
X194056000Y-73152000D01*
D29*
X121976000Y-123444000D02*
X125984000Y-123444000D01*
D28*
X131419600Y-54991000D02*
X131419600Y-49973000D01*
X179806600Y-49846000D02*
X180630600Y-49022000D01*
X188341000Y-126492000D02*
X165481000Y-126492000D01*
X155422600Y-49973000D02*
X156342600Y-49053000D01*
X107289600Y-49973000D02*
X108209600Y-49053000D01*
D29*
X125024000Y-126492000D02*
X165481000Y-126492000D01*
D28*
%TO.N,A Cwave*%
X204322200Y-139954000D02*
X158242000Y-139954000D01*
X106527600Y-60960000D02*
X205359000Y-60960000D01*
X102209600Y-51053000D02*
X102209600Y-56642000D01*
X200533000Y-110490000D02*
X200533000Y-111633000D01*
X155702000Y-137414000D02*
X155702000Y-134620000D01*
X201422000Y-66294000D02*
X185547000Y-66294000D01*
X209301600Y-64902600D02*
X209301600Y-134974600D01*
X181356000Y-70485000D02*
X181356000Y-85852000D01*
X206121000Y-111633000D02*
X200533000Y-111633000D01*
X181356000Y-85852000D02*
X178816000Y-88392000D01*
X206121000Y-70993000D02*
X201422000Y-66294000D01*
X102209600Y-56642000D02*
X106527600Y-60960000D01*
X209301600Y-134974600D02*
X204322200Y-139954000D01*
X178816000Y-88392000D02*
X165481000Y-88392000D01*
X158242000Y-139954000D02*
X155702000Y-137414000D01*
X205359000Y-60960000D02*
X209301600Y-64902600D01*
X185547000Y-66294000D02*
X181356000Y-70485000D01*
X206121000Y-111633000D02*
X206121000Y-70993000D01*
X200533000Y-111633000D02*
X200533000Y-112776000D01*
%TO.N,B Cwave*%
X201649600Y-65632600D02*
X185192400Y-65632600D01*
X200533000Y-115062000D02*
X200533000Y-116205000D01*
X178816000Y-85852000D02*
X165481000Y-85852000D01*
X206756000Y-116205000D02*
X206756000Y-70739000D01*
X210571600Y-64394600D02*
X210571600Y-135736600D01*
X180721000Y-83947000D02*
X178816000Y-85852000D01*
X126339600Y-51053000D02*
X126339600Y-56642000D01*
X206756000Y-116205000D02*
X200533000Y-116205000D01*
X126339600Y-56642000D02*
X129387600Y-59690000D01*
X145542000Y-137414000D02*
X145542000Y-134620000D01*
X180721000Y-70104000D02*
X180721000Y-83947000D01*
X210571600Y-135736600D02*
X205084200Y-141224000D01*
X205084200Y-141224000D02*
X149352000Y-141224000D01*
X149352000Y-141224000D02*
X145542000Y-137414000D01*
X129387600Y-59690000D02*
X205867000Y-59690000D01*
X200533000Y-116205000D02*
X200533000Y-117348000D01*
X185192400Y-65632600D02*
X180721000Y-70104000D01*
X205867000Y-59690000D02*
X210571600Y-64394600D01*
X206756000Y-70739000D02*
X201649600Y-65632600D01*
%TO.N,C Cwave*%
X178816000Y-83312000D02*
X180086000Y-82042000D01*
X200528000Y-121910000D02*
X200538000Y-121920000D01*
X200528000Y-119634000D02*
X200528000Y-120777000D01*
X206248000Y-58420000D02*
X211841600Y-64013600D01*
X152120600Y-58420000D02*
X206248000Y-58420000D01*
X150342600Y-56642000D02*
X152120600Y-58420000D01*
X211841600Y-64013600D02*
X211841600Y-136498600D01*
X165481000Y-83312000D02*
X178816000Y-83312000D01*
X200528000Y-120777000D02*
X200528000Y-121910000D01*
X207391000Y-120777000D02*
X200528000Y-120777000D01*
X135382000Y-137414000D02*
X135382000Y-134620000D01*
X140462000Y-142494000D02*
X135382000Y-137414000D01*
X201903600Y-64997600D02*
X207391000Y-70485000D01*
X180086000Y-82042000D02*
X180086000Y-69723000D01*
X184811400Y-64997600D02*
X201903600Y-64997600D01*
X180086000Y-69723000D02*
X184811400Y-64997600D01*
X205846200Y-142494000D02*
X140462000Y-142494000D01*
X207391000Y-70485000D02*
X207391000Y-120777000D01*
X150342600Y-51053000D02*
X150342600Y-56642000D01*
X211841600Y-136498600D02*
X205846200Y-142494000D01*
%TO.N,N Cwave*%
X184430400Y-64362600D02*
X179451000Y-69342000D01*
X208026000Y-70231000D02*
X202157600Y-64362600D01*
X179451000Y-80137000D02*
X178816000Y-80772000D01*
X174630600Y-56642000D02*
X174630600Y-51053000D01*
X213111600Y-63505600D02*
X206756000Y-57150000D01*
X202157600Y-64362600D02*
X184430400Y-64362600D01*
X208026000Y-125349000D02*
X208026000Y-70231000D01*
X179451000Y-69342000D02*
X179451000Y-80137000D01*
X206608200Y-143764000D02*
X213111600Y-137260600D01*
X125222000Y-137414000D02*
X131572000Y-143764000D01*
X200533000Y-125349000D02*
X200533000Y-126492000D01*
X200533000Y-125349000D02*
X208026000Y-125349000D01*
X200533000Y-124206000D02*
X200533000Y-125349000D01*
X206756000Y-57150000D02*
X175138600Y-57150000D01*
X131572000Y-143764000D02*
X206608200Y-143764000D01*
X125222000Y-134620000D02*
X125222000Y-137414000D01*
X213111600Y-137260600D02*
X213111600Y-63505600D01*
X178816000Y-80772000D02*
X165481000Y-80772000D01*
X175138600Y-57150000D02*
X174630600Y-56642000D01*
%TO.N,Select C Level*%
X97129600Y-49973000D02*
X96209600Y-49053000D01*
X121259600Y-54991000D02*
X121259600Y-49973000D01*
X169646600Y-54991000D02*
X169646600Y-50038000D01*
X169646600Y-50038000D02*
X168630600Y-49022000D01*
X145262600Y-54991000D02*
X145262600Y-49973000D01*
X164211000Y-64135000D02*
X164211000Y-68707000D01*
X97129600Y-54991000D02*
X97129600Y-49973000D01*
X121259600Y-49973000D02*
X120339600Y-49053000D01*
X145262600Y-49973000D02*
X144342600Y-49053000D01*
%TO.N,TC A-1*%
X211206600Y-136117600D02*
X211206600Y-64204100D01*
X209936600Y-135355600D02*
X209936600Y-64648600D01*
X145081000Y-85344000D02*
X147621000Y-87884000D01*
X140081000Y-108124000D02*
X140081000Y-90344000D01*
X162750500Y-139319000D02*
X203941200Y-139319000D01*
X164566600Y-56611000D02*
X164566600Y-47013000D01*
X145081000Y-103124000D02*
X147621000Y-105664000D01*
X206057500Y-59055000D02*
X142722600Y-59055000D01*
X97256600Y-61595000D02*
X92176600Y-56515000D01*
X119989600Y-60325000D02*
X116306600Y-56642000D01*
X206502000Y-57785000D02*
X165740600Y-57785000D01*
X204703200Y-140589000D02*
X209936600Y-135355600D01*
X206227200Y-143129000D02*
X212476600Y-136879600D01*
X136144000Y-121716800D02*
X136144000Y-123444000D01*
X140462000Y-137414000D02*
X144907000Y-141859000D01*
X209936600Y-64648600D02*
X205613000Y-60325000D01*
X116306600Y-56642000D02*
X116306600Y-47013000D01*
X150622000Y-134620000D02*
X150622000Y-137414000D01*
X140081000Y-90344000D02*
X140081000Y-72564000D01*
X140081000Y-90344000D02*
X145081000Y-85344000D01*
X212476600Y-136879600D02*
X212476600Y-63759600D01*
X140081000Y-72564000D02*
X145081000Y-67564000D01*
X142722600Y-59055000D02*
X140309600Y-56642000D01*
X136144000Y-120015000D02*
X136144000Y-121716800D01*
X208666600Y-134593600D02*
X208666600Y-65156600D01*
X140309600Y-56642000D02*
X140309600Y-47013000D01*
X160782000Y-134620000D02*
X160782000Y-137350500D01*
X212476600Y-63759600D02*
X206502000Y-57785000D01*
X205105000Y-61595000D02*
X97256600Y-61595000D01*
X203941200Y-139319000D02*
X208666600Y-134593600D01*
X92176600Y-56515000D02*
X92176600Y-47013000D01*
X136017000Y-143129000D02*
X206227200Y-143129000D01*
X130302000Y-134620000D02*
X130302000Y-137414000D01*
X147621000Y-70104000D02*
X151892000Y-70104000D01*
X145081000Y-67564000D02*
X147621000Y-70104000D01*
X150622000Y-137414000D02*
X153797000Y-140589000D01*
X140081000Y-116078000D02*
X140081000Y-108124000D01*
X136144000Y-120015000D02*
X140081000Y-116078000D01*
X140462000Y-134620000D02*
X140462000Y-137414000D01*
X165740600Y-57785000D02*
X164566600Y-56611000D01*
X130302000Y-137414000D02*
X136017000Y-143129000D01*
X160782000Y-137350500D02*
X162750500Y-139319000D01*
X147621000Y-105664000D02*
X151892000Y-105664000D01*
X147621000Y-87884000D02*
X151892000Y-87884000D01*
X211206600Y-64204100D02*
X206057500Y-59055000D01*
X140081000Y-108124000D02*
X145081000Y-103124000D01*
X153797000Y-140589000D02*
X204703200Y-140589000D01*
X144907000Y-141859000D02*
X205465200Y-141859000D01*
X205613000Y-60325000D02*
X119989600Y-60325000D01*
X208666600Y-65156600D02*
X205105000Y-61595000D01*
X205465200Y-141859000D02*
X211206600Y-136117600D01*
D30*
%TO.N,Battery +*%
X106984200Y-117404000D02*
X95636600Y-128751600D01*
X95636600Y-128751600D02*
X95636600Y-134620000D01*
X113116000Y-117404000D02*
X106984200Y-117404000D01*
%TO.N,Battery -*%
X100716600Y-134620000D02*
X100716600Y-129386600D01*
X100716600Y-129386600D02*
X105699200Y-124404000D01*
X105699200Y-124404000D02*
X113116000Y-124404000D01*
D28*
%TO.N,Net-(K1-PadNC)*%
X92176600Y-36853000D02*
X96209600Y-36853000D01*
%TO.N,Net-(K1-PadNO)*%
X108209600Y-36853000D02*
X112242600Y-36853000D01*
%TO.N,Net-(K2-PadNO)*%
X132339600Y-36853000D02*
X136372600Y-36853000D01*
%TO.N,Net-(K2-PadNC)*%
X116306600Y-36853000D02*
X120339600Y-36853000D01*
%TO.N,Net-(K3-PadNO)*%
X156342600Y-36853000D02*
X160375600Y-36853000D01*
%TO.N,Net-(K3-PadNC)*%
X140309600Y-36853000D02*
X144342600Y-36853000D01*
%TO.N,Net-(K4-PadNO)*%
X180630600Y-36853000D02*
X184632600Y-36853000D01*
%TO.N,Net-(K4-PadNC)*%
X164566600Y-36853000D02*
X168630600Y-36853000D01*
%TO.N,CS*%
X187452000Y-132588000D02*
X169545000Y-132588000D01*
X202692000Y-136525000D02*
X190182500Y-136525000D01*
X190182500Y-136525000D02*
X187960000Y-134302500D01*
X187960000Y-134302500D02*
X187960000Y-133096000D01*
X187960000Y-133096000D02*
X187452000Y-132588000D01*
X205613000Y-133604000D02*
X202692000Y-136525000D01*
X205613000Y-132207000D02*
X205613000Y-133604000D01*
%TO.N,MOSI*%
X189230000Y-133604000D02*
X189230000Y-132588000D01*
X187960000Y-131318000D02*
X168910000Y-131318000D01*
X189230000Y-132588000D02*
X187960000Y-131318000D01*
X200533000Y-133604000D02*
X198882000Y-135255000D01*
X190881000Y-135255000D02*
X189230000Y-133604000D01*
X200533000Y-132207000D02*
X200533000Y-133604000D01*
X198882000Y-135255000D02*
X190881000Y-135255000D01*
%TO.N,SCK*%
X203073000Y-132207000D02*
X203073000Y-133604000D01*
X190500000Y-135890000D02*
X188595000Y-133985000D01*
X188595000Y-132842000D02*
X187706000Y-131953000D01*
X200787000Y-135890000D02*
X190500000Y-135890000D01*
X188595000Y-133985000D02*
X188595000Y-132842000D01*
X187706000Y-131953000D02*
X168275000Y-131953000D01*
X203073000Y-133604000D02*
X200787000Y-135890000D01*
%TO.N,MISO*%
X189865000Y-133286500D02*
X189865000Y-132334000D01*
X189865000Y-132334000D02*
X188214000Y-130683000D01*
X197993000Y-132207000D02*
X197993000Y-133604000D01*
X196996000Y-134601000D02*
X191179500Y-134601000D01*
X191179500Y-134601000D02*
X189865000Y-133286500D01*
X197993000Y-133604000D02*
X196996000Y-134601000D01*
X188214000Y-130683000D02*
X167640000Y-130683000D01*
%TO.N,UART TX*%
X188341000Y-75692000D02*
X194056000Y-75692000D01*
%TO.N,UART RX*%
X188341000Y-78232000D02*
X194056000Y-78232000D01*
D30*
%TO.N,Net-(PS1-+Vout)*%
X91821000Y-110744000D02*
X122301000Y-110744000D01*
X90366000Y-113904000D02*
X90366000Y-112199000D01*
X122301000Y-110744000D02*
X123998500Y-109046500D01*
X123998500Y-109046500D02*
X123998500Y-107679000D01*
X90366000Y-112199000D02*
X91821000Y-110744000D01*
D29*
%TO.N,Net-(SW1A-C)*%
X112019600Y-133831600D02*
X116586000Y-129265200D01*
X116586000Y-129265200D02*
X116586000Y-120904000D01*
X116586000Y-120904000D02*
X119126000Y-118364000D01*
X119126000Y-118364000D02*
X121976000Y-118364000D01*
X109098600Y-133831600D02*
X112019600Y-133831600D01*
%TD*%
M02*
