%TF.GenerationSoftware,KiCad,Pcbnew,7.0.10*%
%TF.CreationDate,2024-04-04T21:44:23-03:00*%
%TF.ProjectId,board,626f6172-642e-46b6-9963-61645f706362,1.8*%
%TF.SameCoordinates,Original*%
%TF.FileFunction,Soldermask,Bot*%
%TF.FilePolarity,Negative*%
%FSLAX46Y46*%
G04 Gerber Fmt 4.6, Leading zero omitted, Abs format (unit mm)*
G04 Created by KiCad (PCBNEW 7.0.10) date 2024-04-04 21:44:23*
%MOMM*%
%LPD*%
G01*
G04 APERTURE LIST*
%ADD10C,1.600000*%
%ADD11O,1.600000X1.600000*%
%ADD12O,3.000000X3.000000*%
%ADD13C,3.000000*%
%ADD14C,2.154000*%
%ADD15O,1.700000X1.700000*%
%ADD16O,1.500000X1.500000*%
%ADD17O,1.712000X1.712000*%
%ADD18C,1.712000*%
%ADD19O,1.880400X1.880400*%
%ADD20O,2.000000X2.000000*%
%ADD21C,2.000000*%
%ADD22O,2.200000X2.200000*%
%ADD23O,1.734000X1.734000*%
%ADD24C,1.734000*%
%ADD25O,2.000000X1.905000*%
G04 APERTURE END LIST*
D10*
%TO.C,R21*%
X160375600Y-47013000D03*
D11*
X160375600Y-36853000D03*
%TD*%
D12*
%TO.C,J6*%
X135382000Y-134620000D03*
D13*
X140462000Y-134620000D03*
%TD*%
D14*
%TO.C,K2*%
X120339600Y-49053000D03*
X132339600Y-49053000D03*
X126339600Y-51053000D03*
X120339600Y-36853000D03*
X132339600Y-36853000D03*
%TD*%
D10*
%TO.C,R15*%
X92176600Y-47013000D03*
D11*
X92176600Y-36853000D03*
%TD*%
D14*
%TO.C,K4*%
X168630600Y-49053000D03*
X180630600Y-49053000D03*
X174630600Y-51053000D03*
X168630600Y-36853000D03*
X180630600Y-36853000D03*
%TD*%
D15*
%TO.C,P1*%
X194056000Y-78232000D03*
X194056000Y-75692000D03*
X194056000Y-73152000D03*
%TD*%
D10*
%TO.C,R10*%
X156591000Y-99441000D03*
D11*
X156591000Y-89281000D03*
%TD*%
D10*
%TO.C,R22*%
X184632600Y-47013000D03*
D11*
X184632600Y-36853000D03*
%TD*%
D10*
%TO.C,R5*%
X112141000Y-77724000D03*
D11*
X101981000Y-77724000D03*
%TD*%
D16*
%TO.C,DZ5*%
X192913000Y-92202000D03*
X200533000Y-92202000D03*
%TD*%
D17*
%TO.C,T1*%
X135081000Y-67564000D03*
D18*
X135081000Y-80264000D03*
X145081000Y-80264000D03*
X145081000Y-67564000D03*
%TD*%
D10*
%TO.C,R8*%
X151892000Y-115824000D03*
D11*
X151892000Y-105664000D03*
%TD*%
D19*
%TO.C,U1*%
X113116000Y-117404000D03*
X113116000Y-124404000D03*
X90366000Y-113904000D03*
X90366000Y-127904000D03*
X113116000Y-113904000D03*
X113116000Y-127904000D03*
%TD*%
D15*
%TO.C,P3*%
X203904100Y-36830000D03*
X203904100Y-39370000D03*
X203904100Y-41910000D03*
X203904100Y-44450000D03*
%TD*%
D10*
%TO.C,R20*%
X136372600Y-47013000D03*
D11*
X136372600Y-36853000D03*
%TD*%
D16*
%TO.C,DZ13*%
X192913000Y-110490000D03*
X200533000Y-110490000D03*
%TD*%
%TO.C,DZ4*%
X200533000Y-89916000D03*
X192913000Y-89916000D03*
%TD*%
D15*
%TO.C,P2*%
X203911200Y-49530000D03*
%TD*%
D16*
%TO.C,DZ9*%
X192913000Y-101346000D03*
X200533000Y-101346000D03*
%TD*%
%TO.C,DZ1*%
X192908000Y-83058000D03*
X200528000Y-83058000D03*
%TD*%
D10*
%TO.C,R11*%
X156591000Y-112903000D03*
D11*
X156591000Y-102743000D03*
%TD*%
%TO.C,C1*%
X116372000Y-136144000D03*
D10*
X118872000Y-136144000D03*
%TD*%
D16*
%TO.C,DZ12*%
X200533000Y-108204000D03*
X192913000Y-108204000D03*
%TD*%
D10*
%TO.C,R19*%
X112242600Y-47013000D03*
D11*
X112242600Y-36853000D03*
%TD*%
D10*
%TO.C,R1*%
X125984000Y-120015000D03*
D11*
X136144000Y-120015000D03*
%TD*%
D15*
%TO.C,SW3*%
X117094000Y-63500000D03*
X119634000Y-63500000D03*
X122174000Y-63500000D03*
%TD*%
D12*
%TO.C,J3*%
X94996000Y-67564000D03*
D13*
X94996000Y-72644000D03*
%TD*%
D10*
%TO.C,R2*%
X136144000Y-123444000D03*
D11*
X125984000Y-123444000D03*
%TD*%
D16*
%TO.C,DZ8*%
X200533000Y-99060000D03*
X192913000Y-99060000D03*
%TD*%
D10*
%TO.C,R9*%
X156591000Y-85979000D03*
D11*
X156591000Y-75819000D03*
%TD*%
D16*
%TO.C,DZ3*%
X192908000Y-87630000D03*
X200528000Y-87630000D03*
%TD*%
D17*
%TO.C,T2*%
X135081000Y-85344000D03*
D18*
X135081000Y-98044000D03*
X145081000Y-98044000D03*
X145081000Y-85344000D03*
%TD*%
D16*
%TO.C,DZ17*%
X192908000Y-119634000D03*
X200528000Y-119634000D03*
%TD*%
D15*
%TO.C,SW2*%
X158369000Y-70231000D03*
X158369000Y-67691000D03*
X158369000Y-65151000D03*
%TD*%
D20*
%TO.C,PS1*%
X90398500Y-95679000D03*
D21*
X90398500Y-101679000D03*
X123998500Y-89679000D03*
X123998500Y-107679000D03*
%TD*%
D16*
%TO.C,DZ14*%
X200533000Y-112776000D03*
X192913000Y-112776000D03*
%TD*%
%TO.C,DZ2*%
X200533000Y-85344000D03*
X192913000Y-85344000D03*
%TD*%
%TO.C,DZ19*%
X192913000Y-124206000D03*
X200533000Y-124206000D03*
%TD*%
D12*
%TO.C,J4*%
X155702000Y-134620000D03*
D13*
X160782000Y-134620000D03*
%TD*%
D22*
%TO.C,D4*%
X169646600Y-54991000D03*
X179806600Y-54991000D03*
%TD*%
D10*
%TO.C,R3*%
X112141000Y-67564000D03*
D11*
X101981000Y-67564000D03*
%TD*%
D16*
%TO.C,DZ11*%
X192913000Y-105918000D03*
X200533000Y-105918000D03*
%TD*%
%TO.C,DZ7*%
X192913000Y-96774000D03*
X200533000Y-96774000D03*
%TD*%
D22*
%TO.C,D2*%
X121259600Y-54991000D03*
X131419600Y-54991000D03*
%TD*%
D12*
%TO.C,J7*%
X125222000Y-134620000D03*
D13*
X130302000Y-134620000D03*
%TD*%
D22*
%TO.C,D3*%
X145262600Y-54991000D03*
X155422600Y-54991000D03*
%TD*%
D10*
%TO.C,R7*%
X151892000Y-98044000D03*
D11*
X151892000Y-87884000D03*
%TD*%
D14*
%TO.C,K1*%
X96209600Y-49053000D03*
X108209600Y-49053000D03*
X102209600Y-51053000D03*
X96209600Y-36853000D03*
X108209600Y-36853000D03*
%TD*%
D10*
%TO.C,R12*%
X160147000Y-102743000D03*
D11*
X160147000Y-112903000D03*
%TD*%
D16*
%TO.C,DZ16*%
X200533000Y-117348000D03*
X192913000Y-117348000D03*
%TD*%
%TO.C,DZ18*%
X200538000Y-121920000D03*
X192918000Y-121920000D03*
%TD*%
D10*
%TO.C,R17*%
X140309600Y-47013000D03*
D11*
X140309600Y-36853000D03*
%TD*%
D10*
%TO.C,R13*%
X160147000Y-89281000D03*
D11*
X160147000Y-99441000D03*
%TD*%
D10*
%TO.C,R4*%
X112141000Y-72644000D03*
D11*
X101981000Y-72644000D03*
%TD*%
D10*
%TO.C,R14*%
X160147000Y-75819000D03*
D11*
X160147000Y-85979000D03*
%TD*%
D12*
%TO.C,J2*%
X94996000Y-77724000D03*
D13*
X94996000Y-82804000D03*
%TD*%
D15*
%TO.C,P4*%
X195326000Y-36830000D03*
X195326000Y-39370000D03*
X195326000Y-41910000D03*
X195326000Y-44450000D03*
X195326000Y-46990000D03*
X195326000Y-49530000D03*
%TD*%
D16*
%TO.C,DZ6*%
X200538000Y-94488000D03*
X192918000Y-94488000D03*
%TD*%
%TO.C,DZ10*%
X200533000Y-103632000D03*
X192913000Y-103632000D03*
%TD*%
%TO.C,DZ20*%
X200533000Y-126492000D03*
X192913000Y-126492000D03*
%TD*%
D23*
%TO.C,MCU1*%
X165481000Y-73152000D03*
D24*
X165481000Y-75692000D03*
X165481000Y-78232000D03*
X165481000Y-80772000D03*
X165481000Y-83312000D03*
X165481000Y-85852000D03*
X165481000Y-88392000D03*
X165481000Y-90932000D03*
X165481000Y-93472000D03*
X165481000Y-96012000D03*
X165481000Y-98552000D03*
X165481000Y-101092000D03*
X165481000Y-103632000D03*
X165481000Y-106172000D03*
X165481000Y-108712000D03*
X165481000Y-111252000D03*
X165481000Y-113792000D03*
X165481000Y-116332000D03*
X165481000Y-118872000D03*
X165481000Y-121412000D03*
X165481000Y-123952000D03*
X165481000Y-126492000D03*
X188341000Y-73152000D03*
X188341000Y-75692000D03*
X188341000Y-78232000D03*
X188341000Y-80772000D03*
X188341000Y-83312000D03*
X188341000Y-85852000D03*
X188341000Y-88392000D03*
X188341000Y-90932000D03*
X188341000Y-93472000D03*
X188341000Y-96012000D03*
X188341000Y-98552000D03*
X188341000Y-101092000D03*
X188341000Y-103632000D03*
X188341000Y-106172000D03*
X188341000Y-108712000D03*
X188341000Y-111252000D03*
X188341000Y-113792000D03*
X188341000Y-116332000D03*
X188341000Y-118872000D03*
X188341000Y-121412000D03*
X188341000Y-123952000D03*
X188341000Y-126492000D03*
%TD*%
D10*
%TO.C,R18*%
X164566600Y-47013000D03*
D11*
X164566600Y-36853000D03*
%TD*%
D12*
%TO.C,J5*%
X145542000Y-134620000D03*
D13*
X150622000Y-134620000D03*
%TD*%
D17*
%TO.C,T3*%
X135081000Y-103124000D03*
D18*
X135081000Y-115824000D03*
X145081000Y-115824000D03*
X145081000Y-103124000D03*
%TD*%
D22*
%TO.C,D1*%
X97129600Y-54991000D03*
X107289600Y-54991000D03*
%TD*%
D12*
%TO.C,J1*%
X95636600Y-134620000D03*
D13*
X100716600Y-134620000D03*
%TD*%
D15*
%TO.C,SW1*%
X109098600Y-138911600D03*
X109098600Y-136371600D03*
X109098600Y-133831600D03*
%TD*%
D25*
%TO.C,U2*%
X121976000Y-123444000D03*
X121976000Y-120904000D03*
X121976000Y-118364000D03*
%TD*%
D16*
%TO.C,DZ15*%
X192913000Y-115062000D03*
X200533000Y-115062000D03*
%TD*%
D10*
%TO.C,R16*%
X116306600Y-47013000D03*
D11*
X116306600Y-36853000D03*
%TD*%
D14*
%TO.C,K3*%
X144342600Y-49053000D03*
X156342600Y-49053000D03*
X150342600Y-51053000D03*
X144342600Y-36853000D03*
X156342600Y-36853000D03*
%TD*%
D10*
%TO.C,R6*%
X151892000Y-80264000D03*
D11*
X151892000Y-70104000D03*
%TD*%
D15*
%TO.C,P5*%
X192913000Y-132207000D03*
X195453000Y-132207000D03*
X197993000Y-132207000D03*
X200533000Y-132207000D03*
X203073000Y-132207000D03*
X205613000Y-132207000D03*
%TD*%
M02*
