%TF.GenerationSoftware,KiCad,Pcbnew,7.0.10*%
%TF.CreationDate,2024-03-05T20:19:53-03:00*%
%TF.ProjectId,board,626f6172-642e-46b6-9963-61645f706362,rev?*%
%TF.SameCoordinates,Original*%
%TF.FileFunction,Soldermask,Bot*%
%TF.FilePolarity,Negative*%
%FSLAX46Y46*%
G04 Gerber Fmt 4.6, Leading zero omitted, Abs format (unit mm)*
G04 Created by KiCad (PCBNEW 7.0.10) date 2024-03-05 20:19:53*
%MOMM*%
%LPD*%
G01*
G04 APERTURE LIST*
%ADD10O,1.700000X1.700000*%
%ADD11C,1.700000*%
%ADD12C,3.000000*%
%ADD13O,1.500000X1.500000*%
%ADD14C,1.500000*%
%ADD15O,1.600000X1.600000*%
%ADD16C,1.600000*%
%ADD17C,1.712000*%
G04 APERTURE END LIST*
D10*
%TO.C,ESP32-S3_FRONT1*%
X70417000Y-52959000D03*
X70417000Y-55499000D03*
X70417000Y-58039000D03*
X70417000Y-60579000D03*
X70417000Y-63119000D03*
X70417000Y-65659000D03*
X70417000Y-68199000D03*
X70417000Y-70739000D03*
X70417000Y-73279000D03*
X70417000Y-75819000D03*
X70417000Y-78359000D03*
X70417000Y-80899000D03*
X70417000Y-83439000D03*
X70417000Y-85979000D03*
X70417000Y-88519000D03*
X70417000Y-91059000D03*
X70417000Y-93599000D03*
X70417000Y-96139000D03*
X70417000Y-98679000D03*
X70417000Y-101219000D03*
X70417000Y-103759000D03*
D11*
X70417000Y-106299000D03*
%TD*%
D12*
%TO.C,N  C*%
X85657000Y-29972000D03*
X90737000Y-29972000D03*
%TD*%
D13*
%TO.C,DZ14*%
X106812000Y-46609000D03*
D14*
X106812000Y-38989000D03*
%TD*%
D10*
%TO.C,ESP32-S3_BACK1*%
X95817000Y-52959000D03*
X95817000Y-55499000D03*
X95817000Y-58039000D03*
X95817000Y-60579000D03*
X95817000Y-63119000D03*
X95817000Y-65659000D03*
X95817000Y-68199000D03*
X95817000Y-70739000D03*
X95817000Y-73279000D03*
X95817000Y-75819000D03*
X95817000Y-78359000D03*
X95817000Y-80899000D03*
X95817000Y-83439000D03*
X95817000Y-85979000D03*
X95817000Y-88519000D03*
X95817000Y-91059000D03*
X95817000Y-93599000D03*
X95817000Y-96139000D03*
X95817000Y-98679000D03*
X95817000Y-101219000D03*
X95817000Y-103759000D03*
D11*
X95817000Y-106299000D03*
%TD*%
D15*
%TO.C,R11*%
X29269000Y-116459000D03*
D16*
X29269000Y-126619000D03*
%TD*%
D13*
%TO.C,DZ18*%
X106812000Y-69342000D03*
D14*
X106812000Y-61722000D03*
%TD*%
D13*
%TO.C,DZ20*%
X106812000Y-72263000D03*
D14*
X106812000Y-79883000D03*
%TD*%
D17*
%TO.C,T4*%
X46287000Y-80899000D03*
X46287000Y-93599000D03*
X36287000Y-93599000D03*
X36287000Y-80899000D03*
%TD*%
D15*
%TO.C,R23*%
X110568000Y-129794000D03*
D16*
X100408000Y-129794000D03*
%TD*%
D12*
%TO.C,Current N*%
X132811000Y-113569000D03*
X132811000Y-118649000D03*
%TD*%
D13*
%TO.C,DZ22*%
X106812000Y-91821000D03*
D14*
X106812000Y-84201000D03*
%TD*%
D13*
%TO.C,DZ25*%
X104526000Y-106934000D03*
D14*
X104526000Y-114554000D03*
%TD*%
D15*
%TO.C,R21*%
X66607000Y-129794000D03*
D16*
X56447000Y-129794000D03*
%TD*%
D14*
%TO.C,DZ19*%
X104526000Y-79883000D03*
X104526000Y-72263000D03*
%TD*%
%TO.C,DZ24*%
X106812000Y-94742000D03*
X106812000Y-102362000D03*
%TD*%
D13*
%TO.C,DZ2*%
X59114000Y-27559000D03*
D14*
X59114000Y-35179000D03*
%TD*%
D12*
%TO.C,K1*%
X124727000Y-54133000D03*
X124727000Y-42133000D03*
X112527000Y-42133000D03*
X112527000Y-54133000D03*
X126727000Y-48133000D03*
%TD*%
D13*
%TO.C,DZ7*%
X56828000Y-88519000D03*
D14*
X56828000Y-80899000D03*
%TD*%
%TO.C,DZ15*%
X104526000Y-57150000D03*
X104526000Y-49530000D03*
%TD*%
D12*
%TO.C,Current C*%
X132811000Y-90836000D03*
X132811000Y-95916000D03*
%TD*%
D17*
%TO.C,T2*%
X46277000Y-45339000D03*
X46277000Y-58039000D03*
X36277000Y-58039000D03*
X36277000Y-45339000D03*
%TD*%
%TO.C,T3*%
X46287000Y-63119000D03*
X46287000Y-75819000D03*
X36287000Y-75819000D03*
X36287000Y-63119000D03*
%TD*%
D12*
%TO.C,Current B*%
X132811000Y-68230000D03*
X132811000Y-73310000D03*
%TD*%
D13*
%TO.C,DZ13*%
X104526000Y-38989000D03*
D14*
X104526000Y-46609000D03*
%TD*%
D15*
%TO.C,R17*%
X112527000Y-83693000D03*
D16*
X122687000Y-83693000D03*
%TD*%
D15*
%TO.C,R7*%
X29287000Y-80899000D03*
D16*
X29287000Y-91059000D03*
%TD*%
D11*
%TO.C,Current Level*%
X86912000Y-124104000D03*
D10*
X84372000Y-124104000D03*
X81832000Y-124104000D03*
%TD*%
D12*
%TO.C,Current A*%
X132811000Y-45624000D03*
X132811000Y-50704000D03*
%TD*%
D15*
%TO.C,R12*%
X53272000Y-116459000D03*
D16*
X53272000Y-126619000D03*
%TD*%
D15*
%TO.C,R15*%
X112527000Y-61087000D03*
D16*
X122687000Y-61087000D03*
%TD*%
D17*
%TO.C,T1*%
X46287000Y-27559000D03*
X46287000Y-40259000D03*
X36287000Y-40259000D03*
X36287000Y-27559000D03*
%TD*%
D13*
%TO.C,DZ10*%
X59114000Y-98679000D03*
D14*
X59114000Y-106299000D03*
%TD*%
D15*
%TO.C,R16*%
X122687000Y-80391000D03*
D16*
X112527000Y-80391000D03*
%TD*%
D15*
%TO.C,R6*%
X53272000Y-63119000D03*
D16*
X53272000Y-73279000D03*
%TD*%
D13*
%TO.C,DZ27*%
X104526000Y-125095000D03*
D14*
X104526000Y-117475000D03*
%TD*%
D13*
%TO.C,DZ3*%
X56828000Y-52959000D03*
D14*
X56828000Y-45339000D03*
%TD*%
D13*
%TO.C,DZ8*%
X59114000Y-80899000D03*
D14*
X59114000Y-88519000D03*
%TD*%
D12*
%TO.C,K4*%
X124727000Y-121982000D03*
X124727000Y-109982000D03*
X112527000Y-109982000D03*
X112527000Y-121982000D03*
X126727000Y-115982000D03*
%TD*%
D15*
%TO.C,R4*%
X53272000Y-45339000D03*
D16*
X53272000Y-55499000D03*
%TD*%
D15*
%TO.C,R10*%
X53272000Y-98679000D03*
D16*
X53272000Y-108839000D03*
%TD*%
D13*
%TO.C,DZ4*%
X59114000Y-45339000D03*
D14*
X59114000Y-52959000D03*
%TD*%
D12*
%TO.C,B  A*%
X75497000Y-29972000D03*
X80577000Y-29972000D03*
%TD*%
D15*
%TO.C,R22*%
X66607000Y-132969000D03*
D16*
X56447000Y-132969000D03*
%TD*%
D15*
%TO.C,R13*%
X112527000Y-38481000D03*
D16*
X122687000Y-38481000D03*
%TD*%
D15*
%TO.C,R1*%
X29287000Y-27559000D03*
D16*
X29287000Y-37719000D03*
%TD*%
D13*
%TO.C,DZ12*%
X59114000Y-116459000D03*
D14*
X59114000Y-124079000D03*
%TD*%
D13*
%TO.C,DZ16*%
X106812000Y-49530000D03*
D14*
X106812000Y-57150000D03*
%TD*%
D12*
%TO.C,K2*%
X124727000Y-76739000D03*
X124727000Y-64739000D03*
X112527000Y-64739000D03*
X112527000Y-76739000D03*
X126727000Y-70739000D03*
%TD*%
D13*
%TO.C,DZ28*%
X106812000Y-117475000D03*
D14*
X106812000Y-125095000D03*
%TD*%
D15*
%TO.C,R2*%
X53272000Y-27559000D03*
D16*
X53272000Y-37719000D03*
%TD*%
D14*
%TO.C,DZ23*%
X104526000Y-102362000D03*
X104526000Y-94742000D03*
%TD*%
D12*
%TO.C,K3*%
X124727000Y-99345000D03*
X124727000Y-87345000D03*
X112527000Y-87345000D03*
X112527000Y-99345000D03*
X126727000Y-93345000D03*
%TD*%
D15*
%TO.C,R3*%
X29287000Y-45339000D03*
D16*
X29287000Y-55499000D03*
%TD*%
D14*
%TO.C,DZ21*%
X104526000Y-84201000D03*
X104526000Y-91821000D03*
%TD*%
D13*
%TO.C,DZ5*%
X56828000Y-70729000D03*
D14*
X56828000Y-63109000D03*
%TD*%
D15*
%TO.C,R8*%
X53272000Y-80899000D03*
D16*
X53272000Y-91059000D03*
%TD*%
D17*
%TO.C,T5*%
X46287000Y-98679000D03*
X46287000Y-111379000D03*
X36287000Y-111379000D03*
X36287000Y-98679000D03*
%TD*%
D15*
%TO.C,R24*%
X110549000Y-132969000D03*
D16*
X100389000Y-132969000D03*
%TD*%
D15*
%TO.C,R20*%
X122687000Y-125730000D03*
D16*
X112527000Y-125730000D03*
%TD*%
D15*
%TO.C,R9*%
X29287000Y-98679000D03*
D16*
X29287000Y-108839000D03*
%TD*%
D15*
%TO.C,R18*%
X122687000Y-102997000D03*
D16*
X112527000Y-102997000D03*
%TD*%
D13*
%TO.C,DZ6*%
X59114000Y-63119000D03*
D14*
X59114000Y-70739000D03*
%TD*%
D13*
%TO.C,DZ26*%
X106812000Y-114554000D03*
D14*
X106812000Y-106934000D03*
%TD*%
D17*
%TO.C,T6*%
X46287000Y-116459000D03*
X46287000Y-129159000D03*
X36287000Y-129159000D03*
X36287000Y-116459000D03*
%TD*%
D13*
%TO.C,DZ11*%
X56823000Y-124074000D03*
D14*
X56823000Y-116454000D03*
%TD*%
D15*
%TO.C,R14*%
X122687000Y-57785000D03*
D16*
X112527000Y-57785000D03*
%TD*%
D15*
%TO.C,R5*%
X29287000Y-63119000D03*
D16*
X29287000Y-73279000D03*
%TD*%
D13*
%TO.C,DZ17*%
X104526000Y-61722000D03*
D14*
X104526000Y-69342000D03*
%TD*%
D13*
%TO.C,DZ9*%
X56828000Y-106299000D03*
D14*
X56828000Y-98679000D03*
%TD*%
D13*
%TO.C,DZ1*%
X56828000Y-35179000D03*
D14*
X56828000Y-27559000D03*
%TD*%
D15*
%TO.C,R19*%
X112527000Y-106299000D03*
D16*
X122687000Y-106299000D03*
%TD*%
M02*
