%TF.GenerationSoftware,KiCad,Pcbnew,7.0.10*%
%TF.CreationDate,2024-03-05T20:19:53-03:00*%
%TF.ProjectId,board,626f6172-642e-46b6-9963-61645f706362,rev?*%
%TF.SameCoordinates,Original*%
%TF.FileFunction,Legend,Top*%
%TF.FilePolarity,Positive*%
%FSLAX46Y46*%
G04 Gerber Fmt 4.6, Leading zero omitted, Abs format (unit mm)*
G04 Created by KiCad (PCBNEW 7.0.10) date 2024-03-05 20:19:53*
%MOMM*%
%LPD*%
G01*
G04 APERTURE LIST*
%ADD10C,0.200000*%
%ADD11C,0.091200*%
%ADD12C,0.150000*%
%ADD13C,0.600000*%
%ADD14C,0.120000*%
%ADD15C,0.127000*%
G04 APERTURE END LIST*
D10*
X91292238Y-22707161D02*
X91292238Y-24707161D01*
X91292238Y-24707161D02*
X90149381Y-22707161D01*
X90149381Y-22707161D02*
X90149381Y-24707161D01*
X85006523Y-22897638D02*
X85101761Y-22802400D01*
X85101761Y-22802400D02*
X85387475Y-22707161D01*
X85387475Y-22707161D02*
X85577951Y-22707161D01*
X85577951Y-22707161D02*
X85863666Y-22802400D01*
X85863666Y-22802400D02*
X86054142Y-22992876D01*
X86054142Y-22992876D02*
X86149380Y-23183352D01*
X86149380Y-23183352D02*
X86244618Y-23564304D01*
X86244618Y-23564304D02*
X86244618Y-23850019D01*
X86244618Y-23850019D02*
X86149380Y-24230971D01*
X86149380Y-24230971D02*
X86054142Y-24421447D01*
X86054142Y-24421447D02*
X85863666Y-24611923D01*
X85863666Y-24611923D02*
X85577951Y-24707161D01*
X85577951Y-24707161D02*
X85387475Y-24707161D01*
X85387475Y-24707161D02*
X85101761Y-24611923D01*
X85101761Y-24611923D02*
X85006523Y-24516685D01*
D11*
X107088529Y-44054810D02*
X106480529Y-44054810D01*
X106480529Y-44054810D02*
X106480529Y-43910048D01*
X106480529Y-43910048D02*
X106509481Y-43823191D01*
X106509481Y-43823191D02*
X106567386Y-43765286D01*
X106567386Y-43765286D02*
X106625291Y-43736333D01*
X106625291Y-43736333D02*
X106741100Y-43707381D01*
X106741100Y-43707381D02*
X106827957Y-43707381D01*
X106827957Y-43707381D02*
X106943767Y-43736333D01*
X106943767Y-43736333D02*
X107001672Y-43765286D01*
X107001672Y-43765286D02*
X107059577Y-43823191D01*
X107059577Y-43823191D02*
X107088529Y-43910048D01*
X107088529Y-43910048D02*
X107088529Y-44054810D01*
X106480529Y-43504714D02*
X106480529Y-43099381D01*
X106480529Y-43099381D02*
X107088529Y-43504714D01*
X107088529Y-43504714D02*
X107088529Y-43099381D01*
X107088529Y-42549285D02*
X107088529Y-42896714D01*
X107088529Y-42723000D02*
X106480529Y-42723000D01*
X106480529Y-42723000D02*
X106567386Y-42780904D01*
X106567386Y-42780904D02*
X106625291Y-42838809D01*
X106625291Y-42838809D02*
X106654243Y-42896714D01*
X106683196Y-42028142D02*
X107088529Y-42028142D01*
X106451577Y-42172904D02*
X106885862Y-42317666D01*
X106885862Y-42317666D02*
X106885862Y-41941285D01*
D12*
X28819057Y-123753285D02*
X28771438Y-123705666D01*
X28771438Y-123705666D02*
X28723819Y-123610428D01*
X28723819Y-123610428D02*
X28723819Y-123372333D01*
X28723819Y-123372333D02*
X28771438Y-123277095D01*
X28771438Y-123277095D02*
X28819057Y-123229476D01*
X28819057Y-123229476D02*
X28914295Y-123181857D01*
X28914295Y-123181857D02*
X29009533Y-123181857D01*
X29009533Y-123181857D02*
X29152390Y-123229476D01*
X29152390Y-123229476D02*
X29723819Y-123800904D01*
X29723819Y-123800904D02*
X29723819Y-123181857D01*
X28723819Y-122848523D02*
X28723819Y-122181857D01*
X28723819Y-122181857D02*
X29723819Y-122610428D01*
X28723819Y-121610428D02*
X28723819Y-121515190D01*
X28723819Y-121515190D02*
X28771438Y-121419952D01*
X28771438Y-121419952D02*
X28819057Y-121372333D01*
X28819057Y-121372333D02*
X28914295Y-121324714D01*
X28914295Y-121324714D02*
X29104771Y-121277095D01*
X29104771Y-121277095D02*
X29342866Y-121277095D01*
X29342866Y-121277095D02*
X29533342Y-121324714D01*
X29533342Y-121324714D02*
X29628580Y-121372333D01*
X29628580Y-121372333D02*
X29676200Y-121419952D01*
X29676200Y-121419952D02*
X29723819Y-121515190D01*
X29723819Y-121515190D02*
X29723819Y-121610428D01*
X29723819Y-121610428D02*
X29676200Y-121705666D01*
X29676200Y-121705666D02*
X29628580Y-121753285D01*
X29628580Y-121753285D02*
X29533342Y-121800904D01*
X29533342Y-121800904D02*
X29342866Y-121848523D01*
X29342866Y-121848523D02*
X29104771Y-121848523D01*
X29104771Y-121848523D02*
X28914295Y-121800904D01*
X28914295Y-121800904D02*
X28819057Y-121753285D01*
X28819057Y-121753285D02*
X28771438Y-121705666D01*
X28771438Y-121705666D02*
X28723819Y-121610428D01*
X29723819Y-120848523D02*
X28723819Y-120848523D01*
X29342866Y-120753285D02*
X29723819Y-120467571D01*
X29057152Y-120467571D02*
X29438104Y-120848523D01*
X29723819Y-120086618D02*
X29723819Y-119848523D01*
X29723819Y-119848523D02*
X29533342Y-119848523D01*
X29533342Y-119848523D02*
X29485723Y-119943761D01*
X29485723Y-119943761D02*
X29390485Y-120038999D01*
X29390485Y-120038999D02*
X29247628Y-120086618D01*
X29247628Y-120086618D02*
X29009533Y-120086618D01*
X29009533Y-120086618D02*
X28866676Y-120038999D01*
X28866676Y-120038999D02*
X28771438Y-119943761D01*
X28771438Y-119943761D02*
X28723819Y-119800904D01*
X28723819Y-119800904D02*
X28723819Y-119610428D01*
X28723819Y-119610428D02*
X28771438Y-119467571D01*
X28771438Y-119467571D02*
X28866676Y-119372333D01*
X28866676Y-119372333D02*
X29009533Y-119324714D01*
X29009533Y-119324714D02*
X29247628Y-119324714D01*
X29247628Y-119324714D02*
X29390485Y-119372333D01*
X29390485Y-119372333D02*
X29485723Y-119467571D01*
X29485723Y-119467571D02*
X29533342Y-119562809D01*
X29533342Y-119562809D02*
X29723819Y-119562809D01*
X29723819Y-119562809D02*
X29723819Y-119324714D01*
D11*
X107088529Y-66787810D02*
X106480529Y-66787810D01*
X106480529Y-66787810D02*
X106480529Y-66643048D01*
X106480529Y-66643048D02*
X106509481Y-66556191D01*
X106509481Y-66556191D02*
X106567386Y-66498286D01*
X106567386Y-66498286D02*
X106625291Y-66469333D01*
X106625291Y-66469333D02*
X106741100Y-66440381D01*
X106741100Y-66440381D02*
X106827957Y-66440381D01*
X106827957Y-66440381D02*
X106943767Y-66469333D01*
X106943767Y-66469333D02*
X107001672Y-66498286D01*
X107001672Y-66498286D02*
X107059577Y-66556191D01*
X107059577Y-66556191D02*
X107088529Y-66643048D01*
X107088529Y-66643048D02*
X107088529Y-66787810D01*
X106480529Y-66237714D02*
X106480529Y-65832381D01*
X106480529Y-65832381D02*
X107088529Y-66237714D01*
X107088529Y-66237714D02*
X107088529Y-65832381D01*
X107088529Y-65282285D02*
X107088529Y-65629714D01*
X107088529Y-65456000D02*
X106480529Y-65456000D01*
X106480529Y-65456000D02*
X106567386Y-65513904D01*
X106567386Y-65513904D02*
X106625291Y-65571809D01*
X106625291Y-65571809D02*
X106654243Y-65629714D01*
X106741100Y-64934856D02*
X106712148Y-64992761D01*
X106712148Y-64992761D02*
X106683196Y-65021714D01*
X106683196Y-65021714D02*
X106625291Y-65050666D01*
X106625291Y-65050666D02*
X106596338Y-65050666D01*
X106596338Y-65050666D02*
X106538434Y-65021714D01*
X106538434Y-65021714D02*
X106509481Y-64992761D01*
X106509481Y-64992761D02*
X106480529Y-64934856D01*
X106480529Y-64934856D02*
X106480529Y-64819047D01*
X106480529Y-64819047D02*
X106509481Y-64761142D01*
X106509481Y-64761142D02*
X106538434Y-64732190D01*
X106538434Y-64732190D02*
X106596338Y-64703237D01*
X106596338Y-64703237D02*
X106625291Y-64703237D01*
X106625291Y-64703237D02*
X106683196Y-64732190D01*
X106683196Y-64732190D02*
X106712148Y-64761142D01*
X106712148Y-64761142D02*
X106741100Y-64819047D01*
X106741100Y-64819047D02*
X106741100Y-64934856D01*
X106741100Y-64934856D02*
X106770053Y-64992761D01*
X106770053Y-64992761D02*
X106799005Y-65021714D01*
X106799005Y-65021714D02*
X106856910Y-65050666D01*
X106856910Y-65050666D02*
X106972719Y-65050666D01*
X106972719Y-65050666D02*
X107030624Y-65021714D01*
X107030624Y-65021714D02*
X107059577Y-64992761D01*
X107059577Y-64992761D02*
X107088529Y-64934856D01*
X107088529Y-64934856D02*
X107088529Y-64819047D01*
X107088529Y-64819047D02*
X107059577Y-64761142D01*
X107059577Y-64761142D02*
X107030624Y-64732190D01*
X107030624Y-64732190D02*
X106972719Y-64703237D01*
X106972719Y-64703237D02*
X106856910Y-64703237D01*
X106856910Y-64703237D02*
X106799005Y-64732190D01*
X106799005Y-64732190D02*
X106770053Y-64761142D01*
X106770053Y-64761142D02*
X106741100Y-64819047D01*
X107088529Y-76872810D02*
X106480529Y-76872810D01*
X106480529Y-76872810D02*
X106480529Y-76728048D01*
X106480529Y-76728048D02*
X106509481Y-76641191D01*
X106509481Y-76641191D02*
X106567386Y-76583286D01*
X106567386Y-76583286D02*
X106625291Y-76554333D01*
X106625291Y-76554333D02*
X106741100Y-76525381D01*
X106741100Y-76525381D02*
X106827957Y-76525381D01*
X106827957Y-76525381D02*
X106943767Y-76554333D01*
X106943767Y-76554333D02*
X107001672Y-76583286D01*
X107001672Y-76583286D02*
X107059577Y-76641191D01*
X107059577Y-76641191D02*
X107088529Y-76728048D01*
X107088529Y-76728048D02*
X107088529Y-76872810D01*
X106480529Y-76322714D02*
X106480529Y-75917381D01*
X106480529Y-75917381D02*
X107088529Y-76322714D01*
X107088529Y-76322714D02*
X107088529Y-75917381D01*
X106538434Y-75714714D02*
X106509481Y-75685762D01*
X106509481Y-75685762D02*
X106480529Y-75627857D01*
X106480529Y-75627857D02*
X106480529Y-75483095D01*
X106480529Y-75483095D02*
X106509481Y-75425190D01*
X106509481Y-75425190D02*
X106538434Y-75396238D01*
X106538434Y-75396238D02*
X106596338Y-75367285D01*
X106596338Y-75367285D02*
X106654243Y-75367285D01*
X106654243Y-75367285D02*
X106741100Y-75396238D01*
X106741100Y-75396238D02*
X107088529Y-75743666D01*
X107088529Y-75743666D02*
X107088529Y-75367285D01*
X106480529Y-74990904D02*
X106480529Y-74932999D01*
X106480529Y-74932999D02*
X106509481Y-74875095D01*
X106509481Y-74875095D02*
X106538434Y-74846142D01*
X106538434Y-74846142D02*
X106596338Y-74817190D01*
X106596338Y-74817190D02*
X106712148Y-74788237D01*
X106712148Y-74788237D02*
X106856910Y-74788237D01*
X106856910Y-74788237D02*
X106972719Y-74817190D01*
X106972719Y-74817190D02*
X107030624Y-74846142D01*
X107030624Y-74846142D02*
X107059577Y-74875095D01*
X107059577Y-74875095D02*
X107088529Y-74932999D01*
X107088529Y-74932999D02*
X107088529Y-74990904D01*
X107088529Y-74990904D02*
X107059577Y-75048809D01*
X107059577Y-75048809D02*
X107030624Y-75077761D01*
X107030624Y-75077761D02*
X106972719Y-75106714D01*
X106972719Y-75106714D02*
X106856910Y-75135666D01*
X106856910Y-75135666D02*
X106712148Y-75135666D01*
X106712148Y-75135666D02*
X106596338Y-75106714D01*
X106596338Y-75106714D02*
X106538434Y-75077761D01*
X106538434Y-75077761D02*
X106509481Y-75048809D01*
X106509481Y-75048809D02*
X106480529Y-74990904D01*
D13*
X38239381Y-85068276D02*
X40525095Y-85068276D01*
X39382238Y-89068276D02*
X39382238Y-85068276D01*
X43572714Y-86401609D02*
X43572714Y-89068276D01*
X42620333Y-84877800D02*
X41667952Y-87734942D01*
X41667952Y-87734942D02*
X44144143Y-87734942D01*
D12*
X104321333Y-130248819D02*
X103749905Y-130248819D01*
X104035619Y-130248819D02*
X104035619Y-129248819D01*
X104035619Y-129248819D02*
X103940381Y-129391676D01*
X103940381Y-129391676D02*
X103845143Y-129486914D01*
X103845143Y-129486914D02*
X103749905Y-129534533D01*
X104940381Y-129248819D02*
X105035619Y-129248819D01*
X105035619Y-129248819D02*
X105130857Y-129296438D01*
X105130857Y-129296438D02*
X105178476Y-129344057D01*
X105178476Y-129344057D02*
X105226095Y-129439295D01*
X105226095Y-129439295D02*
X105273714Y-129629771D01*
X105273714Y-129629771D02*
X105273714Y-129867866D01*
X105273714Y-129867866D02*
X105226095Y-130058342D01*
X105226095Y-130058342D02*
X105178476Y-130153580D01*
X105178476Y-130153580D02*
X105130857Y-130201200D01*
X105130857Y-130201200D02*
X105035619Y-130248819D01*
X105035619Y-130248819D02*
X104940381Y-130248819D01*
X104940381Y-130248819D02*
X104845143Y-130201200D01*
X104845143Y-130201200D02*
X104797524Y-130153580D01*
X104797524Y-130153580D02*
X104749905Y-130058342D01*
X104749905Y-130058342D02*
X104702286Y-129867866D01*
X104702286Y-129867866D02*
X104702286Y-129629771D01*
X104702286Y-129629771D02*
X104749905Y-129439295D01*
X104749905Y-129439295D02*
X104797524Y-129344057D01*
X104797524Y-129344057D02*
X104845143Y-129296438D01*
X104845143Y-129296438D02*
X104940381Y-129248819D01*
X105702286Y-130248819D02*
X105702286Y-129248819D01*
X105797524Y-129867866D02*
X106083238Y-130248819D01*
X106083238Y-129582152D02*
X105702286Y-129963104D01*
X106464191Y-130248819D02*
X106702286Y-130248819D01*
X106702286Y-130248819D02*
X106702286Y-130058342D01*
X106702286Y-130058342D02*
X106607048Y-130010723D01*
X106607048Y-130010723D02*
X106511810Y-129915485D01*
X106511810Y-129915485D02*
X106464191Y-129772628D01*
X106464191Y-129772628D02*
X106464191Y-129534533D01*
X106464191Y-129534533D02*
X106511810Y-129391676D01*
X106511810Y-129391676D02*
X106607048Y-129296438D01*
X106607048Y-129296438D02*
X106749905Y-129248819D01*
X106749905Y-129248819D02*
X106940381Y-129248819D01*
X106940381Y-129248819D02*
X107083238Y-129296438D01*
X107083238Y-129296438D02*
X107178476Y-129391676D01*
X107178476Y-129391676D02*
X107226095Y-129534533D01*
X107226095Y-129534533D02*
X107226095Y-129772628D01*
X107226095Y-129772628D02*
X107178476Y-129915485D01*
X107178476Y-129915485D02*
X107083238Y-130010723D01*
X107083238Y-130010723D02*
X106988000Y-130058342D01*
X106988000Y-130058342D02*
X106988000Y-130248819D01*
X106988000Y-130248819D02*
X107226095Y-130248819D01*
X138250580Y-118942334D02*
X138298200Y-118989953D01*
X138298200Y-118989953D02*
X138345819Y-119132810D01*
X138345819Y-119132810D02*
X138345819Y-119228048D01*
X138345819Y-119228048D02*
X138298200Y-119370905D01*
X138298200Y-119370905D02*
X138202961Y-119466143D01*
X138202961Y-119466143D02*
X138107723Y-119513762D01*
X138107723Y-119513762D02*
X137917247Y-119561381D01*
X137917247Y-119561381D02*
X137774390Y-119561381D01*
X137774390Y-119561381D02*
X137583914Y-119513762D01*
X137583914Y-119513762D02*
X137488676Y-119466143D01*
X137488676Y-119466143D02*
X137393438Y-119370905D01*
X137393438Y-119370905D02*
X137345819Y-119228048D01*
X137345819Y-119228048D02*
X137345819Y-119132810D01*
X137345819Y-119132810D02*
X137393438Y-118989953D01*
X137393438Y-118989953D02*
X137441057Y-118942334D01*
X137679152Y-118085191D02*
X138345819Y-118085191D01*
X137679152Y-118513762D02*
X138202961Y-118513762D01*
X138202961Y-118513762D02*
X138298200Y-118466143D01*
X138298200Y-118466143D02*
X138345819Y-118370905D01*
X138345819Y-118370905D02*
X138345819Y-118228048D01*
X138345819Y-118228048D02*
X138298200Y-118132810D01*
X138298200Y-118132810D02*
X138250580Y-118085191D01*
X138345819Y-117609000D02*
X137679152Y-117609000D01*
X137869628Y-117609000D02*
X137774390Y-117561381D01*
X137774390Y-117561381D02*
X137726771Y-117513762D01*
X137726771Y-117513762D02*
X137679152Y-117418524D01*
X137679152Y-117418524D02*
X137679152Y-117323286D01*
X138345819Y-116989952D02*
X137679152Y-116989952D01*
X137869628Y-116989952D02*
X137774390Y-116942333D01*
X137774390Y-116942333D02*
X137726771Y-116894714D01*
X137726771Y-116894714D02*
X137679152Y-116799476D01*
X137679152Y-116799476D02*
X137679152Y-116704238D01*
X138298200Y-115989952D02*
X138345819Y-116085190D01*
X138345819Y-116085190D02*
X138345819Y-116275666D01*
X138345819Y-116275666D02*
X138298200Y-116370904D01*
X138298200Y-116370904D02*
X138202961Y-116418523D01*
X138202961Y-116418523D02*
X137822009Y-116418523D01*
X137822009Y-116418523D02*
X137726771Y-116370904D01*
X137726771Y-116370904D02*
X137679152Y-116275666D01*
X137679152Y-116275666D02*
X137679152Y-116085190D01*
X137679152Y-116085190D02*
X137726771Y-115989952D01*
X137726771Y-115989952D02*
X137822009Y-115942333D01*
X137822009Y-115942333D02*
X137917247Y-115942333D01*
X137917247Y-115942333D02*
X138012485Y-116418523D01*
X137679152Y-115513761D02*
X138345819Y-115513761D01*
X137774390Y-115513761D02*
X137726771Y-115466142D01*
X137726771Y-115466142D02*
X137679152Y-115370904D01*
X137679152Y-115370904D02*
X137679152Y-115228047D01*
X137679152Y-115228047D02*
X137726771Y-115132809D01*
X137726771Y-115132809D02*
X137822009Y-115085190D01*
X137822009Y-115085190D02*
X138345819Y-115085190D01*
X137679152Y-114751856D02*
X137679152Y-114370904D01*
X137345819Y-114608999D02*
X138202961Y-114608999D01*
X138202961Y-114608999D02*
X138298200Y-114561380D01*
X138298200Y-114561380D02*
X138345819Y-114466142D01*
X138345819Y-114466142D02*
X138345819Y-114370904D01*
X138345819Y-113275665D02*
X137345819Y-113275665D01*
X137345819Y-113275665D02*
X138345819Y-112704237D01*
X138345819Y-112704237D02*
X137345819Y-112704237D01*
D11*
X107088529Y-89266810D02*
X106480529Y-89266810D01*
X106480529Y-89266810D02*
X106480529Y-89122048D01*
X106480529Y-89122048D02*
X106509481Y-89035191D01*
X106509481Y-89035191D02*
X106567386Y-88977286D01*
X106567386Y-88977286D02*
X106625291Y-88948333D01*
X106625291Y-88948333D02*
X106741100Y-88919381D01*
X106741100Y-88919381D02*
X106827957Y-88919381D01*
X106827957Y-88919381D02*
X106943767Y-88948333D01*
X106943767Y-88948333D02*
X107001672Y-88977286D01*
X107001672Y-88977286D02*
X107059577Y-89035191D01*
X107059577Y-89035191D02*
X107088529Y-89122048D01*
X107088529Y-89122048D02*
X107088529Y-89266810D01*
X106480529Y-88716714D02*
X106480529Y-88311381D01*
X106480529Y-88311381D02*
X107088529Y-88716714D01*
X107088529Y-88716714D02*
X107088529Y-88311381D01*
X106538434Y-88108714D02*
X106509481Y-88079762D01*
X106509481Y-88079762D02*
X106480529Y-88021857D01*
X106480529Y-88021857D02*
X106480529Y-87877095D01*
X106480529Y-87877095D02*
X106509481Y-87819190D01*
X106509481Y-87819190D02*
X106538434Y-87790238D01*
X106538434Y-87790238D02*
X106596338Y-87761285D01*
X106596338Y-87761285D02*
X106654243Y-87761285D01*
X106654243Y-87761285D02*
X106741100Y-87790238D01*
X106741100Y-87790238D02*
X107088529Y-88137666D01*
X107088529Y-88137666D02*
X107088529Y-87761285D01*
X106538434Y-87529666D02*
X106509481Y-87500714D01*
X106509481Y-87500714D02*
X106480529Y-87442809D01*
X106480529Y-87442809D02*
X106480529Y-87298047D01*
X106480529Y-87298047D02*
X106509481Y-87240142D01*
X106509481Y-87240142D02*
X106538434Y-87211190D01*
X106538434Y-87211190D02*
X106596338Y-87182237D01*
X106596338Y-87182237D02*
X106654243Y-87182237D01*
X106654243Y-87182237D02*
X106741100Y-87211190D01*
X106741100Y-87211190D02*
X107088529Y-87558618D01*
X107088529Y-87558618D02*
X107088529Y-87182237D01*
X104802529Y-111543810D02*
X104194529Y-111543810D01*
X104194529Y-111543810D02*
X104194529Y-111399048D01*
X104194529Y-111399048D02*
X104223481Y-111312191D01*
X104223481Y-111312191D02*
X104281386Y-111254286D01*
X104281386Y-111254286D02*
X104339291Y-111225333D01*
X104339291Y-111225333D02*
X104455100Y-111196381D01*
X104455100Y-111196381D02*
X104541957Y-111196381D01*
X104541957Y-111196381D02*
X104657767Y-111225333D01*
X104657767Y-111225333D02*
X104715672Y-111254286D01*
X104715672Y-111254286D02*
X104773577Y-111312191D01*
X104773577Y-111312191D02*
X104802529Y-111399048D01*
X104802529Y-111399048D02*
X104802529Y-111543810D01*
X104194529Y-110993714D02*
X104194529Y-110588381D01*
X104194529Y-110588381D02*
X104802529Y-110993714D01*
X104802529Y-110993714D02*
X104802529Y-110588381D01*
X104252434Y-110385714D02*
X104223481Y-110356762D01*
X104223481Y-110356762D02*
X104194529Y-110298857D01*
X104194529Y-110298857D02*
X104194529Y-110154095D01*
X104194529Y-110154095D02*
X104223481Y-110096190D01*
X104223481Y-110096190D02*
X104252434Y-110067238D01*
X104252434Y-110067238D02*
X104310338Y-110038285D01*
X104310338Y-110038285D02*
X104368243Y-110038285D01*
X104368243Y-110038285D02*
X104455100Y-110067238D01*
X104455100Y-110067238D02*
X104802529Y-110414666D01*
X104802529Y-110414666D02*
X104802529Y-110038285D01*
X104194529Y-109488190D02*
X104194529Y-109777714D01*
X104194529Y-109777714D02*
X104484053Y-109806666D01*
X104484053Y-109806666D02*
X104455100Y-109777714D01*
X104455100Y-109777714D02*
X104426148Y-109719809D01*
X104426148Y-109719809D02*
X104426148Y-109575047D01*
X104426148Y-109575047D02*
X104455100Y-109517142D01*
X104455100Y-109517142D02*
X104484053Y-109488190D01*
X104484053Y-109488190D02*
X104541957Y-109459237D01*
X104541957Y-109459237D02*
X104686719Y-109459237D01*
X104686719Y-109459237D02*
X104744624Y-109488190D01*
X104744624Y-109488190D02*
X104773577Y-109517142D01*
X104773577Y-109517142D02*
X104802529Y-109575047D01*
X104802529Y-109575047D02*
X104802529Y-109719809D01*
X104802529Y-109719809D02*
X104773577Y-109777714D01*
X104773577Y-109777714D02*
X104744624Y-109806666D01*
D12*
X60360333Y-130248819D02*
X59788905Y-130248819D01*
X60074619Y-130248819D02*
X60074619Y-129248819D01*
X60074619Y-129248819D02*
X59979381Y-129391676D01*
X59979381Y-129391676D02*
X59884143Y-129486914D01*
X59884143Y-129486914D02*
X59788905Y-129534533D01*
X60979381Y-129248819D02*
X61074619Y-129248819D01*
X61074619Y-129248819D02*
X61169857Y-129296438D01*
X61169857Y-129296438D02*
X61217476Y-129344057D01*
X61217476Y-129344057D02*
X61265095Y-129439295D01*
X61265095Y-129439295D02*
X61312714Y-129629771D01*
X61312714Y-129629771D02*
X61312714Y-129867866D01*
X61312714Y-129867866D02*
X61265095Y-130058342D01*
X61265095Y-130058342D02*
X61217476Y-130153580D01*
X61217476Y-130153580D02*
X61169857Y-130201200D01*
X61169857Y-130201200D02*
X61074619Y-130248819D01*
X61074619Y-130248819D02*
X60979381Y-130248819D01*
X60979381Y-130248819D02*
X60884143Y-130201200D01*
X60884143Y-130201200D02*
X60836524Y-130153580D01*
X60836524Y-130153580D02*
X60788905Y-130058342D01*
X60788905Y-130058342D02*
X60741286Y-129867866D01*
X60741286Y-129867866D02*
X60741286Y-129629771D01*
X60741286Y-129629771D02*
X60788905Y-129439295D01*
X60788905Y-129439295D02*
X60836524Y-129344057D01*
X60836524Y-129344057D02*
X60884143Y-129296438D01*
X60884143Y-129296438D02*
X60979381Y-129248819D01*
X61741286Y-130248819D02*
X61741286Y-129248819D01*
X61836524Y-129867866D02*
X62122238Y-130248819D01*
X62122238Y-129582152D02*
X61741286Y-129963104D01*
X62503191Y-130248819D02*
X62741286Y-130248819D01*
X62741286Y-130248819D02*
X62741286Y-130058342D01*
X62741286Y-130058342D02*
X62646048Y-130010723D01*
X62646048Y-130010723D02*
X62550810Y-129915485D01*
X62550810Y-129915485D02*
X62503191Y-129772628D01*
X62503191Y-129772628D02*
X62503191Y-129534533D01*
X62503191Y-129534533D02*
X62550810Y-129391676D01*
X62550810Y-129391676D02*
X62646048Y-129296438D01*
X62646048Y-129296438D02*
X62788905Y-129248819D01*
X62788905Y-129248819D02*
X62979381Y-129248819D01*
X62979381Y-129248819D02*
X63122238Y-129296438D01*
X63122238Y-129296438D02*
X63217476Y-129391676D01*
X63217476Y-129391676D02*
X63265095Y-129534533D01*
X63265095Y-129534533D02*
X63265095Y-129772628D01*
X63265095Y-129772628D02*
X63217476Y-129915485D01*
X63217476Y-129915485D02*
X63122238Y-130010723D01*
X63122238Y-130010723D02*
X63027000Y-130058342D01*
X63027000Y-130058342D02*
X63027000Y-130248819D01*
X63027000Y-130248819D02*
X63265095Y-130248819D01*
D11*
X104802529Y-77328810D02*
X104194529Y-77328810D01*
X104194529Y-77328810D02*
X104194529Y-77184048D01*
X104194529Y-77184048D02*
X104223481Y-77097191D01*
X104223481Y-77097191D02*
X104281386Y-77039286D01*
X104281386Y-77039286D02*
X104339291Y-77010333D01*
X104339291Y-77010333D02*
X104455100Y-76981381D01*
X104455100Y-76981381D02*
X104541957Y-76981381D01*
X104541957Y-76981381D02*
X104657767Y-77010333D01*
X104657767Y-77010333D02*
X104715672Y-77039286D01*
X104715672Y-77039286D02*
X104773577Y-77097191D01*
X104773577Y-77097191D02*
X104802529Y-77184048D01*
X104802529Y-77184048D02*
X104802529Y-77328810D01*
X104194529Y-76778714D02*
X104194529Y-76373381D01*
X104194529Y-76373381D02*
X104802529Y-76778714D01*
X104802529Y-76778714D02*
X104802529Y-76373381D01*
X104802529Y-75823285D02*
X104802529Y-76170714D01*
X104802529Y-75997000D02*
X104194529Y-75997000D01*
X104194529Y-75997000D02*
X104281386Y-76054904D01*
X104281386Y-76054904D02*
X104339291Y-76112809D01*
X104339291Y-76112809D02*
X104368243Y-76170714D01*
X104802529Y-75533761D02*
X104802529Y-75417952D01*
X104802529Y-75417952D02*
X104773577Y-75360047D01*
X104773577Y-75360047D02*
X104744624Y-75331095D01*
X104744624Y-75331095D02*
X104657767Y-75273190D01*
X104657767Y-75273190D02*
X104541957Y-75244237D01*
X104541957Y-75244237D02*
X104310338Y-75244237D01*
X104310338Y-75244237D02*
X104252434Y-75273190D01*
X104252434Y-75273190D02*
X104223481Y-75302142D01*
X104223481Y-75302142D02*
X104194529Y-75360047D01*
X104194529Y-75360047D02*
X104194529Y-75475856D01*
X104194529Y-75475856D02*
X104223481Y-75533761D01*
X104223481Y-75533761D02*
X104252434Y-75562714D01*
X104252434Y-75562714D02*
X104310338Y-75591666D01*
X104310338Y-75591666D02*
X104455100Y-75591666D01*
X104455100Y-75591666D02*
X104513005Y-75562714D01*
X104513005Y-75562714D02*
X104541957Y-75533761D01*
X104541957Y-75533761D02*
X104570910Y-75475856D01*
X104570910Y-75475856D02*
X104570910Y-75360047D01*
X104570910Y-75360047D02*
X104541957Y-75302142D01*
X104541957Y-75302142D02*
X104513005Y-75273190D01*
X104513005Y-75273190D02*
X104455100Y-75244237D01*
X107088529Y-99351810D02*
X106480529Y-99351810D01*
X106480529Y-99351810D02*
X106480529Y-99207048D01*
X106480529Y-99207048D02*
X106509481Y-99120191D01*
X106509481Y-99120191D02*
X106567386Y-99062286D01*
X106567386Y-99062286D02*
X106625291Y-99033333D01*
X106625291Y-99033333D02*
X106741100Y-99004381D01*
X106741100Y-99004381D02*
X106827957Y-99004381D01*
X106827957Y-99004381D02*
X106943767Y-99033333D01*
X106943767Y-99033333D02*
X107001672Y-99062286D01*
X107001672Y-99062286D02*
X107059577Y-99120191D01*
X107059577Y-99120191D02*
X107088529Y-99207048D01*
X107088529Y-99207048D02*
X107088529Y-99351810D01*
X106480529Y-98801714D02*
X106480529Y-98396381D01*
X106480529Y-98396381D02*
X107088529Y-98801714D01*
X107088529Y-98801714D02*
X107088529Y-98396381D01*
X106538434Y-98193714D02*
X106509481Y-98164762D01*
X106509481Y-98164762D02*
X106480529Y-98106857D01*
X106480529Y-98106857D02*
X106480529Y-97962095D01*
X106480529Y-97962095D02*
X106509481Y-97904190D01*
X106509481Y-97904190D02*
X106538434Y-97875238D01*
X106538434Y-97875238D02*
X106596338Y-97846285D01*
X106596338Y-97846285D02*
X106654243Y-97846285D01*
X106654243Y-97846285D02*
X106741100Y-97875238D01*
X106741100Y-97875238D02*
X107088529Y-98222666D01*
X107088529Y-98222666D02*
X107088529Y-97846285D01*
X106683196Y-97325142D02*
X107088529Y-97325142D01*
X106451577Y-97469904D02*
X106885862Y-97614666D01*
X106885862Y-97614666D02*
X106885862Y-97238285D01*
X59390529Y-31879286D02*
X58782529Y-31879286D01*
X58782529Y-31879286D02*
X58782529Y-31734524D01*
X58782529Y-31734524D02*
X58811481Y-31647667D01*
X58811481Y-31647667D02*
X58869386Y-31589762D01*
X58869386Y-31589762D02*
X58927291Y-31560809D01*
X58927291Y-31560809D02*
X59043100Y-31531857D01*
X59043100Y-31531857D02*
X59129957Y-31531857D01*
X59129957Y-31531857D02*
X59245767Y-31560809D01*
X59245767Y-31560809D02*
X59303672Y-31589762D01*
X59303672Y-31589762D02*
X59361577Y-31647667D01*
X59361577Y-31647667D02*
X59390529Y-31734524D01*
X59390529Y-31734524D02*
X59390529Y-31879286D01*
X58782529Y-31329190D02*
X58782529Y-30923857D01*
X58782529Y-30923857D02*
X59390529Y-31329190D01*
X59390529Y-31329190D02*
X59390529Y-30923857D01*
X58840434Y-30721190D02*
X58811481Y-30692238D01*
X58811481Y-30692238D02*
X58782529Y-30634333D01*
X58782529Y-30634333D02*
X58782529Y-30489571D01*
X58782529Y-30489571D02*
X58811481Y-30431666D01*
X58811481Y-30431666D02*
X58840434Y-30402714D01*
X58840434Y-30402714D02*
X58898338Y-30373761D01*
X58898338Y-30373761D02*
X58956243Y-30373761D01*
X58956243Y-30373761D02*
X59043100Y-30402714D01*
X59043100Y-30402714D02*
X59390529Y-30750142D01*
X59390529Y-30750142D02*
X59390529Y-30373761D01*
X57104529Y-85675286D02*
X56496529Y-85675286D01*
X56496529Y-85675286D02*
X56496529Y-85530524D01*
X56496529Y-85530524D02*
X56525481Y-85443667D01*
X56525481Y-85443667D02*
X56583386Y-85385762D01*
X56583386Y-85385762D02*
X56641291Y-85356809D01*
X56641291Y-85356809D02*
X56757100Y-85327857D01*
X56757100Y-85327857D02*
X56843957Y-85327857D01*
X56843957Y-85327857D02*
X56959767Y-85356809D01*
X56959767Y-85356809D02*
X57017672Y-85385762D01*
X57017672Y-85385762D02*
X57075577Y-85443667D01*
X57075577Y-85443667D02*
X57104529Y-85530524D01*
X57104529Y-85530524D02*
X57104529Y-85675286D01*
X56496529Y-85125190D02*
X56496529Y-84719857D01*
X56496529Y-84719857D02*
X57104529Y-85125190D01*
X57104529Y-85125190D02*
X57104529Y-84719857D01*
X56496529Y-84546142D02*
X56496529Y-84140809D01*
X56496529Y-84140809D02*
X57104529Y-84401380D01*
X104802529Y-54595810D02*
X104194529Y-54595810D01*
X104194529Y-54595810D02*
X104194529Y-54451048D01*
X104194529Y-54451048D02*
X104223481Y-54364191D01*
X104223481Y-54364191D02*
X104281386Y-54306286D01*
X104281386Y-54306286D02*
X104339291Y-54277333D01*
X104339291Y-54277333D02*
X104455100Y-54248381D01*
X104455100Y-54248381D02*
X104541957Y-54248381D01*
X104541957Y-54248381D02*
X104657767Y-54277333D01*
X104657767Y-54277333D02*
X104715672Y-54306286D01*
X104715672Y-54306286D02*
X104773577Y-54364191D01*
X104773577Y-54364191D02*
X104802529Y-54451048D01*
X104802529Y-54451048D02*
X104802529Y-54595810D01*
X104194529Y-54045714D02*
X104194529Y-53640381D01*
X104194529Y-53640381D02*
X104802529Y-54045714D01*
X104802529Y-54045714D02*
X104802529Y-53640381D01*
X104802529Y-53090285D02*
X104802529Y-53437714D01*
X104802529Y-53264000D02*
X104194529Y-53264000D01*
X104194529Y-53264000D02*
X104281386Y-53321904D01*
X104281386Y-53321904D02*
X104339291Y-53379809D01*
X104339291Y-53379809D02*
X104368243Y-53437714D01*
X104194529Y-52540190D02*
X104194529Y-52829714D01*
X104194529Y-52829714D02*
X104484053Y-52858666D01*
X104484053Y-52858666D02*
X104455100Y-52829714D01*
X104455100Y-52829714D02*
X104426148Y-52771809D01*
X104426148Y-52771809D02*
X104426148Y-52627047D01*
X104426148Y-52627047D02*
X104455100Y-52569142D01*
X104455100Y-52569142D02*
X104484053Y-52540190D01*
X104484053Y-52540190D02*
X104541957Y-52511237D01*
X104541957Y-52511237D02*
X104686719Y-52511237D01*
X104686719Y-52511237D02*
X104744624Y-52540190D01*
X104744624Y-52540190D02*
X104773577Y-52569142D01*
X104773577Y-52569142D02*
X104802529Y-52627047D01*
X104802529Y-52627047D02*
X104802529Y-52771809D01*
X104802529Y-52771809D02*
X104773577Y-52829714D01*
X104773577Y-52829714D02*
X104744624Y-52858666D01*
D12*
X138250580Y-96185524D02*
X138298200Y-96233143D01*
X138298200Y-96233143D02*
X138345819Y-96376000D01*
X138345819Y-96376000D02*
X138345819Y-96471238D01*
X138345819Y-96471238D02*
X138298200Y-96614095D01*
X138298200Y-96614095D02*
X138202961Y-96709333D01*
X138202961Y-96709333D02*
X138107723Y-96756952D01*
X138107723Y-96756952D02*
X137917247Y-96804571D01*
X137917247Y-96804571D02*
X137774390Y-96804571D01*
X137774390Y-96804571D02*
X137583914Y-96756952D01*
X137583914Y-96756952D02*
X137488676Y-96709333D01*
X137488676Y-96709333D02*
X137393438Y-96614095D01*
X137393438Y-96614095D02*
X137345819Y-96471238D01*
X137345819Y-96471238D02*
X137345819Y-96376000D01*
X137345819Y-96376000D02*
X137393438Y-96233143D01*
X137393438Y-96233143D02*
X137441057Y-96185524D01*
X137679152Y-95328381D02*
X138345819Y-95328381D01*
X137679152Y-95756952D02*
X138202961Y-95756952D01*
X138202961Y-95756952D02*
X138298200Y-95709333D01*
X138298200Y-95709333D02*
X138345819Y-95614095D01*
X138345819Y-95614095D02*
X138345819Y-95471238D01*
X138345819Y-95471238D02*
X138298200Y-95376000D01*
X138298200Y-95376000D02*
X138250580Y-95328381D01*
X138345819Y-94852190D02*
X137679152Y-94852190D01*
X137869628Y-94852190D02*
X137774390Y-94804571D01*
X137774390Y-94804571D02*
X137726771Y-94756952D01*
X137726771Y-94756952D02*
X137679152Y-94661714D01*
X137679152Y-94661714D02*
X137679152Y-94566476D01*
X138345819Y-94233142D02*
X137679152Y-94233142D01*
X137869628Y-94233142D02*
X137774390Y-94185523D01*
X137774390Y-94185523D02*
X137726771Y-94137904D01*
X137726771Y-94137904D02*
X137679152Y-94042666D01*
X137679152Y-94042666D02*
X137679152Y-93947428D01*
X138298200Y-93233142D02*
X138345819Y-93328380D01*
X138345819Y-93328380D02*
X138345819Y-93518856D01*
X138345819Y-93518856D02*
X138298200Y-93614094D01*
X138298200Y-93614094D02*
X138202961Y-93661713D01*
X138202961Y-93661713D02*
X137822009Y-93661713D01*
X137822009Y-93661713D02*
X137726771Y-93614094D01*
X137726771Y-93614094D02*
X137679152Y-93518856D01*
X137679152Y-93518856D02*
X137679152Y-93328380D01*
X137679152Y-93328380D02*
X137726771Y-93233142D01*
X137726771Y-93233142D02*
X137822009Y-93185523D01*
X137822009Y-93185523D02*
X137917247Y-93185523D01*
X137917247Y-93185523D02*
X138012485Y-93661713D01*
X137679152Y-92756951D02*
X138345819Y-92756951D01*
X137774390Y-92756951D02*
X137726771Y-92709332D01*
X137726771Y-92709332D02*
X137679152Y-92614094D01*
X137679152Y-92614094D02*
X137679152Y-92471237D01*
X137679152Y-92471237D02*
X137726771Y-92375999D01*
X137726771Y-92375999D02*
X137822009Y-92328380D01*
X137822009Y-92328380D02*
X138345819Y-92328380D01*
X137679152Y-91995046D02*
X137679152Y-91614094D01*
X137345819Y-91852189D02*
X138202961Y-91852189D01*
X138202961Y-91852189D02*
X138298200Y-91804570D01*
X138298200Y-91804570D02*
X138345819Y-91709332D01*
X138345819Y-91709332D02*
X138345819Y-91614094D01*
X138250580Y-89947427D02*
X138298200Y-89995046D01*
X138298200Y-89995046D02*
X138345819Y-90137903D01*
X138345819Y-90137903D02*
X138345819Y-90233141D01*
X138345819Y-90233141D02*
X138298200Y-90375998D01*
X138298200Y-90375998D02*
X138202961Y-90471236D01*
X138202961Y-90471236D02*
X138107723Y-90518855D01*
X138107723Y-90518855D02*
X137917247Y-90566474D01*
X137917247Y-90566474D02*
X137774390Y-90566474D01*
X137774390Y-90566474D02*
X137583914Y-90518855D01*
X137583914Y-90518855D02*
X137488676Y-90471236D01*
X137488676Y-90471236D02*
X137393438Y-90375998D01*
X137393438Y-90375998D02*
X137345819Y-90233141D01*
X137345819Y-90233141D02*
X137345819Y-90137903D01*
X137345819Y-90137903D02*
X137393438Y-89995046D01*
X137393438Y-89995046D02*
X137441057Y-89947427D01*
D13*
X38229381Y-49508276D02*
X40515095Y-49508276D01*
X39372238Y-53508276D02*
X39372238Y-49508276D01*
X41657952Y-49889228D02*
X41848428Y-49698752D01*
X41848428Y-49698752D02*
X42229381Y-49508276D01*
X42229381Y-49508276D02*
X43181762Y-49508276D01*
X43181762Y-49508276D02*
X43562714Y-49698752D01*
X43562714Y-49698752D02*
X43753190Y-49889228D01*
X43753190Y-49889228D02*
X43943667Y-50270180D01*
X43943667Y-50270180D02*
X43943667Y-50651133D01*
X43943667Y-50651133D02*
X43753190Y-51222561D01*
X43753190Y-51222561D02*
X41467476Y-53508276D01*
X41467476Y-53508276D02*
X43943667Y-53508276D01*
X38239381Y-67288276D02*
X40525095Y-67288276D01*
X39382238Y-71288276D02*
X39382238Y-67288276D01*
X41477476Y-67288276D02*
X43953667Y-67288276D01*
X43953667Y-67288276D02*
X42620333Y-68812085D01*
X42620333Y-68812085D02*
X43191762Y-68812085D01*
X43191762Y-68812085D02*
X43572714Y-69002561D01*
X43572714Y-69002561D02*
X43763190Y-69193038D01*
X43763190Y-69193038D02*
X43953667Y-69573990D01*
X43953667Y-69573990D02*
X43953667Y-70526371D01*
X43953667Y-70526371D02*
X43763190Y-70907323D01*
X43763190Y-70907323D02*
X43572714Y-71097800D01*
X43572714Y-71097800D02*
X43191762Y-71288276D01*
X43191762Y-71288276D02*
X42048905Y-71288276D01*
X42048905Y-71288276D02*
X41667952Y-71097800D01*
X41667952Y-71097800D02*
X41477476Y-70907323D01*
D12*
X138250580Y-73579524D02*
X138298200Y-73627143D01*
X138298200Y-73627143D02*
X138345819Y-73770000D01*
X138345819Y-73770000D02*
X138345819Y-73865238D01*
X138345819Y-73865238D02*
X138298200Y-74008095D01*
X138298200Y-74008095D02*
X138202961Y-74103333D01*
X138202961Y-74103333D02*
X138107723Y-74150952D01*
X138107723Y-74150952D02*
X137917247Y-74198571D01*
X137917247Y-74198571D02*
X137774390Y-74198571D01*
X137774390Y-74198571D02*
X137583914Y-74150952D01*
X137583914Y-74150952D02*
X137488676Y-74103333D01*
X137488676Y-74103333D02*
X137393438Y-74008095D01*
X137393438Y-74008095D02*
X137345819Y-73865238D01*
X137345819Y-73865238D02*
X137345819Y-73770000D01*
X137345819Y-73770000D02*
X137393438Y-73627143D01*
X137393438Y-73627143D02*
X137441057Y-73579524D01*
X137679152Y-72722381D02*
X138345819Y-72722381D01*
X137679152Y-73150952D02*
X138202961Y-73150952D01*
X138202961Y-73150952D02*
X138298200Y-73103333D01*
X138298200Y-73103333D02*
X138345819Y-73008095D01*
X138345819Y-73008095D02*
X138345819Y-72865238D01*
X138345819Y-72865238D02*
X138298200Y-72770000D01*
X138298200Y-72770000D02*
X138250580Y-72722381D01*
X138345819Y-72246190D02*
X137679152Y-72246190D01*
X137869628Y-72246190D02*
X137774390Y-72198571D01*
X137774390Y-72198571D02*
X137726771Y-72150952D01*
X137726771Y-72150952D02*
X137679152Y-72055714D01*
X137679152Y-72055714D02*
X137679152Y-71960476D01*
X138345819Y-71627142D02*
X137679152Y-71627142D01*
X137869628Y-71627142D02*
X137774390Y-71579523D01*
X137774390Y-71579523D02*
X137726771Y-71531904D01*
X137726771Y-71531904D02*
X137679152Y-71436666D01*
X137679152Y-71436666D02*
X137679152Y-71341428D01*
X138298200Y-70627142D02*
X138345819Y-70722380D01*
X138345819Y-70722380D02*
X138345819Y-70912856D01*
X138345819Y-70912856D02*
X138298200Y-71008094D01*
X138298200Y-71008094D02*
X138202961Y-71055713D01*
X138202961Y-71055713D02*
X137822009Y-71055713D01*
X137822009Y-71055713D02*
X137726771Y-71008094D01*
X137726771Y-71008094D02*
X137679152Y-70912856D01*
X137679152Y-70912856D02*
X137679152Y-70722380D01*
X137679152Y-70722380D02*
X137726771Y-70627142D01*
X137726771Y-70627142D02*
X137822009Y-70579523D01*
X137822009Y-70579523D02*
X137917247Y-70579523D01*
X137917247Y-70579523D02*
X138012485Y-71055713D01*
X137679152Y-70150951D02*
X138345819Y-70150951D01*
X137774390Y-70150951D02*
X137726771Y-70103332D01*
X137726771Y-70103332D02*
X137679152Y-70008094D01*
X137679152Y-70008094D02*
X137679152Y-69865237D01*
X137679152Y-69865237D02*
X137726771Y-69769999D01*
X137726771Y-69769999D02*
X137822009Y-69722380D01*
X137822009Y-69722380D02*
X138345819Y-69722380D01*
X137679152Y-69389046D02*
X137679152Y-69008094D01*
X137345819Y-69246189D02*
X138202961Y-69246189D01*
X138202961Y-69246189D02*
X138298200Y-69198570D01*
X138298200Y-69198570D02*
X138345819Y-69103332D01*
X138345819Y-69103332D02*
X138345819Y-69008094D01*
X137822009Y-67579522D02*
X137869628Y-67436665D01*
X137869628Y-67436665D02*
X137917247Y-67389046D01*
X137917247Y-67389046D02*
X138012485Y-67341427D01*
X138012485Y-67341427D02*
X138155342Y-67341427D01*
X138155342Y-67341427D02*
X138250580Y-67389046D01*
X138250580Y-67389046D02*
X138298200Y-67436665D01*
X138298200Y-67436665D02*
X138345819Y-67531903D01*
X138345819Y-67531903D02*
X138345819Y-67912855D01*
X138345819Y-67912855D02*
X137345819Y-67912855D01*
X137345819Y-67912855D02*
X137345819Y-67579522D01*
X137345819Y-67579522D02*
X137393438Y-67484284D01*
X137393438Y-67484284D02*
X137441057Y-67436665D01*
X137441057Y-67436665D02*
X137536295Y-67389046D01*
X137536295Y-67389046D02*
X137631533Y-67389046D01*
X137631533Y-67389046D02*
X137726771Y-67436665D01*
X137726771Y-67436665D02*
X137774390Y-67484284D01*
X137774390Y-67484284D02*
X137822009Y-67579522D01*
X137822009Y-67579522D02*
X137822009Y-67912855D01*
D11*
X104802529Y-43598810D02*
X104194529Y-43598810D01*
X104194529Y-43598810D02*
X104194529Y-43454048D01*
X104194529Y-43454048D02*
X104223481Y-43367191D01*
X104223481Y-43367191D02*
X104281386Y-43309286D01*
X104281386Y-43309286D02*
X104339291Y-43280333D01*
X104339291Y-43280333D02*
X104455100Y-43251381D01*
X104455100Y-43251381D02*
X104541957Y-43251381D01*
X104541957Y-43251381D02*
X104657767Y-43280333D01*
X104657767Y-43280333D02*
X104715672Y-43309286D01*
X104715672Y-43309286D02*
X104773577Y-43367191D01*
X104773577Y-43367191D02*
X104802529Y-43454048D01*
X104802529Y-43454048D02*
X104802529Y-43598810D01*
X104194529Y-43048714D02*
X104194529Y-42643381D01*
X104194529Y-42643381D02*
X104802529Y-43048714D01*
X104802529Y-43048714D02*
X104802529Y-42643381D01*
X104802529Y-42093285D02*
X104802529Y-42440714D01*
X104802529Y-42267000D02*
X104194529Y-42267000D01*
X104194529Y-42267000D02*
X104281386Y-42324904D01*
X104281386Y-42324904D02*
X104339291Y-42382809D01*
X104339291Y-42382809D02*
X104368243Y-42440714D01*
X104194529Y-41890618D02*
X104194529Y-41514237D01*
X104194529Y-41514237D02*
X104426148Y-41716904D01*
X104426148Y-41716904D02*
X104426148Y-41630047D01*
X104426148Y-41630047D02*
X104455100Y-41572142D01*
X104455100Y-41572142D02*
X104484053Y-41543190D01*
X104484053Y-41543190D02*
X104541957Y-41514237D01*
X104541957Y-41514237D02*
X104686719Y-41514237D01*
X104686719Y-41514237D02*
X104744624Y-41543190D01*
X104744624Y-41543190D02*
X104773577Y-41572142D01*
X104773577Y-41572142D02*
X104802529Y-41630047D01*
X104802529Y-41630047D02*
X104802529Y-41803761D01*
X104802529Y-41803761D02*
X104773577Y-41861666D01*
X104773577Y-41861666D02*
X104744624Y-41890618D01*
D12*
X116749857Y-83481152D02*
X116749857Y-84147819D01*
X116511762Y-83100200D02*
X116273667Y-83814485D01*
X116273667Y-83814485D02*
X116892714Y-83814485D01*
X117178429Y-83147819D02*
X117797476Y-83147819D01*
X117797476Y-83147819D02*
X117464143Y-83528771D01*
X117464143Y-83528771D02*
X117607000Y-83528771D01*
X117607000Y-83528771D02*
X117702238Y-83576390D01*
X117702238Y-83576390D02*
X117749857Y-83624009D01*
X117749857Y-83624009D02*
X117797476Y-83719247D01*
X117797476Y-83719247D02*
X117797476Y-83957342D01*
X117797476Y-83957342D02*
X117749857Y-84052580D01*
X117749857Y-84052580D02*
X117702238Y-84100200D01*
X117702238Y-84100200D02*
X117607000Y-84147819D01*
X117607000Y-84147819D02*
X117321286Y-84147819D01*
X117321286Y-84147819D02*
X117226048Y-84100200D01*
X117226048Y-84100200D02*
X117178429Y-84052580D01*
X118178429Y-84147819D02*
X118416524Y-84147819D01*
X118416524Y-84147819D02*
X118416524Y-83957342D01*
X118416524Y-83957342D02*
X118321286Y-83909723D01*
X118321286Y-83909723D02*
X118226048Y-83814485D01*
X118226048Y-83814485D02*
X118178429Y-83671628D01*
X118178429Y-83671628D02*
X118178429Y-83433533D01*
X118178429Y-83433533D02*
X118226048Y-83290676D01*
X118226048Y-83290676D02*
X118321286Y-83195438D01*
X118321286Y-83195438D02*
X118464143Y-83147819D01*
X118464143Y-83147819D02*
X118654619Y-83147819D01*
X118654619Y-83147819D02*
X118797476Y-83195438D01*
X118797476Y-83195438D02*
X118892714Y-83290676D01*
X118892714Y-83290676D02*
X118940333Y-83433533D01*
X118940333Y-83433533D02*
X118940333Y-83671628D01*
X118940333Y-83671628D02*
X118892714Y-83814485D01*
X118892714Y-83814485D02*
X118797476Y-83909723D01*
X118797476Y-83909723D02*
X118702238Y-83957342D01*
X118702238Y-83957342D02*
X118702238Y-84147819D01*
X118702238Y-84147819D02*
X118940333Y-84147819D01*
X28837057Y-88193285D02*
X28789438Y-88145666D01*
X28789438Y-88145666D02*
X28741819Y-88050428D01*
X28741819Y-88050428D02*
X28741819Y-87812333D01*
X28741819Y-87812333D02*
X28789438Y-87717095D01*
X28789438Y-87717095D02*
X28837057Y-87669476D01*
X28837057Y-87669476D02*
X28932295Y-87621857D01*
X28932295Y-87621857D02*
X29027533Y-87621857D01*
X29027533Y-87621857D02*
X29170390Y-87669476D01*
X29170390Y-87669476D02*
X29741819Y-88240904D01*
X29741819Y-88240904D02*
X29741819Y-87621857D01*
X28741819Y-87288523D02*
X28741819Y-86621857D01*
X28741819Y-86621857D02*
X29741819Y-87050428D01*
X28741819Y-86050428D02*
X28741819Y-85955190D01*
X28741819Y-85955190D02*
X28789438Y-85859952D01*
X28789438Y-85859952D02*
X28837057Y-85812333D01*
X28837057Y-85812333D02*
X28932295Y-85764714D01*
X28932295Y-85764714D02*
X29122771Y-85717095D01*
X29122771Y-85717095D02*
X29360866Y-85717095D01*
X29360866Y-85717095D02*
X29551342Y-85764714D01*
X29551342Y-85764714D02*
X29646580Y-85812333D01*
X29646580Y-85812333D02*
X29694200Y-85859952D01*
X29694200Y-85859952D02*
X29741819Y-85955190D01*
X29741819Y-85955190D02*
X29741819Y-86050428D01*
X29741819Y-86050428D02*
X29694200Y-86145666D01*
X29694200Y-86145666D02*
X29646580Y-86193285D01*
X29646580Y-86193285D02*
X29551342Y-86240904D01*
X29551342Y-86240904D02*
X29360866Y-86288523D01*
X29360866Y-86288523D02*
X29122771Y-86288523D01*
X29122771Y-86288523D02*
X28932295Y-86240904D01*
X28932295Y-86240904D02*
X28837057Y-86193285D01*
X28837057Y-86193285D02*
X28789438Y-86145666D01*
X28789438Y-86145666D02*
X28741819Y-86050428D01*
X29741819Y-85288523D02*
X28741819Y-85288523D01*
X29360866Y-85193285D02*
X29741819Y-84907571D01*
X29075152Y-84907571D02*
X29456104Y-85288523D01*
X29741819Y-84526618D02*
X29741819Y-84288523D01*
X29741819Y-84288523D02*
X29551342Y-84288523D01*
X29551342Y-84288523D02*
X29503723Y-84383761D01*
X29503723Y-84383761D02*
X29408485Y-84478999D01*
X29408485Y-84478999D02*
X29265628Y-84526618D01*
X29265628Y-84526618D02*
X29027533Y-84526618D01*
X29027533Y-84526618D02*
X28884676Y-84478999D01*
X28884676Y-84478999D02*
X28789438Y-84383761D01*
X28789438Y-84383761D02*
X28741819Y-84240904D01*
X28741819Y-84240904D02*
X28741819Y-84050428D01*
X28741819Y-84050428D02*
X28789438Y-83907571D01*
X28789438Y-83907571D02*
X28884676Y-83812333D01*
X28884676Y-83812333D02*
X29027533Y-83764714D01*
X29027533Y-83764714D02*
X29265628Y-83764714D01*
X29265628Y-83764714D02*
X29408485Y-83812333D01*
X29408485Y-83812333D02*
X29503723Y-83907571D01*
X29503723Y-83907571D02*
X29551342Y-84002809D01*
X29551342Y-84002809D02*
X29741819Y-84002809D01*
X29741819Y-84002809D02*
X29741819Y-83764714D01*
X80157712Y-127003580D02*
X80110093Y-127051200D01*
X80110093Y-127051200D02*
X79967236Y-127098819D01*
X79967236Y-127098819D02*
X79871998Y-127098819D01*
X79871998Y-127098819D02*
X79729141Y-127051200D01*
X79729141Y-127051200D02*
X79633903Y-126955961D01*
X79633903Y-126955961D02*
X79586284Y-126860723D01*
X79586284Y-126860723D02*
X79538665Y-126670247D01*
X79538665Y-126670247D02*
X79538665Y-126527390D01*
X79538665Y-126527390D02*
X79586284Y-126336914D01*
X79586284Y-126336914D02*
X79633903Y-126241676D01*
X79633903Y-126241676D02*
X79729141Y-126146438D01*
X79729141Y-126146438D02*
X79871998Y-126098819D01*
X79871998Y-126098819D02*
X79967236Y-126098819D01*
X79967236Y-126098819D02*
X80110093Y-126146438D01*
X80110093Y-126146438D02*
X80157712Y-126194057D01*
X81014855Y-126432152D02*
X81014855Y-127098819D01*
X80586284Y-126432152D02*
X80586284Y-126955961D01*
X80586284Y-126955961D02*
X80633903Y-127051200D01*
X80633903Y-127051200D02*
X80729141Y-127098819D01*
X80729141Y-127098819D02*
X80871998Y-127098819D01*
X80871998Y-127098819D02*
X80967236Y-127051200D01*
X80967236Y-127051200D02*
X81014855Y-127003580D01*
X81491046Y-127098819D02*
X81491046Y-126432152D01*
X81491046Y-126622628D02*
X81538665Y-126527390D01*
X81538665Y-126527390D02*
X81586284Y-126479771D01*
X81586284Y-126479771D02*
X81681522Y-126432152D01*
X81681522Y-126432152D02*
X81776760Y-126432152D01*
X82110094Y-127098819D02*
X82110094Y-126432152D01*
X82110094Y-126622628D02*
X82157713Y-126527390D01*
X82157713Y-126527390D02*
X82205332Y-126479771D01*
X82205332Y-126479771D02*
X82300570Y-126432152D01*
X82300570Y-126432152D02*
X82395808Y-126432152D01*
X83110094Y-127051200D02*
X83014856Y-127098819D01*
X83014856Y-127098819D02*
X82824380Y-127098819D01*
X82824380Y-127098819D02*
X82729142Y-127051200D01*
X82729142Y-127051200D02*
X82681523Y-126955961D01*
X82681523Y-126955961D02*
X82681523Y-126575009D01*
X82681523Y-126575009D02*
X82729142Y-126479771D01*
X82729142Y-126479771D02*
X82824380Y-126432152D01*
X82824380Y-126432152D02*
X83014856Y-126432152D01*
X83014856Y-126432152D02*
X83110094Y-126479771D01*
X83110094Y-126479771D02*
X83157713Y-126575009D01*
X83157713Y-126575009D02*
X83157713Y-126670247D01*
X83157713Y-126670247D02*
X82681523Y-126765485D01*
X83586285Y-126432152D02*
X83586285Y-127098819D01*
X83586285Y-126527390D02*
X83633904Y-126479771D01*
X83633904Y-126479771D02*
X83729142Y-126432152D01*
X83729142Y-126432152D02*
X83871999Y-126432152D01*
X83871999Y-126432152D02*
X83967237Y-126479771D01*
X83967237Y-126479771D02*
X84014856Y-126575009D01*
X84014856Y-126575009D02*
X84014856Y-127098819D01*
X84348190Y-126432152D02*
X84729142Y-126432152D01*
X84491047Y-126098819D02*
X84491047Y-126955961D01*
X84491047Y-126955961D02*
X84538666Y-127051200D01*
X84538666Y-127051200D02*
X84633904Y-127098819D01*
X84633904Y-127098819D02*
X84729142Y-127098819D01*
X86300571Y-127098819D02*
X85824381Y-127098819D01*
X85824381Y-127098819D02*
X85824381Y-126098819D01*
X87014857Y-127051200D02*
X86919619Y-127098819D01*
X86919619Y-127098819D02*
X86729143Y-127098819D01*
X86729143Y-127098819D02*
X86633905Y-127051200D01*
X86633905Y-127051200D02*
X86586286Y-126955961D01*
X86586286Y-126955961D02*
X86586286Y-126575009D01*
X86586286Y-126575009D02*
X86633905Y-126479771D01*
X86633905Y-126479771D02*
X86729143Y-126432152D01*
X86729143Y-126432152D02*
X86919619Y-126432152D01*
X86919619Y-126432152D02*
X87014857Y-126479771D01*
X87014857Y-126479771D02*
X87062476Y-126575009D01*
X87062476Y-126575009D02*
X87062476Y-126670247D01*
X87062476Y-126670247D02*
X86586286Y-126765485D01*
X87395810Y-126432152D02*
X87633905Y-127098819D01*
X87633905Y-127098819D02*
X87872000Y-126432152D01*
X88633905Y-127051200D02*
X88538667Y-127098819D01*
X88538667Y-127098819D02*
X88348191Y-127098819D01*
X88348191Y-127098819D02*
X88252953Y-127051200D01*
X88252953Y-127051200D02*
X88205334Y-126955961D01*
X88205334Y-126955961D02*
X88205334Y-126575009D01*
X88205334Y-126575009D02*
X88252953Y-126479771D01*
X88252953Y-126479771D02*
X88348191Y-126432152D01*
X88348191Y-126432152D02*
X88538667Y-126432152D01*
X88538667Y-126432152D02*
X88633905Y-126479771D01*
X88633905Y-126479771D02*
X88681524Y-126575009D01*
X88681524Y-126575009D02*
X88681524Y-126670247D01*
X88681524Y-126670247D02*
X88205334Y-126765485D01*
X89252953Y-127098819D02*
X89157715Y-127051200D01*
X89157715Y-127051200D02*
X89110096Y-126955961D01*
X89110096Y-126955961D02*
X89110096Y-126098819D01*
X80562475Y-121018819D02*
X80086285Y-121018819D01*
X80086285Y-121018819D02*
X80038666Y-121495009D01*
X80038666Y-121495009D02*
X80086285Y-121447390D01*
X80086285Y-121447390D02*
X80181523Y-121399771D01*
X80181523Y-121399771D02*
X80419618Y-121399771D01*
X80419618Y-121399771D02*
X80514856Y-121447390D01*
X80514856Y-121447390D02*
X80562475Y-121495009D01*
X80562475Y-121495009D02*
X80610094Y-121590247D01*
X80610094Y-121590247D02*
X80610094Y-121828342D01*
X80610094Y-121828342D02*
X80562475Y-121923580D01*
X80562475Y-121923580D02*
X80514856Y-121971200D01*
X80514856Y-121971200D02*
X80419618Y-122018819D01*
X80419618Y-122018819D02*
X80181523Y-122018819D01*
X80181523Y-122018819D02*
X80086285Y-121971200D01*
X80086285Y-121971200D02*
X80038666Y-121923580D01*
X81229142Y-121018819D02*
X81324380Y-121018819D01*
X81324380Y-121018819D02*
X81419618Y-121066438D01*
X81419618Y-121066438D02*
X81467237Y-121114057D01*
X81467237Y-121114057D02*
X81514856Y-121209295D01*
X81514856Y-121209295D02*
X81562475Y-121399771D01*
X81562475Y-121399771D02*
X81562475Y-121637866D01*
X81562475Y-121637866D02*
X81514856Y-121828342D01*
X81514856Y-121828342D02*
X81467237Y-121923580D01*
X81467237Y-121923580D02*
X81419618Y-121971200D01*
X81419618Y-121971200D02*
X81324380Y-122018819D01*
X81324380Y-122018819D02*
X81229142Y-122018819D01*
X81229142Y-122018819D02*
X81133904Y-121971200D01*
X81133904Y-121971200D02*
X81086285Y-121923580D01*
X81086285Y-121923580D02*
X81038666Y-121828342D01*
X81038666Y-121828342D02*
X80991047Y-121637866D01*
X80991047Y-121637866D02*
X80991047Y-121399771D01*
X80991047Y-121399771D02*
X81038666Y-121209295D01*
X81038666Y-121209295D02*
X81086285Y-121114057D01*
X81086285Y-121114057D02*
X81133904Y-121066438D01*
X81133904Y-121066438D02*
X81229142Y-121018819D01*
X81943428Y-121733104D02*
X82419618Y-121733104D01*
X81848190Y-122018819D02*
X82181523Y-121018819D01*
X82181523Y-121018819D02*
X82514856Y-122018819D01*
X84324380Y-120971200D02*
X83467238Y-122256914D01*
X85372000Y-121114057D02*
X85419619Y-121066438D01*
X85419619Y-121066438D02*
X85514857Y-121018819D01*
X85514857Y-121018819D02*
X85752952Y-121018819D01*
X85752952Y-121018819D02*
X85848190Y-121066438D01*
X85848190Y-121066438D02*
X85895809Y-121114057D01*
X85895809Y-121114057D02*
X85943428Y-121209295D01*
X85943428Y-121209295D02*
X85943428Y-121304533D01*
X85943428Y-121304533D02*
X85895809Y-121447390D01*
X85895809Y-121447390D02*
X85324381Y-122018819D01*
X85324381Y-122018819D02*
X85943428Y-122018819D01*
X86562476Y-121018819D02*
X86657714Y-121018819D01*
X86657714Y-121018819D02*
X86752952Y-121066438D01*
X86752952Y-121066438D02*
X86800571Y-121114057D01*
X86800571Y-121114057D02*
X86848190Y-121209295D01*
X86848190Y-121209295D02*
X86895809Y-121399771D01*
X86895809Y-121399771D02*
X86895809Y-121637866D01*
X86895809Y-121637866D02*
X86848190Y-121828342D01*
X86848190Y-121828342D02*
X86800571Y-121923580D01*
X86800571Y-121923580D02*
X86752952Y-121971200D01*
X86752952Y-121971200D02*
X86657714Y-122018819D01*
X86657714Y-122018819D02*
X86562476Y-122018819D01*
X86562476Y-122018819D02*
X86467238Y-121971200D01*
X86467238Y-121971200D02*
X86419619Y-121923580D01*
X86419619Y-121923580D02*
X86372000Y-121828342D01*
X86372000Y-121828342D02*
X86324381Y-121637866D01*
X86324381Y-121637866D02*
X86324381Y-121399771D01*
X86324381Y-121399771D02*
X86372000Y-121209295D01*
X86372000Y-121209295D02*
X86419619Y-121114057D01*
X86419619Y-121114057D02*
X86467238Y-121066438D01*
X86467238Y-121066438D02*
X86562476Y-121018819D01*
X87514857Y-121018819D02*
X87610095Y-121018819D01*
X87610095Y-121018819D02*
X87705333Y-121066438D01*
X87705333Y-121066438D02*
X87752952Y-121114057D01*
X87752952Y-121114057D02*
X87800571Y-121209295D01*
X87800571Y-121209295D02*
X87848190Y-121399771D01*
X87848190Y-121399771D02*
X87848190Y-121637866D01*
X87848190Y-121637866D02*
X87800571Y-121828342D01*
X87800571Y-121828342D02*
X87752952Y-121923580D01*
X87752952Y-121923580D02*
X87705333Y-121971200D01*
X87705333Y-121971200D02*
X87610095Y-122018819D01*
X87610095Y-122018819D02*
X87514857Y-122018819D01*
X87514857Y-122018819D02*
X87419619Y-121971200D01*
X87419619Y-121971200D02*
X87372000Y-121923580D01*
X87372000Y-121923580D02*
X87324381Y-121828342D01*
X87324381Y-121828342D02*
X87276762Y-121637866D01*
X87276762Y-121637866D02*
X87276762Y-121399771D01*
X87276762Y-121399771D02*
X87324381Y-121209295D01*
X87324381Y-121209295D02*
X87372000Y-121114057D01*
X87372000Y-121114057D02*
X87419619Y-121066438D01*
X87419619Y-121066438D02*
X87514857Y-121018819D01*
X88229143Y-121733104D02*
X88705333Y-121733104D01*
X88133905Y-122018819D02*
X88467238Y-121018819D01*
X88467238Y-121018819D02*
X88800571Y-122018819D01*
X138250580Y-50902096D02*
X138298200Y-50949715D01*
X138298200Y-50949715D02*
X138345819Y-51092572D01*
X138345819Y-51092572D02*
X138345819Y-51187810D01*
X138345819Y-51187810D02*
X138298200Y-51330667D01*
X138298200Y-51330667D02*
X138202961Y-51425905D01*
X138202961Y-51425905D02*
X138107723Y-51473524D01*
X138107723Y-51473524D02*
X137917247Y-51521143D01*
X137917247Y-51521143D02*
X137774390Y-51521143D01*
X137774390Y-51521143D02*
X137583914Y-51473524D01*
X137583914Y-51473524D02*
X137488676Y-51425905D01*
X137488676Y-51425905D02*
X137393438Y-51330667D01*
X137393438Y-51330667D02*
X137345819Y-51187810D01*
X137345819Y-51187810D02*
X137345819Y-51092572D01*
X137345819Y-51092572D02*
X137393438Y-50949715D01*
X137393438Y-50949715D02*
X137441057Y-50902096D01*
X137679152Y-50044953D02*
X138345819Y-50044953D01*
X137679152Y-50473524D02*
X138202961Y-50473524D01*
X138202961Y-50473524D02*
X138298200Y-50425905D01*
X138298200Y-50425905D02*
X138345819Y-50330667D01*
X138345819Y-50330667D02*
X138345819Y-50187810D01*
X138345819Y-50187810D02*
X138298200Y-50092572D01*
X138298200Y-50092572D02*
X138250580Y-50044953D01*
X138345819Y-49568762D02*
X137679152Y-49568762D01*
X137869628Y-49568762D02*
X137774390Y-49521143D01*
X137774390Y-49521143D02*
X137726771Y-49473524D01*
X137726771Y-49473524D02*
X137679152Y-49378286D01*
X137679152Y-49378286D02*
X137679152Y-49283048D01*
X138345819Y-48949714D02*
X137679152Y-48949714D01*
X137869628Y-48949714D02*
X137774390Y-48902095D01*
X137774390Y-48902095D02*
X137726771Y-48854476D01*
X137726771Y-48854476D02*
X137679152Y-48759238D01*
X137679152Y-48759238D02*
X137679152Y-48664000D01*
X138298200Y-47949714D02*
X138345819Y-48044952D01*
X138345819Y-48044952D02*
X138345819Y-48235428D01*
X138345819Y-48235428D02*
X138298200Y-48330666D01*
X138298200Y-48330666D02*
X138202961Y-48378285D01*
X138202961Y-48378285D02*
X137822009Y-48378285D01*
X137822009Y-48378285D02*
X137726771Y-48330666D01*
X137726771Y-48330666D02*
X137679152Y-48235428D01*
X137679152Y-48235428D02*
X137679152Y-48044952D01*
X137679152Y-48044952D02*
X137726771Y-47949714D01*
X137726771Y-47949714D02*
X137822009Y-47902095D01*
X137822009Y-47902095D02*
X137917247Y-47902095D01*
X137917247Y-47902095D02*
X138012485Y-48378285D01*
X137679152Y-47473523D02*
X138345819Y-47473523D01*
X137774390Y-47473523D02*
X137726771Y-47425904D01*
X137726771Y-47425904D02*
X137679152Y-47330666D01*
X137679152Y-47330666D02*
X137679152Y-47187809D01*
X137679152Y-47187809D02*
X137726771Y-47092571D01*
X137726771Y-47092571D02*
X137822009Y-47044952D01*
X137822009Y-47044952D02*
X138345819Y-47044952D01*
X137679152Y-46711618D02*
X137679152Y-46330666D01*
X137345819Y-46568761D02*
X138202961Y-46568761D01*
X138202961Y-46568761D02*
X138298200Y-46521142D01*
X138298200Y-46521142D02*
X138345819Y-46425904D01*
X138345819Y-46425904D02*
X138345819Y-46330666D01*
X138060104Y-45283046D02*
X138060104Y-44806856D01*
X138345819Y-45378284D02*
X137345819Y-45044951D01*
X137345819Y-45044951D02*
X138345819Y-44711618D01*
X52726819Y-122872333D02*
X52726819Y-123062809D01*
X52726819Y-123062809D02*
X52774438Y-123158047D01*
X52774438Y-123158047D02*
X52822057Y-123205666D01*
X52822057Y-123205666D02*
X52964914Y-123300904D01*
X52964914Y-123300904D02*
X53155390Y-123348523D01*
X53155390Y-123348523D02*
X53536342Y-123348523D01*
X53536342Y-123348523D02*
X53631580Y-123300904D01*
X53631580Y-123300904D02*
X53679200Y-123253285D01*
X53679200Y-123253285D02*
X53726819Y-123158047D01*
X53726819Y-123158047D02*
X53726819Y-122967571D01*
X53726819Y-122967571D02*
X53679200Y-122872333D01*
X53679200Y-122872333D02*
X53631580Y-122824714D01*
X53631580Y-122824714D02*
X53536342Y-122777095D01*
X53536342Y-122777095D02*
X53298247Y-122777095D01*
X53298247Y-122777095D02*
X53203009Y-122824714D01*
X53203009Y-122824714D02*
X53155390Y-122872333D01*
X53155390Y-122872333D02*
X53107771Y-122967571D01*
X53107771Y-122967571D02*
X53107771Y-123158047D01*
X53107771Y-123158047D02*
X53155390Y-123253285D01*
X53155390Y-123253285D02*
X53203009Y-123300904D01*
X53203009Y-123300904D02*
X53298247Y-123348523D01*
X53155390Y-122205666D02*
X53107771Y-122300904D01*
X53107771Y-122300904D02*
X53060152Y-122348523D01*
X53060152Y-122348523D02*
X52964914Y-122396142D01*
X52964914Y-122396142D02*
X52917295Y-122396142D01*
X52917295Y-122396142D02*
X52822057Y-122348523D01*
X52822057Y-122348523D02*
X52774438Y-122300904D01*
X52774438Y-122300904D02*
X52726819Y-122205666D01*
X52726819Y-122205666D02*
X52726819Y-122015190D01*
X52726819Y-122015190D02*
X52774438Y-121919952D01*
X52774438Y-121919952D02*
X52822057Y-121872333D01*
X52822057Y-121872333D02*
X52917295Y-121824714D01*
X52917295Y-121824714D02*
X52964914Y-121824714D01*
X52964914Y-121824714D02*
X53060152Y-121872333D01*
X53060152Y-121872333D02*
X53107771Y-121919952D01*
X53107771Y-121919952D02*
X53155390Y-122015190D01*
X53155390Y-122015190D02*
X53155390Y-122205666D01*
X53155390Y-122205666D02*
X53203009Y-122300904D01*
X53203009Y-122300904D02*
X53250628Y-122348523D01*
X53250628Y-122348523D02*
X53345866Y-122396142D01*
X53345866Y-122396142D02*
X53536342Y-122396142D01*
X53536342Y-122396142D02*
X53631580Y-122348523D01*
X53631580Y-122348523D02*
X53679200Y-122300904D01*
X53679200Y-122300904D02*
X53726819Y-122205666D01*
X53726819Y-122205666D02*
X53726819Y-122015190D01*
X53726819Y-122015190D02*
X53679200Y-121919952D01*
X53679200Y-121919952D02*
X53631580Y-121872333D01*
X53631580Y-121872333D02*
X53536342Y-121824714D01*
X53536342Y-121824714D02*
X53345866Y-121824714D01*
X53345866Y-121824714D02*
X53250628Y-121872333D01*
X53250628Y-121872333D02*
X53203009Y-121919952D01*
X53203009Y-121919952D02*
X53155390Y-122015190D01*
X52726819Y-121205666D02*
X52726819Y-121110428D01*
X52726819Y-121110428D02*
X52774438Y-121015190D01*
X52774438Y-121015190D02*
X52822057Y-120967571D01*
X52822057Y-120967571D02*
X52917295Y-120919952D01*
X52917295Y-120919952D02*
X53107771Y-120872333D01*
X53107771Y-120872333D02*
X53345866Y-120872333D01*
X53345866Y-120872333D02*
X53536342Y-120919952D01*
X53536342Y-120919952D02*
X53631580Y-120967571D01*
X53631580Y-120967571D02*
X53679200Y-121015190D01*
X53679200Y-121015190D02*
X53726819Y-121110428D01*
X53726819Y-121110428D02*
X53726819Y-121205666D01*
X53726819Y-121205666D02*
X53679200Y-121300904D01*
X53679200Y-121300904D02*
X53631580Y-121348523D01*
X53631580Y-121348523D02*
X53536342Y-121396142D01*
X53536342Y-121396142D02*
X53345866Y-121443761D01*
X53345866Y-121443761D02*
X53107771Y-121443761D01*
X53107771Y-121443761D02*
X52917295Y-121396142D01*
X52917295Y-121396142D02*
X52822057Y-121348523D01*
X52822057Y-121348523D02*
X52774438Y-121300904D01*
X52774438Y-121300904D02*
X52726819Y-121205666D01*
X53726819Y-120491380D02*
X53726819Y-120253285D01*
X53726819Y-120253285D02*
X53536342Y-120253285D01*
X53536342Y-120253285D02*
X53488723Y-120348523D01*
X53488723Y-120348523D02*
X53393485Y-120443761D01*
X53393485Y-120443761D02*
X53250628Y-120491380D01*
X53250628Y-120491380D02*
X53012533Y-120491380D01*
X53012533Y-120491380D02*
X52869676Y-120443761D01*
X52869676Y-120443761D02*
X52774438Y-120348523D01*
X52774438Y-120348523D02*
X52726819Y-120205666D01*
X52726819Y-120205666D02*
X52726819Y-120015190D01*
X52726819Y-120015190D02*
X52774438Y-119872333D01*
X52774438Y-119872333D02*
X52869676Y-119777095D01*
X52869676Y-119777095D02*
X53012533Y-119729476D01*
X53012533Y-119729476D02*
X53250628Y-119729476D01*
X53250628Y-119729476D02*
X53393485Y-119777095D01*
X53393485Y-119777095D02*
X53488723Y-119872333D01*
X53488723Y-119872333D02*
X53536342Y-119967571D01*
X53536342Y-119967571D02*
X53726819Y-119967571D01*
X53726819Y-119967571D02*
X53726819Y-119729476D01*
X116749857Y-60875152D02*
X116749857Y-61541819D01*
X116511762Y-60494200D02*
X116273667Y-61208485D01*
X116273667Y-61208485D02*
X116892714Y-61208485D01*
X117178429Y-60541819D02*
X117797476Y-60541819D01*
X117797476Y-60541819D02*
X117464143Y-60922771D01*
X117464143Y-60922771D02*
X117607000Y-60922771D01*
X117607000Y-60922771D02*
X117702238Y-60970390D01*
X117702238Y-60970390D02*
X117749857Y-61018009D01*
X117749857Y-61018009D02*
X117797476Y-61113247D01*
X117797476Y-61113247D02*
X117797476Y-61351342D01*
X117797476Y-61351342D02*
X117749857Y-61446580D01*
X117749857Y-61446580D02*
X117702238Y-61494200D01*
X117702238Y-61494200D02*
X117607000Y-61541819D01*
X117607000Y-61541819D02*
X117321286Y-61541819D01*
X117321286Y-61541819D02*
X117226048Y-61494200D01*
X117226048Y-61494200D02*
X117178429Y-61446580D01*
X118178429Y-61541819D02*
X118416524Y-61541819D01*
X118416524Y-61541819D02*
X118416524Y-61351342D01*
X118416524Y-61351342D02*
X118321286Y-61303723D01*
X118321286Y-61303723D02*
X118226048Y-61208485D01*
X118226048Y-61208485D02*
X118178429Y-61065628D01*
X118178429Y-61065628D02*
X118178429Y-60827533D01*
X118178429Y-60827533D02*
X118226048Y-60684676D01*
X118226048Y-60684676D02*
X118321286Y-60589438D01*
X118321286Y-60589438D02*
X118464143Y-60541819D01*
X118464143Y-60541819D02*
X118654619Y-60541819D01*
X118654619Y-60541819D02*
X118797476Y-60589438D01*
X118797476Y-60589438D02*
X118892714Y-60684676D01*
X118892714Y-60684676D02*
X118940333Y-60827533D01*
X118940333Y-60827533D02*
X118940333Y-61065628D01*
X118940333Y-61065628D02*
X118892714Y-61208485D01*
X118892714Y-61208485D02*
X118797476Y-61303723D01*
X118797476Y-61303723D02*
X118702238Y-61351342D01*
X118702238Y-61351342D02*
X118702238Y-61541819D01*
X118702238Y-61541819D02*
X118940333Y-61541819D01*
D13*
X38239381Y-31728276D02*
X40525095Y-31728276D01*
X39382238Y-35728276D02*
X39382238Y-31728276D01*
X43953667Y-35728276D02*
X41667952Y-35728276D01*
X42810809Y-35728276D02*
X42810809Y-31728276D01*
X42810809Y-31728276D02*
X42429857Y-32299704D01*
X42429857Y-32299704D02*
X42048905Y-32680657D01*
X42048905Y-32680657D02*
X41667952Y-32871133D01*
D11*
X59390529Y-103288810D02*
X58782529Y-103288810D01*
X58782529Y-103288810D02*
X58782529Y-103144048D01*
X58782529Y-103144048D02*
X58811481Y-103057191D01*
X58811481Y-103057191D02*
X58869386Y-102999286D01*
X58869386Y-102999286D02*
X58927291Y-102970333D01*
X58927291Y-102970333D02*
X59043100Y-102941381D01*
X59043100Y-102941381D02*
X59129957Y-102941381D01*
X59129957Y-102941381D02*
X59245767Y-102970333D01*
X59245767Y-102970333D02*
X59303672Y-102999286D01*
X59303672Y-102999286D02*
X59361577Y-103057191D01*
X59361577Y-103057191D02*
X59390529Y-103144048D01*
X59390529Y-103144048D02*
X59390529Y-103288810D01*
X58782529Y-102738714D02*
X58782529Y-102333381D01*
X58782529Y-102333381D02*
X59390529Y-102738714D01*
X59390529Y-102738714D02*
X59390529Y-102333381D01*
X59390529Y-101783285D02*
X59390529Y-102130714D01*
X59390529Y-101957000D02*
X58782529Y-101957000D01*
X58782529Y-101957000D02*
X58869386Y-102014904D01*
X58869386Y-102014904D02*
X58927291Y-102072809D01*
X58927291Y-102072809D02*
X58956243Y-102130714D01*
X58782529Y-101406904D02*
X58782529Y-101348999D01*
X58782529Y-101348999D02*
X58811481Y-101291095D01*
X58811481Y-101291095D02*
X58840434Y-101262142D01*
X58840434Y-101262142D02*
X58898338Y-101233190D01*
X58898338Y-101233190D02*
X59014148Y-101204237D01*
X59014148Y-101204237D02*
X59158910Y-101204237D01*
X59158910Y-101204237D02*
X59274719Y-101233190D01*
X59274719Y-101233190D02*
X59332624Y-101262142D01*
X59332624Y-101262142D02*
X59361577Y-101291095D01*
X59361577Y-101291095D02*
X59390529Y-101348999D01*
X59390529Y-101348999D02*
X59390529Y-101406904D01*
X59390529Y-101406904D02*
X59361577Y-101464809D01*
X59361577Y-101464809D02*
X59332624Y-101493761D01*
X59332624Y-101493761D02*
X59274719Y-101522714D01*
X59274719Y-101522714D02*
X59158910Y-101551666D01*
X59158910Y-101551666D02*
X59014148Y-101551666D01*
X59014148Y-101551666D02*
X58898338Y-101522714D01*
X58898338Y-101522714D02*
X58840434Y-101493761D01*
X58840434Y-101493761D02*
X58811481Y-101464809D01*
X58811481Y-101464809D02*
X58782529Y-101406904D01*
D12*
X116845095Y-80845819D02*
X116273667Y-80845819D01*
X116559381Y-80845819D02*
X116559381Y-79845819D01*
X116559381Y-79845819D02*
X116464143Y-79988676D01*
X116464143Y-79988676D02*
X116368905Y-80083914D01*
X116368905Y-80083914D02*
X116273667Y-80131533D01*
X117464143Y-79845819D02*
X117559381Y-79845819D01*
X117559381Y-79845819D02*
X117654619Y-79893438D01*
X117654619Y-79893438D02*
X117702238Y-79941057D01*
X117702238Y-79941057D02*
X117749857Y-80036295D01*
X117749857Y-80036295D02*
X117797476Y-80226771D01*
X117797476Y-80226771D02*
X117797476Y-80464866D01*
X117797476Y-80464866D02*
X117749857Y-80655342D01*
X117749857Y-80655342D02*
X117702238Y-80750580D01*
X117702238Y-80750580D02*
X117654619Y-80798200D01*
X117654619Y-80798200D02*
X117559381Y-80845819D01*
X117559381Y-80845819D02*
X117464143Y-80845819D01*
X117464143Y-80845819D02*
X117368905Y-80798200D01*
X117368905Y-80798200D02*
X117321286Y-80750580D01*
X117321286Y-80750580D02*
X117273667Y-80655342D01*
X117273667Y-80655342D02*
X117226048Y-80464866D01*
X117226048Y-80464866D02*
X117226048Y-80226771D01*
X117226048Y-80226771D02*
X117273667Y-80036295D01*
X117273667Y-80036295D02*
X117321286Y-79941057D01*
X117321286Y-79941057D02*
X117368905Y-79893438D01*
X117368905Y-79893438D02*
X117464143Y-79845819D01*
X118178429Y-80845819D02*
X118416524Y-80845819D01*
X118416524Y-80845819D02*
X118416524Y-80655342D01*
X118416524Y-80655342D02*
X118321286Y-80607723D01*
X118321286Y-80607723D02*
X118226048Y-80512485D01*
X118226048Y-80512485D02*
X118178429Y-80369628D01*
X118178429Y-80369628D02*
X118178429Y-80131533D01*
X118178429Y-80131533D02*
X118226048Y-79988676D01*
X118226048Y-79988676D02*
X118321286Y-79893438D01*
X118321286Y-79893438D02*
X118464143Y-79845819D01*
X118464143Y-79845819D02*
X118654619Y-79845819D01*
X118654619Y-79845819D02*
X118797476Y-79893438D01*
X118797476Y-79893438D02*
X118892714Y-79988676D01*
X118892714Y-79988676D02*
X118940333Y-80131533D01*
X118940333Y-80131533D02*
X118940333Y-80369628D01*
X118940333Y-80369628D02*
X118892714Y-80512485D01*
X118892714Y-80512485D02*
X118797476Y-80607723D01*
X118797476Y-80607723D02*
X118702238Y-80655342D01*
X118702238Y-80655342D02*
X118702238Y-80845819D01*
X118702238Y-80845819D02*
X118940333Y-80845819D01*
X52726819Y-69532333D02*
X52726819Y-69722809D01*
X52726819Y-69722809D02*
X52774438Y-69818047D01*
X52774438Y-69818047D02*
X52822057Y-69865666D01*
X52822057Y-69865666D02*
X52964914Y-69960904D01*
X52964914Y-69960904D02*
X53155390Y-70008523D01*
X53155390Y-70008523D02*
X53536342Y-70008523D01*
X53536342Y-70008523D02*
X53631580Y-69960904D01*
X53631580Y-69960904D02*
X53679200Y-69913285D01*
X53679200Y-69913285D02*
X53726819Y-69818047D01*
X53726819Y-69818047D02*
X53726819Y-69627571D01*
X53726819Y-69627571D02*
X53679200Y-69532333D01*
X53679200Y-69532333D02*
X53631580Y-69484714D01*
X53631580Y-69484714D02*
X53536342Y-69437095D01*
X53536342Y-69437095D02*
X53298247Y-69437095D01*
X53298247Y-69437095D02*
X53203009Y-69484714D01*
X53203009Y-69484714D02*
X53155390Y-69532333D01*
X53155390Y-69532333D02*
X53107771Y-69627571D01*
X53107771Y-69627571D02*
X53107771Y-69818047D01*
X53107771Y-69818047D02*
X53155390Y-69913285D01*
X53155390Y-69913285D02*
X53203009Y-69960904D01*
X53203009Y-69960904D02*
X53298247Y-70008523D01*
X53155390Y-68865666D02*
X53107771Y-68960904D01*
X53107771Y-68960904D02*
X53060152Y-69008523D01*
X53060152Y-69008523D02*
X52964914Y-69056142D01*
X52964914Y-69056142D02*
X52917295Y-69056142D01*
X52917295Y-69056142D02*
X52822057Y-69008523D01*
X52822057Y-69008523D02*
X52774438Y-68960904D01*
X52774438Y-68960904D02*
X52726819Y-68865666D01*
X52726819Y-68865666D02*
X52726819Y-68675190D01*
X52726819Y-68675190D02*
X52774438Y-68579952D01*
X52774438Y-68579952D02*
X52822057Y-68532333D01*
X52822057Y-68532333D02*
X52917295Y-68484714D01*
X52917295Y-68484714D02*
X52964914Y-68484714D01*
X52964914Y-68484714D02*
X53060152Y-68532333D01*
X53060152Y-68532333D02*
X53107771Y-68579952D01*
X53107771Y-68579952D02*
X53155390Y-68675190D01*
X53155390Y-68675190D02*
X53155390Y-68865666D01*
X53155390Y-68865666D02*
X53203009Y-68960904D01*
X53203009Y-68960904D02*
X53250628Y-69008523D01*
X53250628Y-69008523D02*
X53345866Y-69056142D01*
X53345866Y-69056142D02*
X53536342Y-69056142D01*
X53536342Y-69056142D02*
X53631580Y-69008523D01*
X53631580Y-69008523D02*
X53679200Y-68960904D01*
X53679200Y-68960904D02*
X53726819Y-68865666D01*
X53726819Y-68865666D02*
X53726819Y-68675190D01*
X53726819Y-68675190D02*
X53679200Y-68579952D01*
X53679200Y-68579952D02*
X53631580Y-68532333D01*
X53631580Y-68532333D02*
X53536342Y-68484714D01*
X53536342Y-68484714D02*
X53345866Y-68484714D01*
X53345866Y-68484714D02*
X53250628Y-68532333D01*
X53250628Y-68532333D02*
X53203009Y-68579952D01*
X53203009Y-68579952D02*
X53155390Y-68675190D01*
X52726819Y-67865666D02*
X52726819Y-67770428D01*
X52726819Y-67770428D02*
X52774438Y-67675190D01*
X52774438Y-67675190D02*
X52822057Y-67627571D01*
X52822057Y-67627571D02*
X52917295Y-67579952D01*
X52917295Y-67579952D02*
X53107771Y-67532333D01*
X53107771Y-67532333D02*
X53345866Y-67532333D01*
X53345866Y-67532333D02*
X53536342Y-67579952D01*
X53536342Y-67579952D02*
X53631580Y-67627571D01*
X53631580Y-67627571D02*
X53679200Y-67675190D01*
X53679200Y-67675190D02*
X53726819Y-67770428D01*
X53726819Y-67770428D02*
X53726819Y-67865666D01*
X53726819Y-67865666D02*
X53679200Y-67960904D01*
X53679200Y-67960904D02*
X53631580Y-68008523D01*
X53631580Y-68008523D02*
X53536342Y-68056142D01*
X53536342Y-68056142D02*
X53345866Y-68103761D01*
X53345866Y-68103761D02*
X53107771Y-68103761D01*
X53107771Y-68103761D02*
X52917295Y-68056142D01*
X52917295Y-68056142D02*
X52822057Y-68008523D01*
X52822057Y-68008523D02*
X52774438Y-67960904D01*
X52774438Y-67960904D02*
X52726819Y-67865666D01*
X53726819Y-67151380D02*
X53726819Y-66913285D01*
X53726819Y-66913285D02*
X53536342Y-66913285D01*
X53536342Y-66913285D02*
X53488723Y-67008523D01*
X53488723Y-67008523D02*
X53393485Y-67103761D01*
X53393485Y-67103761D02*
X53250628Y-67151380D01*
X53250628Y-67151380D02*
X53012533Y-67151380D01*
X53012533Y-67151380D02*
X52869676Y-67103761D01*
X52869676Y-67103761D02*
X52774438Y-67008523D01*
X52774438Y-67008523D02*
X52726819Y-66865666D01*
X52726819Y-66865666D02*
X52726819Y-66675190D01*
X52726819Y-66675190D02*
X52774438Y-66532333D01*
X52774438Y-66532333D02*
X52869676Y-66437095D01*
X52869676Y-66437095D02*
X53012533Y-66389476D01*
X53012533Y-66389476D02*
X53250628Y-66389476D01*
X53250628Y-66389476D02*
X53393485Y-66437095D01*
X53393485Y-66437095D02*
X53488723Y-66532333D01*
X53488723Y-66532333D02*
X53536342Y-66627571D01*
X53536342Y-66627571D02*
X53726819Y-66627571D01*
X53726819Y-66627571D02*
X53726819Y-66389476D01*
D11*
X104802529Y-122540810D02*
X104194529Y-122540810D01*
X104194529Y-122540810D02*
X104194529Y-122396048D01*
X104194529Y-122396048D02*
X104223481Y-122309191D01*
X104223481Y-122309191D02*
X104281386Y-122251286D01*
X104281386Y-122251286D02*
X104339291Y-122222333D01*
X104339291Y-122222333D02*
X104455100Y-122193381D01*
X104455100Y-122193381D02*
X104541957Y-122193381D01*
X104541957Y-122193381D02*
X104657767Y-122222333D01*
X104657767Y-122222333D02*
X104715672Y-122251286D01*
X104715672Y-122251286D02*
X104773577Y-122309191D01*
X104773577Y-122309191D02*
X104802529Y-122396048D01*
X104802529Y-122396048D02*
X104802529Y-122540810D01*
X104194529Y-121990714D02*
X104194529Y-121585381D01*
X104194529Y-121585381D02*
X104802529Y-121990714D01*
X104802529Y-121990714D02*
X104802529Y-121585381D01*
X104252434Y-121382714D02*
X104223481Y-121353762D01*
X104223481Y-121353762D02*
X104194529Y-121295857D01*
X104194529Y-121295857D02*
X104194529Y-121151095D01*
X104194529Y-121151095D02*
X104223481Y-121093190D01*
X104223481Y-121093190D02*
X104252434Y-121064238D01*
X104252434Y-121064238D02*
X104310338Y-121035285D01*
X104310338Y-121035285D02*
X104368243Y-121035285D01*
X104368243Y-121035285D02*
X104455100Y-121064238D01*
X104455100Y-121064238D02*
X104802529Y-121411666D01*
X104802529Y-121411666D02*
X104802529Y-121035285D01*
X104194529Y-120832618D02*
X104194529Y-120427285D01*
X104194529Y-120427285D02*
X104802529Y-120687856D01*
X57104529Y-50115286D02*
X56496529Y-50115286D01*
X56496529Y-50115286D02*
X56496529Y-49970524D01*
X56496529Y-49970524D02*
X56525481Y-49883667D01*
X56525481Y-49883667D02*
X56583386Y-49825762D01*
X56583386Y-49825762D02*
X56641291Y-49796809D01*
X56641291Y-49796809D02*
X56757100Y-49767857D01*
X56757100Y-49767857D02*
X56843957Y-49767857D01*
X56843957Y-49767857D02*
X56959767Y-49796809D01*
X56959767Y-49796809D02*
X57017672Y-49825762D01*
X57017672Y-49825762D02*
X57075577Y-49883667D01*
X57075577Y-49883667D02*
X57104529Y-49970524D01*
X57104529Y-49970524D02*
X57104529Y-50115286D01*
X56496529Y-49565190D02*
X56496529Y-49159857D01*
X56496529Y-49159857D02*
X57104529Y-49565190D01*
X57104529Y-49565190D02*
X57104529Y-49159857D01*
X56496529Y-48986142D02*
X56496529Y-48609761D01*
X56496529Y-48609761D02*
X56728148Y-48812428D01*
X56728148Y-48812428D02*
X56728148Y-48725571D01*
X56728148Y-48725571D02*
X56757100Y-48667666D01*
X56757100Y-48667666D02*
X56786053Y-48638714D01*
X56786053Y-48638714D02*
X56843957Y-48609761D01*
X56843957Y-48609761D02*
X56988719Y-48609761D01*
X56988719Y-48609761D02*
X57046624Y-48638714D01*
X57046624Y-48638714D02*
X57075577Y-48667666D01*
X57075577Y-48667666D02*
X57104529Y-48725571D01*
X57104529Y-48725571D02*
X57104529Y-48899285D01*
X57104529Y-48899285D02*
X57075577Y-48957190D01*
X57075577Y-48957190D02*
X57046624Y-48986142D01*
X59390529Y-85219286D02*
X58782529Y-85219286D01*
X58782529Y-85219286D02*
X58782529Y-85074524D01*
X58782529Y-85074524D02*
X58811481Y-84987667D01*
X58811481Y-84987667D02*
X58869386Y-84929762D01*
X58869386Y-84929762D02*
X58927291Y-84900809D01*
X58927291Y-84900809D02*
X59043100Y-84871857D01*
X59043100Y-84871857D02*
X59129957Y-84871857D01*
X59129957Y-84871857D02*
X59245767Y-84900809D01*
X59245767Y-84900809D02*
X59303672Y-84929762D01*
X59303672Y-84929762D02*
X59361577Y-84987667D01*
X59361577Y-84987667D02*
X59390529Y-85074524D01*
X59390529Y-85074524D02*
X59390529Y-85219286D01*
X58782529Y-84669190D02*
X58782529Y-84263857D01*
X58782529Y-84263857D02*
X59390529Y-84669190D01*
X59390529Y-84669190D02*
X59390529Y-84263857D01*
X59043100Y-83945380D02*
X59014148Y-84003285D01*
X59014148Y-84003285D02*
X58985196Y-84032238D01*
X58985196Y-84032238D02*
X58927291Y-84061190D01*
X58927291Y-84061190D02*
X58898338Y-84061190D01*
X58898338Y-84061190D02*
X58840434Y-84032238D01*
X58840434Y-84032238D02*
X58811481Y-84003285D01*
X58811481Y-84003285D02*
X58782529Y-83945380D01*
X58782529Y-83945380D02*
X58782529Y-83829571D01*
X58782529Y-83829571D02*
X58811481Y-83771666D01*
X58811481Y-83771666D02*
X58840434Y-83742714D01*
X58840434Y-83742714D02*
X58898338Y-83713761D01*
X58898338Y-83713761D02*
X58927291Y-83713761D01*
X58927291Y-83713761D02*
X58985196Y-83742714D01*
X58985196Y-83742714D02*
X59014148Y-83771666D01*
X59014148Y-83771666D02*
X59043100Y-83829571D01*
X59043100Y-83829571D02*
X59043100Y-83945380D01*
X59043100Y-83945380D02*
X59072053Y-84003285D01*
X59072053Y-84003285D02*
X59101005Y-84032238D01*
X59101005Y-84032238D02*
X59158910Y-84061190D01*
X59158910Y-84061190D02*
X59274719Y-84061190D01*
X59274719Y-84061190D02*
X59332624Y-84032238D01*
X59332624Y-84032238D02*
X59361577Y-84003285D01*
X59361577Y-84003285D02*
X59390529Y-83945380D01*
X59390529Y-83945380D02*
X59390529Y-83829571D01*
X59390529Y-83829571D02*
X59361577Y-83771666D01*
X59361577Y-83771666D02*
X59332624Y-83742714D01*
X59332624Y-83742714D02*
X59274719Y-83713761D01*
X59274719Y-83713761D02*
X59158910Y-83713761D01*
X59158910Y-83713761D02*
X59101005Y-83742714D01*
X59101005Y-83742714D02*
X59072053Y-83771666D01*
X59072053Y-83771666D02*
X59043100Y-83829571D01*
D12*
X52726819Y-51752333D02*
X52726819Y-51942809D01*
X52726819Y-51942809D02*
X52774438Y-52038047D01*
X52774438Y-52038047D02*
X52822057Y-52085666D01*
X52822057Y-52085666D02*
X52964914Y-52180904D01*
X52964914Y-52180904D02*
X53155390Y-52228523D01*
X53155390Y-52228523D02*
X53536342Y-52228523D01*
X53536342Y-52228523D02*
X53631580Y-52180904D01*
X53631580Y-52180904D02*
X53679200Y-52133285D01*
X53679200Y-52133285D02*
X53726819Y-52038047D01*
X53726819Y-52038047D02*
X53726819Y-51847571D01*
X53726819Y-51847571D02*
X53679200Y-51752333D01*
X53679200Y-51752333D02*
X53631580Y-51704714D01*
X53631580Y-51704714D02*
X53536342Y-51657095D01*
X53536342Y-51657095D02*
X53298247Y-51657095D01*
X53298247Y-51657095D02*
X53203009Y-51704714D01*
X53203009Y-51704714D02*
X53155390Y-51752333D01*
X53155390Y-51752333D02*
X53107771Y-51847571D01*
X53107771Y-51847571D02*
X53107771Y-52038047D01*
X53107771Y-52038047D02*
X53155390Y-52133285D01*
X53155390Y-52133285D02*
X53203009Y-52180904D01*
X53203009Y-52180904D02*
X53298247Y-52228523D01*
X53155390Y-51085666D02*
X53107771Y-51180904D01*
X53107771Y-51180904D02*
X53060152Y-51228523D01*
X53060152Y-51228523D02*
X52964914Y-51276142D01*
X52964914Y-51276142D02*
X52917295Y-51276142D01*
X52917295Y-51276142D02*
X52822057Y-51228523D01*
X52822057Y-51228523D02*
X52774438Y-51180904D01*
X52774438Y-51180904D02*
X52726819Y-51085666D01*
X52726819Y-51085666D02*
X52726819Y-50895190D01*
X52726819Y-50895190D02*
X52774438Y-50799952D01*
X52774438Y-50799952D02*
X52822057Y-50752333D01*
X52822057Y-50752333D02*
X52917295Y-50704714D01*
X52917295Y-50704714D02*
X52964914Y-50704714D01*
X52964914Y-50704714D02*
X53060152Y-50752333D01*
X53060152Y-50752333D02*
X53107771Y-50799952D01*
X53107771Y-50799952D02*
X53155390Y-50895190D01*
X53155390Y-50895190D02*
X53155390Y-51085666D01*
X53155390Y-51085666D02*
X53203009Y-51180904D01*
X53203009Y-51180904D02*
X53250628Y-51228523D01*
X53250628Y-51228523D02*
X53345866Y-51276142D01*
X53345866Y-51276142D02*
X53536342Y-51276142D01*
X53536342Y-51276142D02*
X53631580Y-51228523D01*
X53631580Y-51228523D02*
X53679200Y-51180904D01*
X53679200Y-51180904D02*
X53726819Y-51085666D01*
X53726819Y-51085666D02*
X53726819Y-50895190D01*
X53726819Y-50895190D02*
X53679200Y-50799952D01*
X53679200Y-50799952D02*
X53631580Y-50752333D01*
X53631580Y-50752333D02*
X53536342Y-50704714D01*
X53536342Y-50704714D02*
X53345866Y-50704714D01*
X53345866Y-50704714D02*
X53250628Y-50752333D01*
X53250628Y-50752333D02*
X53203009Y-50799952D01*
X53203009Y-50799952D02*
X53155390Y-50895190D01*
X52726819Y-50085666D02*
X52726819Y-49990428D01*
X52726819Y-49990428D02*
X52774438Y-49895190D01*
X52774438Y-49895190D02*
X52822057Y-49847571D01*
X52822057Y-49847571D02*
X52917295Y-49799952D01*
X52917295Y-49799952D02*
X53107771Y-49752333D01*
X53107771Y-49752333D02*
X53345866Y-49752333D01*
X53345866Y-49752333D02*
X53536342Y-49799952D01*
X53536342Y-49799952D02*
X53631580Y-49847571D01*
X53631580Y-49847571D02*
X53679200Y-49895190D01*
X53679200Y-49895190D02*
X53726819Y-49990428D01*
X53726819Y-49990428D02*
X53726819Y-50085666D01*
X53726819Y-50085666D02*
X53679200Y-50180904D01*
X53679200Y-50180904D02*
X53631580Y-50228523D01*
X53631580Y-50228523D02*
X53536342Y-50276142D01*
X53536342Y-50276142D02*
X53345866Y-50323761D01*
X53345866Y-50323761D02*
X53107771Y-50323761D01*
X53107771Y-50323761D02*
X52917295Y-50276142D01*
X52917295Y-50276142D02*
X52822057Y-50228523D01*
X52822057Y-50228523D02*
X52774438Y-50180904D01*
X52774438Y-50180904D02*
X52726819Y-50085666D01*
X53726819Y-49371380D02*
X53726819Y-49133285D01*
X53726819Y-49133285D02*
X53536342Y-49133285D01*
X53536342Y-49133285D02*
X53488723Y-49228523D01*
X53488723Y-49228523D02*
X53393485Y-49323761D01*
X53393485Y-49323761D02*
X53250628Y-49371380D01*
X53250628Y-49371380D02*
X53012533Y-49371380D01*
X53012533Y-49371380D02*
X52869676Y-49323761D01*
X52869676Y-49323761D02*
X52774438Y-49228523D01*
X52774438Y-49228523D02*
X52726819Y-49085666D01*
X52726819Y-49085666D02*
X52726819Y-48895190D01*
X52726819Y-48895190D02*
X52774438Y-48752333D01*
X52774438Y-48752333D02*
X52869676Y-48657095D01*
X52869676Y-48657095D02*
X53012533Y-48609476D01*
X53012533Y-48609476D02*
X53250628Y-48609476D01*
X53250628Y-48609476D02*
X53393485Y-48657095D01*
X53393485Y-48657095D02*
X53488723Y-48752333D01*
X53488723Y-48752333D02*
X53536342Y-48847571D01*
X53536342Y-48847571D02*
X53726819Y-48847571D01*
X53726819Y-48847571D02*
X53726819Y-48609476D01*
X52726819Y-105092333D02*
X52726819Y-105282809D01*
X52726819Y-105282809D02*
X52774438Y-105378047D01*
X52774438Y-105378047D02*
X52822057Y-105425666D01*
X52822057Y-105425666D02*
X52964914Y-105520904D01*
X52964914Y-105520904D02*
X53155390Y-105568523D01*
X53155390Y-105568523D02*
X53536342Y-105568523D01*
X53536342Y-105568523D02*
X53631580Y-105520904D01*
X53631580Y-105520904D02*
X53679200Y-105473285D01*
X53679200Y-105473285D02*
X53726819Y-105378047D01*
X53726819Y-105378047D02*
X53726819Y-105187571D01*
X53726819Y-105187571D02*
X53679200Y-105092333D01*
X53679200Y-105092333D02*
X53631580Y-105044714D01*
X53631580Y-105044714D02*
X53536342Y-104997095D01*
X53536342Y-104997095D02*
X53298247Y-104997095D01*
X53298247Y-104997095D02*
X53203009Y-105044714D01*
X53203009Y-105044714D02*
X53155390Y-105092333D01*
X53155390Y-105092333D02*
X53107771Y-105187571D01*
X53107771Y-105187571D02*
X53107771Y-105378047D01*
X53107771Y-105378047D02*
X53155390Y-105473285D01*
X53155390Y-105473285D02*
X53203009Y-105520904D01*
X53203009Y-105520904D02*
X53298247Y-105568523D01*
X53155390Y-104425666D02*
X53107771Y-104520904D01*
X53107771Y-104520904D02*
X53060152Y-104568523D01*
X53060152Y-104568523D02*
X52964914Y-104616142D01*
X52964914Y-104616142D02*
X52917295Y-104616142D01*
X52917295Y-104616142D02*
X52822057Y-104568523D01*
X52822057Y-104568523D02*
X52774438Y-104520904D01*
X52774438Y-104520904D02*
X52726819Y-104425666D01*
X52726819Y-104425666D02*
X52726819Y-104235190D01*
X52726819Y-104235190D02*
X52774438Y-104139952D01*
X52774438Y-104139952D02*
X52822057Y-104092333D01*
X52822057Y-104092333D02*
X52917295Y-104044714D01*
X52917295Y-104044714D02*
X52964914Y-104044714D01*
X52964914Y-104044714D02*
X53060152Y-104092333D01*
X53060152Y-104092333D02*
X53107771Y-104139952D01*
X53107771Y-104139952D02*
X53155390Y-104235190D01*
X53155390Y-104235190D02*
X53155390Y-104425666D01*
X53155390Y-104425666D02*
X53203009Y-104520904D01*
X53203009Y-104520904D02*
X53250628Y-104568523D01*
X53250628Y-104568523D02*
X53345866Y-104616142D01*
X53345866Y-104616142D02*
X53536342Y-104616142D01*
X53536342Y-104616142D02*
X53631580Y-104568523D01*
X53631580Y-104568523D02*
X53679200Y-104520904D01*
X53679200Y-104520904D02*
X53726819Y-104425666D01*
X53726819Y-104425666D02*
X53726819Y-104235190D01*
X53726819Y-104235190D02*
X53679200Y-104139952D01*
X53679200Y-104139952D02*
X53631580Y-104092333D01*
X53631580Y-104092333D02*
X53536342Y-104044714D01*
X53536342Y-104044714D02*
X53345866Y-104044714D01*
X53345866Y-104044714D02*
X53250628Y-104092333D01*
X53250628Y-104092333D02*
X53203009Y-104139952D01*
X53203009Y-104139952D02*
X53155390Y-104235190D01*
X52726819Y-103425666D02*
X52726819Y-103330428D01*
X52726819Y-103330428D02*
X52774438Y-103235190D01*
X52774438Y-103235190D02*
X52822057Y-103187571D01*
X52822057Y-103187571D02*
X52917295Y-103139952D01*
X52917295Y-103139952D02*
X53107771Y-103092333D01*
X53107771Y-103092333D02*
X53345866Y-103092333D01*
X53345866Y-103092333D02*
X53536342Y-103139952D01*
X53536342Y-103139952D02*
X53631580Y-103187571D01*
X53631580Y-103187571D02*
X53679200Y-103235190D01*
X53679200Y-103235190D02*
X53726819Y-103330428D01*
X53726819Y-103330428D02*
X53726819Y-103425666D01*
X53726819Y-103425666D02*
X53679200Y-103520904D01*
X53679200Y-103520904D02*
X53631580Y-103568523D01*
X53631580Y-103568523D02*
X53536342Y-103616142D01*
X53536342Y-103616142D02*
X53345866Y-103663761D01*
X53345866Y-103663761D02*
X53107771Y-103663761D01*
X53107771Y-103663761D02*
X52917295Y-103616142D01*
X52917295Y-103616142D02*
X52822057Y-103568523D01*
X52822057Y-103568523D02*
X52774438Y-103520904D01*
X52774438Y-103520904D02*
X52726819Y-103425666D01*
X53726819Y-102711380D02*
X53726819Y-102473285D01*
X53726819Y-102473285D02*
X53536342Y-102473285D01*
X53536342Y-102473285D02*
X53488723Y-102568523D01*
X53488723Y-102568523D02*
X53393485Y-102663761D01*
X53393485Y-102663761D02*
X53250628Y-102711380D01*
X53250628Y-102711380D02*
X53012533Y-102711380D01*
X53012533Y-102711380D02*
X52869676Y-102663761D01*
X52869676Y-102663761D02*
X52774438Y-102568523D01*
X52774438Y-102568523D02*
X52726819Y-102425666D01*
X52726819Y-102425666D02*
X52726819Y-102235190D01*
X52726819Y-102235190D02*
X52774438Y-102092333D01*
X52774438Y-102092333D02*
X52869676Y-101997095D01*
X52869676Y-101997095D02*
X53012533Y-101949476D01*
X53012533Y-101949476D02*
X53250628Y-101949476D01*
X53250628Y-101949476D02*
X53393485Y-101997095D01*
X53393485Y-101997095D02*
X53488723Y-102092333D01*
X53488723Y-102092333D02*
X53536342Y-102187571D01*
X53536342Y-102187571D02*
X53726819Y-102187571D01*
X53726819Y-102187571D02*
X53726819Y-101949476D01*
D11*
X59390529Y-49659286D02*
X58782529Y-49659286D01*
X58782529Y-49659286D02*
X58782529Y-49514524D01*
X58782529Y-49514524D02*
X58811481Y-49427667D01*
X58811481Y-49427667D02*
X58869386Y-49369762D01*
X58869386Y-49369762D02*
X58927291Y-49340809D01*
X58927291Y-49340809D02*
X59043100Y-49311857D01*
X59043100Y-49311857D02*
X59129957Y-49311857D01*
X59129957Y-49311857D02*
X59245767Y-49340809D01*
X59245767Y-49340809D02*
X59303672Y-49369762D01*
X59303672Y-49369762D02*
X59361577Y-49427667D01*
X59361577Y-49427667D02*
X59390529Y-49514524D01*
X59390529Y-49514524D02*
X59390529Y-49659286D01*
X58782529Y-49109190D02*
X58782529Y-48703857D01*
X58782529Y-48703857D02*
X59390529Y-49109190D01*
X59390529Y-49109190D02*
X59390529Y-48703857D01*
X58985196Y-48211666D02*
X59390529Y-48211666D01*
X58753577Y-48356428D02*
X59187862Y-48501190D01*
X59187862Y-48501190D02*
X59187862Y-48124809D01*
D10*
X80275095Y-23754780D02*
X79989381Y-23659542D01*
X79989381Y-23659542D02*
X79894143Y-23564304D01*
X79894143Y-23564304D02*
X79798905Y-23373828D01*
X79798905Y-23373828D02*
X79798905Y-23088114D01*
X79798905Y-23088114D02*
X79894143Y-22897638D01*
X79894143Y-22897638D02*
X79989381Y-22802400D01*
X79989381Y-22802400D02*
X80179857Y-22707161D01*
X80179857Y-22707161D02*
X80941762Y-22707161D01*
X80941762Y-22707161D02*
X80941762Y-24707161D01*
X80941762Y-24707161D02*
X80275095Y-24707161D01*
X80275095Y-24707161D02*
X80084619Y-24611923D01*
X80084619Y-24611923D02*
X79989381Y-24516685D01*
X79989381Y-24516685D02*
X79894143Y-24326209D01*
X79894143Y-24326209D02*
X79894143Y-24135733D01*
X79894143Y-24135733D02*
X79989381Y-23945257D01*
X79989381Y-23945257D02*
X80084619Y-23850019D01*
X80084619Y-23850019D02*
X80275095Y-23754780D01*
X80275095Y-23754780D02*
X80941762Y-23754780D01*
X75989380Y-23278590D02*
X75036999Y-23278590D01*
X76179856Y-22707161D02*
X75513190Y-24707161D01*
X75513190Y-24707161D02*
X74846523Y-22707161D01*
D12*
X60360333Y-133423819D02*
X59788905Y-133423819D01*
X60074619Y-133423819D02*
X60074619Y-132423819D01*
X60074619Y-132423819D02*
X59979381Y-132566676D01*
X59979381Y-132566676D02*
X59884143Y-132661914D01*
X59884143Y-132661914D02*
X59788905Y-132709533D01*
X60979381Y-132423819D02*
X61074619Y-132423819D01*
X61074619Y-132423819D02*
X61169857Y-132471438D01*
X61169857Y-132471438D02*
X61217476Y-132519057D01*
X61217476Y-132519057D02*
X61265095Y-132614295D01*
X61265095Y-132614295D02*
X61312714Y-132804771D01*
X61312714Y-132804771D02*
X61312714Y-133042866D01*
X61312714Y-133042866D02*
X61265095Y-133233342D01*
X61265095Y-133233342D02*
X61217476Y-133328580D01*
X61217476Y-133328580D02*
X61169857Y-133376200D01*
X61169857Y-133376200D02*
X61074619Y-133423819D01*
X61074619Y-133423819D02*
X60979381Y-133423819D01*
X60979381Y-133423819D02*
X60884143Y-133376200D01*
X60884143Y-133376200D02*
X60836524Y-133328580D01*
X60836524Y-133328580D02*
X60788905Y-133233342D01*
X60788905Y-133233342D02*
X60741286Y-133042866D01*
X60741286Y-133042866D02*
X60741286Y-132804771D01*
X60741286Y-132804771D02*
X60788905Y-132614295D01*
X60788905Y-132614295D02*
X60836524Y-132519057D01*
X60836524Y-132519057D02*
X60884143Y-132471438D01*
X60884143Y-132471438D02*
X60979381Y-132423819D01*
X61741286Y-133423819D02*
X61741286Y-132423819D01*
X61836524Y-133042866D02*
X62122238Y-133423819D01*
X62122238Y-132757152D02*
X61741286Y-133138104D01*
X62503191Y-133423819D02*
X62741286Y-133423819D01*
X62741286Y-133423819D02*
X62741286Y-133233342D01*
X62741286Y-133233342D02*
X62646048Y-133185723D01*
X62646048Y-133185723D02*
X62550810Y-133090485D01*
X62550810Y-133090485D02*
X62503191Y-132947628D01*
X62503191Y-132947628D02*
X62503191Y-132709533D01*
X62503191Y-132709533D02*
X62550810Y-132566676D01*
X62550810Y-132566676D02*
X62646048Y-132471438D01*
X62646048Y-132471438D02*
X62788905Y-132423819D01*
X62788905Y-132423819D02*
X62979381Y-132423819D01*
X62979381Y-132423819D02*
X63122238Y-132471438D01*
X63122238Y-132471438D02*
X63217476Y-132566676D01*
X63217476Y-132566676D02*
X63265095Y-132709533D01*
X63265095Y-132709533D02*
X63265095Y-132947628D01*
X63265095Y-132947628D02*
X63217476Y-133090485D01*
X63217476Y-133090485D02*
X63122238Y-133185723D01*
X63122238Y-133185723D02*
X63027000Y-133233342D01*
X63027000Y-133233342D02*
X63027000Y-133423819D01*
X63027000Y-133423819D02*
X63265095Y-133423819D01*
X116749857Y-38269152D02*
X116749857Y-38935819D01*
X116511762Y-37888200D02*
X116273667Y-38602485D01*
X116273667Y-38602485D02*
X116892714Y-38602485D01*
X117178429Y-37935819D02*
X117797476Y-37935819D01*
X117797476Y-37935819D02*
X117464143Y-38316771D01*
X117464143Y-38316771D02*
X117607000Y-38316771D01*
X117607000Y-38316771D02*
X117702238Y-38364390D01*
X117702238Y-38364390D02*
X117749857Y-38412009D01*
X117749857Y-38412009D02*
X117797476Y-38507247D01*
X117797476Y-38507247D02*
X117797476Y-38745342D01*
X117797476Y-38745342D02*
X117749857Y-38840580D01*
X117749857Y-38840580D02*
X117702238Y-38888200D01*
X117702238Y-38888200D02*
X117607000Y-38935819D01*
X117607000Y-38935819D02*
X117321286Y-38935819D01*
X117321286Y-38935819D02*
X117226048Y-38888200D01*
X117226048Y-38888200D02*
X117178429Y-38840580D01*
X118178429Y-38935819D02*
X118416524Y-38935819D01*
X118416524Y-38935819D02*
X118416524Y-38745342D01*
X118416524Y-38745342D02*
X118321286Y-38697723D01*
X118321286Y-38697723D02*
X118226048Y-38602485D01*
X118226048Y-38602485D02*
X118178429Y-38459628D01*
X118178429Y-38459628D02*
X118178429Y-38221533D01*
X118178429Y-38221533D02*
X118226048Y-38078676D01*
X118226048Y-38078676D02*
X118321286Y-37983438D01*
X118321286Y-37983438D02*
X118464143Y-37935819D01*
X118464143Y-37935819D02*
X118654619Y-37935819D01*
X118654619Y-37935819D02*
X118797476Y-37983438D01*
X118797476Y-37983438D02*
X118892714Y-38078676D01*
X118892714Y-38078676D02*
X118940333Y-38221533D01*
X118940333Y-38221533D02*
X118940333Y-38459628D01*
X118940333Y-38459628D02*
X118892714Y-38602485D01*
X118892714Y-38602485D02*
X118797476Y-38697723D01*
X118797476Y-38697723D02*
X118702238Y-38745342D01*
X118702238Y-38745342D02*
X118702238Y-38935819D01*
X118702238Y-38935819D02*
X118940333Y-38935819D01*
X29741819Y-34281857D02*
X29741819Y-34853285D01*
X29741819Y-34567571D02*
X28741819Y-34567571D01*
X28741819Y-34567571D02*
X28884676Y-34662809D01*
X28884676Y-34662809D02*
X28979914Y-34758047D01*
X28979914Y-34758047D02*
X29027533Y-34853285D01*
X28741819Y-33377095D02*
X28741819Y-33853285D01*
X28741819Y-33853285D02*
X29218009Y-33900904D01*
X29218009Y-33900904D02*
X29170390Y-33853285D01*
X29170390Y-33853285D02*
X29122771Y-33758047D01*
X29122771Y-33758047D02*
X29122771Y-33519952D01*
X29122771Y-33519952D02*
X29170390Y-33424714D01*
X29170390Y-33424714D02*
X29218009Y-33377095D01*
X29218009Y-33377095D02*
X29313247Y-33329476D01*
X29313247Y-33329476D02*
X29551342Y-33329476D01*
X29551342Y-33329476D02*
X29646580Y-33377095D01*
X29646580Y-33377095D02*
X29694200Y-33424714D01*
X29694200Y-33424714D02*
X29741819Y-33519952D01*
X29741819Y-33519952D02*
X29741819Y-33758047D01*
X29741819Y-33758047D02*
X29694200Y-33853285D01*
X29694200Y-33853285D02*
X29646580Y-33900904D01*
X28741819Y-32710428D02*
X28741819Y-32615190D01*
X28741819Y-32615190D02*
X28789438Y-32519952D01*
X28789438Y-32519952D02*
X28837057Y-32472333D01*
X28837057Y-32472333D02*
X28932295Y-32424714D01*
X28932295Y-32424714D02*
X29122771Y-32377095D01*
X29122771Y-32377095D02*
X29360866Y-32377095D01*
X29360866Y-32377095D02*
X29551342Y-32424714D01*
X29551342Y-32424714D02*
X29646580Y-32472333D01*
X29646580Y-32472333D02*
X29694200Y-32519952D01*
X29694200Y-32519952D02*
X29741819Y-32615190D01*
X29741819Y-32615190D02*
X29741819Y-32710428D01*
X29741819Y-32710428D02*
X29694200Y-32805666D01*
X29694200Y-32805666D02*
X29646580Y-32853285D01*
X29646580Y-32853285D02*
X29551342Y-32900904D01*
X29551342Y-32900904D02*
X29360866Y-32948523D01*
X29360866Y-32948523D02*
X29122771Y-32948523D01*
X29122771Y-32948523D02*
X28932295Y-32900904D01*
X28932295Y-32900904D02*
X28837057Y-32853285D01*
X28837057Y-32853285D02*
X28789438Y-32805666D01*
X28789438Y-32805666D02*
X28741819Y-32710428D01*
X29741819Y-31948523D02*
X28741819Y-31948523D01*
X29360866Y-31853285D02*
X29741819Y-31567571D01*
X29075152Y-31567571D02*
X29456104Y-31948523D01*
X29741819Y-31186618D02*
X29741819Y-30948523D01*
X29741819Y-30948523D02*
X29551342Y-30948523D01*
X29551342Y-30948523D02*
X29503723Y-31043761D01*
X29503723Y-31043761D02*
X29408485Y-31138999D01*
X29408485Y-31138999D02*
X29265628Y-31186618D01*
X29265628Y-31186618D02*
X29027533Y-31186618D01*
X29027533Y-31186618D02*
X28884676Y-31138999D01*
X28884676Y-31138999D02*
X28789438Y-31043761D01*
X28789438Y-31043761D02*
X28741819Y-30900904D01*
X28741819Y-30900904D02*
X28741819Y-30710428D01*
X28741819Y-30710428D02*
X28789438Y-30567571D01*
X28789438Y-30567571D02*
X28884676Y-30472333D01*
X28884676Y-30472333D02*
X29027533Y-30424714D01*
X29027533Y-30424714D02*
X29265628Y-30424714D01*
X29265628Y-30424714D02*
X29408485Y-30472333D01*
X29408485Y-30472333D02*
X29503723Y-30567571D01*
X29503723Y-30567571D02*
X29551342Y-30662809D01*
X29551342Y-30662809D02*
X29741819Y-30662809D01*
X29741819Y-30662809D02*
X29741819Y-30424714D01*
D11*
X59390529Y-121068810D02*
X58782529Y-121068810D01*
X58782529Y-121068810D02*
X58782529Y-120924048D01*
X58782529Y-120924048D02*
X58811481Y-120837191D01*
X58811481Y-120837191D02*
X58869386Y-120779286D01*
X58869386Y-120779286D02*
X58927291Y-120750333D01*
X58927291Y-120750333D02*
X59043100Y-120721381D01*
X59043100Y-120721381D02*
X59129957Y-120721381D01*
X59129957Y-120721381D02*
X59245767Y-120750333D01*
X59245767Y-120750333D02*
X59303672Y-120779286D01*
X59303672Y-120779286D02*
X59361577Y-120837191D01*
X59361577Y-120837191D02*
X59390529Y-120924048D01*
X59390529Y-120924048D02*
X59390529Y-121068810D01*
X58782529Y-120518714D02*
X58782529Y-120113381D01*
X58782529Y-120113381D02*
X59390529Y-120518714D01*
X59390529Y-120518714D02*
X59390529Y-120113381D01*
X59390529Y-119563285D02*
X59390529Y-119910714D01*
X59390529Y-119737000D02*
X58782529Y-119737000D01*
X58782529Y-119737000D02*
X58869386Y-119794904D01*
X58869386Y-119794904D02*
X58927291Y-119852809D01*
X58927291Y-119852809D02*
X58956243Y-119910714D01*
X58840434Y-119331666D02*
X58811481Y-119302714D01*
X58811481Y-119302714D02*
X58782529Y-119244809D01*
X58782529Y-119244809D02*
X58782529Y-119100047D01*
X58782529Y-119100047D02*
X58811481Y-119042142D01*
X58811481Y-119042142D02*
X58840434Y-119013190D01*
X58840434Y-119013190D02*
X58898338Y-118984237D01*
X58898338Y-118984237D02*
X58956243Y-118984237D01*
X58956243Y-118984237D02*
X59043100Y-119013190D01*
X59043100Y-119013190D02*
X59390529Y-119360618D01*
X59390529Y-119360618D02*
X59390529Y-118984237D01*
X107088529Y-54139810D02*
X106480529Y-54139810D01*
X106480529Y-54139810D02*
X106480529Y-53995048D01*
X106480529Y-53995048D02*
X106509481Y-53908191D01*
X106509481Y-53908191D02*
X106567386Y-53850286D01*
X106567386Y-53850286D02*
X106625291Y-53821333D01*
X106625291Y-53821333D02*
X106741100Y-53792381D01*
X106741100Y-53792381D02*
X106827957Y-53792381D01*
X106827957Y-53792381D02*
X106943767Y-53821333D01*
X106943767Y-53821333D02*
X107001672Y-53850286D01*
X107001672Y-53850286D02*
X107059577Y-53908191D01*
X107059577Y-53908191D02*
X107088529Y-53995048D01*
X107088529Y-53995048D02*
X107088529Y-54139810D01*
X106480529Y-53589714D02*
X106480529Y-53184381D01*
X106480529Y-53184381D02*
X107088529Y-53589714D01*
X107088529Y-53589714D02*
X107088529Y-53184381D01*
X107088529Y-52634285D02*
X107088529Y-52981714D01*
X107088529Y-52808000D02*
X106480529Y-52808000D01*
X106480529Y-52808000D02*
X106567386Y-52865904D01*
X106567386Y-52865904D02*
X106625291Y-52923809D01*
X106625291Y-52923809D02*
X106654243Y-52981714D01*
X106480529Y-52113142D02*
X106480529Y-52228952D01*
X106480529Y-52228952D02*
X106509481Y-52286856D01*
X106509481Y-52286856D02*
X106538434Y-52315809D01*
X106538434Y-52315809D02*
X106625291Y-52373714D01*
X106625291Y-52373714D02*
X106741100Y-52402666D01*
X106741100Y-52402666D02*
X106972719Y-52402666D01*
X106972719Y-52402666D02*
X107030624Y-52373714D01*
X107030624Y-52373714D02*
X107059577Y-52344761D01*
X107059577Y-52344761D02*
X107088529Y-52286856D01*
X107088529Y-52286856D02*
X107088529Y-52171047D01*
X107088529Y-52171047D02*
X107059577Y-52113142D01*
X107059577Y-52113142D02*
X107030624Y-52084190D01*
X107030624Y-52084190D02*
X106972719Y-52055237D01*
X106972719Y-52055237D02*
X106827957Y-52055237D01*
X106827957Y-52055237D02*
X106770053Y-52084190D01*
X106770053Y-52084190D02*
X106741100Y-52113142D01*
X106741100Y-52113142D02*
X106712148Y-52171047D01*
X106712148Y-52171047D02*
X106712148Y-52286856D01*
X106712148Y-52286856D02*
X106741100Y-52344761D01*
X106741100Y-52344761D02*
X106770053Y-52373714D01*
X106770053Y-52373714D02*
X106827957Y-52402666D01*
X107088529Y-122084810D02*
X106480529Y-122084810D01*
X106480529Y-122084810D02*
X106480529Y-121940048D01*
X106480529Y-121940048D02*
X106509481Y-121853191D01*
X106509481Y-121853191D02*
X106567386Y-121795286D01*
X106567386Y-121795286D02*
X106625291Y-121766333D01*
X106625291Y-121766333D02*
X106741100Y-121737381D01*
X106741100Y-121737381D02*
X106827957Y-121737381D01*
X106827957Y-121737381D02*
X106943767Y-121766333D01*
X106943767Y-121766333D02*
X107001672Y-121795286D01*
X107001672Y-121795286D02*
X107059577Y-121853191D01*
X107059577Y-121853191D02*
X107088529Y-121940048D01*
X107088529Y-121940048D02*
X107088529Y-122084810D01*
X106480529Y-121534714D02*
X106480529Y-121129381D01*
X106480529Y-121129381D02*
X107088529Y-121534714D01*
X107088529Y-121534714D02*
X107088529Y-121129381D01*
X106538434Y-120926714D02*
X106509481Y-120897762D01*
X106509481Y-120897762D02*
X106480529Y-120839857D01*
X106480529Y-120839857D02*
X106480529Y-120695095D01*
X106480529Y-120695095D02*
X106509481Y-120637190D01*
X106509481Y-120637190D02*
X106538434Y-120608238D01*
X106538434Y-120608238D02*
X106596338Y-120579285D01*
X106596338Y-120579285D02*
X106654243Y-120579285D01*
X106654243Y-120579285D02*
X106741100Y-120608238D01*
X106741100Y-120608238D02*
X107088529Y-120955666D01*
X107088529Y-120955666D02*
X107088529Y-120579285D01*
X106741100Y-120231856D02*
X106712148Y-120289761D01*
X106712148Y-120289761D02*
X106683196Y-120318714D01*
X106683196Y-120318714D02*
X106625291Y-120347666D01*
X106625291Y-120347666D02*
X106596338Y-120347666D01*
X106596338Y-120347666D02*
X106538434Y-120318714D01*
X106538434Y-120318714D02*
X106509481Y-120289761D01*
X106509481Y-120289761D02*
X106480529Y-120231856D01*
X106480529Y-120231856D02*
X106480529Y-120116047D01*
X106480529Y-120116047D02*
X106509481Y-120058142D01*
X106509481Y-120058142D02*
X106538434Y-120029190D01*
X106538434Y-120029190D02*
X106596338Y-120000237D01*
X106596338Y-120000237D02*
X106625291Y-120000237D01*
X106625291Y-120000237D02*
X106683196Y-120029190D01*
X106683196Y-120029190D02*
X106712148Y-120058142D01*
X106712148Y-120058142D02*
X106741100Y-120116047D01*
X106741100Y-120116047D02*
X106741100Y-120231856D01*
X106741100Y-120231856D02*
X106770053Y-120289761D01*
X106770053Y-120289761D02*
X106799005Y-120318714D01*
X106799005Y-120318714D02*
X106856910Y-120347666D01*
X106856910Y-120347666D02*
X106972719Y-120347666D01*
X106972719Y-120347666D02*
X107030624Y-120318714D01*
X107030624Y-120318714D02*
X107059577Y-120289761D01*
X107059577Y-120289761D02*
X107088529Y-120231856D01*
X107088529Y-120231856D02*
X107088529Y-120116047D01*
X107088529Y-120116047D02*
X107059577Y-120058142D01*
X107059577Y-120058142D02*
X107030624Y-120029190D01*
X107030624Y-120029190D02*
X106972719Y-120000237D01*
X106972719Y-120000237D02*
X106856910Y-120000237D01*
X106856910Y-120000237D02*
X106799005Y-120029190D01*
X106799005Y-120029190D02*
X106770053Y-120058142D01*
X106770053Y-120058142D02*
X106741100Y-120116047D01*
D12*
X52726819Y-33972333D02*
X52726819Y-34162809D01*
X52726819Y-34162809D02*
X52774438Y-34258047D01*
X52774438Y-34258047D02*
X52822057Y-34305666D01*
X52822057Y-34305666D02*
X52964914Y-34400904D01*
X52964914Y-34400904D02*
X53155390Y-34448523D01*
X53155390Y-34448523D02*
X53536342Y-34448523D01*
X53536342Y-34448523D02*
X53631580Y-34400904D01*
X53631580Y-34400904D02*
X53679200Y-34353285D01*
X53679200Y-34353285D02*
X53726819Y-34258047D01*
X53726819Y-34258047D02*
X53726819Y-34067571D01*
X53726819Y-34067571D02*
X53679200Y-33972333D01*
X53679200Y-33972333D02*
X53631580Y-33924714D01*
X53631580Y-33924714D02*
X53536342Y-33877095D01*
X53536342Y-33877095D02*
X53298247Y-33877095D01*
X53298247Y-33877095D02*
X53203009Y-33924714D01*
X53203009Y-33924714D02*
X53155390Y-33972333D01*
X53155390Y-33972333D02*
X53107771Y-34067571D01*
X53107771Y-34067571D02*
X53107771Y-34258047D01*
X53107771Y-34258047D02*
X53155390Y-34353285D01*
X53155390Y-34353285D02*
X53203009Y-34400904D01*
X53203009Y-34400904D02*
X53298247Y-34448523D01*
X53155390Y-33305666D02*
X53107771Y-33400904D01*
X53107771Y-33400904D02*
X53060152Y-33448523D01*
X53060152Y-33448523D02*
X52964914Y-33496142D01*
X52964914Y-33496142D02*
X52917295Y-33496142D01*
X52917295Y-33496142D02*
X52822057Y-33448523D01*
X52822057Y-33448523D02*
X52774438Y-33400904D01*
X52774438Y-33400904D02*
X52726819Y-33305666D01*
X52726819Y-33305666D02*
X52726819Y-33115190D01*
X52726819Y-33115190D02*
X52774438Y-33019952D01*
X52774438Y-33019952D02*
X52822057Y-32972333D01*
X52822057Y-32972333D02*
X52917295Y-32924714D01*
X52917295Y-32924714D02*
X52964914Y-32924714D01*
X52964914Y-32924714D02*
X53060152Y-32972333D01*
X53060152Y-32972333D02*
X53107771Y-33019952D01*
X53107771Y-33019952D02*
X53155390Y-33115190D01*
X53155390Y-33115190D02*
X53155390Y-33305666D01*
X53155390Y-33305666D02*
X53203009Y-33400904D01*
X53203009Y-33400904D02*
X53250628Y-33448523D01*
X53250628Y-33448523D02*
X53345866Y-33496142D01*
X53345866Y-33496142D02*
X53536342Y-33496142D01*
X53536342Y-33496142D02*
X53631580Y-33448523D01*
X53631580Y-33448523D02*
X53679200Y-33400904D01*
X53679200Y-33400904D02*
X53726819Y-33305666D01*
X53726819Y-33305666D02*
X53726819Y-33115190D01*
X53726819Y-33115190D02*
X53679200Y-33019952D01*
X53679200Y-33019952D02*
X53631580Y-32972333D01*
X53631580Y-32972333D02*
X53536342Y-32924714D01*
X53536342Y-32924714D02*
X53345866Y-32924714D01*
X53345866Y-32924714D02*
X53250628Y-32972333D01*
X53250628Y-32972333D02*
X53203009Y-33019952D01*
X53203009Y-33019952D02*
X53155390Y-33115190D01*
X52726819Y-32305666D02*
X52726819Y-32210428D01*
X52726819Y-32210428D02*
X52774438Y-32115190D01*
X52774438Y-32115190D02*
X52822057Y-32067571D01*
X52822057Y-32067571D02*
X52917295Y-32019952D01*
X52917295Y-32019952D02*
X53107771Y-31972333D01*
X53107771Y-31972333D02*
X53345866Y-31972333D01*
X53345866Y-31972333D02*
X53536342Y-32019952D01*
X53536342Y-32019952D02*
X53631580Y-32067571D01*
X53631580Y-32067571D02*
X53679200Y-32115190D01*
X53679200Y-32115190D02*
X53726819Y-32210428D01*
X53726819Y-32210428D02*
X53726819Y-32305666D01*
X53726819Y-32305666D02*
X53679200Y-32400904D01*
X53679200Y-32400904D02*
X53631580Y-32448523D01*
X53631580Y-32448523D02*
X53536342Y-32496142D01*
X53536342Y-32496142D02*
X53345866Y-32543761D01*
X53345866Y-32543761D02*
X53107771Y-32543761D01*
X53107771Y-32543761D02*
X52917295Y-32496142D01*
X52917295Y-32496142D02*
X52822057Y-32448523D01*
X52822057Y-32448523D02*
X52774438Y-32400904D01*
X52774438Y-32400904D02*
X52726819Y-32305666D01*
X53726819Y-31591380D02*
X53726819Y-31353285D01*
X53726819Y-31353285D02*
X53536342Y-31353285D01*
X53536342Y-31353285D02*
X53488723Y-31448523D01*
X53488723Y-31448523D02*
X53393485Y-31543761D01*
X53393485Y-31543761D02*
X53250628Y-31591380D01*
X53250628Y-31591380D02*
X53012533Y-31591380D01*
X53012533Y-31591380D02*
X52869676Y-31543761D01*
X52869676Y-31543761D02*
X52774438Y-31448523D01*
X52774438Y-31448523D02*
X52726819Y-31305666D01*
X52726819Y-31305666D02*
X52726819Y-31115190D01*
X52726819Y-31115190D02*
X52774438Y-30972333D01*
X52774438Y-30972333D02*
X52869676Y-30877095D01*
X52869676Y-30877095D02*
X53012533Y-30829476D01*
X53012533Y-30829476D02*
X53250628Y-30829476D01*
X53250628Y-30829476D02*
X53393485Y-30877095D01*
X53393485Y-30877095D02*
X53488723Y-30972333D01*
X53488723Y-30972333D02*
X53536342Y-31067571D01*
X53536342Y-31067571D02*
X53726819Y-31067571D01*
X53726819Y-31067571D02*
X53726819Y-30829476D01*
D11*
X104802529Y-99807810D02*
X104194529Y-99807810D01*
X104194529Y-99807810D02*
X104194529Y-99663048D01*
X104194529Y-99663048D02*
X104223481Y-99576191D01*
X104223481Y-99576191D02*
X104281386Y-99518286D01*
X104281386Y-99518286D02*
X104339291Y-99489333D01*
X104339291Y-99489333D02*
X104455100Y-99460381D01*
X104455100Y-99460381D02*
X104541957Y-99460381D01*
X104541957Y-99460381D02*
X104657767Y-99489333D01*
X104657767Y-99489333D02*
X104715672Y-99518286D01*
X104715672Y-99518286D02*
X104773577Y-99576191D01*
X104773577Y-99576191D02*
X104802529Y-99663048D01*
X104802529Y-99663048D02*
X104802529Y-99807810D01*
X104194529Y-99257714D02*
X104194529Y-98852381D01*
X104194529Y-98852381D02*
X104802529Y-99257714D01*
X104802529Y-99257714D02*
X104802529Y-98852381D01*
X104252434Y-98649714D02*
X104223481Y-98620762D01*
X104223481Y-98620762D02*
X104194529Y-98562857D01*
X104194529Y-98562857D02*
X104194529Y-98418095D01*
X104194529Y-98418095D02*
X104223481Y-98360190D01*
X104223481Y-98360190D02*
X104252434Y-98331238D01*
X104252434Y-98331238D02*
X104310338Y-98302285D01*
X104310338Y-98302285D02*
X104368243Y-98302285D01*
X104368243Y-98302285D02*
X104455100Y-98331238D01*
X104455100Y-98331238D02*
X104802529Y-98678666D01*
X104802529Y-98678666D02*
X104802529Y-98302285D01*
X104194529Y-98099618D02*
X104194529Y-97723237D01*
X104194529Y-97723237D02*
X104426148Y-97925904D01*
X104426148Y-97925904D02*
X104426148Y-97839047D01*
X104426148Y-97839047D02*
X104455100Y-97781142D01*
X104455100Y-97781142D02*
X104484053Y-97752190D01*
X104484053Y-97752190D02*
X104541957Y-97723237D01*
X104541957Y-97723237D02*
X104686719Y-97723237D01*
X104686719Y-97723237D02*
X104744624Y-97752190D01*
X104744624Y-97752190D02*
X104773577Y-97781142D01*
X104773577Y-97781142D02*
X104802529Y-97839047D01*
X104802529Y-97839047D02*
X104802529Y-98012761D01*
X104802529Y-98012761D02*
X104773577Y-98070666D01*
X104773577Y-98070666D02*
X104744624Y-98099618D01*
D12*
X29741819Y-52061857D02*
X29741819Y-52633285D01*
X29741819Y-52347571D02*
X28741819Y-52347571D01*
X28741819Y-52347571D02*
X28884676Y-52442809D01*
X28884676Y-52442809D02*
X28979914Y-52538047D01*
X28979914Y-52538047D02*
X29027533Y-52633285D01*
X28741819Y-51157095D02*
X28741819Y-51633285D01*
X28741819Y-51633285D02*
X29218009Y-51680904D01*
X29218009Y-51680904D02*
X29170390Y-51633285D01*
X29170390Y-51633285D02*
X29122771Y-51538047D01*
X29122771Y-51538047D02*
X29122771Y-51299952D01*
X29122771Y-51299952D02*
X29170390Y-51204714D01*
X29170390Y-51204714D02*
X29218009Y-51157095D01*
X29218009Y-51157095D02*
X29313247Y-51109476D01*
X29313247Y-51109476D02*
X29551342Y-51109476D01*
X29551342Y-51109476D02*
X29646580Y-51157095D01*
X29646580Y-51157095D02*
X29694200Y-51204714D01*
X29694200Y-51204714D02*
X29741819Y-51299952D01*
X29741819Y-51299952D02*
X29741819Y-51538047D01*
X29741819Y-51538047D02*
X29694200Y-51633285D01*
X29694200Y-51633285D02*
X29646580Y-51680904D01*
X28741819Y-50490428D02*
X28741819Y-50395190D01*
X28741819Y-50395190D02*
X28789438Y-50299952D01*
X28789438Y-50299952D02*
X28837057Y-50252333D01*
X28837057Y-50252333D02*
X28932295Y-50204714D01*
X28932295Y-50204714D02*
X29122771Y-50157095D01*
X29122771Y-50157095D02*
X29360866Y-50157095D01*
X29360866Y-50157095D02*
X29551342Y-50204714D01*
X29551342Y-50204714D02*
X29646580Y-50252333D01*
X29646580Y-50252333D02*
X29694200Y-50299952D01*
X29694200Y-50299952D02*
X29741819Y-50395190D01*
X29741819Y-50395190D02*
X29741819Y-50490428D01*
X29741819Y-50490428D02*
X29694200Y-50585666D01*
X29694200Y-50585666D02*
X29646580Y-50633285D01*
X29646580Y-50633285D02*
X29551342Y-50680904D01*
X29551342Y-50680904D02*
X29360866Y-50728523D01*
X29360866Y-50728523D02*
X29122771Y-50728523D01*
X29122771Y-50728523D02*
X28932295Y-50680904D01*
X28932295Y-50680904D02*
X28837057Y-50633285D01*
X28837057Y-50633285D02*
X28789438Y-50585666D01*
X28789438Y-50585666D02*
X28741819Y-50490428D01*
X29741819Y-49728523D02*
X28741819Y-49728523D01*
X29360866Y-49633285D02*
X29741819Y-49347571D01*
X29075152Y-49347571D02*
X29456104Y-49728523D01*
X29741819Y-48966618D02*
X29741819Y-48728523D01*
X29741819Y-48728523D02*
X29551342Y-48728523D01*
X29551342Y-48728523D02*
X29503723Y-48823761D01*
X29503723Y-48823761D02*
X29408485Y-48918999D01*
X29408485Y-48918999D02*
X29265628Y-48966618D01*
X29265628Y-48966618D02*
X29027533Y-48966618D01*
X29027533Y-48966618D02*
X28884676Y-48918999D01*
X28884676Y-48918999D02*
X28789438Y-48823761D01*
X28789438Y-48823761D02*
X28741819Y-48680904D01*
X28741819Y-48680904D02*
X28741819Y-48490428D01*
X28741819Y-48490428D02*
X28789438Y-48347571D01*
X28789438Y-48347571D02*
X28884676Y-48252333D01*
X28884676Y-48252333D02*
X29027533Y-48204714D01*
X29027533Y-48204714D02*
X29265628Y-48204714D01*
X29265628Y-48204714D02*
X29408485Y-48252333D01*
X29408485Y-48252333D02*
X29503723Y-48347571D01*
X29503723Y-48347571D02*
X29551342Y-48442809D01*
X29551342Y-48442809D02*
X29741819Y-48442809D01*
X29741819Y-48442809D02*
X29741819Y-48204714D01*
D11*
X104802529Y-88810810D02*
X104194529Y-88810810D01*
X104194529Y-88810810D02*
X104194529Y-88666048D01*
X104194529Y-88666048D02*
X104223481Y-88579191D01*
X104223481Y-88579191D02*
X104281386Y-88521286D01*
X104281386Y-88521286D02*
X104339291Y-88492333D01*
X104339291Y-88492333D02*
X104455100Y-88463381D01*
X104455100Y-88463381D02*
X104541957Y-88463381D01*
X104541957Y-88463381D02*
X104657767Y-88492333D01*
X104657767Y-88492333D02*
X104715672Y-88521286D01*
X104715672Y-88521286D02*
X104773577Y-88579191D01*
X104773577Y-88579191D02*
X104802529Y-88666048D01*
X104802529Y-88666048D02*
X104802529Y-88810810D01*
X104194529Y-88260714D02*
X104194529Y-87855381D01*
X104194529Y-87855381D02*
X104802529Y-88260714D01*
X104802529Y-88260714D02*
X104802529Y-87855381D01*
X104252434Y-87652714D02*
X104223481Y-87623762D01*
X104223481Y-87623762D02*
X104194529Y-87565857D01*
X104194529Y-87565857D02*
X104194529Y-87421095D01*
X104194529Y-87421095D02*
X104223481Y-87363190D01*
X104223481Y-87363190D02*
X104252434Y-87334238D01*
X104252434Y-87334238D02*
X104310338Y-87305285D01*
X104310338Y-87305285D02*
X104368243Y-87305285D01*
X104368243Y-87305285D02*
X104455100Y-87334238D01*
X104455100Y-87334238D02*
X104802529Y-87681666D01*
X104802529Y-87681666D02*
X104802529Y-87305285D01*
X104802529Y-86726237D02*
X104802529Y-87073666D01*
X104802529Y-86899952D02*
X104194529Y-86899952D01*
X104194529Y-86899952D02*
X104281386Y-86957856D01*
X104281386Y-86957856D02*
X104339291Y-87015761D01*
X104339291Y-87015761D02*
X104368243Y-87073666D01*
X57104529Y-67885286D02*
X56496529Y-67885286D01*
X56496529Y-67885286D02*
X56496529Y-67740524D01*
X56496529Y-67740524D02*
X56525481Y-67653667D01*
X56525481Y-67653667D02*
X56583386Y-67595762D01*
X56583386Y-67595762D02*
X56641291Y-67566809D01*
X56641291Y-67566809D02*
X56757100Y-67537857D01*
X56757100Y-67537857D02*
X56843957Y-67537857D01*
X56843957Y-67537857D02*
X56959767Y-67566809D01*
X56959767Y-67566809D02*
X57017672Y-67595762D01*
X57017672Y-67595762D02*
X57075577Y-67653667D01*
X57075577Y-67653667D02*
X57104529Y-67740524D01*
X57104529Y-67740524D02*
X57104529Y-67885286D01*
X56496529Y-67335190D02*
X56496529Y-66929857D01*
X56496529Y-66929857D02*
X57104529Y-67335190D01*
X57104529Y-67335190D02*
X57104529Y-66929857D01*
X56496529Y-66408714D02*
X56496529Y-66698238D01*
X56496529Y-66698238D02*
X56786053Y-66727190D01*
X56786053Y-66727190D02*
X56757100Y-66698238D01*
X56757100Y-66698238D02*
X56728148Y-66640333D01*
X56728148Y-66640333D02*
X56728148Y-66495571D01*
X56728148Y-66495571D02*
X56757100Y-66437666D01*
X56757100Y-66437666D02*
X56786053Y-66408714D01*
X56786053Y-66408714D02*
X56843957Y-66379761D01*
X56843957Y-66379761D02*
X56988719Y-66379761D01*
X56988719Y-66379761D02*
X57046624Y-66408714D01*
X57046624Y-66408714D02*
X57075577Y-66437666D01*
X57075577Y-66437666D02*
X57104529Y-66495571D01*
X57104529Y-66495571D02*
X57104529Y-66640333D01*
X57104529Y-66640333D02*
X57075577Y-66698238D01*
X57075577Y-66698238D02*
X57046624Y-66727190D01*
D12*
X52726819Y-87312333D02*
X52726819Y-87502809D01*
X52726819Y-87502809D02*
X52774438Y-87598047D01*
X52774438Y-87598047D02*
X52822057Y-87645666D01*
X52822057Y-87645666D02*
X52964914Y-87740904D01*
X52964914Y-87740904D02*
X53155390Y-87788523D01*
X53155390Y-87788523D02*
X53536342Y-87788523D01*
X53536342Y-87788523D02*
X53631580Y-87740904D01*
X53631580Y-87740904D02*
X53679200Y-87693285D01*
X53679200Y-87693285D02*
X53726819Y-87598047D01*
X53726819Y-87598047D02*
X53726819Y-87407571D01*
X53726819Y-87407571D02*
X53679200Y-87312333D01*
X53679200Y-87312333D02*
X53631580Y-87264714D01*
X53631580Y-87264714D02*
X53536342Y-87217095D01*
X53536342Y-87217095D02*
X53298247Y-87217095D01*
X53298247Y-87217095D02*
X53203009Y-87264714D01*
X53203009Y-87264714D02*
X53155390Y-87312333D01*
X53155390Y-87312333D02*
X53107771Y-87407571D01*
X53107771Y-87407571D02*
X53107771Y-87598047D01*
X53107771Y-87598047D02*
X53155390Y-87693285D01*
X53155390Y-87693285D02*
X53203009Y-87740904D01*
X53203009Y-87740904D02*
X53298247Y-87788523D01*
X53155390Y-86645666D02*
X53107771Y-86740904D01*
X53107771Y-86740904D02*
X53060152Y-86788523D01*
X53060152Y-86788523D02*
X52964914Y-86836142D01*
X52964914Y-86836142D02*
X52917295Y-86836142D01*
X52917295Y-86836142D02*
X52822057Y-86788523D01*
X52822057Y-86788523D02*
X52774438Y-86740904D01*
X52774438Y-86740904D02*
X52726819Y-86645666D01*
X52726819Y-86645666D02*
X52726819Y-86455190D01*
X52726819Y-86455190D02*
X52774438Y-86359952D01*
X52774438Y-86359952D02*
X52822057Y-86312333D01*
X52822057Y-86312333D02*
X52917295Y-86264714D01*
X52917295Y-86264714D02*
X52964914Y-86264714D01*
X52964914Y-86264714D02*
X53060152Y-86312333D01*
X53060152Y-86312333D02*
X53107771Y-86359952D01*
X53107771Y-86359952D02*
X53155390Y-86455190D01*
X53155390Y-86455190D02*
X53155390Y-86645666D01*
X53155390Y-86645666D02*
X53203009Y-86740904D01*
X53203009Y-86740904D02*
X53250628Y-86788523D01*
X53250628Y-86788523D02*
X53345866Y-86836142D01*
X53345866Y-86836142D02*
X53536342Y-86836142D01*
X53536342Y-86836142D02*
X53631580Y-86788523D01*
X53631580Y-86788523D02*
X53679200Y-86740904D01*
X53679200Y-86740904D02*
X53726819Y-86645666D01*
X53726819Y-86645666D02*
X53726819Y-86455190D01*
X53726819Y-86455190D02*
X53679200Y-86359952D01*
X53679200Y-86359952D02*
X53631580Y-86312333D01*
X53631580Y-86312333D02*
X53536342Y-86264714D01*
X53536342Y-86264714D02*
X53345866Y-86264714D01*
X53345866Y-86264714D02*
X53250628Y-86312333D01*
X53250628Y-86312333D02*
X53203009Y-86359952D01*
X53203009Y-86359952D02*
X53155390Y-86455190D01*
X52726819Y-85645666D02*
X52726819Y-85550428D01*
X52726819Y-85550428D02*
X52774438Y-85455190D01*
X52774438Y-85455190D02*
X52822057Y-85407571D01*
X52822057Y-85407571D02*
X52917295Y-85359952D01*
X52917295Y-85359952D02*
X53107771Y-85312333D01*
X53107771Y-85312333D02*
X53345866Y-85312333D01*
X53345866Y-85312333D02*
X53536342Y-85359952D01*
X53536342Y-85359952D02*
X53631580Y-85407571D01*
X53631580Y-85407571D02*
X53679200Y-85455190D01*
X53679200Y-85455190D02*
X53726819Y-85550428D01*
X53726819Y-85550428D02*
X53726819Y-85645666D01*
X53726819Y-85645666D02*
X53679200Y-85740904D01*
X53679200Y-85740904D02*
X53631580Y-85788523D01*
X53631580Y-85788523D02*
X53536342Y-85836142D01*
X53536342Y-85836142D02*
X53345866Y-85883761D01*
X53345866Y-85883761D02*
X53107771Y-85883761D01*
X53107771Y-85883761D02*
X52917295Y-85836142D01*
X52917295Y-85836142D02*
X52822057Y-85788523D01*
X52822057Y-85788523D02*
X52774438Y-85740904D01*
X52774438Y-85740904D02*
X52726819Y-85645666D01*
X53726819Y-84931380D02*
X53726819Y-84693285D01*
X53726819Y-84693285D02*
X53536342Y-84693285D01*
X53536342Y-84693285D02*
X53488723Y-84788523D01*
X53488723Y-84788523D02*
X53393485Y-84883761D01*
X53393485Y-84883761D02*
X53250628Y-84931380D01*
X53250628Y-84931380D02*
X53012533Y-84931380D01*
X53012533Y-84931380D02*
X52869676Y-84883761D01*
X52869676Y-84883761D02*
X52774438Y-84788523D01*
X52774438Y-84788523D02*
X52726819Y-84645666D01*
X52726819Y-84645666D02*
X52726819Y-84455190D01*
X52726819Y-84455190D02*
X52774438Y-84312333D01*
X52774438Y-84312333D02*
X52869676Y-84217095D01*
X52869676Y-84217095D02*
X53012533Y-84169476D01*
X53012533Y-84169476D02*
X53250628Y-84169476D01*
X53250628Y-84169476D02*
X53393485Y-84217095D01*
X53393485Y-84217095D02*
X53488723Y-84312333D01*
X53488723Y-84312333D02*
X53536342Y-84407571D01*
X53536342Y-84407571D02*
X53726819Y-84407571D01*
X53726819Y-84407571D02*
X53726819Y-84169476D01*
D13*
X38159381Y-102848276D02*
X40445095Y-102848276D01*
X39302238Y-106848276D02*
X39302238Y-102848276D01*
X43683190Y-102848276D02*
X41778428Y-102848276D01*
X41778428Y-102848276D02*
X41587952Y-104753038D01*
X41587952Y-104753038D02*
X41778428Y-104562561D01*
X41778428Y-104562561D02*
X42159381Y-104372085D01*
X42159381Y-104372085D02*
X43111762Y-104372085D01*
X43111762Y-104372085D02*
X43492714Y-104562561D01*
X43492714Y-104562561D02*
X43683190Y-104753038D01*
X43683190Y-104753038D02*
X43873667Y-105133990D01*
X43873667Y-105133990D02*
X43873667Y-106086371D01*
X43873667Y-106086371D02*
X43683190Y-106467323D01*
X43683190Y-106467323D02*
X43492714Y-106657800D01*
X43492714Y-106657800D02*
X43111762Y-106848276D01*
X43111762Y-106848276D02*
X42159381Y-106848276D01*
X42159381Y-106848276D02*
X41778428Y-106657800D01*
X41778428Y-106657800D02*
X41587952Y-106467323D01*
D12*
X104302333Y-133423819D02*
X103730905Y-133423819D01*
X104016619Y-133423819D02*
X104016619Y-132423819D01*
X104016619Y-132423819D02*
X103921381Y-132566676D01*
X103921381Y-132566676D02*
X103826143Y-132661914D01*
X103826143Y-132661914D02*
X103730905Y-132709533D01*
X104921381Y-132423819D02*
X105016619Y-132423819D01*
X105016619Y-132423819D02*
X105111857Y-132471438D01*
X105111857Y-132471438D02*
X105159476Y-132519057D01*
X105159476Y-132519057D02*
X105207095Y-132614295D01*
X105207095Y-132614295D02*
X105254714Y-132804771D01*
X105254714Y-132804771D02*
X105254714Y-133042866D01*
X105254714Y-133042866D02*
X105207095Y-133233342D01*
X105207095Y-133233342D02*
X105159476Y-133328580D01*
X105159476Y-133328580D02*
X105111857Y-133376200D01*
X105111857Y-133376200D02*
X105016619Y-133423819D01*
X105016619Y-133423819D02*
X104921381Y-133423819D01*
X104921381Y-133423819D02*
X104826143Y-133376200D01*
X104826143Y-133376200D02*
X104778524Y-133328580D01*
X104778524Y-133328580D02*
X104730905Y-133233342D01*
X104730905Y-133233342D02*
X104683286Y-133042866D01*
X104683286Y-133042866D02*
X104683286Y-132804771D01*
X104683286Y-132804771D02*
X104730905Y-132614295D01*
X104730905Y-132614295D02*
X104778524Y-132519057D01*
X104778524Y-132519057D02*
X104826143Y-132471438D01*
X104826143Y-132471438D02*
X104921381Y-132423819D01*
X105683286Y-133423819D02*
X105683286Y-132423819D01*
X105778524Y-133042866D02*
X106064238Y-133423819D01*
X106064238Y-132757152D02*
X105683286Y-133138104D01*
X106445191Y-133423819D02*
X106683286Y-133423819D01*
X106683286Y-133423819D02*
X106683286Y-133233342D01*
X106683286Y-133233342D02*
X106588048Y-133185723D01*
X106588048Y-133185723D02*
X106492810Y-133090485D01*
X106492810Y-133090485D02*
X106445191Y-132947628D01*
X106445191Y-132947628D02*
X106445191Y-132709533D01*
X106445191Y-132709533D02*
X106492810Y-132566676D01*
X106492810Y-132566676D02*
X106588048Y-132471438D01*
X106588048Y-132471438D02*
X106730905Y-132423819D01*
X106730905Y-132423819D02*
X106921381Y-132423819D01*
X106921381Y-132423819D02*
X107064238Y-132471438D01*
X107064238Y-132471438D02*
X107159476Y-132566676D01*
X107159476Y-132566676D02*
X107207095Y-132709533D01*
X107207095Y-132709533D02*
X107207095Y-132947628D01*
X107207095Y-132947628D02*
X107159476Y-133090485D01*
X107159476Y-133090485D02*
X107064238Y-133185723D01*
X107064238Y-133185723D02*
X106969000Y-133233342D01*
X106969000Y-133233342D02*
X106969000Y-133423819D01*
X106969000Y-133423819D02*
X107207095Y-133423819D01*
X115987953Y-125184819D02*
X116607000Y-125184819D01*
X116607000Y-125184819D02*
X116273667Y-125565771D01*
X116273667Y-125565771D02*
X116416524Y-125565771D01*
X116416524Y-125565771D02*
X116511762Y-125613390D01*
X116511762Y-125613390D02*
X116559381Y-125661009D01*
X116559381Y-125661009D02*
X116607000Y-125756247D01*
X116607000Y-125756247D02*
X116607000Y-125994342D01*
X116607000Y-125994342D02*
X116559381Y-126089580D01*
X116559381Y-126089580D02*
X116511762Y-126137200D01*
X116511762Y-126137200D02*
X116416524Y-126184819D01*
X116416524Y-126184819D02*
X116130810Y-126184819D01*
X116130810Y-126184819D02*
X116035572Y-126137200D01*
X116035572Y-126137200D02*
X115987953Y-126089580D01*
X117035572Y-126089580D02*
X117083191Y-126137200D01*
X117083191Y-126137200D02*
X117035572Y-126184819D01*
X117035572Y-126184819D02*
X116987953Y-126137200D01*
X116987953Y-126137200D02*
X117035572Y-126089580D01*
X117035572Y-126089580D02*
X117035572Y-126184819D01*
X117416524Y-125184819D02*
X118035571Y-125184819D01*
X118035571Y-125184819D02*
X117702238Y-125565771D01*
X117702238Y-125565771D02*
X117845095Y-125565771D01*
X117845095Y-125565771D02*
X117940333Y-125613390D01*
X117940333Y-125613390D02*
X117987952Y-125661009D01*
X117987952Y-125661009D02*
X118035571Y-125756247D01*
X118035571Y-125756247D02*
X118035571Y-125994342D01*
X118035571Y-125994342D02*
X117987952Y-126089580D01*
X117987952Y-126089580D02*
X117940333Y-126137200D01*
X117940333Y-126137200D02*
X117845095Y-126184819D01*
X117845095Y-126184819D02*
X117559381Y-126184819D01*
X117559381Y-126184819D02*
X117464143Y-126137200D01*
X117464143Y-126137200D02*
X117416524Y-126089580D01*
X118416524Y-126184819D02*
X118654619Y-126184819D01*
X118654619Y-126184819D02*
X118654619Y-125994342D01*
X118654619Y-125994342D02*
X118559381Y-125946723D01*
X118559381Y-125946723D02*
X118464143Y-125851485D01*
X118464143Y-125851485D02*
X118416524Y-125708628D01*
X118416524Y-125708628D02*
X118416524Y-125470533D01*
X118416524Y-125470533D02*
X118464143Y-125327676D01*
X118464143Y-125327676D02*
X118559381Y-125232438D01*
X118559381Y-125232438D02*
X118702238Y-125184819D01*
X118702238Y-125184819D02*
X118892714Y-125184819D01*
X118892714Y-125184819D02*
X119035571Y-125232438D01*
X119035571Y-125232438D02*
X119130809Y-125327676D01*
X119130809Y-125327676D02*
X119178428Y-125470533D01*
X119178428Y-125470533D02*
X119178428Y-125708628D01*
X119178428Y-125708628D02*
X119130809Y-125851485D01*
X119130809Y-125851485D02*
X119035571Y-125946723D01*
X119035571Y-125946723D02*
X118940333Y-125994342D01*
X118940333Y-125994342D02*
X118940333Y-126184819D01*
X118940333Y-126184819D02*
X119178428Y-126184819D01*
X28837057Y-105973285D02*
X28789438Y-105925666D01*
X28789438Y-105925666D02*
X28741819Y-105830428D01*
X28741819Y-105830428D02*
X28741819Y-105592333D01*
X28741819Y-105592333D02*
X28789438Y-105497095D01*
X28789438Y-105497095D02*
X28837057Y-105449476D01*
X28837057Y-105449476D02*
X28932295Y-105401857D01*
X28932295Y-105401857D02*
X29027533Y-105401857D01*
X29027533Y-105401857D02*
X29170390Y-105449476D01*
X29170390Y-105449476D02*
X29741819Y-106020904D01*
X29741819Y-106020904D02*
X29741819Y-105401857D01*
X28741819Y-105068523D02*
X28741819Y-104401857D01*
X28741819Y-104401857D02*
X29741819Y-104830428D01*
X28741819Y-103830428D02*
X28741819Y-103735190D01*
X28741819Y-103735190D02*
X28789438Y-103639952D01*
X28789438Y-103639952D02*
X28837057Y-103592333D01*
X28837057Y-103592333D02*
X28932295Y-103544714D01*
X28932295Y-103544714D02*
X29122771Y-103497095D01*
X29122771Y-103497095D02*
X29360866Y-103497095D01*
X29360866Y-103497095D02*
X29551342Y-103544714D01*
X29551342Y-103544714D02*
X29646580Y-103592333D01*
X29646580Y-103592333D02*
X29694200Y-103639952D01*
X29694200Y-103639952D02*
X29741819Y-103735190D01*
X29741819Y-103735190D02*
X29741819Y-103830428D01*
X29741819Y-103830428D02*
X29694200Y-103925666D01*
X29694200Y-103925666D02*
X29646580Y-103973285D01*
X29646580Y-103973285D02*
X29551342Y-104020904D01*
X29551342Y-104020904D02*
X29360866Y-104068523D01*
X29360866Y-104068523D02*
X29122771Y-104068523D01*
X29122771Y-104068523D02*
X28932295Y-104020904D01*
X28932295Y-104020904D02*
X28837057Y-103973285D01*
X28837057Y-103973285D02*
X28789438Y-103925666D01*
X28789438Y-103925666D02*
X28741819Y-103830428D01*
X29741819Y-103068523D02*
X28741819Y-103068523D01*
X29360866Y-102973285D02*
X29741819Y-102687571D01*
X29075152Y-102687571D02*
X29456104Y-103068523D01*
X29741819Y-102306618D02*
X29741819Y-102068523D01*
X29741819Y-102068523D02*
X29551342Y-102068523D01*
X29551342Y-102068523D02*
X29503723Y-102163761D01*
X29503723Y-102163761D02*
X29408485Y-102258999D01*
X29408485Y-102258999D02*
X29265628Y-102306618D01*
X29265628Y-102306618D02*
X29027533Y-102306618D01*
X29027533Y-102306618D02*
X28884676Y-102258999D01*
X28884676Y-102258999D02*
X28789438Y-102163761D01*
X28789438Y-102163761D02*
X28741819Y-102020904D01*
X28741819Y-102020904D02*
X28741819Y-101830428D01*
X28741819Y-101830428D02*
X28789438Y-101687571D01*
X28789438Y-101687571D02*
X28884676Y-101592333D01*
X28884676Y-101592333D02*
X29027533Y-101544714D01*
X29027533Y-101544714D02*
X29265628Y-101544714D01*
X29265628Y-101544714D02*
X29408485Y-101592333D01*
X29408485Y-101592333D02*
X29503723Y-101687571D01*
X29503723Y-101687571D02*
X29551342Y-101782809D01*
X29551342Y-101782809D02*
X29741819Y-101782809D01*
X29741819Y-101782809D02*
X29741819Y-101544714D01*
X116845095Y-103451819D02*
X116273667Y-103451819D01*
X116559381Y-103451819D02*
X116559381Y-102451819D01*
X116559381Y-102451819D02*
X116464143Y-102594676D01*
X116464143Y-102594676D02*
X116368905Y-102689914D01*
X116368905Y-102689914D02*
X116273667Y-102737533D01*
X117464143Y-102451819D02*
X117559381Y-102451819D01*
X117559381Y-102451819D02*
X117654619Y-102499438D01*
X117654619Y-102499438D02*
X117702238Y-102547057D01*
X117702238Y-102547057D02*
X117749857Y-102642295D01*
X117749857Y-102642295D02*
X117797476Y-102832771D01*
X117797476Y-102832771D02*
X117797476Y-103070866D01*
X117797476Y-103070866D02*
X117749857Y-103261342D01*
X117749857Y-103261342D02*
X117702238Y-103356580D01*
X117702238Y-103356580D02*
X117654619Y-103404200D01*
X117654619Y-103404200D02*
X117559381Y-103451819D01*
X117559381Y-103451819D02*
X117464143Y-103451819D01*
X117464143Y-103451819D02*
X117368905Y-103404200D01*
X117368905Y-103404200D02*
X117321286Y-103356580D01*
X117321286Y-103356580D02*
X117273667Y-103261342D01*
X117273667Y-103261342D02*
X117226048Y-103070866D01*
X117226048Y-103070866D02*
X117226048Y-102832771D01*
X117226048Y-102832771D02*
X117273667Y-102642295D01*
X117273667Y-102642295D02*
X117321286Y-102547057D01*
X117321286Y-102547057D02*
X117368905Y-102499438D01*
X117368905Y-102499438D02*
X117464143Y-102451819D01*
X118178429Y-103451819D02*
X118416524Y-103451819D01*
X118416524Y-103451819D02*
X118416524Y-103261342D01*
X118416524Y-103261342D02*
X118321286Y-103213723D01*
X118321286Y-103213723D02*
X118226048Y-103118485D01*
X118226048Y-103118485D02*
X118178429Y-102975628D01*
X118178429Y-102975628D02*
X118178429Y-102737533D01*
X118178429Y-102737533D02*
X118226048Y-102594676D01*
X118226048Y-102594676D02*
X118321286Y-102499438D01*
X118321286Y-102499438D02*
X118464143Y-102451819D01*
X118464143Y-102451819D02*
X118654619Y-102451819D01*
X118654619Y-102451819D02*
X118797476Y-102499438D01*
X118797476Y-102499438D02*
X118892714Y-102594676D01*
X118892714Y-102594676D02*
X118940333Y-102737533D01*
X118940333Y-102737533D02*
X118940333Y-102975628D01*
X118940333Y-102975628D02*
X118892714Y-103118485D01*
X118892714Y-103118485D02*
X118797476Y-103213723D01*
X118797476Y-103213723D02*
X118702238Y-103261342D01*
X118702238Y-103261342D02*
X118702238Y-103451819D01*
X118702238Y-103451819D02*
X118940333Y-103451819D01*
D11*
X59390529Y-67439286D02*
X58782529Y-67439286D01*
X58782529Y-67439286D02*
X58782529Y-67294524D01*
X58782529Y-67294524D02*
X58811481Y-67207667D01*
X58811481Y-67207667D02*
X58869386Y-67149762D01*
X58869386Y-67149762D02*
X58927291Y-67120809D01*
X58927291Y-67120809D02*
X59043100Y-67091857D01*
X59043100Y-67091857D02*
X59129957Y-67091857D01*
X59129957Y-67091857D02*
X59245767Y-67120809D01*
X59245767Y-67120809D02*
X59303672Y-67149762D01*
X59303672Y-67149762D02*
X59361577Y-67207667D01*
X59361577Y-67207667D02*
X59390529Y-67294524D01*
X59390529Y-67294524D02*
X59390529Y-67439286D01*
X58782529Y-66889190D02*
X58782529Y-66483857D01*
X58782529Y-66483857D02*
X59390529Y-66889190D01*
X59390529Y-66889190D02*
X59390529Y-66483857D01*
X58782529Y-65991666D02*
X58782529Y-66107476D01*
X58782529Y-66107476D02*
X58811481Y-66165380D01*
X58811481Y-66165380D02*
X58840434Y-66194333D01*
X58840434Y-66194333D02*
X58927291Y-66252238D01*
X58927291Y-66252238D02*
X59043100Y-66281190D01*
X59043100Y-66281190D02*
X59274719Y-66281190D01*
X59274719Y-66281190D02*
X59332624Y-66252238D01*
X59332624Y-66252238D02*
X59361577Y-66223285D01*
X59361577Y-66223285D02*
X59390529Y-66165380D01*
X59390529Y-66165380D02*
X59390529Y-66049571D01*
X59390529Y-66049571D02*
X59361577Y-65991666D01*
X59361577Y-65991666D02*
X59332624Y-65962714D01*
X59332624Y-65962714D02*
X59274719Y-65933761D01*
X59274719Y-65933761D02*
X59129957Y-65933761D01*
X59129957Y-65933761D02*
X59072053Y-65962714D01*
X59072053Y-65962714D02*
X59043100Y-65991666D01*
X59043100Y-65991666D02*
X59014148Y-66049571D01*
X59014148Y-66049571D02*
X59014148Y-66165380D01*
X59014148Y-66165380D02*
X59043100Y-66223285D01*
X59043100Y-66223285D02*
X59072053Y-66252238D01*
X59072053Y-66252238D02*
X59129957Y-66281190D01*
X107088529Y-111999810D02*
X106480529Y-111999810D01*
X106480529Y-111999810D02*
X106480529Y-111855048D01*
X106480529Y-111855048D02*
X106509481Y-111768191D01*
X106509481Y-111768191D02*
X106567386Y-111710286D01*
X106567386Y-111710286D02*
X106625291Y-111681333D01*
X106625291Y-111681333D02*
X106741100Y-111652381D01*
X106741100Y-111652381D02*
X106827957Y-111652381D01*
X106827957Y-111652381D02*
X106943767Y-111681333D01*
X106943767Y-111681333D02*
X107001672Y-111710286D01*
X107001672Y-111710286D02*
X107059577Y-111768191D01*
X107059577Y-111768191D02*
X107088529Y-111855048D01*
X107088529Y-111855048D02*
X107088529Y-111999810D01*
X106480529Y-111449714D02*
X106480529Y-111044381D01*
X106480529Y-111044381D02*
X107088529Y-111449714D01*
X107088529Y-111449714D02*
X107088529Y-111044381D01*
X106538434Y-110841714D02*
X106509481Y-110812762D01*
X106509481Y-110812762D02*
X106480529Y-110754857D01*
X106480529Y-110754857D02*
X106480529Y-110610095D01*
X106480529Y-110610095D02*
X106509481Y-110552190D01*
X106509481Y-110552190D02*
X106538434Y-110523238D01*
X106538434Y-110523238D02*
X106596338Y-110494285D01*
X106596338Y-110494285D02*
X106654243Y-110494285D01*
X106654243Y-110494285D02*
X106741100Y-110523238D01*
X106741100Y-110523238D02*
X107088529Y-110870666D01*
X107088529Y-110870666D02*
X107088529Y-110494285D01*
X106480529Y-109973142D02*
X106480529Y-110088952D01*
X106480529Y-110088952D02*
X106509481Y-110146856D01*
X106509481Y-110146856D02*
X106538434Y-110175809D01*
X106538434Y-110175809D02*
X106625291Y-110233714D01*
X106625291Y-110233714D02*
X106741100Y-110262666D01*
X106741100Y-110262666D02*
X106972719Y-110262666D01*
X106972719Y-110262666D02*
X107030624Y-110233714D01*
X107030624Y-110233714D02*
X107059577Y-110204761D01*
X107059577Y-110204761D02*
X107088529Y-110146856D01*
X107088529Y-110146856D02*
X107088529Y-110031047D01*
X107088529Y-110031047D02*
X107059577Y-109973142D01*
X107059577Y-109973142D02*
X107030624Y-109944190D01*
X107030624Y-109944190D02*
X106972719Y-109915237D01*
X106972719Y-109915237D02*
X106827957Y-109915237D01*
X106827957Y-109915237D02*
X106770053Y-109944190D01*
X106770053Y-109944190D02*
X106741100Y-109973142D01*
X106741100Y-109973142D02*
X106712148Y-110031047D01*
X106712148Y-110031047D02*
X106712148Y-110146856D01*
X106712148Y-110146856D02*
X106741100Y-110204761D01*
X106741100Y-110204761D02*
X106770053Y-110233714D01*
X106770053Y-110233714D02*
X106827957Y-110262666D01*
D13*
X38159381Y-120628276D02*
X40445095Y-120628276D01*
X39302238Y-124628276D02*
X39302238Y-120628276D01*
X43492714Y-120628276D02*
X42730809Y-120628276D01*
X42730809Y-120628276D02*
X42349857Y-120818752D01*
X42349857Y-120818752D02*
X42159381Y-121009228D01*
X42159381Y-121009228D02*
X41778428Y-121580657D01*
X41778428Y-121580657D02*
X41587952Y-122342561D01*
X41587952Y-122342561D02*
X41587952Y-123866371D01*
X41587952Y-123866371D02*
X41778428Y-124247323D01*
X41778428Y-124247323D02*
X41968905Y-124437800D01*
X41968905Y-124437800D02*
X42349857Y-124628276D01*
X42349857Y-124628276D02*
X43111762Y-124628276D01*
X43111762Y-124628276D02*
X43492714Y-124437800D01*
X43492714Y-124437800D02*
X43683190Y-124247323D01*
X43683190Y-124247323D02*
X43873667Y-123866371D01*
X43873667Y-123866371D02*
X43873667Y-122913990D01*
X43873667Y-122913990D02*
X43683190Y-122533038D01*
X43683190Y-122533038D02*
X43492714Y-122342561D01*
X43492714Y-122342561D02*
X43111762Y-122152085D01*
X43111762Y-122152085D02*
X42349857Y-122152085D01*
X42349857Y-122152085D02*
X41968905Y-122342561D01*
X41968905Y-122342561D02*
X41778428Y-122533038D01*
X41778428Y-122533038D02*
X41587952Y-122913990D01*
D11*
X57099529Y-121519810D02*
X56491529Y-121519810D01*
X56491529Y-121519810D02*
X56491529Y-121375048D01*
X56491529Y-121375048D02*
X56520481Y-121288191D01*
X56520481Y-121288191D02*
X56578386Y-121230286D01*
X56578386Y-121230286D02*
X56636291Y-121201333D01*
X56636291Y-121201333D02*
X56752100Y-121172381D01*
X56752100Y-121172381D02*
X56838957Y-121172381D01*
X56838957Y-121172381D02*
X56954767Y-121201333D01*
X56954767Y-121201333D02*
X57012672Y-121230286D01*
X57012672Y-121230286D02*
X57070577Y-121288191D01*
X57070577Y-121288191D02*
X57099529Y-121375048D01*
X57099529Y-121375048D02*
X57099529Y-121519810D01*
X56491529Y-120969714D02*
X56491529Y-120564381D01*
X56491529Y-120564381D02*
X57099529Y-120969714D01*
X57099529Y-120969714D02*
X57099529Y-120564381D01*
X57099529Y-120014285D02*
X57099529Y-120361714D01*
X57099529Y-120188000D02*
X56491529Y-120188000D01*
X56491529Y-120188000D02*
X56578386Y-120245904D01*
X56578386Y-120245904D02*
X56636291Y-120303809D01*
X56636291Y-120303809D02*
X56665243Y-120361714D01*
X57099529Y-119435237D02*
X57099529Y-119782666D01*
X57099529Y-119608952D02*
X56491529Y-119608952D01*
X56491529Y-119608952D02*
X56578386Y-119666856D01*
X56578386Y-119666856D02*
X56636291Y-119724761D01*
X56636291Y-119724761D02*
X56665243Y-119782666D01*
D12*
X116845095Y-58239819D02*
X116273667Y-58239819D01*
X116559381Y-58239819D02*
X116559381Y-57239819D01*
X116559381Y-57239819D02*
X116464143Y-57382676D01*
X116464143Y-57382676D02*
X116368905Y-57477914D01*
X116368905Y-57477914D02*
X116273667Y-57525533D01*
X117464143Y-57239819D02*
X117559381Y-57239819D01*
X117559381Y-57239819D02*
X117654619Y-57287438D01*
X117654619Y-57287438D02*
X117702238Y-57335057D01*
X117702238Y-57335057D02*
X117749857Y-57430295D01*
X117749857Y-57430295D02*
X117797476Y-57620771D01*
X117797476Y-57620771D02*
X117797476Y-57858866D01*
X117797476Y-57858866D02*
X117749857Y-58049342D01*
X117749857Y-58049342D02*
X117702238Y-58144580D01*
X117702238Y-58144580D02*
X117654619Y-58192200D01*
X117654619Y-58192200D02*
X117559381Y-58239819D01*
X117559381Y-58239819D02*
X117464143Y-58239819D01*
X117464143Y-58239819D02*
X117368905Y-58192200D01*
X117368905Y-58192200D02*
X117321286Y-58144580D01*
X117321286Y-58144580D02*
X117273667Y-58049342D01*
X117273667Y-58049342D02*
X117226048Y-57858866D01*
X117226048Y-57858866D02*
X117226048Y-57620771D01*
X117226048Y-57620771D02*
X117273667Y-57430295D01*
X117273667Y-57430295D02*
X117321286Y-57335057D01*
X117321286Y-57335057D02*
X117368905Y-57287438D01*
X117368905Y-57287438D02*
X117464143Y-57239819D01*
X118178429Y-58239819D02*
X118416524Y-58239819D01*
X118416524Y-58239819D02*
X118416524Y-58049342D01*
X118416524Y-58049342D02*
X118321286Y-58001723D01*
X118321286Y-58001723D02*
X118226048Y-57906485D01*
X118226048Y-57906485D02*
X118178429Y-57763628D01*
X118178429Y-57763628D02*
X118178429Y-57525533D01*
X118178429Y-57525533D02*
X118226048Y-57382676D01*
X118226048Y-57382676D02*
X118321286Y-57287438D01*
X118321286Y-57287438D02*
X118464143Y-57239819D01*
X118464143Y-57239819D02*
X118654619Y-57239819D01*
X118654619Y-57239819D02*
X118797476Y-57287438D01*
X118797476Y-57287438D02*
X118892714Y-57382676D01*
X118892714Y-57382676D02*
X118940333Y-57525533D01*
X118940333Y-57525533D02*
X118940333Y-57763628D01*
X118940333Y-57763628D02*
X118892714Y-57906485D01*
X118892714Y-57906485D02*
X118797476Y-58001723D01*
X118797476Y-58001723D02*
X118702238Y-58049342D01*
X118702238Y-58049342D02*
X118702238Y-58239819D01*
X118702238Y-58239819D02*
X118940333Y-58239819D01*
X29741819Y-69841857D02*
X29741819Y-70413285D01*
X29741819Y-70127571D02*
X28741819Y-70127571D01*
X28741819Y-70127571D02*
X28884676Y-70222809D01*
X28884676Y-70222809D02*
X28979914Y-70318047D01*
X28979914Y-70318047D02*
X29027533Y-70413285D01*
X28741819Y-68937095D02*
X28741819Y-69413285D01*
X28741819Y-69413285D02*
X29218009Y-69460904D01*
X29218009Y-69460904D02*
X29170390Y-69413285D01*
X29170390Y-69413285D02*
X29122771Y-69318047D01*
X29122771Y-69318047D02*
X29122771Y-69079952D01*
X29122771Y-69079952D02*
X29170390Y-68984714D01*
X29170390Y-68984714D02*
X29218009Y-68937095D01*
X29218009Y-68937095D02*
X29313247Y-68889476D01*
X29313247Y-68889476D02*
X29551342Y-68889476D01*
X29551342Y-68889476D02*
X29646580Y-68937095D01*
X29646580Y-68937095D02*
X29694200Y-68984714D01*
X29694200Y-68984714D02*
X29741819Y-69079952D01*
X29741819Y-69079952D02*
X29741819Y-69318047D01*
X29741819Y-69318047D02*
X29694200Y-69413285D01*
X29694200Y-69413285D02*
X29646580Y-69460904D01*
X28741819Y-68270428D02*
X28741819Y-68175190D01*
X28741819Y-68175190D02*
X28789438Y-68079952D01*
X28789438Y-68079952D02*
X28837057Y-68032333D01*
X28837057Y-68032333D02*
X28932295Y-67984714D01*
X28932295Y-67984714D02*
X29122771Y-67937095D01*
X29122771Y-67937095D02*
X29360866Y-67937095D01*
X29360866Y-67937095D02*
X29551342Y-67984714D01*
X29551342Y-67984714D02*
X29646580Y-68032333D01*
X29646580Y-68032333D02*
X29694200Y-68079952D01*
X29694200Y-68079952D02*
X29741819Y-68175190D01*
X29741819Y-68175190D02*
X29741819Y-68270428D01*
X29741819Y-68270428D02*
X29694200Y-68365666D01*
X29694200Y-68365666D02*
X29646580Y-68413285D01*
X29646580Y-68413285D02*
X29551342Y-68460904D01*
X29551342Y-68460904D02*
X29360866Y-68508523D01*
X29360866Y-68508523D02*
X29122771Y-68508523D01*
X29122771Y-68508523D02*
X28932295Y-68460904D01*
X28932295Y-68460904D02*
X28837057Y-68413285D01*
X28837057Y-68413285D02*
X28789438Y-68365666D01*
X28789438Y-68365666D02*
X28741819Y-68270428D01*
X29741819Y-67508523D02*
X28741819Y-67508523D01*
X29360866Y-67413285D02*
X29741819Y-67127571D01*
X29075152Y-67127571D02*
X29456104Y-67508523D01*
X29741819Y-66746618D02*
X29741819Y-66508523D01*
X29741819Y-66508523D02*
X29551342Y-66508523D01*
X29551342Y-66508523D02*
X29503723Y-66603761D01*
X29503723Y-66603761D02*
X29408485Y-66698999D01*
X29408485Y-66698999D02*
X29265628Y-66746618D01*
X29265628Y-66746618D02*
X29027533Y-66746618D01*
X29027533Y-66746618D02*
X28884676Y-66698999D01*
X28884676Y-66698999D02*
X28789438Y-66603761D01*
X28789438Y-66603761D02*
X28741819Y-66460904D01*
X28741819Y-66460904D02*
X28741819Y-66270428D01*
X28741819Y-66270428D02*
X28789438Y-66127571D01*
X28789438Y-66127571D02*
X28884676Y-66032333D01*
X28884676Y-66032333D02*
X29027533Y-65984714D01*
X29027533Y-65984714D02*
X29265628Y-65984714D01*
X29265628Y-65984714D02*
X29408485Y-66032333D01*
X29408485Y-66032333D02*
X29503723Y-66127571D01*
X29503723Y-66127571D02*
X29551342Y-66222809D01*
X29551342Y-66222809D02*
X29741819Y-66222809D01*
X29741819Y-66222809D02*
X29741819Y-65984714D01*
D11*
X104802529Y-66331810D02*
X104194529Y-66331810D01*
X104194529Y-66331810D02*
X104194529Y-66187048D01*
X104194529Y-66187048D02*
X104223481Y-66100191D01*
X104223481Y-66100191D02*
X104281386Y-66042286D01*
X104281386Y-66042286D02*
X104339291Y-66013333D01*
X104339291Y-66013333D02*
X104455100Y-65984381D01*
X104455100Y-65984381D02*
X104541957Y-65984381D01*
X104541957Y-65984381D02*
X104657767Y-66013333D01*
X104657767Y-66013333D02*
X104715672Y-66042286D01*
X104715672Y-66042286D02*
X104773577Y-66100191D01*
X104773577Y-66100191D02*
X104802529Y-66187048D01*
X104802529Y-66187048D02*
X104802529Y-66331810D01*
X104194529Y-65781714D02*
X104194529Y-65376381D01*
X104194529Y-65376381D02*
X104802529Y-65781714D01*
X104802529Y-65781714D02*
X104802529Y-65376381D01*
X104802529Y-64826285D02*
X104802529Y-65173714D01*
X104802529Y-65000000D02*
X104194529Y-65000000D01*
X104194529Y-65000000D02*
X104281386Y-65057904D01*
X104281386Y-65057904D02*
X104339291Y-65115809D01*
X104339291Y-65115809D02*
X104368243Y-65173714D01*
X104194529Y-64623618D02*
X104194529Y-64218285D01*
X104194529Y-64218285D02*
X104802529Y-64478856D01*
X57104529Y-103455286D02*
X56496529Y-103455286D01*
X56496529Y-103455286D02*
X56496529Y-103310524D01*
X56496529Y-103310524D02*
X56525481Y-103223667D01*
X56525481Y-103223667D02*
X56583386Y-103165762D01*
X56583386Y-103165762D02*
X56641291Y-103136809D01*
X56641291Y-103136809D02*
X56757100Y-103107857D01*
X56757100Y-103107857D02*
X56843957Y-103107857D01*
X56843957Y-103107857D02*
X56959767Y-103136809D01*
X56959767Y-103136809D02*
X57017672Y-103165762D01*
X57017672Y-103165762D02*
X57075577Y-103223667D01*
X57075577Y-103223667D02*
X57104529Y-103310524D01*
X57104529Y-103310524D02*
X57104529Y-103455286D01*
X56496529Y-102905190D02*
X56496529Y-102499857D01*
X56496529Y-102499857D02*
X57104529Y-102905190D01*
X57104529Y-102905190D02*
X57104529Y-102499857D01*
X57104529Y-102239285D02*
X57104529Y-102123476D01*
X57104529Y-102123476D02*
X57075577Y-102065571D01*
X57075577Y-102065571D02*
X57046624Y-102036619D01*
X57046624Y-102036619D02*
X56959767Y-101978714D01*
X56959767Y-101978714D02*
X56843957Y-101949761D01*
X56843957Y-101949761D02*
X56612338Y-101949761D01*
X56612338Y-101949761D02*
X56554434Y-101978714D01*
X56554434Y-101978714D02*
X56525481Y-102007666D01*
X56525481Y-102007666D02*
X56496529Y-102065571D01*
X56496529Y-102065571D02*
X56496529Y-102181380D01*
X56496529Y-102181380D02*
X56525481Y-102239285D01*
X56525481Y-102239285D02*
X56554434Y-102268238D01*
X56554434Y-102268238D02*
X56612338Y-102297190D01*
X56612338Y-102297190D02*
X56757100Y-102297190D01*
X56757100Y-102297190D02*
X56815005Y-102268238D01*
X56815005Y-102268238D02*
X56843957Y-102239285D01*
X56843957Y-102239285D02*
X56872910Y-102181380D01*
X56872910Y-102181380D02*
X56872910Y-102065571D01*
X56872910Y-102065571D02*
X56843957Y-102007666D01*
X56843957Y-102007666D02*
X56815005Y-101978714D01*
X56815005Y-101978714D02*
X56757100Y-101949761D01*
X57104529Y-32335286D02*
X56496529Y-32335286D01*
X56496529Y-32335286D02*
X56496529Y-32190524D01*
X56496529Y-32190524D02*
X56525481Y-32103667D01*
X56525481Y-32103667D02*
X56583386Y-32045762D01*
X56583386Y-32045762D02*
X56641291Y-32016809D01*
X56641291Y-32016809D02*
X56757100Y-31987857D01*
X56757100Y-31987857D02*
X56843957Y-31987857D01*
X56843957Y-31987857D02*
X56959767Y-32016809D01*
X56959767Y-32016809D02*
X57017672Y-32045762D01*
X57017672Y-32045762D02*
X57075577Y-32103667D01*
X57075577Y-32103667D02*
X57104529Y-32190524D01*
X57104529Y-32190524D02*
X57104529Y-32335286D01*
X56496529Y-31785190D02*
X56496529Y-31379857D01*
X56496529Y-31379857D02*
X57104529Y-31785190D01*
X57104529Y-31785190D02*
X57104529Y-31379857D01*
X57104529Y-30829761D02*
X57104529Y-31177190D01*
X57104529Y-31003476D02*
X56496529Y-31003476D01*
X56496529Y-31003476D02*
X56583386Y-31061380D01*
X56583386Y-31061380D02*
X56641291Y-31119285D01*
X56641291Y-31119285D02*
X56670243Y-31177190D01*
D12*
X116845095Y-106753819D02*
X116273667Y-106753819D01*
X116559381Y-106753819D02*
X116559381Y-105753819D01*
X116559381Y-105753819D02*
X116464143Y-105896676D01*
X116464143Y-105896676D02*
X116368905Y-105991914D01*
X116368905Y-105991914D02*
X116273667Y-106039533D01*
X117749857Y-105753819D02*
X117273667Y-105753819D01*
X117273667Y-105753819D02*
X117226048Y-106230009D01*
X117226048Y-106230009D02*
X117273667Y-106182390D01*
X117273667Y-106182390D02*
X117368905Y-106134771D01*
X117368905Y-106134771D02*
X117607000Y-106134771D01*
X117607000Y-106134771D02*
X117702238Y-106182390D01*
X117702238Y-106182390D02*
X117749857Y-106230009D01*
X117749857Y-106230009D02*
X117797476Y-106325247D01*
X117797476Y-106325247D02*
X117797476Y-106563342D01*
X117797476Y-106563342D02*
X117749857Y-106658580D01*
X117749857Y-106658580D02*
X117702238Y-106706200D01*
X117702238Y-106706200D02*
X117607000Y-106753819D01*
X117607000Y-106753819D02*
X117368905Y-106753819D01*
X117368905Y-106753819D02*
X117273667Y-106706200D01*
X117273667Y-106706200D02*
X117226048Y-106658580D01*
X118178429Y-106753819D02*
X118416524Y-106753819D01*
X118416524Y-106753819D02*
X118416524Y-106563342D01*
X118416524Y-106563342D02*
X118321286Y-106515723D01*
X118321286Y-106515723D02*
X118226048Y-106420485D01*
X118226048Y-106420485D02*
X118178429Y-106277628D01*
X118178429Y-106277628D02*
X118178429Y-106039533D01*
X118178429Y-106039533D02*
X118226048Y-105896676D01*
X118226048Y-105896676D02*
X118321286Y-105801438D01*
X118321286Y-105801438D02*
X118464143Y-105753819D01*
X118464143Y-105753819D02*
X118654619Y-105753819D01*
X118654619Y-105753819D02*
X118797476Y-105801438D01*
X118797476Y-105801438D02*
X118892714Y-105896676D01*
X118892714Y-105896676D02*
X118940333Y-106039533D01*
X118940333Y-106039533D02*
X118940333Y-106277628D01*
X118940333Y-106277628D02*
X118892714Y-106420485D01*
X118892714Y-106420485D02*
X118797476Y-106515723D01*
X118797476Y-106515723D02*
X118702238Y-106563342D01*
X118702238Y-106563342D02*
X118702238Y-106753819D01*
X118702238Y-106753819D02*
X118940333Y-106753819D01*
D14*
%TO.C,ESP32-S3_FRONT1*%
X69087000Y-105029000D02*
X69087000Y-51629000D01*
X69087000Y-107629000D02*
X69087000Y-106299000D01*
X70417000Y-107629000D02*
X69087000Y-107629000D01*
X71747000Y-51629000D02*
X69087000Y-51629000D01*
X71747000Y-105029000D02*
X69087000Y-105029000D01*
X71747000Y-105029000D02*
X71747000Y-51629000D01*
%TO.C,N  C*%
X83117000Y-26162000D02*
X83117000Y-33782000D01*
X83117000Y-27432000D02*
X93277000Y-27432000D01*
X83117000Y-33782000D02*
X93277000Y-33782000D01*
X93277000Y-26162000D02*
X83117000Y-26162000D01*
X93277000Y-33782000D02*
X93277000Y-26162000D01*
%TO.C,DZ14*%
X106812000Y-45619000D02*
X106812000Y-44439000D01*
X105892000Y-44439000D02*
X107732000Y-44439000D01*
X107732000Y-44439000D02*
X107732000Y-41159000D01*
X107732000Y-41855000D02*
X105892000Y-41855000D01*
X107732000Y-41735000D02*
X105892000Y-41735000D01*
X107732000Y-41615000D02*
X105892000Y-41615000D01*
X105892000Y-41159000D02*
X105892000Y-44439000D01*
X107732000Y-41159000D02*
X105892000Y-41159000D01*
X106812000Y-39979000D02*
X106812000Y-41159000D01*
%TO.C,ESP32-S3_BACK1*%
X94487000Y-105029000D02*
X94487000Y-51629000D01*
X94487000Y-107629000D02*
X94487000Y-106299000D01*
X95817000Y-107629000D02*
X94487000Y-107629000D01*
X97147000Y-51629000D02*
X94487000Y-51629000D01*
X97147000Y-105029000D02*
X94487000Y-105029000D01*
X97147000Y-105029000D02*
X97147000Y-51629000D01*
%TO.C,R11*%
X29269000Y-117499000D02*
X29269000Y-118269000D01*
X30639000Y-118269000D02*
X27899000Y-118269000D01*
X27899000Y-118269000D02*
X27899000Y-124809000D01*
X30639000Y-124809000D02*
X30639000Y-118269000D01*
X27899000Y-124809000D02*
X30639000Y-124809000D01*
X29269000Y-125579000D02*
X29269000Y-124809000D01*
%TO.C,DZ18*%
X106812000Y-68352000D02*
X106812000Y-67172000D01*
X105892000Y-67172000D02*
X107732000Y-67172000D01*
X107732000Y-67172000D02*
X107732000Y-63892000D01*
X107732000Y-64588000D02*
X105892000Y-64588000D01*
X107732000Y-64468000D02*
X105892000Y-64468000D01*
X107732000Y-64348000D02*
X105892000Y-64348000D01*
X105892000Y-63892000D02*
X105892000Y-67172000D01*
X107732000Y-63892000D02*
X105892000Y-63892000D01*
X106812000Y-62712000D02*
X106812000Y-63892000D01*
%TO.C,DZ20*%
X106812000Y-73253000D02*
X106812000Y-74433000D01*
X107732000Y-74433000D02*
X105892000Y-74433000D01*
X105892000Y-74433000D02*
X105892000Y-77713000D01*
X105892000Y-77017000D02*
X107732000Y-77017000D01*
X105892000Y-77137000D02*
X107732000Y-77137000D01*
X105892000Y-77257000D02*
X107732000Y-77257000D01*
X107732000Y-77713000D02*
X107732000Y-74433000D01*
X105892000Y-77713000D02*
X107732000Y-77713000D01*
X106812000Y-78893000D02*
X106812000Y-77713000D01*
D10*
%TO.C,T4*%
X31187000Y-80849000D02*
G75*
G03*
X30987000Y-80849000I-100000J0D01*
G01*
X30987000Y-80849000D02*
G75*
G03*
X31187000Y-80849000I100000J0D01*
G01*
D15*
X50887000Y-95599000D02*
X31687000Y-95599000D01*
X50887000Y-78899000D02*
X50887000Y-95599000D01*
X31687000Y-95599000D02*
X31687000Y-78899000D01*
X31687000Y-78899000D02*
X50887000Y-78899000D01*
D14*
%TO.C,R23*%
X109528000Y-129794000D02*
X108758000Y-129794000D01*
X108758000Y-131164000D02*
X108758000Y-128424000D01*
X108758000Y-128424000D02*
X102218000Y-128424000D01*
X102218000Y-131164000D02*
X108758000Y-131164000D01*
X102218000Y-128424000D02*
X102218000Y-131164000D01*
X101448000Y-129794000D02*
X102218000Y-129794000D01*
%TO.C,Current N*%
X136621000Y-111029000D02*
X129001000Y-111029000D01*
X135351000Y-111029000D02*
X135351000Y-121189000D01*
X129001000Y-111029000D02*
X129001000Y-121189000D01*
X136621000Y-121189000D02*
X136621000Y-111029000D01*
X129001000Y-121189000D02*
X136621000Y-121189000D01*
%TO.C,DZ22*%
X106812000Y-90831000D02*
X106812000Y-89651000D01*
X105892000Y-89651000D02*
X107732000Y-89651000D01*
X107732000Y-89651000D02*
X107732000Y-86371000D01*
X107732000Y-87067000D02*
X105892000Y-87067000D01*
X107732000Y-86947000D02*
X105892000Y-86947000D01*
X107732000Y-86827000D02*
X105892000Y-86827000D01*
X105892000Y-86371000D02*
X105892000Y-89651000D01*
X107732000Y-86371000D02*
X105892000Y-86371000D01*
X106812000Y-85191000D02*
X106812000Y-86371000D01*
%TO.C,DZ25*%
X104526000Y-107924000D02*
X104526000Y-109104000D01*
X105446000Y-109104000D02*
X103606000Y-109104000D01*
X103606000Y-109104000D02*
X103606000Y-112384000D01*
X103606000Y-111688000D02*
X105446000Y-111688000D01*
X103606000Y-111808000D02*
X105446000Y-111808000D01*
X103606000Y-111928000D02*
X105446000Y-111928000D01*
X105446000Y-112384000D02*
X105446000Y-109104000D01*
X103606000Y-112384000D02*
X105446000Y-112384000D01*
X104526000Y-113564000D02*
X104526000Y-112384000D01*
%TO.C,R21*%
X65567000Y-129794000D02*
X64797000Y-129794000D01*
X64797000Y-131164000D02*
X64797000Y-128424000D01*
X64797000Y-128424000D02*
X58257000Y-128424000D01*
X58257000Y-131164000D02*
X64797000Y-131164000D01*
X58257000Y-128424000D02*
X58257000Y-131164000D01*
X57487000Y-129794000D02*
X58257000Y-129794000D01*
%TO.C,DZ19*%
X104526000Y-78893000D02*
X104526000Y-77713000D01*
X103606000Y-77713000D02*
X105446000Y-77713000D01*
X105446000Y-77713000D02*
X105446000Y-74433000D01*
X105446000Y-75129000D02*
X103606000Y-75129000D01*
X105446000Y-75009000D02*
X103606000Y-75009000D01*
X105446000Y-74889000D02*
X103606000Y-74889000D01*
X103606000Y-74433000D02*
X103606000Y-77713000D01*
X105446000Y-74433000D02*
X103606000Y-74433000D01*
X104526000Y-73253000D02*
X104526000Y-74433000D01*
%TO.C,DZ24*%
X106812000Y-95732000D02*
X106812000Y-96912000D01*
X107732000Y-96912000D02*
X105892000Y-96912000D01*
X105892000Y-96912000D02*
X105892000Y-100192000D01*
X105892000Y-99496000D02*
X107732000Y-99496000D01*
X105892000Y-99616000D02*
X107732000Y-99616000D01*
X105892000Y-99736000D02*
X107732000Y-99736000D01*
X107732000Y-100192000D02*
X107732000Y-96912000D01*
X105892000Y-100192000D02*
X107732000Y-100192000D01*
X106812000Y-101372000D02*
X106812000Y-100192000D01*
%TO.C,DZ2*%
X59114000Y-28549000D02*
X59114000Y-29729000D01*
X60034000Y-29729000D02*
X58194000Y-29729000D01*
X58194000Y-29729000D02*
X58194000Y-33009000D01*
X58194000Y-32313000D02*
X60034000Y-32313000D01*
X58194000Y-32433000D02*
X60034000Y-32433000D01*
X58194000Y-32553000D02*
X60034000Y-32553000D01*
X60034000Y-33009000D02*
X60034000Y-29729000D01*
X58194000Y-33009000D02*
X60034000Y-33009000D01*
X59114000Y-34189000D02*
X59114000Y-33009000D01*
%TO.C,K1*%
X109027000Y-40433000D02*
X128227000Y-40433000D01*
X109027000Y-55833000D02*
X109027000Y-40433000D01*
X112527000Y-43833000D02*
X112527000Y-46133000D01*
X112527000Y-52433000D02*
X112527000Y-50133000D01*
X115727000Y-48133000D02*
X111227000Y-50833000D01*
X117227000Y-44433000D02*
X124127000Y-44433000D01*
X117227000Y-48133000D02*
X115727000Y-48133000D01*
X117227000Y-48133000D02*
X117227000Y-44433000D01*
X118227000Y-46633000D02*
X123227000Y-46633000D01*
X118227000Y-46633000D02*
X123227000Y-49633000D01*
X118227000Y-49633000D02*
X118227000Y-46633000D01*
X120727000Y-46633000D02*
X120727000Y-42133000D01*
X120727000Y-54133000D02*
X120727000Y-49633000D01*
X120727000Y-54133000D02*
X123027000Y-54133000D01*
X123027000Y-42133000D02*
X120727000Y-42133000D01*
X123227000Y-46633000D02*
X123227000Y-49633000D01*
X123227000Y-49633000D02*
X118227000Y-49633000D01*
X124127000Y-48133000D02*
X124127000Y-44433000D01*
X124127000Y-48133000D02*
X125027000Y-48133000D01*
X128227000Y-46933000D02*
X128227000Y-40433000D01*
X128227000Y-55833000D02*
X109027000Y-55833000D01*
X128227000Y-55833000D02*
X128227000Y-49333000D01*
%TO.C,DZ7*%
X56828000Y-87529000D02*
X56828000Y-86349000D01*
X55908000Y-86349000D02*
X57748000Y-86349000D01*
X57748000Y-86349000D02*
X57748000Y-83069000D01*
X57748000Y-83765000D02*
X55908000Y-83765000D01*
X57748000Y-83645000D02*
X55908000Y-83645000D01*
X57748000Y-83525000D02*
X55908000Y-83525000D01*
X55908000Y-83069000D02*
X55908000Y-86349000D01*
X57748000Y-83069000D02*
X55908000Y-83069000D01*
X56828000Y-81889000D02*
X56828000Y-83069000D01*
%TO.C,DZ15*%
X104526000Y-56160000D02*
X104526000Y-54980000D01*
X103606000Y-54980000D02*
X105446000Y-54980000D01*
X105446000Y-54980000D02*
X105446000Y-51700000D01*
X105446000Y-52396000D02*
X103606000Y-52396000D01*
X105446000Y-52276000D02*
X103606000Y-52276000D01*
X105446000Y-52156000D02*
X103606000Y-52156000D01*
X103606000Y-51700000D02*
X103606000Y-54980000D01*
X105446000Y-51700000D02*
X103606000Y-51700000D01*
X104526000Y-50520000D02*
X104526000Y-51700000D01*
%TO.C,Current C*%
X136621000Y-88296000D02*
X129001000Y-88296000D01*
X135351000Y-88296000D02*
X135351000Y-98456000D01*
X129001000Y-88296000D02*
X129001000Y-98456000D01*
X136621000Y-98456000D02*
X136621000Y-88296000D01*
X129001000Y-98456000D02*
X136621000Y-98456000D01*
D10*
%TO.C,T2*%
X31177000Y-45289000D02*
G75*
G03*
X30977000Y-45289000I-100000J0D01*
G01*
X30977000Y-45289000D02*
G75*
G03*
X31177000Y-45289000I100000J0D01*
G01*
D15*
X50877000Y-60039000D02*
X31677000Y-60039000D01*
X50877000Y-43339000D02*
X50877000Y-60039000D01*
X31677000Y-60039000D02*
X31677000Y-43339000D01*
X31677000Y-43339000D02*
X50877000Y-43339000D01*
D10*
%TO.C,T3*%
X31187000Y-63069000D02*
G75*
G03*
X30987000Y-63069000I-100000J0D01*
G01*
X30987000Y-63069000D02*
G75*
G03*
X31187000Y-63069000I100000J0D01*
G01*
D15*
X50887000Y-77819000D02*
X31687000Y-77819000D01*
X50887000Y-61119000D02*
X50887000Y-77819000D01*
X31687000Y-77819000D02*
X31687000Y-61119000D01*
X31687000Y-61119000D02*
X50887000Y-61119000D01*
D14*
%TO.C,Current B*%
X136621000Y-65690000D02*
X129001000Y-65690000D01*
X135351000Y-65690000D02*
X135351000Y-75850000D01*
X129001000Y-65690000D02*
X129001000Y-75850000D01*
X136621000Y-75850000D02*
X136621000Y-65690000D01*
X129001000Y-75850000D02*
X136621000Y-75850000D01*
%TO.C,DZ13*%
X104526000Y-39979000D02*
X104526000Y-41159000D01*
X105446000Y-41159000D02*
X103606000Y-41159000D01*
X103606000Y-41159000D02*
X103606000Y-44439000D01*
X103606000Y-43743000D02*
X105446000Y-43743000D01*
X103606000Y-43863000D02*
X105446000Y-43863000D01*
X103606000Y-43983000D02*
X105446000Y-43983000D01*
X105446000Y-44439000D02*
X105446000Y-41159000D01*
X103606000Y-44439000D02*
X105446000Y-44439000D01*
X104526000Y-45619000D02*
X104526000Y-44439000D01*
%TO.C,R17*%
X113567000Y-83693000D02*
X114337000Y-83693000D01*
X114337000Y-82323000D02*
X114337000Y-85063000D01*
X114337000Y-85063000D02*
X120877000Y-85063000D01*
X120877000Y-82323000D02*
X114337000Y-82323000D01*
X120877000Y-85063000D02*
X120877000Y-82323000D01*
X121647000Y-83693000D02*
X120877000Y-83693000D01*
%TO.C,R7*%
X29287000Y-81939000D02*
X29287000Y-82709000D01*
X30657000Y-82709000D02*
X27917000Y-82709000D01*
X27917000Y-82709000D02*
X27917000Y-89249000D01*
X30657000Y-89249000D02*
X30657000Y-82709000D01*
X27917000Y-89249000D02*
X30657000Y-89249000D01*
X29287000Y-90019000D02*
X29287000Y-89249000D01*
%TO.C,Current Level*%
X85642000Y-122774000D02*
X80502000Y-122774000D01*
X85642000Y-122774000D02*
X85642000Y-125434000D01*
X80502000Y-122774000D02*
X80502000Y-125434000D01*
X88242000Y-124104000D02*
X88242000Y-125434000D01*
X88242000Y-125434000D02*
X86912000Y-125434000D01*
X85642000Y-125434000D02*
X80502000Y-125434000D01*
%TO.C,Current A*%
X136621000Y-43084000D02*
X129001000Y-43084000D01*
X135351000Y-43084000D02*
X135351000Y-53244000D01*
X129001000Y-43084000D02*
X129001000Y-53244000D01*
X136621000Y-53244000D02*
X136621000Y-43084000D01*
X129001000Y-53244000D02*
X136621000Y-53244000D01*
%TO.C,R12*%
X53272000Y-117499000D02*
X53272000Y-118269000D01*
X54642000Y-118269000D02*
X51902000Y-118269000D01*
X51902000Y-118269000D02*
X51902000Y-124809000D01*
X54642000Y-124809000D02*
X54642000Y-118269000D01*
X51902000Y-124809000D02*
X54642000Y-124809000D01*
X53272000Y-125579000D02*
X53272000Y-124809000D01*
%TO.C,R15*%
X113567000Y-61087000D02*
X114337000Y-61087000D01*
X114337000Y-59717000D02*
X114337000Y-62457000D01*
X114337000Y-62457000D02*
X120877000Y-62457000D01*
X120877000Y-59717000D02*
X114337000Y-59717000D01*
X120877000Y-62457000D02*
X120877000Y-59717000D01*
X121647000Y-61087000D02*
X120877000Y-61087000D01*
D10*
%TO.C,T1*%
X31187000Y-27509000D02*
G75*
G03*
X30987000Y-27509000I-100000J0D01*
G01*
X30987000Y-27509000D02*
G75*
G03*
X31187000Y-27509000I100000J0D01*
G01*
D15*
X50887000Y-42259000D02*
X31687000Y-42259000D01*
X50887000Y-25559000D02*
X50887000Y-42259000D01*
X31687000Y-42259000D02*
X31687000Y-25559000D01*
X31687000Y-25559000D02*
X50887000Y-25559000D01*
D14*
%TO.C,DZ10*%
X59114000Y-99669000D02*
X59114000Y-100849000D01*
X60034000Y-100849000D02*
X58194000Y-100849000D01*
X58194000Y-100849000D02*
X58194000Y-104129000D01*
X58194000Y-103433000D02*
X60034000Y-103433000D01*
X58194000Y-103553000D02*
X60034000Y-103553000D01*
X58194000Y-103673000D02*
X60034000Y-103673000D01*
X60034000Y-104129000D02*
X60034000Y-100849000D01*
X58194000Y-104129000D02*
X60034000Y-104129000D01*
X59114000Y-105309000D02*
X59114000Y-104129000D01*
%TO.C,R16*%
X121647000Y-80391000D02*
X120877000Y-80391000D01*
X120877000Y-81761000D02*
X120877000Y-79021000D01*
X120877000Y-79021000D02*
X114337000Y-79021000D01*
X114337000Y-81761000D02*
X120877000Y-81761000D01*
X114337000Y-79021000D02*
X114337000Y-81761000D01*
X113567000Y-80391000D02*
X114337000Y-80391000D01*
%TO.C,R6*%
X53272000Y-64159000D02*
X53272000Y-64929000D01*
X54642000Y-64929000D02*
X51902000Y-64929000D01*
X51902000Y-64929000D02*
X51902000Y-71469000D01*
X54642000Y-71469000D02*
X54642000Y-64929000D01*
X51902000Y-71469000D02*
X54642000Y-71469000D01*
X53272000Y-72239000D02*
X53272000Y-71469000D01*
%TO.C,DZ27*%
X104526000Y-124105000D02*
X104526000Y-122925000D01*
X103606000Y-122925000D02*
X105446000Y-122925000D01*
X105446000Y-122925000D02*
X105446000Y-119645000D01*
X105446000Y-120341000D02*
X103606000Y-120341000D01*
X105446000Y-120221000D02*
X103606000Y-120221000D01*
X105446000Y-120101000D02*
X103606000Y-120101000D01*
X103606000Y-119645000D02*
X103606000Y-122925000D01*
X105446000Y-119645000D02*
X103606000Y-119645000D01*
X104526000Y-118465000D02*
X104526000Y-119645000D01*
%TO.C,DZ3*%
X56828000Y-51969000D02*
X56828000Y-50789000D01*
X55908000Y-50789000D02*
X57748000Y-50789000D01*
X57748000Y-50789000D02*
X57748000Y-47509000D01*
X57748000Y-48205000D02*
X55908000Y-48205000D01*
X57748000Y-48085000D02*
X55908000Y-48085000D01*
X57748000Y-47965000D02*
X55908000Y-47965000D01*
X55908000Y-47509000D02*
X55908000Y-50789000D01*
X57748000Y-47509000D02*
X55908000Y-47509000D01*
X56828000Y-46329000D02*
X56828000Y-47509000D01*
%TO.C,DZ8*%
X59114000Y-81889000D02*
X59114000Y-83069000D01*
X60034000Y-83069000D02*
X58194000Y-83069000D01*
X58194000Y-83069000D02*
X58194000Y-86349000D01*
X58194000Y-85653000D02*
X60034000Y-85653000D01*
X58194000Y-85773000D02*
X60034000Y-85773000D01*
X58194000Y-85893000D02*
X60034000Y-85893000D01*
X60034000Y-86349000D02*
X60034000Y-83069000D01*
X58194000Y-86349000D02*
X60034000Y-86349000D01*
X59114000Y-87529000D02*
X59114000Y-86349000D01*
%TO.C,K4*%
X109027000Y-108282000D02*
X128227000Y-108282000D01*
X109027000Y-123682000D02*
X109027000Y-108282000D01*
X112527000Y-111682000D02*
X112527000Y-113982000D01*
X112527000Y-120282000D02*
X112527000Y-117982000D01*
X115727000Y-115982000D02*
X111227000Y-118682000D01*
X117227000Y-112282000D02*
X124127000Y-112282000D01*
X117227000Y-115982000D02*
X115727000Y-115982000D01*
X117227000Y-115982000D02*
X117227000Y-112282000D01*
X118227000Y-114482000D02*
X123227000Y-114482000D01*
X118227000Y-114482000D02*
X123227000Y-117482000D01*
X118227000Y-117482000D02*
X118227000Y-114482000D01*
X120727000Y-114482000D02*
X120727000Y-109982000D01*
X120727000Y-121982000D02*
X120727000Y-117482000D01*
X120727000Y-121982000D02*
X123027000Y-121982000D01*
X123027000Y-109982000D02*
X120727000Y-109982000D01*
X123227000Y-114482000D02*
X123227000Y-117482000D01*
X123227000Y-117482000D02*
X118227000Y-117482000D01*
X124127000Y-115982000D02*
X124127000Y-112282000D01*
X124127000Y-115982000D02*
X125027000Y-115982000D01*
X128227000Y-114782000D02*
X128227000Y-108282000D01*
X128227000Y-123682000D02*
X109027000Y-123682000D01*
X128227000Y-123682000D02*
X128227000Y-117182000D01*
%TO.C,R4*%
X53272000Y-46379000D02*
X53272000Y-47149000D01*
X54642000Y-47149000D02*
X51902000Y-47149000D01*
X51902000Y-47149000D02*
X51902000Y-53689000D01*
X54642000Y-53689000D02*
X54642000Y-47149000D01*
X51902000Y-53689000D02*
X54642000Y-53689000D01*
X53272000Y-54459000D02*
X53272000Y-53689000D01*
%TO.C,R10*%
X53272000Y-99719000D02*
X53272000Y-100489000D01*
X54642000Y-100489000D02*
X51902000Y-100489000D01*
X51902000Y-100489000D02*
X51902000Y-107029000D01*
X54642000Y-107029000D02*
X54642000Y-100489000D01*
X51902000Y-107029000D02*
X54642000Y-107029000D01*
X53272000Y-107799000D02*
X53272000Y-107029000D01*
%TO.C,DZ4*%
X59114000Y-46329000D02*
X59114000Y-47509000D01*
X60034000Y-47509000D02*
X58194000Y-47509000D01*
X58194000Y-47509000D02*
X58194000Y-50789000D01*
X58194000Y-50093000D02*
X60034000Y-50093000D01*
X58194000Y-50213000D02*
X60034000Y-50213000D01*
X58194000Y-50333000D02*
X60034000Y-50333000D01*
X60034000Y-50789000D02*
X60034000Y-47509000D01*
X58194000Y-50789000D02*
X60034000Y-50789000D01*
X59114000Y-51969000D02*
X59114000Y-50789000D01*
%TO.C,B  A*%
X72957000Y-26162000D02*
X72957000Y-33782000D01*
X72957000Y-27432000D02*
X83117000Y-27432000D01*
X72957000Y-33782000D02*
X83117000Y-33782000D01*
X83117000Y-26162000D02*
X72957000Y-26162000D01*
X83117000Y-33782000D02*
X83117000Y-26162000D01*
%TO.C,R22*%
X65567000Y-132969000D02*
X64797000Y-132969000D01*
X64797000Y-134339000D02*
X64797000Y-131599000D01*
X64797000Y-131599000D02*
X58257000Y-131599000D01*
X58257000Y-134339000D02*
X64797000Y-134339000D01*
X58257000Y-131599000D02*
X58257000Y-134339000D01*
X57487000Y-132969000D02*
X58257000Y-132969000D01*
%TO.C,R13*%
X113567000Y-38481000D02*
X114337000Y-38481000D01*
X114337000Y-37111000D02*
X114337000Y-39851000D01*
X114337000Y-39851000D02*
X120877000Y-39851000D01*
X120877000Y-37111000D02*
X114337000Y-37111000D01*
X120877000Y-39851000D02*
X120877000Y-37111000D01*
X121647000Y-38481000D02*
X120877000Y-38481000D01*
%TO.C,R1*%
X29287000Y-28599000D02*
X29287000Y-29369000D01*
X30657000Y-29369000D02*
X27917000Y-29369000D01*
X27917000Y-29369000D02*
X27917000Y-35909000D01*
X30657000Y-35909000D02*
X30657000Y-29369000D01*
X27917000Y-35909000D02*
X30657000Y-35909000D01*
X29287000Y-36679000D02*
X29287000Y-35909000D01*
%TO.C,DZ12*%
X59114000Y-117449000D02*
X59114000Y-118629000D01*
X60034000Y-118629000D02*
X58194000Y-118629000D01*
X58194000Y-118629000D02*
X58194000Y-121909000D01*
X58194000Y-121213000D02*
X60034000Y-121213000D01*
X58194000Y-121333000D02*
X60034000Y-121333000D01*
X58194000Y-121453000D02*
X60034000Y-121453000D01*
X60034000Y-121909000D02*
X60034000Y-118629000D01*
X58194000Y-121909000D02*
X60034000Y-121909000D01*
X59114000Y-123089000D02*
X59114000Y-121909000D01*
%TO.C,DZ16*%
X106812000Y-50520000D02*
X106812000Y-51700000D01*
X107732000Y-51700000D02*
X105892000Y-51700000D01*
X105892000Y-51700000D02*
X105892000Y-54980000D01*
X105892000Y-54284000D02*
X107732000Y-54284000D01*
X105892000Y-54404000D02*
X107732000Y-54404000D01*
X105892000Y-54524000D02*
X107732000Y-54524000D01*
X107732000Y-54980000D02*
X107732000Y-51700000D01*
X105892000Y-54980000D02*
X107732000Y-54980000D01*
X106812000Y-56160000D02*
X106812000Y-54980000D01*
%TO.C,K2*%
X109027000Y-63039000D02*
X128227000Y-63039000D01*
X109027000Y-78439000D02*
X109027000Y-63039000D01*
X112527000Y-66439000D02*
X112527000Y-68739000D01*
X112527000Y-75039000D02*
X112527000Y-72739000D01*
X115727000Y-70739000D02*
X111227000Y-73439000D01*
X117227000Y-67039000D02*
X124127000Y-67039000D01*
X117227000Y-70739000D02*
X115727000Y-70739000D01*
X117227000Y-70739000D02*
X117227000Y-67039000D01*
X118227000Y-69239000D02*
X123227000Y-69239000D01*
X118227000Y-69239000D02*
X123227000Y-72239000D01*
X118227000Y-72239000D02*
X118227000Y-69239000D01*
X120727000Y-69239000D02*
X120727000Y-64739000D01*
X120727000Y-76739000D02*
X120727000Y-72239000D01*
X120727000Y-76739000D02*
X123027000Y-76739000D01*
X123027000Y-64739000D02*
X120727000Y-64739000D01*
X123227000Y-69239000D02*
X123227000Y-72239000D01*
X123227000Y-72239000D02*
X118227000Y-72239000D01*
X124127000Y-70739000D02*
X124127000Y-67039000D01*
X124127000Y-70739000D02*
X125027000Y-70739000D01*
X128227000Y-69539000D02*
X128227000Y-63039000D01*
X128227000Y-78439000D02*
X109027000Y-78439000D01*
X128227000Y-78439000D02*
X128227000Y-71939000D01*
%TO.C,DZ28*%
X106812000Y-118465000D02*
X106812000Y-119645000D01*
X107732000Y-119645000D02*
X105892000Y-119645000D01*
X105892000Y-119645000D02*
X105892000Y-122925000D01*
X105892000Y-122229000D02*
X107732000Y-122229000D01*
X105892000Y-122349000D02*
X107732000Y-122349000D01*
X105892000Y-122469000D02*
X107732000Y-122469000D01*
X107732000Y-122925000D02*
X107732000Y-119645000D01*
X105892000Y-122925000D02*
X107732000Y-122925000D01*
X106812000Y-124105000D02*
X106812000Y-122925000D01*
%TO.C,R2*%
X53272000Y-28599000D02*
X53272000Y-29369000D01*
X54642000Y-29369000D02*
X51902000Y-29369000D01*
X51902000Y-29369000D02*
X51902000Y-35909000D01*
X54642000Y-35909000D02*
X54642000Y-29369000D01*
X51902000Y-35909000D02*
X54642000Y-35909000D01*
X53272000Y-36679000D02*
X53272000Y-35909000D01*
%TO.C,DZ23*%
X104526000Y-101372000D02*
X104526000Y-100192000D01*
X103606000Y-100192000D02*
X105446000Y-100192000D01*
X105446000Y-100192000D02*
X105446000Y-96912000D01*
X105446000Y-97608000D02*
X103606000Y-97608000D01*
X105446000Y-97488000D02*
X103606000Y-97488000D01*
X105446000Y-97368000D02*
X103606000Y-97368000D01*
X103606000Y-96912000D02*
X103606000Y-100192000D01*
X105446000Y-96912000D02*
X103606000Y-96912000D01*
X104526000Y-95732000D02*
X104526000Y-96912000D01*
%TO.C,K3*%
X109027000Y-85645000D02*
X128227000Y-85645000D01*
X109027000Y-101045000D02*
X109027000Y-85645000D01*
X112527000Y-89045000D02*
X112527000Y-91345000D01*
X112527000Y-97645000D02*
X112527000Y-95345000D01*
X115727000Y-93345000D02*
X111227000Y-96045000D01*
X117227000Y-89645000D02*
X124127000Y-89645000D01*
X117227000Y-93345000D02*
X115727000Y-93345000D01*
X117227000Y-93345000D02*
X117227000Y-89645000D01*
X118227000Y-91845000D02*
X123227000Y-91845000D01*
X118227000Y-91845000D02*
X123227000Y-94845000D01*
X118227000Y-94845000D02*
X118227000Y-91845000D01*
X120727000Y-91845000D02*
X120727000Y-87345000D01*
X120727000Y-99345000D02*
X120727000Y-94845000D01*
X120727000Y-99345000D02*
X123027000Y-99345000D01*
X123027000Y-87345000D02*
X120727000Y-87345000D01*
X123227000Y-91845000D02*
X123227000Y-94845000D01*
X123227000Y-94845000D02*
X118227000Y-94845000D01*
X124127000Y-93345000D02*
X124127000Y-89645000D01*
X124127000Y-93345000D02*
X125027000Y-93345000D01*
X128227000Y-92145000D02*
X128227000Y-85645000D01*
X128227000Y-101045000D02*
X109027000Y-101045000D01*
X128227000Y-101045000D02*
X128227000Y-94545000D01*
%TO.C,R3*%
X29287000Y-46379000D02*
X29287000Y-47149000D01*
X30657000Y-47149000D02*
X27917000Y-47149000D01*
X27917000Y-47149000D02*
X27917000Y-53689000D01*
X30657000Y-53689000D02*
X30657000Y-47149000D01*
X27917000Y-53689000D02*
X30657000Y-53689000D01*
X29287000Y-54459000D02*
X29287000Y-53689000D01*
%TO.C,DZ21*%
X104526000Y-85191000D02*
X104526000Y-86371000D01*
X105446000Y-86371000D02*
X103606000Y-86371000D01*
X103606000Y-86371000D02*
X103606000Y-89651000D01*
X103606000Y-88955000D02*
X105446000Y-88955000D01*
X103606000Y-89075000D02*
X105446000Y-89075000D01*
X103606000Y-89195000D02*
X105446000Y-89195000D01*
X105446000Y-89651000D02*
X105446000Y-86371000D01*
X103606000Y-89651000D02*
X105446000Y-89651000D01*
X104526000Y-90831000D02*
X104526000Y-89651000D01*
%TO.C,DZ5*%
X56828000Y-69739000D02*
X56828000Y-68559000D01*
X55908000Y-68559000D02*
X57748000Y-68559000D01*
X57748000Y-68559000D02*
X57748000Y-65279000D01*
X57748000Y-65975000D02*
X55908000Y-65975000D01*
X57748000Y-65855000D02*
X55908000Y-65855000D01*
X57748000Y-65735000D02*
X55908000Y-65735000D01*
X55908000Y-65279000D02*
X55908000Y-68559000D01*
X57748000Y-65279000D02*
X55908000Y-65279000D01*
X56828000Y-64099000D02*
X56828000Y-65279000D01*
%TO.C,R8*%
X53272000Y-81939000D02*
X53272000Y-82709000D01*
X54642000Y-82709000D02*
X51902000Y-82709000D01*
X51902000Y-82709000D02*
X51902000Y-89249000D01*
X54642000Y-89249000D02*
X54642000Y-82709000D01*
X51902000Y-89249000D02*
X54642000Y-89249000D01*
X53272000Y-90019000D02*
X53272000Y-89249000D01*
D10*
%TO.C,T5*%
X31187000Y-98629000D02*
G75*
G03*
X30987000Y-98629000I-100000J0D01*
G01*
X30987000Y-98629000D02*
G75*
G03*
X31187000Y-98629000I100000J0D01*
G01*
D15*
X50887000Y-113379000D02*
X31687000Y-113379000D01*
X50887000Y-96679000D02*
X50887000Y-113379000D01*
X31687000Y-113379000D02*
X31687000Y-96679000D01*
X31687000Y-96679000D02*
X50887000Y-96679000D01*
D14*
%TO.C,R24*%
X109509000Y-132969000D02*
X108739000Y-132969000D01*
X108739000Y-134339000D02*
X108739000Y-131599000D01*
X108739000Y-131599000D02*
X102199000Y-131599000D01*
X102199000Y-134339000D02*
X108739000Y-134339000D01*
X102199000Y-131599000D02*
X102199000Y-134339000D01*
X101429000Y-132969000D02*
X102199000Y-132969000D01*
%TO.C,R20*%
X121647000Y-125730000D02*
X120877000Y-125730000D01*
X120877000Y-127100000D02*
X120877000Y-124360000D01*
X120877000Y-124360000D02*
X114337000Y-124360000D01*
X114337000Y-127100000D02*
X120877000Y-127100000D01*
X114337000Y-124360000D02*
X114337000Y-127100000D01*
X113567000Y-125730000D02*
X114337000Y-125730000D01*
%TO.C,R9*%
X29287000Y-99719000D02*
X29287000Y-100489000D01*
X30657000Y-100489000D02*
X27917000Y-100489000D01*
X27917000Y-100489000D02*
X27917000Y-107029000D01*
X30657000Y-107029000D02*
X30657000Y-100489000D01*
X27917000Y-107029000D02*
X30657000Y-107029000D01*
X29287000Y-107799000D02*
X29287000Y-107029000D01*
%TO.C,R18*%
X121647000Y-102997000D02*
X120877000Y-102997000D01*
X120877000Y-104367000D02*
X120877000Y-101627000D01*
X120877000Y-101627000D02*
X114337000Y-101627000D01*
X114337000Y-104367000D02*
X120877000Y-104367000D01*
X114337000Y-101627000D02*
X114337000Y-104367000D01*
X113567000Y-102997000D02*
X114337000Y-102997000D01*
%TO.C,DZ6*%
X59114000Y-64109000D02*
X59114000Y-65289000D01*
X60034000Y-65289000D02*
X58194000Y-65289000D01*
X58194000Y-65289000D02*
X58194000Y-68569000D01*
X58194000Y-67873000D02*
X60034000Y-67873000D01*
X58194000Y-67993000D02*
X60034000Y-67993000D01*
X58194000Y-68113000D02*
X60034000Y-68113000D01*
X60034000Y-68569000D02*
X60034000Y-65289000D01*
X58194000Y-68569000D02*
X60034000Y-68569000D01*
X59114000Y-69749000D02*
X59114000Y-68569000D01*
%TO.C,DZ26*%
X106812000Y-113564000D02*
X106812000Y-112384000D01*
X105892000Y-112384000D02*
X107732000Y-112384000D01*
X107732000Y-112384000D02*
X107732000Y-109104000D01*
X107732000Y-109800000D02*
X105892000Y-109800000D01*
X107732000Y-109680000D02*
X105892000Y-109680000D01*
X107732000Y-109560000D02*
X105892000Y-109560000D01*
X105892000Y-109104000D02*
X105892000Y-112384000D01*
X107732000Y-109104000D02*
X105892000Y-109104000D01*
X106812000Y-107924000D02*
X106812000Y-109104000D01*
D10*
%TO.C,T6*%
X31187000Y-116409000D02*
G75*
G03*
X30987000Y-116409000I-100000J0D01*
G01*
X30987000Y-116409000D02*
G75*
G03*
X31187000Y-116409000I100000J0D01*
G01*
D15*
X50887000Y-131159000D02*
X31687000Y-131159000D01*
X50887000Y-114459000D02*
X50887000Y-131159000D01*
X31687000Y-131159000D02*
X31687000Y-114459000D01*
X31687000Y-114459000D02*
X50887000Y-114459000D01*
D14*
%TO.C,DZ11*%
X56823000Y-123084000D02*
X56823000Y-121904000D01*
X55903000Y-121904000D02*
X57743000Y-121904000D01*
X57743000Y-121904000D02*
X57743000Y-118624000D01*
X57743000Y-119320000D02*
X55903000Y-119320000D01*
X57743000Y-119200000D02*
X55903000Y-119200000D01*
X57743000Y-119080000D02*
X55903000Y-119080000D01*
X55903000Y-118624000D02*
X55903000Y-121904000D01*
X57743000Y-118624000D02*
X55903000Y-118624000D01*
X56823000Y-117444000D02*
X56823000Y-118624000D01*
%TO.C,R14*%
X121647000Y-57785000D02*
X120877000Y-57785000D01*
X120877000Y-59155000D02*
X120877000Y-56415000D01*
X120877000Y-56415000D02*
X114337000Y-56415000D01*
X114337000Y-59155000D02*
X120877000Y-59155000D01*
X114337000Y-56415000D02*
X114337000Y-59155000D01*
X113567000Y-57785000D02*
X114337000Y-57785000D01*
%TO.C,R5*%
X29287000Y-64159000D02*
X29287000Y-64929000D01*
X30657000Y-64929000D02*
X27917000Y-64929000D01*
X27917000Y-64929000D02*
X27917000Y-71469000D01*
X30657000Y-71469000D02*
X30657000Y-64929000D01*
X27917000Y-71469000D02*
X30657000Y-71469000D01*
X29287000Y-72239000D02*
X29287000Y-71469000D01*
%TO.C,DZ17*%
X104526000Y-62712000D02*
X104526000Y-63892000D01*
X105446000Y-63892000D02*
X103606000Y-63892000D01*
X103606000Y-63892000D02*
X103606000Y-67172000D01*
X103606000Y-66476000D02*
X105446000Y-66476000D01*
X103606000Y-66596000D02*
X105446000Y-66596000D01*
X103606000Y-66716000D02*
X105446000Y-66716000D01*
X105446000Y-67172000D02*
X105446000Y-63892000D01*
X103606000Y-67172000D02*
X105446000Y-67172000D01*
X104526000Y-68352000D02*
X104526000Y-67172000D01*
%TO.C,DZ9*%
X56828000Y-105309000D02*
X56828000Y-104129000D01*
X55908000Y-104129000D02*
X57748000Y-104129000D01*
X57748000Y-104129000D02*
X57748000Y-100849000D01*
X57748000Y-101545000D02*
X55908000Y-101545000D01*
X57748000Y-101425000D02*
X55908000Y-101425000D01*
X57748000Y-101305000D02*
X55908000Y-101305000D01*
X55908000Y-100849000D02*
X55908000Y-104129000D01*
X57748000Y-100849000D02*
X55908000Y-100849000D01*
X56828000Y-99669000D02*
X56828000Y-100849000D01*
%TO.C,DZ1*%
X56828000Y-34189000D02*
X56828000Y-33009000D01*
X55908000Y-33009000D02*
X57748000Y-33009000D01*
X57748000Y-33009000D02*
X57748000Y-29729000D01*
X57748000Y-30425000D02*
X55908000Y-30425000D01*
X57748000Y-30305000D02*
X55908000Y-30305000D01*
X57748000Y-30185000D02*
X55908000Y-30185000D01*
X55908000Y-29729000D02*
X55908000Y-33009000D01*
X57748000Y-29729000D02*
X55908000Y-29729000D01*
X56828000Y-28549000D02*
X56828000Y-29729000D01*
%TO.C,R19*%
X113567000Y-106299000D02*
X114337000Y-106299000D01*
X114337000Y-104929000D02*
X114337000Y-107669000D01*
X114337000Y-107669000D02*
X120877000Y-107669000D01*
X120877000Y-104929000D02*
X114337000Y-104929000D01*
X120877000Y-107669000D02*
X120877000Y-104929000D01*
X121647000Y-106299000D02*
X120877000Y-106299000D01*
%TD*%
M02*
