M48
; DRILL file {KiCad 7.0.10} date Tue Mar  5 20:20:02 2024
; FORMAT={-:-/ absolute / inch / decimal}
; #@! TF.CreationDate,2024-03-05T20:20:02-03:00
; #@! TF.GenerationSoftware,Kicad,Pcbnew,7.0.10
; #@! TF.FileFunction,Plated,1,2,PTH
FMAT,2
INCH
; #@! TA.AperFunction,Plated,PTH,ComponentDrill
T1C0.0295
; #@! TA.AperFunction,Plated,PTH,ComponentDrill
T2C0.0315
; #@! TA.AperFunction,Plated,PTH,ComponentDrill
T3C0.0394
; #@! TA.AperFunction,Plated,PTH,ComponentDrill
T4C0.0512
; #@! TA.AperFunction,Plated,PTH,ComponentDrill
T5C0.0598
%
G90
G05
T1
X2.2371Y-4.5848
X2.2371Y-4.8848
X2.2373Y-1.085
X2.2373Y-1.385
X2.2373Y-1.785
X2.2373Y-2.085
X2.2373Y-2.4846
X2.2373Y-2.7846
X2.2373Y-3.185
X2.2373Y-3.485
X2.2373Y-3.885
X2.2373Y-4.185
X2.3273Y-1.085
X2.3273Y-1.385
X2.3273Y-1.785
X2.3273Y-2.085
X2.3273Y-2.485
X2.3273Y-2.785
X2.3273Y-3.185
X2.3273Y-3.485
X2.3273Y-3.885
X2.3273Y-4.185
X2.3273Y-4.585
X2.3273Y-4.885
X4.1152Y-1.535
X4.1152Y-1.835
X4.1152Y-1.95
X4.1152Y-2.25
X4.1152Y-2.43
X4.1152Y-2.73
X4.1152Y-2.845
X4.1152Y-3.145
X4.1152Y-3.315
X4.1152Y-3.615
X4.1152Y-3.73
X4.1152Y-4.03
X4.1152Y-4.21
X4.1152Y-4.51
X4.1152Y-4.625
X4.1152Y-4.925
X4.2052Y-1.535
X4.2052Y-1.835
X4.2052Y-1.95
X4.2052Y-2.25
X4.2052Y-2.43
X4.2052Y-2.73
X4.2052Y-2.845
X4.2052Y-3.145
X4.2052Y-3.315
X4.2052Y-3.615
X4.2052Y-3.73
X4.2052Y-4.03
X4.2052Y-4.21
X4.2052Y-4.51
X4.2052Y-4.625
X4.2052Y-4.925
T2
X1.1523Y-4.585
X1.1523Y-4.985
X1.153Y-1.085
X1.153Y-1.485
X1.153Y-1.785
X1.153Y-2.185
X1.153Y-2.485
X1.153Y-2.885
X1.153Y-3.185
X1.153Y-3.585
X1.153Y-3.885
X1.153Y-4.285
X2.0973Y-1.085
X2.0973Y-1.485
X2.0973Y-1.785
X2.0973Y-2.185
X2.0973Y-2.485
X2.0973Y-2.885
X2.0973Y-3.185
X2.0973Y-3.585
X2.0973Y-3.885
X2.0973Y-4.285
X2.0973Y-4.585
X2.0973Y-4.985
X2.2223Y-5.11
X2.2223Y-5.235
X2.6223Y-5.11
X2.6223Y-5.235
X3.9523Y-5.235
X3.9531Y-5.11
X4.3523Y-5.235
X4.3531Y-5.11
X4.4302Y-1.515
X4.4302Y-2.275
X4.4302Y-2.405
X4.4302Y-3.165
X4.4302Y-3.295
X4.4302Y-4.055
X4.4302Y-4.185
X4.4302Y-4.95
X4.8302Y-1.515
X4.8302Y-2.275
X4.8302Y-2.405
X4.8302Y-3.165
X4.8302Y-3.295
X4.8302Y-4.055
X4.8302Y-4.185
X4.8302Y-4.95
T3
X1.4282Y-1.785
X1.4282Y-2.285
X1.4286Y-1.085
X1.4286Y-1.585
X1.4286Y-2.485
X1.4286Y-2.985
X1.4286Y-3.185
X1.4286Y-3.685
X1.4286Y-3.885
X1.4286Y-4.385
X1.4286Y-4.585
X1.4286Y-5.085
X1.8219Y-1.785
X1.8219Y-2.285
X1.8223Y-1.085
X1.8223Y-1.585
X1.8223Y-2.485
X1.8223Y-2.985
X1.8223Y-3.185
X1.8223Y-3.685
X1.8223Y-3.885
X1.8223Y-4.385
X1.8223Y-4.585
X1.8223Y-5.085
X2.7723Y-2.085
X2.7723Y-2.185
X2.7723Y-2.285
X2.7723Y-2.385
X2.7723Y-2.485
X2.7723Y-2.585
X2.7723Y-2.685
X2.7723Y-2.785
X2.7723Y-2.885
X2.7723Y-2.985
X2.7723Y-3.085
X2.7723Y-3.185
X2.7723Y-3.285
X2.7723Y-3.385
X2.7723Y-3.485
X2.7723Y-3.585
X2.7723Y-3.685
X2.7723Y-3.785
X2.7723Y-3.885
X2.7723Y-3.985
X2.7723Y-4.085
X2.7723Y-4.185
X3.2217Y-4.886
X3.3217Y-4.886
X3.4217Y-4.886
X3.7723Y-2.085
X3.7723Y-2.185
X3.7723Y-2.285
X3.7723Y-2.385
X3.7723Y-2.485
X3.7723Y-2.585
X3.7723Y-2.685
X3.7723Y-2.785
X3.7723Y-2.885
X3.7723Y-2.985
X3.7723Y-3.085
X3.7723Y-3.185
X3.7723Y-3.285
X3.7723Y-3.385
X3.7723Y-3.485
X3.7723Y-3.585
X3.7723Y-3.685
X3.7723Y-3.785
X3.7723Y-3.885
X3.7723Y-3.985
X3.7723Y-4.085
X3.7723Y-4.185
T4
X4.4302Y-1.6588
X4.4302Y-2.1312
X4.4302Y-2.5488
X4.4302Y-3.0212
X4.4302Y-3.4388
X4.4302Y-3.9112
X4.4302Y-4.33
X4.4302Y-4.8024
X4.9105Y-1.6588
X4.9105Y-2.1312
X4.9105Y-2.5488
X4.9105Y-3.0212
X4.9105Y-3.4388
X4.9105Y-3.9112
X4.9105Y-4.33
X4.9105Y-4.8024
X4.9893Y-1.895
X4.9893Y-2.785
X4.9893Y-3.675
X4.9893Y-4.5662
T5
X2.9723Y-1.18
X3.1723Y-1.18
X3.3723Y-1.18
X3.5723Y-1.18
X5.2288Y-1.7962
X5.2288Y-1.9962
X5.2288Y-2.6862
X5.2288Y-2.8862
X5.2288Y-3.5762
X5.2288Y-3.7762
X5.2288Y-4.4712
X5.2288Y-4.6712
M30
