%TF.GenerationSoftware,KiCad,Pcbnew,7.0.10*%
%TF.CreationDate,2024-06-26T21:11:57-03:00*%
%TF.ProjectId,board,626f6172-642e-46b6-9963-61645f706362,1.0*%
%TF.SameCoordinates,Original*%
%TF.FileFunction,Legend,Bot*%
%TF.FilePolarity,Positive*%
%FSLAX46Y46*%
G04 Gerber Fmt 4.6, Leading zero omitted, Abs format (unit mm)*
G04 Created by KiCad (PCBNEW 7.0.10) date 2024-06-26 21:11:57*
%MOMM*%
%LPD*%
G01*
G04 APERTURE LIST*
%ADD10C,0.150000*%
G04 APERTURE END LIST*
D10*
X138691885Y-118542371D02*
X138691885Y-119028085D01*
X138691885Y-119028085D02*
X138720456Y-119085228D01*
X138720456Y-119085228D02*
X138749027Y-119113800D01*
X138749027Y-119113800D02*
X138806170Y-119142371D01*
X138806170Y-119142371D02*
X138891885Y-119142371D01*
X138891885Y-119142371D02*
X138949027Y-119113800D01*
X138691885Y-118913800D02*
X138749027Y-118942371D01*
X138749027Y-118942371D02*
X138863313Y-118942371D01*
X138863313Y-118942371D02*
X138920456Y-118913800D01*
X138920456Y-118913800D02*
X138949027Y-118885228D01*
X138949027Y-118885228D02*
X138977599Y-118828085D01*
X138977599Y-118828085D02*
X138977599Y-118656657D01*
X138977599Y-118656657D02*
X138949027Y-118599514D01*
X138949027Y-118599514D02*
X138920456Y-118570942D01*
X138920456Y-118570942D02*
X138863313Y-118542371D01*
X138863313Y-118542371D02*
X138749027Y-118542371D01*
X138749027Y-118542371D02*
X138691885Y-118570942D01*
X138406170Y-118942371D02*
X138406170Y-118542371D01*
X138406170Y-118342371D02*
X138434742Y-118370942D01*
X138434742Y-118370942D02*
X138406170Y-118399514D01*
X138406170Y-118399514D02*
X138377599Y-118370942D01*
X138377599Y-118370942D02*
X138406170Y-118342371D01*
X138406170Y-118342371D02*
X138406170Y-118399514D01*
X138206171Y-118542371D02*
X137977599Y-118542371D01*
X138120456Y-118342371D02*
X138120456Y-118856657D01*
X138120456Y-118856657D02*
X138091885Y-118913800D01*
X138091885Y-118913800D02*
X138034742Y-118942371D01*
X138034742Y-118942371D02*
X137977599Y-118942371D01*
X137777599Y-118942371D02*
X137777599Y-118342371D01*
X137520457Y-118942371D02*
X137520457Y-118628085D01*
X137520457Y-118628085D02*
X137549028Y-118570942D01*
X137549028Y-118570942D02*
X137606171Y-118542371D01*
X137606171Y-118542371D02*
X137691885Y-118542371D01*
X137691885Y-118542371D02*
X137749028Y-118570942D01*
X137749028Y-118570942D02*
X137777599Y-118599514D01*
X136977600Y-118542371D02*
X136977600Y-118942371D01*
X137234742Y-118542371D02*
X137234742Y-118856657D01*
X137234742Y-118856657D02*
X137206171Y-118913800D01*
X137206171Y-118913800D02*
X137149028Y-118942371D01*
X137149028Y-118942371D02*
X137063314Y-118942371D01*
X137063314Y-118942371D02*
X137006171Y-118913800D01*
X137006171Y-118913800D02*
X136977600Y-118885228D01*
X136691885Y-118942371D02*
X136691885Y-118342371D01*
X136691885Y-118570942D02*
X136634743Y-118542371D01*
X136634743Y-118542371D02*
X136520457Y-118542371D01*
X136520457Y-118542371D02*
X136463314Y-118570942D01*
X136463314Y-118570942D02*
X136434743Y-118599514D01*
X136434743Y-118599514D02*
X136406171Y-118656657D01*
X136406171Y-118656657D02*
X136406171Y-118828085D01*
X136406171Y-118828085D02*
X136434743Y-118885228D01*
X136434743Y-118885228D02*
X136463314Y-118913800D01*
X136463314Y-118913800D02*
X136520457Y-118942371D01*
X136520457Y-118942371D02*
X136634743Y-118942371D01*
X136634743Y-118942371D02*
X136691885Y-118913800D01*
X136149028Y-118885228D02*
X136120457Y-118913800D01*
X136120457Y-118913800D02*
X136149028Y-118942371D01*
X136149028Y-118942371D02*
X136177600Y-118913800D01*
X136177600Y-118913800D02*
X136149028Y-118885228D01*
X136149028Y-118885228D02*
X136149028Y-118942371D01*
X135606172Y-118913800D02*
X135663314Y-118942371D01*
X135663314Y-118942371D02*
X135777600Y-118942371D01*
X135777600Y-118942371D02*
X135834743Y-118913800D01*
X135834743Y-118913800D02*
X135863314Y-118885228D01*
X135863314Y-118885228D02*
X135891886Y-118828085D01*
X135891886Y-118828085D02*
X135891886Y-118656657D01*
X135891886Y-118656657D02*
X135863314Y-118599514D01*
X135863314Y-118599514D02*
X135834743Y-118570942D01*
X135834743Y-118570942D02*
X135777600Y-118542371D01*
X135777600Y-118542371D02*
X135663314Y-118542371D01*
X135663314Y-118542371D02*
X135606172Y-118570942D01*
X135263314Y-118942371D02*
X135320457Y-118913800D01*
X135320457Y-118913800D02*
X135349028Y-118885228D01*
X135349028Y-118885228D02*
X135377600Y-118828085D01*
X135377600Y-118828085D02*
X135377600Y-118656657D01*
X135377600Y-118656657D02*
X135349028Y-118599514D01*
X135349028Y-118599514D02*
X135320457Y-118570942D01*
X135320457Y-118570942D02*
X135263314Y-118542371D01*
X135263314Y-118542371D02*
X135177600Y-118542371D01*
X135177600Y-118542371D02*
X135120457Y-118570942D01*
X135120457Y-118570942D02*
X135091886Y-118599514D01*
X135091886Y-118599514D02*
X135063314Y-118656657D01*
X135063314Y-118656657D02*
X135063314Y-118828085D01*
X135063314Y-118828085D02*
X135091886Y-118885228D01*
X135091886Y-118885228D02*
X135120457Y-118913800D01*
X135120457Y-118913800D02*
X135177600Y-118942371D01*
X135177600Y-118942371D02*
X135263314Y-118942371D01*
X134806171Y-118942371D02*
X134806171Y-118542371D01*
X134806171Y-118599514D02*
X134777600Y-118570942D01*
X134777600Y-118570942D02*
X134720457Y-118542371D01*
X134720457Y-118542371D02*
X134634743Y-118542371D01*
X134634743Y-118542371D02*
X134577600Y-118570942D01*
X134577600Y-118570942D02*
X134549029Y-118628085D01*
X134549029Y-118628085D02*
X134549029Y-118942371D01*
X134549029Y-118628085D02*
X134520457Y-118570942D01*
X134520457Y-118570942D02*
X134463314Y-118542371D01*
X134463314Y-118542371D02*
X134377600Y-118542371D01*
X134377600Y-118542371D02*
X134320457Y-118570942D01*
X134320457Y-118570942D02*
X134291886Y-118628085D01*
X134291886Y-118628085D02*
X134291886Y-118942371D01*
X133577600Y-118313800D02*
X134091886Y-119085228D01*
X133291886Y-118942371D02*
X133349029Y-118913800D01*
X133349029Y-118913800D02*
X133377600Y-118856657D01*
X133377600Y-118856657D02*
X133377600Y-118342371D01*
X132806172Y-118542371D02*
X132806172Y-118942371D01*
X133063314Y-118542371D02*
X133063314Y-118856657D01*
X133063314Y-118856657D02*
X133034743Y-118913800D01*
X133034743Y-118913800D02*
X132977600Y-118942371D01*
X132977600Y-118942371D02*
X132891886Y-118942371D01*
X132891886Y-118942371D02*
X132834743Y-118913800D01*
X132834743Y-118913800D02*
X132806172Y-118885228D01*
X132263315Y-118913800D02*
X132320457Y-118942371D01*
X132320457Y-118942371D02*
X132434743Y-118942371D01*
X132434743Y-118942371D02*
X132491886Y-118913800D01*
X132491886Y-118913800D02*
X132520457Y-118885228D01*
X132520457Y-118885228D02*
X132549029Y-118828085D01*
X132549029Y-118828085D02*
X132549029Y-118656657D01*
X132549029Y-118656657D02*
X132520457Y-118599514D01*
X132520457Y-118599514D02*
X132491886Y-118570942D01*
X132491886Y-118570942D02*
X132434743Y-118542371D01*
X132434743Y-118542371D02*
X132320457Y-118542371D01*
X132320457Y-118542371D02*
X132263315Y-118570942D01*
X131749029Y-118942371D02*
X131749029Y-118628085D01*
X131749029Y-118628085D02*
X131777600Y-118570942D01*
X131777600Y-118570942D02*
X131834743Y-118542371D01*
X131834743Y-118542371D02*
X131949029Y-118542371D01*
X131949029Y-118542371D02*
X132006171Y-118570942D01*
X131749029Y-118913800D02*
X131806171Y-118942371D01*
X131806171Y-118942371D02*
X131949029Y-118942371D01*
X131949029Y-118942371D02*
X132006171Y-118913800D01*
X132006171Y-118913800D02*
X132034743Y-118856657D01*
X132034743Y-118856657D02*
X132034743Y-118799514D01*
X132034743Y-118799514D02*
X132006171Y-118742371D01*
X132006171Y-118742371D02*
X131949029Y-118713800D01*
X131949029Y-118713800D02*
X131806171Y-118713800D01*
X131806171Y-118713800D02*
X131749029Y-118685228D01*
X131491886Y-118913800D02*
X131434743Y-118942371D01*
X131434743Y-118942371D02*
X131320457Y-118942371D01*
X131320457Y-118942371D02*
X131263314Y-118913800D01*
X131263314Y-118913800D02*
X131234743Y-118856657D01*
X131234743Y-118856657D02*
X131234743Y-118828085D01*
X131234743Y-118828085D02*
X131263314Y-118770942D01*
X131263314Y-118770942D02*
X131320457Y-118742371D01*
X131320457Y-118742371D02*
X131406172Y-118742371D01*
X131406172Y-118742371D02*
X131463314Y-118713800D01*
X131463314Y-118713800D02*
X131491886Y-118656657D01*
X131491886Y-118656657D02*
X131491886Y-118628085D01*
X131491886Y-118628085D02*
X131463314Y-118570942D01*
X131463314Y-118570942D02*
X131406172Y-118542371D01*
X131406172Y-118542371D02*
X131320457Y-118542371D01*
X131320457Y-118542371D02*
X131263314Y-118570942D01*
X130977600Y-118942371D02*
X130977600Y-118542371D01*
X130977600Y-118656657D02*
X130949029Y-118599514D01*
X130949029Y-118599514D02*
X130920458Y-118570942D01*
X130920458Y-118570942D02*
X130863315Y-118542371D01*
X130863315Y-118542371D02*
X130806172Y-118542371D01*
X130349029Y-118542371D02*
X130349029Y-119028085D01*
X130349029Y-119028085D02*
X130377600Y-119085228D01*
X130377600Y-119085228D02*
X130406171Y-119113800D01*
X130406171Y-119113800D02*
X130463314Y-119142371D01*
X130463314Y-119142371D02*
X130549029Y-119142371D01*
X130549029Y-119142371D02*
X130606171Y-119113800D01*
X130349029Y-118913800D02*
X130406171Y-118942371D01*
X130406171Y-118942371D02*
X130520457Y-118942371D01*
X130520457Y-118942371D02*
X130577600Y-118913800D01*
X130577600Y-118913800D02*
X130606171Y-118885228D01*
X130606171Y-118885228D02*
X130634743Y-118828085D01*
X130634743Y-118828085D02*
X130634743Y-118656657D01*
X130634743Y-118656657D02*
X130606171Y-118599514D01*
X130606171Y-118599514D02*
X130577600Y-118570942D01*
X130577600Y-118570942D02*
X130520457Y-118542371D01*
X130520457Y-118542371D02*
X130406171Y-118542371D01*
X130406171Y-118542371D02*
X130349029Y-118570942D01*
X129806172Y-118542371D02*
X129806172Y-118942371D01*
X130063314Y-118542371D02*
X130063314Y-118856657D01*
X130063314Y-118856657D02*
X130034743Y-118913800D01*
X130034743Y-118913800D02*
X129977600Y-118942371D01*
X129977600Y-118942371D02*
X129891886Y-118942371D01*
X129891886Y-118942371D02*
X129834743Y-118913800D01*
X129834743Y-118913800D02*
X129806172Y-118885228D01*
X129291886Y-118913800D02*
X129349029Y-118942371D01*
X129349029Y-118942371D02*
X129463315Y-118942371D01*
X129463315Y-118942371D02*
X129520457Y-118913800D01*
X129520457Y-118913800D02*
X129549029Y-118856657D01*
X129549029Y-118856657D02*
X129549029Y-118628085D01*
X129549029Y-118628085D02*
X129520457Y-118570942D01*
X129520457Y-118570942D02*
X129463315Y-118542371D01*
X129463315Y-118542371D02*
X129349029Y-118542371D01*
X129349029Y-118542371D02*
X129291886Y-118570942D01*
X129291886Y-118570942D02*
X129263315Y-118628085D01*
X129263315Y-118628085D02*
X129263315Y-118685228D01*
X129263315Y-118685228D02*
X129549029Y-118742371D01*
X129006171Y-118942371D02*
X129006171Y-118542371D01*
X129006171Y-118656657D02*
X128977600Y-118599514D01*
X128977600Y-118599514D02*
X128949029Y-118570942D01*
X128949029Y-118570942D02*
X128891886Y-118542371D01*
X128891886Y-118542371D02*
X128834743Y-118542371D01*
X128634742Y-118942371D02*
X128634742Y-118542371D01*
X128634742Y-118656657D02*
X128606171Y-118599514D01*
X128606171Y-118599514D02*
X128577600Y-118570942D01*
X128577600Y-118570942D02*
X128520457Y-118542371D01*
X128520457Y-118542371D02*
X128463314Y-118542371D01*
X128006171Y-118942371D02*
X128006171Y-118628085D01*
X128006171Y-118628085D02*
X128034742Y-118570942D01*
X128034742Y-118570942D02*
X128091885Y-118542371D01*
X128091885Y-118542371D02*
X128206171Y-118542371D01*
X128206171Y-118542371D02*
X128263313Y-118570942D01*
X128006171Y-118913800D02*
X128063313Y-118942371D01*
X128063313Y-118942371D02*
X128206171Y-118942371D01*
X128206171Y-118942371D02*
X128263313Y-118913800D01*
X128263313Y-118913800D02*
X128291885Y-118856657D01*
X128291885Y-118856657D02*
X128291885Y-118799514D01*
X128291885Y-118799514D02*
X128263313Y-118742371D01*
X128263313Y-118742371D02*
X128206171Y-118713800D01*
X128206171Y-118713800D02*
X128063313Y-118713800D01*
X128063313Y-118713800D02*
X128006171Y-118685228D01*
X136049027Y-119279800D02*
X136563313Y-120051228D01*
X135849027Y-119508371D02*
X135849027Y-120108371D01*
X135849027Y-119536942D02*
X135791885Y-119508371D01*
X135791885Y-119508371D02*
X135677599Y-119508371D01*
X135677599Y-119508371D02*
X135620456Y-119536942D01*
X135620456Y-119536942D02*
X135591885Y-119565514D01*
X135591885Y-119565514D02*
X135563313Y-119622657D01*
X135563313Y-119622657D02*
X135563313Y-119794085D01*
X135563313Y-119794085D02*
X135591885Y-119851228D01*
X135591885Y-119851228D02*
X135620456Y-119879800D01*
X135620456Y-119879800D02*
X135677599Y-119908371D01*
X135677599Y-119908371D02*
X135791885Y-119908371D01*
X135791885Y-119908371D02*
X135849027Y-119879800D01*
X135220456Y-119908371D02*
X135277599Y-119879800D01*
X135277599Y-119879800D02*
X135306170Y-119851228D01*
X135306170Y-119851228D02*
X135334742Y-119794085D01*
X135334742Y-119794085D02*
X135334742Y-119622657D01*
X135334742Y-119622657D02*
X135306170Y-119565514D01*
X135306170Y-119565514D02*
X135277599Y-119536942D01*
X135277599Y-119536942D02*
X135220456Y-119508371D01*
X135220456Y-119508371D02*
X135134742Y-119508371D01*
X135134742Y-119508371D02*
X135077599Y-119536942D01*
X135077599Y-119536942D02*
X135049028Y-119565514D01*
X135049028Y-119565514D02*
X135020456Y-119622657D01*
X135020456Y-119622657D02*
X135020456Y-119794085D01*
X135020456Y-119794085D02*
X135049028Y-119851228D01*
X135049028Y-119851228D02*
X135077599Y-119879800D01*
X135077599Y-119879800D02*
X135134742Y-119908371D01*
X135134742Y-119908371D02*
X135220456Y-119908371D01*
X134820456Y-119508371D02*
X134706171Y-119908371D01*
X134706171Y-119908371D02*
X134591885Y-119622657D01*
X134591885Y-119622657D02*
X134477599Y-119908371D01*
X134477599Y-119908371D02*
X134363313Y-119508371D01*
X133906171Y-119879800D02*
X133963314Y-119908371D01*
X133963314Y-119908371D02*
X134077600Y-119908371D01*
X134077600Y-119908371D02*
X134134742Y-119879800D01*
X134134742Y-119879800D02*
X134163314Y-119822657D01*
X134163314Y-119822657D02*
X134163314Y-119594085D01*
X134163314Y-119594085D02*
X134134742Y-119536942D01*
X134134742Y-119536942D02*
X134077600Y-119508371D01*
X134077600Y-119508371D02*
X133963314Y-119508371D01*
X133963314Y-119508371D02*
X133906171Y-119536942D01*
X133906171Y-119536942D02*
X133877600Y-119594085D01*
X133877600Y-119594085D02*
X133877600Y-119651228D01*
X133877600Y-119651228D02*
X134163314Y-119708371D01*
X133620456Y-119908371D02*
X133620456Y-119508371D01*
X133620456Y-119622657D02*
X133591885Y-119565514D01*
X133591885Y-119565514D02*
X133563314Y-119536942D01*
X133563314Y-119536942D02*
X133506171Y-119508371D01*
X133506171Y-119508371D02*
X133449028Y-119508371D01*
X133391885Y-119965514D02*
X132934742Y-119965514D01*
X132849027Y-119508371D02*
X132706170Y-119908371D01*
X132706170Y-119908371D02*
X132563313Y-119508371D01*
X132334741Y-119908371D02*
X132334741Y-119508371D01*
X132334741Y-119308371D02*
X132363313Y-119336942D01*
X132363313Y-119336942D02*
X132334741Y-119365514D01*
X132334741Y-119365514D02*
X132306170Y-119336942D01*
X132306170Y-119336942D02*
X132334741Y-119308371D01*
X132334741Y-119308371D02*
X132334741Y-119365514D01*
X132077599Y-119879800D02*
X132020456Y-119908371D01*
X132020456Y-119908371D02*
X131906170Y-119908371D01*
X131906170Y-119908371D02*
X131849027Y-119879800D01*
X131849027Y-119879800D02*
X131820456Y-119822657D01*
X131820456Y-119822657D02*
X131820456Y-119794085D01*
X131820456Y-119794085D02*
X131849027Y-119736942D01*
X131849027Y-119736942D02*
X131906170Y-119708371D01*
X131906170Y-119708371D02*
X131991885Y-119708371D01*
X131991885Y-119708371D02*
X132049027Y-119679800D01*
X132049027Y-119679800D02*
X132077599Y-119622657D01*
X132077599Y-119622657D02*
X132077599Y-119594085D01*
X132077599Y-119594085D02*
X132049027Y-119536942D01*
X132049027Y-119536942D02*
X131991885Y-119508371D01*
X131991885Y-119508371D02*
X131906170Y-119508371D01*
X131906170Y-119508371D02*
X131849027Y-119536942D01*
X131563313Y-119908371D02*
X131563313Y-119508371D01*
X131563313Y-119308371D02*
X131591885Y-119336942D01*
X131591885Y-119336942D02*
X131563313Y-119365514D01*
X131563313Y-119365514D02*
X131534742Y-119336942D01*
X131534742Y-119336942D02*
X131563313Y-119308371D01*
X131563313Y-119308371D02*
X131563313Y-119365514D01*
X131191885Y-119908371D02*
X131249028Y-119879800D01*
X131249028Y-119879800D02*
X131277599Y-119851228D01*
X131277599Y-119851228D02*
X131306171Y-119794085D01*
X131306171Y-119794085D02*
X131306171Y-119622657D01*
X131306171Y-119622657D02*
X131277599Y-119565514D01*
X131277599Y-119565514D02*
X131249028Y-119536942D01*
X131249028Y-119536942D02*
X131191885Y-119508371D01*
X131191885Y-119508371D02*
X131106171Y-119508371D01*
X131106171Y-119508371D02*
X131049028Y-119536942D01*
X131049028Y-119536942D02*
X131020457Y-119565514D01*
X131020457Y-119565514D02*
X130991885Y-119622657D01*
X130991885Y-119622657D02*
X130991885Y-119794085D01*
X130991885Y-119794085D02*
X131020457Y-119851228D01*
X131020457Y-119851228D02*
X131049028Y-119879800D01*
X131049028Y-119879800D02*
X131106171Y-119908371D01*
X131106171Y-119908371D02*
X131191885Y-119908371D01*
X130734742Y-119508371D02*
X130734742Y-119908371D01*
X130734742Y-119565514D02*
X130706171Y-119536942D01*
X130706171Y-119536942D02*
X130649028Y-119508371D01*
X130649028Y-119508371D02*
X130563314Y-119508371D01*
X130563314Y-119508371D02*
X130506171Y-119536942D01*
X130506171Y-119536942D02*
X130477600Y-119594085D01*
X130477600Y-119594085D02*
X130477600Y-119908371D01*
%TO.C,G\u002A\u002A\u002A*%
G36*
X131991495Y-111220782D02*
G01*
X131996349Y-111232313D01*
X132004431Y-111251941D01*
X132015464Y-111278990D01*
X132029177Y-111312782D01*
X132045295Y-111352641D01*
X132063544Y-111397888D01*
X132083651Y-111447846D01*
X132105342Y-111501839D01*
X132128343Y-111559189D01*
X132152380Y-111619219D01*
X132311863Y-112017820D01*
X132293388Y-112025121D01*
X132289974Y-112026487D01*
X132275769Y-112032286D01*
X132255395Y-112040692D01*
X132231046Y-112050800D01*
X132204912Y-112061703D01*
X132192748Y-112066749D01*
X132168922Y-112076375D01*
X132148833Y-112084154D01*
X132134301Y-112089391D01*
X132127143Y-112091391D01*
X132127136Y-112091392D01*
X132124598Y-112088800D01*
X132120020Y-112080661D01*
X132113245Y-112066598D01*
X132104113Y-112046233D01*
X132092465Y-112019189D01*
X132078145Y-111985088D01*
X132060992Y-111943554D01*
X132040849Y-111894209D01*
X132017557Y-111836676D01*
X131990958Y-111770577D01*
X131960893Y-111695536D01*
X131943548Y-111652134D01*
X131920379Y-111594055D01*
X131898502Y-111539096D01*
X131878187Y-111487942D01*
X131859704Y-111441278D01*
X131843324Y-111399787D01*
X131829316Y-111364154D01*
X131817951Y-111335065D01*
X131809499Y-111313203D01*
X131804229Y-111299253D01*
X131802412Y-111293900D01*
X131805522Y-111291348D01*
X131816447Y-111285660D01*
X131833606Y-111277757D01*
X131855288Y-111268329D01*
X131879784Y-111258071D01*
X131905386Y-111247675D01*
X131930383Y-111237832D01*
X131953065Y-111229236D01*
X131971724Y-111222579D01*
X131984650Y-111218554D01*
X131990133Y-111217853D01*
X131991495Y-111220782D01*
G37*
G36*
X130813422Y-111894274D02*
G01*
X130820902Y-111902026D01*
X130833947Y-111916307D01*
X130851979Y-111936448D01*
X130874422Y-111961783D01*
X130900698Y-111991643D01*
X130930232Y-112025361D01*
X130962445Y-112062270D01*
X130996761Y-112101700D01*
X131032603Y-112142986D01*
X131069394Y-112185459D01*
X131106557Y-112228451D01*
X131143516Y-112271295D01*
X131179693Y-112313323D01*
X131214511Y-112353868D01*
X131247393Y-112392261D01*
X131277763Y-112427835D01*
X131305044Y-112459922D01*
X131328658Y-112487855D01*
X131348029Y-112510966D01*
X131362580Y-112528588D01*
X131371733Y-112540051D01*
X131374912Y-112544690D01*
X131374899Y-112544833D01*
X131370849Y-112550393D01*
X131360401Y-112561210D01*
X131344729Y-112576160D01*
X131325007Y-112594120D01*
X131302412Y-112613969D01*
X131300775Y-112615382D01*
X131278179Y-112634730D01*
X131258215Y-112651546D01*
X131242106Y-112664819D01*
X131231080Y-112673538D01*
X131226362Y-112676693D01*
X131225807Y-112676295D01*
X131219974Y-112670291D01*
X131208340Y-112657560D01*
X131191460Y-112638733D01*
X131169892Y-112614440D01*
X131144192Y-112585312D01*
X131114916Y-112551979D01*
X131082621Y-112515070D01*
X131047865Y-112475217D01*
X131011202Y-112433050D01*
X130992509Y-112411516D01*
X130938951Y-112349815D01*
X130891475Y-112295101D01*
X130849717Y-112246954D01*
X130813315Y-112204949D01*
X130781907Y-112168666D01*
X130755130Y-112137681D01*
X130732623Y-112111572D01*
X130714024Y-112089916D01*
X130698969Y-112072292D01*
X130687097Y-112058276D01*
X130678045Y-112047446D01*
X130671451Y-112039380D01*
X130666953Y-112033655D01*
X130664189Y-112029849D01*
X130662796Y-112027539D01*
X130662412Y-112026303D01*
X130663742Y-112024509D01*
X130671188Y-112017021D01*
X130683971Y-112004976D01*
X130700702Y-111989610D01*
X130719996Y-111972162D01*
X130740462Y-111953868D01*
X130760715Y-111935967D01*
X130779367Y-111919696D01*
X130795030Y-111906292D01*
X130806316Y-111896993D01*
X130811837Y-111893037D01*
X130813422Y-111894274D01*
G37*
G36*
X133776082Y-114663050D02*
G01*
X133896164Y-114999300D01*
X133730139Y-115001800D01*
X133564114Y-115004300D01*
X133648141Y-115356800D01*
X133660238Y-115407593D01*
X133673386Y-115462901D01*
X133685676Y-115514712D01*
X133696925Y-115562246D01*
X133706950Y-115604726D01*
X133715567Y-115641371D01*
X133722593Y-115671405D01*
X133727844Y-115694048D01*
X133731138Y-115708523D01*
X133732290Y-115714050D01*
X133731905Y-115715954D01*
X133727920Y-115714050D01*
X133726425Y-115711984D01*
X133719808Y-115702276D01*
X133708353Y-115685232D01*
X133692473Y-115661472D01*
X133672580Y-115631618D01*
X133649088Y-115596292D01*
X133622409Y-115556113D01*
X133592956Y-115511703D01*
X133561143Y-115463684D01*
X133527382Y-115412675D01*
X133492086Y-115359300D01*
X133484930Y-115348473D01*
X133447016Y-115291114D01*
X133408937Y-115233505D01*
X133371323Y-115176600D01*
X133334807Y-115121356D01*
X133300018Y-115068726D01*
X133267588Y-115019665D01*
X133238148Y-114975128D01*
X133212329Y-114936069D01*
X133190762Y-114903444D01*
X133174078Y-114878206D01*
X133163173Y-114861690D01*
X133142781Y-114830684D01*
X133124612Y-114802903D01*
X133109330Y-114779369D01*
X133097595Y-114761103D01*
X133090068Y-114749124D01*
X133087412Y-114744456D01*
X133092022Y-114743762D01*
X133105354Y-114743125D01*
X133126109Y-114742584D01*
X133152987Y-114742166D01*
X133184689Y-114741895D01*
X133219912Y-114741800D01*
X133254504Y-114741707D01*
X133286284Y-114741438D01*
X133313265Y-114741021D01*
X133334146Y-114740480D01*
X133347629Y-114739842D01*
X133352412Y-114739133D01*
X133352186Y-114737967D01*
X133350355Y-114733292D01*
X133346408Y-114724884D01*
X133340017Y-114712109D01*
X133330849Y-114694335D01*
X133318574Y-114670930D01*
X133302862Y-114641261D01*
X133283382Y-114604694D01*
X133259803Y-114560599D01*
X133231795Y-114508341D01*
X133224797Y-114495286D01*
X133204630Y-114457578D01*
X133186186Y-114422962D01*
X133169968Y-114392390D01*
X133156479Y-114366815D01*
X133146222Y-114347189D01*
X133139699Y-114334464D01*
X133137412Y-114329591D01*
X133138079Y-114329391D01*
X133146362Y-114328865D01*
X133163375Y-114328377D01*
X133188187Y-114327937D01*
X133219869Y-114327554D01*
X133257492Y-114327239D01*
X133300125Y-114327002D01*
X133346840Y-114326852D01*
X133396706Y-114326800D01*
X133656000Y-114326800D01*
X133776082Y-114663050D01*
G37*
G36*
X136865101Y-112979300D02*
G01*
X136855592Y-113044474D01*
X136837261Y-113108687D01*
X136810874Y-113168181D01*
X136776950Y-113222350D01*
X136736006Y-113270585D01*
X136688562Y-113312282D01*
X136635136Y-113346831D01*
X136576247Y-113373628D01*
X136512412Y-113392064D01*
X136479665Y-113397710D01*
X136414648Y-113401551D01*
X136349691Y-113396085D01*
X136286078Y-113381652D01*
X136225092Y-113358586D01*
X136168016Y-113327227D01*
X136116133Y-113287912D01*
X136082275Y-113255013D01*
X136040067Y-113203222D01*
X136006079Y-113147372D01*
X135980416Y-113088358D01*
X135963185Y-113027075D01*
X135954489Y-112964420D01*
X135954461Y-112933398D01*
X136146605Y-112933398D01*
X136147291Y-112980545D01*
X136157230Y-113028000D01*
X136169720Y-113059217D01*
X136193799Y-113098827D01*
X136224703Y-113134016D01*
X136260777Y-113162984D01*
X136300368Y-113183929D01*
X136340563Y-113195940D01*
X136386883Y-113201980D01*
X136433312Y-113200698D01*
X136460967Y-113195988D01*
X136507818Y-113180517D01*
X136551123Y-113156776D01*
X136589718Y-113125775D01*
X136622438Y-113088522D01*
X136648120Y-113046027D01*
X136665599Y-112999300D01*
X136666175Y-112997040D01*
X136670034Y-112973350D01*
X136671880Y-112944821D01*
X136671720Y-112915114D01*
X136669558Y-112887886D01*
X136665401Y-112866800D01*
X136652495Y-112832424D01*
X136627677Y-112788526D01*
X136596060Y-112751443D01*
X136558360Y-112721706D01*
X136515293Y-112699846D01*
X136467573Y-112686391D01*
X136415916Y-112681873D01*
X136387415Y-112683498D01*
X136340125Y-112693321D01*
X136296298Y-112711200D01*
X136256658Y-112736165D01*
X136221930Y-112767249D01*
X136192837Y-112803483D01*
X136170102Y-112843898D01*
X136154451Y-112887526D01*
X136146605Y-112933398D01*
X135954461Y-112933398D01*
X135954433Y-112901288D01*
X135963123Y-112838573D01*
X135980664Y-112777171D01*
X136007160Y-112717977D01*
X136042717Y-112661887D01*
X136073059Y-112625220D01*
X136120863Y-112580745D01*
X136175052Y-112543725D01*
X136235129Y-112514486D01*
X136300598Y-112493352D01*
X136324475Y-112488881D01*
X136360645Y-112485491D01*
X136400542Y-112484557D01*
X136440852Y-112486036D01*
X136478261Y-112489885D01*
X136509455Y-112496061D01*
X136522066Y-112499612D01*
X136580469Y-112520108D01*
X136632340Y-112545998D01*
X136679922Y-112578558D01*
X136725461Y-112619069D01*
X136734613Y-112628405D01*
X136776645Y-112679052D01*
X136811211Y-112734503D01*
X136837825Y-112793506D01*
X136856001Y-112854807D01*
X136865255Y-112917156D01*
X136865186Y-112944821D01*
X136865101Y-112979300D01*
G37*
G36*
X130982906Y-112794300D02*
G01*
X130982337Y-112829123D01*
X130980124Y-112860422D01*
X130975693Y-112888680D01*
X130968468Y-112917477D01*
X130957876Y-112950392D01*
X130933158Y-113008462D01*
X130899187Y-113064548D01*
X130857776Y-113115107D01*
X130809749Y-113159476D01*
X130755935Y-113196996D01*
X130697162Y-113227005D01*
X130634256Y-113248843D01*
X130568044Y-113261848D01*
X130509708Y-113264649D01*
X130447577Y-113258778D01*
X130386114Y-113244403D01*
X130327340Y-113222004D01*
X130273277Y-113192059D01*
X130225501Y-113155898D01*
X130180599Y-113110877D01*
X130143333Y-113060920D01*
X130113785Y-113006915D01*
X130092036Y-112949750D01*
X130078167Y-112890312D01*
X130072260Y-112829487D01*
X130073302Y-112799548D01*
X130264165Y-112799548D01*
X130269273Y-112845758D01*
X130282385Y-112890364D01*
X130303077Y-112932304D01*
X130330928Y-112970515D01*
X130365516Y-113003935D01*
X130406421Y-113031502D01*
X130453220Y-113052154D01*
X130467807Y-113056318D01*
X130497511Y-113061756D01*
X130529539Y-113064713D01*
X130559978Y-113064895D01*
X130584912Y-113062009D01*
X130611121Y-113055196D01*
X130658514Y-113035890D01*
X130699447Y-113009027D01*
X130733771Y-112974714D01*
X130761337Y-112933060D01*
X130762279Y-112931277D01*
X130781025Y-112885275D01*
X130790382Y-112837953D01*
X130790647Y-112790387D01*
X130782116Y-112743656D01*
X130765087Y-112698837D01*
X130739855Y-112657008D01*
X130706717Y-112619247D01*
X130665971Y-112586631D01*
X130661331Y-112583615D01*
X130618933Y-112562449D01*
X130572638Y-112549389D01*
X130524266Y-112544483D01*
X130475636Y-112547779D01*
X130428567Y-112559327D01*
X130384879Y-112579173D01*
X130374539Y-112585991D01*
X130353739Y-112603004D01*
X130332293Y-112623785D01*
X130313193Y-112645337D01*
X130299434Y-112664665D01*
X130279640Y-112706565D01*
X130267479Y-112752796D01*
X130264165Y-112799548D01*
X130073302Y-112799548D01*
X130074395Y-112768165D01*
X130084654Y-112707232D01*
X130103119Y-112647576D01*
X130129870Y-112590084D01*
X130164989Y-112535644D01*
X130208556Y-112485143D01*
X130213290Y-112480418D01*
X130255331Y-112443043D01*
X130299419Y-112412567D01*
X130348123Y-112387427D01*
X130404013Y-112366056D01*
X130421182Y-112360637D01*
X130441276Y-112355457D01*
X130461589Y-112351992D01*
X130485382Y-112349720D01*
X130515913Y-112348118D01*
X130538754Y-112347539D01*
X130596144Y-112349998D01*
X130648375Y-112358739D01*
X130697722Y-112374243D01*
X130746461Y-112396993D01*
X130768666Y-112409731D01*
X130823284Y-112448595D01*
X130870522Y-112493864D01*
X130910005Y-112544911D01*
X130941359Y-112601107D01*
X130964210Y-112661823D01*
X130978184Y-112726430D01*
X130982634Y-112790387D01*
X130982906Y-112794300D01*
G37*
G36*
X133001203Y-110960486D02*
G01*
X132999761Y-110970386D01*
X132996745Y-110988850D01*
X132992304Y-111015042D01*
X132986590Y-111048126D01*
X132979751Y-111087266D01*
X132971941Y-111131626D01*
X132963308Y-111180371D01*
X132954004Y-111232665D01*
X132944179Y-111287673D01*
X132933983Y-111344557D01*
X132923568Y-111402483D01*
X132913085Y-111460614D01*
X132902682Y-111518115D01*
X132892512Y-111574151D01*
X132882725Y-111627884D01*
X132873472Y-111678480D01*
X132864902Y-111725103D01*
X132857167Y-111766917D01*
X132850418Y-111803085D01*
X132844804Y-111832773D01*
X132840477Y-111855144D01*
X132837587Y-111869363D01*
X132836285Y-111874594D01*
X132834105Y-111875474D01*
X132823625Y-111878361D01*
X132806103Y-111882641D01*
X132783263Y-111887900D01*
X132756831Y-111893723D01*
X132740857Y-111897086D01*
X132716215Y-111901918D01*
X132696085Y-111905416D01*
X132682213Y-111907289D01*
X132676346Y-111907241D01*
X132675103Y-111905780D01*
X132668707Y-111896969D01*
X132657589Y-111880978D01*
X132642215Y-111858509D01*
X132623053Y-111830266D01*
X132600571Y-111796954D01*
X132575237Y-111759276D01*
X132547519Y-111717937D01*
X132517885Y-111673639D01*
X132486803Y-111627088D01*
X132454741Y-111578986D01*
X132422166Y-111530039D01*
X132389547Y-111480949D01*
X132357351Y-111432421D01*
X132326047Y-111385158D01*
X132296101Y-111339865D01*
X132267983Y-111297246D01*
X132242161Y-111258004D01*
X132219101Y-111222843D01*
X132199272Y-111192467D01*
X132183141Y-111167581D01*
X132171178Y-111148888D01*
X132163849Y-111137092D01*
X132161623Y-111132896D01*
X132162654Y-111132621D01*
X132171680Y-111130562D01*
X132188481Y-111126887D01*
X132211555Y-111121919D01*
X132239402Y-111115983D01*
X132270519Y-111109403D01*
X132301758Y-111102929D01*
X132331109Y-111097195D01*
X132352640Y-111093522D01*
X132367388Y-111091758D01*
X132376392Y-111091753D01*
X132380688Y-111093355D01*
X132381968Y-111095047D01*
X132388271Y-111104306D01*
X132399183Y-111120784D01*
X132414186Y-111143688D01*
X132432765Y-111172224D01*
X132454404Y-111205597D01*
X132478585Y-111243013D01*
X132504792Y-111283679D01*
X132532509Y-111326800D01*
X132564708Y-111376927D01*
X132593440Y-111421572D01*
X132617565Y-111458927D01*
X132637477Y-111489575D01*
X132653571Y-111514098D01*
X132666240Y-111533078D01*
X132675879Y-111547100D01*
X132682882Y-111556744D01*
X132687643Y-111562595D01*
X132690555Y-111565234D01*
X132692014Y-111565244D01*
X132692412Y-111563208D01*
X132692464Y-111562565D01*
X132693623Y-111554252D01*
X132696178Y-111537529D01*
X132699953Y-111513474D01*
X132704772Y-111483160D01*
X132710460Y-111447664D01*
X132716841Y-111408062D01*
X132723740Y-111365427D01*
X132730982Y-111320837D01*
X132738392Y-111275365D01*
X132745793Y-111230088D01*
X132753010Y-111186081D01*
X132759868Y-111144420D01*
X132766192Y-111106179D01*
X132771806Y-111072435D01*
X132776534Y-111044262D01*
X132780201Y-111022737D01*
X132782632Y-111008933D01*
X132783651Y-111003928D01*
X132784635Y-111003506D01*
X132793237Y-111001228D01*
X132809196Y-110997535D01*
X132830800Y-110992782D01*
X132856335Y-110987321D01*
X132884090Y-110981507D01*
X132912349Y-110975692D01*
X132939402Y-110970232D01*
X132963534Y-110965478D01*
X132983033Y-110961786D01*
X132996186Y-110959509D01*
X133001279Y-110958999D01*
X133001203Y-110960486D01*
G37*
G36*
X131535576Y-111488835D02*
G01*
X131581849Y-111504255D01*
X131624813Y-111529049D01*
X131664524Y-111563226D01*
X131674168Y-111573466D01*
X131704652Y-111613431D01*
X131725260Y-111654898D01*
X131735981Y-111697793D01*
X131736802Y-111742041D01*
X131727712Y-111787568D01*
X131708698Y-111834300D01*
X131702987Y-111845147D01*
X131689463Y-111867857D01*
X131673289Y-111890983D01*
X131653468Y-111915732D01*
X131629001Y-111943313D01*
X131598893Y-111974932D01*
X131562144Y-112011800D01*
X131532977Y-112040892D01*
X131509742Y-112064970D01*
X131492436Y-112084395D01*
X131480336Y-112100239D01*
X131472722Y-112113574D01*
X131468871Y-112125472D01*
X131468062Y-112137005D01*
X131469572Y-112149243D01*
X131469830Y-112150471D01*
X131477244Y-112166300D01*
X131490338Y-112181280D01*
X131506055Y-112192569D01*
X131521336Y-112197329D01*
X131554639Y-112195289D01*
X131595804Y-112184250D01*
X131637070Y-112164296D01*
X131677456Y-112135918D01*
X131715979Y-112099612D01*
X131741087Y-112070681D01*
X131764904Y-112036966D01*
X131783744Y-112001061D01*
X131799778Y-111959333D01*
X131815365Y-111912787D01*
X131892639Y-111955058D01*
X131914035Y-111966847D01*
X131937075Y-111979749D01*
X131955893Y-111990519D01*
X131968964Y-111998283D01*
X131974763Y-112002165D01*
X131976396Y-112006112D01*
X131975240Y-112018620D01*
X131969738Y-112037154D01*
X131960592Y-112060233D01*
X131948504Y-112086376D01*
X131934175Y-112114103D01*
X131918308Y-112141933D01*
X131901605Y-112168385D01*
X131884767Y-112191979D01*
X131856146Y-112225431D01*
X131811040Y-112267743D01*
X131760356Y-112305576D01*
X131706111Y-112337629D01*
X131650320Y-112362598D01*
X131594998Y-112379184D01*
X131583147Y-112381413D01*
X131551368Y-112384934D01*
X131516906Y-112386107D01*
X131483879Y-112384872D01*
X131456409Y-112381170D01*
X131420818Y-112370414D01*
X131378866Y-112348920D01*
X131341034Y-112319486D01*
X131308631Y-112283170D01*
X131282965Y-112241030D01*
X131268678Y-112208006D01*
X131258375Y-112171142D01*
X131255566Y-112135936D01*
X131259880Y-112100126D01*
X131260575Y-112096889D01*
X131267549Y-112070134D01*
X131276805Y-112044780D01*
X131289104Y-112019700D01*
X131305209Y-111993767D01*
X131325880Y-111965856D01*
X131351880Y-111934839D01*
X131383968Y-111899591D01*
X131422908Y-111858985D01*
X131437084Y-111844357D01*
X131460025Y-111820220D01*
X131480319Y-111798295D01*
X131496864Y-111779802D01*
X131508559Y-111765959D01*
X131514300Y-111757983D01*
X131517495Y-111750773D01*
X131521732Y-111728681D01*
X131518767Y-111707330D01*
X131509254Y-111689314D01*
X131493851Y-111677226D01*
X131485588Y-111674420D01*
X131463193Y-111672037D01*
X131436917Y-111674397D01*
X131410021Y-111681339D01*
X131389068Y-111690550D01*
X131360734Y-111706930D01*
X131331480Y-111727245D01*
X131304245Y-111749427D01*
X131281970Y-111771409D01*
X131276638Y-111777793D01*
X131263858Y-111795364D01*
X131250540Y-111816091D01*
X131237961Y-111837718D01*
X131227396Y-111857991D01*
X131220121Y-111874657D01*
X131217412Y-111885462D01*
X131215977Y-111889688D01*
X131208253Y-111890570D01*
X131204256Y-111889150D01*
X131191619Y-111883131D01*
X131174085Y-111873705D01*
X131153358Y-111861904D01*
X131131144Y-111848761D01*
X131109146Y-111835312D01*
X131089070Y-111822589D01*
X131072619Y-111811625D01*
X131061498Y-111803455D01*
X131057412Y-111799111D01*
X131058424Y-111793439D01*
X131062222Y-111780426D01*
X131067872Y-111764219D01*
X131071497Y-111755193D01*
X131092036Y-111716512D01*
X131120293Y-111676948D01*
X131154735Y-111637980D01*
X131193827Y-111601086D01*
X131236033Y-111567746D01*
X131279820Y-111539439D01*
X131323653Y-111517646D01*
X131376363Y-111498752D01*
X131432888Y-111486091D01*
X131485941Y-111482783D01*
X131535576Y-111488835D01*
G37*
G36*
X137326862Y-113813904D02*
G01*
X137338413Y-113845181D01*
X137348211Y-113872086D01*
X137355789Y-113893382D01*
X137360679Y-113907830D01*
X137362412Y-113914195D01*
X137361969Y-113915407D01*
X137360276Y-113916989D01*
X137356827Y-113919118D01*
X137351114Y-113921993D01*
X137342629Y-113925809D01*
X137330865Y-113930762D01*
X137315315Y-113937050D01*
X137295471Y-113944869D01*
X137270826Y-113954416D01*
X137240871Y-113965886D01*
X137205101Y-113979478D01*
X137163006Y-113995386D01*
X137114080Y-114013809D01*
X137057815Y-114034941D01*
X136993704Y-114058981D01*
X136921239Y-114086124D01*
X136839912Y-114116566D01*
X136790789Y-114134938D01*
X136743175Y-114152718D01*
X136699171Y-114169122D01*
X136659601Y-114183846D01*
X136625285Y-114196584D01*
X136597045Y-114207031D01*
X136575704Y-114214883D01*
X136562082Y-114219834D01*
X136557003Y-114221579D01*
X136556510Y-114221004D01*
X136553058Y-114213693D01*
X136547060Y-114199335D01*
X136539174Y-114179650D01*
X136530059Y-114156361D01*
X136520374Y-114131187D01*
X136510778Y-114105850D01*
X136501930Y-114082071D01*
X136494489Y-114061571D01*
X136489113Y-114046072D01*
X136486461Y-114037294D01*
X136488126Y-114034638D01*
X136496593Y-114029325D01*
X136512613Y-114021645D01*
X136536666Y-114011388D01*
X136569231Y-113998342D01*
X136610786Y-113982294D01*
X136611204Y-113982134D01*
X136644576Y-113969342D01*
X136674817Y-113957624D01*
X136700683Y-113947472D01*
X136720929Y-113939378D01*
X136734310Y-113933836D01*
X136739581Y-113931337D01*
X136739695Y-113930971D01*
X136738244Y-113923938D01*
X136733768Y-113909314D01*
X136726754Y-113888550D01*
X136717686Y-113863096D01*
X136707053Y-113834400D01*
X136692911Y-113796135D01*
X136678822Y-113755201D01*
X136668527Y-113720675D01*
X136661769Y-113691087D01*
X136659458Y-113673720D01*
X136857301Y-113673720D01*
X136858546Y-113693570D01*
X136863547Y-113717288D01*
X136872463Y-113746607D01*
X136885452Y-113783256D01*
X136891813Y-113800372D01*
X136900868Y-113824244D01*
X136908470Y-113843690D01*
X136913965Y-113857053D01*
X136916702Y-113862673D01*
X136920687Y-113862254D01*
X136932593Y-113858952D01*
X136950687Y-113853196D01*
X136973268Y-113845594D01*
X136998638Y-113836755D01*
X137025094Y-113827290D01*
X137050937Y-113817808D01*
X137074467Y-113808918D01*
X137093984Y-113801229D01*
X137107787Y-113795352D01*
X137114175Y-113791894D01*
X137114366Y-113789491D01*
X137112119Y-113779142D01*
X137107230Y-113762490D01*
X137100356Y-113741402D01*
X137092151Y-113717748D01*
X137083270Y-113693399D01*
X137074370Y-113670224D01*
X137066105Y-113650091D01*
X137059131Y-113634872D01*
X137054643Y-113627031D01*
X137040232Y-113608010D01*
X137022998Y-113590729D01*
X137006411Y-113578873D01*
X136990172Y-113573365D01*
X136964919Y-113571700D01*
X136937682Y-113575864D01*
X136911733Y-113585624D01*
X136909866Y-113586595D01*
X136893080Y-113596949D01*
X136881502Y-113608924D01*
X136871162Y-113626520D01*
X136865454Y-113638705D01*
X136859657Y-113656008D01*
X136857301Y-113673720D01*
X136659458Y-113673720D01*
X136658293Y-113664970D01*
X136657844Y-113640852D01*
X136660165Y-113617266D01*
X136665000Y-113592741D01*
X136669116Y-113577280D01*
X136688417Y-113529279D01*
X136716087Y-113485851D01*
X136751415Y-113447675D01*
X136793691Y-113415431D01*
X136842204Y-113389799D01*
X136896245Y-113371459D01*
X136927181Y-113365213D01*
X136978123Y-113362391D01*
X137026908Y-113369036D01*
X137072972Y-113384863D01*
X137115751Y-113409588D01*
X137154681Y-113442925D01*
X137189199Y-113484591D01*
X137218739Y-113534300D01*
X137221222Y-113539711D01*
X137227496Y-113554685D01*
X137236228Y-113576417D01*
X137246949Y-113603673D01*
X137259192Y-113635213D01*
X137272489Y-113669802D01*
X137286372Y-113706202D01*
X137300374Y-113743177D01*
X137314026Y-113779490D01*
X137317756Y-113789491D01*
X137326862Y-113813904D01*
G37*
G36*
X129767231Y-113158828D02*
G01*
X129777914Y-113162903D01*
X129796480Y-113170160D01*
X129822114Y-113180269D01*
X129853998Y-113192905D01*
X129891318Y-113207741D01*
X129933258Y-113224448D01*
X129979000Y-113242701D01*
X130027731Y-113262171D01*
X130078633Y-113282533D01*
X130130891Y-113303458D01*
X130183689Y-113324620D01*
X130236210Y-113345692D01*
X130287640Y-113366346D01*
X130337162Y-113386256D01*
X130383959Y-113405095D01*
X130427218Y-113422534D01*
X130466120Y-113438249D01*
X130499851Y-113451910D01*
X130527594Y-113463191D01*
X130548534Y-113471766D01*
X130561854Y-113477306D01*
X130566739Y-113479485D01*
X130566152Y-113483568D01*
X130562326Y-113495382D01*
X130555793Y-113513180D01*
X130547253Y-113535259D01*
X130537402Y-113559917D01*
X130526940Y-113585453D01*
X130516566Y-113610163D01*
X130506977Y-113632346D01*
X130498873Y-113650298D01*
X130492952Y-113662319D01*
X130489912Y-113666705D01*
X130488877Y-113666440D01*
X130480105Y-113663314D01*
X130463270Y-113656942D01*
X130439256Y-113647669D01*
X130408947Y-113635842D01*
X130373224Y-113621805D01*
X130332972Y-113605904D01*
X130289074Y-113588484D01*
X130242412Y-113569892D01*
X130223824Y-113562475D01*
X130178331Y-113544369D01*
X130136057Y-113527606D01*
X130097867Y-113512527D01*
X130064628Y-113499470D01*
X130037206Y-113488775D01*
X130016467Y-113480782D01*
X130003278Y-113475831D01*
X129998505Y-113474260D01*
X129998545Y-113474435D01*
X130001791Y-113480206D01*
X130009837Y-113493590D01*
X130022234Y-113513866D01*
X130038538Y-113540313D01*
X130058302Y-113572210D01*
X130081078Y-113608835D01*
X130106420Y-113649469D01*
X130133882Y-113693388D01*
X130163016Y-113739874D01*
X130166678Y-113745710D01*
X130196016Y-113792479D01*
X130223912Y-113836970D01*
X130249881Y-113878408D01*
X130273439Y-113916020D01*
X130294102Y-113949033D01*
X130311385Y-113976671D01*
X130324804Y-113998163D01*
X130333874Y-114012732D01*
X130338112Y-114019606D01*
X130347287Y-114034913D01*
X130314291Y-114117106D01*
X130305274Y-114139588D01*
X130295029Y-114165179D01*
X130286394Y-114186804D01*
X130280075Y-114202692D01*
X130276779Y-114211073D01*
X130276367Y-114212113D01*
X130270485Y-114219942D01*
X130260601Y-114219919D01*
X130259968Y-114219733D01*
X130251502Y-114216665D01*
X130234897Y-114210295D01*
X130210982Y-114200958D01*
X130180587Y-114188986D01*
X130144543Y-114174713D01*
X130103679Y-114158473D01*
X130058825Y-114140598D01*
X130010812Y-114121422D01*
X129960469Y-114101279D01*
X129908627Y-114080502D01*
X129856115Y-114059424D01*
X129803763Y-114038378D01*
X129752402Y-114017699D01*
X129702861Y-113997719D01*
X129655970Y-113978771D01*
X129612560Y-113961189D01*
X129573460Y-113945307D01*
X129539501Y-113931457D01*
X129511513Y-113919974D01*
X129490324Y-113911190D01*
X129476767Y-113905439D01*
X129471669Y-113903054D01*
X129471505Y-113902614D01*
X129472885Y-113895327D01*
X129477500Y-113880555D01*
X129484844Y-113859745D01*
X129494411Y-113834345D01*
X129505695Y-113805802D01*
X129543472Y-113712304D01*
X129564192Y-113720491D01*
X129564376Y-113720563D01*
X129573461Y-113724192D01*
X129590780Y-113731143D01*
X129615332Y-113741012D01*
X129646120Y-113753399D01*
X129682143Y-113767900D01*
X129722402Y-113784114D01*
X129765899Y-113801639D01*
X129811634Y-113820072D01*
X129818079Y-113822668D01*
X129862439Y-113840421D01*
X129903652Y-113856720D01*
X129940846Y-113871233D01*
X129973147Y-113883628D01*
X129999682Y-113893573D01*
X130019578Y-113900735D01*
X130031962Y-113904782D01*
X130035961Y-113905383D01*
X130035498Y-113904506D01*
X130030758Y-113896545D01*
X130021313Y-113881086D01*
X130007613Y-113858853D01*
X129990106Y-113830571D01*
X129969243Y-113796963D01*
X129945472Y-113758754D01*
X129919244Y-113716668D01*
X129891007Y-113671429D01*
X129861211Y-113623762D01*
X129688855Y-113348224D01*
X129726428Y-113253762D01*
X129729140Y-113246946D01*
X129740279Y-113219004D01*
X129749988Y-113194738D01*
X129757700Y-113175552D01*
X129762852Y-113162853D01*
X129764880Y-113158043D01*
X129767231Y-113158828D01*
G37*
G36*
X134575982Y-111119686D02*
G01*
X134636419Y-111141047D01*
X134705925Y-111165639D01*
X134766957Y-111187274D01*
X134820054Y-111206156D01*
X134865756Y-111222485D01*
X134904602Y-111236463D01*
X134937133Y-111248294D01*
X134963886Y-111258177D01*
X134985403Y-111266317D01*
X135002221Y-111272914D01*
X135014882Y-111278171D01*
X135023923Y-111282289D01*
X135029886Y-111285470D01*
X135033309Y-111287917D01*
X135034731Y-111289832D01*
X135034693Y-111291415D01*
X135033783Y-111293896D01*
X135029753Y-111305126D01*
X135022789Y-111324642D01*
X135013143Y-111351736D01*
X135001065Y-111385700D01*
X134986808Y-111425826D01*
X134970622Y-111471406D01*
X134952760Y-111521733D01*
X134933473Y-111576099D01*
X134913011Y-111633795D01*
X134891628Y-111694113D01*
X134878250Y-111731844D01*
X134857449Y-111790454D01*
X134837738Y-111845926D01*
X134819368Y-111897561D01*
X134802587Y-111944660D01*
X134787646Y-111986523D01*
X134774793Y-112022453D01*
X134764277Y-112051751D01*
X134756350Y-112073718D01*
X134751259Y-112087655D01*
X134749255Y-112092863D01*
X134747221Y-112095157D01*
X134739760Y-112096345D01*
X134726398Y-112091964D01*
X134725150Y-112091474D01*
X134715419Y-112087908D01*
X134697487Y-112081477D01*
X134672288Y-112072512D01*
X134640753Y-112061341D01*
X134603815Y-112048296D01*
X134562408Y-112033705D01*
X134517463Y-112017900D01*
X134469912Y-112001209D01*
X134452245Y-111995013D01*
X134406103Y-111978824D01*
X134363231Y-111963772D01*
X134324510Y-111950169D01*
X134290821Y-111938324D01*
X134263044Y-111928547D01*
X134242062Y-111921147D01*
X134228755Y-111916435D01*
X134224004Y-111914720D01*
X134224045Y-111913618D01*
X134226423Y-111905217D01*
X134231424Y-111890076D01*
X134238391Y-111869990D01*
X134246670Y-111846756D01*
X134255604Y-111822169D01*
X134264537Y-111798025D01*
X134272814Y-111776120D01*
X134279779Y-111758250D01*
X134284776Y-111746212D01*
X134287150Y-111741800D01*
X134290721Y-111742831D01*
X134302810Y-111746820D01*
X134322338Y-111753453D01*
X134348199Y-111762351D01*
X134379286Y-111773131D01*
X134414494Y-111785414D01*
X134452717Y-111798817D01*
X134492628Y-111812831D01*
X134528227Y-111825247D01*
X134556217Y-111834838D01*
X134577552Y-111841866D01*
X134593182Y-111846598D01*
X134604061Y-111849298D01*
X134611139Y-111850230D01*
X134615369Y-111849659D01*
X134617703Y-111847850D01*
X134619093Y-111845067D01*
X134626746Y-111824931D01*
X134636805Y-111797190D01*
X134645928Y-111770680D01*
X134653592Y-111747025D01*
X134659276Y-111727848D01*
X134662460Y-111714775D01*
X134662622Y-111709429D01*
X134662538Y-111709381D01*
X134656357Y-111706906D01*
X134642074Y-111701603D01*
X134620949Y-111693928D01*
X134594243Y-111684336D01*
X134563217Y-111673283D01*
X134529132Y-111661224D01*
X134526650Y-111660348D01*
X134492904Y-111648406D01*
X134462441Y-111637555D01*
X134436493Y-111628240D01*
X134416290Y-111620903D01*
X134403062Y-111615988D01*
X134398040Y-111613940D01*
X134397996Y-111613857D01*
X134399193Y-111608155D01*
X134403166Y-111595067D01*
X134409267Y-111576434D01*
X134416850Y-111554096D01*
X134425269Y-111529893D01*
X134433877Y-111505665D01*
X134442029Y-111483253D01*
X134449076Y-111464497D01*
X134454374Y-111451237D01*
X134457275Y-111445313D01*
X134458763Y-111444826D01*
X134466030Y-111445736D01*
X134479540Y-111449205D01*
X134499809Y-111455400D01*
X134527353Y-111464489D01*
X134562690Y-111476641D01*
X134606336Y-111492023D01*
X134658808Y-111510804D01*
X134680908Y-111518679D01*
X134701622Y-111525705D01*
X134715606Y-111529762D01*
X134724320Y-111531183D01*
X134729222Y-111530301D01*
X134731772Y-111527450D01*
X134733749Y-111523098D01*
X134739157Y-111509333D01*
X134745898Y-111490628D01*
X134753301Y-111469034D01*
X134760697Y-111446602D01*
X134767416Y-111425384D01*
X134772787Y-111407432D01*
X134776142Y-111394797D01*
X134776810Y-111389530D01*
X134774145Y-111388285D01*
X134763061Y-111383956D01*
X134744437Y-111377006D01*
X134719394Y-111367845D01*
X134689051Y-111356881D01*
X134654532Y-111344524D01*
X134616955Y-111331183D01*
X134590998Y-111321970D01*
X134555244Y-111309162D01*
X134523249Y-111297563D01*
X134496148Y-111287591D01*
X134475078Y-111279666D01*
X134461174Y-111274208D01*
X134455573Y-111271634D01*
X134455122Y-111270768D01*
X134455317Y-111265707D01*
X134457560Y-111255864D01*
X134462095Y-111240474D01*
X134469168Y-111218776D01*
X134479024Y-111190006D01*
X134491907Y-111153401D01*
X134508064Y-111108198D01*
X134512052Y-111097097D01*
X134575982Y-111119686D01*
G37*
G36*
X134225433Y-111237767D02*
G01*
X134219007Y-111290864D01*
X134212070Y-111348085D01*
X134204715Y-111408656D01*
X134197036Y-111471800D01*
X134193103Y-111504139D01*
X134185638Y-111565622D01*
X134178578Y-111623917D01*
X134172012Y-111678274D01*
X134166030Y-111727945D01*
X134160722Y-111772182D01*
X134156177Y-111810235D01*
X134152485Y-111841357D01*
X134149737Y-111864798D01*
X134148021Y-111879810D01*
X134147427Y-111885645D01*
X134145330Y-111889264D01*
X134136162Y-111889503D01*
X134129215Y-111888353D01*
X134113546Y-111886172D01*
X134091384Y-111883292D01*
X134064562Y-111879953D01*
X134034912Y-111876389D01*
X134007848Y-111873141D01*
X133982442Y-111869980D01*
X133962185Y-111867339D01*
X133948672Y-111865426D01*
X133943498Y-111864450D01*
X133943555Y-111861200D01*
X133944627Y-111849239D01*
X133946682Y-111829770D01*
X133949570Y-111804143D01*
X133953141Y-111773709D01*
X133957248Y-111739821D01*
X133959428Y-111722175D01*
X133964313Y-111682812D01*
X133968007Y-111651935D01*
X133970419Y-111628492D01*
X133971455Y-111611433D01*
X133971025Y-111599704D01*
X133969037Y-111592255D01*
X133965398Y-111588034D01*
X133960017Y-111585988D01*
X133952803Y-111585067D01*
X133943662Y-111584217D01*
X133931652Y-111582888D01*
X133914299Y-111581131D01*
X133902227Y-111580108D01*
X133902086Y-111580100D01*
X133897554Y-111580967D01*
X133891488Y-111584417D01*
X133883174Y-111591164D01*
X133871898Y-111601921D01*
X133856948Y-111617400D01*
X133837609Y-111638314D01*
X133813167Y-111665376D01*
X133782909Y-111699300D01*
X133768435Y-111715585D01*
X133743238Y-111743921D01*
X133720475Y-111769500D01*
X133700988Y-111791378D01*
X133685619Y-111808610D01*
X133675207Y-111820252D01*
X133670595Y-111825362D01*
X133666530Y-111827201D01*
X133657987Y-111827959D01*
X133643890Y-111827561D01*
X133623154Y-111825945D01*
X133594690Y-111823047D01*
X133557412Y-111818804D01*
X133545671Y-111817411D01*
X133514472Y-111813563D01*
X133486887Y-111809953D01*
X133464496Y-111806800D01*
X133448882Y-111804323D01*
X133441624Y-111802742D01*
X133440675Y-111802059D01*
X133440703Y-111798370D01*
X133444752Y-111791299D01*
X133453426Y-111780101D01*
X133467327Y-111764032D01*
X133487058Y-111742346D01*
X133513223Y-111714300D01*
X133519587Y-111707526D01*
X133546076Y-111679297D01*
X133572930Y-111650629D01*
X133598344Y-111623452D01*
X133620512Y-111599696D01*
X133637629Y-111581289D01*
X133682148Y-111533279D01*
X133654676Y-111514359D01*
X133635645Y-111499809D01*
X133601952Y-111465172D01*
X133575120Y-111424738D01*
X133555409Y-111379727D01*
X133543079Y-111331362D01*
X133538389Y-111280864D01*
X133538616Y-111277225D01*
X133745183Y-111277225D01*
X133745342Y-111292175D01*
X133747081Y-111307069D01*
X133751574Y-111319020D01*
X133759912Y-111332095D01*
X133778000Y-111352155D01*
X133802828Y-111368656D01*
X133834641Y-111380777D01*
X133874695Y-111389142D01*
X133883356Y-111390412D01*
X133910865Y-111394146D01*
X133938116Y-111397481D01*
X133960302Y-111399816D01*
X133972222Y-111400859D01*
X133986307Y-111401607D01*
X133994013Y-111400581D01*
X133997606Y-111397284D01*
X133999350Y-111391215D01*
X134000179Y-111386411D01*
X134002253Y-111371942D01*
X134004994Y-111351110D01*
X134008157Y-111325950D01*
X134011500Y-111298498D01*
X134014781Y-111270787D01*
X134017755Y-111244854D01*
X134020181Y-111222734D01*
X134021814Y-111206461D01*
X134022412Y-111198071D01*
X134021742Y-111194384D01*
X134018580Y-111191228D01*
X134011432Y-111188585D01*
X133998807Y-111186077D01*
X133979214Y-111183323D01*
X133951162Y-111179946D01*
X133914762Y-111175919D01*
X133883013Y-111173083D01*
X133858154Y-111171935D01*
X133838628Y-111172528D01*
X133822876Y-111174917D01*
X133809341Y-111179156D01*
X133796465Y-111185298D01*
X133778963Y-111196847D01*
X133760051Y-111217835D01*
X133748961Y-111244322D01*
X133745183Y-111277225D01*
X133538616Y-111277225D01*
X133541599Y-111229456D01*
X133552969Y-111178359D01*
X133572757Y-111128794D01*
X133586214Y-111104439D01*
X133613959Y-111067153D01*
X133647175Y-111037234D01*
X133686595Y-111014199D01*
X133732950Y-110997563D01*
X133786971Y-110986840D01*
X133796429Y-110985662D01*
X133810226Y-110984437D01*
X133825077Y-110983843D01*
X133841964Y-110983955D01*
X133861872Y-110984850D01*
X133885787Y-110986602D01*
X133914692Y-110989287D01*
X133949573Y-110992981D01*
X133991413Y-110997760D01*
X134041198Y-111003699D01*
X134099912Y-111010874D01*
X134249912Y-111029339D01*
X134248271Y-111046819D01*
X134248011Y-111049253D01*
X134246618Y-111061309D01*
X134244152Y-111082144D01*
X134240706Y-111110983D01*
X134236376Y-111147051D01*
X134231253Y-111189570D01*
X134230226Y-111198071D01*
X134225433Y-111237767D01*
G37*
G36*
X135295036Y-111359568D02*
G01*
X135301869Y-111363043D01*
X135314847Y-111371433D01*
X135332539Y-111383668D01*
X135353514Y-111398680D01*
X135376339Y-111415402D01*
X135399584Y-111432764D01*
X135421817Y-111449699D01*
X135441607Y-111465138D01*
X135457522Y-111478014D01*
X135468132Y-111487257D01*
X135472005Y-111491800D01*
X135471468Y-111494361D01*
X135468268Y-111505709D01*
X135462428Y-111525143D01*
X135454228Y-111551772D01*
X135443946Y-111584706D01*
X135431860Y-111623054D01*
X135418249Y-111665926D01*
X135403391Y-111712433D01*
X135387566Y-111761684D01*
X135377607Y-111792617D01*
X135362426Y-111839891D01*
X135348409Y-111883686D01*
X135335828Y-111923139D01*
X135324958Y-111957388D01*
X135316071Y-111985571D01*
X135309442Y-112006825D01*
X135305342Y-112020289D01*
X135304047Y-112025100D01*
X135305944Y-112023845D01*
X135314872Y-112017169D01*
X135330471Y-112005233D01*
X135352034Y-111988588D01*
X135378851Y-111967784D01*
X135410214Y-111943370D01*
X135445415Y-111915897D01*
X135483744Y-111885916D01*
X135524494Y-111853975D01*
X135563907Y-111823138D01*
X135610499Y-111786963D01*
X135650799Y-111756017D01*
X135684564Y-111730483D01*
X135711551Y-111710542D01*
X135731516Y-111696375D01*
X135744217Y-111688163D01*
X135749410Y-111686089D01*
X135752005Y-111688016D01*
X135761947Y-111695233D01*
X135777592Y-111706509D01*
X135797421Y-111720750D01*
X135819912Y-111736858D01*
X135833787Y-111746799D01*
X135854641Y-111761801D01*
X135871806Y-111774227D01*
X135883797Y-111783001D01*
X135889132Y-111787046D01*
X135888266Y-111791297D01*
X135884399Y-111804015D01*
X135877835Y-111824157D01*
X135868939Y-111850691D01*
X135858074Y-111882580D01*
X135845606Y-111918791D01*
X135831899Y-111958288D01*
X135817317Y-112000038D01*
X135802225Y-112043006D01*
X135786987Y-112086157D01*
X135771967Y-112128457D01*
X135757531Y-112168871D01*
X135744042Y-112206365D01*
X135731865Y-112239904D01*
X135721364Y-112268454D01*
X135712904Y-112290980D01*
X135706849Y-112306447D01*
X135703564Y-112313822D01*
X135703530Y-112313879D01*
X135702812Y-112315268D01*
X135703013Y-112315855D01*
X135704731Y-112315214D01*
X135708562Y-112312920D01*
X135715101Y-112308550D01*
X135724944Y-112301677D01*
X135738687Y-112291877D01*
X135756928Y-112278725D01*
X135780261Y-112261796D01*
X135809282Y-112240665D01*
X135844589Y-112214907D01*
X135886776Y-112184098D01*
X135936440Y-112147811D01*
X135967228Y-112125363D01*
X136017119Y-112089238D01*
X136060120Y-112058452D01*
X136096055Y-112033127D01*
X136124748Y-112013384D01*
X136146023Y-111999348D01*
X136159705Y-111991138D01*
X136165617Y-111988878D01*
X136165800Y-111988954D01*
X136172499Y-111992996D01*
X136185368Y-112001672D01*
X136202972Y-112013944D01*
X136223877Y-112028771D01*
X136246649Y-112045114D01*
X136269853Y-112061933D01*
X136292054Y-112078190D01*
X136311819Y-112092844D01*
X136327713Y-112104857D01*
X136338301Y-112113189D01*
X136342149Y-112116800D01*
X136338607Y-112119670D01*
X136327549Y-112127621D01*
X136309771Y-112140071D01*
X136286085Y-112156460D01*
X136257306Y-112176228D01*
X136224245Y-112198816D01*
X136187716Y-112223663D01*
X136148530Y-112250209D01*
X136146273Y-112251735D01*
X136097155Y-112284955D01*
X136042709Y-112321796D01*
X135985203Y-112360721D01*
X135926906Y-112400194D01*
X135870089Y-112438678D01*
X135817019Y-112474637D01*
X135769966Y-112506535D01*
X135740857Y-112526189D01*
X135704152Y-112550717D01*
X135670513Y-112572910D01*
X135640804Y-112592214D01*
X135615887Y-112608075D01*
X135596626Y-112619939D01*
X135583884Y-112627251D01*
X135578523Y-112629458D01*
X135578230Y-112629324D01*
X135571892Y-112625316D01*
X135559501Y-112616868D01*
X135542641Y-112605110D01*
X135522893Y-112591172D01*
X135501841Y-112576185D01*
X135481068Y-112561281D01*
X135462155Y-112547588D01*
X135446687Y-112536239D01*
X135436245Y-112528363D01*
X135432412Y-112525091D01*
X135432439Y-112524987D01*
X135434359Y-112519050D01*
X135439104Y-112504658D01*
X135446369Y-112482721D01*
X135455853Y-112454153D01*
X135467252Y-112419865D01*
X135480264Y-112380769D01*
X135494585Y-112337776D01*
X135509912Y-112291800D01*
X135511784Y-112286188D01*
X135527026Y-112240391D01*
X135541222Y-112197588D01*
X135554069Y-112158707D01*
X135565262Y-112124674D01*
X135574497Y-112096416D01*
X135581469Y-112074860D01*
X135585876Y-112060933D01*
X135587412Y-112055562D01*
X135587247Y-112055528D01*
X135581844Y-112058835D01*
X135569371Y-112067501D01*
X135550584Y-112080971D01*
X135526240Y-112098693D01*
X135497096Y-112120114D01*
X135463908Y-112144681D01*
X135427434Y-112171839D01*
X135388428Y-112201037D01*
X135189444Y-112350371D01*
X135114188Y-112296131D01*
X135038931Y-112241891D01*
X135164805Y-111800595D01*
X135167203Y-111792192D01*
X135185491Y-111728271D01*
X135203035Y-111667252D01*
X135219638Y-111609806D01*
X135235100Y-111556607D01*
X135249225Y-111508324D01*
X135261813Y-111465631D01*
X135272668Y-111429200D01*
X135281590Y-111399703D01*
X135288382Y-111377811D01*
X135292846Y-111364197D01*
X135294784Y-111359533D01*
X135295036Y-111359568D01*
G37*
G36*
X134601948Y-112557581D02*
G01*
X134594537Y-112593131D01*
X134585569Y-112613007D01*
X134565079Y-112640677D01*
X134538082Y-112663899D01*
X134506589Y-112681067D01*
X134472608Y-112690574D01*
X134466565Y-112691621D01*
X134459940Y-112693464D01*
X134452834Y-112696642D01*
X134444389Y-112701836D01*
X134433746Y-112709727D01*
X134420046Y-112720993D01*
X134402429Y-112736316D01*
X134380036Y-112756376D01*
X134352009Y-112781854D01*
X134317489Y-112813429D01*
X134187412Y-112932558D01*
X134187412Y-113201453D01*
X134187412Y-113470349D01*
X134265332Y-113522078D01*
X134289410Y-113538321D01*
X134312096Y-113554145D01*
X134330789Y-113567730D01*
X134344023Y-113578009D01*
X134350332Y-113583916D01*
X134352481Y-113588470D01*
X134354458Y-113597585D01*
X134355864Y-113611848D01*
X134356774Y-113632470D01*
X134357266Y-113660663D01*
X134357412Y-113697641D01*
X134357412Y-113801258D01*
X134466162Y-113802815D01*
X134471332Y-113802892D01*
X134512550Y-113803802D01*
X134545524Y-113805400D01*
X134571835Y-113808087D01*
X134593060Y-113812268D01*
X134610779Y-113818346D01*
X134626569Y-113826723D01*
X134642010Y-113837803D01*
X134658680Y-113851990D01*
X134683205Y-113877547D01*
X134703352Y-113909331D01*
X134716011Y-113945680D01*
X134722007Y-113988370D01*
X134724912Y-114034300D01*
X134883252Y-114035619D01*
X135041591Y-114036939D01*
X135047769Y-114018119D01*
X135060250Y-113989152D01*
X135081854Y-113959650D01*
X135109873Y-113937733D01*
X135144007Y-113923621D01*
X135183954Y-113917537D01*
X135189194Y-113917306D01*
X135208700Y-113917062D01*
X135223374Y-113918796D01*
X135237428Y-113923335D01*
X135255074Y-113931506D01*
X135271681Y-113940750D01*
X135300968Y-113964531D01*
X135321879Y-113993759D01*
X135334331Y-114028294D01*
X135338239Y-114067999D01*
X135338015Y-114072161D01*
X135337450Y-114082667D01*
X135329065Y-114119435D01*
X135311932Y-114151802D01*
X135286544Y-114179000D01*
X135253393Y-114200262D01*
X135248463Y-114202559D01*
X135213549Y-114212905D01*
X135177865Y-114214172D01*
X135142999Y-114206864D01*
X135110541Y-114191487D01*
X135082080Y-114168546D01*
X135059206Y-114138545D01*
X135046382Y-114116662D01*
X134885647Y-114117981D01*
X134724912Y-114119300D01*
X134723555Y-114215550D01*
X134723537Y-114216800D01*
X134722197Y-114311800D01*
X134879569Y-114311800D01*
X134916712Y-114311899D01*
X134959562Y-114312325D01*
X134994744Y-114313071D01*
X135021674Y-114314118D01*
X135039772Y-114315449D01*
X135048454Y-114317045D01*
X135052884Y-114321144D01*
X135062726Y-114333238D01*
X135077119Y-114352576D01*
X135095608Y-114378515D01*
X135117735Y-114410417D01*
X135143048Y-114447640D01*
X135171089Y-114489545D01*
X135282213Y-114656800D01*
X135511824Y-114656800D01*
X135741434Y-114656800D01*
X135746568Y-114642074D01*
X135750490Y-114633740D01*
X135762636Y-114616437D01*
X135779154Y-114598272D01*
X135797390Y-114582035D01*
X135814688Y-114570515D01*
X135820549Y-114567807D01*
X135843901Y-114561274D01*
X135875248Y-114557857D01*
X135878111Y-114557704D01*
X135898983Y-114557106D01*
X135914204Y-114558324D01*
X135927628Y-114561971D01*
X135943106Y-114568661D01*
X135945939Y-114570033D01*
X135978679Y-114591296D01*
X136004123Y-114618360D01*
X136021735Y-114649936D01*
X136030978Y-114684734D01*
X136031160Y-114704625D01*
X136031314Y-114721463D01*
X136022208Y-114758834D01*
X136010593Y-114782938D01*
X135988279Y-114811490D01*
X135960307Y-114833316D01*
X135928184Y-114847796D01*
X135893417Y-114854313D01*
X135857514Y-114852248D01*
X135821980Y-114840984D01*
X135794429Y-114825006D01*
X135766618Y-114799086D01*
X135746509Y-114766950D01*
X135734971Y-114741800D01*
X135493927Y-114741800D01*
X135436552Y-114741711D01*
X135380193Y-114741397D01*
X135333198Y-114740860D01*
X135295695Y-114740101D01*
X135267809Y-114739124D01*
X135249668Y-114737930D01*
X135241398Y-114736524D01*
X135236656Y-114732045D01*
X135226646Y-114719651D01*
X135214218Y-114702915D01*
X135817794Y-114702915D01*
X135820378Y-114724789D01*
X135830756Y-114744918D01*
X135849131Y-114761317D01*
X135865103Y-114768758D01*
X135887732Y-114770842D01*
X135911805Y-114763250D01*
X135912181Y-114763063D01*
X135931185Y-114748386D01*
X135943176Y-114728146D01*
X135947303Y-114704625D01*
X135942719Y-114680105D01*
X135938517Y-114671494D01*
X135923704Y-114654840D01*
X135904047Y-114643790D01*
X135882332Y-114639596D01*
X135861345Y-114643512D01*
X135854737Y-114646686D01*
X135835179Y-114661877D01*
X135822796Y-114681282D01*
X135817794Y-114702915D01*
X135214218Y-114702915D01*
X135212139Y-114700116D01*
X135193613Y-114674113D01*
X135171548Y-114642314D01*
X135146421Y-114605393D01*
X135118714Y-114564024D01*
X135007515Y-114396800D01*
X134864964Y-114396800D01*
X134722412Y-114396800D01*
X134722412Y-114811800D01*
X134722412Y-115226800D01*
X134783813Y-115226800D01*
X134845214Y-115226800D01*
X134899745Y-115105550D01*
X134920057Y-115060436D01*
X134939043Y-115018457D01*
X134954731Y-114984095D01*
X134967527Y-114956553D01*
X134972530Y-114946104D01*
X135433582Y-114946104D01*
X135440736Y-114968434D01*
X135456535Y-114988505D01*
X135470449Y-114997448D01*
X135492080Y-115002678D01*
X135514721Y-115000805D01*
X135535377Y-114992186D01*
X135551050Y-114977181D01*
X135560365Y-114955717D01*
X135561842Y-114932553D01*
X135555994Y-114910390D01*
X135543481Y-114891710D01*
X135524964Y-114878999D01*
X135522673Y-114878061D01*
X135503324Y-114872599D01*
X135486269Y-114874025D01*
X135467024Y-114882618D01*
X135461987Y-114885715D01*
X135444406Y-114902728D01*
X135434872Y-114923530D01*
X135433582Y-114946104D01*
X134972530Y-114946104D01*
X134977832Y-114935032D01*
X134986052Y-114918735D01*
X134992590Y-114906863D01*
X134997849Y-114898619D01*
X135002235Y-114893204D01*
X135006149Y-114889821D01*
X135009997Y-114887671D01*
X135011201Y-114887218D01*
X135020812Y-114885497D01*
X135037985Y-114884124D01*
X135063208Y-114883084D01*
X135096968Y-114882360D01*
X135139750Y-114881937D01*
X135192041Y-114881800D01*
X135361199Y-114881800D01*
X135367101Y-114867551D01*
X135368422Y-114864673D01*
X135380253Y-114847516D01*
X135397977Y-114829493D01*
X135418797Y-114813158D01*
X135439912Y-114801068D01*
X135468186Y-114792512D01*
X135499896Y-114789593D01*
X135531083Y-114792373D01*
X135557905Y-114800856D01*
X135588371Y-114819148D01*
X135613409Y-114843352D01*
X135632834Y-114874398D01*
X135636065Y-114881038D01*
X135642859Y-114896701D01*
X135646332Y-114910025D01*
X135647262Y-114925106D01*
X135646965Y-114932553D01*
X135646426Y-114946041D01*
X135645674Y-114956876D01*
X135642849Y-114977799D01*
X135637680Y-114994858D01*
X135629035Y-115012371D01*
X135619391Y-115027053D01*
X135597204Y-115051005D01*
X135571110Y-115070154D01*
X135544134Y-115082017D01*
X135536081Y-115083924D01*
X135507713Y-115086741D01*
X135477343Y-115085123D01*
X135448787Y-115079455D01*
X135425861Y-115070120D01*
X135420958Y-115067096D01*
X135394820Y-115045680D01*
X135373100Y-115019125D01*
X135358544Y-114990672D01*
X135350065Y-114966800D01*
X135202489Y-114966862D01*
X135054912Y-114966924D01*
X134982890Y-115128112D01*
X134968441Y-115160227D01*
X134952045Y-115196123D01*
X134936986Y-115228514D01*
X134923803Y-115256270D01*
X134913032Y-115278261D01*
X134905211Y-115293359D01*
X134900879Y-115300432D01*
X134898167Y-115303246D01*
X134893486Y-115306613D01*
X134886788Y-115308993D01*
X134876478Y-115310600D01*
X134860958Y-115311649D01*
X134838631Y-115312355D01*
X134807901Y-115312932D01*
X134724912Y-115314300D01*
X134723443Y-115350550D01*
X134721974Y-115386800D01*
X134912317Y-115386800D01*
X135102660Y-115386800D01*
X135107816Y-115373050D01*
X135114686Y-115357930D01*
X135135013Y-115329553D01*
X135161868Y-115306395D01*
X135193332Y-115289611D01*
X135227486Y-115280359D01*
X135262412Y-115279796D01*
X135283711Y-115283784D01*
X135317765Y-115297015D01*
X135346347Y-115316960D01*
X135368986Y-115342303D01*
X135385211Y-115371729D01*
X135394549Y-115403921D01*
X135395906Y-115426977D01*
X135396529Y-115437565D01*
X135390679Y-115471346D01*
X135376527Y-115503946D01*
X135353601Y-115534052D01*
X135347509Y-115539991D01*
X135318342Y-115560652D01*
X135285914Y-115573198D01*
X135251808Y-115577896D01*
X135217607Y-115575014D01*
X135184892Y-115564821D01*
X135155245Y-115547584D01*
X135130248Y-115523570D01*
X135111483Y-115493050D01*
X135101945Y-115471800D01*
X134912179Y-115471800D01*
X134722412Y-115471800D01*
X134722412Y-115649300D01*
X134722412Y-115826800D01*
X134774187Y-115826800D01*
X134825962Y-115826800D01*
X134877691Y-115748880D01*
X134893934Y-115724802D01*
X134909758Y-115702116D01*
X134923343Y-115683423D01*
X134933622Y-115670189D01*
X134939529Y-115663880D01*
X134942640Y-115662970D01*
X134955186Y-115661583D01*
X134976014Y-115660356D01*
X135004051Y-115659288D01*
X135038223Y-115658381D01*
X135077460Y-115657637D01*
X135120687Y-115657056D01*
X135166833Y-115656639D01*
X135214826Y-115656388D01*
X135263592Y-115656303D01*
X135312059Y-115656386D01*
X135359156Y-115656638D01*
X135403808Y-115657060D01*
X135444945Y-115657653D01*
X135481493Y-115658419D01*
X135512380Y-115659358D01*
X135536534Y-115660471D01*
X135552882Y-115661761D01*
X135560351Y-115663227D01*
X135563160Y-115665492D01*
X135572657Y-115674608D01*
X135587462Y-115689631D01*
X135606690Y-115709635D01*
X135629455Y-115733698D01*
X135654873Y-115760896D01*
X135682059Y-115790304D01*
X135793329Y-115911308D01*
X135818301Y-115891568D01*
X135825038Y-115886514D01*
X135858750Y-115868179D01*
X135894414Y-115858973D01*
X135930584Y-115858762D01*
X135965814Y-115867415D01*
X135998658Y-115884798D01*
X136027670Y-115910778D01*
X136029993Y-115913479D01*
X136049293Y-115943478D01*
X136059741Y-115977361D01*
X136061145Y-116006361D01*
X136061610Y-116015967D01*
X136059776Y-116032565D01*
X136049385Y-116067765D01*
X136031391Y-116098281D01*
X136007046Y-116123236D01*
X135977598Y-116141751D01*
X135944297Y-116152947D01*
X135908393Y-116155946D01*
X135871135Y-116149870D01*
X135858168Y-116145493D01*
X135824977Y-116127570D01*
X135798060Y-116102227D01*
X135778098Y-116070224D01*
X135765771Y-116032318D01*
X135760427Y-116006118D01*
X135848467Y-116006118D01*
X135851777Y-116029182D01*
X135863149Y-116049215D01*
X135881943Y-116064057D01*
X135898385Y-116069941D01*
X135922753Y-116070578D01*
X135945579Y-116062209D01*
X135963324Y-116048164D01*
X135974105Y-116029942D01*
X135977412Y-116006361D01*
X135974729Y-115987354D01*
X135964793Y-115967835D01*
X135949332Y-115953573D01*
X135930262Y-115945028D01*
X135909495Y-115942660D01*
X135888948Y-115946930D01*
X135870535Y-115958298D01*
X135856170Y-115977224D01*
X135853860Y-115982182D01*
X135848467Y-116006118D01*
X135760427Y-116006118D01*
X135759358Y-116000879D01*
X135640640Y-115871339D01*
X135521923Y-115741800D01*
X135252956Y-115741800D01*
X134983990Y-115741800D01*
X134930568Y-115821974D01*
X134925714Y-115829228D01*
X134903389Y-115861621D01*
X134885777Y-115885325D01*
X134872818Y-115900417D01*
X134864454Y-115906974D01*
X134863971Y-115907143D01*
X134853487Y-115908957D01*
X134835592Y-115910437D01*
X134812665Y-115911434D01*
X134787087Y-115911800D01*
X134722412Y-115911800D01*
X134722412Y-115997484D01*
X134722412Y-116010892D01*
X134722362Y-116030958D01*
X134721797Y-116067589D01*
X134720348Y-116096664D01*
X134717696Y-116119846D01*
X134713522Y-116138798D01*
X134707508Y-116155182D01*
X134699335Y-116170662D01*
X134688684Y-116186899D01*
X134676694Y-116202479D01*
X134645010Y-116232425D01*
X134607892Y-116254130D01*
X134565848Y-116267340D01*
X134519386Y-116271800D01*
X134482412Y-116271800D01*
X134482412Y-116458379D01*
X134482412Y-116644959D01*
X134510954Y-116656789D01*
X134518740Y-116660280D01*
X134549885Y-116680396D01*
X134574746Y-116707065D01*
X134591760Y-116738703D01*
X134598867Y-116763184D01*
X134600818Y-116785030D01*
X134602198Y-116800474D01*
X134596821Y-116836276D01*
X134583206Y-116869137D01*
X134561822Y-116897602D01*
X134533139Y-116920216D01*
X134507494Y-116932809D01*
X134470861Y-116942309D01*
X134434561Y-116942644D01*
X134399885Y-116934177D01*
X134368123Y-116917274D01*
X134340568Y-116892299D01*
X134318510Y-116859617D01*
X134313212Y-116848564D01*
X134308337Y-116833881D01*
X134305991Y-116817103D01*
X134305384Y-116794300D01*
X134387450Y-116794300D01*
X134387636Y-116797886D01*
X134393081Y-116816746D01*
X134404189Y-116835111D01*
X134418424Y-116848537D01*
X134434191Y-116856033D01*
X134456341Y-116859061D01*
X134477024Y-116854382D01*
X134494852Y-116843319D01*
X134508436Y-116827192D01*
X134516386Y-116807322D01*
X134517313Y-116785030D01*
X134509828Y-116761636D01*
X134500507Y-116749450D01*
X134482519Y-116737667D01*
X134460926Y-116731533D01*
X134438813Y-116731812D01*
X134419266Y-116739263D01*
X134416422Y-116741279D01*
X134401951Y-116756533D01*
X134391481Y-116775612D01*
X134387450Y-116794300D01*
X134305384Y-116794300D01*
X134305658Y-116777626D01*
X134307390Y-116759428D01*
X134311411Y-116744523D01*
X134318510Y-116728982D01*
X134329733Y-116711206D01*
X134347340Y-116690321D01*
X134366812Y-116672496D01*
X134385181Y-116660767D01*
X134397412Y-116655194D01*
X134397412Y-116463497D01*
X134397412Y-116271800D01*
X134302412Y-116271800D01*
X134207412Y-116271800D01*
X134207412Y-116456564D01*
X134207403Y-116472263D01*
X134207193Y-116525558D01*
X134206702Y-116569236D01*
X134205920Y-116603596D01*
X134204839Y-116628938D01*
X134203451Y-116645561D01*
X134201746Y-116653765D01*
X134201215Y-116654661D01*
X134193440Y-116662230D01*
X134177208Y-116674892D01*
X134152606Y-116692587D01*
X134119720Y-116715252D01*
X134078638Y-116742827D01*
X134029447Y-116775250D01*
X133862814Y-116884300D01*
X133862613Y-117114790D01*
X133862412Y-117345281D01*
X133881924Y-117354079D01*
X133883521Y-117354818D01*
X133909157Y-117371995D01*
X133931946Y-117397144D01*
X133950180Y-117428404D01*
X133955019Y-117439572D01*
X133960120Y-117455556D01*
X133962030Y-117471915D01*
X133961773Y-117484278D01*
X133961583Y-117493404D01*
X133961156Y-117499539D01*
X133953299Y-117537908D01*
X133937370Y-117571224D01*
X133914272Y-117598628D01*
X133884906Y-117619264D01*
X133850173Y-117632272D01*
X133810975Y-117636796D01*
X133788633Y-117635013D01*
X133753567Y-117624667D01*
X133722070Y-117605925D01*
X133695574Y-117579738D01*
X133675514Y-117547054D01*
X133675366Y-117546730D01*
X133666828Y-117517733D01*
X133665112Y-117492040D01*
X133748115Y-117492040D01*
X133753012Y-117512733D01*
X133766678Y-117532607D01*
X133768217Y-117534303D01*
X133778484Y-117543341D01*
X133790278Y-117548047D01*
X133807823Y-117550232D01*
X133820688Y-117550340D01*
X133844831Y-117544807D01*
X133862633Y-117531669D01*
X133873643Y-117511350D01*
X133877412Y-117484278D01*
X133876370Y-117468828D01*
X133871537Y-117456676D01*
X133860707Y-117444094D01*
X133855966Y-117439689D01*
X133842383Y-117429630D01*
X133830674Y-117424044D01*
X133818029Y-117422231D01*
X133794857Y-117425434D01*
X133774194Y-117436001D01*
X133758373Y-117452503D01*
X133749730Y-117473514D01*
X133748115Y-117492040D01*
X133665112Y-117492040D01*
X133664639Y-117484962D01*
X133668696Y-117452234D01*
X133678893Y-117423362D01*
X133694401Y-117398635D01*
X133721092Y-117370852D01*
X133753063Y-117351022D01*
X133777412Y-117340017D01*
X133777412Y-117093926D01*
X133777412Y-116847835D01*
X133793778Y-116833567D01*
X133793798Y-116833550D01*
X133801706Y-116827549D01*
X133816931Y-116816799D01*
X133838422Y-116802016D01*
X133865125Y-116783910D01*
X133895989Y-116763197D01*
X133929962Y-116740589D01*
X133965992Y-116716800D01*
X134121841Y-116614300D01*
X134122127Y-116443050D01*
X134122412Y-116271800D01*
X133704912Y-116271800D01*
X133287412Y-116271800D01*
X133287412Y-116359171D01*
X133287412Y-116446543D01*
X133303662Y-116454992D01*
X133306946Y-116456618D01*
X133319610Y-116462605D01*
X133339515Y-116471841D01*
X133365422Y-116483755D01*
X133396090Y-116497779D01*
X133430280Y-116513344D01*
X133466753Y-116529879D01*
X133486565Y-116538882D01*
X133521392Y-116554901D01*
X133552947Y-116569659D01*
X133580058Y-116582594D01*
X133601553Y-116593142D01*
X133616258Y-116600743D01*
X133623003Y-116604834D01*
X133624548Y-116606379D01*
X133626764Y-116609717D01*
X133628520Y-116614846D01*
X133629871Y-116622792D01*
X133630868Y-116634583D01*
X133631565Y-116651242D01*
X133632015Y-116673798D01*
X133632271Y-116703275D01*
X133632386Y-116740700D01*
X133632412Y-116787099D01*
X133632412Y-116960849D01*
X133654493Y-116973789D01*
X133659374Y-116976776D01*
X133687996Y-117000573D01*
X133709304Y-117029899D01*
X133722834Y-117063168D01*
X133727500Y-117094603D01*
X133728123Y-117098797D01*
X133724707Y-117135203D01*
X133712122Y-117170801D01*
X133709816Y-117175303D01*
X133693314Y-117200988D01*
X133672884Y-117220948D01*
X133645495Y-117238253D01*
X133634757Y-117243219D01*
X133621303Y-117246907D01*
X133604050Y-117248749D01*
X133579912Y-117249264D01*
X133567842Y-117249208D01*
X133548786Y-117248427D01*
X133534724Y-117246171D01*
X133522294Y-117241749D01*
X133508135Y-117234468D01*
X133488395Y-117221652D01*
X133462183Y-117196419D01*
X133443748Y-117167218D01*
X133433007Y-117135386D01*
X133429873Y-117102257D01*
X133429966Y-117101557D01*
X133513970Y-117101557D01*
X133517440Y-117121842D01*
X133526736Y-117141052D01*
X133540046Y-117154847D01*
X133545677Y-117158241D01*
X133569782Y-117166774D01*
X133593227Y-117166480D01*
X133614240Y-117157987D01*
X133631050Y-117141918D01*
X133641885Y-117118899D01*
X133642134Y-117117969D01*
X133643682Y-117094603D01*
X133636952Y-117073437D01*
X133623587Y-117056018D01*
X133605228Y-117043897D01*
X133583516Y-117038621D01*
X133560093Y-117041740D01*
X133558486Y-117042301D01*
X133538782Y-117054247D01*
X133523207Y-117072572D01*
X133514646Y-117093961D01*
X133513970Y-117101557D01*
X133429966Y-117101557D01*
X133434262Y-117069166D01*
X133446089Y-117037450D01*
X133465268Y-117008442D01*
X133491716Y-116983479D01*
X133525347Y-116963895D01*
X133552564Y-116951859D01*
X133551238Y-116806035D01*
X133549912Y-116660212D01*
X133494912Y-116635520D01*
X133481029Y-116629285D01*
X133424986Y-116604063D01*
X133377291Y-116582488D01*
X133337285Y-116564248D01*
X133304314Y-116549032D01*
X133277719Y-116536527D01*
X133256844Y-116526423D01*
X133241033Y-116518406D01*
X133229629Y-116512167D01*
X133221974Y-116507391D01*
X133217412Y-116503769D01*
X133216935Y-116503303D01*
X133212969Y-116499156D01*
X133209965Y-116494587D01*
X133207767Y-116488228D01*
X133206215Y-116478710D01*
X133205151Y-116464667D01*
X133204419Y-116444728D01*
X133203859Y-116417527D01*
X133203313Y-116381696D01*
X133201713Y-116271800D01*
X133167063Y-116271800D01*
X133132412Y-116271800D01*
X133132412Y-116490795D01*
X133132412Y-116709791D01*
X133150486Y-116716326D01*
X133161093Y-116721180D01*
X133183142Y-116736589D01*
X133204204Y-116757523D01*
X133221439Y-116781381D01*
X133225668Y-116788904D01*
X133230569Y-116800089D01*
X133233360Y-116812309D01*
X133234613Y-116828551D01*
X133234889Y-116851013D01*
X133234899Y-116851800D01*
X133234082Y-116877616D01*
X133230162Y-116902974D01*
X133221864Y-116923816D01*
X133207949Y-116943045D01*
X133187176Y-116963563D01*
X133175164Y-116973414D01*
X133144185Y-116991302D01*
X133112226Y-117000547D01*
X133080275Y-117001912D01*
X133049324Y-116996161D01*
X133020360Y-116984056D01*
X132994374Y-116966362D01*
X132972356Y-116943841D01*
X132955295Y-116917258D01*
X132944181Y-116887375D01*
X132940121Y-116855861D01*
X133024678Y-116855861D01*
X133028977Y-116878301D01*
X133041224Y-116896953D01*
X133060774Y-116909982D01*
X133067783Y-116912605D01*
X133093207Y-116916517D01*
X133116193Y-116910836D01*
X133136282Y-116895647D01*
X133137229Y-116894608D01*
X133150192Y-116873566D01*
X133154212Y-116851013D01*
X133149671Y-116828898D01*
X133136947Y-116809173D01*
X133116423Y-116793788D01*
X133108626Y-116790410D01*
X133085821Y-116787074D01*
X133063866Y-116792406D01*
X133044943Y-116805588D01*
X133031234Y-116825798D01*
X133028972Y-116831472D01*
X133024678Y-116855861D01*
X132940121Y-116855861D01*
X132940004Y-116854956D01*
X132943752Y-116820765D01*
X132956417Y-116785564D01*
X132974009Y-116756982D01*
X132997685Y-116733725D01*
X133028623Y-116715794D01*
X133047412Y-116707288D01*
X133047412Y-116489544D01*
X133047412Y-116271800D01*
X132869912Y-116271800D01*
X132692412Y-116271800D01*
X132692412Y-116351782D01*
X132692412Y-116431765D01*
X132771776Y-116484647D01*
X132790500Y-116497311D01*
X132816331Y-116515542D01*
X132836663Y-116530902D01*
X132850482Y-116542614D01*
X132856776Y-116549899D01*
X132857381Y-116552293D01*
X132858583Y-116564247D01*
X132859627Y-116584555D01*
X132860514Y-116612138D01*
X132861246Y-116645915D01*
X132861825Y-116684808D01*
X132862251Y-116727737D01*
X132862526Y-116773621D01*
X132862652Y-116821382D01*
X132862629Y-116869939D01*
X132862460Y-116918214D01*
X132862145Y-116965127D01*
X132861686Y-117009598D01*
X132861084Y-117050547D01*
X132860342Y-117086895D01*
X132859459Y-117117562D01*
X132858438Y-117141469D01*
X132857279Y-117157536D01*
X132855985Y-117164684D01*
X132853685Y-117167522D01*
X132844530Y-117177036D01*
X132829471Y-117191854D01*
X132809432Y-117211091D01*
X132785335Y-117233865D01*
X132758104Y-117259292D01*
X132728662Y-117286489D01*
X132709307Y-117304320D01*
X132681769Y-117329856D01*
X132657302Y-117352741D01*
X132636770Y-117372158D01*
X132621036Y-117387289D01*
X132610962Y-117397315D01*
X132607412Y-117401419D01*
X132607753Y-117402498D01*
X132612828Y-117409328D01*
X132622050Y-117418952D01*
X132627646Y-117424776D01*
X132645117Y-117451323D01*
X132656012Y-117482780D01*
X132659989Y-117516787D01*
X132659428Y-117522631D01*
X132656706Y-117550981D01*
X132645819Y-117582999D01*
X132645547Y-117583550D01*
X132625284Y-117614224D01*
X132598462Y-117639487D01*
X132567412Y-117657135D01*
X132553159Y-117661740D01*
X132521104Y-117666193D01*
X132487255Y-117664487D01*
X132455636Y-117656641D01*
X132437755Y-117647722D01*
X132413336Y-117629373D01*
X132391311Y-117606324D01*
X132374693Y-117581375D01*
X132371274Y-117573099D01*
X132366148Y-117551335D01*
X132363475Y-117525774D01*
X132363513Y-117515353D01*
X132448045Y-117515353D01*
X132449898Y-117537070D01*
X132458439Y-117556610D01*
X132473903Y-117571570D01*
X132491622Y-117579767D01*
X132515557Y-117582829D01*
X132537995Y-117577376D01*
X132556991Y-117563980D01*
X132570603Y-117543210D01*
X132576068Y-117522631D01*
X132573947Y-117499224D01*
X132562700Y-117478762D01*
X132542801Y-117462618D01*
X132540597Y-117461399D01*
X132521783Y-117453553D01*
X132504699Y-117452846D01*
X132484861Y-117458999D01*
X132480283Y-117461169D01*
X132463472Y-117474998D01*
X132452648Y-117493861D01*
X132448045Y-117515353D01*
X132363513Y-117515353D01*
X132363567Y-117500407D01*
X132366733Y-117479223D01*
X132374349Y-117458156D01*
X132393491Y-117427129D01*
X132419610Y-117401325D01*
X132451096Y-117382199D01*
X132486340Y-117371204D01*
X132517145Y-117365778D01*
X132647279Y-117246067D01*
X132777412Y-117126356D01*
X132777306Y-116857828D01*
X132777200Y-116589300D01*
X132701883Y-116539550D01*
X132680624Y-116525278D01*
X132657578Y-116509251D01*
X132638246Y-116495206D01*
X132624194Y-116484283D01*
X132616989Y-116477625D01*
X132614161Y-116473508D01*
X132611556Y-116467444D01*
X132609717Y-116458789D01*
X132608514Y-116446061D01*
X132607815Y-116427779D01*
X132607491Y-116402461D01*
X132607412Y-116368625D01*
X132607412Y-116271800D01*
X132511162Y-116271677D01*
X132480468Y-116271398D01*
X132450763Y-116270664D01*
X132425017Y-116269562D01*
X132405243Y-116268181D01*
X132393455Y-116266606D01*
X132388814Y-116265470D01*
X132349016Y-116250217D01*
X132313183Y-116226630D01*
X132282914Y-116195990D01*
X132259809Y-116159579D01*
X132252699Y-116143544D01*
X132247776Y-116127289D01*
X132244896Y-116108452D01*
X132243255Y-116083329D01*
X132241220Y-116036800D01*
X132017204Y-116036800D01*
X131793188Y-116036800D01*
X131787077Y-116055550D01*
X131782430Y-116067926D01*
X131764294Y-116098978D01*
X131739993Y-116123728D01*
X131711002Y-116141790D01*
X131678796Y-116152778D01*
X131644850Y-116156307D01*
X131610641Y-116151990D01*
X131577642Y-116139442D01*
X131547330Y-116118276D01*
X131538037Y-116109373D01*
X131515241Y-116079928D01*
X131501813Y-116047615D01*
X131497412Y-116011708D01*
X131497450Y-116010598D01*
X131580873Y-116010598D01*
X131586947Y-116033404D01*
X131602147Y-116054045D01*
X131605655Y-116057164D01*
X131626200Y-116068373D01*
X131648712Y-116071360D01*
X131670793Y-116066564D01*
X131690043Y-116054426D01*
X131704063Y-116035384D01*
X131710775Y-116016790D01*
X131711088Y-115997484D01*
X131703276Y-115977108D01*
X131702086Y-115974987D01*
X131686542Y-115957176D01*
X131666331Y-115946323D01*
X131643885Y-115942847D01*
X131621631Y-115947164D01*
X131602001Y-115959694D01*
X131596115Y-115965991D01*
X131583928Y-115987501D01*
X131580873Y-116010598D01*
X131497450Y-116010598D01*
X131497898Y-115997585D01*
X131505076Y-115959035D01*
X131520840Y-115925614D01*
X131545192Y-115897314D01*
X131578135Y-115874131D01*
X131578530Y-115873913D01*
X131593778Y-115866227D01*
X131607332Y-115861818D01*
X131623080Y-115859827D01*
X131644912Y-115859396D01*
X131661771Y-115859718D01*
X131679874Y-115861506D01*
X131694709Y-115865580D01*
X131710201Y-115872743D01*
X131726731Y-115882782D01*
X131748634Y-115900292D01*
X131766537Y-115919435D01*
X131777759Y-115937636D01*
X131783626Y-115951800D01*
X132013019Y-115951800D01*
X132242412Y-115951800D01*
X132242412Y-115856800D01*
X132242412Y-115761800D01*
X132021162Y-115761726D01*
X131964521Y-115761632D01*
X131916539Y-115761378D01*
X131877228Y-115760945D01*
X131845923Y-115760315D01*
X131821955Y-115759472D01*
X131804659Y-115758396D01*
X131793367Y-115757070D01*
X131787412Y-115755476D01*
X131784893Y-115753482D01*
X131776079Y-115743370D01*
X131762403Y-115725398D01*
X131744157Y-115699978D01*
X131721632Y-115667518D01*
X131695120Y-115628430D01*
X131664912Y-115583124D01*
X131554912Y-115416948D01*
X131324205Y-115416874D01*
X131093497Y-115416800D01*
X131090568Y-115428466D01*
X131085603Y-115439455D01*
X131073549Y-115455877D01*
X131057138Y-115473158D01*
X131038691Y-115488903D01*
X131020529Y-115500716D01*
X131005811Y-115507648D01*
X130991929Y-115511755D01*
X130975341Y-115513708D01*
X130952412Y-115514229D01*
X130945738Y-115514219D01*
X130925531Y-115513584D01*
X130910760Y-115511424D01*
X130897822Y-115506971D01*
X130883118Y-115499459D01*
X130871258Y-115492245D01*
X130842774Y-115468018D01*
X130822026Y-115439382D01*
X130808977Y-115407716D01*
X130803591Y-115374402D01*
X130803834Y-115370751D01*
X130888442Y-115370751D01*
X130892443Y-115391363D01*
X130903450Y-115409773D01*
X130921943Y-115424057D01*
X130939050Y-115430127D01*
X130962148Y-115430586D01*
X130983455Y-115423208D01*
X131001047Y-115409168D01*
X131013001Y-115389640D01*
X131017394Y-115365798D01*
X131016906Y-115358527D01*
X131009553Y-115336768D01*
X130994972Y-115318701D01*
X130975235Y-115306365D01*
X130952412Y-115301800D01*
X130932915Y-115304722D01*
X130913683Y-115314922D01*
X130899541Y-115330608D01*
X130890967Y-115349859D01*
X130888442Y-115370751D01*
X130803834Y-115370751D01*
X130805830Y-115340820D01*
X130815657Y-115308350D01*
X130833035Y-115278372D01*
X130857928Y-115252266D01*
X130890298Y-115231414D01*
X130916773Y-115222197D01*
X130950999Y-115218448D01*
X130985904Y-115222148D01*
X131018321Y-115233250D01*
X131046335Y-115250722D01*
X131070100Y-115274889D01*
X131089982Y-115306937D01*
X131102534Y-115331706D01*
X131351223Y-115333003D01*
X131599912Y-115334300D01*
X131620853Y-115365798D01*
X131713764Y-115505550D01*
X131827615Y-115676800D01*
X132035014Y-115676800D01*
X132242412Y-115676800D01*
X132242412Y-115259214D01*
X132242412Y-114841628D01*
X132116214Y-114842964D01*
X131990015Y-114844300D01*
X131917464Y-115005060D01*
X131902920Y-115037076D01*
X131886442Y-115072834D01*
X131871335Y-115105067D01*
X131858138Y-115132655D01*
X131857829Y-115133282D01*
X131847389Y-115154473D01*
X131839626Y-115169399D01*
X131835388Y-115176310D01*
X131832618Y-115179070D01*
X131829119Y-115181323D01*
X131823894Y-115183090D01*
X131815909Y-115184429D01*
X131804129Y-115185400D01*
X131787521Y-115186062D01*
X131765049Y-115186473D01*
X131735680Y-115186694D01*
X131698379Y-115186783D01*
X131652113Y-115186800D01*
X131478363Y-115186800D01*
X131465579Y-115208614D01*
X131464954Y-115209672D01*
X131441405Y-115240425D01*
X131412578Y-115262971D01*
X131379213Y-115276872D01*
X131342053Y-115281690D01*
X131317013Y-115280488D01*
X131285840Y-115273572D01*
X131258454Y-115259512D01*
X131232042Y-115237170D01*
X131218121Y-115221571D01*
X131198453Y-115189270D01*
X131188430Y-115154541D01*
X131188287Y-115135623D01*
X131272431Y-115135623D01*
X131273117Y-115146898D01*
X131277770Y-115160487D01*
X131288662Y-115174468D01*
X131294155Y-115179894D01*
X131315550Y-115193567D01*
X131338156Y-115198268D01*
X131360193Y-115194223D01*
X131379876Y-115181661D01*
X131395424Y-115160810D01*
X131397708Y-115155826D01*
X131401919Y-115133282D01*
X131397625Y-115110879D01*
X131385676Y-115091130D01*
X131366924Y-115076550D01*
X131364780Y-115075473D01*
X131345971Y-115068326D01*
X131329220Y-115067904D01*
X131309861Y-115073999D01*
X131305561Y-115076035D01*
X131288142Y-115090493D01*
X131276613Y-115111155D01*
X131272431Y-115135623D01*
X131188287Y-115135623D01*
X131188152Y-115117842D01*
X131197717Y-115079632D01*
X131209025Y-115056221D01*
X131231161Y-115028090D01*
X131259071Y-115006320D01*
X131291147Y-114991588D01*
X131325777Y-114984567D01*
X131361353Y-114985934D01*
X131396263Y-114996363D01*
X131405668Y-115001203D01*
X131428529Y-115017536D01*
X131450077Y-115038465D01*
X131467663Y-115061204D01*
X131478635Y-115082966D01*
X131485746Y-115104300D01*
X131632749Y-115104300D01*
X131779752Y-115104300D01*
X131853110Y-114941948D01*
X131872967Y-114898358D01*
X131893468Y-114854374D01*
X131910340Y-114819473D01*
X131923637Y-114793548D01*
X131933412Y-114776492D01*
X131939719Y-114768198D01*
X131940686Y-114767370D01*
X131944712Y-114764249D01*
X131949357Y-114761812D01*
X131955793Y-114759975D01*
X131965193Y-114758652D01*
X131978729Y-114757759D01*
X131997574Y-114757212D01*
X132022901Y-114756927D01*
X132055883Y-114756817D01*
X132097691Y-114756800D01*
X132242412Y-114756800D01*
X132242412Y-114721800D01*
X132242412Y-114686800D01*
X131987480Y-114686800D01*
X131732547Y-114686800D01*
X131724735Y-114705550D01*
X131720272Y-114714535D01*
X131704239Y-114736649D01*
X131682582Y-114757939D01*
X131657996Y-114775575D01*
X131655936Y-114776770D01*
X131640016Y-114784079D01*
X131621799Y-114788424D01*
X131597461Y-114790766D01*
X131576281Y-114791513D01*
X131560296Y-114790327D01*
X131545667Y-114786460D01*
X131528068Y-114779191D01*
X131507771Y-114768479D01*
X131478463Y-114744949D01*
X131457265Y-114715694D01*
X131444463Y-114681162D01*
X131441569Y-114653531D01*
X131523646Y-114653531D01*
X131530518Y-114673844D01*
X131545651Y-114692564D01*
X131546853Y-114693587D01*
X131564294Y-114702843D01*
X131585580Y-114707339D01*
X131605654Y-114705948D01*
X131618659Y-114700405D01*
X131635839Y-114685793D01*
X131647855Y-114666425D01*
X131652339Y-114645376D01*
X132662412Y-114645376D01*
X132662412Y-115036800D01*
X132662412Y-115856800D01*
X133482412Y-115856800D01*
X134302412Y-115856800D01*
X134302412Y-115431757D01*
X135182548Y-115431757D01*
X135187300Y-115453360D01*
X135199270Y-115472583D01*
X135218463Y-115487275D01*
X135221083Y-115488598D01*
X135238192Y-115495197D01*
X135252934Y-115495504D01*
X135269912Y-115489741D01*
X135279321Y-115484742D01*
X135297168Y-115468706D01*
X135307894Y-115448769D01*
X135311374Y-115426977D01*
X135307485Y-115405377D01*
X135296103Y-115386014D01*
X135277104Y-115370936D01*
X135259459Y-115363735D01*
X135240232Y-115362901D01*
X135218828Y-115370149D01*
X135211528Y-115374188D01*
X135194668Y-115390019D01*
X135185006Y-115409926D01*
X135182548Y-115431757D01*
X134302412Y-115431757D01*
X134302412Y-115036800D01*
X134302412Y-114216800D01*
X133482412Y-114216800D01*
X132662412Y-114216800D01*
X132662412Y-114645376D01*
X131652339Y-114645376D01*
X131649889Y-114623668D01*
X131640482Y-114604134D01*
X131622850Y-114588200D01*
X131618869Y-114585686D01*
X131597242Y-114577500D01*
X131576544Y-114577633D01*
X131557821Y-114584670D01*
X131542123Y-114597194D01*
X131530496Y-114613790D01*
X131523988Y-114633041D01*
X131523646Y-114653531D01*
X131441569Y-114653531D01*
X131440341Y-114641800D01*
X131441200Y-114625364D01*
X131449557Y-114587802D01*
X131466553Y-114555145D01*
X131491898Y-114527861D01*
X131525298Y-114506414D01*
X131526972Y-114505612D01*
X131555211Y-114496852D01*
X131587444Y-114493817D01*
X131619704Y-114496548D01*
X131648025Y-114505090D01*
X131678121Y-114523263D01*
X131704197Y-114548072D01*
X131722870Y-114576729D01*
X131734773Y-114601800D01*
X131988593Y-114601800D01*
X132242412Y-114601800D01*
X132242412Y-114424300D01*
X132242412Y-114246800D01*
X132124847Y-114246800D01*
X132007282Y-114246800D01*
X131957085Y-114323050D01*
X131942241Y-114345109D01*
X131926028Y-114368110D01*
X131911714Y-114387289D01*
X131900453Y-114401107D01*
X131893400Y-114408023D01*
X131892881Y-114408350D01*
X131889297Y-114410141D01*
X131884336Y-114411659D01*
X131877213Y-114412927D01*
X131867144Y-114413967D01*
X131853345Y-114414802D01*
X131835033Y-114415454D01*
X131811424Y-114415945D01*
X131781734Y-114416298D01*
X131745179Y-114416535D01*
X131700976Y-114416678D01*
X131648340Y-114416750D01*
X131586488Y-114416773D01*
X131552626Y-114416749D01*
X131497572Y-114416587D01*
X131446950Y-114416284D01*
X131401555Y-114415850D01*
X131362184Y-114415298D01*
X131329632Y-114414640D01*
X131304693Y-114413888D01*
X131288163Y-114413055D01*
X131280837Y-114412151D01*
X131277067Y-114409520D01*
X131266641Y-114400084D01*
X131251025Y-114384758D01*
X131231099Y-114364445D01*
X131207744Y-114340044D01*
X131181838Y-114312456D01*
X131154262Y-114282581D01*
X131039912Y-114157659D01*
X131022412Y-114174483D01*
X130994873Y-114195038D01*
X130961713Y-114209120D01*
X130926455Y-114214961D01*
X130891514Y-114211870D01*
X130857059Y-114199630D01*
X130826397Y-114179574D01*
X130801867Y-114153416D01*
X130784239Y-114122520D01*
X130774279Y-114088245D01*
X130773499Y-114069645D01*
X130857796Y-114069645D01*
X130863050Y-114091050D01*
X130875108Y-114109747D01*
X130893828Y-114123450D01*
X130912422Y-114130162D01*
X130931728Y-114130475D01*
X130952104Y-114122663D01*
X130957376Y-114119527D01*
X130974653Y-114102950D01*
X130984391Y-114082271D01*
X130986300Y-114059750D01*
X130980093Y-114037647D01*
X130965479Y-114018221D01*
X130957717Y-114011989D01*
X130935198Y-114001901D01*
X130911091Y-114001348D01*
X130886840Y-114010473D01*
X130884270Y-114012073D01*
X130868264Y-114027867D01*
X130859487Y-114047821D01*
X130857796Y-114069645D01*
X130773499Y-114069645D01*
X130772758Y-114051956D01*
X130780443Y-114015013D01*
X130781568Y-114011907D01*
X130795522Y-113986046D01*
X130815996Y-113961361D01*
X130840205Y-113940738D01*
X130865364Y-113927060D01*
X130892833Y-113919764D01*
X130924621Y-113916873D01*
X130955187Y-113919123D01*
X130980864Y-113926531D01*
X130984568Y-113928277D01*
X131016136Y-113949017D01*
X131042019Y-113976825D01*
X131060837Y-114009870D01*
X131071210Y-114046322D01*
X131072144Y-114051613D01*
X131073990Y-114058210D01*
X131074682Y-114059750D01*
X131077185Y-114065322D01*
X131082410Y-114073802D01*
X131090341Y-114084506D01*
X131101659Y-114098288D01*
X131117043Y-114116001D01*
X131137172Y-114138500D01*
X131162724Y-114166640D01*
X131194379Y-114201274D01*
X131313846Y-114331800D01*
X131582108Y-114331800D01*
X131850370Y-114331800D01*
X131902641Y-114253711D01*
X131919220Y-114229325D01*
X131935100Y-114206709D01*
X131948695Y-114188098D01*
X131958941Y-114174947D01*
X131964775Y-114168711D01*
X131968172Y-114167069D01*
X131976113Y-114165249D01*
X131988814Y-114163872D01*
X132007324Y-114162890D01*
X132032689Y-114162250D01*
X132065957Y-114161904D01*
X132108175Y-114161800D01*
X132241713Y-114161800D01*
X132243047Y-114071016D01*
X135124588Y-114071016D01*
X135130864Y-114092870D01*
X135144822Y-114111549D01*
X135165591Y-114124905D01*
X135181359Y-114130190D01*
X135197189Y-114130642D01*
X135214912Y-114124787D01*
X135216280Y-114124168D01*
X135236384Y-114110364D01*
X135249022Y-114092413D01*
X135254577Y-114072161D01*
X135253427Y-114051452D01*
X135245954Y-114032133D01*
X135232537Y-114016048D01*
X135213557Y-114005044D01*
X135189395Y-114000966D01*
X135187069Y-114000992D01*
X135163371Y-114005295D01*
X135144999Y-114017549D01*
X135130647Y-114038590D01*
X135126861Y-114048135D01*
X135124588Y-114071016D01*
X132243047Y-114071016D01*
X132243313Y-114052919D01*
X132244912Y-113944038D01*
X132261315Y-113910744D01*
X132262925Y-113907559D01*
X132286691Y-113872212D01*
X132318259Y-113842060D01*
X132356285Y-113818409D01*
X132358044Y-113817555D01*
X132373735Y-113810875D01*
X132389289Y-113806617D01*
X132408084Y-113804089D01*
X132433496Y-113802601D01*
X132482412Y-113800636D01*
X132482412Y-113608973D01*
X132482412Y-113417310D01*
X132450202Y-113401937D01*
X132440046Y-113396734D01*
X132408284Y-113374230D01*
X132384893Y-113346274D01*
X132369924Y-113312939D01*
X132363428Y-113274300D01*
X132363580Y-113269420D01*
X132447938Y-113269420D01*
X132452840Y-113291016D01*
X132464199Y-113310002D01*
X132481943Y-113324057D01*
X132495076Y-113329171D01*
X132517189Y-113330892D01*
X132537697Y-113325028D01*
X132555214Y-113313048D01*
X132568352Y-113296418D01*
X132575726Y-113276608D01*
X132575948Y-113255087D01*
X132567633Y-113233321D01*
X132567101Y-113232466D01*
X132556743Y-113219244D01*
X132545559Y-113209263D01*
X132540541Y-113206519D01*
X132520889Y-113201612D01*
X132498711Y-113202365D01*
X132478365Y-113208807D01*
X132472699Y-113212197D01*
X132457796Y-113227688D01*
X132449566Y-113247537D01*
X132447938Y-113269420D01*
X132363580Y-113269420D01*
X132364342Y-113244978D01*
X132373409Y-113208335D01*
X132390945Y-113176112D01*
X132416357Y-113149311D01*
X132449058Y-113128935D01*
X132450254Y-113128387D01*
X132480903Y-113118960D01*
X132514284Y-113116052D01*
X132546941Y-113119641D01*
X132575418Y-113129707D01*
X132595932Y-113142088D01*
X132624737Y-113167520D01*
X132646546Y-113199300D01*
X132649768Y-113206072D01*
X132657975Y-113235005D01*
X132659484Y-113255087D01*
X132660412Y-113267433D01*
X132657040Y-113299657D01*
X132647824Y-113327979D01*
X132636285Y-113347316D01*
X132619167Y-113368347D01*
X132600316Y-113385788D01*
X132582444Y-113396787D01*
X132567412Y-113403013D01*
X132567412Y-113602406D01*
X132567412Y-113801800D01*
X132662412Y-113801800D01*
X132757412Y-113801800D01*
X132757412Y-113607474D01*
X132757414Y-113591329D01*
X132757451Y-113544909D01*
X132757573Y-113507198D01*
X132757828Y-113477210D01*
X132758263Y-113453956D01*
X132758925Y-113436451D01*
X132759861Y-113423707D01*
X132761119Y-113414735D01*
X132762745Y-113408550D01*
X132764787Y-113404164D01*
X132767291Y-113400589D01*
X132767851Y-113399966D01*
X132775591Y-113393542D01*
X132790562Y-113382476D01*
X132811789Y-113367442D01*
X132838295Y-113349118D01*
X132869102Y-113328179D01*
X132903236Y-113305303D01*
X132939718Y-113281165D01*
X133102266Y-113174300D01*
X133102339Y-112943809D01*
X133102412Y-112713318D01*
X133082044Y-112704133D01*
X133079315Y-112702823D01*
X133058796Y-112688747D01*
X133038593Y-112668704D01*
X133021515Y-112645859D01*
X133010373Y-112623380D01*
X133003774Y-112596654D01*
X133003026Y-112572547D01*
X133087412Y-112572547D01*
X133088456Y-112588609D01*
X133093228Y-112601444D01*
X133103834Y-112614866D01*
X133108641Y-112619610D01*
X133128938Y-112631894D01*
X133151345Y-112635976D01*
X133173563Y-112632143D01*
X133193294Y-112620682D01*
X133208238Y-112601878D01*
X133215297Y-112584335D01*
X133216252Y-112563746D01*
X133208276Y-112542108D01*
X133197654Y-112527183D01*
X133179706Y-112513824D01*
X133159352Y-112507869D01*
X133138476Y-112508843D01*
X133118961Y-112516273D01*
X133102689Y-112529683D01*
X133091546Y-112548599D01*
X133087412Y-112572547D01*
X133003026Y-112572547D01*
X133002614Y-112559250D01*
X133010508Y-112523434D01*
X133026917Y-112490567D01*
X133051306Y-112462013D01*
X133083135Y-112439131D01*
X133083175Y-112439109D01*
X133098554Y-112431330D01*
X133112202Y-112426846D01*
X133128021Y-112424792D01*
X133149912Y-112424300D01*
X133159212Y-112424382D01*
X133180748Y-112425750D01*
X133197526Y-112429343D01*
X133213377Y-112435857D01*
X133240668Y-112453101D01*
X133267781Y-112479298D01*
X133287816Y-112509723D01*
X133288826Y-112511849D01*
X133297254Y-112539769D01*
X133299313Y-112563746D01*
X133300004Y-112571797D01*
X133297058Y-112604131D01*
X133288399Y-112632969D01*
X133277704Y-112651915D01*
X133258011Y-112675894D01*
X133234720Y-112695969D01*
X133210794Y-112709228D01*
X133187412Y-112718158D01*
X133187412Y-112962070D01*
X133187412Y-112966266D01*
X133187338Y-113014726D01*
X133187145Y-113060204D01*
X133186848Y-113101696D01*
X133186458Y-113138200D01*
X133185988Y-113168714D01*
X133185450Y-113192235D01*
X133184858Y-113207762D01*
X133184224Y-113214290D01*
X133183384Y-113215358D01*
X133175744Y-113221720D01*
X133160969Y-113232683D01*
X133139965Y-113247617D01*
X133113634Y-113265891D01*
X133082881Y-113286877D01*
X133048610Y-113309944D01*
X133011724Y-113334463D01*
X132842412Y-113446327D01*
X132842412Y-113624063D01*
X132842412Y-113801800D01*
X133260020Y-113801800D01*
X133677628Y-113801800D01*
X133676270Y-113706063D01*
X133674912Y-113610327D01*
X133508860Y-113535279D01*
X133485997Y-113524935D01*
X133446612Y-113507028D01*
X133415002Y-113492463D01*
X133390260Y-113480764D01*
X133371476Y-113471454D01*
X133357741Y-113464054D01*
X133348146Y-113458087D01*
X133341782Y-113453075D01*
X133337740Y-113448542D01*
X133335110Y-113444009D01*
X133334895Y-113443546D01*
X133332776Y-113437419D01*
X133331085Y-113428683D01*
X133329776Y-113416282D01*
X133328806Y-113399161D01*
X133328129Y-113376263D01*
X133327701Y-113346534D01*
X133327477Y-113308917D01*
X133327412Y-113262357D01*
X133327413Y-113096925D01*
X133308662Y-113084907D01*
X133290962Y-113071968D01*
X133264760Y-113044471D01*
X133246745Y-113013222D01*
X133237054Y-112979568D01*
X133236538Y-112964982D01*
X133320928Y-112964982D01*
X133328153Y-112986183D01*
X133343957Y-113006129D01*
X133352134Y-113012035D01*
X133372476Y-113019181D01*
X133395071Y-113019956D01*
X133415975Y-113013931D01*
X133416661Y-113013566D01*
X133428753Y-113003297D01*
X133440341Y-112987801D01*
X133448999Y-112970913D01*
X133452303Y-112956471D01*
X133449187Y-112942418D01*
X133440815Y-112925122D01*
X133429624Y-112909509D01*
X133418054Y-112899631D01*
X133400971Y-112893046D01*
X133378011Y-112891171D01*
X133357546Y-112896784D01*
X133340592Y-112908429D01*
X133328162Y-112924648D01*
X133321269Y-112943985D01*
X133320928Y-112964982D01*
X133236538Y-112964982D01*
X133235827Y-112944853D01*
X133243201Y-112910425D01*
X133259316Y-112877630D01*
X133284308Y-112847813D01*
X133294512Y-112838803D01*
X133324755Y-112819438D01*
X133357668Y-112809267D01*
X133394874Y-112807702D01*
X133395290Y-112807729D01*
X133432098Y-112814738D01*
X133464492Y-112829768D01*
X133491685Y-112851531D01*
X133512894Y-112878739D01*
X133527331Y-112910106D01*
X133534211Y-112944344D01*
X133533716Y-112956471D01*
X133532749Y-112980165D01*
X133522159Y-113016282D01*
X133517552Y-113025464D01*
X133501562Y-113048046D01*
X133480785Y-113069469D01*
X133458066Y-113087028D01*
X133436246Y-113098020D01*
X133414912Y-113105129D01*
X133413584Y-113249386D01*
X133413530Y-113255707D01*
X133413386Y-113293018D01*
X133413549Y-113326560D01*
X133413992Y-113355089D01*
X133414690Y-113377357D01*
X133415614Y-113392118D01*
X133416740Y-113398127D01*
X133420808Y-113400455D01*
X133433150Y-113406572D01*
X133452636Y-113415858D01*
X133478193Y-113427814D01*
X133508749Y-113441937D01*
X133543232Y-113457727D01*
X133580569Y-113474683D01*
X133611482Y-113488789D01*
X133646992Y-113505317D01*
X133678929Y-113520534D01*
X133706178Y-113533891D01*
X133727626Y-113544841D01*
X133742159Y-113552837D01*
X133748662Y-113557331D01*
X133749715Y-113558697D01*
X133752288Y-113563495D01*
X133754223Y-113570550D01*
X133755607Y-113581154D01*
X133756530Y-113596596D01*
X133757079Y-113618166D01*
X133757344Y-113647155D01*
X133757412Y-113684853D01*
X133757412Y-113801800D01*
X133794912Y-113801800D01*
X133832412Y-113801800D01*
X133832412Y-113577559D01*
X133832412Y-113353318D01*
X133812077Y-113344148D01*
X133805017Y-113340624D01*
X133779077Y-113321997D01*
X133756121Y-113297013D01*
X133738919Y-113268535D01*
X133734796Y-113258521D01*
X133726819Y-113223341D01*
X133727175Y-113209998D01*
X133810529Y-113209998D01*
X133815325Y-113231670D01*
X133826206Y-113250809D01*
X133841726Y-113263945D01*
X133852916Y-113268558D01*
X133877002Y-113271726D01*
X133900131Y-113266766D01*
X133919939Y-113254408D01*
X133934063Y-113235384D01*
X133935362Y-113232579D01*
X133941412Y-113213888D01*
X133940547Y-113196913D01*
X133932662Y-113177288D01*
X133918784Y-113158885D01*
X133900188Y-113147276D01*
X133879244Y-113142922D01*
X133857958Y-113145564D01*
X133838338Y-113154942D01*
X133822391Y-113170797D01*
X133812124Y-113192869D01*
X133810529Y-113209998D01*
X133727175Y-113209998D01*
X133727770Y-113187716D01*
X133737071Y-113153254D01*
X133754145Y-113121561D01*
X133778412Y-113094243D01*
X133809296Y-113072909D01*
X133814870Y-113070213D01*
X133844783Y-113061204D01*
X133877861Y-113058404D01*
X133910467Y-113061852D01*
X133938962Y-113071585D01*
X133962390Y-113085966D01*
X133990821Y-113112869D01*
X134011827Y-113146467D01*
X134019223Y-113165945D01*
X134025000Y-113201307D01*
X134023972Y-113213888D01*
X134022110Y-113236689D01*
X134011180Y-113270438D01*
X133992838Y-113300898D01*
X133967712Y-113326415D01*
X133936427Y-113345335D01*
X133917412Y-113353724D01*
X133917412Y-113577762D01*
X133917412Y-113801800D01*
X134094912Y-113801800D01*
X134272412Y-113801800D01*
X134272412Y-113715025D01*
X134272412Y-113628250D01*
X134194493Y-113576521D01*
X134170415Y-113560278D01*
X134147729Y-113544454D01*
X134129036Y-113530869D01*
X134115802Y-113520590D01*
X134109493Y-113514683D01*
X134108083Y-113511508D01*
X134106784Y-113505375D01*
X134105690Y-113495722D01*
X134104788Y-113481827D01*
X134104059Y-113462973D01*
X134103487Y-113438438D01*
X134103056Y-113407502D01*
X134102750Y-113369446D01*
X134102551Y-113323550D01*
X134102444Y-113269094D01*
X134102412Y-113205358D01*
X134102491Y-113139802D01*
X134102737Y-113079119D01*
X134103144Y-113026572D01*
X134103710Y-112982472D01*
X134104427Y-112947129D01*
X134105291Y-112920853D01*
X134106298Y-112903955D01*
X134107441Y-112896746D01*
X134109870Y-112893734D01*
X134119073Y-112884156D01*
X134134146Y-112869277D01*
X134154186Y-112849964D01*
X134178286Y-112827087D01*
X134205545Y-112801515D01*
X134235056Y-112774116D01*
X134357643Y-112660882D01*
X134341806Y-112642845D01*
X134335958Y-112635882D01*
X134318088Y-112607893D01*
X134308194Y-112577465D01*
X134305264Y-112541800D01*
X134305429Y-112538446D01*
X134388697Y-112538446D01*
X134392567Y-112562597D01*
X134394239Y-112566808D01*
X134402985Y-112582113D01*
X134413091Y-112593146D01*
X134421957Y-112598434D01*
X134443531Y-112604702D01*
X134466096Y-112604472D01*
X134485579Y-112597502D01*
X134485913Y-112597292D01*
X134504405Y-112582036D01*
X134514409Y-112563866D01*
X134517412Y-112540099D01*
X134517289Y-112532725D01*
X134515363Y-112519602D01*
X134509579Y-112508890D01*
X134498001Y-112496211D01*
X134493949Y-112492234D01*
X134481973Y-112482360D01*
X134470801Y-112477865D01*
X134456240Y-112476800D01*
X134448322Y-112477202D01*
X134424638Y-112483856D01*
X134405976Y-112497399D01*
X134393581Y-112516154D01*
X134388697Y-112538446D01*
X134305429Y-112538446D01*
X134306154Y-112523702D01*
X134314116Y-112486492D01*
X134330420Y-112454771D01*
X134355183Y-112428348D01*
X134388523Y-112407034D01*
X134423569Y-112394658D01*
X134459790Y-112391678D01*
X134495596Y-112398080D01*
X134529799Y-112413650D01*
X134561210Y-112438174D01*
X134576053Y-112455759D01*
X134592225Y-112486657D01*
X134601017Y-112521344D01*
X134601499Y-112540099D01*
X134601948Y-112557581D01*
G37*
%TD*%
M02*
