M48
; DRILL file {KiCad 7.0.10} date Mon Jul  1 13:53:26 2024
; FORMAT={-:-/ absolute / metric / decimal}
; #@! TF.CreationDate,2024-07-01T13:53:26-03:00
; #@! TF.GenerationSoftware,Kicad,Pcbnew,7.0.10
; #@! TF.FileFunction,Plated,1,2,PTH
FMAT,2
METRIC
; #@! TA.AperFunction,Plated,PTH,ViaDrill
T1C0.400
; #@! TA.AperFunction,Plated,PTH,ComponentDrill
T2C1.000
; #@! TA.AperFunction,Plated,PTH,ComponentDrill
T3C1.520
%
G90
G05
T1
X108.078Y-64.999
X108.078Y-82.271
X108.078Y-99.797
X127.763Y-56.744
X130.557Y-66.396
X130.557Y-67.666
X130.557Y-83.795
X130.557Y-85.065
X130.557Y-101.321
X130.557Y-102.591
X131.954Y-71.476
X131.954Y-88.875
X131.954Y-106.401
X132.589Y-53.315
X133.845Y-58.254
X135.637Y-57.125
X135.764Y-67.666
X135.764Y-85.065
X135.764Y-102.591
X137.542Y-53.315
X137.542Y-58.254
X138.431Y-47.257
X138.939Y-61.443
X138.939Y-65.126
X138.939Y-82.525
X138.939Y-100.051
X139.574Y-87.986
X140.209Y-89.256
X140.209Y-100.051
X141.225Y-87.986
X141.606Y-102.21
X142.368Y-100.305
X142.622Y-118.085
X144.273Y-53.428
X144.527Y-105.258
X144.527Y-110.338
X145.797Y-110.338
X146.609Y-59.004
X146.609Y-64.745
X147.067Y-110.338
X147.956Y-100.305
X149.607Y-57.633
X150.75Y-63.856
X150.75Y-71.349
X152.02Y-71.349
X152.528Y-100.305
X152.782Y-118.085
X153.29Y-62.967
X153.29Y-71.349
X154.56Y-62.078
X154.56Y-71.349
X154.687Y-105.258
X154.687Y-110.338
X155.957Y-110.338
X157.227Y-110.338
X158.116Y-100.305
X158.37Y-65.507
X158.37Y-71.349
X161.672Y-98.4
X161.681Y-86.716
X162.307Y-94.844
X162.316Y-85.446
X162.688Y-100.305
X162.942Y-118.085
X162.951Y-84.176
X162.951Y-91.288
X163.577Y-82.906
X163.577Y-87.732
X164.339Y-75.286
X164.339Y-78.842
X164.339Y-82.398
X164.339Y-85.954
X164.339Y-88.621
X164.339Y-89.51
X164.339Y-93.066
X164.339Y-96.622
X164.847Y-105.258
X164.847Y-110.338
X166.117Y-110.338
X167.387Y-110.338
X168.276Y-100.305
X172.086Y-75.286
X172.086Y-78.842
X172.092Y-82.398
X172.099Y-85.954
X172.099Y-89.51
X172.099Y-93.066
X172.099Y-96.622
X172.848Y-100.305
X173.102Y-118.085
X175.007Y-105.258
X175.007Y-110.338
X176.277Y-110.338
X177.547Y-110.338
X178.436Y-100.305
X179.859Y-75.286
X179.859Y-78.842
X179.859Y-82.424
X179.859Y-85.954
X179.859Y-89.51
X179.859Y-93.066
X179.859Y-96.622
T2
X115.19Y-60.681
X115.19Y-73.381
X115.19Y-78.08
X115.19Y-90.78
X115.19Y-95.479
X115.19Y-108.179
X125.19Y-60.681
X125.19Y-73.381
X125.19Y-78.08
X125.19Y-90.78
X125.19Y-95.479
X125.19Y-108.179
X125.223Y-48.729
X127.763Y-48.729
X130.303Y-48.729
X143.371Y-69.21
X145.911Y-69.21
X148.451Y-69.21
X151.868Y-59.665
X154.408Y-59.665
X156.948Y-59.665
X159.488Y-59.665
X162.028Y-59.665
X164.568Y-59.665
X166.508Y-70.079
X167.768Y-64.872
X169.048Y-70.079
X170.308Y-64.872
X170.435Y-59.665
X171.588Y-70.079
X172.848Y-64.872
X174.128Y-70.079
T3
X109.094Y-114.783
X112.675Y-49.886
X112.675Y-54.966
X114.174Y-114.783
X119.254Y-114.783
X124.334Y-114.783
X142.622Y-114.783
X147.702Y-114.783
X152.782Y-114.783
X157.862Y-114.783
X162.942Y-114.783
X168.022Y-114.783
X173.102Y-114.783
X178.182Y-114.783
M30
