M48
; DRILL file {KiCad 7.0.10} date Wed Jun 26 21:01:39 2024
; FORMAT={-:-/ absolute / metric / decimal}
; #@! TF.CreationDate,2024-06-26T21:01:39-03:00
; #@! TF.GenerationSoftware,Kicad,Pcbnew,7.0.10
; #@! TF.FileFunction,Plated,1,2,PTH
FMAT,2
METRIC
; #@! TA.AperFunction,Plated,PTH,ViaDrill
T1C0.400
; #@! TA.AperFunction,Plated,PTH,ComponentDrill
T2C1.000
; #@! TA.AperFunction,Plated,PTH,ComponentDrill
T3C1.520
%
G90
G05
T1
X116.332Y-67.691
X116.332Y-84.963
X116.332Y-102.489
X136.017Y-59.436
X138.811Y-69.088
X138.811Y-70.358
X138.811Y-86.487
X138.811Y-87.757
X138.811Y-104.013
X138.811Y-105.283
X140.208Y-74.168
X140.208Y-91.567
X140.208Y-109.093
X140.843Y-56.007
X142.099Y-60.946
X143.891Y-59.817
X144.018Y-70.358
X144.018Y-87.757
X144.018Y-105.283
X145.796Y-56.007
X145.796Y-60.946
X146.685Y-49.949
X147.193Y-64.135
X147.193Y-67.818
X147.193Y-85.217
X147.193Y-102.743
X147.828Y-90.678
X148.463Y-91.948
X148.463Y-102.743
X149.479Y-67.437
X149.479Y-90.678
X149.86Y-104.902
X150.622Y-102.997
X150.876Y-120.777
X152.527Y-56.12
X152.781Y-107.95
X152.781Y-113.03
X154.051Y-113.03
X155.321Y-113.03
X156.21Y-102.997
X157.861Y-60.325
X159.004Y-66.548
X159.004Y-74.041
X160.274Y-74.041
X160.782Y-102.997
X161.036Y-120.777
X161.544Y-65.659
X161.544Y-74.041
X162.814Y-64.77
X162.814Y-74.041
X162.941Y-107.95
X162.941Y-113.03
X164.211Y-113.03
X165.481Y-113.03
X166.37Y-102.997
X166.624Y-68.199
X166.624Y-74.041
X169.926Y-101.092
X169.935Y-89.408
X170.561Y-97.536
X170.57Y-88.138
X170.942Y-102.997
X171.196Y-120.777
X171.205Y-86.868
X171.205Y-93.98
X171.831Y-85.598
X171.831Y-90.424
X172.593Y-77.978
X172.593Y-81.534
X172.593Y-85.09
X172.593Y-88.646
X172.593Y-91.313
X172.593Y-92.202
X172.593Y-95.758
X172.593Y-99.314
X173.101Y-107.95
X173.101Y-113.03
X174.371Y-113.03
X175.641Y-113.03
X176.53Y-102.997
X180.34Y-77.978
X180.34Y-81.534
X180.346Y-85.09
X180.353Y-88.646
X180.353Y-92.202
X180.353Y-95.758
X180.353Y-99.314
X181.102Y-102.997
X181.356Y-120.777
X183.261Y-107.95
X183.261Y-113.03
X184.531Y-113.03
X185.801Y-113.03
X186.69Y-102.997
X188.113Y-77.978
X188.113Y-81.534
X188.113Y-85.116
X188.113Y-88.646
X188.113Y-92.202
X188.113Y-95.758
X188.113Y-99.314
T2
X123.444Y-63.373
X123.444Y-76.073
X123.444Y-80.772
X123.444Y-93.472
X123.444Y-98.171
X123.444Y-110.871
X133.444Y-63.373
X133.444Y-76.073
X133.444Y-80.772
X133.444Y-93.472
X133.444Y-98.171
X133.444Y-110.871
X133.477Y-51.421
X136.017Y-51.421
X138.557Y-51.421
X151.625Y-71.902
X154.165Y-71.902
X156.705Y-71.902
X160.122Y-62.357
X162.662Y-62.357
X165.202Y-62.357
X167.742Y-62.357
X170.282Y-62.357
X172.822Y-62.357
X174.762Y-72.771
X176.022Y-67.564
X177.302Y-72.771
X178.562Y-67.564
X178.689Y-62.357
X179.842Y-72.771
X181.102Y-67.564
X182.382Y-72.771
T3
X117.348Y-117.475
X120.929Y-52.578
X120.929Y-57.658
X122.428Y-117.475
X127.508Y-117.475
X132.588Y-117.475
X150.876Y-117.475
X155.956Y-117.475
X161.036Y-117.475
X166.116Y-117.475
X171.196Y-117.475
X176.276Y-117.475
X181.356Y-117.475
X186.436Y-117.475
M30
