%TF.GenerationSoftware,KiCad,Pcbnew,7.0.10*%
%TF.CreationDate,2024-06-26T21:01:35-03:00*%
%TF.ProjectId,board,626f6172-642e-46b6-9963-61645f706362,1.0*%
%TF.SameCoordinates,Original*%
%TF.FileFunction,Soldermask,Top*%
%TF.FilePolarity,Negative*%
%FSLAX46Y46*%
G04 Gerber Fmt 4.6, Leading zero omitted, Abs format (unit mm)*
G04 Created by KiCad (PCBNEW 7.0.10) date 2024-06-26 21:01:35*
%MOMM*%
%LPD*%
G01*
G04 APERTURE LIST*
G04 Aperture macros list*
%AMRoundRect*
0 Rectangle with rounded corners*
0 $1 Rounding radius*
0 $2 $3 $4 $5 $6 $7 $8 $9 X,Y pos of 4 corners*
0 Add a 4 corners polygon primitive as box body*
4,1,4,$2,$3,$4,$5,$6,$7,$8,$9,$2,$3,0*
0 Add four circle primitives for the rounded corners*
1,1,$1+$1,$2,$3*
1,1,$1+$1,$4,$5*
1,1,$1+$1,$6,$7*
1,1,$1+$1,$8,$9*
0 Add four rect primitives between the rounded corners*
20,1,$1+$1,$2,$3,$4,$5,0*
20,1,$1+$1,$4,$5,$6,$7,0*
20,1,$1+$1,$6,$7,$8,$9,0*
20,1,$1+$1,$8,$9,$2,$3,0*%
G04 Aperture macros list end*
%ADD10RoundRect,0.150000X-0.725000X-0.150000X0.725000X-0.150000X0.725000X0.150000X-0.725000X0.150000X0*%
%ADD11RoundRect,0.250000X0.500000X1.100000X-0.500000X1.100000X-0.500000X-1.100000X0.500000X-1.100000X0*%
%ADD12RoundRect,0.250000X-1.075000X0.312500X-1.075000X-0.312500X1.075000X-0.312500X1.075000X0.312500X0*%
%ADD13O,1.712000X1.712000*%
%ADD14C,1.712000*%
%ADD15RoundRect,0.250000X-0.312500X-1.075000X0.312500X-1.075000X0.312500X1.075000X-0.312500X1.075000X0*%
%ADD16RoundRect,0.250000X0.312500X1.075000X-0.312500X1.075000X-0.312500X-1.075000X0.312500X-1.075000X0*%
%ADD17RoundRect,0.102000X0.750000X0.450000X-0.750000X0.450000X-0.750000X-0.450000X0.750000X-0.450000X0*%
%ADD18RoundRect,0.102000X0.450000X0.750000X-0.450000X0.750000X-0.450000X-0.750000X0.450000X-0.750000X0*%
%ADD19RoundRect,0.102000X0.500000X0.500000X-0.500000X0.500000X-0.500000X-0.500000X0.500000X-0.500000X0*%
%ADD20RoundRect,0.150000X0.150000X-0.725000X0.150000X0.725000X-0.150000X0.725000X-0.150000X-0.725000X0*%
%ADD21O,3.000000X3.000000*%
%ADD22C,3.000000*%
%ADD23O,1.700000X1.700000*%
%ADD24RoundRect,0.250000X1.075000X-0.312500X1.075000X0.312500X-1.075000X0.312500X-1.075000X-0.312500X0*%
%ADD25RoundRect,0.250000X-0.925000X0.412500X-0.925000X-0.412500X0.925000X-0.412500X0.925000X0.412500X0*%
%ADD26RoundRect,0.250000X0.925000X-0.787500X0.925000X0.787500X-0.925000X0.787500X-0.925000X-0.787500X0*%
%ADD27R,2.000000X1.500000*%
%ADD28R,2.000000X3.800000*%
G04 APERTURE END LIST*
D10*
%TO.C,AMP3*%
X140462000Y-102743000D03*
X140462000Y-104013000D03*
X140462000Y-105283000D03*
X140462000Y-106553000D03*
X145612000Y-106553000D03*
X145612000Y-105283000D03*
X145612000Y-104013000D03*
X145612000Y-102743000D03*
%TD*%
D11*
%TO.C,DZ14*%
X178816000Y-88646000D03*
X174016000Y-88646000D03*
%TD*%
D12*
%TO.C,R9*%
X148971000Y-107503500D03*
X148971000Y-110428500D03*
%TD*%
D10*
%TO.C,AMP8*%
X142332000Y-56007000D03*
X142332000Y-57277000D03*
X142332000Y-58547000D03*
X142332000Y-59817000D03*
X147482000Y-59817000D03*
X147482000Y-58547000D03*
X147482000Y-57277000D03*
X147482000Y-56007000D03*
%TD*%
D11*
%TO.C,DZ2*%
X178821000Y-77978000D03*
X174021000Y-77978000D03*
%TD*%
D13*
%TO.C,TP2*%
X123444000Y-80772000D03*
D14*
X123444000Y-93472000D03*
X133444000Y-93472000D03*
X133444000Y-80772000D03*
%TD*%
D15*
%TO.C,R7*%
X141574500Y-82677000D03*
X144499500Y-82677000D03*
%TD*%
D16*
%TO.C,R16*%
X154878500Y-102997000D03*
X151953500Y-102997000D03*
%TD*%
D17*
%TO.C,MCU1*%
X168376000Y-93218000D03*
X168376000Y-91948000D03*
X168376000Y-90678000D03*
X168376000Y-89408000D03*
X168376000Y-88138000D03*
X168376000Y-86868000D03*
X168376000Y-85598000D03*
X168376000Y-84328000D03*
X168376000Y-83058000D03*
X168376000Y-81788000D03*
X168376000Y-80518000D03*
X168376000Y-79248000D03*
X168376000Y-77978000D03*
X168376000Y-76708000D03*
D18*
X166611000Y-75458000D03*
X165341000Y-75458000D03*
X164071000Y-75458000D03*
X162801000Y-75458000D03*
X161531000Y-75458000D03*
X160261000Y-75458000D03*
X158991000Y-75458000D03*
X157721000Y-75458000D03*
X156451000Y-75458000D03*
X155181000Y-75458000D03*
X153911000Y-75458000D03*
X152641000Y-75458000D03*
D17*
X150876000Y-76708000D03*
X150876000Y-77978000D03*
X150876000Y-79248000D03*
X150876000Y-80518000D03*
X150876000Y-81788000D03*
X150876000Y-83058000D03*
X150876000Y-84328000D03*
X150876000Y-85598000D03*
X150876000Y-86868000D03*
X150876000Y-88138000D03*
X150876000Y-89408000D03*
X150876000Y-90678000D03*
X150876000Y-91948000D03*
X150876000Y-93218000D03*
D19*
X160986000Y-87868000D03*
X162486000Y-87868000D03*
X159486000Y-87868000D03*
X162486000Y-86368000D03*
X160986000Y-86368000D03*
X159486000Y-86368000D03*
X162486000Y-89368000D03*
X160986000Y-89368000D03*
X159486000Y-89368000D03*
%TD*%
D20*
%TO.C,AMP6*%
X171831000Y-111506000D03*
X173101000Y-111506000D03*
X174371000Y-111506000D03*
X175641000Y-111506000D03*
X175641000Y-106356000D03*
X174371000Y-106356000D03*
X173101000Y-106356000D03*
X171831000Y-106356000D03*
%TD*%
D11*
%TO.C,DZ13*%
X186677000Y-88646000D03*
X181877000Y-88646000D03*
%TD*%
D20*
%TO.C,AMP4*%
X151511000Y-111506000D03*
X152781000Y-111506000D03*
X154051000Y-111506000D03*
X155321000Y-111506000D03*
X155321000Y-106356000D03*
X154051000Y-106356000D03*
X152781000Y-106356000D03*
X151511000Y-106356000D03*
%TD*%
D16*
%TO.C,R17*%
X165038500Y-102997000D03*
X162113500Y-102997000D03*
%TD*%
D11*
%TO.C,DZ6*%
X178816000Y-85090000D03*
X174016000Y-85090000D03*
%TD*%
%TO.C,DZ5*%
X186664000Y-85090000D03*
X181864000Y-85090000D03*
%TD*%
D13*
%TO.C,TP1*%
X123444000Y-63373000D03*
D14*
X123444000Y-76073000D03*
X133444000Y-76073000D03*
X133444000Y-63373000D03*
%TD*%
D21*
%TO.C,J7*%
X181356000Y-117475000D03*
D22*
X186436000Y-117475000D03*
%TD*%
D12*
%TO.C,R4*%
X116332000Y-80772000D03*
X116332000Y-83697000D03*
%TD*%
D13*
%TO.C,TP3*%
X123444000Y-98171000D03*
D14*
X123444000Y-110871000D03*
X133444000Y-110871000D03*
X133444000Y-98171000D03*
%TD*%
D23*
%TO.C,P1*%
X151625000Y-71902000D03*
X154165000Y-71902000D03*
X156705000Y-71902000D03*
%TD*%
D24*
%TO.C,R2*%
X149987000Y-54167500D03*
X149987000Y-51242500D03*
%TD*%
D16*
%TO.C,R18*%
X175198500Y-102997000D03*
X172273500Y-102997000D03*
%TD*%
D12*
%TO.C,R11*%
X169291000Y-107503500D03*
X169291000Y-110428500D03*
%TD*%
D11*
%TO.C,DZ11*%
X186677000Y-92202000D03*
X181877000Y-92202000D03*
%TD*%
D23*
%TO.C,SW1*%
X133477000Y-51421000D03*
X136017000Y-51421000D03*
X138557000Y-51421000D03*
%TD*%
D15*
%TO.C,R6*%
X141574500Y-65278000D03*
X144499500Y-65278000D03*
%TD*%
D11*
%TO.C,DZ3*%
X186677000Y-81534000D03*
X181877000Y-81534000D03*
%TD*%
D12*
%TO.C,R10*%
X159131000Y-107503500D03*
X159131000Y-110428500D03*
%TD*%
%TO.C,R3*%
X116332000Y-63373000D03*
X116332000Y-66298000D03*
%TD*%
%TO.C,R12*%
X179451000Y-107503500D03*
X179451000Y-110428500D03*
%TD*%
D11*
%TO.C,DZ12*%
X178816000Y-92202000D03*
X174016000Y-92202000D03*
%TD*%
D25*
%TO.C,C2*%
X150495000Y-56120500D03*
X150495000Y-59195500D03*
%TD*%
D21*
%TO.C,J4*%
X150876000Y-117475000D03*
D22*
X155956000Y-117475000D03*
%TD*%
D21*
%TO.C,J3*%
X117348000Y-117475000D03*
D22*
X122428000Y-117475000D03*
%TD*%
D16*
%TO.C,R19*%
X185358500Y-102997000D03*
X182433500Y-102997000D03*
%TD*%
D23*
%TO.C,P4*%
X176022000Y-67564000D03*
X178562000Y-67564000D03*
X181102000Y-67564000D03*
%TD*%
D16*
%TO.C,R15*%
X144499500Y-109093000D03*
X141574500Y-109093000D03*
%TD*%
D11*
%TO.C,DZ9*%
X186677000Y-95758000D03*
X181877000Y-95758000D03*
%TD*%
%TO.C,DZ7*%
X186677000Y-99314000D03*
X181877000Y-99314000D03*
%TD*%
D21*
%TO.C,J6*%
X171196000Y-117475000D03*
D22*
X176276000Y-117475000D03*
%TD*%
D12*
%TO.C,R5*%
X116332000Y-98171000D03*
X116332000Y-101096000D03*
%TD*%
D23*
%TO.C,P5*%
X172822000Y-62357000D03*
X170282000Y-62357000D03*
X167742000Y-62357000D03*
X165202000Y-62357000D03*
X162662000Y-62357000D03*
X160122000Y-62357000D03*
%TD*%
D11*
%TO.C,DZ4*%
X178821000Y-81534000D03*
X174021000Y-81534000D03*
%TD*%
D23*
%TO.C,P3*%
X174762000Y-72771000D03*
X177302000Y-72771000D03*
X179842000Y-72771000D03*
X182382000Y-72771000D03*
%TD*%
D16*
%TO.C,R13*%
X144499500Y-74168000D03*
X141574500Y-74168000D03*
%TD*%
D11*
%TO.C,DZ1*%
X186677000Y-77978000D03*
X181877000Y-77978000D03*
%TD*%
D26*
%TO.C,C1*%
X129286000Y-59432500D03*
X129286000Y-54507500D03*
%TD*%
D15*
%TO.C,R8*%
X141574500Y-100203000D03*
X144499500Y-100203000D03*
%TD*%
D21*
%TO.C,J2*%
X127508000Y-117475000D03*
D22*
X132588000Y-117475000D03*
%TD*%
D23*
%TO.C,P2*%
X178689000Y-62357000D03*
%TD*%
D27*
%TO.C,PS2*%
X132892000Y-54836000D03*
X132892000Y-57136000D03*
D28*
X139192000Y-57136000D03*
D27*
X132892000Y-59436000D03*
%TD*%
D16*
%TO.C,R14*%
X144499500Y-91567000D03*
X141574500Y-91567000D03*
%TD*%
D11*
%TO.C,DZ8*%
X178816000Y-99314000D03*
X174016000Y-99314000D03*
%TD*%
%TO.C,DZ10*%
X178816000Y-95758000D03*
X174016000Y-95758000D03*
%TD*%
D20*
%TO.C,AMP7*%
X181991000Y-111506000D03*
X183261000Y-111506000D03*
X184531000Y-111506000D03*
X185801000Y-111506000D03*
X185801000Y-106356000D03*
X184531000Y-106356000D03*
X183261000Y-106356000D03*
X181991000Y-106356000D03*
%TD*%
%TO.C,AMP5*%
X161671000Y-111506000D03*
X162941000Y-111506000D03*
X164211000Y-111506000D03*
X165481000Y-111506000D03*
X165481000Y-106356000D03*
X164211000Y-106356000D03*
X162941000Y-106356000D03*
X161671000Y-106356000D03*
%TD*%
D12*
%TO.C,R1*%
X146685000Y-51242500D03*
X146685000Y-54167500D03*
%TD*%
D21*
%TO.C,J5*%
X161036000Y-117475000D03*
D22*
X166116000Y-117475000D03*
%TD*%
D21*
%TO.C,J1*%
X120929000Y-52578000D03*
D22*
X120929000Y-57658000D03*
%TD*%
D10*
%TO.C,AMP2*%
X140462000Y-85217000D03*
X140462000Y-86487000D03*
X140462000Y-87757000D03*
X140462000Y-89027000D03*
X145612000Y-89027000D03*
X145612000Y-87757000D03*
X145612000Y-86487000D03*
X145612000Y-85217000D03*
%TD*%
%TO.C,AMP1*%
X140462000Y-67818000D03*
X140462000Y-69088000D03*
X140462000Y-70358000D03*
X140462000Y-71628000D03*
X145612000Y-71628000D03*
X145612000Y-70358000D03*
X145612000Y-69088000D03*
X145612000Y-67818000D03*
%TD*%
M02*
