%TF.GenerationSoftware,KiCad,Pcbnew,7.0.10*%
%TF.CreationDate,2024-06-26T21:11:57-03:00*%
%TF.ProjectId,board,626f6172-642e-46b6-9963-61645f706362,1.0*%
%TF.SameCoordinates,Original*%
%TF.FileFunction,Copper,L2,Bot*%
%TF.FilePolarity,Positive*%
%FSLAX46Y46*%
G04 Gerber Fmt 4.6, Leading zero omitted, Abs format (unit mm)*
G04 Created by KiCad (PCBNEW 7.0.10) date 2024-06-26 21:11:57*
%MOMM*%
%LPD*%
G01*
G04 APERTURE LIST*
%TA.AperFunction,ComponentPad*%
%ADD10O,1.508000X1.508000*%
%TD*%
%TA.AperFunction,ComponentPad*%
%ADD11C,1.508000*%
%TD*%
%TA.AperFunction,ComponentPad*%
%ADD12O,3.000000X3.000000*%
%TD*%
%TA.AperFunction,ComponentPad*%
%ADD13C,3.000000*%
%TD*%
%TA.AperFunction,ComponentPad*%
%ADD14O,1.700000X1.700000*%
%TD*%
%TA.AperFunction,ViaPad*%
%ADD15C,0.600000*%
%TD*%
%TA.AperFunction,Conductor*%
%ADD16C,0.200000*%
%TD*%
G04 APERTURE END LIST*
D10*
%TO.P,TP2,1*%
%TO.N,Net-(R4-Pad1)*%
X115189600Y-78079600D03*
D11*
%TO.P,TP2,2*%
%TO.N,Neutral*%
X115189600Y-90779600D03*
%TO.P,TP2,3*%
%TO.N,TP B-1*%
X125189600Y-90779600D03*
%TO.P,TP2,4*%
%TO.N,TC A-1*%
X125189600Y-78079600D03*
%TD*%
D10*
%TO.P,TP1,1*%
%TO.N,Net-(R3-Pad1)*%
X115189600Y-60680600D03*
D11*
%TO.P,TP1,2*%
%TO.N,Neutral*%
X115189600Y-73380600D03*
%TO.P,TP1,3*%
%TO.N,TP A-1*%
X125189600Y-73380600D03*
%TO.P,TP1,4*%
%TO.N,TC A-1*%
X125189600Y-60680600D03*
%TD*%
D12*
%TO.P,J7,1,Pin_1*%
%TO.N,TC A-1*%
X173101600Y-114782600D03*
D13*
%TO.P,J7,2,Pin_2*%
%TO.N,TC N-2*%
X178181600Y-114782600D03*
%TD*%
D10*
%TO.P,TP3,1*%
%TO.N,Net-(R5-Pad1)*%
X115189600Y-95478600D03*
D11*
%TO.P,TP3,2*%
%TO.N,Neutral*%
X115189600Y-108178600D03*
%TO.P,TP3,3*%
%TO.N,TP C-1*%
X125189600Y-108178600D03*
%TO.P,TP3,4*%
%TO.N,TC A-1*%
X125189600Y-95478600D03*
%TD*%
D14*
%TO.P,P1,1,Pin_1*%
%TO.N,GND*%
X143370600Y-69209600D03*
%TO.P,P1,2,Pin_2*%
%TO.N,UART TX*%
X145910600Y-69209600D03*
%TO.P,P1,3,Pin_3*%
%TO.N,UART RX*%
X148450600Y-69209600D03*
%TD*%
%TO.P,SW1,1,C*%
%TO.N,5V-12V*%
X125222600Y-48728600D03*
%TO.P,SW1,2,B*%
%TO.N,Vin*%
X127762600Y-48728600D03*
%TO.P,SW1,3,A*%
%TO.N,GND*%
X130302600Y-48728600D03*
%TD*%
D12*
%TO.P,J4,1,Pin_1*%
%TO.N,TC A-1*%
X142621600Y-114782600D03*
D13*
%TO.P,J4,2,Pin_2*%
%TO.N,TC A-2*%
X147701600Y-114782600D03*
%TD*%
D12*
%TO.P,J3,1,Pin_1*%
%TO.N,Line A*%
X109093600Y-114782600D03*
D13*
%TO.P,J3,2,Pin_2*%
%TO.N,Line B*%
X114173600Y-114782600D03*
%TD*%
D14*
%TO.P,P4,1,Pin_1*%
%TO.N,Wave A*%
X167767600Y-64871600D03*
%TO.P,P4,2,Pin_2*%
%TO.N,Wave B*%
X170307600Y-64871600D03*
%TO.P,P4,3,Pin_3*%
%TO.N,Wave C*%
X172847600Y-64871600D03*
%TD*%
D12*
%TO.P,J6,1,Pin_1*%
%TO.N,TC A-1*%
X162941600Y-114782600D03*
D13*
%TO.P,J6,2,Pin_2*%
%TO.N,TC C-2*%
X168021600Y-114782600D03*
%TD*%
D14*
%TO.P,P5,1,Pin_1*%
%TO.N,GND*%
X164567600Y-59664600D03*
%TO.P,P5,2,Pin_2*%
%TO.N,Vcc*%
X162027600Y-59664600D03*
%TO.P,P5,3,Pin_3*%
%TO.N,MISO*%
X159487600Y-59664600D03*
%TO.P,P5,4,Pin_4*%
%TO.N,MOSI*%
X156947600Y-59664600D03*
%TO.P,P5,5,Pin_5*%
%TO.N,CLK*%
X154407600Y-59664600D03*
%TO.P,P5,6,Pin_6*%
%TO.N,CS*%
X151867600Y-59664600D03*
%TD*%
%TO.P,P3,1,Pin_1*%
%TO.N,Current A*%
X166507600Y-70078600D03*
%TO.P,P3,2,Pin_2*%
%TO.N,Current B*%
X169047600Y-70078600D03*
%TO.P,P3,3,Pin_3*%
%TO.N,Current C*%
X171587600Y-70078600D03*
%TO.P,P3,4,Pin_4*%
%TO.N,Current N*%
X174127600Y-70078600D03*
%TD*%
D12*
%TO.P,J2,1,Pin_1*%
%TO.N,Line C*%
X119253600Y-114782600D03*
D13*
%TO.P,J2,2,Pin_2*%
%TO.N,Neutral*%
X124333600Y-114782600D03*
%TD*%
D14*
%TO.P,P2,1,Pin_1*%
%TO.N,TC A-1*%
X170434600Y-59664600D03*
%TD*%
D12*
%TO.P,J5,1,Pin_1*%
%TO.N,TC A-1*%
X152781600Y-114782600D03*
D13*
%TO.P,J5,2,Pin_2*%
%TO.N,TC B-2*%
X157861600Y-114782600D03*
%TD*%
D12*
%TO.P,J1,1,Pin_1*%
%TO.N,5V-12V*%
X112674600Y-49885600D03*
D13*
%TO.P,J1,2,Pin_2*%
%TO.N,GND*%
X112674600Y-54965600D03*
%TD*%
D15*
%TO.N,Line B*%
X108077600Y-82270600D03*
%TO.N,Line A*%
X108077600Y-64998600D03*
%TO.N,Line C*%
X108077600Y-99796600D03*
%TO.N,Vcc*%
X179858600Y-85953600D03*
X179858600Y-75285600D03*
X179858600Y-96621600D03*
X164338600Y-88620600D03*
X179858600Y-93065600D03*
X144272600Y-53428100D03*
X149606600Y-57632600D03*
X138430600Y-47256600D03*
X179858600Y-82423600D03*
X179858600Y-89509600D03*
X179858600Y-78841600D03*
%TO.N,GND*%
X164338600Y-82397600D03*
X177546600Y-110337600D03*
X164338600Y-89509600D03*
X157226600Y-110337600D03*
X164338600Y-75285600D03*
X164338600Y-78841600D03*
X164338600Y-85953600D03*
X147066600Y-110337600D03*
X164338600Y-96621600D03*
X164338600Y-93065600D03*
X167386600Y-110337600D03*
X135636600Y-57124600D03*
%TO.N,Current A*%
X172098600Y-96621600D03*
X147955600Y-100304600D03*
X161680600Y-86715600D03*
X161671600Y-98399600D03*
%TO.N,Current B*%
X162315600Y-85445600D03*
X172098600Y-93065600D03*
X162306600Y-94843600D03*
X158115600Y-100304600D03*
%TO.N,Current C*%
X172098600Y-89509600D03*
X168275600Y-100304600D03*
X162950600Y-91287600D03*
X162950600Y-84175600D03*
%TO.N,Current N*%
X178435600Y-100304600D03*
X163576600Y-87731600D03*
X163576600Y-82905600D03*
X172098600Y-85953600D03*
%TO.N,TC A-2*%
X144526600Y-110337600D03*
%TO.N,TC A-1*%
X176276600Y-110337600D03*
X145796600Y-110337600D03*
X152781600Y-118084600D03*
X166116600Y-110337600D03*
X132588600Y-53314600D03*
X155956600Y-110337600D03*
X142621600Y-118084600D03*
X130556600Y-85064600D03*
X173101600Y-118084600D03*
X162941600Y-118084600D03*
X141224600Y-64744600D03*
X130556600Y-102590600D03*
X130556600Y-67665600D03*
%TO.N,TP A-1*%
X130556600Y-66395600D03*
%TO.N,TP C-1*%
X130556600Y-101320600D03*
%TO.N,TP B-1*%
X130556600Y-83794600D03*
%TO.N,TC B-2*%
X154686600Y-110337600D03*
%TO.N,Wave A*%
X172085600Y-75285600D03*
X158369600Y-65506600D03*
X158369600Y-71348600D03*
%TO.N,Wave B*%
X139573600Y-87985600D03*
X141224600Y-87985600D03*
X172085600Y-78841600D03*
%TO.N,Wave C*%
X140208600Y-100050600D03*
X172092100Y-82397600D03*
X140208600Y-89255600D03*
%TO.N,CS*%
X154559600Y-62077600D03*
X154559600Y-71348600D03*
%TO.N,MOSI*%
X153289600Y-71348600D03*
X153289600Y-62966600D03*
%TO.N,CLK*%
X152019600Y-71348600D03*
%TO.N,MISO*%
X150749600Y-71348600D03*
X150749600Y-63855600D03*
%TO.N,TC N-2*%
X175006600Y-110337600D03*
%TO.N,Vin*%
X137541600Y-58253600D03*
X138938600Y-65125600D03*
X137541600Y-53314600D03*
X141605600Y-102209600D03*
X138938600Y-61442600D03*
X138938600Y-82524600D03*
X133844600Y-58253600D03*
X138938600Y-100050600D03*
X127762600Y-56743600D03*
%TO.N,TC C-2*%
X164846600Y-110337600D03*
%TO.N,Net-(AMP1B--)*%
X135763600Y-67665600D03*
X131953600Y-71475600D03*
%TO.N,Net-(AMP2B--)*%
X131953600Y-88874600D03*
X135763600Y-85064600D03*
%TO.N,Net-(AMP3B--)*%
X135763600Y-102590600D03*
X131953600Y-106400600D03*
%TO.N,Net-(AMP4B--)*%
X144526600Y-105257600D03*
X142367600Y-100304600D03*
%TO.N,Net-(AMP5B--)*%
X152527600Y-100304600D03*
X154686600Y-105257600D03*
%TO.N,Net-(AMP6B--)*%
X164846600Y-105257600D03*
X162687600Y-100304600D03*
%TO.N,Net-(AMP7B--)*%
X172847600Y-100304600D03*
X175006600Y-105257600D03*
%TD*%
D16*
%TO.N,Line B*%
X108077600Y-82270600D02*
X107315600Y-83032600D01*
X107315600Y-83032600D02*
X107315600Y-107924600D01*
X107315600Y-107924600D02*
X114173600Y-114782600D01*
%TO.N,Line A*%
X109093600Y-114782600D02*
X109093600Y-110845600D01*
X109093600Y-110845600D02*
X106553600Y-108305600D01*
X106553600Y-108305600D02*
X106553600Y-66522600D01*
X106553600Y-66522600D02*
X108077600Y-64998600D01*
%TO.N,Neutral*%
X115189600Y-108178600D02*
X116586600Y-108178600D01*
X116586600Y-108178600D02*
X117221600Y-108813600D01*
X117221600Y-91414600D02*
X117221600Y-74015600D01*
X117856600Y-110591600D02*
X117221600Y-109956600D01*
X116586600Y-73380600D02*
X115189600Y-73380600D01*
X115189600Y-90779600D02*
X116586600Y-90779600D01*
X117221600Y-109956600D02*
X117221600Y-108813600D01*
X116586600Y-90779600D02*
X117221600Y-91414600D01*
X117221600Y-108813600D02*
X117221600Y-91414600D01*
X124333600Y-114909600D02*
X120015600Y-110591600D01*
X117221600Y-74015600D02*
X116586600Y-73380600D01*
X120015600Y-110591600D02*
X117856600Y-110591600D01*
%TO.N,Line C*%
X111125600Y-110591600D02*
X108077600Y-107543600D01*
X115062600Y-110591600D02*
X111125600Y-110591600D01*
X108077600Y-107543600D02*
X108077600Y-99796600D01*
X119253600Y-114782600D02*
X115062600Y-110591600D01*
%TO.N,Vcc*%
X179858600Y-75285600D02*
X179858600Y-78841600D01*
X179858600Y-96621600D02*
X179858600Y-93065600D01*
X144272600Y-54203600D02*
X144272600Y-53428100D01*
X179858600Y-87959600D02*
X179858600Y-85953600D01*
X179858600Y-82423600D02*
X179858600Y-85953600D01*
X179858600Y-78841600D02*
X179858600Y-82423600D01*
X143675600Y-47256600D02*
X138430600Y-47256600D01*
X147701600Y-57632600D02*
X149606600Y-57632600D01*
X144272600Y-53428100D02*
X144272600Y-47853600D01*
X144272600Y-47853600D02*
X143675600Y-47256600D01*
X179858600Y-93065600D02*
X179858600Y-89509600D01*
X179858600Y-89509600D02*
X179858600Y-87959600D01*
X147701600Y-57632600D02*
X144272600Y-54203600D01*
X164338600Y-88620600D02*
X179197600Y-88620600D01*
X179197600Y-88620600D02*
X179858600Y-87959600D01*
%TO.N,Current A*%
X161680600Y-86715600D02*
X161680600Y-72990600D01*
X164592600Y-70078600D02*
X166507600Y-70078600D01*
X161680600Y-86715600D02*
X161680600Y-98390600D01*
X161680600Y-98390600D02*
X160528600Y-99542600D01*
X160528600Y-99542600D02*
X148717600Y-99542600D01*
X161680600Y-72990600D02*
X164592600Y-70078600D01*
X148717600Y-99542600D02*
X147955600Y-100304600D01*
%TO.N,Current B*%
X162315600Y-85445600D02*
X162315600Y-98771600D01*
X162315600Y-73371600D02*
X163576600Y-72110600D01*
X160782600Y-100304600D02*
X158115600Y-100304600D01*
X169047600Y-71465600D02*
X169047600Y-70078600D01*
X168402600Y-72110600D02*
X169047600Y-71465600D01*
X163576600Y-72110600D02*
X168402600Y-72110600D01*
X162315600Y-98771600D02*
X160782600Y-100304600D01*
X162315600Y-85445600D02*
X162315600Y-73371600D01*
%TO.N,Current C*%
X162950600Y-84175600D02*
X162950600Y-73689100D01*
X162950600Y-84175600D02*
X162950600Y-98789600D01*
X171587600Y-72100600D02*
X171587600Y-70078600D01*
X163894100Y-72745600D02*
X170942600Y-72745600D01*
X162950600Y-73689100D02*
X163894100Y-72745600D01*
X170942600Y-72745600D02*
X171587600Y-72100600D01*
X162950600Y-98789600D02*
X164465600Y-100304600D01*
X164465600Y-100304600D02*
X168275600Y-100304600D01*
%TO.N,Current N*%
X164719600Y-99542600D02*
X177673600Y-99542600D01*
X174127600Y-72745600D02*
X174127600Y-70078600D01*
X164211600Y-73380600D02*
X173492600Y-73380600D01*
X163576600Y-74015600D02*
X164211600Y-73380600D01*
X177673600Y-99542600D02*
X178435600Y-100304600D01*
X163576600Y-98399600D02*
X164719600Y-99542600D01*
X163576600Y-82931600D02*
X163576600Y-98399600D01*
X163576600Y-82905600D02*
X163576600Y-74015600D01*
X173492600Y-73380600D02*
X174127600Y-72745600D01*
%TO.N,TC A-1*%
X141224600Y-64744600D02*
X137160600Y-60680600D01*
X176276600Y-111607600D02*
X176276600Y-110337600D01*
X142621600Y-114782600D02*
X145796600Y-111607600D01*
X125189600Y-60680600D02*
X130048600Y-60680600D01*
X173101600Y-114782600D02*
X176276600Y-111607600D01*
X132588600Y-58140600D02*
X132588600Y-53314600D01*
X166116600Y-111607600D02*
X166116600Y-110337600D01*
X152781600Y-114782600D02*
X155956600Y-111607600D01*
X162941600Y-118084600D02*
X173101600Y-118084600D01*
X135128600Y-60680600D02*
X132588600Y-58140600D01*
X142621600Y-118084600D02*
X152781600Y-118084600D01*
X162941600Y-114782600D02*
X166116600Y-111607600D01*
X145796600Y-111607600D02*
X145796600Y-110337600D01*
X155956600Y-111607600D02*
X155956600Y-110337600D01*
X137160600Y-60680600D02*
X135128600Y-60680600D01*
X130048600Y-60680600D02*
X132588600Y-58140600D01*
%TO.N,TP A-1*%
X125189600Y-67698600D02*
X126492600Y-66395600D01*
X125189600Y-73380600D02*
X125189600Y-67698600D01*
X126492600Y-66395600D02*
X130556600Y-66395600D01*
%TO.N,TP C-1*%
X125189600Y-102623600D02*
X125189600Y-108178600D01*
X130556600Y-101320600D02*
X126492600Y-101320600D01*
X126492600Y-101320600D02*
X125189600Y-102623600D01*
%TO.N,TP B-1*%
X125189600Y-85097600D02*
X126492600Y-83794600D01*
X126492600Y-83794600D02*
X130556600Y-83794600D01*
X125189600Y-90779600D02*
X125189600Y-85097600D01*
%TO.N,Wave A*%
X167767600Y-67157600D02*
X167767600Y-64871600D01*
X176276600Y-68427600D02*
X175641600Y-67792600D01*
X158369600Y-65506600D02*
X158369600Y-71348600D01*
X176276600Y-72364600D02*
X176276600Y-68427600D01*
X172085600Y-75285600D02*
X173355600Y-75285600D01*
X173355600Y-75285600D02*
X176276600Y-72364600D01*
X168402600Y-67792600D02*
X167767600Y-67157600D01*
X175641600Y-67792600D02*
X168402600Y-67792600D01*
%TO.N,Wave B*%
X139573600Y-87985600D02*
X141224600Y-87985600D01*
X175768600Y-67030600D02*
X170942600Y-67030600D01*
X172085600Y-78841600D02*
X176911600Y-74015600D01*
X170942600Y-67030600D02*
X170307600Y-66395600D01*
X176911600Y-74015600D02*
X176911600Y-68173600D01*
X176911600Y-68173600D02*
X175768600Y-67030600D01*
X170307600Y-66395600D02*
X170307600Y-64871600D01*
%TO.N,Wave C*%
X174498600Y-64871600D02*
X172847600Y-64871600D01*
X177673600Y-68046600D02*
X174498600Y-64871600D01*
X140208600Y-89255600D02*
X140208600Y-100050600D01*
X177673600Y-76816100D02*
X177673600Y-68046600D01*
X172092100Y-82397600D02*
X177673600Y-76816100D01*
%TO.N,CS*%
X154559600Y-62077600D02*
X154559600Y-71348600D01*
%TO.N,MOSI*%
X153289600Y-62966600D02*
X153289600Y-71348600D01*
%TO.N,CLK*%
X154407600Y-60705600D02*
X154407600Y-59664600D01*
X152019600Y-71348600D02*
X152019600Y-63093600D01*
X152019600Y-63093600D02*
X154407600Y-60705600D01*
%TO.N,MISO*%
X150749600Y-63855600D02*
X150749600Y-71348600D01*
%TO.N,Vin*%
X127762600Y-48728600D02*
X127762600Y-56743600D01*
X137541600Y-58253600D02*
X138289600Y-58253600D01*
X138938600Y-65125600D02*
X138938600Y-82524600D01*
X138289600Y-58253600D02*
X138938600Y-58902600D01*
X138938600Y-58902600D02*
X138938600Y-61442600D01*
X138938600Y-82524600D02*
X138938600Y-100050600D01*
X138938600Y-101574600D02*
X139573600Y-102209600D01*
X138938600Y-100050600D02*
X138938600Y-101574600D01*
X139573600Y-102209600D02*
X141605600Y-102209600D01*
X133844600Y-58253600D02*
X137541600Y-58253600D01*
%TO.N,Net-(AMP1B--)*%
X135763600Y-67665600D02*
X131953600Y-71475600D01*
%TO.N,Net-(AMP2B--)*%
X131953600Y-88874600D02*
X135763600Y-85064600D01*
%TO.N,Net-(AMP3B--)*%
X135763600Y-102590600D02*
X131953600Y-106400600D01*
%TO.N,Net-(AMP4B--)*%
X142367600Y-103098600D02*
X144526600Y-105257600D01*
X142367600Y-100304600D02*
X142367600Y-103098600D01*
%TO.N,Net-(AMP5B--)*%
X152527600Y-100304600D02*
X152527600Y-103098600D01*
X152527600Y-103098600D02*
X154686600Y-105257600D01*
%TO.N,Net-(AMP6B--)*%
X162687600Y-103098600D02*
X164846600Y-105257600D01*
X162687600Y-100304600D02*
X162687600Y-103098600D01*
%TO.N,Net-(AMP7B--)*%
X172847600Y-100304600D02*
X172847600Y-103098600D01*
X172847600Y-103098600D02*
X175006600Y-105257600D01*
%TD*%
%TA.AperFunction,Conductor*%
%TO.N,GND*%
G36*
X129711369Y-46976785D02*
G01*
X129757124Y-47029589D01*
X129767068Y-47098747D01*
X129738043Y-47162303D01*
X129691783Y-47195661D01*
X129551198Y-47253892D01*
X129329759Y-47389590D01*
X129329758Y-47389591D01*
X129132266Y-47558266D01*
X128963591Y-47755758D01*
X128963590Y-47755760D01*
X128945491Y-47785295D01*
X128893679Y-47832171D01*
X128824749Y-47843593D01*
X128760586Y-47815935D01*
X128752083Y-47808187D01*
X128699654Y-47755758D01*
X128634001Y-47690105D01*
X128633997Y-47690102D01*
X128633996Y-47690101D01*
X128440434Y-47554567D01*
X128440430Y-47554565D01*
X128432264Y-47550757D01*
X128226263Y-47454697D01*
X128226259Y-47454696D01*
X128226255Y-47454694D01*
X127998013Y-47393538D01*
X127998003Y-47393536D01*
X127762601Y-47372941D01*
X127762599Y-47372941D01*
X127527196Y-47393536D01*
X127527186Y-47393538D01*
X127298944Y-47454694D01*
X127298935Y-47454698D01*
X127084771Y-47554564D01*
X127084769Y-47554565D01*
X126891197Y-47690105D01*
X126724105Y-47857197D01*
X126594175Y-48042758D01*
X126539598Y-48086383D01*
X126470100Y-48093577D01*
X126407745Y-48062054D01*
X126391025Y-48042758D01*
X126261094Y-47857197D01*
X126094002Y-47690106D01*
X126093995Y-47690101D01*
X125900434Y-47554567D01*
X125900430Y-47554565D01*
X125892264Y-47550757D01*
X125686263Y-47454697D01*
X125686259Y-47454696D01*
X125686255Y-47454694D01*
X125458013Y-47393538D01*
X125458003Y-47393536D01*
X125222601Y-47372941D01*
X125222599Y-47372941D01*
X124987196Y-47393536D01*
X124987186Y-47393538D01*
X124758944Y-47454694D01*
X124758935Y-47454698D01*
X124544771Y-47554564D01*
X124544769Y-47554565D01*
X124351197Y-47690105D01*
X124184105Y-47857197D01*
X124048565Y-48050769D01*
X124048564Y-48050771D01*
X123948698Y-48264935D01*
X123948694Y-48264944D01*
X123887538Y-48493186D01*
X123887536Y-48493196D01*
X123866941Y-48728599D01*
X123866941Y-48728600D01*
X123887536Y-48964003D01*
X123887538Y-48964013D01*
X123948694Y-49192255D01*
X123948696Y-49192259D01*
X123948697Y-49192263D01*
X124008520Y-49320554D01*
X124048565Y-49406430D01*
X124048567Y-49406434D01*
X124100077Y-49479997D01*
X124184105Y-49600001D01*
X124351199Y-49767095D01*
X124447984Y-49834865D01*
X124544765Y-49902632D01*
X124544767Y-49902633D01*
X124544770Y-49902635D01*
X124758937Y-50002503D01*
X124987192Y-50063663D01*
X125175518Y-50080139D01*
X125222599Y-50084259D01*
X125222600Y-50084259D01*
X125222601Y-50084259D01*
X125261834Y-50080826D01*
X125458008Y-50063663D01*
X125686263Y-50002503D01*
X125900430Y-49902635D01*
X126094001Y-49767095D01*
X126261095Y-49600001D01*
X126391025Y-49414442D01*
X126445602Y-49370817D01*
X126515100Y-49363623D01*
X126577455Y-49395146D01*
X126594175Y-49414442D01*
X126724100Y-49599995D01*
X126724105Y-49600001D01*
X126891199Y-49767095D01*
X126987984Y-49834865D01*
X127084765Y-49902632D01*
X127084767Y-49902633D01*
X127084770Y-49902635D01*
X127090498Y-49905306D01*
X127142939Y-49951472D01*
X127162100Y-50017690D01*
X127162100Y-56161187D01*
X127142415Y-56228226D01*
X127135050Y-56238496D01*
X127132786Y-56241334D01*
X127036811Y-56394076D01*
X126977231Y-56564345D01*
X126977230Y-56564350D01*
X126957035Y-56743596D01*
X126957035Y-56743603D01*
X126977230Y-56922849D01*
X126977231Y-56922854D01*
X127036811Y-57093123D01*
X127060195Y-57130338D01*
X127132784Y-57245862D01*
X127260338Y-57373416D01*
X127350680Y-57430182D01*
X127411236Y-57468232D01*
X127413078Y-57469389D01*
X127583345Y-57528968D01*
X127583350Y-57528969D01*
X127762596Y-57549165D01*
X127762600Y-57549165D01*
X127762604Y-57549165D01*
X127941849Y-57528969D01*
X127941852Y-57528968D01*
X127941855Y-57528968D01*
X128112122Y-57469389D01*
X128264862Y-57373416D01*
X128392416Y-57245862D01*
X128488389Y-57093122D01*
X128547968Y-56922855D01*
X128556489Y-56847230D01*
X128568165Y-56743603D01*
X128568165Y-56743596D01*
X128547969Y-56564350D01*
X128547968Y-56564345D01*
X128488388Y-56394076D01*
X128392413Y-56241334D01*
X128390150Y-56238496D01*
X128389259Y-56236315D01*
X128388711Y-56235442D01*
X128388864Y-56235345D01*
X128363744Y-56173809D01*
X128363100Y-56161187D01*
X128363100Y-50017690D01*
X128382785Y-49950651D01*
X128434701Y-49905306D01*
X128440430Y-49902635D01*
X128634001Y-49767095D01*
X128752083Y-49649013D01*
X128813406Y-49615528D01*
X128883098Y-49620512D01*
X128939031Y-49662384D01*
X128945492Y-49671905D01*
X128963592Y-49701442D01*
X129132266Y-49898933D01*
X129329758Y-50067608D01*
X129329759Y-50067609D01*
X129551198Y-50203307D01*
X129791146Y-50302696D01*
X129902599Y-50329453D01*
X129902600Y-50329453D01*
X129902600Y-49031017D01*
X129920839Y-49059398D01*
X130029500Y-49153552D01*
X130160285Y-49213280D01*
X130266837Y-49228600D01*
X130338363Y-49228600D01*
X130444915Y-49213280D01*
X130575700Y-49153552D01*
X130604497Y-49128600D01*
X130702600Y-49128600D01*
X130702600Y-50329453D01*
X130814053Y-50302696D01*
X131054001Y-50203307D01*
X131275440Y-50067609D01*
X131275441Y-50067608D01*
X131472933Y-49898933D01*
X131641608Y-49701441D01*
X131641609Y-49701440D01*
X131777307Y-49480000D01*
X131777309Y-49479997D01*
X131876697Y-49240052D01*
X131903454Y-49128600D01*
X130702600Y-49128600D01*
X130604497Y-49128600D01*
X130684361Y-49059398D01*
X130762093Y-48938444D01*
X130802600Y-48800489D01*
X130802600Y-48656711D01*
X130762093Y-48518756D01*
X130684361Y-48397802D01*
X130604497Y-48328600D01*
X131903454Y-48328600D01*
X131903453Y-48328599D01*
X131876697Y-48217147D01*
X131777309Y-47977202D01*
X131777307Y-47977199D01*
X131641609Y-47755759D01*
X131641608Y-47755758D01*
X131472933Y-47558266D01*
X131275441Y-47389591D01*
X131275440Y-47389590D01*
X131054001Y-47253892D01*
X130913417Y-47195661D01*
X130859014Y-47151820D01*
X130836949Y-47085526D01*
X130854228Y-47017827D01*
X130905365Y-46970216D01*
X130960870Y-46957100D01*
X137520024Y-46957100D01*
X137587063Y-46976785D01*
X137632818Y-47029589D01*
X137643244Y-47094983D01*
X137625035Y-47256596D01*
X137625035Y-47256603D01*
X137645230Y-47435849D01*
X137645231Y-47435854D01*
X137704811Y-47606123D01*
X137761812Y-47696839D01*
X137800784Y-47758862D01*
X137928338Y-47886416D01*
X138081078Y-47982389D01*
X138111663Y-47993091D01*
X138251345Y-48041968D01*
X138251350Y-48041969D01*
X138430596Y-48062165D01*
X138430600Y-48062165D01*
X138430604Y-48062165D01*
X138609849Y-48041969D01*
X138609852Y-48041968D01*
X138609855Y-48041968D01*
X138780122Y-47982389D01*
X138932862Y-47886416D01*
X138932867Y-47886410D01*
X138935697Y-47884155D01*
X138937875Y-47883265D01*
X138938758Y-47882711D01*
X138938855Y-47882865D01*
X139000383Y-47857745D01*
X139013012Y-47857100D01*
X143375503Y-47857100D01*
X143442542Y-47876785D01*
X143463184Y-47893419D01*
X143635781Y-48066016D01*
X143669266Y-48127339D01*
X143672100Y-48153697D01*
X143672100Y-52845687D01*
X143652415Y-52912726D01*
X143645050Y-52922996D01*
X143642786Y-52925834D01*
X143546811Y-53078576D01*
X143487231Y-53248845D01*
X143487230Y-53248850D01*
X143467035Y-53428096D01*
X143467035Y-53428103D01*
X143487230Y-53607349D01*
X143487231Y-53607354D01*
X143546811Y-53777623D01*
X143607115Y-53873596D01*
X143613893Y-53884383D01*
X143642785Y-53930363D01*
X143645045Y-53933197D01*
X143645934Y-53935375D01*
X143646489Y-53936258D01*
X143646334Y-53936355D01*
X143671455Y-53997883D01*
X143672100Y-54010512D01*
X143672100Y-54156112D01*
X143671038Y-54172297D01*
X143666918Y-54203600D01*
X143669215Y-54221051D01*
X143672100Y-54242960D01*
X143672100Y-54242961D01*
X143687555Y-54360360D01*
X143687556Y-54360362D01*
X143748064Y-54506441D01*
X143806820Y-54583013D01*
X143844319Y-54631883D01*
X143869369Y-54651104D01*
X143881564Y-54661799D01*
X147243399Y-58023634D01*
X147254093Y-58035828D01*
X147273318Y-58060882D01*
X147369731Y-58134862D01*
X147398759Y-58157136D01*
X147398762Y-58157137D01*
X147398763Y-58157138D01*
X147471798Y-58187390D01*
X147544838Y-58217644D01*
X147623219Y-58227963D01*
X147701599Y-58238282D01*
X147701600Y-58238282D01*
X147732902Y-58234160D01*
X147749087Y-58233100D01*
X149024188Y-58233100D01*
X149091227Y-58252785D01*
X149101503Y-58260155D01*
X149104336Y-58262414D01*
X149104338Y-58262416D01*
X149257078Y-58358389D01*
X149349409Y-58390697D01*
X149427345Y-58417968D01*
X149427350Y-58417969D01*
X149606596Y-58438165D01*
X149606600Y-58438165D01*
X149606604Y-58438165D01*
X149785849Y-58417969D01*
X149785852Y-58417968D01*
X149785855Y-58417968D01*
X149956122Y-58358389D01*
X150108862Y-58262416D01*
X150236416Y-58134862D01*
X150332389Y-57982122D01*
X150391968Y-57811855D01*
X150398787Y-57751338D01*
X150412165Y-57632603D01*
X150412165Y-57632596D01*
X150391969Y-57453350D01*
X150391968Y-57453345D01*
X150390110Y-57448035D01*
X150332389Y-57283078D01*
X150236416Y-57130338D01*
X150108862Y-57002784D01*
X150043533Y-56961735D01*
X149956123Y-56906811D01*
X149785854Y-56847231D01*
X149785849Y-56847230D01*
X149606604Y-56827035D01*
X149606596Y-56827035D01*
X149427350Y-56847230D01*
X149427345Y-56847231D01*
X149257076Y-56906811D01*
X149104336Y-57002785D01*
X149101503Y-57005045D01*
X149099324Y-57005934D01*
X149098442Y-57006489D01*
X149098344Y-57006334D01*
X149036817Y-57031455D01*
X149024188Y-57032100D01*
X148001697Y-57032100D01*
X147934658Y-57012415D01*
X147914016Y-56995781D01*
X144951572Y-54033337D01*
X144918087Y-53972014D01*
X144923071Y-53902322D01*
X144934259Y-53879684D01*
X144955312Y-53846178D01*
X144998389Y-53777622D01*
X145057968Y-53607355D01*
X145057969Y-53607349D01*
X145078165Y-53428103D01*
X145078165Y-53428096D01*
X145057969Y-53248850D01*
X145057968Y-53248845D01*
X145018254Y-53135350D01*
X144998389Y-53078578D01*
X144902416Y-52925838D01*
X144902414Y-52925836D01*
X144902413Y-52925834D01*
X144900150Y-52922996D01*
X144899259Y-52920815D01*
X144898711Y-52919942D01*
X144898864Y-52919845D01*
X144873744Y-52858309D01*
X144873100Y-52845687D01*
X144873100Y-47901087D01*
X144874161Y-47884901D01*
X144874377Y-47883265D01*
X144878282Y-47853600D01*
X144873323Y-47815935D01*
X144857644Y-47696839D01*
X144857644Y-47696838D01*
X144797136Y-47550759D01*
X144797135Y-47550758D01*
X144797135Y-47550757D01*
X144722587Y-47453603D01*
X144722570Y-47453583D01*
X144700882Y-47425318D01*
X144675824Y-47406090D01*
X144663646Y-47395410D01*
X144437015Y-47168779D01*
X144403531Y-47107458D01*
X144408515Y-47037766D01*
X144450387Y-46981833D01*
X144515851Y-46957416D01*
X144524697Y-46957100D01*
X179004708Y-46957100D01*
X179066172Y-46957100D01*
X179075018Y-46957416D01*
X179315863Y-46974641D01*
X179333364Y-46977158D01*
X179564970Y-47027540D01*
X179581935Y-47032521D01*
X179804020Y-47115354D01*
X179820103Y-47122699D01*
X179953721Y-47195661D01*
X180028131Y-47236292D01*
X180043014Y-47245857D01*
X180232754Y-47387894D01*
X180246125Y-47399480D01*
X180413719Y-47567074D01*
X180425305Y-47580445D01*
X180567342Y-47770185D01*
X180576907Y-47785068D01*
X180690497Y-47993091D01*
X180697847Y-48009185D01*
X180780676Y-48231259D01*
X180785660Y-48248234D01*
X180836040Y-48479829D01*
X180838558Y-48497341D01*
X180855784Y-48738181D01*
X180856100Y-48747027D01*
X180856100Y-74982769D01*
X180836415Y-75049808D01*
X180783611Y-75095563D01*
X180714453Y-75105507D01*
X180650897Y-75076482D01*
X180615059Y-75023724D01*
X180584390Y-74936080D01*
X180584389Y-74936078D01*
X180488416Y-74783338D01*
X180360862Y-74655784D01*
X180335570Y-74639892D01*
X180208123Y-74559811D01*
X180037854Y-74500231D01*
X180037849Y-74500230D01*
X179858604Y-74480035D01*
X179858596Y-74480035D01*
X179679350Y-74500230D01*
X179679345Y-74500231D01*
X179509076Y-74559811D01*
X179356337Y-74655784D01*
X179228784Y-74783337D01*
X179132811Y-74936076D01*
X179073231Y-75106345D01*
X179073230Y-75106350D01*
X179053035Y-75285596D01*
X179053035Y-75285603D01*
X179073230Y-75464849D01*
X179073231Y-75464854D01*
X179132811Y-75635123D01*
X179228784Y-75787862D01*
X179231045Y-75790697D01*
X179231934Y-75792875D01*
X179232489Y-75793758D01*
X179232334Y-75793855D01*
X179257455Y-75855383D01*
X179258100Y-75868012D01*
X179258100Y-78259187D01*
X179238415Y-78326226D01*
X179231050Y-78336496D01*
X179228786Y-78339334D01*
X179132811Y-78492076D01*
X179073231Y-78662345D01*
X179073230Y-78662350D01*
X179053035Y-78841596D01*
X179053035Y-78841603D01*
X179073230Y-79020849D01*
X179073231Y-79020854D01*
X179132811Y-79191123D01*
X179177940Y-79262944D01*
X179213640Y-79319761D01*
X179228785Y-79343863D01*
X179231045Y-79346697D01*
X179231934Y-79348875D01*
X179232489Y-79349758D01*
X179232334Y-79349855D01*
X179257455Y-79411383D01*
X179258100Y-79424012D01*
X179258100Y-81841187D01*
X179238415Y-81908226D01*
X179231050Y-81918496D01*
X179228786Y-81921334D01*
X179132811Y-82074076D01*
X179073231Y-82244345D01*
X179073230Y-82244350D01*
X179053035Y-82423596D01*
X179053035Y-82423603D01*
X179073230Y-82602849D01*
X179073231Y-82602854D01*
X179132811Y-82773123D01*
X179193115Y-82869096D01*
X179216054Y-82905603D01*
X179228785Y-82925863D01*
X179231045Y-82928697D01*
X179231934Y-82930875D01*
X179232489Y-82931758D01*
X179232334Y-82931855D01*
X179257455Y-82993383D01*
X179258100Y-83006012D01*
X179258100Y-85371187D01*
X179238415Y-85438226D01*
X179231050Y-85448496D01*
X179228786Y-85451334D01*
X179132811Y-85604076D01*
X179073231Y-85774345D01*
X179073230Y-85774350D01*
X179053035Y-85953596D01*
X179053035Y-85953603D01*
X179073230Y-86132849D01*
X179073231Y-86132854D01*
X179132811Y-86303123D01*
X179228785Y-86455863D01*
X179231045Y-86458697D01*
X179231934Y-86460875D01*
X179232489Y-86461758D01*
X179232334Y-86461855D01*
X179257455Y-86523383D01*
X179258100Y-86536012D01*
X179258100Y-87659503D01*
X179238415Y-87726542D01*
X179221781Y-87747184D01*
X178985184Y-87983781D01*
X178923861Y-88017266D01*
X178897503Y-88020100D01*
X164921012Y-88020100D01*
X164853973Y-88000415D01*
X164843697Y-87993045D01*
X164840863Y-87990785D01*
X164840862Y-87990784D01*
X164728589Y-87920238D01*
X164688123Y-87894811D01*
X164517854Y-87835231D01*
X164517850Y-87835230D01*
X164490510Y-87832150D01*
X164426096Y-87805082D01*
X164386542Y-87747487D01*
X164381175Y-87722813D01*
X164361969Y-87552350D01*
X164361968Y-87552345D01*
X164303446Y-87385100D01*
X164302389Y-87382078D01*
X164288195Y-87359489D01*
X164225563Y-87259811D01*
X164206416Y-87229338D01*
X164206414Y-87229336D01*
X164206413Y-87229334D01*
X164204150Y-87226496D01*
X164203259Y-87224315D01*
X164202711Y-87223442D01*
X164202864Y-87223345D01*
X164177744Y-87161809D01*
X164177100Y-87149187D01*
X164177100Y-85953603D01*
X171293035Y-85953603D01*
X171313230Y-86132849D01*
X171313231Y-86132854D01*
X171372811Y-86303123D01*
X171412369Y-86366078D01*
X171468784Y-86455862D01*
X171596338Y-86583416D01*
X171749078Y-86679389D01*
X171852552Y-86715596D01*
X171919345Y-86738968D01*
X171919350Y-86738969D01*
X172098596Y-86759165D01*
X172098600Y-86759165D01*
X172098604Y-86759165D01*
X172277849Y-86738969D01*
X172277852Y-86738968D01*
X172277855Y-86738968D01*
X172448122Y-86679389D01*
X172600862Y-86583416D01*
X172728416Y-86455862D01*
X172824389Y-86303122D01*
X172883968Y-86132855D01*
X172904165Y-85953600D01*
X172897596Y-85895300D01*
X172883969Y-85774350D01*
X172883968Y-85774345D01*
X172864185Y-85717808D01*
X172824389Y-85604078D01*
X172728416Y-85451338D01*
X172600862Y-85323784D01*
X172448123Y-85227811D01*
X172277854Y-85168231D01*
X172277849Y-85168230D01*
X172098604Y-85148035D01*
X172098596Y-85148035D01*
X171919350Y-85168230D01*
X171919345Y-85168231D01*
X171749076Y-85227811D01*
X171596337Y-85323784D01*
X171468784Y-85451337D01*
X171372811Y-85604076D01*
X171313231Y-85774345D01*
X171313230Y-85774350D01*
X171293035Y-85953596D01*
X171293035Y-85953603D01*
X164177100Y-85953603D01*
X164177100Y-83488012D01*
X164196785Y-83420973D01*
X164204155Y-83410697D01*
X164206410Y-83407867D01*
X164206416Y-83407862D01*
X164302389Y-83255122D01*
X164361968Y-83084855D01*
X164363888Y-83067815D01*
X164382165Y-82905603D01*
X164382165Y-82905596D01*
X164361969Y-82726350D01*
X164361968Y-82726345D01*
X164318757Y-82602855D01*
X164302389Y-82556078D01*
X164206416Y-82403338D01*
X164206414Y-82403336D01*
X164206413Y-82403334D01*
X164204150Y-82400496D01*
X164203259Y-82398315D01*
X164202711Y-82397442D01*
X164202864Y-82397345D01*
X164177744Y-82335809D01*
X164177100Y-82323187D01*
X164177100Y-74315697D01*
X164196785Y-74248658D01*
X164213419Y-74228016D01*
X164424016Y-74017419D01*
X164485339Y-73983934D01*
X164511697Y-73981100D01*
X173445113Y-73981100D01*
X173461297Y-73982160D01*
X173492600Y-73986282D01*
X173500727Y-73986282D01*
X173500727Y-73988016D01*
X173560004Y-73997252D01*
X173612266Y-74043625D01*
X173631160Y-74110892D01*
X173610689Y-74177695D01*
X173594850Y-74197114D01*
X173143184Y-74648781D01*
X173081861Y-74682266D01*
X173055503Y-74685100D01*
X172668012Y-74685100D01*
X172600973Y-74665415D01*
X172590697Y-74658045D01*
X172587863Y-74655785D01*
X172587862Y-74655784D01*
X172531096Y-74620115D01*
X172435123Y-74559811D01*
X172264854Y-74500231D01*
X172264849Y-74500230D01*
X172085604Y-74480035D01*
X172085596Y-74480035D01*
X171906350Y-74500230D01*
X171906345Y-74500231D01*
X171736076Y-74559811D01*
X171583337Y-74655784D01*
X171455784Y-74783337D01*
X171359811Y-74936076D01*
X171300231Y-75106345D01*
X171300230Y-75106350D01*
X171280035Y-75285596D01*
X171280035Y-75285603D01*
X171300230Y-75464849D01*
X171300231Y-75464854D01*
X171359811Y-75635123D01*
X171385896Y-75676636D01*
X171455784Y-75787862D01*
X171583338Y-75915416D01*
X171736078Y-76011389D01*
X171906345Y-76070968D01*
X171906350Y-76070969D01*
X172085596Y-76091165D01*
X172085600Y-76091165D01*
X172085604Y-76091165D01*
X172264849Y-76070969D01*
X172264852Y-76070968D01*
X172264855Y-76070968D01*
X172435122Y-76011389D01*
X172587862Y-75915416D01*
X172587867Y-75915410D01*
X172590697Y-75913155D01*
X172592875Y-75912265D01*
X172593758Y-75911711D01*
X172593855Y-75911865D01*
X172655383Y-75886745D01*
X172668012Y-75886100D01*
X173308113Y-75886100D01*
X173324297Y-75887160D01*
X173355600Y-75891282D01*
X173355601Y-75891282D01*
X173407854Y-75884402D01*
X173512362Y-75870644D01*
X173658436Y-75810138D01*
X173658437Y-75810138D01*
X173658437Y-75810137D01*
X173658441Y-75810136D01*
X173687469Y-75787862D01*
X173783882Y-75713882D01*
X173803110Y-75688822D01*
X173813789Y-75676644D01*
X176099421Y-73391013D01*
X176160742Y-73357530D01*
X176230434Y-73362514D01*
X176286367Y-73404386D01*
X176310784Y-73469850D01*
X176311100Y-73478696D01*
X176311100Y-73715502D01*
X176291415Y-73782541D01*
X176274781Y-73803183D01*
X172067065Y-78010898D01*
X172005742Y-78044383D01*
X171993268Y-78046437D01*
X171906350Y-78056230D01*
X171736078Y-78115810D01*
X171583337Y-78211784D01*
X171455784Y-78339337D01*
X171359811Y-78492076D01*
X171300231Y-78662345D01*
X171300230Y-78662350D01*
X171280035Y-78841596D01*
X171280035Y-78841603D01*
X171300230Y-79020849D01*
X171300231Y-79020854D01*
X171359811Y-79191123D01*
X171440640Y-79319760D01*
X171455784Y-79343862D01*
X171583338Y-79471416D01*
X171736078Y-79567389D01*
X171906345Y-79626968D01*
X171906350Y-79626969D01*
X172085596Y-79647165D01*
X172085600Y-79647165D01*
X172085604Y-79647165D01*
X172264849Y-79626969D01*
X172264852Y-79626968D01*
X172264855Y-79626968D01*
X172435122Y-79567389D01*
X172587862Y-79471416D01*
X172715416Y-79343862D01*
X172811389Y-79191122D01*
X172870968Y-79020855D01*
X172880761Y-78933929D01*
X172907826Y-78869518D01*
X172916290Y-78860143D01*
X176861421Y-74915013D01*
X176922742Y-74881530D01*
X176992434Y-74886514D01*
X177048367Y-74928386D01*
X177072784Y-74993850D01*
X177073100Y-75002696D01*
X177073100Y-76516002D01*
X177053415Y-76583041D01*
X177036781Y-76603683D01*
X172073565Y-81566898D01*
X172012242Y-81600383D01*
X171999768Y-81602437D01*
X171912850Y-81612230D01*
X171742578Y-81671810D01*
X171589837Y-81767784D01*
X171462284Y-81895337D01*
X171366311Y-82048076D01*
X171306731Y-82218345D01*
X171306730Y-82218350D01*
X171286535Y-82397596D01*
X171286535Y-82397603D01*
X171306730Y-82576849D01*
X171306731Y-82576854D01*
X171366311Y-82747123D01*
X171446110Y-82874122D01*
X171462284Y-82899862D01*
X171589838Y-83027416D01*
X171650862Y-83065760D01*
X171707423Y-83101300D01*
X171742578Y-83123389D01*
X171912845Y-83182968D01*
X171912850Y-83182969D01*
X172092096Y-83203165D01*
X172092100Y-83203165D01*
X172092104Y-83203165D01*
X172271349Y-83182969D01*
X172271352Y-83182968D01*
X172271355Y-83182968D01*
X172441622Y-83123389D01*
X172594362Y-83027416D01*
X172721916Y-82899862D01*
X172817889Y-82747122D01*
X172877468Y-82576855D01*
X172887261Y-82489929D01*
X172914326Y-82425518D01*
X172922790Y-82416143D01*
X178064643Y-77274290D01*
X178076823Y-77263609D01*
X178101882Y-77244382D01*
X178198136Y-77118941D01*
X178258644Y-76972862D01*
X178274100Y-76855461D01*
X178279282Y-76816100D01*
X178275161Y-76784797D01*
X178274100Y-76768612D01*
X178274100Y-68094087D01*
X178275161Y-68077901D01*
X178279282Y-68046599D01*
X178279282Y-68046598D01*
X178258644Y-67889839D01*
X178258642Y-67889834D01*
X178252306Y-67874538D01*
X178228390Y-67816798D01*
X178198138Y-67743763D01*
X178198135Y-67743758D01*
X178191330Y-67734890D01*
X178150851Y-67682136D01*
X178101882Y-67618318D01*
X178099362Y-67616384D01*
X178076828Y-67599093D01*
X178064634Y-67588399D01*
X174956799Y-64480564D01*
X174946104Y-64468369D01*
X174926883Y-64443319D01*
X174919967Y-64438012D01*
X174801441Y-64347064D01*
X174784942Y-64340230D01*
X174655362Y-64286556D01*
X174655360Y-64286555D01*
X174498601Y-64265918D01*
X174498600Y-64265918D01*
X174467297Y-64270039D01*
X174451113Y-64271100D01*
X174136691Y-64271100D01*
X174069652Y-64251415D01*
X174024311Y-64199509D01*
X174021637Y-64193775D01*
X174021634Y-64193770D01*
X174021633Y-64193769D01*
X173963602Y-64110890D01*
X173886094Y-64000197D01*
X173719002Y-63833106D01*
X173718995Y-63833101D01*
X173525434Y-63697567D01*
X173525430Y-63697565D01*
X173479934Y-63676350D01*
X173311263Y-63597697D01*
X173311259Y-63597696D01*
X173311255Y-63597694D01*
X173083013Y-63536538D01*
X173083003Y-63536536D01*
X172847601Y-63515941D01*
X172847599Y-63515941D01*
X172612196Y-63536536D01*
X172612186Y-63536538D01*
X172383944Y-63597694D01*
X172383935Y-63597698D01*
X172169771Y-63697564D01*
X172169769Y-63697565D01*
X171976197Y-63833105D01*
X171809105Y-64000197D01*
X171679175Y-64185758D01*
X171624598Y-64229383D01*
X171555100Y-64236577D01*
X171492745Y-64205054D01*
X171476025Y-64185758D01*
X171346094Y-64000197D01*
X171179002Y-63833106D01*
X171178995Y-63833101D01*
X170985434Y-63697567D01*
X170985430Y-63697565D01*
X170939934Y-63676350D01*
X170771263Y-63597697D01*
X170771259Y-63597696D01*
X170771255Y-63597694D01*
X170543013Y-63536538D01*
X170543003Y-63536536D01*
X170307601Y-63515941D01*
X170307599Y-63515941D01*
X170072196Y-63536536D01*
X170072186Y-63536538D01*
X169843944Y-63597694D01*
X169843935Y-63597698D01*
X169629771Y-63697564D01*
X169629769Y-63697565D01*
X169436197Y-63833105D01*
X169269105Y-64000197D01*
X169139175Y-64185758D01*
X169084598Y-64229383D01*
X169015100Y-64236577D01*
X168952745Y-64205054D01*
X168936025Y-64185758D01*
X168806094Y-64000197D01*
X168639002Y-63833106D01*
X168638995Y-63833101D01*
X168445434Y-63697567D01*
X168445430Y-63697565D01*
X168399934Y-63676350D01*
X168231263Y-63597697D01*
X168231259Y-63597696D01*
X168231255Y-63597694D01*
X168003013Y-63536538D01*
X168003003Y-63536536D01*
X167767601Y-63515941D01*
X167767599Y-63515941D01*
X167532196Y-63536536D01*
X167532186Y-63536538D01*
X167303944Y-63597694D01*
X167303935Y-63597698D01*
X167089771Y-63697564D01*
X167089769Y-63697565D01*
X166896197Y-63833105D01*
X166729105Y-64000197D01*
X166593565Y-64193769D01*
X166593564Y-64193771D01*
X166493698Y-64407935D01*
X166493694Y-64407944D01*
X166432538Y-64636186D01*
X166432536Y-64636196D01*
X166411941Y-64871599D01*
X166411941Y-64871600D01*
X166432536Y-65107003D01*
X166432538Y-65107013D01*
X166493694Y-65335255D01*
X166493696Y-65335259D01*
X166493697Y-65335263D01*
X166576958Y-65513817D01*
X166593565Y-65549430D01*
X166593567Y-65549434D01*
X166651994Y-65632875D01*
X166729105Y-65743001D01*
X166896199Y-65910095D01*
X166977919Y-65967316D01*
X167089765Y-66045632D01*
X167089767Y-66045633D01*
X167089770Y-66045635D01*
X167095498Y-66048306D01*
X167147939Y-66094472D01*
X167167100Y-66160690D01*
X167167100Y-67110112D01*
X167166038Y-67126297D01*
X167161918Y-67157600D01*
X167166418Y-67191784D01*
X167167100Y-67196960D01*
X167167100Y-67196961D01*
X167182555Y-67314360D01*
X167182556Y-67314362D01*
X167243064Y-67460441D01*
X167305522Y-67541838D01*
X167339319Y-67585883D01*
X167364369Y-67605104D01*
X167376564Y-67615799D01*
X167944399Y-68183634D01*
X167955093Y-68195828D01*
X167974315Y-68220879D01*
X167974316Y-68220880D01*
X167974318Y-68220882D01*
X168058453Y-68285441D01*
X168099759Y-68317136D01*
X168245838Y-68377644D01*
X168324219Y-68387963D01*
X168402599Y-68398282D01*
X168402600Y-68398282D01*
X168433902Y-68394160D01*
X168450087Y-68393100D01*
X175341503Y-68393100D01*
X175408542Y-68412785D01*
X175429184Y-68429419D01*
X175639781Y-68640016D01*
X175673266Y-68701339D01*
X175676100Y-68727697D01*
X175676100Y-69697874D01*
X175656415Y-69764913D01*
X175603611Y-69810668D01*
X175534453Y-69820612D01*
X175470897Y-69791587D01*
X175433123Y-69732809D01*
X175432325Y-69729967D01*
X175401505Y-69614944D01*
X175401504Y-69614943D01*
X175401503Y-69614937D01*
X175301635Y-69400771D01*
X175301634Y-69400769D01*
X175166094Y-69207197D01*
X174999002Y-69040106D01*
X174998995Y-69040101D01*
X174805434Y-68904567D01*
X174805430Y-68904565D01*
X174750181Y-68878802D01*
X174591263Y-68804697D01*
X174591259Y-68804696D01*
X174591255Y-68804694D01*
X174363013Y-68743538D01*
X174363003Y-68743536D01*
X174127601Y-68722941D01*
X174127599Y-68722941D01*
X173892196Y-68743536D01*
X173892186Y-68743538D01*
X173663944Y-68804694D01*
X173663935Y-68804698D01*
X173449771Y-68904564D01*
X173449769Y-68904565D01*
X173256197Y-69040105D01*
X173089105Y-69207197D01*
X172959175Y-69392758D01*
X172904598Y-69436383D01*
X172835100Y-69443577D01*
X172772745Y-69412054D01*
X172756025Y-69392758D01*
X172626094Y-69207197D01*
X172459002Y-69040106D01*
X172458995Y-69040101D01*
X172265434Y-68904567D01*
X172265430Y-68904565D01*
X172210181Y-68878802D01*
X172051263Y-68804697D01*
X172051259Y-68804696D01*
X172051255Y-68804694D01*
X171823013Y-68743538D01*
X171823003Y-68743536D01*
X171587601Y-68722941D01*
X171587599Y-68722941D01*
X171352196Y-68743536D01*
X171352186Y-68743538D01*
X171123944Y-68804694D01*
X171123935Y-68804698D01*
X170909771Y-68904564D01*
X170909769Y-68904565D01*
X170716197Y-69040105D01*
X170549105Y-69207197D01*
X170419175Y-69392758D01*
X170364598Y-69436383D01*
X170295100Y-69443577D01*
X170232745Y-69412054D01*
X170216025Y-69392758D01*
X170086094Y-69207197D01*
X169919002Y-69040106D01*
X169918995Y-69040101D01*
X169725434Y-68904567D01*
X169725430Y-68904565D01*
X169670181Y-68878802D01*
X169511263Y-68804697D01*
X169511259Y-68804696D01*
X169511255Y-68804694D01*
X169283013Y-68743538D01*
X169283003Y-68743536D01*
X169047601Y-68722941D01*
X169047599Y-68722941D01*
X168812196Y-68743536D01*
X168812186Y-68743538D01*
X168583944Y-68804694D01*
X168583935Y-68804698D01*
X168369771Y-68904564D01*
X168369769Y-68904565D01*
X168176197Y-69040105D01*
X168009105Y-69207197D01*
X167879175Y-69392758D01*
X167824598Y-69436383D01*
X167755100Y-69443577D01*
X167692745Y-69412054D01*
X167676025Y-69392758D01*
X167546094Y-69207197D01*
X167379002Y-69040106D01*
X167378995Y-69040101D01*
X167185434Y-68904567D01*
X167185430Y-68904565D01*
X167130181Y-68878802D01*
X166971263Y-68804697D01*
X166971259Y-68804696D01*
X166971255Y-68804694D01*
X166743013Y-68743538D01*
X166743003Y-68743536D01*
X166507601Y-68722941D01*
X166507599Y-68722941D01*
X166272196Y-68743536D01*
X166272186Y-68743538D01*
X166043944Y-68804694D01*
X166043935Y-68804698D01*
X165829771Y-68904564D01*
X165829769Y-68904565D01*
X165636197Y-69040105D01*
X165469106Y-69207196D01*
X165333565Y-69400770D01*
X165333562Y-69400775D01*
X165330889Y-69406509D01*
X165284715Y-69458946D01*
X165218509Y-69478100D01*
X164640087Y-69478100D01*
X164623902Y-69477039D01*
X164592600Y-69472918D01*
X164553239Y-69478100D01*
X164435839Y-69493555D01*
X164435837Y-69493556D01*
X164289757Y-69554064D01*
X164164318Y-69650316D01*
X164145089Y-69675375D01*
X164134398Y-69687565D01*
X161289565Y-72532398D01*
X161277375Y-72543089D01*
X161252320Y-72562315D01*
X161252318Y-72562318D01*
X161204116Y-72625136D01*
X161204115Y-72625136D01*
X161156064Y-72687757D01*
X161095556Y-72833837D01*
X161095555Y-72833839D01*
X161074918Y-72990598D01*
X161074918Y-72990600D01*
X161079039Y-73021901D01*
X161080100Y-73038087D01*
X161080100Y-86133187D01*
X161060415Y-86200226D01*
X161053050Y-86210496D01*
X161050786Y-86213334D01*
X160954811Y-86366076D01*
X160895231Y-86536345D01*
X160895230Y-86536350D01*
X160875035Y-86715596D01*
X160875035Y-86715603D01*
X160895230Y-86894849D01*
X160895231Y-86894854D01*
X160954811Y-87065123D01*
X161007633Y-87149187D01*
X161039706Y-87200232D01*
X161050785Y-87217863D01*
X161053045Y-87220697D01*
X161053934Y-87222875D01*
X161054489Y-87223758D01*
X161054334Y-87223855D01*
X161079455Y-87285383D01*
X161080100Y-87298012D01*
X161080100Y-97807660D01*
X161060415Y-97874699D01*
X161043781Y-97895341D01*
X161041784Y-97897337D01*
X160945810Y-98050078D01*
X160886230Y-98220350D01*
X160876437Y-98307268D01*
X160849370Y-98371682D01*
X160840898Y-98381065D01*
X160316184Y-98905781D01*
X160254861Y-98939266D01*
X160228503Y-98942100D01*
X148765087Y-98942100D01*
X148748902Y-98941039D01*
X148717600Y-98936918D01*
X148717599Y-98936918D01*
X148560839Y-98957555D01*
X148560837Y-98957556D01*
X148414760Y-99018063D01*
X148289314Y-99114321D01*
X148270095Y-99139369D01*
X148259400Y-99151564D01*
X147937065Y-99473898D01*
X147875742Y-99507383D01*
X147863268Y-99509437D01*
X147776350Y-99519230D01*
X147606078Y-99578810D01*
X147453337Y-99674784D01*
X147325784Y-99802337D01*
X147229811Y-99955076D01*
X147170231Y-100125345D01*
X147170230Y-100125350D01*
X147150035Y-100304596D01*
X147150035Y-100304603D01*
X147170230Y-100483849D01*
X147170231Y-100483854D01*
X147229811Y-100654123D01*
X147306637Y-100776390D01*
X147325784Y-100806862D01*
X147453338Y-100934416D01*
X147606078Y-101030389D01*
X147776345Y-101089968D01*
X147776350Y-101089969D01*
X147955596Y-101110165D01*
X147955600Y-101110165D01*
X147955604Y-101110165D01*
X148134849Y-101089969D01*
X148134852Y-101089968D01*
X148134855Y-101089968D01*
X148305122Y-101030389D01*
X148457862Y-100934416D01*
X148585416Y-100806862D01*
X148681389Y-100654122D01*
X148740968Y-100483855D01*
X148750761Y-100396929D01*
X148777826Y-100332518D01*
X148786280Y-100323154D01*
X148930017Y-100179417D01*
X148991340Y-100145934D01*
X149017697Y-100143100D01*
X151601476Y-100143100D01*
X151668515Y-100162785D01*
X151714270Y-100215589D01*
X151724696Y-100280985D01*
X151722035Y-100304599D01*
X151722035Y-100304603D01*
X151742230Y-100483849D01*
X151742231Y-100483854D01*
X151801811Y-100654123D01*
X151897785Y-100806863D01*
X151900045Y-100809697D01*
X151900934Y-100811875D01*
X151901489Y-100812758D01*
X151901334Y-100812855D01*
X151926455Y-100874383D01*
X151927100Y-100887012D01*
X151927100Y-103051112D01*
X151926039Y-103067297D01*
X151921918Y-103098598D01*
X151921918Y-103098601D01*
X151937955Y-103220416D01*
X151942555Y-103255361D01*
X152003063Y-103401439D01*
X152003064Y-103401441D01*
X152099318Y-103526882D01*
X152099319Y-103526883D01*
X152124369Y-103546104D01*
X152136564Y-103556799D01*
X153855898Y-105276133D01*
X153889383Y-105337456D01*
X153891437Y-105349930D01*
X153901230Y-105436849D01*
X153960810Y-105607121D01*
X153965907Y-105615232D01*
X154056784Y-105759862D01*
X154184338Y-105887416D01*
X154337078Y-105983389D01*
X154507345Y-106042968D01*
X154507350Y-106042969D01*
X154686596Y-106063165D01*
X154686600Y-106063165D01*
X154686604Y-106063165D01*
X154865849Y-106042969D01*
X154865852Y-106042968D01*
X154865855Y-106042968D01*
X155036122Y-105983389D01*
X155188862Y-105887416D01*
X155316416Y-105759862D01*
X155412389Y-105607122D01*
X155471968Y-105436855D01*
X155481762Y-105349930D01*
X155492165Y-105257603D01*
X155492165Y-105257596D01*
X155471969Y-105078350D01*
X155471968Y-105078345D01*
X155412388Y-104908076D01*
X155316415Y-104755337D01*
X155188862Y-104627784D01*
X155036121Y-104531810D01*
X154865849Y-104472230D01*
X154778930Y-104462437D01*
X154714516Y-104435370D01*
X154705133Y-104426898D01*
X153164419Y-102886184D01*
X153130934Y-102824861D01*
X153128100Y-102798503D01*
X153128100Y-100887012D01*
X153147785Y-100819973D01*
X153155155Y-100809697D01*
X153157410Y-100806867D01*
X153157416Y-100806862D01*
X153253389Y-100654122D01*
X153312968Y-100483855D01*
X153316811Y-100449747D01*
X153333165Y-100304603D01*
X153333165Y-100304599D01*
X153330504Y-100280985D01*
X153342558Y-100212163D01*
X153389906Y-100160783D01*
X153453724Y-100143100D01*
X157189476Y-100143100D01*
X157256515Y-100162785D01*
X157302270Y-100215589D01*
X157312696Y-100280985D01*
X157310035Y-100304599D01*
X157310035Y-100304603D01*
X157330230Y-100483849D01*
X157330231Y-100483854D01*
X157389811Y-100654123D01*
X157466637Y-100776390D01*
X157485784Y-100806862D01*
X157613338Y-100934416D01*
X157766078Y-101030389D01*
X157936345Y-101089968D01*
X157936350Y-101089969D01*
X158115596Y-101110165D01*
X158115600Y-101110165D01*
X158115604Y-101110165D01*
X158294849Y-101089969D01*
X158294852Y-101089968D01*
X158294855Y-101089968D01*
X158465122Y-101030389D01*
X158617862Y-100934416D01*
X158617867Y-100934410D01*
X158620697Y-100932155D01*
X158622875Y-100931265D01*
X158623758Y-100930711D01*
X158623855Y-100930865D01*
X158685383Y-100905745D01*
X158698012Y-100905100D01*
X160735113Y-100905100D01*
X160751297Y-100906160D01*
X160782600Y-100910282D01*
X160782601Y-100910282D01*
X160834854Y-100903402D01*
X160939362Y-100889644D01*
X161085441Y-100829136D01*
X161154182Y-100776389D01*
X161210882Y-100732882D01*
X161230109Y-100707823D01*
X161240790Y-100695643D01*
X161674628Y-100261805D01*
X161735949Y-100228322D01*
X161805641Y-100233306D01*
X161861574Y-100275178D01*
X161885527Y-100335604D01*
X161902230Y-100483850D01*
X161902231Y-100483854D01*
X161961811Y-100654123D01*
X162057785Y-100806863D01*
X162060045Y-100809697D01*
X162060934Y-100811875D01*
X162061489Y-100812758D01*
X162061334Y-100812855D01*
X162086455Y-100874383D01*
X162087100Y-100887012D01*
X162087100Y-103051112D01*
X162086039Y-103067297D01*
X162081918Y-103098598D01*
X162081918Y-103098601D01*
X162097955Y-103220416D01*
X162102555Y-103255361D01*
X162163063Y-103401439D01*
X162163064Y-103401441D01*
X162259318Y-103526882D01*
X162259319Y-103526883D01*
X162284369Y-103546104D01*
X162296564Y-103556799D01*
X164015898Y-105276133D01*
X164049383Y-105337456D01*
X164051437Y-105349930D01*
X164061230Y-105436849D01*
X164120810Y-105607121D01*
X164125907Y-105615232D01*
X164216784Y-105759862D01*
X164344338Y-105887416D01*
X164497078Y-105983389D01*
X164667345Y-106042968D01*
X164667350Y-106042969D01*
X164846596Y-106063165D01*
X164846600Y-106063165D01*
X164846604Y-106063165D01*
X165025849Y-106042969D01*
X165025852Y-106042968D01*
X165025855Y-106042968D01*
X165196122Y-105983389D01*
X165348862Y-105887416D01*
X165476416Y-105759862D01*
X165572389Y-105607122D01*
X165631968Y-105436855D01*
X165641762Y-105349930D01*
X165652165Y-105257603D01*
X165652165Y-105257596D01*
X165631969Y-105078350D01*
X165631968Y-105078345D01*
X165572388Y-104908076D01*
X165476415Y-104755337D01*
X165348862Y-104627784D01*
X165196121Y-104531810D01*
X165025849Y-104472230D01*
X164938930Y-104462437D01*
X164874516Y-104435370D01*
X164865133Y-104426898D01*
X163324419Y-102886184D01*
X163290934Y-102824861D01*
X163288100Y-102798503D01*
X163288100Y-100887012D01*
X163307785Y-100819973D01*
X163315155Y-100809697D01*
X163317410Y-100806867D01*
X163317416Y-100806862D01*
X163413389Y-100654122D01*
X163472968Y-100483855D01*
X163476811Y-100449743D01*
X163503876Y-100385333D01*
X163561470Y-100345776D01*
X163631307Y-100343637D01*
X163687712Y-100375947D01*
X164007399Y-100695634D01*
X164018093Y-100707828D01*
X164026696Y-100719039D01*
X164037318Y-100732882D01*
X164094016Y-100776387D01*
X164094017Y-100776388D01*
X164094018Y-100776390D01*
X164148687Y-100818338D01*
X164162759Y-100829136D01*
X164162761Y-100829136D01*
X164162763Y-100829138D01*
X164216722Y-100851488D01*
X164308838Y-100889644D01*
X164434292Y-100906161D01*
X164465599Y-100910283D01*
X164465600Y-100910283D01*
X164465601Y-100910283D01*
X164496908Y-100906161D01*
X164513094Y-100905100D01*
X167693188Y-100905100D01*
X167760227Y-100924785D01*
X167770503Y-100932155D01*
X167773336Y-100934414D01*
X167773338Y-100934416D01*
X167926078Y-101030389D01*
X168096345Y-101089968D01*
X168096350Y-101089969D01*
X168275596Y-101110165D01*
X168275600Y-101110165D01*
X168275604Y-101110165D01*
X168454849Y-101089969D01*
X168454852Y-101089968D01*
X168454855Y-101089968D01*
X168625122Y-101030389D01*
X168777862Y-100934416D01*
X168905416Y-100806862D01*
X169001389Y-100654122D01*
X169060968Y-100483855D01*
X169064811Y-100449747D01*
X169081165Y-100304603D01*
X169081165Y-100304599D01*
X169078504Y-100280985D01*
X169090558Y-100212163D01*
X169137906Y-100160783D01*
X169201724Y-100143100D01*
X171921476Y-100143100D01*
X171988515Y-100162785D01*
X172034270Y-100215589D01*
X172044696Y-100280985D01*
X172042035Y-100304599D01*
X172042035Y-100304603D01*
X172062230Y-100483849D01*
X172062231Y-100483854D01*
X172121811Y-100654123D01*
X172217785Y-100806863D01*
X172220045Y-100809697D01*
X172220934Y-100811875D01*
X172221489Y-100812758D01*
X172221334Y-100812855D01*
X172246455Y-100874383D01*
X172247100Y-100887012D01*
X172247100Y-103051112D01*
X172246039Y-103067297D01*
X172241918Y-103098598D01*
X172241918Y-103098601D01*
X172257955Y-103220416D01*
X172262555Y-103255361D01*
X172323063Y-103401439D01*
X172323064Y-103401441D01*
X172419318Y-103526882D01*
X172419319Y-103526883D01*
X172444369Y-103546104D01*
X172456564Y-103556799D01*
X174175898Y-105276133D01*
X174209383Y-105337456D01*
X174211437Y-105349930D01*
X174221230Y-105436849D01*
X174280810Y-105607121D01*
X174285907Y-105615232D01*
X174376784Y-105759862D01*
X174504338Y-105887416D01*
X174657078Y-105983389D01*
X174827345Y-106042968D01*
X174827350Y-106042969D01*
X175006596Y-106063165D01*
X175006600Y-106063165D01*
X175006604Y-106063165D01*
X175185849Y-106042969D01*
X175185852Y-106042968D01*
X175185855Y-106042968D01*
X175356122Y-105983389D01*
X175508862Y-105887416D01*
X175636416Y-105759862D01*
X175732389Y-105607122D01*
X175791968Y-105436855D01*
X175801762Y-105349930D01*
X175812165Y-105257603D01*
X175812165Y-105257596D01*
X175791969Y-105078350D01*
X175791968Y-105078345D01*
X175732388Y-104908076D01*
X175636415Y-104755337D01*
X175508862Y-104627784D01*
X175356121Y-104531810D01*
X175185849Y-104472230D01*
X175098930Y-104462437D01*
X175034516Y-104435370D01*
X175025133Y-104426898D01*
X173484419Y-102886184D01*
X173450934Y-102824861D01*
X173448100Y-102798503D01*
X173448100Y-100887012D01*
X173467785Y-100819973D01*
X173475155Y-100809697D01*
X173477410Y-100806867D01*
X173477416Y-100806862D01*
X173573389Y-100654122D01*
X173632968Y-100483855D01*
X173636811Y-100449747D01*
X173653165Y-100304603D01*
X173653165Y-100304599D01*
X173650504Y-100280985D01*
X173662558Y-100212163D01*
X173709906Y-100160783D01*
X173773724Y-100143100D01*
X177373503Y-100143100D01*
X177440542Y-100162785D01*
X177461184Y-100179419D01*
X177604898Y-100323133D01*
X177638383Y-100384456D01*
X177640437Y-100396930D01*
X177650230Y-100483849D01*
X177709810Y-100654121D01*
X177786637Y-100776390D01*
X177805784Y-100806862D01*
X177933338Y-100934416D01*
X178086078Y-101030389D01*
X178256345Y-101089968D01*
X178256350Y-101089969D01*
X178435596Y-101110165D01*
X178435600Y-101110165D01*
X178435604Y-101110165D01*
X178614849Y-101089969D01*
X178614852Y-101089968D01*
X178614855Y-101089968D01*
X178785122Y-101030389D01*
X178937862Y-100934416D01*
X179065416Y-100806862D01*
X179161389Y-100654122D01*
X179220968Y-100483855D01*
X179224811Y-100449747D01*
X179241165Y-100304603D01*
X179241165Y-100304596D01*
X179220969Y-100125350D01*
X179220968Y-100125345D01*
X179194815Y-100050603D01*
X179161389Y-99955078D01*
X179065416Y-99802338D01*
X178937862Y-99674784D01*
X178785121Y-99578810D01*
X178614849Y-99519230D01*
X178527930Y-99509437D01*
X178463516Y-99482370D01*
X178454133Y-99473898D01*
X178131799Y-99151564D01*
X178121103Y-99139367D01*
X178101886Y-99114322D01*
X178101883Y-99114320D01*
X178101882Y-99114318D01*
X177976441Y-99018064D01*
X177959942Y-99011230D01*
X177830362Y-98957556D01*
X177830360Y-98957555D01*
X177673601Y-98936918D01*
X177673600Y-98936918D01*
X177642297Y-98941039D01*
X177626113Y-98942100D01*
X165019697Y-98942100D01*
X164952658Y-98922415D01*
X164932016Y-98905781D01*
X164213419Y-98187184D01*
X164179934Y-98125861D01*
X164177100Y-98099503D01*
X164177100Y-96621603D01*
X171293035Y-96621603D01*
X171313230Y-96800849D01*
X171313231Y-96800854D01*
X171372811Y-96971123D01*
X171468784Y-97123862D01*
X171596338Y-97251416D01*
X171749078Y-97347389D01*
X171919345Y-97406968D01*
X171919350Y-97406969D01*
X172098596Y-97427165D01*
X172098600Y-97427165D01*
X172098604Y-97427165D01*
X172277849Y-97406969D01*
X172277852Y-97406968D01*
X172277855Y-97406968D01*
X172448122Y-97347389D01*
X172600862Y-97251416D01*
X172728416Y-97123862D01*
X172824389Y-96971122D01*
X172883968Y-96800855D01*
X172899619Y-96661947D01*
X172904165Y-96621603D01*
X172904165Y-96621596D01*
X172883969Y-96442350D01*
X172883968Y-96442345D01*
X172840727Y-96318769D01*
X172824389Y-96272078D01*
X172728416Y-96119338D01*
X172600862Y-95991784D01*
X172494664Y-95925055D01*
X172448123Y-95895811D01*
X172277854Y-95836231D01*
X172277849Y-95836230D01*
X172098604Y-95816035D01*
X172098596Y-95816035D01*
X171919350Y-95836230D01*
X171919345Y-95836231D01*
X171749076Y-95895811D01*
X171596337Y-95991784D01*
X171468784Y-96119337D01*
X171372811Y-96272076D01*
X171313231Y-96442345D01*
X171313230Y-96442350D01*
X171293035Y-96621596D01*
X171293035Y-96621603D01*
X164177100Y-96621603D01*
X164177100Y-93065603D01*
X171293035Y-93065603D01*
X171313230Y-93244849D01*
X171313231Y-93244854D01*
X171372811Y-93415123D01*
X171468784Y-93567862D01*
X171596338Y-93695416D01*
X171749078Y-93791389D01*
X171919345Y-93850968D01*
X171919350Y-93850969D01*
X172098596Y-93871165D01*
X172098600Y-93871165D01*
X172098604Y-93871165D01*
X172277849Y-93850969D01*
X172277852Y-93850968D01*
X172277855Y-93850968D01*
X172448122Y-93791389D01*
X172600862Y-93695416D01*
X172728416Y-93567862D01*
X172824389Y-93415122D01*
X172883968Y-93244855D01*
X172904165Y-93065600D01*
X172883968Y-92886345D01*
X172824389Y-92716078D01*
X172728416Y-92563338D01*
X172600862Y-92435784D01*
X172448123Y-92339811D01*
X172277854Y-92280231D01*
X172277849Y-92280230D01*
X172098604Y-92260035D01*
X172098596Y-92260035D01*
X171919350Y-92280230D01*
X171919345Y-92280231D01*
X171749076Y-92339811D01*
X171596337Y-92435784D01*
X171468784Y-92563337D01*
X171372811Y-92716076D01*
X171313231Y-92886345D01*
X171313230Y-92886350D01*
X171293035Y-93065596D01*
X171293035Y-93065603D01*
X164177100Y-93065603D01*
X164177100Y-89546724D01*
X164196785Y-89479685D01*
X164249589Y-89433930D01*
X164314984Y-89423504D01*
X164329560Y-89425146D01*
X164338599Y-89426165D01*
X164338600Y-89426165D01*
X164338604Y-89426165D01*
X164517849Y-89405969D01*
X164517852Y-89405968D01*
X164517855Y-89405968D01*
X164688122Y-89346389D01*
X164840862Y-89250416D01*
X164840867Y-89250410D01*
X164843697Y-89248155D01*
X164845875Y-89247265D01*
X164846758Y-89246711D01*
X164846855Y-89246865D01*
X164908383Y-89221745D01*
X164921012Y-89221100D01*
X171186785Y-89221100D01*
X171253824Y-89240785D01*
X171299579Y-89293589D01*
X171310005Y-89358984D01*
X171293035Y-89509597D01*
X171293035Y-89509603D01*
X171313230Y-89688849D01*
X171313231Y-89688854D01*
X171372811Y-89859123D01*
X171442569Y-89970141D01*
X171468784Y-90011862D01*
X171596338Y-90139416D01*
X171749078Y-90235389D01*
X171919345Y-90294968D01*
X171919350Y-90294969D01*
X172098596Y-90315165D01*
X172098600Y-90315165D01*
X172098604Y-90315165D01*
X172277849Y-90294969D01*
X172277852Y-90294968D01*
X172277855Y-90294968D01*
X172448122Y-90235389D01*
X172600862Y-90139416D01*
X172728416Y-90011862D01*
X172824389Y-89859122D01*
X172883968Y-89688855D01*
X172885481Y-89675430D01*
X172904165Y-89509603D01*
X172904165Y-89509597D01*
X172887195Y-89358984D01*
X172899249Y-89290162D01*
X172946598Y-89238782D01*
X173010415Y-89221100D01*
X178946785Y-89221100D01*
X179013824Y-89240785D01*
X179059579Y-89293589D01*
X179070005Y-89358984D01*
X179053035Y-89509597D01*
X179053035Y-89509603D01*
X179073230Y-89688849D01*
X179073231Y-89688854D01*
X179132811Y-89859123D01*
X179228785Y-90011863D01*
X179231045Y-90014697D01*
X179231934Y-90016875D01*
X179232489Y-90017758D01*
X179232334Y-90017855D01*
X179257455Y-90079383D01*
X179258100Y-90092012D01*
X179258100Y-92483187D01*
X179238415Y-92550226D01*
X179231050Y-92560496D01*
X179228786Y-92563334D01*
X179132811Y-92716076D01*
X179073231Y-92886345D01*
X179073230Y-92886350D01*
X179053035Y-93065596D01*
X179053035Y-93065603D01*
X179073230Y-93244849D01*
X179073231Y-93244854D01*
X179132811Y-93415123D01*
X179228785Y-93567863D01*
X179231045Y-93570697D01*
X179231934Y-93572875D01*
X179232489Y-93573758D01*
X179232334Y-93573855D01*
X179257455Y-93635383D01*
X179258100Y-93648012D01*
X179258100Y-96039187D01*
X179238415Y-96106226D01*
X179231050Y-96116496D01*
X179228786Y-96119334D01*
X179132811Y-96272076D01*
X179073231Y-96442345D01*
X179073230Y-96442350D01*
X179053035Y-96621596D01*
X179053035Y-96621603D01*
X179073230Y-96800849D01*
X179073231Y-96800854D01*
X179132811Y-96971123D01*
X179228784Y-97123862D01*
X179356338Y-97251416D01*
X179509078Y-97347389D01*
X179679345Y-97406968D01*
X179679350Y-97406969D01*
X179858596Y-97427165D01*
X179858600Y-97427165D01*
X179858604Y-97427165D01*
X180037849Y-97406969D01*
X180037852Y-97406968D01*
X180037855Y-97406968D01*
X180208122Y-97347389D01*
X180360862Y-97251416D01*
X180488416Y-97123862D01*
X180584389Y-96971122D01*
X180615058Y-96883474D01*
X180655780Y-96826699D01*
X180720733Y-96800952D01*
X180789294Y-96814408D01*
X180839697Y-96862795D01*
X180856100Y-96924430D01*
X180856100Y-119096172D01*
X180855784Y-119105018D01*
X180838558Y-119345858D01*
X180836040Y-119363370D01*
X180785660Y-119594965D01*
X180780676Y-119611940D01*
X180697847Y-119834014D01*
X180690497Y-119850108D01*
X180576907Y-120058131D01*
X180567342Y-120073014D01*
X180425305Y-120262754D01*
X180413719Y-120276125D01*
X180246125Y-120443719D01*
X180232754Y-120455305D01*
X180043014Y-120597342D01*
X180028131Y-120606907D01*
X179820108Y-120720497D01*
X179804014Y-120727847D01*
X179581940Y-120810676D01*
X179564965Y-120815660D01*
X179333370Y-120866040D01*
X179315858Y-120868558D01*
X179075018Y-120885784D01*
X179066172Y-120886100D01*
X108209028Y-120886100D01*
X108200182Y-120885784D01*
X107959341Y-120868558D01*
X107941829Y-120866040D01*
X107710234Y-120815660D01*
X107693259Y-120810676D01*
X107471185Y-120727847D01*
X107455091Y-120720497D01*
X107247068Y-120606907D01*
X107232185Y-120597342D01*
X107042445Y-120455305D01*
X107029074Y-120443719D01*
X106861480Y-120276125D01*
X106849894Y-120262754D01*
X106707857Y-120073014D01*
X106698292Y-120058131D01*
X106584702Y-119850108D01*
X106577354Y-119834020D01*
X106494521Y-119611935D01*
X106489539Y-119594965D01*
X106439159Y-119363370D01*
X106436641Y-119345858D01*
X106419416Y-119105018D01*
X106419100Y-119096172D01*
X106419100Y-118084603D01*
X141816035Y-118084603D01*
X141836230Y-118263849D01*
X141836231Y-118263854D01*
X141895811Y-118434123D01*
X141991784Y-118586862D01*
X142119338Y-118714416D01*
X142272078Y-118810389D01*
X142442345Y-118869968D01*
X142442350Y-118869969D01*
X142621596Y-118890165D01*
X142621600Y-118890165D01*
X142621604Y-118890165D01*
X142800849Y-118869969D01*
X142800852Y-118869968D01*
X142800855Y-118869968D01*
X142971122Y-118810389D01*
X143123862Y-118714416D01*
X143123867Y-118714410D01*
X143126697Y-118712155D01*
X143128875Y-118711265D01*
X143129758Y-118710711D01*
X143129855Y-118710865D01*
X143191383Y-118685745D01*
X143204012Y-118685100D01*
X152199188Y-118685100D01*
X152266227Y-118704785D01*
X152276503Y-118712155D01*
X152279336Y-118714414D01*
X152279338Y-118714416D01*
X152432078Y-118810389D01*
X152602345Y-118869968D01*
X152602350Y-118869969D01*
X152781596Y-118890165D01*
X152781600Y-118890165D01*
X152781604Y-118890165D01*
X152960849Y-118869969D01*
X152960852Y-118869968D01*
X152960855Y-118869968D01*
X153131122Y-118810389D01*
X153283862Y-118714416D01*
X153411416Y-118586862D01*
X153507389Y-118434122D01*
X153566968Y-118263855D01*
X153587165Y-118084603D01*
X162136035Y-118084603D01*
X162156230Y-118263849D01*
X162156231Y-118263854D01*
X162215811Y-118434123D01*
X162311784Y-118586862D01*
X162439338Y-118714416D01*
X162592078Y-118810389D01*
X162762345Y-118869968D01*
X162762350Y-118869969D01*
X162941596Y-118890165D01*
X162941600Y-118890165D01*
X162941604Y-118890165D01*
X163120849Y-118869969D01*
X163120852Y-118869968D01*
X163120855Y-118869968D01*
X163291122Y-118810389D01*
X163443862Y-118714416D01*
X163443867Y-118714410D01*
X163446697Y-118712155D01*
X163448875Y-118711265D01*
X163449758Y-118710711D01*
X163449855Y-118710865D01*
X163511383Y-118685745D01*
X163524012Y-118685100D01*
X172519188Y-118685100D01*
X172586227Y-118704785D01*
X172596503Y-118712155D01*
X172599336Y-118714414D01*
X172599338Y-118714416D01*
X172752078Y-118810389D01*
X172922345Y-118869968D01*
X172922350Y-118869969D01*
X173101596Y-118890165D01*
X173101600Y-118890165D01*
X173101604Y-118890165D01*
X173280849Y-118869969D01*
X173280852Y-118869968D01*
X173280855Y-118869968D01*
X173451122Y-118810389D01*
X173603862Y-118714416D01*
X173731416Y-118586862D01*
X173827389Y-118434122D01*
X173886968Y-118263855D01*
X173907165Y-118084600D01*
X173886968Y-117905345D01*
X173827389Y-117735078D01*
X173731416Y-117582338D01*
X173603862Y-117454784D01*
X173451123Y-117358811D01*
X173280854Y-117299231D01*
X173280849Y-117299230D01*
X173101604Y-117279035D01*
X173101596Y-117279035D01*
X172922350Y-117299230D01*
X172922345Y-117299231D01*
X172752076Y-117358811D01*
X172599336Y-117454785D01*
X172596503Y-117457045D01*
X172594324Y-117457934D01*
X172593442Y-117458489D01*
X172593344Y-117458334D01*
X172531817Y-117483455D01*
X172519188Y-117484100D01*
X163524012Y-117484100D01*
X163456973Y-117464415D01*
X163446697Y-117457045D01*
X163443863Y-117454785D01*
X163443862Y-117454784D01*
X163387096Y-117419115D01*
X163291123Y-117358811D01*
X163120854Y-117299231D01*
X163120849Y-117299230D01*
X162941604Y-117279035D01*
X162941596Y-117279035D01*
X162762350Y-117299230D01*
X162762345Y-117299231D01*
X162592076Y-117358811D01*
X162439337Y-117454784D01*
X162311784Y-117582337D01*
X162215811Y-117735076D01*
X162156231Y-117905345D01*
X162156230Y-117905350D01*
X162136035Y-118084596D01*
X162136035Y-118084603D01*
X153587165Y-118084603D01*
X153587165Y-118084600D01*
X153566968Y-117905345D01*
X153507389Y-117735078D01*
X153411416Y-117582338D01*
X153283862Y-117454784D01*
X153131123Y-117358811D01*
X152960854Y-117299231D01*
X152960849Y-117299230D01*
X152781604Y-117279035D01*
X152781596Y-117279035D01*
X152602350Y-117299230D01*
X152602345Y-117299231D01*
X152432076Y-117358811D01*
X152279336Y-117454785D01*
X152276503Y-117457045D01*
X152274324Y-117457934D01*
X152273442Y-117458489D01*
X152273344Y-117458334D01*
X152211817Y-117483455D01*
X152199188Y-117484100D01*
X143204012Y-117484100D01*
X143136973Y-117464415D01*
X143126697Y-117457045D01*
X143123863Y-117454785D01*
X143123862Y-117454784D01*
X143067096Y-117419115D01*
X142971123Y-117358811D01*
X142800854Y-117299231D01*
X142800849Y-117299230D01*
X142621604Y-117279035D01*
X142621596Y-117279035D01*
X142442350Y-117299230D01*
X142442345Y-117299231D01*
X142272076Y-117358811D01*
X142119337Y-117454784D01*
X141991784Y-117582337D01*
X141895811Y-117735076D01*
X141836231Y-117905345D01*
X141836230Y-117905350D01*
X141816035Y-118084596D01*
X141816035Y-118084603D01*
X106419100Y-118084603D01*
X106419100Y-109319697D01*
X106438785Y-109252658D01*
X106491589Y-109206903D01*
X106560747Y-109196959D01*
X106624303Y-109225984D01*
X106630781Y-109232016D01*
X108456781Y-111058016D01*
X108490266Y-111119339D01*
X108493100Y-111145697D01*
X108493100Y-112785359D01*
X108473415Y-112852398D01*
X108420611Y-112898153D01*
X108412434Y-112901540D01*
X108260445Y-112958230D01*
X108260433Y-112958235D01*
X108009290Y-113095370D01*
X108009282Y-113095375D01*
X107780212Y-113266854D01*
X107780194Y-113266870D01*
X107577870Y-113469194D01*
X107577854Y-113469212D01*
X107406375Y-113698282D01*
X107406370Y-113698290D01*
X107269235Y-113949433D01*
X107169228Y-114217562D01*
X107108404Y-114497166D01*
X107087990Y-114782598D01*
X107087990Y-114782601D01*
X107108404Y-115068033D01*
X107169228Y-115347637D01*
X107269235Y-115615766D01*
X107406370Y-115866909D01*
X107406375Y-115866917D01*
X107577854Y-116095987D01*
X107577870Y-116096005D01*
X107780194Y-116298329D01*
X107780212Y-116298345D01*
X108009282Y-116469824D01*
X108009290Y-116469829D01*
X108260433Y-116606964D01*
X108260432Y-116606964D01*
X108260436Y-116606965D01*
X108260439Y-116606967D01*
X108528554Y-116706969D01*
X108528560Y-116706970D01*
X108528562Y-116706971D01*
X108808166Y-116767795D01*
X108808168Y-116767795D01*
X108808172Y-116767796D01*
X109061820Y-116785937D01*
X109093599Y-116788210D01*
X109093600Y-116788210D01*
X109093601Y-116788210D01*
X109122195Y-116786164D01*
X109379028Y-116767796D01*
X109658646Y-116706969D01*
X109926761Y-116606967D01*
X110177915Y-116469826D01*
X110406995Y-116298339D01*
X110609339Y-116095995D01*
X110780826Y-115866915D01*
X110917967Y-115615761D01*
X111017969Y-115347646D01*
X111078796Y-115068028D01*
X111099210Y-114782600D01*
X111078796Y-114497172D01*
X111017969Y-114217554D01*
X110917967Y-113949439D01*
X110914728Y-113943508D01*
X110780829Y-113698290D01*
X110780824Y-113698282D01*
X110609345Y-113469212D01*
X110609329Y-113469194D01*
X110407005Y-113266870D01*
X110406987Y-113266854D01*
X110177917Y-113095375D01*
X110177909Y-113095370D01*
X109926766Y-112958235D01*
X109926754Y-112958230D01*
X109774766Y-112901540D01*
X109718832Y-112859669D01*
X109694416Y-112794204D01*
X109694100Y-112785359D01*
X109694100Y-111451697D01*
X109713785Y-111384658D01*
X109766589Y-111338903D01*
X109835747Y-111328959D01*
X109899303Y-111357984D01*
X109905781Y-111364016D01*
X112333737Y-113791972D01*
X112367222Y-113853295D01*
X112362238Y-113922987D01*
X112354891Y-113939075D01*
X112349235Y-113949433D01*
X112249228Y-114217562D01*
X112188404Y-114497166D01*
X112167990Y-114782598D01*
X112167990Y-114782601D01*
X112188404Y-115068033D01*
X112249228Y-115347637D01*
X112349235Y-115615766D01*
X112486370Y-115866909D01*
X112486375Y-115866917D01*
X112657854Y-116095987D01*
X112657870Y-116096005D01*
X112860194Y-116298329D01*
X112860212Y-116298345D01*
X113089282Y-116469824D01*
X113089290Y-116469829D01*
X113340433Y-116606964D01*
X113340432Y-116606964D01*
X113340436Y-116606965D01*
X113340439Y-116606967D01*
X113608554Y-116706969D01*
X113608560Y-116706970D01*
X113608562Y-116706971D01*
X113888166Y-116767795D01*
X113888168Y-116767795D01*
X113888172Y-116767796D01*
X114141820Y-116785937D01*
X114173599Y-116788210D01*
X114173600Y-116788210D01*
X114173601Y-116788210D01*
X114202195Y-116786164D01*
X114459028Y-116767796D01*
X114738646Y-116706969D01*
X115006761Y-116606967D01*
X115257915Y-116469826D01*
X115486995Y-116298339D01*
X115689339Y-116095995D01*
X115860826Y-115866915D01*
X115997967Y-115615761D01*
X116097969Y-115347646D01*
X116158796Y-115068028D01*
X116179210Y-114782600D01*
X116158796Y-114497172D01*
X116097969Y-114217554D01*
X115997967Y-113949439D01*
X115994728Y-113943508D01*
X115860829Y-113698290D01*
X115860824Y-113698282D01*
X115689345Y-113469212D01*
X115689329Y-113469194D01*
X115487005Y-113266870D01*
X115486987Y-113266854D01*
X115257917Y-113095375D01*
X115257909Y-113095370D01*
X115006766Y-112958235D01*
X115006767Y-112958235D01*
X114899515Y-112918232D01*
X114738646Y-112858231D01*
X114738643Y-112858230D01*
X114738637Y-112858228D01*
X114459033Y-112797404D01*
X114173601Y-112776990D01*
X114173599Y-112776990D01*
X113888166Y-112797404D01*
X113608562Y-112858228D01*
X113340433Y-112958235D01*
X113330075Y-112963891D01*
X113261801Y-112978740D01*
X113196338Y-112954319D01*
X113182972Y-112942737D01*
X111644016Y-111403781D01*
X111610531Y-111342458D01*
X111615515Y-111272766D01*
X111657387Y-111216833D01*
X111722851Y-111192416D01*
X111731697Y-111192100D01*
X114762503Y-111192100D01*
X114829542Y-111211785D01*
X114850184Y-111228419D01*
X117413737Y-113791972D01*
X117447222Y-113853295D01*
X117442238Y-113922987D01*
X117434891Y-113939075D01*
X117429235Y-113949433D01*
X117329228Y-114217562D01*
X117268404Y-114497166D01*
X117247990Y-114782598D01*
X117247990Y-114782601D01*
X117268404Y-115068033D01*
X117329228Y-115347637D01*
X117429235Y-115615766D01*
X117566370Y-115866909D01*
X117566375Y-115866917D01*
X117737854Y-116095987D01*
X117737870Y-116096005D01*
X117940194Y-116298329D01*
X117940212Y-116298345D01*
X118169282Y-116469824D01*
X118169290Y-116469829D01*
X118420433Y-116606964D01*
X118420432Y-116606964D01*
X118420436Y-116606965D01*
X118420439Y-116606967D01*
X118688554Y-116706969D01*
X118688560Y-116706970D01*
X118688562Y-116706971D01*
X118968166Y-116767795D01*
X118968168Y-116767795D01*
X118968172Y-116767796D01*
X119221820Y-116785937D01*
X119253599Y-116788210D01*
X119253600Y-116788210D01*
X119253601Y-116788210D01*
X119282195Y-116786164D01*
X119539028Y-116767796D01*
X119818646Y-116706969D01*
X120086761Y-116606967D01*
X120337915Y-116469826D01*
X120566995Y-116298339D01*
X120769339Y-116095995D01*
X120940826Y-115866915D01*
X121077967Y-115615761D01*
X121177969Y-115347646D01*
X121238796Y-115068028D01*
X121259210Y-114782600D01*
X121238796Y-114497172D01*
X121177969Y-114217554D01*
X121077967Y-113949439D01*
X121074728Y-113943508D01*
X120940829Y-113698290D01*
X120940824Y-113698282D01*
X120769345Y-113469212D01*
X120769329Y-113469194D01*
X120567005Y-113266870D01*
X120566987Y-113266854D01*
X120337917Y-113095375D01*
X120337909Y-113095370D01*
X120086766Y-112958235D01*
X120086767Y-112958235D01*
X119979515Y-112918232D01*
X119818646Y-112858231D01*
X119818643Y-112858230D01*
X119818637Y-112858228D01*
X119539033Y-112797404D01*
X119253601Y-112776990D01*
X119253599Y-112776990D01*
X118968166Y-112797404D01*
X118688562Y-112858228D01*
X118420433Y-112958235D01*
X118410075Y-112963891D01*
X118341801Y-112978740D01*
X118276338Y-112954319D01*
X118262972Y-112942737D01*
X115520799Y-110200564D01*
X115510103Y-110188367D01*
X115490886Y-110163322D01*
X115490883Y-110163320D01*
X115490882Y-110163318D01*
X115365441Y-110067064D01*
X115219362Y-110006556D01*
X115219360Y-110006555D01*
X115062601Y-109985918D01*
X115062600Y-109985918D01*
X115031297Y-109990039D01*
X115015113Y-109991100D01*
X111425697Y-109991100D01*
X111358658Y-109971415D01*
X111338016Y-109954781D01*
X109561835Y-108178600D01*
X113930308Y-108178600D01*
X113949439Y-108397274D01*
X114006253Y-108609303D01*
X114006254Y-108609306D01*
X114006255Y-108609308D01*
X114099019Y-108808242D01*
X114099023Y-108808250D01*
X114224922Y-108988052D01*
X114224927Y-108988058D01*
X114380141Y-109143272D01*
X114380147Y-109143277D01*
X114559949Y-109269176D01*
X114559951Y-109269177D01*
X114559954Y-109269179D01*
X114758897Y-109361947D01*
X114970926Y-109418761D01*
X115127121Y-109432426D01*
X115189598Y-109437892D01*
X115189600Y-109437892D01*
X115189602Y-109437892D01*
X115244268Y-109433109D01*
X115408274Y-109418761D01*
X115620303Y-109361947D01*
X115819246Y-109269179D01*
X115999057Y-109143274D01*
X116154274Y-108988057D01*
X116231178Y-108878227D01*
X116285755Y-108834602D01*
X116355253Y-108827408D01*
X116417608Y-108858931D01*
X116420434Y-108861669D01*
X116584781Y-109026016D01*
X116618266Y-109087339D01*
X116621100Y-109113697D01*
X116621100Y-109909112D01*
X116620039Y-109925297D01*
X116615918Y-109956598D01*
X116615918Y-109956600D01*
X116621100Y-109995960D01*
X116621100Y-109995961D01*
X116636555Y-110113360D01*
X116636556Y-110113362D01*
X116697064Y-110259441D01*
X116757040Y-110337603D01*
X116793319Y-110384883D01*
X116818369Y-110404104D01*
X116830564Y-110414799D01*
X117398399Y-110982634D01*
X117409093Y-110994828D01*
X117428317Y-111019881D01*
X117485017Y-111063388D01*
X117485018Y-111063390D01*
X117525347Y-111094335D01*
X117553759Y-111116136D01*
X117553761Y-111116136D01*
X117553763Y-111116138D01*
X117570255Y-111122969D01*
X117699838Y-111176644D01*
X117778219Y-111186963D01*
X117856599Y-111197282D01*
X117856600Y-111197282D01*
X117887902Y-111193160D01*
X117904087Y-111192100D01*
X119715503Y-111192100D01*
X119782542Y-111211785D01*
X119803184Y-111228419D01*
X122456950Y-113882185D01*
X122490435Y-113943508D01*
X122485451Y-114013199D01*
X122409229Y-114217560D01*
X122348404Y-114497166D01*
X122327990Y-114782598D01*
X122327990Y-114782601D01*
X122348404Y-115068033D01*
X122409228Y-115347637D01*
X122509235Y-115615766D01*
X122646370Y-115866909D01*
X122646375Y-115866917D01*
X122817854Y-116095987D01*
X122817870Y-116096005D01*
X123020194Y-116298329D01*
X123020212Y-116298345D01*
X123249282Y-116469824D01*
X123249290Y-116469829D01*
X123500433Y-116606964D01*
X123500432Y-116606964D01*
X123500436Y-116606965D01*
X123500439Y-116606967D01*
X123768554Y-116706969D01*
X123768560Y-116706970D01*
X123768562Y-116706971D01*
X124048166Y-116767795D01*
X124048168Y-116767795D01*
X124048172Y-116767796D01*
X124301820Y-116785937D01*
X124333599Y-116788210D01*
X124333600Y-116788210D01*
X124333601Y-116788210D01*
X124362195Y-116786164D01*
X124619028Y-116767796D01*
X124898646Y-116706969D01*
X125166761Y-116606967D01*
X125417915Y-116469826D01*
X125646995Y-116298339D01*
X125849339Y-116095995D01*
X126020826Y-115866915D01*
X126157967Y-115615761D01*
X126257969Y-115347646D01*
X126318796Y-115068028D01*
X126339210Y-114782601D01*
X140615990Y-114782601D01*
X140636404Y-115068033D01*
X140697228Y-115347637D01*
X140797235Y-115615766D01*
X140934370Y-115866909D01*
X140934375Y-115866917D01*
X141105854Y-116095987D01*
X141105870Y-116096005D01*
X141308194Y-116298329D01*
X141308212Y-116298345D01*
X141537282Y-116469824D01*
X141537290Y-116469829D01*
X141788433Y-116606964D01*
X141788432Y-116606964D01*
X141788436Y-116606965D01*
X141788439Y-116606967D01*
X142056554Y-116706969D01*
X142056560Y-116706970D01*
X142056562Y-116706971D01*
X142336166Y-116767795D01*
X142336168Y-116767795D01*
X142336172Y-116767796D01*
X142589820Y-116785937D01*
X142621599Y-116788210D01*
X142621600Y-116788210D01*
X142621601Y-116788210D01*
X142650195Y-116786164D01*
X142907028Y-116767796D01*
X143186646Y-116706969D01*
X143454761Y-116606967D01*
X143705915Y-116469826D01*
X143934995Y-116298339D01*
X144137339Y-116095995D01*
X144308826Y-115866915D01*
X144445967Y-115615761D01*
X144545969Y-115347646D01*
X144606796Y-115068028D01*
X144627210Y-114782601D01*
X145695990Y-114782601D01*
X145716404Y-115068033D01*
X145777228Y-115347637D01*
X145877235Y-115615766D01*
X146014370Y-115866909D01*
X146014375Y-115866917D01*
X146185854Y-116095987D01*
X146185870Y-116096005D01*
X146388194Y-116298329D01*
X146388212Y-116298345D01*
X146617282Y-116469824D01*
X146617290Y-116469829D01*
X146868433Y-116606964D01*
X146868432Y-116606964D01*
X146868436Y-116606965D01*
X146868439Y-116606967D01*
X147136554Y-116706969D01*
X147136560Y-116706970D01*
X147136562Y-116706971D01*
X147416166Y-116767795D01*
X147416168Y-116767795D01*
X147416172Y-116767796D01*
X147669820Y-116785937D01*
X147701599Y-116788210D01*
X147701600Y-116788210D01*
X147701601Y-116788210D01*
X147730195Y-116786164D01*
X147987028Y-116767796D01*
X148266646Y-116706969D01*
X148534761Y-116606967D01*
X148785915Y-116469826D01*
X149014995Y-116298339D01*
X149217339Y-116095995D01*
X149388826Y-115866915D01*
X149525967Y-115615761D01*
X149625969Y-115347646D01*
X149686796Y-115068028D01*
X149707210Y-114782601D01*
X150775990Y-114782601D01*
X150796404Y-115068033D01*
X150857228Y-115347637D01*
X150957235Y-115615766D01*
X151094370Y-115866909D01*
X151094375Y-115866917D01*
X151265854Y-116095987D01*
X151265870Y-116096005D01*
X151468194Y-116298329D01*
X151468212Y-116298345D01*
X151697282Y-116469824D01*
X151697290Y-116469829D01*
X151948433Y-116606964D01*
X151948432Y-116606964D01*
X151948436Y-116606965D01*
X151948439Y-116606967D01*
X152216554Y-116706969D01*
X152216560Y-116706970D01*
X152216562Y-116706971D01*
X152496166Y-116767795D01*
X152496168Y-116767795D01*
X152496172Y-116767796D01*
X152749820Y-116785937D01*
X152781599Y-116788210D01*
X152781600Y-116788210D01*
X152781601Y-116788210D01*
X152810195Y-116786164D01*
X153067028Y-116767796D01*
X153346646Y-116706969D01*
X153614761Y-116606967D01*
X153865915Y-116469826D01*
X154094995Y-116298339D01*
X154297339Y-116095995D01*
X154468826Y-115866915D01*
X154605967Y-115615761D01*
X154705969Y-115347646D01*
X154766796Y-115068028D01*
X154787210Y-114782601D01*
X155855990Y-114782601D01*
X155876404Y-115068033D01*
X155937228Y-115347637D01*
X156037235Y-115615766D01*
X156174370Y-115866909D01*
X156174375Y-115866917D01*
X156345854Y-116095987D01*
X156345870Y-116096005D01*
X156548194Y-116298329D01*
X156548212Y-116298345D01*
X156777282Y-116469824D01*
X156777290Y-116469829D01*
X157028433Y-116606964D01*
X157028432Y-116606964D01*
X157028436Y-116606965D01*
X157028439Y-116606967D01*
X157296554Y-116706969D01*
X157296560Y-116706970D01*
X157296562Y-116706971D01*
X157576166Y-116767795D01*
X157576168Y-116767795D01*
X157576172Y-116767796D01*
X157829820Y-116785937D01*
X157861599Y-116788210D01*
X157861600Y-116788210D01*
X157861601Y-116788210D01*
X157890195Y-116786164D01*
X158147028Y-116767796D01*
X158426646Y-116706969D01*
X158694761Y-116606967D01*
X158945915Y-116469826D01*
X159174995Y-116298339D01*
X159377339Y-116095995D01*
X159548826Y-115866915D01*
X159685967Y-115615761D01*
X159785969Y-115347646D01*
X159846796Y-115068028D01*
X159867210Y-114782601D01*
X160935990Y-114782601D01*
X160956404Y-115068033D01*
X161017228Y-115347637D01*
X161117235Y-115615766D01*
X161254370Y-115866909D01*
X161254375Y-115866917D01*
X161425854Y-116095987D01*
X161425870Y-116096005D01*
X161628194Y-116298329D01*
X161628212Y-116298345D01*
X161857282Y-116469824D01*
X161857290Y-116469829D01*
X162108433Y-116606964D01*
X162108432Y-116606964D01*
X162108436Y-116606965D01*
X162108439Y-116606967D01*
X162376554Y-116706969D01*
X162376560Y-116706970D01*
X162376562Y-116706971D01*
X162656166Y-116767795D01*
X162656168Y-116767795D01*
X162656172Y-116767796D01*
X162909820Y-116785937D01*
X162941599Y-116788210D01*
X162941600Y-116788210D01*
X162941601Y-116788210D01*
X162970195Y-116786164D01*
X163227028Y-116767796D01*
X163506646Y-116706969D01*
X163774761Y-116606967D01*
X164025915Y-116469826D01*
X164254995Y-116298339D01*
X164457339Y-116095995D01*
X164628826Y-115866915D01*
X164765967Y-115615761D01*
X164865969Y-115347646D01*
X164926796Y-115068028D01*
X164947210Y-114782601D01*
X166015990Y-114782601D01*
X166036404Y-115068033D01*
X166097228Y-115347637D01*
X166197235Y-115615766D01*
X166334370Y-115866909D01*
X166334375Y-115866917D01*
X166505854Y-116095987D01*
X166505870Y-116096005D01*
X166708194Y-116298329D01*
X166708212Y-116298345D01*
X166937282Y-116469824D01*
X166937290Y-116469829D01*
X167188433Y-116606964D01*
X167188432Y-116606964D01*
X167188436Y-116606965D01*
X167188439Y-116606967D01*
X167456554Y-116706969D01*
X167456560Y-116706970D01*
X167456562Y-116706971D01*
X167736166Y-116767795D01*
X167736168Y-116767795D01*
X167736172Y-116767796D01*
X167989820Y-116785937D01*
X168021599Y-116788210D01*
X168021600Y-116788210D01*
X168021601Y-116788210D01*
X168050195Y-116786164D01*
X168307028Y-116767796D01*
X168586646Y-116706969D01*
X168854761Y-116606967D01*
X169105915Y-116469826D01*
X169334995Y-116298339D01*
X169537339Y-116095995D01*
X169708826Y-115866915D01*
X169845967Y-115615761D01*
X169945969Y-115347646D01*
X170006796Y-115068028D01*
X170027210Y-114782601D01*
X171095990Y-114782601D01*
X171116404Y-115068033D01*
X171177228Y-115347637D01*
X171277235Y-115615766D01*
X171414370Y-115866909D01*
X171414375Y-115866917D01*
X171585854Y-116095987D01*
X171585870Y-116096005D01*
X171788194Y-116298329D01*
X171788212Y-116298345D01*
X172017282Y-116469824D01*
X172017290Y-116469829D01*
X172268433Y-116606964D01*
X172268432Y-116606964D01*
X172268436Y-116606965D01*
X172268439Y-116606967D01*
X172536554Y-116706969D01*
X172536560Y-116706970D01*
X172536562Y-116706971D01*
X172816166Y-116767795D01*
X172816168Y-116767795D01*
X172816172Y-116767796D01*
X173069820Y-116785937D01*
X173101599Y-116788210D01*
X173101600Y-116788210D01*
X173101601Y-116788210D01*
X173130195Y-116786164D01*
X173387028Y-116767796D01*
X173666646Y-116706969D01*
X173934761Y-116606967D01*
X174185915Y-116469826D01*
X174414995Y-116298339D01*
X174617339Y-116095995D01*
X174788826Y-115866915D01*
X174925967Y-115615761D01*
X175025969Y-115347646D01*
X175086796Y-115068028D01*
X175107210Y-114782601D01*
X176175990Y-114782601D01*
X176196404Y-115068033D01*
X176257228Y-115347637D01*
X176357235Y-115615766D01*
X176494370Y-115866909D01*
X176494375Y-115866917D01*
X176665854Y-116095987D01*
X176665870Y-116096005D01*
X176868194Y-116298329D01*
X176868212Y-116298345D01*
X177097282Y-116469824D01*
X177097290Y-116469829D01*
X177348433Y-116606964D01*
X177348432Y-116606964D01*
X177348436Y-116606965D01*
X177348439Y-116606967D01*
X177616554Y-116706969D01*
X177616560Y-116706970D01*
X177616562Y-116706971D01*
X177896166Y-116767795D01*
X177896168Y-116767795D01*
X177896172Y-116767796D01*
X178149820Y-116785937D01*
X178181599Y-116788210D01*
X178181600Y-116788210D01*
X178181601Y-116788210D01*
X178210195Y-116786164D01*
X178467028Y-116767796D01*
X178746646Y-116706969D01*
X179014761Y-116606967D01*
X179265915Y-116469826D01*
X179494995Y-116298339D01*
X179697339Y-116095995D01*
X179868826Y-115866915D01*
X180005967Y-115615761D01*
X180105969Y-115347646D01*
X180166796Y-115068028D01*
X180187210Y-114782600D01*
X180166796Y-114497172D01*
X180105969Y-114217554D01*
X180005967Y-113949439D01*
X180002728Y-113943508D01*
X179868829Y-113698290D01*
X179868824Y-113698282D01*
X179697345Y-113469212D01*
X179697329Y-113469194D01*
X179495005Y-113266870D01*
X179494987Y-113266854D01*
X179265917Y-113095375D01*
X179265909Y-113095370D01*
X179014766Y-112958235D01*
X179014767Y-112958235D01*
X178907515Y-112918232D01*
X178746646Y-112858231D01*
X178746643Y-112858230D01*
X178746637Y-112858228D01*
X178467033Y-112797404D01*
X178181601Y-112776990D01*
X178181599Y-112776990D01*
X177896166Y-112797404D01*
X177616562Y-112858228D01*
X177348433Y-112958235D01*
X177097290Y-113095370D01*
X177097282Y-113095375D01*
X176868212Y-113266854D01*
X176868194Y-113266870D01*
X176665870Y-113469194D01*
X176665854Y-113469212D01*
X176494375Y-113698282D01*
X176494370Y-113698290D01*
X176357235Y-113949433D01*
X176257228Y-114217562D01*
X176196404Y-114497166D01*
X176175990Y-114782598D01*
X176175990Y-114782601D01*
X175107210Y-114782601D01*
X175107210Y-114782600D01*
X175086796Y-114497172D01*
X175025969Y-114217554D01*
X174925967Y-113949439D01*
X174920309Y-113939078D01*
X174905458Y-113870808D01*
X174929875Y-113805343D01*
X174941454Y-113791979D01*
X176667643Y-112065790D01*
X176679823Y-112055109D01*
X176704882Y-112035882D01*
X176801136Y-111910441D01*
X176861644Y-111764362D01*
X176877100Y-111646961D01*
X176882282Y-111607600D01*
X176878161Y-111576297D01*
X176877100Y-111560112D01*
X176877100Y-110920012D01*
X176896785Y-110852973D01*
X176904155Y-110842697D01*
X176906410Y-110839867D01*
X176906416Y-110839862D01*
X177002389Y-110687122D01*
X177061968Y-110516855D01*
X177073467Y-110414799D01*
X177082165Y-110337603D01*
X177082165Y-110337596D01*
X177061969Y-110158350D01*
X177061968Y-110158345D01*
X177030027Y-110067063D01*
X177002389Y-109988078D01*
X176906416Y-109835338D01*
X176778862Y-109707784D01*
X176626123Y-109611811D01*
X176455854Y-109552231D01*
X176455849Y-109552230D01*
X176276604Y-109532035D01*
X176276596Y-109532035D01*
X176097350Y-109552230D01*
X176097345Y-109552231D01*
X175927076Y-109611811D01*
X175774337Y-109707784D01*
X175729280Y-109752841D01*
X175667957Y-109786325D01*
X175598265Y-109781340D01*
X175553920Y-109752841D01*
X175508863Y-109707785D01*
X175508862Y-109707784D01*
X175356123Y-109611811D01*
X175185854Y-109552231D01*
X175185849Y-109552230D01*
X175006604Y-109532035D01*
X175006596Y-109532035D01*
X174827350Y-109552230D01*
X174827345Y-109552231D01*
X174657076Y-109611811D01*
X174504337Y-109707784D01*
X174376784Y-109835337D01*
X174280811Y-109988076D01*
X174221231Y-110158345D01*
X174221230Y-110158350D01*
X174201035Y-110337596D01*
X174201035Y-110337603D01*
X174221230Y-110516849D01*
X174221231Y-110516854D01*
X174280811Y-110687123D01*
X174371600Y-110831611D01*
X174376784Y-110839862D01*
X174504338Y-110967416D01*
X174657078Y-111063389D01*
X174807820Y-111116136D01*
X174827345Y-111122968D01*
X174827350Y-111122969D01*
X175006596Y-111143165D01*
X175006600Y-111143165D01*
X175006604Y-111143165D01*
X175185849Y-111122969D01*
X175185852Y-111122968D01*
X175185855Y-111122968D01*
X175356122Y-111063389D01*
X175486128Y-110981700D01*
X175553364Y-110962700D01*
X175620199Y-110983067D01*
X175665414Y-111036335D01*
X175676100Y-111086694D01*
X175676100Y-111307502D01*
X175656415Y-111374541D01*
X175639781Y-111395183D01*
X174092226Y-112942737D01*
X174030903Y-112976222D01*
X173961211Y-112971238D01*
X173945117Y-112963888D01*
X173934763Y-112958234D01*
X173934762Y-112958233D01*
X173934761Y-112958233D01*
X173666646Y-112858231D01*
X173666643Y-112858230D01*
X173666637Y-112858228D01*
X173387033Y-112797404D01*
X173101601Y-112776990D01*
X173101599Y-112776990D01*
X172816166Y-112797404D01*
X172536562Y-112858228D01*
X172268433Y-112958235D01*
X172017290Y-113095370D01*
X172017282Y-113095375D01*
X171788212Y-113266854D01*
X171788194Y-113266870D01*
X171585870Y-113469194D01*
X171585854Y-113469212D01*
X171414375Y-113698282D01*
X171414370Y-113698290D01*
X171277235Y-113949433D01*
X171177228Y-114217562D01*
X171116404Y-114497166D01*
X171095990Y-114782598D01*
X171095990Y-114782601D01*
X170027210Y-114782601D01*
X170027210Y-114782600D01*
X170006796Y-114497172D01*
X169945969Y-114217554D01*
X169845967Y-113949439D01*
X169842728Y-113943508D01*
X169708829Y-113698290D01*
X169708824Y-113698282D01*
X169537345Y-113469212D01*
X169537329Y-113469194D01*
X169335005Y-113266870D01*
X169334987Y-113266854D01*
X169105917Y-113095375D01*
X169105909Y-113095370D01*
X168854766Y-112958235D01*
X168854767Y-112958235D01*
X168747515Y-112918232D01*
X168586646Y-112858231D01*
X168586643Y-112858230D01*
X168586637Y-112858228D01*
X168307033Y-112797404D01*
X168021601Y-112776990D01*
X168021599Y-112776990D01*
X167736166Y-112797404D01*
X167456562Y-112858228D01*
X167188433Y-112958235D01*
X166937290Y-113095370D01*
X166937282Y-113095375D01*
X166708212Y-113266854D01*
X166708194Y-113266870D01*
X166505870Y-113469194D01*
X166505854Y-113469212D01*
X166334375Y-113698282D01*
X166334370Y-113698290D01*
X166197235Y-113949433D01*
X166097228Y-114217562D01*
X166036404Y-114497166D01*
X166015990Y-114782598D01*
X166015990Y-114782601D01*
X164947210Y-114782601D01*
X164947210Y-114782600D01*
X164926796Y-114497172D01*
X164865969Y-114217554D01*
X164765967Y-113949439D01*
X164760309Y-113939078D01*
X164745458Y-113870808D01*
X164769875Y-113805343D01*
X164781454Y-113791979D01*
X166507643Y-112065790D01*
X166519823Y-112055109D01*
X166544882Y-112035882D01*
X166641136Y-111910441D01*
X166701644Y-111764362D01*
X166717100Y-111646961D01*
X166722282Y-111607600D01*
X166718161Y-111576297D01*
X166717100Y-111560112D01*
X166717100Y-110920012D01*
X166736785Y-110852973D01*
X166744155Y-110842697D01*
X166746410Y-110839867D01*
X166746416Y-110839862D01*
X166842389Y-110687122D01*
X166901968Y-110516855D01*
X166913467Y-110414799D01*
X166922165Y-110337603D01*
X166922165Y-110337596D01*
X166901969Y-110158350D01*
X166901968Y-110158345D01*
X166870027Y-110067063D01*
X166842389Y-109988078D01*
X166746416Y-109835338D01*
X166618862Y-109707784D01*
X166466123Y-109611811D01*
X166295854Y-109552231D01*
X166295849Y-109552230D01*
X166116604Y-109532035D01*
X166116596Y-109532035D01*
X165937350Y-109552230D01*
X165937345Y-109552231D01*
X165767076Y-109611811D01*
X165614337Y-109707784D01*
X165569280Y-109752841D01*
X165507957Y-109786325D01*
X165438265Y-109781340D01*
X165393920Y-109752841D01*
X165348863Y-109707785D01*
X165348862Y-109707784D01*
X165196123Y-109611811D01*
X165025854Y-109552231D01*
X165025849Y-109552230D01*
X164846604Y-109532035D01*
X164846596Y-109532035D01*
X164667350Y-109552230D01*
X164667345Y-109552231D01*
X164497076Y-109611811D01*
X164344337Y-109707784D01*
X164216784Y-109835337D01*
X164120811Y-109988076D01*
X164061231Y-110158345D01*
X164061230Y-110158350D01*
X164041035Y-110337596D01*
X164041035Y-110337603D01*
X164061230Y-110516849D01*
X164061231Y-110516854D01*
X164120811Y-110687123D01*
X164211600Y-110831611D01*
X164216784Y-110839862D01*
X164344338Y-110967416D01*
X164497078Y-111063389D01*
X164647820Y-111116136D01*
X164667345Y-111122968D01*
X164667350Y-111122969D01*
X164846596Y-111143165D01*
X164846600Y-111143165D01*
X164846604Y-111143165D01*
X165025849Y-111122969D01*
X165025852Y-111122968D01*
X165025855Y-111122968D01*
X165196122Y-111063389D01*
X165326128Y-110981700D01*
X165393364Y-110962700D01*
X165460199Y-110983067D01*
X165505414Y-111036335D01*
X165516100Y-111086694D01*
X165516100Y-111307502D01*
X165496415Y-111374541D01*
X165479781Y-111395183D01*
X163932226Y-112942737D01*
X163870903Y-112976222D01*
X163801211Y-112971238D01*
X163785117Y-112963888D01*
X163774763Y-112958234D01*
X163774762Y-112958233D01*
X163774761Y-112958233D01*
X163506646Y-112858231D01*
X163506643Y-112858230D01*
X163506637Y-112858228D01*
X163227033Y-112797404D01*
X162941601Y-112776990D01*
X162941599Y-112776990D01*
X162656166Y-112797404D01*
X162376562Y-112858228D01*
X162108433Y-112958235D01*
X161857290Y-113095370D01*
X161857282Y-113095375D01*
X161628212Y-113266854D01*
X161628194Y-113266870D01*
X161425870Y-113469194D01*
X161425854Y-113469212D01*
X161254375Y-113698282D01*
X161254370Y-113698290D01*
X161117235Y-113949433D01*
X161017228Y-114217562D01*
X160956404Y-114497166D01*
X160935990Y-114782598D01*
X160935990Y-114782601D01*
X159867210Y-114782601D01*
X159867210Y-114782600D01*
X159846796Y-114497172D01*
X159785969Y-114217554D01*
X159685967Y-113949439D01*
X159682728Y-113943508D01*
X159548829Y-113698290D01*
X159548824Y-113698282D01*
X159377345Y-113469212D01*
X159377329Y-113469194D01*
X159175005Y-113266870D01*
X159174987Y-113266854D01*
X158945917Y-113095375D01*
X158945909Y-113095370D01*
X158694766Y-112958235D01*
X158694767Y-112958235D01*
X158587515Y-112918232D01*
X158426646Y-112858231D01*
X158426643Y-112858230D01*
X158426637Y-112858228D01*
X158147033Y-112797404D01*
X157861601Y-112776990D01*
X157861599Y-112776990D01*
X157576166Y-112797404D01*
X157296562Y-112858228D01*
X157028433Y-112958235D01*
X156777290Y-113095370D01*
X156777282Y-113095375D01*
X156548212Y-113266854D01*
X156548194Y-113266870D01*
X156345870Y-113469194D01*
X156345854Y-113469212D01*
X156174375Y-113698282D01*
X156174370Y-113698290D01*
X156037235Y-113949433D01*
X155937228Y-114217562D01*
X155876404Y-114497166D01*
X155855990Y-114782598D01*
X155855990Y-114782601D01*
X154787210Y-114782601D01*
X154787210Y-114782600D01*
X154766796Y-114497172D01*
X154705969Y-114217554D01*
X154605967Y-113949439D01*
X154600309Y-113939078D01*
X154585458Y-113870808D01*
X154609875Y-113805343D01*
X154621454Y-113791979D01*
X156347643Y-112065790D01*
X156359823Y-112055109D01*
X156384882Y-112035882D01*
X156481136Y-111910441D01*
X156541644Y-111764362D01*
X156557100Y-111646961D01*
X156562282Y-111607600D01*
X156558161Y-111576297D01*
X156557100Y-111560112D01*
X156557100Y-110920012D01*
X156576785Y-110852973D01*
X156584155Y-110842697D01*
X156586410Y-110839867D01*
X156586416Y-110839862D01*
X156682389Y-110687122D01*
X156741968Y-110516855D01*
X156753467Y-110414799D01*
X156762165Y-110337603D01*
X156762165Y-110337596D01*
X156741969Y-110158350D01*
X156741968Y-110158345D01*
X156710027Y-110067063D01*
X156682389Y-109988078D01*
X156586416Y-109835338D01*
X156458862Y-109707784D01*
X156306123Y-109611811D01*
X156135854Y-109552231D01*
X156135849Y-109552230D01*
X155956604Y-109532035D01*
X155956596Y-109532035D01*
X155777350Y-109552230D01*
X155777345Y-109552231D01*
X155607076Y-109611811D01*
X155454337Y-109707784D01*
X155409280Y-109752841D01*
X155347957Y-109786325D01*
X155278265Y-109781340D01*
X155233920Y-109752841D01*
X155188863Y-109707785D01*
X155188862Y-109707784D01*
X155036123Y-109611811D01*
X154865854Y-109552231D01*
X154865849Y-109552230D01*
X154686604Y-109532035D01*
X154686596Y-109532035D01*
X154507350Y-109552230D01*
X154507345Y-109552231D01*
X154337076Y-109611811D01*
X154184337Y-109707784D01*
X154056784Y-109835337D01*
X153960811Y-109988076D01*
X153901231Y-110158345D01*
X153901230Y-110158350D01*
X153881035Y-110337596D01*
X153881035Y-110337603D01*
X153901230Y-110516849D01*
X153901231Y-110516854D01*
X153960811Y-110687123D01*
X154051600Y-110831611D01*
X154056784Y-110839862D01*
X154184338Y-110967416D01*
X154337078Y-111063389D01*
X154487820Y-111116136D01*
X154507345Y-111122968D01*
X154507350Y-111122969D01*
X154686596Y-111143165D01*
X154686600Y-111143165D01*
X154686604Y-111143165D01*
X154865849Y-111122969D01*
X154865852Y-111122968D01*
X154865855Y-111122968D01*
X155036122Y-111063389D01*
X155166128Y-110981700D01*
X155233364Y-110962700D01*
X155300199Y-110983067D01*
X155345414Y-111036335D01*
X155356100Y-111086694D01*
X155356100Y-111307502D01*
X155336415Y-111374541D01*
X155319781Y-111395183D01*
X153772226Y-112942737D01*
X153710903Y-112976222D01*
X153641211Y-112971238D01*
X153625117Y-112963888D01*
X153614763Y-112958234D01*
X153614762Y-112958233D01*
X153614761Y-112958233D01*
X153346646Y-112858231D01*
X153346643Y-112858230D01*
X153346637Y-112858228D01*
X153067033Y-112797404D01*
X152781601Y-112776990D01*
X152781599Y-112776990D01*
X152496166Y-112797404D01*
X152216562Y-112858228D01*
X151948433Y-112958235D01*
X151697290Y-113095370D01*
X151697282Y-113095375D01*
X151468212Y-113266854D01*
X151468194Y-113266870D01*
X151265870Y-113469194D01*
X151265854Y-113469212D01*
X151094375Y-113698282D01*
X151094370Y-113698290D01*
X150957235Y-113949433D01*
X150857228Y-114217562D01*
X150796404Y-114497166D01*
X150775990Y-114782598D01*
X150775990Y-114782601D01*
X149707210Y-114782601D01*
X149707210Y-114782600D01*
X149686796Y-114497172D01*
X149625969Y-114217554D01*
X149525967Y-113949439D01*
X149522728Y-113943508D01*
X149388829Y-113698290D01*
X149388824Y-113698282D01*
X149217345Y-113469212D01*
X149217329Y-113469194D01*
X149015005Y-113266870D01*
X149014987Y-113266854D01*
X148785917Y-113095375D01*
X148785909Y-113095370D01*
X148534766Y-112958235D01*
X148534767Y-112958235D01*
X148427515Y-112918232D01*
X148266646Y-112858231D01*
X148266643Y-112858230D01*
X148266637Y-112858228D01*
X147987033Y-112797404D01*
X147701601Y-112776990D01*
X147701599Y-112776990D01*
X147416166Y-112797404D01*
X147136562Y-112858228D01*
X146868433Y-112958235D01*
X146617290Y-113095370D01*
X146617282Y-113095375D01*
X146388212Y-113266854D01*
X146388194Y-113266870D01*
X146185870Y-113469194D01*
X146185854Y-113469212D01*
X146014375Y-113698282D01*
X146014370Y-113698290D01*
X145877235Y-113949433D01*
X145777228Y-114217562D01*
X145716404Y-114497166D01*
X145695990Y-114782598D01*
X145695990Y-114782601D01*
X144627210Y-114782601D01*
X144627210Y-114782600D01*
X144606796Y-114497172D01*
X144545969Y-114217554D01*
X144445967Y-113949439D01*
X144440309Y-113939078D01*
X144425458Y-113870808D01*
X144449875Y-113805343D01*
X144461454Y-113791979D01*
X146187643Y-112065790D01*
X146199823Y-112055109D01*
X146224882Y-112035882D01*
X146321136Y-111910441D01*
X146381644Y-111764362D01*
X146397100Y-111646961D01*
X146402282Y-111607600D01*
X146398161Y-111576297D01*
X146397100Y-111560112D01*
X146397100Y-110920012D01*
X146416785Y-110852973D01*
X146424155Y-110842697D01*
X146426410Y-110839867D01*
X146426416Y-110839862D01*
X146522389Y-110687122D01*
X146581968Y-110516855D01*
X146593467Y-110414799D01*
X146602165Y-110337603D01*
X146602165Y-110337596D01*
X146581969Y-110158350D01*
X146581968Y-110158345D01*
X146550027Y-110067063D01*
X146522389Y-109988078D01*
X146426416Y-109835338D01*
X146298862Y-109707784D01*
X146146123Y-109611811D01*
X145975854Y-109552231D01*
X145975849Y-109552230D01*
X145796604Y-109532035D01*
X145796596Y-109532035D01*
X145617350Y-109552230D01*
X145617345Y-109552231D01*
X145447076Y-109611811D01*
X145294337Y-109707784D01*
X145249280Y-109752841D01*
X145187957Y-109786325D01*
X145118265Y-109781340D01*
X145073920Y-109752841D01*
X145028863Y-109707785D01*
X145028862Y-109707784D01*
X144876123Y-109611811D01*
X144705854Y-109552231D01*
X144705849Y-109552230D01*
X144526604Y-109532035D01*
X144526596Y-109532035D01*
X144347350Y-109552230D01*
X144347345Y-109552231D01*
X144177076Y-109611811D01*
X144024337Y-109707784D01*
X143896784Y-109835337D01*
X143800811Y-109988076D01*
X143741231Y-110158345D01*
X143741230Y-110158350D01*
X143721035Y-110337596D01*
X143721035Y-110337603D01*
X143741230Y-110516849D01*
X143741231Y-110516854D01*
X143800811Y-110687123D01*
X143891600Y-110831611D01*
X143896784Y-110839862D01*
X144024338Y-110967416D01*
X144177078Y-111063389D01*
X144327820Y-111116136D01*
X144347345Y-111122968D01*
X144347350Y-111122969D01*
X144526596Y-111143165D01*
X144526600Y-111143165D01*
X144526604Y-111143165D01*
X144705849Y-111122969D01*
X144705852Y-111122968D01*
X144705855Y-111122968D01*
X144876122Y-111063389D01*
X145006128Y-110981700D01*
X145073364Y-110962700D01*
X145140199Y-110983067D01*
X145185414Y-111036335D01*
X145196100Y-111086694D01*
X145196100Y-111307502D01*
X145176415Y-111374541D01*
X145159781Y-111395183D01*
X143612226Y-112942737D01*
X143550903Y-112976222D01*
X143481211Y-112971238D01*
X143465117Y-112963888D01*
X143454763Y-112958234D01*
X143454762Y-112958233D01*
X143454761Y-112958233D01*
X143186646Y-112858231D01*
X143186643Y-112858230D01*
X143186637Y-112858228D01*
X142907033Y-112797404D01*
X142621601Y-112776990D01*
X142621599Y-112776990D01*
X142336166Y-112797404D01*
X142056562Y-112858228D01*
X141788433Y-112958235D01*
X141537290Y-113095370D01*
X141537282Y-113095375D01*
X141308212Y-113266854D01*
X141308194Y-113266870D01*
X141105870Y-113469194D01*
X141105854Y-113469212D01*
X140934375Y-113698282D01*
X140934370Y-113698290D01*
X140797235Y-113949433D01*
X140697228Y-114217562D01*
X140636404Y-114497166D01*
X140615990Y-114782598D01*
X140615990Y-114782601D01*
X126339210Y-114782601D01*
X126339210Y-114782600D01*
X126318796Y-114497172D01*
X126257969Y-114217554D01*
X126157967Y-113949439D01*
X126154728Y-113943508D01*
X126020829Y-113698290D01*
X126020824Y-113698282D01*
X125849345Y-113469212D01*
X125849329Y-113469194D01*
X125647005Y-113266870D01*
X125646987Y-113266854D01*
X125417917Y-113095375D01*
X125417909Y-113095370D01*
X125166766Y-112958235D01*
X125166767Y-112958235D01*
X125059515Y-112918232D01*
X124898646Y-112858231D01*
X124898643Y-112858230D01*
X124898637Y-112858228D01*
X124619033Y-112797404D01*
X124333601Y-112776990D01*
X124333599Y-112776990D01*
X124048166Y-112797404D01*
X123768562Y-112858228D01*
X123500432Y-112958235D01*
X123500426Y-112958238D01*
X123407934Y-113008743D01*
X123339661Y-113023595D01*
X123274197Y-112999178D01*
X123260827Y-112987592D01*
X120473799Y-110200564D01*
X120463103Y-110188367D01*
X120443886Y-110163322D01*
X120443883Y-110163320D01*
X120443882Y-110163318D01*
X120318441Y-110067064D01*
X120172362Y-110006556D01*
X120172360Y-110006555D01*
X120015601Y-109985918D01*
X120015600Y-109985918D01*
X119984297Y-109990039D01*
X119968113Y-109991100D01*
X118156697Y-109991100D01*
X118089658Y-109971415D01*
X118069016Y-109954781D01*
X117858419Y-109744184D01*
X117824934Y-109682861D01*
X117822100Y-109656503D01*
X117822100Y-108861087D01*
X117823161Y-108844901D01*
X117827282Y-108813600D01*
X117827282Y-108813598D01*
X117823161Y-108782297D01*
X117822100Y-108766112D01*
X117822100Y-108178600D01*
X123930308Y-108178600D01*
X123949439Y-108397274D01*
X124006253Y-108609303D01*
X124006254Y-108609306D01*
X124006255Y-108609308D01*
X124099019Y-108808242D01*
X124099023Y-108808250D01*
X124224922Y-108988052D01*
X124224927Y-108988058D01*
X124380141Y-109143272D01*
X124380147Y-109143277D01*
X124559949Y-109269176D01*
X124559951Y-109269177D01*
X124559954Y-109269179D01*
X124758897Y-109361947D01*
X124970926Y-109418761D01*
X125127121Y-109432426D01*
X125189598Y-109437892D01*
X125189600Y-109437892D01*
X125189602Y-109437892D01*
X125244268Y-109433109D01*
X125408274Y-109418761D01*
X125620303Y-109361947D01*
X125819246Y-109269179D01*
X125999057Y-109143274D01*
X126154274Y-108988057D01*
X126280179Y-108808246D01*
X126372947Y-108609303D01*
X126429761Y-108397274D01*
X126448892Y-108178600D01*
X126429761Y-107959926D01*
X126372947Y-107747897D01*
X126280179Y-107548954D01*
X126280177Y-107548951D01*
X126280176Y-107548949D01*
X126154277Y-107369147D01*
X126154272Y-107369141D01*
X125999058Y-107213927D01*
X125999057Y-107213926D01*
X125842975Y-107104636D01*
X125799352Y-107050060D01*
X125790100Y-107003062D01*
X125790100Y-106400603D01*
X131148035Y-106400603D01*
X131168230Y-106579849D01*
X131168231Y-106579854D01*
X131227811Y-106750123D01*
X131323784Y-106902862D01*
X131451338Y-107030416D01*
X131604078Y-107126389D01*
X131774345Y-107185968D01*
X131774350Y-107185969D01*
X131953596Y-107206165D01*
X131953600Y-107206165D01*
X131953604Y-107206165D01*
X132132849Y-107185969D01*
X132132852Y-107185968D01*
X132132855Y-107185968D01*
X132303122Y-107126389D01*
X132455862Y-107030416D01*
X132583416Y-106902862D01*
X132679389Y-106750122D01*
X132738968Y-106579855D01*
X132748761Y-106492929D01*
X132775826Y-106428518D01*
X132784290Y-106419143D01*
X135782135Y-103421298D01*
X135843456Y-103387815D01*
X135855911Y-103385763D01*
X135942855Y-103375968D01*
X136113122Y-103316389D01*
X136265862Y-103220416D01*
X136393416Y-103092862D01*
X136489389Y-102940122D01*
X136548968Y-102769855D01*
X136548969Y-102769849D01*
X136569165Y-102590603D01*
X136569165Y-102590596D01*
X136548969Y-102411350D01*
X136548968Y-102411345D01*
X136489389Y-102241078D01*
X136393416Y-102088338D01*
X136265862Y-101960784D01*
X136257612Y-101955600D01*
X136113123Y-101864811D01*
X135942854Y-101805231D01*
X135942849Y-101805230D01*
X135763604Y-101785035D01*
X135763596Y-101785035D01*
X135584350Y-101805230D01*
X135584345Y-101805231D01*
X135414076Y-101864811D01*
X135261337Y-101960784D01*
X135133784Y-102088337D01*
X135037810Y-102241078D01*
X134978230Y-102411350D01*
X134968437Y-102498268D01*
X134941370Y-102562682D01*
X134932898Y-102572065D01*
X131935065Y-105569898D01*
X131873742Y-105603383D01*
X131861268Y-105605437D01*
X131774350Y-105615230D01*
X131604078Y-105674810D01*
X131451337Y-105770784D01*
X131323784Y-105898337D01*
X131227811Y-106051076D01*
X131168231Y-106221345D01*
X131168230Y-106221350D01*
X131148035Y-106400596D01*
X131148035Y-106400603D01*
X125790100Y-106400603D01*
X125790100Y-102923697D01*
X125809785Y-102856658D01*
X125826419Y-102836016D01*
X126705016Y-101957419D01*
X126766339Y-101923934D01*
X126792697Y-101921100D01*
X129807505Y-101921100D01*
X129874544Y-101940785D01*
X129920299Y-101993589D01*
X129930243Y-102062747D01*
X129912499Y-102111072D01*
X129830811Y-102241076D01*
X129771231Y-102411345D01*
X129771230Y-102411350D01*
X129751035Y-102590596D01*
X129751035Y-102590603D01*
X129771230Y-102769849D01*
X129771231Y-102769854D01*
X129830811Y-102940123D01*
X129910720Y-103067297D01*
X129926784Y-103092862D01*
X130054338Y-103220416D01*
X130207078Y-103316389D01*
X130377342Y-103375967D01*
X130377345Y-103375968D01*
X130377350Y-103375969D01*
X130556596Y-103396165D01*
X130556600Y-103396165D01*
X130556604Y-103396165D01*
X130735849Y-103375969D01*
X130735852Y-103375968D01*
X130735855Y-103375968D01*
X130906122Y-103316389D01*
X131058862Y-103220416D01*
X131186416Y-103092862D01*
X131282389Y-102940122D01*
X131341968Y-102769855D01*
X131341969Y-102769849D01*
X131362165Y-102590603D01*
X131362165Y-102590596D01*
X131341969Y-102411350D01*
X131341968Y-102411345D01*
X131282389Y-102241078D01*
X131186416Y-102088338D01*
X131141359Y-102043281D01*
X131107874Y-101981958D01*
X131112858Y-101912266D01*
X131141359Y-101867919D01*
X131144467Y-101864811D01*
X131186416Y-101822862D01*
X131282389Y-101670122D01*
X131341968Y-101499855D01*
X131350714Y-101422231D01*
X131362165Y-101320603D01*
X131362165Y-101320596D01*
X131341969Y-101141350D01*
X131341968Y-101141345D01*
X131282388Y-100971076D01*
X131232901Y-100892318D01*
X131186416Y-100818338D01*
X131058862Y-100690784D01*
X131052681Y-100686900D01*
X130906123Y-100594811D01*
X130735854Y-100535231D01*
X130735849Y-100535230D01*
X130556604Y-100515035D01*
X130556596Y-100515035D01*
X130377350Y-100535230D01*
X130377345Y-100535231D01*
X130207076Y-100594811D01*
X130054336Y-100690785D01*
X130051503Y-100693045D01*
X130049324Y-100693934D01*
X130048442Y-100694489D01*
X130048344Y-100694334D01*
X129986817Y-100719455D01*
X129974188Y-100720100D01*
X126540087Y-100720100D01*
X126523902Y-100719039D01*
X126492600Y-100714918D01*
X126453239Y-100720100D01*
X126335839Y-100735555D01*
X126335837Y-100735556D01*
X126189757Y-100796064D01*
X126064318Y-100892316D01*
X126045089Y-100917375D01*
X126034398Y-100929565D01*
X124798565Y-102165398D01*
X124786375Y-102176089D01*
X124761320Y-102195315D01*
X124761318Y-102195318D01*
X124709637Y-102262670D01*
X124709636Y-102262670D01*
X124665064Y-102320757D01*
X124604556Y-102466837D01*
X124604555Y-102466839D01*
X124583918Y-102623598D01*
X124583918Y-102623599D01*
X124588039Y-102654901D01*
X124589100Y-102671087D01*
X124589100Y-107003062D01*
X124569415Y-107070101D01*
X124536224Y-107104637D01*
X124380143Y-107213926D01*
X124380141Y-107213927D01*
X124224927Y-107369141D01*
X124224922Y-107369147D01*
X124099023Y-107548949D01*
X124099019Y-107548957D01*
X124006255Y-107747891D01*
X123949439Y-107959924D01*
X123949438Y-107959931D01*
X123930308Y-108178597D01*
X123930308Y-108178600D01*
X117822100Y-108178600D01*
X117822100Y-100050603D01*
X138133035Y-100050603D01*
X138153230Y-100229849D01*
X138153231Y-100229854D01*
X138212811Y-100400123D01*
X138243992Y-100449747D01*
X138297706Y-100535232D01*
X138308785Y-100552863D01*
X138311045Y-100555697D01*
X138311934Y-100557875D01*
X138312489Y-100558758D01*
X138312334Y-100558855D01*
X138337455Y-100620383D01*
X138338100Y-100633012D01*
X138338100Y-101527112D01*
X138337038Y-101543297D01*
X138332918Y-101574600D01*
X138333600Y-101579784D01*
X138338100Y-101613960D01*
X138338100Y-101613961D01*
X138353555Y-101731360D01*
X138353556Y-101731362D01*
X138391456Y-101822862D01*
X138414064Y-101877441D01*
X138510318Y-102002882D01*
X138510319Y-102002883D01*
X138535369Y-102022104D01*
X138547564Y-102032799D01*
X139115399Y-102600634D01*
X139126093Y-102612828D01*
X139134358Y-102623599D01*
X139145318Y-102637882D01*
X139241731Y-102711862D01*
X139270759Y-102734136D01*
X139270762Y-102734137D01*
X139270763Y-102734138D01*
X139343798Y-102764390D01*
X139416838Y-102794644D01*
X139495219Y-102804963D01*
X139573599Y-102815282D01*
X139573600Y-102815282D01*
X139604902Y-102811160D01*
X139621087Y-102810100D01*
X141023188Y-102810100D01*
X141090227Y-102829785D01*
X141100503Y-102837155D01*
X141103336Y-102839414D01*
X141103338Y-102839416D01*
X141256078Y-102935389D01*
X141426345Y-102994968D01*
X141426350Y-102994969D01*
X141605596Y-103015165D01*
X141605597Y-103015165D01*
X141605598Y-103015164D01*
X141605600Y-103015165D01*
X141627870Y-103012655D01*
X141696690Y-103024708D01*
X141748071Y-103072055D01*
X141764694Y-103119690D01*
X141777955Y-103220416D01*
X141782555Y-103255361D01*
X141843063Y-103401439D01*
X141843064Y-103401441D01*
X141939318Y-103526882D01*
X141939319Y-103526883D01*
X141964369Y-103546104D01*
X141976564Y-103556799D01*
X143695898Y-105276133D01*
X143729383Y-105337456D01*
X143731437Y-105349930D01*
X143741230Y-105436849D01*
X143800810Y-105607121D01*
X143805907Y-105615232D01*
X143896784Y-105759862D01*
X144024338Y-105887416D01*
X144177078Y-105983389D01*
X144347345Y-106042968D01*
X144347350Y-106042969D01*
X144526596Y-106063165D01*
X144526600Y-106063165D01*
X144526604Y-106063165D01*
X144705849Y-106042969D01*
X144705852Y-106042968D01*
X144705855Y-106042968D01*
X144876122Y-105983389D01*
X145028862Y-105887416D01*
X145156416Y-105759862D01*
X145252389Y-105607122D01*
X145311968Y-105436855D01*
X145321762Y-105349930D01*
X145332165Y-105257603D01*
X145332165Y-105257596D01*
X145311969Y-105078350D01*
X145311968Y-105078345D01*
X145252388Y-104908076D01*
X145156415Y-104755337D01*
X145028862Y-104627784D01*
X144876121Y-104531810D01*
X144705849Y-104472230D01*
X144618930Y-104462437D01*
X144554516Y-104435370D01*
X144545133Y-104426898D01*
X143004419Y-102886184D01*
X142970934Y-102824861D01*
X142968100Y-102798503D01*
X142968100Y-100887012D01*
X142987785Y-100819973D01*
X142995155Y-100809697D01*
X142997410Y-100806867D01*
X142997416Y-100806862D01*
X143093389Y-100654122D01*
X143152968Y-100483855D01*
X143156811Y-100449747D01*
X143173165Y-100304603D01*
X143173165Y-100304596D01*
X143152969Y-100125350D01*
X143152968Y-100125345D01*
X143126815Y-100050603D01*
X143093389Y-99955078D01*
X142997416Y-99802338D01*
X142869862Y-99674784D01*
X142717123Y-99578811D01*
X142546854Y-99519231D01*
X142546849Y-99519230D01*
X142367604Y-99499035D01*
X142367596Y-99499035D01*
X142188350Y-99519230D01*
X142188345Y-99519231D01*
X142018076Y-99578811D01*
X141865337Y-99674784D01*
X141737784Y-99802337D01*
X141641811Y-99955076D01*
X141582231Y-100125345D01*
X141582230Y-100125350D01*
X141562035Y-100304596D01*
X141562035Y-100304603D01*
X141582230Y-100483849D01*
X141582231Y-100483854D01*
X141641811Y-100654123D01*
X141737785Y-100806863D01*
X141740045Y-100809697D01*
X141740934Y-100811875D01*
X141741489Y-100812758D01*
X141741334Y-100812855D01*
X141766455Y-100874383D01*
X141767100Y-100887012D01*
X141767100Y-101283475D01*
X141747415Y-101350514D01*
X141694611Y-101396269D01*
X141629219Y-101406696D01*
X141622925Y-101405987D01*
X141605600Y-101404035D01*
X141605598Y-101404035D01*
X141605597Y-101404035D01*
X141605596Y-101404035D01*
X141426350Y-101424230D01*
X141426345Y-101424231D01*
X141256076Y-101483811D01*
X141103336Y-101579785D01*
X141100503Y-101582045D01*
X141098324Y-101582934D01*
X141097442Y-101583489D01*
X141097344Y-101583334D01*
X141035817Y-101608455D01*
X141023188Y-101609100D01*
X139873697Y-101609100D01*
X139806658Y-101589415D01*
X139786016Y-101572781D01*
X139575419Y-101362184D01*
X139541934Y-101300861D01*
X139539100Y-101274503D01*
X139539100Y-100799694D01*
X139558785Y-100732655D01*
X139611589Y-100686900D01*
X139680747Y-100676956D01*
X139729071Y-100694700D01*
X139761248Y-100714918D01*
X139859075Y-100776388D01*
X140029345Y-100835968D01*
X140029350Y-100835969D01*
X140208596Y-100856165D01*
X140208600Y-100856165D01*
X140208604Y-100856165D01*
X140387849Y-100835969D01*
X140387852Y-100835968D01*
X140387855Y-100835968D01*
X140558122Y-100776389D01*
X140710862Y-100680416D01*
X140838416Y-100552862D01*
X140934389Y-100400122D01*
X140993968Y-100229855D01*
X140994141Y-100228322D01*
X141014165Y-100050603D01*
X141014165Y-100050596D01*
X140993969Y-99871350D01*
X140993968Y-99871345D01*
X140967815Y-99796603D01*
X140934389Y-99701078D01*
X140838416Y-99548338D01*
X140838414Y-99548336D01*
X140838413Y-99548334D01*
X140836150Y-99545496D01*
X140835259Y-99543315D01*
X140834711Y-99542442D01*
X140834864Y-99542345D01*
X140809744Y-99480809D01*
X140809100Y-99468187D01*
X140809100Y-89838012D01*
X140828785Y-89770973D01*
X140836155Y-89760697D01*
X140838410Y-89757867D01*
X140838416Y-89757862D01*
X140934389Y-89605122D01*
X140993968Y-89434855D01*
X140993969Y-89434849D01*
X141014165Y-89255603D01*
X141014165Y-89255596D01*
X140993969Y-89076350D01*
X140993966Y-89076337D01*
X140945797Y-88938678D01*
X140942235Y-88868899D01*
X140976963Y-88808272D01*
X141038957Y-88776044D01*
X141076720Y-88774503D01*
X141146978Y-88782419D01*
X141224597Y-88791165D01*
X141224600Y-88791165D01*
X141224604Y-88791165D01*
X141403849Y-88770969D01*
X141403852Y-88770968D01*
X141403855Y-88770968D01*
X141574122Y-88711389D01*
X141726862Y-88615416D01*
X141854416Y-88487862D01*
X141950389Y-88335122D01*
X142009968Y-88164855D01*
X142018489Y-88089230D01*
X142030165Y-87985603D01*
X142030165Y-87985596D01*
X142009969Y-87806350D01*
X142009968Y-87806345D01*
X141989267Y-87747184D01*
X141950389Y-87636078D01*
X141854416Y-87483338D01*
X141726862Y-87355784D01*
X141574123Y-87259811D01*
X141403854Y-87200231D01*
X141403849Y-87200230D01*
X141224604Y-87180035D01*
X141224596Y-87180035D01*
X141045350Y-87200230D01*
X141045345Y-87200231D01*
X140875076Y-87259811D01*
X140722336Y-87355785D01*
X140719503Y-87358045D01*
X140717324Y-87358934D01*
X140716442Y-87359489D01*
X140716344Y-87359334D01*
X140654817Y-87384455D01*
X140642188Y-87385100D01*
X140156012Y-87385100D01*
X140088973Y-87365415D01*
X140078697Y-87358045D01*
X140075863Y-87355785D01*
X140075862Y-87355784D01*
X140019096Y-87320115D01*
X139923123Y-87259811D01*
X139752854Y-87200231D01*
X139752850Y-87200230D01*
X139649216Y-87188554D01*
X139584802Y-87161487D01*
X139545247Y-87103892D01*
X139539100Y-87065334D01*
X139539100Y-83107012D01*
X139558785Y-83039973D01*
X139566155Y-83029697D01*
X139568410Y-83026867D01*
X139568416Y-83026862D01*
X139664389Y-82874122D01*
X139723968Y-82703855D01*
X139732436Y-82628699D01*
X139744165Y-82524603D01*
X139744165Y-82524596D01*
X139723969Y-82345350D01*
X139723968Y-82345345D01*
X139697815Y-82270603D01*
X139664389Y-82175078D01*
X139568416Y-82022338D01*
X139568414Y-82022336D01*
X139568413Y-82022334D01*
X139566150Y-82019496D01*
X139565259Y-82017315D01*
X139564711Y-82016442D01*
X139564864Y-82016345D01*
X139539744Y-81954809D01*
X139539100Y-81942187D01*
X139539100Y-71348603D01*
X149944035Y-71348603D01*
X149964230Y-71527849D01*
X149964231Y-71527854D01*
X150023811Y-71698123D01*
X150067995Y-71768441D01*
X150119784Y-71850862D01*
X150247338Y-71978416D01*
X150287184Y-72003453D01*
X150384344Y-72064503D01*
X150400078Y-72074389D01*
X150488748Y-72105416D01*
X150570345Y-72133968D01*
X150570350Y-72133969D01*
X150749596Y-72154165D01*
X150749600Y-72154165D01*
X150749604Y-72154165D01*
X150928849Y-72133969D01*
X150928852Y-72133968D01*
X150928855Y-72133968D01*
X151099122Y-72074389D01*
X151251862Y-71978416D01*
X151296919Y-71933359D01*
X151358242Y-71899874D01*
X151427934Y-71904858D01*
X151472281Y-71933359D01*
X151517338Y-71978416D01*
X151557184Y-72003453D01*
X151654344Y-72064503D01*
X151670078Y-72074389D01*
X151758748Y-72105416D01*
X151840345Y-72133968D01*
X151840350Y-72133969D01*
X152019596Y-72154165D01*
X152019600Y-72154165D01*
X152019604Y-72154165D01*
X152198849Y-72133969D01*
X152198852Y-72133968D01*
X152198855Y-72133968D01*
X152369122Y-72074389D01*
X152521862Y-71978416D01*
X152566919Y-71933359D01*
X152628242Y-71899874D01*
X152697934Y-71904858D01*
X152742281Y-71933359D01*
X152787338Y-71978416D01*
X152827184Y-72003453D01*
X152924344Y-72064503D01*
X152940078Y-72074389D01*
X153028748Y-72105416D01*
X153110345Y-72133968D01*
X153110350Y-72133969D01*
X153289596Y-72154165D01*
X153289600Y-72154165D01*
X153289604Y-72154165D01*
X153468849Y-72133969D01*
X153468852Y-72133968D01*
X153468855Y-72133968D01*
X153639122Y-72074389D01*
X153791862Y-71978416D01*
X153836919Y-71933359D01*
X153898242Y-71899874D01*
X153967934Y-71904858D01*
X154012281Y-71933359D01*
X154057338Y-71978416D01*
X154097184Y-72003453D01*
X154194344Y-72064503D01*
X154210078Y-72074389D01*
X154298748Y-72105416D01*
X154380345Y-72133968D01*
X154380350Y-72133969D01*
X154559596Y-72154165D01*
X154559600Y-72154165D01*
X154559604Y-72154165D01*
X154738849Y-72133969D01*
X154738852Y-72133968D01*
X154738855Y-72133968D01*
X154909122Y-72074389D01*
X155061862Y-71978416D01*
X155189416Y-71850862D01*
X155285389Y-71698122D01*
X155344968Y-71527855D01*
X155345311Y-71524815D01*
X155365165Y-71348603D01*
X157564035Y-71348603D01*
X157584230Y-71527849D01*
X157584231Y-71527854D01*
X157643811Y-71698123D01*
X157687995Y-71768441D01*
X157739784Y-71850862D01*
X157867338Y-71978416D01*
X157907184Y-72003453D01*
X158004344Y-72064503D01*
X158020078Y-72074389D01*
X158108748Y-72105416D01*
X158190345Y-72133968D01*
X158190350Y-72133969D01*
X158369596Y-72154165D01*
X158369600Y-72154165D01*
X158369604Y-72154165D01*
X158548849Y-72133969D01*
X158548852Y-72133968D01*
X158548855Y-72133968D01*
X158719122Y-72074389D01*
X158871862Y-71978416D01*
X158999416Y-71850862D01*
X159095389Y-71698122D01*
X159154968Y-71527855D01*
X159155311Y-71524815D01*
X159175165Y-71348603D01*
X159175165Y-71348596D01*
X159154969Y-71169350D01*
X159154968Y-71169345D01*
X159139828Y-71126078D01*
X159095389Y-70999078D01*
X159079215Y-70973338D01*
X159062245Y-70946330D01*
X158999416Y-70846338D01*
X158999414Y-70846336D01*
X158999413Y-70846334D01*
X158997150Y-70843496D01*
X158996259Y-70841315D01*
X158995711Y-70840442D01*
X158995864Y-70840345D01*
X158970744Y-70778809D01*
X158970100Y-70766187D01*
X158970100Y-66089012D01*
X158989785Y-66021973D01*
X158997155Y-66011697D01*
X158999410Y-66008867D01*
X158999416Y-66008862D01*
X159095389Y-65856122D01*
X159154968Y-65685855D01*
X159160838Y-65633758D01*
X159175165Y-65506603D01*
X159175165Y-65506596D01*
X159154969Y-65327350D01*
X159154968Y-65327345D01*
X159095388Y-65157076D01*
X158999415Y-65004337D01*
X158871862Y-64876784D01*
X158719123Y-64780811D01*
X158548854Y-64721231D01*
X158548849Y-64721230D01*
X158369604Y-64701035D01*
X158369596Y-64701035D01*
X158190350Y-64721230D01*
X158190345Y-64721231D01*
X158020076Y-64780811D01*
X157867337Y-64876784D01*
X157739784Y-65004337D01*
X157643811Y-65157076D01*
X157584231Y-65327345D01*
X157584230Y-65327350D01*
X157564035Y-65506596D01*
X157564035Y-65506603D01*
X157584230Y-65685849D01*
X157584231Y-65685854D01*
X157643811Y-65856123D01*
X157739785Y-66008863D01*
X157742045Y-66011697D01*
X157742934Y-66013875D01*
X157743489Y-66014758D01*
X157743334Y-66014855D01*
X157768455Y-66076383D01*
X157769100Y-66089012D01*
X157769100Y-70766187D01*
X157749415Y-70833226D01*
X157742050Y-70843496D01*
X157739786Y-70846334D01*
X157643811Y-70999076D01*
X157584231Y-71169345D01*
X157584230Y-71169350D01*
X157564035Y-71348596D01*
X157564035Y-71348603D01*
X155365165Y-71348603D01*
X155365165Y-71348596D01*
X155344969Y-71169350D01*
X155344968Y-71169345D01*
X155329828Y-71126078D01*
X155285389Y-70999078D01*
X155269215Y-70973338D01*
X155252245Y-70946330D01*
X155189416Y-70846338D01*
X155189414Y-70846336D01*
X155189413Y-70846334D01*
X155187150Y-70843496D01*
X155186259Y-70841315D01*
X155185711Y-70840442D01*
X155185864Y-70840345D01*
X155160744Y-70778809D01*
X155160100Y-70766187D01*
X155160100Y-62660012D01*
X155179785Y-62592973D01*
X155187155Y-62582697D01*
X155189410Y-62579867D01*
X155189416Y-62579862D01*
X155285389Y-62427122D01*
X155344968Y-62256855D01*
X155353661Y-62179702D01*
X155365165Y-62077603D01*
X155365165Y-62077596D01*
X155344969Y-61898350D01*
X155344968Y-61898345D01*
X155300471Y-61771180D01*
X155285389Y-61728078D01*
X155189416Y-61575338D01*
X155061862Y-61447784D01*
X154909121Y-61351810D01*
X154879698Y-61341515D01*
X154822922Y-61300793D01*
X154797174Y-61235841D01*
X154810630Y-61167279D01*
X154832981Y-61136782D01*
X154835877Y-61133885D01*
X154835882Y-61133882D01*
X154932136Y-61008441D01*
X154964159Y-60931127D01*
X155007997Y-60876727D01*
X155026308Y-60866203D01*
X155085430Y-60838635D01*
X155279001Y-60703095D01*
X155446095Y-60536001D01*
X155576025Y-60350442D01*
X155630602Y-60306817D01*
X155700100Y-60299623D01*
X155762455Y-60331146D01*
X155779175Y-60350442D01*
X155909100Y-60535995D01*
X155909105Y-60536001D01*
X156076199Y-60703095D01*
X156172984Y-60770865D01*
X156269765Y-60838632D01*
X156269767Y-60838633D01*
X156269770Y-60838635D01*
X156483937Y-60938503D01*
X156712192Y-60999663D01*
X156900518Y-61016139D01*
X156947599Y-61020259D01*
X156947600Y-61020259D01*
X156947601Y-61020259D01*
X156986834Y-61016826D01*
X157183008Y-60999663D01*
X157411263Y-60938503D01*
X157625430Y-60838635D01*
X157819001Y-60703095D01*
X157986095Y-60536001D01*
X158116025Y-60350442D01*
X158170602Y-60306817D01*
X158240100Y-60299623D01*
X158302455Y-60331146D01*
X158319175Y-60350442D01*
X158449100Y-60535995D01*
X158449105Y-60536001D01*
X158616199Y-60703095D01*
X158712984Y-60770865D01*
X158809765Y-60838632D01*
X158809767Y-60838633D01*
X158809770Y-60838635D01*
X159023937Y-60938503D01*
X159252192Y-60999663D01*
X159440518Y-61016139D01*
X159487599Y-61020259D01*
X159487600Y-61020259D01*
X159487601Y-61020259D01*
X159526834Y-61016826D01*
X159723008Y-60999663D01*
X159951263Y-60938503D01*
X160165430Y-60838635D01*
X160359001Y-60703095D01*
X160526095Y-60536001D01*
X160656025Y-60350442D01*
X160710602Y-60306817D01*
X160780100Y-60299623D01*
X160842455Y-60331146D01*
X160859175Y-60350442D01*
X160989100Y-60535995D01*
X160989105Y-60536001D01*
X161156199Y-60703095D01*
X161252984Y-60770865D01*
X161349765Y-60838632D01*
X161349767Y-60838633D01*
X161349770Y-60838635D01*
X161563937Y-60938503D01*
X161792192Y-60999663D01*
X161980518Y-61016139D01*
X162027599Y-61020259D01*
X162027600Y-61020259D01*
X162027601Y-61020259D01*
X162066834Y-61016826D01*
X162263008Y-60999663D01*
X162491263Y-60938503D01*
X162705430Y-60838635D01*
X162899001Y-60703095D01*
X163017083Y-60585013D01*
X163078406Y-60551528D01*
X163148098Y-60556512D01*
X163204031Y-60598384D01*
X163210492Y-60607905D01*
X163228592Y-60637442D01*
X163397266Y-60834933D01*
X163594758Y-61003608D01*
X163594759Y-61003609D01*
X163816198Y-61139307D01*
X164056146Y-61238696D01*
X164167599Y-61265453D01*
X164167600Y-61265453D01*
X164167600Y-59967017D01*
X164185839Y-59995398D01*
X164294500Y-60089552D01*
X164425285Y-60149280D01*
X164531837Y-60164600D01*
X164603363Y-60164600D01*
X164709915Y-60149280D01*
X164840700Y-60089552D01*
X164869497Y-60064600D01*
X164967600Y-60064600D01*
X164967600Y-61265453D01*
X165079053Y-61238696D01*
X165319001Y-61139307D01*
X165540440Y-61003609D01*
X165540441Y-61003608D01*
X165737933Y-60834933D01*
X165906608Y-60637441D01*
X165906609Y-60637440D01*
X166042307Y-60416000D01*
X166042309Y-60415997D01*
X166141697Y-60176052D01*
X166168454Y-60064600D01*
X164967600Y-60064600D01*
X164869497Y-60064600D01*
X164949361Y-59995398D01*
X165027093Y-59874444D01*
X165067600Y-59736489D01*
X165067600Y-59664600D01*
X169078941Y-59664600D01*
X169099536Y-59900003D01*
X169099538Y-59900013D01*
X169160694Y-60128255D01*
X169160696Y-60128259D01*
X169160697Y-60128263D01*
X169217413Y-60249891D01*
X169260565Y-60342430D01*
X169260567Y-60342434D01*
X169368881Y-60497121D01*
X169396105Y-60536001D01*
X169563199Y-60703095D01*
X169659984Y-60770865D01*
X169756765Y-60838632D01*
X169756767Y-60838633D01*
X169756770Y-60838635D01*
X169970937Y-60938503D01*
X170199192Y-60999663D01*
X170387518Y-61016139D01*
X170434599Y-61020259D01*
X170434600Y-61020259D01*
X170434601Y-61020259D01*
X170473834Y-61016826D01*
X170670008Y-60999663D01*
X170898263Y-60938503D01*
X171112430Y-60838635D01*
X171306001Y-60703095D01*
X171473095Y-60536001D01*
X171608635Y-60342430D01*
X171708503Y-60128263D01*
X171769663Y-59900008D01*
X171790259Y-59664600D01*
X171769663Y-59429192D01*
X171708503Y-59200937D01*
X171608635Y-58986771D01*
X171603466Y-58979388D01*
X171473094Y-58793197D01*
X171306002Y-58626106D01*
X171305995Y-58626101D01*
X171112434Y-58490567D01*
X171112430Y-58490565D01*
X171036360Y-58455093D01*
X170898263Y-58390697D01*
X170898259Y-58390696D01*
X170898255Y-58390694D01*
X170670013Y-58329538D01*
X170670003Y-58329536D01*
X170434601Y-58308941D01*
X170434599Y-58308941D01*
X170199196Y-58329536D01*
X170199186Y-58329538D01*
X169970944Y-58390694D01*
X169970935Y-58390698D01*
X169756771Y-58490564D01*
X169756769Y-58490565D01*
X169563197Y-58626105D01*
X169396105Y-58793197D01*
X169260565Y-58986769D01*
X169260564Y-58986771D01*
X169160698Y-59200935D01*
X169160694Y-59200944D01*
X169099538Y-59429186D01*
X169099536Y-59429196D01*
X169078941Y-59664599D01*
X169078941Y-59664600D01*
X165067600Y-59664600D01*
X165067600Y-59592711D01*
X165027093Y-59454756D01*
X164949361Y-59333802D01*
X164840700Y-59239648D01*
X164709915Y-59179920D01*
X164603363Y-59164600D01*
X164531837Y-59164600D01*
X164425285Y-59179920D01*
X164294500Y-59239648D01*
X164185839Y-59333802D01*
X164167600Y-59362182D01*
X164167600Y-58063746D01*
X164967600Y-58063746D01*
X164967600Y-59264600D01*
X166168454Y-59264600D01*
X166168453Y-59264599D01*
X166141697Y-59153147D01*
X166042309Y-58913202D01*
X166042307Y-58913199D01*
X165906609Y-58691759D01*
X165906608Y-58691758D01*
X165737933Y-58494266D01*
X165540441Y-58325591D01*
X165540440Y-58325590D01*
X165319000Y-58189892D01*
X165318997Y-58189890D01*
X165079052Y-58090502D01*
X164967600Y-58063746D01*
X164167600Y-58063746D01*
X164167599Y-58063746D01*
X164056147Y-58090502D01*
X163816202Y-58189890D01*
X163816199Y-58189892D01*
X163594759Y-58325590D01*
X163594758Y-58325591D01*
X163397266Y-58494266D01*
X163228591Y-58691758D01*
X163228590Y-58691760D01*
X163210491Y-58721295D01*
X163158679Y-58768171D01*
X163089749Y-58779593D01*
X163025586Y-58751935D01*
X163017083Y-58744187D01*
X162964654Y-58691758D01*
X162899001Y-58626105D01*
X162898997Y-58626102D01*
X162898996Y-58626101D01*
X162705434Y-58490567D01*
X162705430Y-58490565D01*
X162629360Y-58455093D01*
X162491263Y-58390697D01*
X162491259Y-58390696D01*
X162491255Y-58390694D01*
X162263013Y-58329538D01*
X162263003Y-58329536D01*
X162027601Y-58308941D01*
X162027599Y-58308941D01*
X161792196Y-58329536D01*
X161792186Y-58329538D01*
X161563944Y-58390694D01*
X161563935Y-58390698D01*
X161349771Y-58490564D01*
X161349769Y-58490565D01*
X161156197Y-58626105D01*
X160989105Y-58793197D01*
X160859175Y-58978758D01*
X160804598Y-59022383D01*
X160735100Y-59029577D01*
X160672745Y-58998054D01*
X160656025Y-58978758D01*
X160526094Y-58793197D01*
X160359002Y-58626106D01*
X160358995Y-58626101D01*
X160165434Y-58490567D01*
X160165430Y-58490565D01*
X160089360Y-58455093D01*
X159951263Y-58390697D01*
X159951259Y-58390696D01*
X159951255Y-58390694D01*
X159723013Y-58329538D01*
X159723003Y-58329536D01*
X159487601Y-58308941D01*
X159487599Y-58308941D01*
X159252196Y-58329536D01*
X159252186Y-58329538D01*
X159023944Y-58390694D01*
X159023935Y-58390698D01*
X158809771Y-58490564D01*
X158809769Y-58490565D01*
X158616197Y-58626105D01*
X158449105Y-58793197D01*
X158319175Y-58978758D01*
X158264598Y-59022383D01*
X158195100Y-59029577D01*
X158132745Y-58998054D01*
X158116025Y-58978758D01*
X157986094Y-58793197D01*
X157819002Y-58626106D01*
X157818995Y-58626101D01*
X157625434Y-58490567D01*
X157625430Y-58490565D01*
X157549360Y-58455093D01*
X157411263Y-58390697D01*
X157411259Y-58390696D01*
X157411255Y-58390694D01*
X157183013Y-58329538D01*
X157183003Y-58329536D01*
X156947601Y-58308941D01*
X156947599Y-58308941D01*
X156712196Y-58329536D01*
X156712186Y-58329538D01*
X156483944Y-58390694D01*
X156483935Y-58390698D01*
X156269771Y-58490564D01*
X156269769Y-58490565D01*
X156076197Y-58626105D01*
X155909105Y-58793197D01*
X155779175Y-58978758D01*
X155724598Y-59022383D01*
X155655100Y-59029577D01*
X155592745Y-58998054D01*
X155576025Y-58978758D01*
X155446094Y-58793197D01*
X155279002Y-58626106D01*
X155278995Y-58626101D01*
X155085434Y-58490567D01*
X155085430Y-58490565D01*
X155009360Y-58455093D01*
X154871263Y-58390697D01*
X154871259Y-58390696D01*
X154871255Y-58390694D01*
X154643013Y-58329538D01*
X154643003Y-58329536D01*
X154407601Y-58308941D01*
X154407599Y-58308941D01*
X154172196Y-58329536D01*
X154172186Y-58329538D01*
X153943944Y-58390694D01*
X153943935Y-58390698D01*
X153729771Y-58490564D01*
X153729769Y-58490565D01*
X153536197Y-58626105D01*
X153369105Y-58793197D01*
X153239175Y-58978758D01*
X153184598Y-59022383D01*
X153115100Y-59029577D01*
X153052745Y-58998054D01*
X153036025Y-58978758D01*
X152906094Y-58793197D01*
X152739002Y-58626106D01*
X152738995Y-58626101D01*
X152545434Y-58490567D01*
X152545430Y-58490565D01*
X152469360Y-58455093D01*
X152331263Y-58390697D01*
X152331259Y-58390696D01*
X152331255Y-58390694D01*
X152103013Y-58329538D01*
X152103003Y-58329536D01*
X151867601Y-58308941D01*
X151867599Y-58308941D01*
X151632196Y-58329536D01*
X151632186Y-58329538D01*
X151403944Y-58390694D01*
X151403935Y-58390698D01*
X151189771Y-58490564D01*
X151189769Y-58490565D01*
X150996197Y-58626105D01*
X150829105Y-58793197D01*
X150693565Y-58986769D01*
X150693564Y-58986771D01*
X150593698Y-59200935D01*
X150593694Y-59200944D01*
X150532538Y-59429186D01*
X150532536Y-59429196D01*
X150511941Y-59664599D01*
X150511941Y-59664600D01*
X150532536Y-59900003D01*
X150532538Y-59900013D01*
X150593694Y-60128255D01*
X150593696Y-60128259D01*
X150593697Y-60128263D01*
X150650413Y-60249891D01*
X150693565Y-60342430D01*
X150693567Y-60342434D01*
X150801881Y-60497121D01*
X150829105Y-60536001D01*
X150996199Y-60703095D01*
X151092984Y-60770865D01*
X151189765Y-60838632D01*
X151189767Y-60838633D01*
X151189770Y-60838635D01*
X151403937Y-60938503D01*
X151632192Y-60999663D01*
X151820518Y-61016139D01*
X151867599Y-61020259D01*
X151867600Y-61020259D01*
X151867601Y-61020259D01*
X151906834Y-61016826D01*
X152103008Y-60999663D01*
X152331263Y-60938503D01*
X152545430Y-60838635D01*
X152739001Y-60703095D01*
X152906095Y-60536001D01*
X153036025Y-60350442D01*
X153090602Y-60306817D01*
X153160100Y-60299623D01*
X153222455Y-60331146D01*
X153239175Y-60350442D01*
X153369101Y-60535996D01*
X153369106Y-60536002D01*
X153460853Y-60627749D01*
X153494338Y-60689072D01*
X153489354Y-60758764D01*
X153460853Y-60803111D01*
X151628565Y-62635398D01*
X151616375Y-62646089D01*
X151591317Y-62665318D01*
X151540354Y-62731735D01*
X151504778Y-62778100D01*
X151497323Y-62787815D01*
X151495063Y-62790760D01*
X151495060Y-62790765D01*
X151434557Y-62936834D01*
X151434555Y-62936839D01*
X151413918Y-63093598D01*
X151413918Y-63101727D01*
X151410815Y-63101727D01*
X151402297Y-63156263D01*
X151355904Y-63208508D01*
X151288630Y-63227377D01*
X151224164Y-63208380D01*
X151099123Y-63129811D01*
X150928854Y-63070231D01*
X150928849Y-63070230D01*
X150749604Y-63050035D01*
X150749596Y-63050035D01*
X150570350Y-63070230D01*
X150570345Y-63070231D01*
X150400076Y-63129811D01*
X150247337Y-63225784D01*
X150119784Y-63353337D01*
X150023811Y-63506076D01*
X149964231Y-63676345D01*
X149964230Y-63676350D01*
X149944035Y-63855596D01*
X149944035Y-63855603D01*
X149964230Y-64034849D01*
X149964231Y-64034854D01*
X150023811Y-64205123D01*
X150064601Y-64270039D01*
X150108706Y-64340232D01*
X150119785Y-64357863D01*
X150122045Y-64360697D01*
X150122934Y-64362875D01*
X150123489Y-64363758D01*
X150123334Y-64363855D01*
X150148455Y-64425383D01*
X150149100Y-64438012D01*
X150149100Y-70766187D01*
X150129415Y-70833226D01*
X150122050Y-70843496D01*
X150119786Y-70846334D01*
X150023811Y-70999076D01*
X149964231Y-71169345D01*
X149964230Y-71169350D01*
X149944035Y-71348596D01*
X149944035Y-71348603D01*
X139539100Y-71348603D01*
X139539100Y-69609600D01*
X141769746Y-69609600D01*
X141796502Y-69721052D01*
X141895890Y-69960997D01*
X141895892Y-69961000D01*
X142031590Y-70182440D01*
X142031591Y-70182441D01*
X142200266Y-70379933D01*
X142397758Y-70548608D01*
X142397759Y-70548609D01*
X142619198Y-70684307D01*
X142859146Y-70783696D01*
X142970599Y-70810453D01*
X142970600Y-70810453D01*
X142970600Y-69609600D01*
X141769746Y-69609600D01*
X139539100Y-69609600D01*
X139539100Y-69281489D01*
X142870600Y-69281489D01*
X142911107Y-69419444D01*
X142988839Y-69540398D01*
X143097500Y-69634552D01*
X143228285Y-69694280D01*
X143334837Y-69709600D01*
X143406363Y-69709600D01*
X143512915Y-69694280D01*
X143643700Y-69634552D01*
X143752361Y-69540398D01*
X143770600Y-69512017D01*
X143770600Y-70810453D01*
X143882053Y-70783696D01*
X144122001Y-70684307D01*
X144343440Y-70548609D01*
X144343441Y-70548608D01*
X144540933Y-70379933D01*
X144709607Y-70182442D01*
X144727708Y-70152905D01*
X144779520Y-70106029D01*
X144848449Y-70094606D01*
X144912612Y-70122263D01*
X144921117Y-70130013D01*
X145039199Y-70248095D01*
X145133332Y-70314008D01*
X145232765Y-70383632D01*
X145232767Y-70383633D01*
X145232770Y-70383635D01*
X145446937Y-70483503D01*
X145675192Y-70544663D01*
X145863518Y-70561139D01*
X145910599Y-70565259D01*
X145910600Y-70565259D01*
X145910601Y-70565259D01*
X145949834Y-70561826D01*
X146146008Y-70544663D01*
X146374263Y-70483503D01*
X146588430Y-70383635D01*
X146782001Y-70248095D01*
X146949095Y-70081001D01*
X147079025Y-69895442D01*
X147133602Y-69851817D01*
X147203100Y-69844623D01*
X147265455Y-69876146D01*
X147282175Y-69895442D01*
X147412100Y-70080995D01*
X147412105Y-70081001D01*
X147579199Y-70248095D01*
X147673332Y-70314008D01*
X147772765Y-70383632D01*
X147772767Y-70383633D01*
X147772770Y-70383635D01*
X147986937Y-70483503D01*
X148215192Y-70544663D01*
X148403518Y-70561139D01*
X148450599Y-70565259D01*
X148450600Y-70565259D01*
X148450601Y-70565259D01*
X148489834Y-70561826D01*
X148686008Y-70544663D01*
X148914263Y-70483503D01*
X149128430Y-70383635D01*
X149322001Y-70248095D01*
X149489095Y-70081001D01*
X149624635Y-69887430D01*
X149724503Y-69673263D01*
X149785663Y-69445008D01*
X149806259Y-69209600D01*
X149785663Y-68974192D01*
X149724503Y-68745937D01*
X149624635Y-68531771D01*
X149619025Y-68523758D01*
X149489094Y-68338197D01*
X149322002Y-68171106D01*
X149321995Y-68171101D01*
X149317369Y-68167862D01*
X149283121Y-68143881D01*
X149128434Y-68035567D01*
X149128430Y-68035565D01*
X149084590Y-68015122D01*
X148914263Y-67935697D01*
X148914259Y-67935696D01*
X148914255Y-67935694D01*
X148686013Y-67874538D01*
X148686003Y-67874536D01*
X148450601Y-67853941D01*
X148450599Y-67853941D01*
X148215196Y-67874536D01*
X148215186Y-67874538D01*
X147986944Y-67935694D01*
X147986935Y-67935698D01*
X147772771Y-68035564D01*
X147772769Y-68035565D01*
X147579197Y-68171105D01*
X147412105Y-68338197D01*
X147282175Y-68523758D01*
X147227598Y-68567383D01*
X147158100Y-68574577D01*
X147095745Y-68543054D01*
X147079025Y-68523758D01*
X146949094Y-68338197D01*
X146782002Y-68171106D01*
X146781995Y-68171101D01*
X146777369Y-68167862D01*
X146743121Y-68143881D01*
X146588434Y-68035567D01*
X146588430Y-68035565D01*
X146544590Y-68015122D01*
X146374263Y-67935697D01*
X146374259Y-67935696D01*
X146374255Y-67935694D01*
X146146013Y-67874538D01*
X146146003Y-67874536D01*
X145910601Y-67853941D01*
X145910599Y-67853941D01*
X145675196Y-67874536D01*
X145675186Y-67874538D01*
X145446944Y-67935694D01*
X145446935Y-67935698D01*
X145232771Y-68035564D01*
X145232769Y-68035565D01*
X145039197Y-68171105D01*
X144921117Y-68289186D01*
X144859794Y-68322671D01*
X144790102Y-68317687D01*
X144734169Y-68275815D01*
X144727709Y-68266295D01*
X144709609Y-68236760D01*
X144709608Y-68236758D01*
X144540933Y-68039266D01*
X144343441Y-67870591D01*
X144343440Y-67870590D01*
X144122000Y-67734892D01*
X144121997Y-67734890D01*
X143882052Y-67635502D01*
X143770600Y-67608746D01*
X143770600Y-68907182D01*
X143752361Y-68878802D01*
X143643700Y-68784648D01*
X143512915Y-68724920D01*
X143406363Y-68709600D01*
X143334837Y-68709600D01*
X143228285Y-68724920D01*
X143097500Y-68784648D01*
X142988839Y-68878802D01*
X142911107Y-68999756D01*
X142870600Y-69137711D01*
X142870600Y-69281489D01*
X139539100Y-69281489D01*
X139539100Y-68809600D01*
X141769746Y-68809600D01*
X142970600Y-68809600D01*
X142970600Y-67608746D01*
X142970599Y-67608746D01*
X142859147Y-67635502D01*
X142619202Y-67734890D01*
X142619199Y-67734892D01*
X142397759Y-67870590D01*
X142397758Y-67870591D01*
X142200266Y-68039266D01*
X142031591Y-68236758D01*
X142031590Y-68236759D01*
X141895892Y-68458199D01*
X141895890Y-68458202D01*
X141796502Y-68698147D01*
X141769746Y-68809599D01*
X141769746Y-68809600D01*
X139539100Y-68809600D01*
X139539100Y-65708012D01*
X139558785Y-65640973D01*
X139566155Y-65630697D01*
X139568410Y-65627867D01*
X139568416Y-65627862D01*
X139664389Y-65475122D01*
X139723968Y-65304855D01*
X139723969Y-65304849D01*
X139744165Y-65125603D01*
X139744165Y-65125596D01*
X139723969Y-64946350D01*
X139723968Y-64946345D01*
X139709944Y-64906267D01*
X139664389Y-64776078D01*
X139568416Y-64623338D01*
X139440862Y-64495784D01*
X139407492Y-64474816D01*
X139288123Y-64399811D01*
X139117854Y-64340231D01*
X139117849Y-64340230D01*
X138938604Y-64320035D01*
X138938596Y-64320035D01*
X138759350Y-64340230D01*
X138759345Y-64340231D01*
X138589076Y-64399811D01*
X138436337Y-64495784D01*
X138308784Y-64623337D01*
X138212811Y-64776076D01*
X138153231Y-64946345D01*
X138153230Y-64946350D01*
X138133035Y-65125596D01*
X138133035Y-65125603D01*
X138153230Y-65304849D01*
X138153231Y-65304854D01*
X138212811Y-65475123D01*
X138255901Y-65543699D01*
X138306786Y-65624683D01*
X138308785Y-65627863D01*
X138311045Y-65630697D01*
X138311934Y-65632875D01*
X138312489Y-65633758D01*
X138312334Y-65633855D01*
X138337455Y-65695383D01*
X138338100Y-65708012D01*
X138338100Y-81942187D01*
X138318415Y-82009226D01*
X138311050Y-82019496D01*
X138308786Y-82022334D01*
X138212811Y-82175076D01*
X138153231Y-82345345D01*
X138153230Y-82345350D01*
X138133035Y-82524596D01*
X138133035Y-82524603D01*
X138153230Y-82703849D01*
X138153231Y-82703854D01*
X138212811Y-82874123D01*
X138263742Y-82955178D01*
X138297706Y-83009232D01*
X138308785Y-83026863D01*
X138311045Y-83029697D01*
X138311934Y-83031875D01*
X138312489Y-83032758D01*
X138312334Y-83032855D01*
X138337455Y-83094383D01*
X138338100Y-83107012D01*
X138338100Y-99468187D01*
X138318415Y-99535226D01*
X138311050Y-99545496D01*
X138308786Y-99548334D01*
X138212811Y-99701076D01*
X138153231Y-99871345D01*
X138153230Y-99871350D01*
X138133035Y-100050596D01*
X138133035Y-100050603D01*
X117822100Y-100050603D01*
X117822100Y-95478600D01*
X123930308Y-95478600D01*
X123949439Y-95697274D01*
X124006253Y-95909303D01*
X124006254Y-95909306D01*
X124006255Y-95909308D01*
X124099019Y-96108242D01*
X124099023Y-96108250D01*
X124224922Y-96288052D01*
X124224927Y-96288058D01*
X124380141Y-96443272D01*
X124380147Y-96443277D01*
X124559949Y-96569176D01*
X124559951Y-96569177D01*
X124559954Y-96569179D01*
X124758897Y-96661947D01*
X124970926Y-96718761D01*
X125127121Y-96732426D01*
X125189598Y-96737892D01*
X125189600Y-96737892D01*
X125189602Y-96737892D01*
X125244268Y-96733109D01*
X125408274Y-96718761D01*
X125620303Y-96661947D01*
X125819246Y-96569179D01*
X125999057Y-96443274D01*
X126154274Y-96288057D01*
X126280179Y-96108246D01*
X126372947Y-95909303D01*
X126429761Y-95697274D01*
X126448892Y-95478600D01*
X126429761Y-95259926D01*
X126372947Y-95047897D01*
X126280179Y-94848954D01*
X126280177Y-94848951D01*
X126280176Y-94848949D01*
X126154277Y-94669147D01*
X126154272Y-94669141D01*
X125999058Y-94513927D01*
X125999052Y-94513922D01*
X125819250Y-94388023D01*
X125819242Y-94388019D01*
X125620308Y-94295255D01*
X125620306Y-94295254D01*
X125620303Y-94295253D01*
X125469485Y-94254840D01*
X125408275Y-94238439D01*
X125408268Y-94238438D01*
X125189602Y-94219308D01*
X125189598Y-94219308D01*
X124970931Y-94238438D01*
X124970924Y-94238439D01*
X124848502Y-94271242D01*
X124758897Y-94295253D01*
X124758895Y-94295253D01*
X124758891Y-94295255D01*
X124559957Y-94388019D01*
X124559949Y-94388023D01*
X124380147Y-94513922D01*
X124380141Y-94513927D01*
X124224927Y-94669141D01*
X124224922Y-94669147D01*
X124099023Y-94848949D01*
X124099019Y-94848957D01*
X124006255Y-95047891D01*
X123949439Y-95259924D01*
X123949438Y-95259931D01*
X123930308Y-95478597D01*
X123930308Y-95478600D01*
X117822100Y-95478600D01*
X117822100Y-91462087D01*
X117823161Y-91445901D01*
X117827282Y-91414600D01*
X117827282Y-91414598D01*
X117823161Y-91383297D01*
X117822100Y-91367112D01*
X117822100Y-90779600D01*
X123930308Y-90779600D01*
X123949439Y-90998274D01*
X124006253Y-91210303D01*
X124006254Y-91210306D01*
X124006255Y-91210308D01*
X124099019Y-91409242D01*
X124099023Y-91409250D01*
X124224922Y-91589052D01*
X124224927Y-91589058D01*
X124380141Y-91744272D01*
X124380147Y-91744277D01*
X124559949Y-91870176D01*
X124559951Y-91870177D01*
X124559954Y-91870179D01*
X124758897Y-91962947D01*
X124970926Y-92019761D01*
X125127121Y-92033426D01*
X125189598Y-92038892D01*
X125189600Y-92038892D01*
X125189602Y-92038892D01*
X125244268Y-92034109D01*
X125408274Y-92019761D01*
X125620303Y-91962947D01*
X125819246Y-91870179D01*
X125999057Y-91744274D01*
X126154274Y-91589057D01*
X126280179Y-91409246D01*
X126372947Y-91210303D01*
X126429761Y-90998274D01*
X126448892Y-90779600D01*
X126429761Y-90560926D01*
X126372947Y-90348897D01*
X126280179Y-90149954D01*
X126280177Y-90149951D01*
X126280176Y-90149949D01*
X126154277Y-89970147D01*
X126154272Y-89970141D01*
X125999058Y-89814927D01*
X125999057Y-89814926D01*
X125842975Y-89705636D01*
X125799352Y-89651060D01*
X125790100Y-89604062D01*
X125790100Y-88874603D01*
X131148035Y-88874603D01*
X131168230Y-89053849D01*
X131168231Y-89053854D01*
X131227811Y-89224123D01*
X131312550Y-89358984D01*
X131323784Y-89376862D01*
X131451338Y-89504416D01*
X131476630Y-89520308D01*
X131597498Y-89596255D01*
X131604078Y-89600389D01*
X131774345Y-89659968D01*
X131774350Y-89659969D01*
X131953596Y-89680165D01*
X131953600Y-89680165D01*
X131953604Y-89680165D01*
X132132849Y-89659969D01*
X132132852Y-89659968D01*
X132132855Y-89659968D01*
X132303122Y-89600389D01*
X132455862Y-89504416D01*
X132583416Y-89376862D01*
X132679389Y-89224122D01*
X132738968Y-89053855D01*
X132748761Y-88966929D01*
X132775826Y-88902518D01*
X132784290Y-88893143D01*
X135782135Y-85895298D01*
X135843456Y-85861815D01*
X135855911Y-85859763D01*
X135942855Y-85849968D01*
X136113122Y-85790389D01*
X136265862Y-85694416D01*
X136393416Y-85566862D01*
X136489389Y-85414122D01*
X136548968Y-85243855D01*
X136557489Y-85168230D01*
X136569165Y-85064603D01*
X136569165Y-85064596D01*
X136548969Y-84885350D01*
X136548968Y-84885345D01*
X136489389Y-84715078D01*
X136393416Y-84562338D01*
X136265862Y-84434784D01*
X136257612Y-84429600D01*
X136113123Y-84338811D01*
X135942854Y-84279231D01*
X135942849Y-84279230D01*
X135763604Y-84259035D01*
X135763596Y-84259035D01*
X135584350Y-84279230D01*
X135584345Y-84279231D01*
X135414076Y-84338811D01*
X135261337Y-84434784D01*
X135133784Y-84562337D01*
X135037810Y-84715078D01*
X134978230Y-84885350D01*
X134968437Y-84972268D01*
X134941370Y-85036682D01*
X134932898Y-85046065D01*
X131935065Y-88043898D01*
X131873742Y-88077383D01*
X131861268Y-88079437D01*
X131774350Y-88089230D01*
X131604078Y-88148810D01*
X131451337Y-88244784D01*
X131323784Y-88372337D01*
X131227811Y-88525076D01*
X131168231Y-88695345D01*
X131168230Y-88695350D01*
X131148035Y-88874596D01*
X131148035Y-88874603D01*
X125790100Y-88874603D01*
X125790100Y-85397697D01*
X125809785Y-85330658D01*
X125826419Y-85310016D01*
X126705016Y-84431419D01*
X126766339Y-84397934D01*
X126792697Y-84395100D01*
X129807505Y-84395100D01*
X129874544Y-84414785D01*
X129920299Y-84467589D01*
X129930243Y-84536747D01*
X129912499Y-84585072D01*
X129830811Y-84715076D01*
X129771231Y-84885345D01*
X129771230Y-84885350D01*
X129751035Y-85064596D01*
X129751035Y-85064603D01*
X129771230Y-85243849D01*
X129771231Y-85243854D01*
X129830811Y-85414123D01*
X129854195Y-85451338D01*
X129926784Y-85566862D01*
X130054338Y-85694416D01*
X130207078Y-85790389D01*
X130377342Y-85849967D01*
X130377345Y-85849968D01*
X130377350Y-85849969D01*
X130556596Y-85870165D01*
X130556600Y-85870165D01*
X130556604Y-85870165D01*
X130735849Y-85849969D01*
X130735852Y-85849968D01*
X130735855Y-85849968D01*
X130906122Y-85790389D01*
X131058862Y-85694416D01*
X131186416Y-85566862D01*
X131282389Y-85414122D01*
X131341968Y-85243855D01*
X131350489Y-85168230D01*
X131362165Y-85064603D01*
X131362165Y-85064596D01*
X131341969Y-84885350D01*
X131341968Y-84885345D01*
X131282389Y-84715078D01*
X131186416Y-84562338D01*
X131141359Y-84517281D01*
X131107874Y-84455958D01*
X131112858Y-84386266D01*
X131141359Y-84341919D01*
X131144467Y-84338811D01*
X131186416Y-84296862D01*
X131282389Y-84144122D01*
X131341968Y-83973855D01*
X131362165Y-83794600D01*
X131341968Y-83615345D01*
X131282389Y-83445078D01*
X131186416Y-83292338D01*
X131058862Y-83164784D01*
X130906123Y-83068811D01*
X130735854Y-83009231D01*
X130735849Y-83009230D01*
X130556604Y-82989035D01*
X130556596Y-82989035D01*
X130377350Y-83009230D01*
X130377345Y-83009231D01*
X130207076Y-83068811D01*
X130054336Y-83164785D01*
X130051503Y-83167045D01*
X130049324Y-83167934D01*
X130048442Y-83168489D01*
X130048344Y-83168334D01*
X129986817Y-83193455D01*
X129974188Y-83194100D01*
X126540087Y-83194100D01*
X126523902Y-83193039D01*
X126492600Y-83188918D01*
X126453239Y-83194100D01*
X126335839Y-83209555D01*
X126335837Y-83209556D01*
X126189757Y-83270064D01*
X126064318Y-83366316D01*
X126045089Y-83391375D01*
X126034398Y-83403565D01*
X124798565Y-84639398D01*
X124786375Y-84650089D01*
X124761320Y-84669315D01*
X124761318Y-84669318D01*
X124691241Y-84760644D01*
X124691240Y-84760644D01*
X124665064Y-84794757D01*
X124604556Y-84940837D01*
X124604555Y-84940839D01*
X124583918Y-85097598D01*
X124583918Y-85097599D01*
X124588039Y-85128901D01*
X124589100Y-85145087D01*
X124589100Y-89604062D01*
X124569415Y-89671101D01*
X124536224Y-89705636D01*
X124419771Y-89787178D01*
X124380143Y-89814926D01*
X124380141Y-89814927D01*
X124224927Y-89970141D01*
X124224922Y-89970147D01*
X124099023Y-90149949D01*
X124099019Y-90149957D01*
X124006255Y-90348891D01*
X123949439Y-90560924D01*
X123949438Y-90560931D01*
X123930308Y-90779597D01*
X123930308Y-90779600D01*
X117822100Y-90779600D01*
X117822100Y-78079602D01*
X123930308Y-78079602D01*
X123947123Y-78271809D01*
X123949439Y-78298274D01*
X124006253Y-78510303D01*
X124006254Y-78510306D01*
X124006255Y-78510308D01*
X124099019Y-78709242D01*
X124099023Y-78709250D01*
X124224922Y-78889052D01*
X124224927Y-78889058D01*
X124380141Y-79044272D01*
X124380147Y-79044277D01*
X124559949Y-79170176D01*
X124559951Y-79170177D01*
X124559954Y-79170179D01*
X124758897Y-79262947D01*
X124970926Y-79319761D01*
X125127121Y-79333426D01*
X125189598Y-79338892D01*
X125189600Y-79338892D01*
X125189602Y-79338892D01*
X125244268Y-79334109D01*
X125408274Y-79319761D01*
X125620303Y-79262947D01*
X125819246Y-79170179D01*
X125999057Y-79044274D01*
X126154274Y-78889057D01*
X126280179Y-78709246D01*
X126372947Y-78510303D01*
X126429761Y-78298274D01*
X126448892Y-78079600D01*
X126446847Y-78056230D01*
X126429761Y-77860931D01*
X126429761Y-77860926D01*
X126372947Y-77648897D01*
X126280179Y-77449954D01*
X126280177Y-77449951D01*
X126280176Y-77449949D01*
X126154277Y-77270147D01*
X126154272Y-77270141D01*
X125999058Y-77114927D01*
X125999052Y-77114922D01*
X125819250Y-76989023D01*
X125819242Y-76989019D01*
X125620308Y-76896255D01*
X125620306Y-76896254D01*
X125620303Y-76896253D01*
X125468064Y-76855460D01*
X125408275Y-76839439D01*
X125408268Y-76839438D01*
X125189602Y-76820308D01*
X125189598Y-76820308D01*
X124970931Y-76839438D01*
X124970924Y-76839439D01*
X124848502Y-76872242D01*
X124758897Y-76896253D01*
X124758895Y-76896253D01*
X124758891Y-76896255D01*
X124559957Y-76989019D01*
X124559949Y-76989023D01*
X124380147Y-77114922D01*
X124380141Y-77114927D01*
X124224927Y-77270141D01*
X124224922Y-77270147D01*
X124099023Y-77449949D01*
X124099019Y-77449957D01*
X124006255Y-77648891D01*
X123949439Y-77860924D01*
X123949438Y-77860931D01*
X123930308Y-78079597D01*
X123930308Y-78079602D01*
X117822100Y-78079602D01*
X117822100Y-74063087D01*
X117823161Y-74046901D01*
X117825464Y-74029408D01*
X117827282Y-74015600D01*
X117824866Y-73997252D01*
X117806644Y-73858839D01*
X117806644Y-73858838D01*
X117746136Y-73712759D01*
X117727982Y-73689100D01*
X117649882Y-73587318D01*
X117649880Y-73587316D01*
X117649879Y-73587315D01*
X117624828Y-73568093D01*
X117612634Y-73557399D01*
X117435837Y-73380602D01*
X123930308Y-73380602D01*
X123948392Y-73587315D01*
X123949439Y-73599274D01*
X124006253Y-73811303D01*
X124006254Y-73811306D01*
X124006255Y-73811308D01*
X124099019Y-74010242D01*
X124099023Y-74010250D01*
X124224922Y-74190052D01*
X124224927Y-74190058D01*
X124380141Y-74345272D01*
X124380147Y-74345277D01*
X124559949Y-74471176D01*
X124559951Y-74471177D01*
X124559954Y-74471179D01*
X124758897Y-74563947D01*
X124970926Y-74620761D01*
X125127121Y-74634426D01*
X125189598Y-74639892D01*
X125189600Y-74639892D01*
X125189602Y-74639892D01*
X125244268Y-74635109D01*
X125408274Y-74620761D01*
X125620303Y-74563947D01*
X125819246Y-74471179D01*
X125999057Y-74345274D01*
X126154274Y-74190057D01*
X126280179Y-74010246D01*
X126372947Y-73811303D01*
X126429761Y-73599274D01*
X126448892Y-73380600D01*
X126429761Y-73161926D01*
X126372947Y-72949897D01*
X126280179Y-72750954D01*
X126280177Y-72750951D01*
X126280176Y-72750949D01*
X126154277Y-72571147D01*
X126154272Y-72571141D01*
X125999058Y-72415927D01*
X125999057Y-72415926D01*
X125842975Y-72306636D01*
X125799352Y-72252060D01*
X125790100Y-72205062D01*
X125790100Y-71475603D01*
X131148035Y-71475603D01*
X131168230Y-71654849D01*
X131168231Y-71654854D01*
X131227811Y-71825123D01*
X131286202Y-71918051D01*
X131323784Y-71977862D01*
X131451338Y-72105416D01*
X131514495Y-72145100D01*
X131597498Y-72197255D01*
X131604078Y-72201389D01*
X131764034Y-72257360D01*
X131774345Y-72260968D01*
X131774350Y-72260969D01*
X131953596Y-72281165D01*
X131953600Y-72281165D01*
X131953604Y-72281165D01*
X132132849Y-72260969D01*
X132132852Y-72260968D01*
X132132855Y-72260968D01*
X132303122Y-72201389D01*
X132455862Y-72105416D01*
X132583416Y-71977862D01*
X132679389Y-71825122D01*
X132738968Y-71654855D01*
X132748761Y-71567929D01*
X132775826Y-71503518D01*
X132784290Y-71494143D01*
X135782135Y-68496298D01*
X135843456Y-68462815D01*
X135855911Y-68460763D01*
X135942855Y-68450968D01*
X136113122Y-68391389D01*
X136265862Y-68295416D01*
X136393416Y-68167862D01*
X136489389Y-68015122D01*
X136548968Y-67844855D01*
X136548969Y-67844849D01*
X136569165Y-67665603D01*
X136569165Y-67665596D01*
X136548969Y-67486350D01*
X136548968Y-67486345D01*
X136539903Y-67460439D01*
X136489389Y-67316078D01*
X136393416Y-67163338D01*
X136265862Y-67035784D01*
X136257612Y-67030600D01*
X136113123Y-66939811D01*
X135942854Y-66880231D01*
X135942849Y-66880230D01*
X135763604Y-66860035D01*
X135763596Y-66860035D01*
X135584350Y-66880230D01*
X135584345Y-66880231D01*
X135414076Y-66939811D01*
X135261337Y-67035784D01*
X135133784Y-67163337D01*
X135037810Y-67316078D01*
X134978230Y-67486350D01*
X134968437Y-67573268D01*
X134941370Y-67637682D01*
X134932898Y-67647065D01*
X131935065Y-70644898D01*
X131873742Y-70678383D01*
X131861268Y-70680437D01*
X131774350Y-70690230D01*
X131604078Y-70749810D01*
X131451337Y-70845784D01*
X131323784Y-70973337D01*
X131227811Y-71126076D01*
X131168231Y-71296345D01*
X131168230Y-71296350D01*
X131148035Y-71475596D01*
X131148035Y-71475603D01*
X125790100Y-71475603D01*
X125790100Y-67998697D01*
X125809785Y-67931658D01*
X125826419Y-67911016D01*
X126705016Y-67032419D01*
X126766339Y-66998934D01*
X126792697Y-66996100D01*
X129807505Y-66996100D01*
X129874544Y-67015785D01*
X129920299Y-67068589D01*
X129930243Y-67137747D01*
X129912499Y-67186072D01*
X129830811Y-67316076D01*
X129771231Y-67486345D01*
X129771230Y-67486350D01*
X129751035Y-67665596D01*
X129751035Y-67665603D01*
X129771230Y-67844849D01*
X129771231Y-67844854D01*
X129830811Y-68015123D01*
X129875322Y-68085961D01*
X129926784Y-68167862D01*
X130054338Y-68295416D01*
X130207078Y-68391389D01*
X130377342Y-68450967D01*
X130377345Y-68450968D01*
X130377350Y-68450969D01*
X130556596Y-68471165D01*
X130556600Y-68471165D01*
X130556604Y-68471165D01*
X130735849Y-68450969D01*
X130735852Y-68450968D01*
X130735855Y-68450968D01*
X130906122Y-68391389D01*
X131058862Y-68295416D01*
X131186416Y-68167862D01*
X131282389Y-68015122D01*
X131341968Y-67844855D01*
X131341969Y-67844849D01*
X131362165Y-67665603D01*
X131362165Y-67665596D01*
X131341969Y-67486350D01*
X131341968Y-67486345D01*
X131332903Y-67460439D01*
X131282389Y-67316078D01*
X131186416Y-67163338D01*
X131141359Y-67118281D01*
X131107874Y-67056958D01*
X131112858Y-66987266D01*
X131141359Y-66942919D01*
X131144467Y-66939811D01*
X131186416Y-66897862D01*
X131282389Y-66745122D01*
X131341968Y-66574855D01*
X131341969Y-66574849D01*
X131362165Y-66395603D01*
X131362165Y-66395596D01*
X131341969Y-66216350D01*
X131341968Y-66216345D01*
X131331743Y-66187123D01*
X131282389Y-66046078D01*
X131282109Y-66045633D01*
X131232901Y-65967318D01*
X131186416Y-65893338D01*
X131058862Y-65765784D01*
X131022594Y-65742995D01*
X130906123Y-65669811D01*
X130735854Y-65610231D01*
X130735849Y-65610230D01*
X130556604Y-65590035D01*
X130556596Y-65590035D01*
X130377350Y-65610230D01*
X130377345Y-65610231D01*
X130207076Y-65669811D01*
X130054336Y-65765785D01*
X130051503Y-65768045D01*
X130049324Y-65768934D01*
X130048442Y-65769489D01*
X130048344Y-65769334D01*
X129986817Y-65794455D01*
X129974188Y-65795100D01*
X126540087Y-65795100D01*
X126523902Y-65794039D01*
X126492600Y-65789918D01*
X126453239Y-65795100D01*
X126335839Y-65810555D01*
X126335837Y-65810556D01*
X126189757Y-65871064D01*
X126064318Y-65967316D01*
X126045089Y-65992375D01*
X126034398Y-66004565D01*
X124798565Y-67240398D01*
X124786375Y-67251089D01*
X124761316Y-67270318D01*
X124665064Y-67395757D01*
X124604556Y-67541837D01*
X124604555Y-67541839D01*
X124583918Y-67698598D01*
X124583918Y-67698599D01*
X124588039Y-67729901D01*
X124589100Y-67746087D01*
X124589100Y-72205062D01*
X124569415Y-72272101D01*
X124536224Y-72306637D01*
X124380143Y-72415926D01*
X124380141Y-72415927D01*
X124224927Y-72571141D01*
X124224922Y-72571147D01*
X124099023Y-72750949D01*
X124099019Y-72750957D01*
X124006255Y-72949891D01*
X124006253Y-72949895D01*
X124006253Y-72949897D01*
X123986959Y-73021901D01*
X123949439Y-73161924D01*
X123949438Y-73161931D01*
X123930308Y-73380597D01*
X123930308Y-73380602D01*
X117435837Y-73380602D01*
X117044799Y-72989564D01*
X117034103Y-72977367D01*
X117014886Y-72952322D01*
X117014883Y-72952320D01*
X117014882Y-72952318D01*
X116889441Y-72856064D01*
X116837330Y-72834479D01*
X116743362Y-72795556D01*
X116743360Y-72795555D01*
X116675000Y-72786556D01*
X116586601Y-72774918D01*
X116586600Y-72774918D01*
X116555297Y-72779039D01*
X116539113Y-72780100D01*
X116365138Y-72780100D01*
X116298099Y-72760415D01*
X116263563Y-72727224D01*
X116249830Y-72707611D01*
X116154274Y-72571143D01*
X115999057Y-72415926D01*
X115999055Y-72415925D01*
X115999052Y-72415922D01*
X115819250Y-72290023D01*
X115819242Y-72290019D01*
X115620308Y-72197255D01*
X115620306Y-72197254D01*
X115620303Y-72197253D01*
X115425669Y-72145100D01*
X115408275Y-72140439D01*
X115408268Y-72140438D01*
X115189602Y-72121308D01*
X115189598Y-72121308D01*
X114970931Y-72140438D01*
X114970924Y-72140439D01*
X114848502Y-72173242D01*
X114758897Y-72197253D01*
X114758895Y-72197253D01*
X114758891Y-72197255D01*
X114559957Y-72290019D01*
X114559949Y-72290023D01*
X114380147Y-72415922D01*
X114380141Y-72415927D01*
X114224927Y-72571141D01*
X114224922Y-72571147D01*
X114099023Y-72750949D01*
X114099019Y-72750957D01*
X114006255Y-72949891D01*
X114006253Y-72949895D01*
X114006253Y-72949897D01*
X113986959Y-73021901D01*
X113949439Y-73161924D01*
X113949438Y-73161931D01*
X113930308Y-73380597D01*
X113930308Y-73380602D01*
X113948392Y-73587315D01*
X113949439Y-73599274D01*
X114006253Y-73811303D01*
X114006254Y-73811306D01*
X114006255Y-73811308D01*
X114099019Y-74010242D01*
X114099023Y-74010250D01*
X114224922Y-74190052D01*
X114224927Y-74190058D01*
X114380141Y-74345272D01*
X114380147Y-74345277D01*
X114559949Y-74471176D01*
X114559951Y-74471177D01*
X114559954Y-74471179D01*
X114758897Y-74563947D01*
X114970926Y-74620761D01*
X115127121Y-74634426D01*
X115189598Y-74639892D01*
X115189600Y-74639892D01*
X115189602Y-74639892D01*
X115244268Y-74635109D01*
X115408274Y-74620761D01*
X115620303Y-74563947D01*
X115819246Y-74471179D01*
X115999057Y-74345274D01*
X116154274Y-74190057D01*
X116231178Y-74080227D01*
X116285755Y-74036602D01*
X116355253Y-74029408D01*
X116417608Y-74060931D01*
X116420434Y-74063669D01*
X116584781Y-74228016D01*
X116618266Y-74289339D01*
X116621100Y-74315697D01*
X116621100Y-77633144D01*
X116601415Y-77700183D01*
X116548611Y-77745938D01*
X116479453Y-77755882D01*
X116415897Y-77726857D01*
X116378123Y-77668079D01*
X116377326Y-77665239D01*
X116372946Y-77648895D01*
X116280180Y-77449957D01*
X116280179Y-77449954D01*
X116280177Y-77449951D01*
X116280176Y-77449949D01*
X116154277Y-77270147D01*
X116154272Y-77270141D01*
X115999058Y-77114927D01*
X115999052Y-77114922D01*
X115819250Y-76989023D01*
X115819242Y-76989019D01*
X115620308Y-76896255D01*
X115620306Y-76896254D01*
X115620303Y-76896253D01*
X115468064Y-76855460D01*
X115408275Y-76839439D01*
X115408268Y-76839438D01*
X115189602Y-76820308D01*
X115189598Y-76820308D01*
X114970931Y-76839438D01*
X114970924Y-76839439D01*
X114848502Y-76872242D01*
X114758897Y-76896253D01*
X114758895Y-76896253D01*
X114758891Y-76896255D01*
X114559957Y-76989019D01*
X114559949Y-76989023D01*
X114380147Y-77114922D01*
X114380141Y-77114927D01*
X114224927Y-77270141D01*
X114224922Y-77270147D01*
X114099023Y-77449949D01*
X114099019Y-77449957D01*
X114006255Y-77648891D01*
X113949439Y-77860924D01*
X113949438Y-77860931D01*
X113930308Y-78079597D01*
X113930308Y-78079602D01*
X113947123Y-78271809D01*
X113949439Y-78298274D01*
X114006253Y-78510303D01*
X114006254Y-78510306D01*
X114006255Y-78510308D01*
X114099019Y-78709242D01*
X114099023Y-78709250D01*
X114224922Y-78889052D01*
X114224927Y-78889058D01*
X114380141Y-79044272D01*
X114380147Y-79044277D01*
X114559949Y-79170176D01*
X114559951Y-79170177D01*
X114559954Y-79170179D01*
X114758897Y-79262947D01*
X114970926Y-79319761D01*
X115127121Y-79333426D01*
X115189598Y-79338892D01*
X115189600Y-79338892D01*
X115189602Y-79338892D01*
X115244268Y-79334109D01*
X115408274Y-79319761D01*
X115620303Y-79262947D01*
X115819246Y-79170179D01*
X115999057Y-79044274D01*
X116154274Y-78889057D01*
X116280179Y-78709246D01*
X116372947Y-78510303D01*
X116377326Y-78493958D01*
X116413690Y-78434301D01*
X116476537Y-78403772D01*
X116545913Y-78412067D01*
X116599791Y-78456552D01*
X116621065Y-78523104D01*
X116621100Y-78526055D01*
X116621100Y-90055100D01*
X116601415Y-90122139D01*
X116548611Y-90167894D01*
X116497100Y-90179100D01*
X116365138Y-90179100D01*
X116298099Y-90159415D01*
X116263563Y-90126224D01*
X116260703Y-90122139D01*
X116154274Y-89970143D01*
X115999057Y-89814926D01*
X115999055Y-89814925D01*
X115999052Y-89814922D01*
X115819250Y-89689023D01*
X115819242Y-89689019D01*
X115620308Y-89596255D01*
X115620306Y-89596254D01*
X115620303Y-89596253D01*
X115435462Y-89546724D01*
X115408275Y-89539439D01*
X115408268Y-89539438D01*
X115189602Y-89520308D01*
X115189598Y-89520308D01*
X114970931Y-89539438D01*
X114970924Y-89539439D01*
X114848502Y-89572242D01*
X114758897Y-89596253D01*
X114758895Y-89596253D01*
X114758891Y-89596255D01*
X114559957Y-89689019D01*
X114559949Y-89689023D01*
X114380147Y-89814922D01*
X114380141Y-89814927D01*
X114224927Y-89970141D01*
X114224922Y-89970147D01*
X114099023Y-90149949D01*
X114099019Y-90149957D01*
X114006255Y-90348891D01*
X113949439Y-90560924D01*
X113949438Y-90560931D01*
X113930308Y-90779597D01*
X113930308Y-90779600D01*
X113949439Y-90998274D01*
X114006253Y-91210303D01*
X114006254Y-91210306D01*
X114006255Y-91210308D01*
X114099019Y-91409242D01*
X114099023Y-91409250D01*
X114224922Y-91589052D01*
X114224927Y-91589058D01*
X114380141Y-91744272D01*
X114380147Y-91744277D01*
X114559949Y-91870176D01*
X114559951Y-91870177D01*
X114559954Y-91870179D01*
X114758897Y-91962947D01*
X114970926Y-92019761D01*
X115127121Y-92033426D01*
X115189598Y-92038892D01*
X115189600Y-92038892D01*
X115189602Y-92038892D01*
X115244268Y-92034109D01*
X115408274Y-92019761D01*
X115620303Y-91962947D01*
X115819246Y-91870179D01*
X115999057Y-91744274D01*
X116154274Y-91589057D01*
X116231178Y-91479227D01*
X116285755Y-91435602D01*
X116355253Y-91428408D01*
X116417608Y-91459931D01*
X116420434Y-91462669D01*
X116584781Y-91627016D01*
X116618266Y-91688339D01*
X116621100Y-91714697D01*
X116621100Y-95032144D01*
X116601415Y-95099183D01*
X116548611Y-95144938D01*
X116479453Y-95154882D01*
X116415897Y-95125857D01*
X116378123Y-95067079D01*
X116377326Y-95064239D01*
X116372946Y-95047895D01*
X116280180Y-94848957D01*
X116280179Y-94848954D01*
X116280177Y-94848951D01*
X116280176Y-94848949D01*
X116154277Y-94669147D01*
X116154272Y-94669141D01*
X115999058Y-94513927D01*
X115999052Y-94513922D01*
X115819250Y-94388023D01*
X115819242Y-94388019D01*
X115620308Y-94295255D01*
X115620306Y-94295254D01*
X115620303Y-94295253D01*
X115469485Y-94254840D01*
X115408275Y-94238439D01*
X115408268Y-94238438D01*
X115189602Y-94219308D01*
X115189598Y-94219308D01*
X114970931Y-94238438D01*
X114970924Y-94238439D01*
X114848502Y-94271242D01*
X114758897Y-94295253D01*
X114758895Y-94295253D01*
X114758891Y-94295255D01*
X114559957Y-94388019D01*
X114559949Y-94388023D01*
X114380147Y-94513922D01*
X114380141Y-94513927D01*
X114224927Y-94669141D01*
X114224922Y-94669147D01*
X114099023Y-94848949D01*
X114099019Y-94848957D01*
X114006255Y-95047891D01*
X113949439Y-95259924D01*
X113949438Y-95259931D01*
X113930308Y-95478597D01*
X113930308Y-95478600D01*
X113949439Y-95697274D01*
X114006253Y-95909303D01*
X114006254Y-95909306D01*
X114006255Y-95909308D01*
X114099019Y-96108242D01*
X114099023Y-96108250D01*
X114224922Y-96288052D01*
X114224927Y-96288058D01*
X114380141Y-96443272D01*
X114380147Y-96443277D01*
X114559949Y-96569176D01*
X114559951Y-96569177D01*
X114559954Y-96569179D01*
X114758897Y-96661947D01*
X114970926Y-96718761D01*
X115127121Y-96732426D01*
X115189598Y-96737892D01*
X115189600Y-96737892D01*
X115189602Y-96737892D01*
X115244268Y-96733109D01*
X115408274Y-96718761D01*
X115620303Y-96661947D01*
X115819246Y-96569179D01*
X115999057Y-96443274D01*
X116154274Y-96288057D01*
X116280179Y-96108246D01*
X116372947Y-95909303D01*
X116377326Y-95892958D01*
X116413690Y-95833301D01*
X116476537Y-95802772D01*
X116545913Y-95811067D01*
X116599791Y-95855552D01*
X116621065Y-95922104D01*
X116621100Y-95925055D01*
X116621100Y-107454100D01*
X116601415Y-107521139D01*
X116548611Y-107566894D01*
X116497100Y-107578100D01*
X116365138Y-107578100D01*
X116298099Y-107558415D01*
X116263563Y-107525224D01*
X116260703Y-107521139D01*
X116154274Y-107369143D01*
X115999057Y-107213926D01*
X115999055Y-107213925D01*
X115999052Y-107213922D01*
X115819250Y-107088023D01*
X115819242Y-107088019D01*
X115620308Y-106995255D01*
X115620306Y-106995254D01*
X115620303Y-106995253D01*
X115469485Y-106954840D01*
X115408275Y-106938439D01*
X115408268Y-106938438D01*
X115189602Y-106919308D01*
X115189598Y-106919308D01*
X114970931Y-106938438D01*
X114970924Y-106938439D01*
X114848502Y-106971242D01*
X114758897Y-106995253D01*
X114758895Y-106995253D01*
X114758891Y-106995255D01*
X114559957Y-107088019D01*
X114559949Y-107088023D01*
X114380147Y-107213922D01*
X114380141Y-107213927D01*
X114224927Y-107369141D01*
X114224922Y-107369147D01*
X114099023Y-107548949D01*
X114099019Y-107548957D01*
X114006255Y-107747891D01*
X113949439Y-107959924D01*
X113949438Y-107959931D01*
X113930308Y-108178597D01*
X113930308Y-108178600D01*
X109561835Y-108178600D01*
X108714419Y-107331184D01*
X108680934Y-107269861D01*
X108678100Y-107243503D01*
X108678100Y-100379012D01*
X108697785Y-100311973D01*
X108705155Y-100301697D01*
X108707410Y-100298867D01*
X108707416Y-100298862D01*
X108803389Y-100146122D01*
X108862968Y-99975855D01*
X108865309Y-99955078D01*
X108883165Y-99796603D01*
X108883165Y-99796596D01*
X108862969Y-99617350D01*
X108862968Y-99617345D01*
X108825209Y-99509437D01*
X108803389Y-99447078D01*
X108707416Y-99294338D01*
X108579862Y-99166784D01*
X108546490Y-99145815D01*
X108427123Y-99070811D01*
X108256854Y-99011231D01*
X108256849Y-99011230D01*
X108077604Y-98991035D01*
X108077603Y-98991035D01*
X108077601Y-98991035D01*
X108077600Y-98991035D01*
X108060274Y-98992987D01*
X108053981Y-98993696D01*
X107985159Y-98981639D01*
X107933781Y-98934289D01*
X107916100Y-98870475D01*
X107916100Y-83332696D01*
X107935785Y-83265657D01*
X107952410Y-83245024D01*
X108096136Y-83101297D01*
X108157455Y-83067815D01*
X108169911Y-83065763D01*
X108256855Y-83055968D01*
X108427122Y-82996389D01*
X108579862Y-82900416D01*
X108707416Y-82772862D01*
X108803389Y-82620122D01*
X108862968Y-82449855D01*
X108865926Y-82423603D01*
X108883165Y-82270603D01*
X108883165Y-82270596D01*
X108862969Y-82091350D01*
X108862968Y-82091345D01*
X108847828Y-82048078D01*
X108803389Y-81921078D01*
X108801192Y-81917582D01*
X108707415Y-81768337D01*
X108579862Y-81640784D01*
X108427123Y-81544811D01*
X108256854Y-81485231D01*
X108256849Y-81485230D01*
X108077604Y-81465035D01*
X108077596Y-81465035D01*
X107898350Y-81485230D01*
X107898345Y-81485231D01*
X107728076Y-81544811D01*
X107575337Y-81640784D01*
X107447784Y-81768337D01*
X107383094Y-81871291D01*
X107330759Y-81917582D01*
X107261705Y-81928230D01*
X107197857Y-81899855D01*
X107159485Y-81841465D01*
X107154100Y-81805319D01*
X107154100Y-66822697D01*
X107173785Y-66755658D01*
X107190419Y-66735016D01*
X107639898Y-66285537D01*
X108096136Y-65829298D01*
X108157457Y-65795815D01*
X108169910Y-65793763D01*
X108256855Y-65783968D01*
X108427122Y-65724389D01*
X108579862Y-65628416D01*
X108707416Y-65500862D01*
X108803389Y-65348122D01*
X108862968Y-65177855D01*
X108865309Y-65157078D01*
X108883165Y-64998603D01*
X108883165Y-64998596D01*
X108862969Y-64819350D01*
X108862968Y-64819345D01*
X108847828Y-64776078D01*
X108803389Y-64649078D01*
X108795288Y-64636186D01*
X108707415Y-64496337D01*
X108579862Y-64368784D01*
X108427123Y-64272811D01*
X108256854Y-64213231D01*
X108256849Y-64213230D01*
X108077604Y-64193035D01*
X108077596Y-64193035D01*
X107898350Y-64213230D01*
X107898345Y-64213231D01*
X107728076Y-64272811D01*
X107575337Y-64368784D01*
X107447784Y-64496337D01*
X107351810Y-64649078D01*
X107292230Y-64819350D01*
X107282437Y-64906267D01*
X107255370Y-64970681D01*
X107246898Y-64980064D01*
X106630781Y-65596182D01*
X106569458Y-65629667D01*
X106499767Y-65624683D01*
X106443833Y-65582812D01*
X106419416Y-65517347D01*
X106419100Y-65508501D01*
X106419100Y-60680602D01*
X113930308Y-60680602D01*
X113949438Y-60899268D01*
X113949439Y-60899275D01*
X113959951Y-60938505D01*
X114006253Y-61111303D01*
X114006254Y-61111306D01*
X114006255Y-61111308D01*
X114099019Y-61310242D01*
X114099023Y-61310250D01*
X114224922Y-61490052D01*
X114224927Y-61490058D01*
X114380141Y-61645272D01*
X114380147Y-61645277D01*
X114559949Y-61771176D01*
X114559951Y-61771177D01*
X114559954Y-61771179D01*
X114758897Y-61863947D01*
X114970926Y-61920761D01*
X115127121Y-61934426D01*
X115189598Y-61939892D01*
X115189600Y-61939892D01*
X115189602Y-61939892D01*
X115244268Y-61935109D01*
X115408274Y-61920761D01*
X115620303Y-61863947D01*
X115819246Y-61771179D01*
X115999057Y-61645274D01*
X116154274Y-61490057D01*
X116280179Y-61310246D01*
X116372947Y-61111303D01*
X116429761Y-60899274D01*
X116448892Y-60680602D01*
X123930308Y-60680602D01*
X123949438Y-60899268D01*
X123949439Y-60899275D01*
X123959951Y-60938505D01*
X124006253Y-61111303D01*
X124006254Y-61111306D01*
X124006255Y-61111308D01*
X124099019Y-61310242D01*
X124099023Y-61310250D01*
X124224922Y-61490052D01*
X124224927Y-61490058D01*
X124380141Y-61645272D01*
X124380147Y-61645277D01*
X124559949Y-61771176D01*
X124559951Y-61771177D01*
X124559954Y-61771179D01*
X124758897Y-61863947D01*
X124970926Y-61920761D01*
X125127121Y-61934426D01*
X125189598Y-61939892D01*
X125189600Y-61939892D01*
X125189602Y-61939892D01*
X125244268Y-61935109D01*
X125408274Y-61920761D01*
X125620303Y-61863947D01*
X125819246Y-61771179D01*
X125999057Y-61645274D01*
X126154274Y-61490057D01*
X126263563Y-61333975D01*
X126318140Y-61290352D01*
X126365138Y-61281100D01*
X130001113Y-61281100D01*
X130017297Y-61282160D01*
X130048600Y-61286282D01*
X130048601Y-61286282D01*
X130100854Y-61279402D01*
X130205362Y-61265644D01*
X130351441Y-61205136D01*
X130444301Y-61133882D01*
X130476882Y-61108882D01*
X130496110Y-61083822D01*
X130506789Y-61071644D01*
X132500922Y-59077512D01*
X132562241Y-59044030D01*
X132631933Y-59049014D01*
X132676279Y-59077514D01*
X133673682Y-60074918D01*
X134670403Y-61071639D01*
X134681097Y-61083833D01*
X134700317Y-61108881D01*
X134728583Y-61130570D01*
X134728603Y-61130587D01*
X134825757Y-61205135D01*
X134825758Y-61205135D01*
X134825759Y-61205136D01*
X134971838Y-61265644D01*
X135050219Y-61275963D01*
X135128599Y-61286282D01*
X135128600Y-61286282D01*
X135159902Y-61282160D01*
X135176087Y-61281100D01*
X136860503Y-61281100D01*
X136927542Y-61300785D01*
X136948184Y-61317419D01*
X140393898Y-64763133D01*
X140427383Y-64824456D01*
X140429437Y-64836930D01*
X140439230Y-64923849D01*
X140498810Y-65094121D01*
X140538369Y-65157078D01*
X140594784Y-65246862D01*
X140722338Y-65374416D01*
X140875078Y-65470389D01*
X140983996Y-65508501D01*
X141045345Y-65529968D01*
X141045350Y-65529969D01*
X141224596Y-65550165D01*
X141224600Y-65550165D01*
X141224604Y-65550165D01*
X141403849Y-65529969D01*
X141403852Y-65529968D01*
X141403855Y-65529968D01*
X141574122Y-65470389D01*
X141726862Y-65374416D01*
X141854416Y-65246862D01*
X141950389Y-65094122D01*
X142009968Y-64923855D01*
X142019762Y-64836930D01*
X142030165Y-64744603D01*
X142030165Y-64744596D01*
X142009969Y-64565350D01*
X142009968Y-64565345D01*
X141985821Y-64496337D01*
X141950389Y-64395078D01*
X141933867Y-64368784D01*
X141872488Y-64271100D01*
X141854416Y-64242338D01*
X141726862Y-64114784D01*
X141599656Y-64034855D01*
X141574121Y-64018810D01*
X141403849Y-63959230D01*
X141316930Y-63949437D01*
X141252516Y-63922370D01*
X141243133Y-63913898D01*
X139508937Y-62179702D01*
X139475452Y-62118379D01*
X139480436Y-62048687D01*
X139508933Y-62004344D01*
X139568416Y-61944862D01*
X139664389Y-61792122D01*
X139723968Y-61621855D01*
X139729209Y-61575338D01*
X139744165Y-61442603D01*
X139744165Y-61442596D01*
X139723969Y-61263350D01*
X139723968Y-61263345D01*
X139680565Y-61139307D01*
X139664389Y-61093078D01*
X139568416Y-60940338D01*
X139568414Y-60940336D01*
X139568413Y-60940334D01*
X139566150Y-60937496D01*
X139565259Y-60935315D01*
X139564711Y-60934442D01*
X139564864Y-60934345D01*
X139539744Y-60872809D01*
X139539100Y-60860187D01*
X139539100Y-58950087D01*
X139540161Y-58933901D01*
X139544282Y-58902600D01*
X139544282Y-58902598D01*
X139523644Y-58745839D01*
X139523644Y-58745838D01*
X139463136Y-58599759D01*
X139429897Y-58556441D01*
X139429896Y-58556439D01*
X139366881Y-58474317D01*
X139341828Y-58455093D01*
X139329634Y-58444399D01*
X138747799Y-57862564D01*
X138737104Y-57850369D01*
X138717883Y-57825319D01*
X138717882Y-57825318D01*
X138592441Y-57729064D01*
X138446362Y-57668556D01*
X138446360Y-57668555D01*
X138328961Y-57653100D01*
X138289600Y-57647918D01*
X138258297Y-57652039D01*
X138242113Y-57653100D01*
X138124012Y-57653100D01*
X138056973Y-57633415D01*
X138046697Y-57626045D01*
X138043863Y-57623785D01*
X138043862Y-57623784D01*
X137920175Y-57546066D01*
X137891123Y-57527811D01*
X137720854Y-57468231D01*
X137720849Y-57468230D01*
X137541604Y-57448035D01*
X137541596Y-57448035D01*
X137362350Y-57468230D01*
X137362345Y-57468231D01*
X137192076Y-57527811D01*
X137039336Y-57623785D01*
X137036503Y-57626045D01*
X137034324Y-57626934D01*
X137033442Y-57627489D01*
X137033344Y-57627334D01*
X136971817Y-57652455D01*
X136959188Y-57653100D01*
X134427012Y-57653100D01*
X134359973Y-57633415D01*
X134349697Y-57626045D01*
X134346863Y-57623785D01*
X134346862Y-57623784D01*
X134223175Y-57546066D01*
X134194123Y-57527811D01*
X134023854Y-57468231D01*
X134023849Y-57468230D01*
X133844604Y-57448035D01*
X133844596Y-57448035D01*
X133665350Y-57468230D01*
X133665345Y-57468231D01*
X133495076Y-57527811D01*
X133379072Y-57600702D01*
X133311835Y-57619702D01*
X133245000Y-57599334D01*
X133199786Y-57546066D01*
X133189100Y-57495708D01*
X133189100Y-53897012D01*
X133208785Y-53829973D01*
X133216155Y-53819697D01*
X133218410Y-53816867D01*
X133218416Y-53816862D01*
X133314389Y-53664122D01*
X133373968Y-53493855D01*
X133373969Y-53493849D01*
X133394165Y-53314603D01*
X136736035Y-53314603D01*
X136756230Y-53493849D01*
X136756231Y-53493854D01*
X136815811Y-53664123D01*
X136887128Y-53777622D01*
X136911784Y-53816862D01*
X137039338Y-53944416D01*
X137083260Y-53972014D01*
X137180854Y-54033337D01*
X137192078Y-54040389D01*
X137315348Y-54083523D01*
X137362345Y-54099968D01*
X137362350Y-54099969D01*
X137541596Y-54120165D01*
X137541600Y-54120165D01*
X137541604Y-54120165D01*
X137720849Y-54099969D01*
X137720852Y-54099968D01*
X137720855Y-54099968D01*
X137891122Y-54040389D01*
X138043862Y-53944416D01*
X138171416Y-53816862D01*
X138267389Y-53664122D01*
X138326968Y-53493855D01*
X138326969Y-53493849D01*
X138347165Y-53314603D01*
X138347165Y-53314596D01*
X138326969Y-53135350D01*
X138326968Y-53135345D01*
X138307104Y-53078576D01*
X138267389Y-52965078D01*
X138171416Y-52812338D01*
X138043862Y-52684784D01*
X138005477Y-52660665D01*
X137891123Y-52588811D01*
X137720854Y-52529231D01*
X137720849Y-52529230D01*
X137541604Y-52509035D01*
X137541596Y-52509035D01*
X137362350Y-52529230D01*
X137362345Y-52529231D01*
X137192076Y-52588811D01*
X137039337Y-52684784D01*
X136911784Y-52812337D01*
X136815811Y-52965076D01*
X136756231Y-53135345D01*
X136756230Y-53135350D01*
X136736035Y-53314596D01*
X136736035Y-53314603D01*
X133394165Y-53314603D01*
X133394165Y-53314596D01*
X133373969Y-53135350D01*
X133373968Y-53135345D01*
X133354104Y-53078576D01*
X133314389Y-52965078D01*
X133218416Y-52812338D01*
X133090862Y-52684784D01*
X133052477Y-52660665D01*
X132938123Y-52588811D01*
X132767854Y-52529231D01*
X132767849Y-52529230D01*
X132588604Y-52509035D01*
X132588596Y-52509035D01*
X132409350Y-52529230D01*
X132409345Y-52529231D01*
X132239076Y-52588811D01*
X132086337Y-52684784D01*
X131958784Y-52812337D01*
X131862811Y-52965076D01*
X131803231Y-53135345D01*
X131803230Y-53135350D01*
X131783035Y-53314596D01*
X131783035Y-53314603D01*
X131803230Y-53493849D01*
X131803231Y-53493854D01*
X131862811Y-53664123D01*
X131923115Y-53760096D01*
X131956440Y-53813132D01*
X131958785Y-53816863D01*
X131961045Y-53819697D01*
X131961934Y-53821875D01*
X131962489Y-53822758D01*
X131962334Y-53822855D01*
X131987455Y-53884383D01*
X131988100Y-53897012D01*
X131988100Y-57840502D01*
X131968415Y-57907541D01*
X131951781Y-57928183D01*
X129836184Y-60043781D01*
X129774861Y-60077266D01*
X129748503Y-60080100D01*
X126365138Y-60080100D01*
X126298099Y-60060415D01*
X126263563Y-60027224D01*
X126241278Y-59995398D01*
X126154274Y-59871143D01*
X125999057Y-59715926D01*
X125999055Y-59715925D01*
X125999052Y-59715922D01*
X125819250Y-59590023D01*
X125819242Y-59590019D01*
X125620308Y-59497255D01*
X125620306Y-59497254D01*
X125620303Y-59497253D01*
X125461705Y-59454756D01*
X125408275Y-59440439D01*
X125408268Y-59440438D01*
X125189602Y-59421308D01*
X125189598Y-59421308D01*
X124970931Y-59440438D01*
X124970924Y-59440439D01*
X124848502Y-59473242D01*
X124758897Y-59497253D01*
X124758895Y-59497253D01*
X124758891Y-59497255D01*
X124559957Y-59590019D01*
X124559949Y-59590023D01*
X124380147Y-59715922D01*
X124380141Y-59715927D01*
X124224927Y-59871141D01*
X124224922Y-59871147D01*
X124099023Y-60050949D01*
X124099019Y-60050957D01*
X124006255Y-60249891D01*
X124006253Y-60249895D01*
X124006253Y-60249897D01*
X123997165Y-60283815D01*
X123949439Y-60461924D01*
X123949438Y-60461931D01*
X123930308Y-60680597D01*
X123930308Y-60680602D01*
X116448892Y-60680602D01*
X116448892Y-60680600D01*
X116429761Y-60461926D01*
X116372947Y-60249897D01*
X116280179Y-60050954D01*
X116280177Y-60050951D01*
X116280176Y-60050949D01*
X116154277Y-59871147D01*
X116154272Y-59871141D01*
X115999058Y-59715927D01*
X115999052Y-59715922D01*
X115819250Y-59590023D01*
X115819242Y-59590019D01*
X115620308Y-59497255D01*
X115620306Y-59497254D01*
X115620303Y-59497253D01*
X115461705Y-59454756D01*
X115408275Y-59440439D01*
X115408268Y-59440438D01*
X115189602Y-59421308D01*
X115189598Y-59421308D01*
X114970931Y-59440438D01*
X114970924Y-59440439D01*
X114848502Y-59473242D01*
X114758897Y-59497253D01*
X114758895Y-59497253D01*
X114758891Y-59497255D01*
X114559957Y-59590019D01*
X114559949Y-59590023D01*
X114380147Y-59715922D01*
X114380141Y-59715927D01*
X114224927Y-59871141D01*
X114224922Y-59871147D01*
X114099023Y-60050949D01*
X114099019Y-60050957D01*
X114006255Y-60249891D01*
X114006253Y-60249895D01*
X114006253Y-60249897D01*
X113997165Y-60283815D01*
X113949439Y-60461924D01*
X113949438Y-60461931D01*
X113930308Y-60680597D01*
X113930308Y-60680602D01*
X106419100Y-60680602D01*
X106419100Y-54965600D01*
X110369665Y-54965600D01*
X110389384Y-55266452D01*
X110389386Y-55266464D01*
X110448202Y-55562153D01*
X110448207Y-55562173D01*
X110545114Y-55847652D01*
X110545118Y-55847662D01*
X110678465Y-56118063D01*
X110789810Y-56284702D01*
X111933759Y-55140753D01*
X111941571Y-55185054D01*
X112011940Y-55348187D01*
X112118033Y-55490694D01*
X112254130Y-55604894D01*
X112412895Y-55684628D01*
X112500495Y-55705389D01*
X111355496Y-56850388D01*
X111522126Y-56961728D01*
X111522139Y-56961735D01*
X111792537Y-57095081D01*
X111792547Y-57095085D01*
X112078026Y-57191992D01*
X112078046Y-57191997D01*
X112373735Y-57250813D01*
X112373747Y-57250815D01*
X112674600Y-57270534D01*
X112975452Y-57250815D01*
X112975464Y-57250813D01*
X113271153Y-57191997D01*
X113271173Y-57191992D01*
X113556652Y-57095085D01*
X113556662Y-57095081D01*
X113827064Y-56961734D01*
X113993703Y-56850389D01*
X112852823Y-55709507D01*
X113018009Y-55649384D01*
X113166444Y-55551757D01*
X113288364Y-55422530D01*
X113377195Y-55268670D01*
X113415478Y-55140793D01*
X114559389Y-56284703D01*
X114670734Y-56118064D01*
X114804081Y-55847662D01*
X114804085Y-55847652D01*
X114900992Y-55562173D01*
X114900997Y-55562153D01*
X114959813Y-55266464D01*
X114959815Y-55266452D01*
X114979534Y-54965600D01*
X114959815Y-54664747D01*
X114959813Y-54664735D01*
X114900997Y-54369046D01*
X114900993Y-54369031D01*
X114804083Y-54083544D01*
X114804074Y-54083523D01*
X114670731Y-53813132D01*
X114559388Y-53646496D01*
X113415439Y-54790444D01*
X113407629Y-54746146D01*
X113337260Y-54583013D01*
X113231167Y-54440506D01*
X113095070Y-54326306D01*
X112936305Y-54246572D01*
X112848704Y-54225810D01*
X113993702Y-53080810D01*
X113827063Y-52969465D01*
X113556662Y-52836118D01*
X113556652Y-52836114D01*
X113271173Y-52739207D01*
X113271153Y-52739202D01*
X112975464Y-52680386D01*
X112975452Y-52680384D01*
X112674600Y-52660665D01*
X112373747Y-52680384D01*
X112373735Y-52680386D01*
X112078046Y-52739202D01*
X112078031Y-52739206D01*
X111792544Y-52836116D01*
X111792523Y-52836125D01*
X111522133Y-52969467D01*
X111355496Y-53080810D01*
X111355495Y-53080810D01*
X112496377Y-54221692D01*
X112331191Y-54281816D01*
X112182756Y-54379443D01*
X112060836Y-54508670D01*
X111972005Y-54662530D01*
X111933721Y-54790406D01*
X110789810Y-53646495D01*
X110789810Y-53646496D01*
X110678467Y-53813133D01*
X110545125Y-54083523D01*
X110545116Y-54083544D01*
X110448206Y-54369031D01*
X110448202Y-54369046D01*
X110389386Y-54664735D01*
X110389384Y-54664747D01*
X110369665Y-54965600D01*
X106419100Y-54965600D01*
X106419100Y-49885601D01*
X110668990Y-49885601D01*
X110689404Y-50171033D01*
X110750228Y-50450637D01*
X110850235Y-50718766D01*
X110987370Y-50969909D01*
X110987375Y-50969917D01*
X111158854Y-51198987D01*
X111158870Y-51199005D01*
X111361194Y-51401329D01*
X111361212Y-51401345D01*
X111590282Y-51572824D01*
X111590290Y-51572829D01*
X111841433Y-51709964D01*
X111841432Y-51709964D01*
X111841436Y-51709965D01*
X111841439Y-51709967D01*
X112109554Y-51809969D01*
X112109560Y-51809970D01*
X112109562Y-51809971D01*
X112389166Y-51870795D01*
X112389168Y-51870795D01*
X112389172Y-51870796D01*
X112642820Y-51888937D01*
X112674599Y-51891210D01*
X112674600Y-51891210D01*
X112674601Y-51891210D01*
X112703195Y-51889164D01*
X112960028Y-51870796D01*
X113239646Y-51809969D01*
X113507761Y-51709967D01*
X113758915Y-51572826D01*
X113987995Y-51401339D01*
X114190339Y-51198995D01*
X114361826Y-50969915D01*
X114498967Y-50718761D01*
X114598969Y-50450646D01*
X114625333Y-50329453D01*
X114659795Y-50171033D01*
X114659795Y-50171032D01*
X114659796Y-50171028D01*
X114680210Y-49885600D01*
X114659796Y-49600172D01*
X114659757Y-49599995D01*
X114598971Y-49320562D01*
X114598970Y-49320560D01*
X114598969Y-49320554D01*
X114498967Y-49052439D01*
X114361826Y-48801285D01*
X114261253Y-48666935D01*
X114190345Y-48572212D01*
X114190329Y-48572194D01*
X113988005Y-48369870D01*
X113987987Y-48369854D01*
X113758917Y-48198375D01*
X113758909Y-48198370D01*
X113507766Y-48061235D01*
X113507767Y-48061235D01*
X113345938Y-48000876D01*
X113239646Y-47961231D01*
X113239643Y-47961230D01*
X113239637Y-47961228D01*
X112960033Y-47900404D01*
X112674601Y-47879990D01*
X112674599Y-47879990D01*
X112389166Y-47900404D01*
X112109562Y-47961228D01*
X111841433Y-48061235D01*
X111590290Y-48198370D01*
X111590282Y-48198375D01*
X111361212Y-48369854D01*
X111361194Y-48369870D01*
X111158870Y-48572194D01*
X111158854Y-48572212D01*
X110987375Y-48801282D01*
X110987370Y-48801290D01*
X110850235Y-49052433D01*
X110750228Y-49320562D01*
X110689404Y-49600166D01*
X110668990Y-49885598D01*
X110668990Y-49885601D01*
X106419100Y-49885601D01*
X106419100Y-48747027D01*
X106419416Y-48738181D01*
X106430799Y-48579026D01*
X106436641Y-48497334D01*
X106439157Y-48479837D01*
X106489541Y-48248225D01*
X106494520Y-48231268D01*
X106577356Y-48009174D01*
X106584697Y-47993101D01*
X106698296Y-47785060D01*
X106707852Y-47770191D01*
X106849899Y-47580438D01*
X106861473Y-47567081D01*
X107029081Y-47399473D01*
X107042438Y-47387899D01*
X107232191Y-47245852D01*
X107247060Y-47236296D01*
X107455101Y-47122697D01*
X107471174Y-47115356D01*
X107693268Y-47032520D01*
X107710225Y-47027541D01*
X107941837Y-46977157D01*
X107959334Y-46974641D01*
X108200182Y-46957416D01*
X108209028Y-46957100D01*
X108270492Y-46957100D01*
X129644330Y-46957100D01*
X129711369Y-46976785D01*
G37*
%TD.AperFunction*%
%TA.AperFunction,Conductor*%
G36*
X129920839Y-48397802D02*
G01*
X129916883Y-48403957D01*
X129922285Y-48385561D01*
X129975089Y-48339806D01*
X129992022Y-48336122D01*
X129920839Y-48397802D01*
G37*
%TD.AperFunction*%
%TD*%
M02*
