%TF.GenerationSoftware,KiCad,Pcbnew,7.0.10*%
%TF.CreationDate,2024-06-26T21:01:35-03:00*%
%TF.ProjectId,board,626f6172-642e-46b6-9963-61645f706362,1.0*%
%TF.SameCoordinates,Original*%
%TF.FileFunction,Soldermask,Bot*%
%TF.FilePolarity,Negative*%
%FSLAX46Y46*%
G04 Gerber Fmt 4.6, Leading zero omitted, Abs format (unit mm)*
G04 Created by KiCad (PCBNEW 7.0.10) date 2024-06-26 21:01:35*
%MOMM*%
%LPD*%
G01*
G04 APERTURE LIST*
%ADD10O,1.712000X1.712000*%
%ADD11C,1.712000*%
%ADD12O,3.000000X3.000000*%
%ADD13C,3.000000*%
%ADD14O,1.700000X1.700000*%
G04 APERTURE END LIST*
D10*
%TO.C,TP2*%
X123444000Y-80772000D03*
D11*
X123444000Y-93472000D03*
X133444000Y-93472000D03*
X133444000Y-80772000D03*
%TD*%
D10*
%TO.C,TP1*%
X123444000Y-63373000D03*
D11*
X123444000Y-76073000D03*
X133444000Y-76073000D03*
X133444000Y-63373000D03*
%TD*%
D12*
%TO.C,J7*%
X181356000Y-117475000D03*
D13*
X186436000Y-117475000D03*
%TD*%
D10*
%TO.C,TP3*%
X123444000Y-98171000D03*
D11*
X123444000Y-110871000D03*
X133444000Y-110871000D03*
X133444000Y-98171000D03*
%TD*%
D14*
%TO.C,P1*%
X151625000Y-71902000D03*
X154165000Y-71902000D03*
X156705000Y-71902000D03*
%TD*%
%TO.C,SW1*%
X133477000Y-51421000D03*
X136017000Y-51421000D03*
X138557000Y-51421000D03*
%TD*%
D12*
%TO.C,J4*%
X150876000Y-117475000D03*
D13*
X155956000Y-117475000D03*
%TD*%
D12*
%TO.C,J3*%
X117348000Y-117475000D03*
D13*
X122428000Y-117475000D03*
%TD*%
D14*
%TO.C,P4*%
X176022000Y-67564000D03*
X178562000Y-67564000D03*
X181102000Y-67564000D03*
%TD*%
D12*
%TO.C,J6*%
X171196000Y-117475000D03*
D13*
X176276000Y-117475000D03*
%TD*%
D14*
%TO.C,P5*%
X172822000Y-62357000D03*
X170282000Y-62357000D03*
X167742000Y-62357000D03*
X165202000Y-62357000D03*
X162662000Y-62357000D03*
X160122000Y-62357000D03*
%TD*%
%TO.C,P3*%
X174762000Y-72771000D03*
X177302000Y-72771000D03*
X179842000Y-72771000D03*
X182382000Y-72771000D03*
%TD*%
D12*
%TO.C,J2*%
X127508000Y-117475000D03*
D13*
X132588000Y-117475000D03*
%TD*%
D14*
%TO.C,P2*%
X178689000Y-62357000D03*
%TD*%
D12*
%TO.C,J5*%
X161036000Y-117475000D03*
D13*
X166116000Y-117475000D03*
%TD*%
D12*
%TO.C,J1*%
X120929000Y-52578000D03*
D13*
X120929000Y-57658000D03*
%TD*%
M02*
