%TF.GenerationSoftware,KiCad,Pcbnew,7.0.10*%
%TF.CreationDate,2024-05-27T19:38:20-03:00*%
%TF.ProjectId,board,626f6172-642e-46b6-9963-61645f706362,1.0*%
%TF.SameCoordinates,Original*%
%TF.FileFunction,Copper,L2,Bot*%
%TF.FilePolarity,Positive*%
%FSLAX46Y46*%
G04 Gerber Fmt 4.6, Leading zero omitted, Abs format (unit mm)*
G04 Created by KiCad (PCBNEW 7.0.10) date 2024-05-27 19:38:20*
%MOMM*%
%LPD*%
G01*
G04 APERTURE LIST*
%TA.AperFunction,ComponentPad*%
%ADD10O,2.000000X2.000000*%
%TD*%
%TA.AperFunction,ComponentPad*%
%ADD11C,2.000000*%
%TD*%
%TA.AperFunction,ComponentPad*%
%ADD12O,1.600000X1.600000*%
%TD*%
%TA.AperFunction,ComponentPad*%
%ADD13O,1.500000X1.500000*%
%TD*%
%TA.AperFunction,ComponentPad*%
%ADD14C,1.600000*%
%TD*%
%TA.AperFunction,ComponentPad*%
%ADD15O,1.530000X1.530000*%
%TD*%
%TA.AperFunction,ComponentPad*%
%ADD16C,1.530000*%
%TD*%
%TA.AperFunction,ComponentPad*%
%ADD17O,1.508000X1.508000*%
%TD*%
%TA.AperFunction,ComponentPad*%
%ADD18C,1.508000*%
%TD*%
%TA.AperFunction,ComponentPad*%
%ADD19O,3.000000X3.000000*%
%TD*%
%TA.AperFunction,ComponentPad*%
%ADD20C,3.000000*%
%TD*%
%TA.AperFunction,ComponentPad*%
%ADD21O,1.700000X1.700000*%
%TD*%
%TA.AperFunction,ComponentPad*%
%ADD22O,2.000000X1.905000*%
%TD*%
%TA.AperFunction,ViaPad*%
%ADD23C,0.600000*%
%TD*%
%TA.AperFunction,Conductor*%
%ADD24C,0.200000*%
%TD*%
G04 APERTURE END LIST*
D10*
%TO.P,PS1,1,AC/L*%
%TO.N,Line A*%
X104883000Y-51193600D03*
D11*
%TO.P,PS1,2,AC/N*%
%TO.N,Neutral*%
X104883000Y-57193600D03*
%TO.P,PS1,3,-Vout*%
%TO.N,GND*%
X138483000Y-45193600D03*
%TO.P,PS1,4,+Vout*%
%TO.N,Net-(PS1-+Vout)*%
X138483000Y-63193600D03*
%TD*%
D12*
%TO.P,AMP3,1*%
%TO.N,Wave C*%
X131953000Y-96748600D03*
%TO.P,AMP3,2,-*%
%TO.N,TP C-1*%
X131953000Y-99288600D03*
%TO.P,AMP3,3,+*%
%TO.N,TC A-1*%
X131953000Y-101828600D03*
%TO.P,AMP3,4,V-*%
%TO.N,GND*%
X131953000Y-104368600D03*
%TO.P,AMP3,5,+*%
%TO.N,TC A-1*%
X139573000Y-104368600D03*
%TO.P,AMP3,6,-*%
%TO.N,TC B-2*%
X139573000Y-101828600D03*
%TO.P,AMP3,7*%
%TO.N,Current B*%
X139573000Y-99288600D03*
%TO.P,AMP3,8,V+*%
%TO.N,Vin*%
X139573000Y-96748600D03*
%TD*%
D13*
%TO.P,DZ14,1,K*%
%TO.N,Current N*%
X191135000Y-51435000D03*
%TO.P,DZ14,2,A*%
%TO.N,Vcc*%
X191135000Y-43815000D03*
%TD*%
D14*
%TO.P,R9,1*%
%TO.N,Current A*%
X143373000Y-82133600D03*
D12*
%TO.P,R9,2*%
%TO.N,TC A-2*%
X143373000Y-92293600D03*
%TD*%
D13*
%TO.P,DZ2,1,K*%
%TO.N,Wave A*%
X160655000Y-51435000D03*
%TO.P,DZ2,2,A*%
%TO.N,Vcc*%
X160655000Y-43815000D03*
%TD*%
D14*
%TO.P,R7,1*%
%TO.N,TP B-1*%
X128133000Y-92928600D03*
D12*
%TO.P,R7,2*%
%TO.N,Wave B*%
X128133000Y-82768600D03*
%TD*%
D15*
%TO.P,MCU1,J1_1,3V3*%
%TO.N,Vcc*%
X166868000Y-76418600D03*
D16*
%TO.P,MCU1,J1_2,3V3__1*%
%TO.N,unconnected-(MCU1-3V3__1-PadJ1_2)*%
X166868000Y-78958600D03*
%TO.P,MCU1,J1_3,RST*%
%TO.N,unconnected-(MCU1-RST-PadJ1_3)*%
X166868000Y-81498600D03*
%TO.P,MCU1,J1_4,GPIO4*%
%TO.N,Wave A*%
X166868000Y-84038600D03*
%TO.P,MCU1,J1_5,GPIO5*%
%TO.N,Wave B*%
X166868000Y-86578600D03*
%TO.P,MCU1,J1_6,GPIO6*%
%TO.N,Current A*%
X166868000Y-89118600D03*
%TO.P,MCU1,J1_7,GPIO7*%
%TO.N,Wave C*%
X166868000Y-91658600D03*
%TO.P,MCU1,J1_8,GPIO15*%
%TO.N,CS*%
X166868000Y-94198600D03*
%TO.P,MCU1,J1_9,GPIO16*%
%TO.N,MOSI*%
X166868000Y-96738600D03*
%TO.P,MCU1,J1_10,GPIO17*%
%TO.N,SCK*%
X166868000Y-99278600D03*
%TO.P,MCU1,J1_11,GPIO18*%
%TO.N,MISO*%
X166868000Y-101818600D03*
%TO.P,MCU1,J1_12,GPIO8*%
%TO.N,Current B*%
X166868000Y-104358600D03*
%TO.P,MCU1,J1_13,GPIO3*%
%TO.N,unconnected-(MCU1-GPIO3-PadJ1_13)*%
X166868000Y-106898600D03*
%TO.P,MCU1,J1_14,GPIO46*%
%TO.N,unconnected-(MCU1-GPIO46-PadJ1_14)*%
X166868000Y-109438600D03*
%TO.P,MCU1,J1_15,GPIO9*%
%TO.N,Current N*%
X166868000Y-111978600D03*
%TO.P,MCU1,J1_16,GPIO10*%
%TO.N,Current C*%
X166868000Y-114518600D03*
%TO.P,MCU1,J1_17,GPIO11*%
%TO.N,unconnected-(MCU1-GPIO11-PadJ1_17)*%
X166868000Y-117058600D03*
%TO.P,MCU1,J1_18,GPIO12*%
%TO.N,unconnected-(MCU1-GPIO12-PadJ1_18)*%
X166868000Y-119598600D03*
%TO.P,MCU1,J1_19,GPIO13*%
%TO.N,unconnected-(MCU1-GPIO13-PadJ1_19)*%
X166868000Y-122138600D03*
%TO.P,MCU1,J1_20,GPIO14*%
%TO.N,unconnected-(MCU1-GPIO14-PadJ1_20)*%
X166868000Y-124678600D03*
%TO.P,MCU1,J1_21,5V0*%
%TO.N,unconnected-(MCU1-5V0-PadJ1_21)*%
X166868000Y-127218600D03*
%TO.P,MCU1,J1_22,GND*%
%TO.N,unconnected-(MCU1-GND-PadJ1_22)*%
X166868000Y-129758600D03*
%TO.P,MCU1,J3_1,GND__1*%
%TO.N,GND*%
X189728000Y-76418600D03*
%TO.P,MCU1,J3_2,U0TXD/GPIO43*%
%TO.N,UART TX*%
X189728000Y-78958600D03*
%TO.P,MCU1,J3_3,U0RXD/GPIO44*%
%TO.N,UART RX*%
X189728000Y-81498600D03*
%TO.P,MCU1,J3_4,GPIO1*%
%TO.N,unconnected-(MCU1-GPIO1-PadJ3_4)*%
X189728000Y-84038600D03*
%TO.P,MCU1,J3_5,GPIO2*%
%TO.N,unconnected-(MCU1-GPIO2-PadJ3_5)*%
X189728000Y-86578600D03*
%TO.P,MCU1,J3_6,MTMS/GPIO42*%
%TO.N,unconnected-(MCU1-MTMS{slash}GPIO42-PadJ3_6)*%
X189728000Y-89118600D03*
%TO.P,MCU1,J3_7,MTDI/GPIO41*%
%TO.N,unconnected-(MCU1-MTDI{slash}GPIO41-PadJ3_7)*%
X189728000Y-91658600D03*
%TO.P,MCU1,J3_8,MTDO/GPIO40*%
%TO.N,unconnected-(MCU1-MTDO{slash}GPIO40-PadJ3_8)*%
X189728000Y-94198600D03*
%TO.P,MCU1,J3_9,MTCK/GPIO39*%
%TO.N,unconnected-(MCU1-MTCK{slash}GPIO39-PadJ3_9)*%
X189728000Y-96738600D03*
%TO.P,MCU1,J3_10,GPIO38*%
%TO.N,unconnected-(MCU1-GPIO38-PadJ3_10)*%
X189728000Y-99278600D03*
%TO.P,MCU1,J3_11,GPIO37*%
%TO.N,unconnected-(MCU1-GPIO37-PadJ3_11)*%
X189728000Y-101818600D03*
%TO.P,MCU1,J3_12,GPIO36*%
%TO.N,unconnected-(MCU1-GPIO36-PadJ3_12)*%
X189728000Y-104358600D03*
%TO.P,MCU1,J3_13,GPIO35*%
%TO.N,unconnected-(MCU1-GPIO35-PadJ3_13)*%
X189728000Y-106898600D03*
%TO.P,MCU1,J3_14,GPIO0*%
%TO.N,unconnected-(MCU1-GPIO0-PadJ3_14)*%
X189728000Y-109438600D03*
%TO.P,MCU1,J3_15,GPIO45*%
%TO.N,unconnected-(MCU1-GPIO45-PadJ3_15)*%
X189728000Y-111978600D03*
%TO.P,MCU1,J3_16,GPIO48*%
%TO.N,unconnected-(MCU1-GPIO48-PadJ3_16)*%
X189728000Y-114518600D03*
%TO.P,MCU1,J3_17,GPIO47*%
%TO.N,unconnected-(MCU1-GPIO47-PadJ3_17)*%
X189728000Y-117058600D03*
%TO.P,MCU1,J3_18,GPIO21*%
%TO.N,unconnected-(MCU1-GPIO21-PadJ3_18)*%
X189728000Y-119598600D03*
%TO.P,MCU1,J3_19,USB_D+/GPIO20*%
%TO.N,unconnected-(MCU1-USB_D+{slash}GPIO20-PadJ3_19)*%
X189728000Y-122138600D03*
%TO.P,MCU1,J3_20,USB_D-/GPIO19*%
%TO.N,unconnected-(MCU1-USB_D-{slash}GPIO19-PadJ3_20)*%
X189728000Y-124678600D03*
%TO.P,MCU1,J3_21,GND__2*%
%TO.N,unconnected-(MCU1-GND__2-PadJ3_21)*%
X189728000Y-127218600D03*
%TO.P,MCU1,J3_22,GND__3*%
%TO.N,unconnected-(MCU1-GND__3-PadJ3_22)*%
X189728000Y-129758600D03*
%TD*%
D13*
%TO.P,DZ13,1,K*%
%TO.N,GND*%
X188595000Y-43815000D03*
%TO.P,DZ13,2,A*%
%TO.N,Current N*%
X188595000Y-51435000D03*
%TD*%
D12*
%TO.P,AMP4,1*%
%TO.N,Current C*%
X139553000Y-118318600D03*
%TO.P,AMP4,2,-*%
%TO.N,TC C-2*%
X139553000Y-115778600D03*
%TO.P,AMP4,3,+*%
%TO.N,TC A-1*%
X139553000Y-113238600D03*
%TO.P,AMP4,4,V-*%
%TO.N,GND*%
X139553000Y-110698600D03*
%TO.P,AMP4,5,+*%
%TO.N,TC A-1*%
X131933000Y-110698600D03*
%TO.P,AMP4,6,-*%
%TO.N,TC N-2*%
X131933000Y-113238600D03*
%TO.P,AMP4,7*%
%TO.N,Current N*%
X131933000Y-115778600D03*
%TO.P,AMP4,8,V+*%
%TO.N,Vin*%
X131933000Y-118318600D03*
%TD*%
D13*
%TO.P,DZ6,1,K*%
%TO.N,Wave C*%
X170815000Y-51440000D03*
%TO.P,DZ6,2,A*%
%TO.N,Vcc*%
X170815000Y-43820000D03*
%TD*%
%TO.P,DZ5,1,K*%
%TO.N,GND*%
X168275000Y-43810000D03*
%TO.P,DZ5,2,A*%
%TO.N,Wave C*%
X168275000Y-51430000D03*
%TD*%
D17*
%TO.P,TP1,1*%
%TO.N,Net-(R3-Pad1)*%
X111385500Y-69433600D03*
D18*
%TO.P,TP1,2*%
%TO.N,Neutral*%
X111385500Y-82133600D03*
%TO.P,TP1,3*%
%TO.N,TP A-1*%
X121385500Y-82133600D03*
%TO.P,TP1,4*%
%TO.N,TC A-1*%
X121385500Y-69433600D03*
%TD*%
D19*
%TO.P,J6,1,Pin_1*%
%TO.N,TC A-1*%
X125593000Y-125313600D03*
D20*
%TO.P,J6,2,Pin_2*%
%TO.N,TC N-2*%
X130673000Y-125313600D03*
%TD*%
D21*
%TO.P,P1,1,Pin_1*%
%TO.N,UART RX*%
X184800000Y-64770000D03*
%TO.P,P1,2,Pin_2*%
%TO.N,UART TX*%
X187340000Y-64770000D03*
%TO.P,P1,3,Pin_3*%
%TO.N,GND*%
X189880000Y-64770000D03*
%TD*%
D14*
%TO.P,R2,1*%
%TO.N,V1.65*%
X143373000Y-78958600D03*
D12*
%TO.P,R2,2*%
%TO.N,GND*%
X143373000Y-68798600D03*
%TD*%
D14*
%TO.P,R11,1*%
%TO.N,Current C*%
X143373000Y-119598600D03*
D12*
%TO.P,R11,2*%
%TO.N,TC C-2*%
X143373000Y-109438600D03*
%TD*%
D13*
%TO.P,DZ11,1,K*%
%TO.N,GND*%
X183515000Y-43815000D03*
%TO.P,DZ11,2,A*%
%TO.N,Current C*%
X183515000Y-51435000D03*
%TD*%
D21*
%TO.P,SW1,1,C*%
%TO.N,Vin*%
X145913000Y-57368600D03*
%TO.P,SW1,2,B*%
%TO.N,Net-(PS1-+Vout)*%
X145913000Y-59908600D03*
%TO.P,SW1,3,A*%
%TO.N,unconnected-(SW1-A-Pad3)*%
X145913000Y-62448600D03*
%TD*%
D14*
%TO.P,R6,1*%
%TO.N,TP A-1*%
X128133000Y-78958600D03*
D12*
%TO.P,R6,2*%
%TO.N,Wave A*%
X128133000Y-68798600D03*
%TD*%
D13*
%TO.P,DZ3,1,K*%
%TO.N,GND*%
X163195000Y-43805000D03*
%TO.P,DZ3,2,A*%
%TO.N,Wave B*%
X163195000Y-51425000D03*
%TD*%
D14*
%TO.P,R10,1*%
%TO.N,Current B*%
X143373000Y-96103600D03*
D12*
%TO.P,R10,2*%
%TO.N,TC B-2*%
X143373000Y-106263600D03*
%TD*%
D17*
%TO.P,TP2,1*%
%TO.N,Net-(R4-Pad1)*%
X111385500Y-87213600D03*
D18*
%TO.P,TP2,2*%
%TO.N,Neutral*%
X111385500Y-99913600D03*
%TO.P,TP2,3*%
%TO.N,TP B-1*%
X121385500Y-99913600D03*
%TO.P,TP2,4*%
%TO.N,TC A-1*%
X121385500Y-87213600D03*
%TD*%
D14*
%TO.P,R3,1*%
%TO.N,Net-(R3-Pad1)*%
X104400500Y-69433600D03*
D12*
%TO.P,R3,2*%
%TO.N,Line A*%
X104400500Y-79593600D03*
%TD*%
D14*
%TO.P,R12,1*%
%TO.N,Current N*%
X128133000Y-119598600D03*
D12*
%TO.P,R12,2*%
%TO.N,TC N-2*%
X128133000Y-109438600D03*
%TD*%
D13*
%TO.P,DZ12,1,K*%
%TO.N,Current C*%
X186055000Y-51440000D03*
%TO.P,DZ12,2,A*%
%TO.N,Vcc*%
X186055000Y-43820000D03*
%TD*%
D12*
%TO.P,C2,1*%
%TO.N,Vcc*%
X152898000Y-59368600D03*
D14*
%TO.P,C2,2*%
%TO.N,GND*%
X152898000Y-56868600D03*
%TD*%
D19*
%TO.P,J3,1,Pin_1*%
%TO.N,TC A-1*%
X156073000Y-125313600D03*
D20*
%TO.P,J3,2,Pin_2*%
%TO.N,TC A-2*%
X161153000Y-125313600D03*
%TD*%
D19*
%TO.P,J1,1,Pin_1*%
%TO.N,Line A*%
X103368000Y-125313600D03*
D20*
%TO.P,J1,2,Pin_2*%
%TO.N,Line B*%
X108448000Y-125313600D03*
%TD*%
D21*
%TO.P,P4,1,Pin_1*%
%TO.N,Wave A*%
X168275000Y-57785000D03*
%TO.P,P4,2,Pin_2*%
%TO.N,Wave B*%
X168275000Y-60325000D03*
%TO.P,P4,3,Pin_3*%
%TO.N,Wave C*%
X168275000Y-62865000D03*
%TD*%
D13*
%TO.P,DZ9,1,K*%
%TO.N,GND*%
X178435000Y-43810000D03*
%TO.P,DZ9,2,A*%
%TO.N,Current B*%
X178435000Y-51430000D03*
%TD*%
%TO.P,DZ7,1,K*%
%TO.N,GND*%
X173355000Y-43810000D03*
%TO.P,DZ7,2,A*%
%TO.N,Current A*%
X173355000Y-51430000D03*
%TD*%
D19*
%TO.P,J5,1,Pin_1*%
%TO.N,TC A-1*%
X135753000Y-125313600D03*
D20*
%TO.P,J5,2,Pin_2*%
%TO.N,TC C-2*%
X140833000Y-125313600D03*
%TD*%
D21*
%TO.P,P5,1,Pin_1*%
%TO.N,GND*%
X150358000Y-75783600D03*
%TO.P,P5,2,Pin_2*%
%TO.N,Vcc*%
X152898000Y-75783600D03*
%TO.P,P5,3,Pin_3*%
%TO.N,MISO*%
X155438000Y-75783600D03*
%TO.P,P5,4,Pin_4*%
%TO.N,MOSI*%
X157978000Y-75783600D03*
%TO.P,P5,5,Pin_5*%
%TO.N,SCK*%
X160518000Y-75783600D03*
%TO.P,P5,6,Pin_6*%
%TO.N,CS*%
X163058000Y-75783600D03*
%TD*%
D13*
%TO.P,DZ4,1,K*%
%TO.N,Wave B*%
X165735000Y-51435000D03*
%TO.P,DZ4,2,A*%
%TO.N,Vcc*%
X165735000Y-43815000D03*
%TD*%
D21*
%TO.P,P3,1,Pin_1*%
%TO.N,Current A*%
X175260000Y-56525000D03*
%TO.P,P3,2,Pin_2*%
%TO.N,Current B*%
X175260000Y-59065000D03*
%TO.P,P3,3,Pin_3*%
%TO.N,Current C*%
X175260000Y-61605000D03*
%TO.P,P3,4,Pin_4*%
%TO.N,Current N*%
X175260000Y-64145000D03*
%TD*%
D17*
%TO.P,TP3,1*%
%TO.N,Net-(R5-Pad1)*%
X111385500Y-104993600D03*
D18*
%TO.P,TP3,2*%
%TO.N,Neutral*%
X111385500Y-117693600D03*
%TO.P,TP3,3*%
%TO.N,TP C-1*%
X121385500Y-117693600D03*
%TO.P,TP3,4*%
%TO.N,TC A-1*%
X121385500Y-104993600D03*
%TD*%
D13*
%TO.P,DZ1,1,K*%
%TO.N,GND*%
X158115000Y-43810000D03*
%TO.P,DZ1,2,A*%
%TO.N,Wave A*%
X158115000Y-51430000D03*
%TD*%
D12*
%TO.P,C1,1*%
%TO.N,Vin*%
X145913000Y-47693600D03*
D14*
%TO.P,C1,2*%
%TO.N,GND*%
X145913000Y-45193600D03*
%TD*%
%TO.P,R8,1*%
%TO.N,TP C-1*%
X128133000Y-106908600D03*
D12*
%TO.P,R8,2*%
%TO.N,Wave C*%
X128133000Y-96748600D03*
%TD*%
D19*
%TO.P,J2,1,Pin_1*%
%TO.N,Line C*%
X113528000Y-125313600D03*
D20*
%TO.P,J2,2,Pin_2*%
%TO.N,Neutral*%
X118608000Y-125313600D03*
%TD*%
D21*
%TO.P,P2,1,Pin_1*%
%TO.N,TC A-1*%
X156708000Y-68798600D03*
%TD*%
D22*
%TO.P,PS2,1,GND*%
%TO.N,GND*%
X151953000Y-45193600D03*
%TO.P,PS2,2,VO*%
%TO.N,Vcc*%
X151953000Y-47733600D03*
%TO.P,PS2,3,VI*%
%TO.N,Vin*%
X151953000Y-50273600D03*
%TD*%
D13*
%TO.P,DZ8,1,K*%
%TO.N,Current A*%
X175895000Y-51440000D03*
%TO.P,DZ8,2,A*%
%TO.N,Vcc*%
X175895000Y-43820000D03*
%TD*%
%TO.P,DZ10,1,K*%
%TO.N,Current B*%
X180975000Y-51440000D03*
%TO.P,DZ10,2,A*%
%TO.N,Vcc*%
X180975000Y-43820000D03*
%TD*%
D14*
%TO.P,R4,1*%
%TO.N,Net-(R4-Pad1)*%
X104400500Y-87213600D03*
D12*
%TO.P,R4,2*%
%TO.N,Line B*%
X104400500Y-97373600D03*
%TD*%
D14*
%TO.P,R5,1*%
%TO.N,Net-(R5-Pad1)*%
X104400500Y-104993600D03*
D12*
%TO.P,R5,2*%
%TO.N,Line C*%
X104400500Y-115153600D03*
%TD*%
D14*
%TO.P,R1,1*%
%TO.N,Vcc*%
X146548000Y-68798600D03*
D12*
%TO.P,R1,2*%
%TO.N,V1.65*%
X146548000Y-78958600D03*
%TD*%
D19*
%TO.P,J4,1,Pin_1*%
%TO.N,TC A-1*%
X145913000Y-125313600D03*
D20*
%TO.P,J4,2,Pin_2*%
%TO.N,TC B-2*%
X150993000Y-125313600D03*
%TD*%
D12*
%TO.P,AMP2,1*%
%TO.N,Wave B*%
X131953000Y-82778600D03*
%TO.P,AMP2,2,-*%
%TO.N,TP B-1*%
X131953000Y-85318600D03*
%TO.P,AMP2,3,+*%
%TO.N,TC A-1*%
X131953000Y-87858600D03*
%TO.P,AMP2,4,V-*%
%TO.N,GND*%
X131953000Y-90398600D03*
%TO.P,AMP2,5,+*%
%TO.N,TC A-1*%
X139573000Y-90398600D03*
%TO.P,AMP2,6,-*%
%TO.N,TC A-2*%
X139573000Y-87858600D03*
%TO.P,AMP2,7*%
%TO.N,Current A*%
X139573000Y-85318600D03*
%TO.P,AMP2,8,V+*%
%TO.N,Vin*%
X139573000Y-82778600D03*
%TD*%
%TO.P,AMP1,1*%
%TO.N,Wave A*%
X131943000Y-68798600D03*
%TO.P,AMP1,2,-*%
%TO.N,TP A-1*%
X131943000Y-71338600D03*
%TO.P,AMP1,3,+*%
%TO.N,TC A-1*%
X131943000Y-73878600D03*
%TO.P,AMP1,4,V-*%
%TO.N,GND*%
X131943000Y-76418600D03*
%TO.P,AMP1,5,+*%
%TO.N,V1.65*%
X139563000Y-76418600D03*
%TO.P,AMP1,6,-*%
%TO.N,TC A-1*%
X139563000Y-73878600D03*
%TO.P,AMP1,7*%
X139563000Y-71338600D03*
%TO.P,AMP1,8,V+*%
%TO.N,Vin*%
X139563000Y-68798600D03*
%TD*%
D23*
%TO.N,Wave C*%
X159385000Y-62865000D03*
%TO.N,Wave A*%
X158115000Y-57785000D03*
%TO.N,Current A*%
X172720000Y-52705000D03*
%TO.N,Current B*%
X172085000Y-53340000D03*
%TO.N,Current C*%
X171450000Y-53975000D03*
%TO.N,Current N*%
X170815000Y-54610000D03*
%TO.N,Current A*%
X171948000Y-89118600D03*
%TO.N,Current N*%
X173853000Y-111978600D03*
%TO.N,TC A-2*%
X146548000Y-92293600D03*
%TO.N,TC A-1*%
X145278000Y-104368600D03*
X145278000Y-90388600D03*
%TO.N,TC B-2*%
X146548000Y-106263600D03*
%TO.N,Wave B*%
X158750000Y-60325000D03*
%TO.N,MOSI*%
X163693000Y-96738600D03*
%TO.N,Vin*%
X137023000Y-109438600D03*
%TD*%
D24*
%TO.N,Wave C*%
X168275000Y-62865000D02*
X159385000Y-62865000D01*
%TO.N,Wave A*%
X158115000Y-57785000D02*
X168275000Y-57785000D01*
%TO.N,Wave B*%
X158765000Y-60310000D02*
X168275000Y-60310000D01*
X158750000Y-60325000D02*
X158765000Y-60310000D01*
%TO.N,Current N*%
X171460000Y-64145000D02*
X175260000Y-64145000D01*
X170815000Y-63500000D02*
X171460000Y-64145000D01*
X170815000Y-54610000D02*
X170815000Y-63500000D01*
%TO.N,Current C*%
X172095000Y-61605000D02*
X175260000Y-61605000D01*
X171450000Y-60960000D02*
X172095000Y-61605000D01*
X171450000Y-53975000D02*
X171450000Y-60960000D01*
%TO.N,Current B*%
X172730000Y-59065000D02*
X175260000Y-59065000D01*
X172085000Y-58420000D02*
X172730000Y-59065000D01*
X172085000Y-53340000D02*
X172085000Y-58420000D01*
%TO.N,Current A*%
X173365000Y-56525000D02*
X175260000Y-56525000D01*
X172720000Y-55880000D02*
X173365000Y-56525000D01*
X172720000Y-52705000D02*
X172720000Y-55880000D01*
%TO.N,GND*%
X151953000Y-45193600D02*
X153956600Y-43190000D01*
%TO.N,Vcc*%
X152898000Y-64353600D02*
X148453000Y-68798600D01*
X148453000Y-68798600D02*
X146548000Y-68798600D01*
X152898000Y-59368600D02*
X152898000Y-64353600D01*
%TO.N,GND*%
X134483000Y-87868600D02*
X134483000Y-87848600D01*
X134483000Y-87848600D02*
X134483000Y-73878600D01*
X134483000Y-73878600D02*
X134483000Y-49193600D01*
X131953000Y-104368600D02*
X134483000Y-101838600D01*
X150358000Y-57638600D02*
X151128000Y-56868600D01*
X149088000Y-48368600D02*
X145913000Y-45193600D01*
X169408000Y-76418600D02*
X189728000Y-76418600D01*
X134483000Y-109438600D02*
X135743000Y-110698600D01*
X156073000Y-63083600D02*
X169408000Y-76418600D01*
X132180500Y-76418600D02*
X131943000Y-76418600D01*
X149088000Y-54828600D02*
X149088000Y-48368600D01*
X147818000Y-66258600D02*
X150358000Y-63718600D01*
X131943000Y-76418600D02*
X134483000Y-73878600D01*
X143373000Y-67528600D02*
X144643000Y-66258600D01*
X143373000Y-68798600D02*
X143373000Y-67528600D01*
X134483000Y-49193600D02*
X138483000Y-45193600D01*
X144643000Y-66258600D02*
X147818000Y-66258600D01*
X131953000Y-90398600D02*
X134483000Y-87868600D01*
X152898000Y-56868600D02*
X151128000Y-56868600D01*
X152898000Y-56868600D02*
X154938000Y-56868600D01*
X134483000Y-101838600D02*
X134483000Y-87848600D01*
X134483000Y-101838600D02*
X134483000Y-109438600D01*
X151128000Y-56868600D02*
X149088000Y-54828600D01*
X150358000Y-63718600D02*
X150358000Y-57638600D01*
X135743000Y-110698600D02*
X139553000Y-110698600D01*
X154938000Y-56868600D02*
X156073000Y-58003600D01*
X156073000Y-58003600D02*
X156073000Y-63083600D01*
%TO.N,Current A*%
X166868000Y-89118600D02*
X171948000Y-89118600D01*
%TO.N,Current N*%
X166868000Y-111978600D02*
X173853000Y-111978600D01*
%TO.N,TC A-2*%
X161153000Y-125313600D02*
X157343000Y-121503600D01*
X146548000Y-101818600D02*
X146548000Y-92293600D01*
X157343000Y-121503600D02*
X150993000Y-121503600D01*
X150993000Y-121503600D02*
X149088000Y-119598600D01*
X149088000Y-104358600D02*
X146548000Y-101818600D01*
X149088000Y-119598600D02*
X149088000Y-104358600D01*
%TO.N,TC A-1*%
X156708000Y-68798600D02*
X150993000Y-68798600D01*
X123499250Y-87858600D02*
X131953000Y-87858600D01*
X141468000Y-103723600D02*
X140823000Y-104368600D01*
X139553000Y-113238600D02*
X136378000Y-113238600D01*
X122854250Y-87213600D02*
X123499250Y-87858600D01*
X136378000Y-113238600D02*
X133838000Y-110698600D01*
X127299250Y-73878600D02*
X122854250Y-69433600D01*
X148453000Y-71338600D02*
X140833000Y-71338600D01*
X121385500Y-104993600D02*
X122735500Y-104993600D01*
X145278000Y-102453600D02*
X145278000Y-90388600D01*
X145913000Y-122773600D02*
X145278000Y-122138600D01*
X141468000Y-112613600D02*
X141468000Y-103723600D01*
X145913000Y-122773600D02*
X145913000Y-125313600D01*
X140843000Y-113238600D02*
X141468000Y-112613600D01*
X125900500Y-101828600D02*
X131953000Y-101828600D01*
X141468000Y-89763600D02*
X141468000Y-103723600D01*
X141468000Y-89763600D02*
X140833000Y-90398600D01*
X139563000Y-71338600D02*
X140833000Y-71338600D01*
X140833000Y-71338600D02*
X141468000Y-71973600D01*
X122854250Y-69433600D02*
X121385500Y-69433600D01*
X150358000Y-122773600D02*
X147818000Y-120233600D01*
X135753000Y-125313600D02*
X135753000Y-117038600D01*
X139553000Y-113238600D02*
X140843000Y-113238600D01*
X131933000Y-110698600D02*
X129413000Y-110698600D01*
X150993000Y-68798600D02*
X148453000Y-71338600D01*
X145278000Y-122138600D02*
X145278000Y-104368600D01*
X133838000Y-110698600D02*
X131933000Y-110698600D01*
X135753000Y-117038600D02*
X139553000Y-113238600D01*
X121385500Y-87213600D02*
X122854250Y-87213600D01*
X140823000Y-104368600D02*
X139573000Y-104368600D01*
X132578000Y-73878600D02*
X127299250Y-73878600D01*
X141468000Y-71973600D02*
X141468000Y-89763600D01*
X156073000Y-125313600D02*
X153533000Y-122773600D01*
X153533000Y-122773600D02*
X150358000Y-122773600D01*
X125593000Y-114518600D02*
X125593000Y-125313600D01*
X122735500Y-104993600D02*
X125900500Y-101828600D01*
X140833000Y-90398600D02*
X139573000Y-90398600D01*
X147818000Y-104993600D02*
X145278000Y-102453600D01*
X129413000Y-110698600D02*
X125593000Y-114518600D01*
X147818000Y-120233600D02*
X147818000Y-104993600D01*
%TO.N,TC B-2*%
X146548000Y-120868600D02*
X150993000Y-125313600D01*
X146548000Y-106263600D02*
X146548000Y-120868600D01*
%TO.N,CS*%
X164328000Y-93563600D02*
X164328000Y-78958600D01*
X166868000Y-94198600D02*
X164963000Y-94198600D01*
X163058000Y-77688600D02*
X163058000Y-75783600D01*
X164963000Y-94198600D02*
X164328000Y-93563600D01*
X164328000Y-78958600D02*
X163058000Y-77688600D01*
%TO.N,MOSI*%
X157978000Y-77688600D02*
X157978000Y-75783600D01*
X163693000Y-95468600D02*
X163058000Y-94833600D01*
X159248000Y-78958600D02*
X157978000Y-77688600D01*
X163058000Y-80228600D02*
X161788000Y-78958600D01*
X161788000Y-78958600D02*
X159248000Y-78958600D01*
X163693000Y-96738600D02*
X163693000Y-95468600D01*
X163058000Y-94833600D02*
X163058000Y-80228600D01*
%TO.N,SCK*%
X164328000Y-94833600D02*
X163693000Y-94198600D01*
X163693000Y-79593600D02*
X162423000Y-78323600D01*
X162423000Y-78323600D02*
X161153000Y-78323600D01*
X161153000Y-78323600D02*
X160518000Y-77688600D01*
X166868000Y-99278600D02*
X164963000Y-99278600D01*
X164328000Y-98643600D02*
X164328000Y-94833600D01*
X160518000Y-77688600D02*
X160518000Y-75783600D01*
X163693000Y-94198600D02*
X163693000Y-79593600D01*
X164963000Y-99278600D02*
X164328000Y-98643600D01*
%TO.N,MISO*%
X161153000Y-79593600D02*
X157343000Y-79593600D01*
X163693000Y-99278600D02*
X163693000Y-98008600D01*
X163693000Y-98008600D02*
X163093000Y-97408600D01*
X157343000Y-79593600D02*
X155438000Y-77688600D01*
X164328000Y-99913600D02*
X163693000Y-99278600D01*
X164963000Y-101818600D02*
X164328000Y-101183600D01*
X164328000Y-101183600D02*
X164328000Y-99913600D01*
X163093000Y-97408600D02*
X163093000Y-96245365D01*
X163093000Y-96245365D02*
X162423000Y-95575365D01*
X166868000Y-101818600D02*
X164963000Y-101818600D01*
X162423000Y-95575365D02*
X162423000Y-80863600D01*
X155438000Y-77688600D02*
X155438000Y-75783600D01*
X162423000Y-80863600D02*
X161153000Y-79593600D01*
%TO.N,TC N-2*%
X130673000Y-125313600D02*
X130673000Y-122773600D01*
X130673000Y-122773600D02*
X130038000Y-122138600D01*
X130038000Y-122138600D02*
X130038000Y-115133600D01*
X130038000Y-115133600D02*
X131933000Y-113238600D01*
%TO.N,Vin*%
X139573000Y-96748600D02*
X137023000Y-94198600D01*
X139573000Y-82778600D02*
X137023000Y-80228600D01*
X137023000Y-80228600D02*
X137023000Y-66258600D01*
X137023000Y-94198600D02*
X137023000Y-109438600D01*
X140198000Y-69186100D02*
X139950500Y-69186100D01*
X137023000Y-66258600D02*
X139563000Y-68798600D01*
X139563000Y-57368600D02*
X145913000Y-57368600D01*
X135753000Y-61178600D02*
X139563000Y-57368600D01*
X135753000Y-64988600D02*
X135753000Y-61178600D01*
X137023000Y-66258600D02*
X135753000Y-64988600D01*
X137023000Y-94198600D02*
X137023000Y-80228600D01*
%TO.N,TC C-2*%
X140833000Y-125313600D02*
X140833000Y-122773600D01*
X141468000Y-122138600D02*
X141468000Y-117693600D01*
X140833000Y-122773600D02*
X141468000Y-122138600D01*
X141468000Y-117693600D02*
X139553000Y-115778600D01*
%TD*%
M02*
