M48
; DRILL file {KiCad 7.0.10} date Mon May 27 19:38:40 2024
; FORMAT={-:-/ absolute / metric / decimal}
; #@! TF.CreationDate,2024-05-27T19:38:40-03:00
; #@! TF.GenerationSoftware,Kicad,Pcbnew,7.0.10
; #@! TF.FileFunction,Plated,1,2,PTH
FMAT,2
METRIC
; #@! TA.AperFunction,Plated,PTH,ViaDrill
T1C0.300
; #@! TA.AperFunction,Plated,PTH,ComponentDrill
T2C0.750
; #@! TA.AperFunction,Plated,PTH,ComponentDrill
T3C0.800
; #@! TA.AperFunction,Plated,PTH,ComponentDrill
T4C1.000
; #@! TA.AperFunction,Plated,PTH,ComponentDrill
T5C1.020
; #@! TA.AperFunction,Plated,PTH,ComponentDrill
T6C1.100
; #@! TA.AperFunction,Plated,PTH,ComponentDrill
T7C1.520
%
G90
G05
T1
X137.023Y-109.439
X145.278Y-90.389
X145.278Y-104.369
X146.548Y-92.294
X146.548Y-106.264
X158.115Y-57.785
X158.75Y-60.325
X159.385Y-62.865
X163.693Y-96.739
X170.815Y-54.61
X171.45Y-53.975
X171.948Y-89.119
X172.085Y-53.34
X172.72Y-52.705
X173.853Y-111.979
T2
X158.115Y-43.81
X158.115Y-51.43
X160.655Y-43.815
X160.655Y-51.435
X163.195Y-43.805
X163.195Y-51.425
X165.735Y-43.815
X165.735Y-51.435
X168.275Y-43.81
X168.275Y-51.43
X170.815Y-43.82
X170.815Y-51.44
X173.355Y-43.81
X173.355Y-51.43
X175.895Y-43.82
X175.895Y-51.44
X178.435Y-43.81
X178.435Y-51.43
X180.975Y-43.82
X180.975Y-51.44
X183.515Y-43.815
X183.515Y-51.435
X186.055Y-43.82
X186.055Y-51.44
X188.595Y-43.815
X188.595Y-51.435
X191.135Y-43.815
X191.135Y-51.435
T3
X104.4Y-69.434
X104.4Y-79.594
X104.4Y-87.214
X104.4Y-97.374
X104.4Y-104.994
X104.4Y-115.154
X128.133Y-68.799
X128.133Y-78.959
X128.133Y-82.769
X128.133Y-92.929
X128.133Y-96.749
X128.133Y-106.909
X128.133Y-109.439
X128.133Y-119.599
X131.933Y-110.699
X131.933Y-113.239
X131.933Y-115.779
X131.933Y-118.319
X131.943Y-68.799
X131.943Y-71.339
X131.943Y-73.879
X131.943Y-76.419
X131.953Y-82.779
X131.953Y-85.319
X131.953Y-87.859
X131.953Y-90.399
X131.953Y-96.749
X131.953Y-99.289
X131.953Y-101.829
X131.953Y-104.369
X139.553Y-110.699
X139.553Y-113.239
X139.553Y-115.779
X139.553Y-118.319
X139.563Y-68.799
X139.563Y-71.339
X139.563Y-73.879
X139.563Y-76.419
X139.573Y-82.779
X139.573Y-85.319
X139.573Y-87.859
X139.573Y-90.399
X139.573Y-96.749
X139.573Y-99.289
X139.573Y-101.829
X139.573Y-104.369
X143.373Y-68.799
X143.373Y-78.959
X143.373Y-82.134
X143.373Y-92.294
X143.373Y-96.104
X143.373Y-106.264
X143.373Y-109.439
X143.373Y-119.599
X145.913Y-45.194
X145.913Y-47.694
X146.548Y-68.799
X146.548Y-78.959
X152.898Y-56.869
X152.898Y-59.369
T4
X104.883Y-51.194
X104.883Y-57.194
X111.385Y-69.434
X111.385Y-82.134
X111.385Y-87.214
X111.385Y-99.914
X111.385Y-104.994
X111.385Y-117.694
X121.385Y-69.434
X121.385Y-82.134
X121.385Y-87.214
X121.385Y-99.914
X121.385Y-104.994
X121.385Y-117.694
X138.483Y-45.194
X138.483Y-63.194
X145.913Y-57.369
X145.913Y-59.909
X145.913Y-62.449
X150.358Y-75.784
X152.898Y-75.784
X155.438Y-75.784
X156.708Y-68.799
X157.978Y-75.784
X160.518Y-75.784
X163.058Y-75.784
X168.275Y-57.785
X168.275Y-60.325
X168.275Y-62.865
X175.26Y-56.525
X175.26Y-59.065
X175.26Y-61.605
X175.26Y-64.145
X184.8Y-64.77
X187.34Y-64.77
X189.88Y-64.77
T5
X166.868Y-76.419
X166.868Y-78.959
X166.868Y-81.499
X166.868Y-84.039
X166.868Y-86.579
X166.868Y-89.119
X166.868Y-91.659
X166.868Y-94.199
X166.868Y-96.739
X166.868Y-99.279
X166.868Y-101.819
X166.868Y-104.359
X166.868Y-106.899
X166.868Y-109.439
X166.868Y-111.979
X166.868Y-114.519
X166.868Y-117.059
X166.868Y-119.599
X166.868Y-122.139
X166.868Y-124.679
X166.868Y-127.219
X166.868Y-129.759
X189.728Y-76.419
X189.728Y-78.959
X189.728Y-81.499
X189.728Y-84.039
X189.728Y-86.579
X189.728Y-89.119
X189.728Y-91.659
X189.728Y-94.199
X189.728Y-96.739
X189.728Y-99.279
X189.728Y-101.819
X189.728Y-104.359
X189.728Y-106.899
X189.728Y-109.439
X189.728Y-111.979
X189.728Y-114.519
X189.728Y-117.059
X189.728Y-119.599
X189.728Y-122.139
X189.728Y-124.679
X189.728Y-127.219
X189.728Y-129.759
T6
X151.953Y-45.194
X151.953Y-47.734
X151.953Y-50.274
T7
X103.368Y-125.314
X108.448Y-125.314
X113.528Y-125.314
X118.608Y-125.314
X125.593Y-125.314
X130.673Y-125.314
X135.753Y-125.314
X140.833Y-125.314
X145.913Y-125.314
X150.993Y-125.314
X156.073Y-125.314
X161.153Y-125.314
M30
