%TF.GenerationSoftware,KiCad,Pcbnew,7.0.10*%
%TF.CreationDate,2024-06-01T01:33:42-03:00*%
%TF.ProjectId,board,626f6172-642e-46b6-9963-61645f706362,1.1*%
%TF.SameCoordinates,Original*%
%TF.FileFunction,Soldermask,Top*%
%TF.FilePolarity,Negative*%
%FSLAX46Y46*%
G04 Gerber Fmt 4.6, Leading zero omitted, Abs format (unit mm)*
G04 Created by KiCad (PCBNEW 7.0.10) date 2024-06-01 01:33:42*
%MOMM*%
%LPD*%
G01*
G04 APERTURE LIST*
%ADD10O,1.600000X1.600000*%
%ADD11O,1.500000X1.500000*%
%ADD12C,1.600000*%
%ADD13O,2.000000X2.000000*%
%ADD14C,2.000000*%
%ADD15O,1.734000X1.734000*%
%ADD16C,1.734000*%
%ADD17O,1.712000X1.712000*%
%ADD18C,1.712000*%
%ADD19O,3.000000X3.000000*%
%ADD20C,3.000000*%
%ADD21O,1.700000X1.700000*%
%ADD22O,2.000000X1.905000*%
G04 APERTURE END LIST*
D10*
%TO.C,AMP3*%
X131953000Y-96748600D03*
X131953000Y-99288600D03*
X131953000Y-101828600D03*
X131953000Y-104368600D03*
X139573000Y-104368600D03*
X139573000Y-101828600D03*
X139573000Y-99288600D03*
X139573000Y-96748600D03*
%TD*%
D11*
%TO.C,DZ14*%
X191135000Y-51435000D03*
X191135000Y-43815000D03*
%TD*%
D12*
%TO.C,R9*%
X143373000Y-82133600D03*
D10*
X143373000Y-92293600D03*
%TD*%
D11*
%TO.C,DZ2*%
X160655000Y-51435000D03*
X160655000Y-43815000D03*
%TD*%
D12*
%TO.C,R7*%
X128133000Y-92928600D03*
D10*
X128133000Y-82768600D03*
%TD*%
D13*
%TO.C,PS1*%
X104883000Y-51193600D03*
D14*
X104883000Y-57193600D03*
X138483000Y-45193600D03*
X138483000Y-63193600D03*
%TD*%
D15*
%TO.C,MCU1*%
X166868000Y-76418600D03*
D16*
X166868000Y-78958600D03*
X166868000Y-81498600D03*
X166868000Y-84038600D03*
X166868000Y-86578600D03*
X166868000Y-89118600D03*
X166868000Y-91658600D03*
X166868000Y-94198600D03*
X166868000Y-96738600D03*
X166868000Y-99278600D03*
X166868000Y-101818600D03*
X166868000Y-104358600D03*
X166868000Y-106898600D03*
X166868000Y-109438600D03*
X166868000Y-111978600D03*
X166868000Y-114518600D03*
X166868000Y-117058600D03*
X166868000Y-119598600D03*
X166868000Y-122138600D03*
X166868000Y-124678600D03*
X166868000Y-127218600D03*
X166868000Y-129758600D03*
X189728000Y-76418600D03*
X189728000Y-78958600D03*
X189728000Y-81498600D03*
X189728000Y-84038600D03*
X189728000Y-86578600D03*
X189728000Y-89118600D03*
X189728000Y-91658600D03*
X189728000Y-94198600D03*
X189728000Y-96738600D03*
X189728000Y-99278600D03*
X189728000Y-101818600D03*
X189728000Y-104358600D03*
X189728000Y-106898600D03*
X189728000Y-109438600D03*
X189728000Y-111978600D03*
X189728000Y-114518600D03*
X189728000Y-117058600D03*
X189728000Y-119598600D03*
X189728000Y-122138600D03*
X189728000Y-124678600D03*
X189728000Y-127218600D03*
X189728000Y-129758600D03*
%TD*%
D11*
%TO.C,DZ13*%
X188595000Y-43815000D03*
X188595000Y-51435000D03*
%TD*%
D10*
%TO.C,AMP4*%
X139553000Y-118318600D03*
X139553000Y-115778600D03*
X139553000Y-113238600D03*
X139553000Y-110698600D03*
X131933000Y-110698600D03*
X131933000Y-113238600D03*
X131933000Y-115778600D03*
X131933000Y-118318600D03*
%TD*%
D11*
%TO.C,DZ6*%
X170815000Y-51440000D03*
X170815000Y-43820000D03*
%TD*%
%TO.C,DZ5*%
X168275000Y-43810000D03*
X168275000Y-51430000D03*
%TD*%
D17*
%TO.C,TP1*%
X111385500Y-69433600D03*
D18*
X111385500Y-82133600D03*
X121385500Y-82133600D03*
X121385500Y-69433600D03*
%TD*%
D19*
%TO.C,J6*%
X125593000Y-125313600D03*
D20*
X130673000Y-125313600D03*
%TD*%
D21*
%TO.C,P1*%
X184800000Y-64770000D03*
X187340000Y-64770000D03*
X189880000Y-64770000D03*
%TD*%
D12*
%TO.C,R2*%
X143373000Y-78958600D03*
D10*
X143373000Y-68798600D03*
%TD*%
D12*
%TO.C,R11*%
X143373000Y-119598600D03*
D10*
X143373000Y-109438600D03*
%TD*%
D11*
%TO.C,DZ11*%
X183515000Y-43815000D03*
X183515000Y-51435000D03*
%TD*%
D21*
%TO.C,SW1*%
X145913000Y-57368600D03*
X145913000Y-59908600D03*
X145913000Y-62448600D03*
%TD*%
D12*
%TO.C,R6*%
X128133000Y-78958600D03*
D10*
X128133000Y-68798600D03*
%TD*%
D11*
%TO.C,DZ3*%
X163195000Y-43805000D03*
X163195000Y-51425000D03*
%TD*%
D12*
%TO.C,R10*%
X143373000Y-96103600D03*
D10*
X143373000Y-106263600D03*
%TD*%
D17*
%TO.C,TP2*%
X111385500Y-87213600D03*
D18*
X111385500Y-99913600D03*
X121385500Y-99913600D03*
X121385500Y-87213600D03*
%TD*%
D12*
%TO.C,R3*%
X104400500Y-69433600D03*
D10*
X104400500Y-79593600D03*
%TD*%
D12*
%TO.C,R12*%
X128133000Y-119598600D03*
D10*
X128133000Y-109438600D03*
%TD*%
D11*
%TO.C,DZ12*%
X186055000Y-51440000D03*
X186055000Y-43820000D03*
%TD*%
D10*
%TO.C,C2*%
X152898000Y-59368600D03*
D12*
X152898000Y-56868600D03*
%TD*%
D19*
%TO.C,J3*%
X156073000Y-125313600D03*
D20*
X161153000Y-125313600D03*
%TD*%
D19*
%TO.C,J1*%
X103368000Y-125313600D03*
D20*
X108448000Y-125313600D03*
%TD*%
D21*
%TO.C,P4*%
X168275000Y-57785000D03*
X168275000Y-60325000D03*
X168275000Y-62865000D03*
%TD*%
D11*
%TO.C,DZ9*%
X178435000Y-43810000D03*
X178435000Y-51430000D03*
%TD*%
%TO.C,DZ7*%
X173355000Y-43810000D03*
X173355000Y-51430000D03*
%TD*%
D19*
%TO.C,J5*%
X135753000Y-125313600D03*
D20*
X140833000Y-125313600D03*
%TD*%
D21*
%TO.C,P5*%
X150358000Y-75783600D03*
X152898000Y-75783600D03*
X155438000Y-75783600D03*
X157978000Y-75783600D03*
X160518000Y-75783600D03*
X163058000Y-75783600D03*
%TD*%
D11*
%TO.C,DZ4*%
X165735000Y-51435000D03*
X165735000Y-43815000D03*
%TD*%
D21*
%TO.C,P3*%
X175260000Y-56525000D03*
X175260000Y-59065000D03*
X175260000Y-61605000D03*
X175260000Y-64145000D03*
%TD*%
D17*
%TO.C,TP3*%
X111385500Y-104993600D03*
D18*
X111385500Y-117693600D03*
X121385500Y-117693600D03*
X121385500Y-104993600D03*
%TD*%
D11*
%TO.C,DZ1*%
X158115000Y-43810000D03*
X158115000Y-51430000D03*
%TD*%
D10*
%TO.C,C1*%
X145913000Y-47693600D03*
D12*
X145913000Y-45193600D03*
%TD*%
%TO.C,R8*%
X128133000Y-106908600D03*
D10*
X128133000Y-96748600D03*
%TD*%
D19*
%TO.C,J2*%
X113528000Y-125313600D03*
D20*
X118608000Y-125313600D03*
%TD*%
D21*
%TO.C,P2*%
X156708000Y-68798600D03*
%TD*%
D22*
%TO.C,PS2*%
X151953000Y-45193600D03*
X151953000Y-47733600D03*
X151953000Y-50273600D03*
%TD*%
D11*
%TO.C,DZ8*%
X175895000Y-51440000D03*
X175895000Y-43820000D03*
%TD*%
%TO.C,DZ10*%
X180975000Y-51440000D03*
X180975000Y-43820000D03*
%TD*%
D12*
%TO.C,R4*%
X104400500Y-87213600D03*
D10*
X104400500Y-97373600D03*
%TD*%
D12*
%TO.C,R5*%
X104400500Y-104993600D03*
D10*
X104400500Y-115153600D03*
%TD*%
D12*
%TO.C,R1*%
X146548000Y-68798600D03*
D10*
X146548000Y-78958600D03*
%TD*%
D19*
%TO.C,J4*%
X145913000Y-125313600D03*
D20*
X150993000Y-125313600D03*
%TD*%
D10*
%TO.C,AMP2*%
X131953000Y-82778600D03*
X131953000Y-85318600D03*
X131953000Y-87858600D03*
X131953000Y-90398600D03*
X139573000Y-90398600D03*
X139573000Y-87858600D03*
X139573000Y-85318600D03*
X139573000Y-82778600D03*
%TD*%
%TO.C,AMP1*%
X131943000Y-68798600D03*
X131943000Y-71338600D03*
X131943000Y-73878600D03*
X131943000Y-76418600D03*
X139563000Y-76418600D03*
X139563000Y-73878600D03*
X139563000Y-71338600D03*
X139563000Y-68798600D03*
%TD*%
M02*
